/* XPM */
static char * kunai_10_xpm[] = {
"32 32 320 2",
"  	c #A3A78D",
". 	c #B4B8A7",
"+ 	c #AEB2A2",
"@ 	c #6D893C",
"# 	c #779B31",
"$ 	c #799E32",
"% 	c #6B8F27",
"& 	c #799C32",
"* 	c #759930",
"= 	c #7BA034",
"- 	c #749730",
"; 	c #71942D",
"> 	c #72962D",
", 	c #769931",
"' 	c #789B32",
") 	c #70942C",
"! 	c #759A2E",
"~ 	c #72952D",
"{ 	c #779A31",
"] 	c #769B2F",
"^ 	c #72962E",
"/ 	c #74953B",
"( 	c #A0A697",
"_ 	c #B9BEBA",
": 	c #B4B7B3",
"< 	c #CBCCCB",
"[ 	c #8D8E7A",
"} 	c #A7A99B",
"| 	c #B5BAAA",
"1 	c #B0B4A7",
"2 	c #738D3F",
"3 	c #74972F",
"4 	c #73972D",
"5 	c #70942B",
"6 	c #759830",
"7 	c #7A9D35",
"8 	c #7A9E35",
"9 	c #7DA136",
"0 	c #789C32",
"a 	c #73962E",
"b 	c #75992E",
"c 	c #779C31",
"d 	c #6F932B",
"e 	c #7B9F34",
"f 	c #799B33",
"g 	c #98A38C",
"h 	c #BEC1C0",
"i 	c #B6B8AF",
"j 	c #A5A99A",
"k 	c #898A7A",
"l 	c #9C9E90",
"m 	c #AAAD9F",
"n 	c #95A083",
"o 	c #7CA035",
"p 	c #769831",
"q 	c #7EA236",
"r 	c #73972F",
"s 	c #7DA135",
"t 	c #7FA437",
"u 	c #70932C",
"v 	c #799D33",
"w 	c #6F922A",
"x 	c #7EA336",
"y 	c #789C33",
"z 	c #7BA033",
"A 	c #769932",
"B 	c #7B9E35",
"C 	c #7CA036",
"D 	c #71942C",
"E 	c #839E56",
"F 	c #ABAEA3",
"G 	c #A1A592",
"H 	c #B6BAAA",
"I 	c #A1A098",
"J 	c #75903F",
"K 	c #7CA037",
"L 	c #6F922B",
"M 	c #779B30",
"N 	c #799C34",
"O 	c #789B33",
"P 	c #7DA036",
"Q 	c #799D32",
"R 	c #72952E",
"S 	c #74992F",
"T 	c #6A8D26",
"U 	c #789B34",
"V 	c #6F9329",
"W 	c #7B9F36",
"X 	c #7EA237",
"Y 	c #73982E",
"Z 	c #72824B",
"` 	c #C3C5BE",
" .	c #BABDB9",
"..	c #9AA18B",
"+.	c #7DA234",
"@.	c #84AB39",
"#.	c #759831",
"$.	c #6B8E26",
"%.	c #75982F",
"&.	c #82A738",
"*.	c #71952D",
"=.	c #71952C",
"-.	c #71932C",
";.	c #7DA335",
">.	c #85AB39",
",.	c #F7F7F7",
"'.	c #82A739",
").	c #7B9F33",
"!.	c #748E40",
"~.	c #9AA388",
"{.	c #94A47D",
"].	c #7CA039",
"^.	c #74982D",
"/.	c #7FA438",
"(.	c #779A32",
"_.	c #769A30",
":.	c #6D9029",
"<.	c #7FA337",
"[.	c #7A9D34",
"}.	c #84AA38",
"|.	c #799E31",
"1.	c #7A9F33",
"2.	c #82A837",
"3.	c #73962F",
"4.	c #789C31",
"5.	c #7FA436",
"6.	c #789A32",
"7.	c #83AA35",
"8.	c #749830",
"9.	c #7B9F35",
"0.	c #7DA235",
"a.	c #74982E",
"b.	c #7EA235",
"c.	c #6C9026",
"d.	c #779B32",
"e.	c #74982F",
"f.	c #70942A",
"g.	c #73972E",
"h.	c #759B2E",
"i.	c #779C30",
"j.	c #7EA337",
"k.	c #80A537",
"l.	c #769A2F",
"m.	c #7DA236",
"n.	c #779D2F",
"o.	c #6E912A",
"p.	c #75992F",
"q.	c #82A936",
"r.	c #7A9C34",
"s.	c #7CA034",
"t.	c #70952A",
"u.	c #769A31",
"v.	c #789D31",
"w.	c #799D34",
"x.	c #7A9F32",
"y.	c #7A9E33",
"z.	c #6A8E25",
"A.	c #799C33",
"B.	c #7A9F34",
"C.	c #6C8F28",
"D.	c #749A2D",
"E.	c #7CA233",
"F.	c #70932B",
"G.	c #FFDE73",
"H.	c #74962F",
"I.	c #FF7321",
"J.	c #81A737",
"K.	c #7A9E34",
"L.	c #6C9027",
"M.	c #769930",
"N.	c #CE1000",
"O.	c #7A9E32",
"P.	c #759A30",
"Q.	c #7BA032",
"R.	c #72962C",
"S.	c #7FA435",
"T.	c #7C9F35",
"U.	c #779B33",
"V.	c #6E9129",
"W.	c #6C9028",
"X.	c #6D9128",
"Y.	c #6E9228",
"Z.	c #85AC39",
"`.	c #779B2F",
" +	c #6D9229",
".+	c #81A738",
"++	c #6C8F27",
"@+	c #6B8E25",
"#+	c #688B22",
"$+	c #769B30",
"%+	c #7EA334",
"&+	c #6F9429",
"*+	c #71952B",
"=+	c #6D9129",
"-+	c #7CA134",
";+	c #759931",
">+	c #779A33",
",+	c #769B2E",
"'+	c #7A9C35",
")+	c #7CA135",
"!+	c #7B9E34",
"~+	c #7CA136",
"{+	c #6F932A",
"]+	c #81A538",
"^+	c #6D9028",
"/+	c #83A939",
"(+	c #6A8E26",
"_+	c #74972E",
":+	c #7CA234",
"<+	c #82A839",
"[+	c #82A737",
"}+	c #799A39",
"|+	c #83A741",
"1+	c #759734",
"2+	c #6E9229",
"3+	c #70893E",
"4+	c #949A77",
"5+	c #A6AD8A",
"6+	c #90957C",
"7+	c #929D76",
"8+	c #A0A686",
"9+	c #85985D",
"0+	c #799E30",
"a+	c #789B31",
"b+	c #81A53B",
"c+	c #878E73",
"d+	c #B6BBB7",
"e+	c #B4B9A9",
"f+	c #A2A58C",
"g+	c #ACADA3",
"h+	c #B6BAAB",
"i+	c #A1A78E",
"j+	c #6F912C",
"k+	c #80A438",
"l+	c #83AA37",
"m+	c #789D32",
"n+	c #83AB36",
"o+	c #7A9B38",
"p+	c #868B68",
"q+	c #B5B9B0",
"r+	c #C5C7C5",
"s+	c #A0A094",
"t+	c #A4A59C",
"u+	c #BBBFBC",
"v+	c #A2A894",
"w+	c #72952F",
"x+	c #7C9F36",
"y+	c #74992D",
"z+	c #749731",
"A+	c #788356",
"B+	c #878977",
"C+	c #9CA08F",
"D+	c #7C7A64",
"E+	c #A4AB8B",
"F+	c #C8C9C6",
"G+	c #A7A99E",
"H+	c #7D9846",
"I+	c #749632",
"J+	c #7FA635",
"K+	c #798853",
"L+	c #B0B4A6",
"M+	c #B2B6A6",
"N+	c #868570",
"O+	c #969D7F",
"P+	c #BBBDB5",
"Q+	c #9A9D8D",
"R+	c #ACB19E",
"S+	c #828D62",
"T+	c #759732",
"U+	c #82A836",
"V+	c #708248",
"W+	c #BFC1BB",
"X+	c #B8BCBA",
"Y+	c #9D9D95",
"Z+	c #BEC0B0",
"`+	c #C5C8C0",
" @	c #AAAE96",
".@	c #B6BAB5",
"+@	c #97A874",
"@@	c #6A8D25",
"#@	c #7DA333",
"$@	c #7FA536",
"%@	c #779C2F",
"&@	c #799D35",
"*@	c #6D8E2D",
"=@	c #98998B",
"-@	c #D4D4D4",
";@	c #9A9991",
">@	c #B7BAAF",
",@	c #B8BCB3",
"'@	c #ACB090",
")@	c #A3A68E",
"!@	c #899F5D",
"~@	c #6E922A",
"{@	c #7CA033",
"]@	c #779A36",
"^@	c #949883",
"/@	c #A4A799",
"(@	c #7C7A69",
"_@	c #A5A597",
":@	c #C6C7BF",
"<@	c #B0B39A",
"[@	c #878D72",
"}@	c #799B37",
"|@	c #86AD3A",
"1@	c #72972B",
"2@	c #74844E",
"3@	c #BBBEB6",
"4@	c #B5B9A9",
"5@	c #9B9B92",
"6@	c #818369",
"7@	c #9DA190",
"8@	c #868A7F",
"9@	c #779447",
"0@	c #7DA137",
"a@	c #7D9947",
"b@	c #99A17B",
"c@	c #BABBB7",
"d@	c #BDBFB9",
"e@	c #A6A59D",
"  . + @ # $ % & * = - ; > = , ' ) ! ~ , { ] ^ # , ] / ( _ : < [ ",
"} | 1 2 3 4 # 5 6 { 7 ) 8 9 0 a , 9 7 - 6 b c d 3 e f g h i j k ",
"l m n o p q r s t 6 u v w x y o z A , B 6 C * e 9 , D E F G H I ",
"J K L M N O A 7 P Q R S O T U y { C r V N O 6 W X Y , # Z `  ...",
"+.@.a ^ #.$.%.&.$ *.N =.^ ) -.;.$ >.- 6 ,.% 3 '.).5 N ,.!.~.{.].",
"^./.(._.@.{ :., <.0 N P o [.}., |.t - 1.2.,.3.6 q 4.,.C 5.6.7.Q ",
"8.1.9.0.a.a y # B b.c.= _.R 6 d.R e X Q e.3.,.# B ,.f.0.g.8.#.g.",
"^ L 0.h.i.3 s t 7 R j.k.l.B Q 4 6 ) m.n.] * # ,.,.R X k.|.B $ ] ",
"a 0 6 o.).q p.q.> X B r.^.s.[.t.u.Q , o.Q o (.,.,.C 8 N v.v w.|.",
"d x.~ u.(.y.z.d R 9 7 A.O B.p.D :.|.C.(.6.1.,.D 6 ,.7 v 6 = p.w ",
"D.E.u y.R 9 F.q ).o.F.5.R x G.G.G.G.G.G.H.,.G.I.c 5 ,.J.6 K.L.).",
"z Q H.e 3 6 N M.$ y.U 0 (.G.I.I.N.N.N.N.,.G.I.N.O.P.[.,.(.D 7 E.",
"9 3 N { N u W Q.R.8.N 3 G.I.N.S.T.- 7 3 N.I.N.+.R.(.U.a $.; #.x ",
"^.y.3 C t 3 6 * z _.(.G.I.^ V.W.G.G.G.s X N.~ - 1.1.#.Q = - o.X.",
"8 X Y.i.Q M.Z.P (.q a.G.N.3 3.G.I.I.I.N.4.d.5.C u.C `.1.b 6 a 0 ",
" +* o .+M [.o v R ++G.I.@+> G.I.N.6 o I.N.[.W # ; #+$+%+&+~ *+y.",
"=+R.d.#.-+).V.-+M.y.G.N.R.$ G.I.) R.;+>+I.N.e.O.M.M., w ,+p.e.-+",
"3.9 8 d.6 g.M D #.# G.N.8 9 G.I., G.I.6 I.N._.D 3 e '+=.[.j.c (.",
"y r 3 x - 9 L )+X G.I.I.N.s.6 N.I.I.I.C I.N.F.o 9 a D m.R !+6 ~+",
"0.j.L Q N B , 8 /.G.I.I.N.{+7 ' N.N.3 f.I.N.3.T.]+v (.= (.^+7 3 ",
"x./+3 g., (+_+&.Q G.I.~ I.N.) :+0 /+6 G.I.N.3.<+1.D N *., F.) |.",
"*+t u.$+[+' ^+, G.I.I.I.I.I.I.G.G.G.G.I.N.e.3.#.9 -+A.j.x }+|+1+",
"w d.9 9.+.2+N e I.N.N.N.N.N.N.N.N.N.N.N.-+^+O 1.W B ! # 3+4+5+6+",
"7+8+9+0+^._.= <.N D 9 &.R.[.a+> , D o Q.g.d.* <.N F.9 b+c+d+e+f+",
"g+h+i+j+y.k+l.l+) /.7 7 > = N f.(.Q 3 d m+9 (.n+D ~+7 o+p+q+r+s+",
"t+u+v+w+r _.c.D #.x+B 3 e.# B.2+u 0 =+8.3 p.y+F., 9 7 z+A+B+C+D+",
"E+F+G+H+I+o *.e y.; ; [+6 o % u.b J+F._.6 x+=.K.# r 4 }.K+L+M+N+",
"O+P+Q+R+S+T+7 8.0 e N 4.O F.8 U+0 0 (._.3 - 7 M.v.# 7 m+V+W+X+Y+",
"Z+`+ @.@+@{+B x ! a 7 (.@@u 3 #@<.' N * N L N $@%@3 &@u.*@=@-@;@",
">@,@'@)@!@p.v (.# l.3 O._.6 ~@) ^.$ #.x C u.u.A a+{@D v.]@^@/@(@",
"_@:@<@[@}@* |@C (.x 4 4.4 3 a v.[.X 1@f.c ' k.9 M.o l.$ 2@3@4@5@",
"6@7@8@9@0.B j.z V.w z x.&+X.$+M (+r <.t )+B 0@c W.@@z a@b@c@d@e@"};
