/* XPM */
static char * naruto_look_left_xpm[] = {
"32 32 303 2",
"  	c None",
". 	c #365174",
"+ 	c #9A6D47",
"@ 	c #B3743A",
"# 	c #4E83BE",
"$ 	c #3F4358",
"% 	c #814700",
"& 	c #9FA45D",
"* 	c #223948",
"= 	c #DAD050",
"- 	c #9A6127",
"; 	c #BC7B40",
"> 	c #C29E3F",
", 	c #C4AF44",
"' 	c #246699",
") 	c #D19E4A",
"! 	c #D4B24C",
"~ 	c #D8D950",
"{ 	c #D7D04F",
"] 	c #D8D850",
"^ 	c #CCCC4B",
"/ 	c #7D7D25",
"( 	c #5C3200",
"_ 	c #B2743B",
": 	c #C68545",
"< 	c #D2A34A",
"[ 	c #CDA249",
"} 	c #130089",
"| 	c #150077",
"1 	c #1E1F1C",
"2 	c #B78F42",
"3 	c #D7D14F",
"4 	c #D8D450",
"5 	c #B0833F",
"6 	c #335F8B",
"7 	c #180096",
"8 	c #31216E",
"9 	c #B7783D",
"0 	c #BC7A3F",
"a 	c #D7CD4F",
"b 	c #D9D650",
"c 	c #D2994A",
"d 	c #D9DB51",
"e 	c #D1BC4B",
"f 	c #B4753E",
"g 	c #8D6C6A",
"h 	c #244272",
"i 	c #201C83",
"j 	c #2F219A",
"k 	c #BD8744",
"l 	c #A17341",
"m 	c #5C5638",
"n 	c #5C4434",
"o 	c #676844",
"p 	c #8A807A",
"q 	c #767779",
"r 	c #376897",
"s 	c #14007E",
"t 	c #23339F",
"u 	c #2F46BA",
"v 	c #2E4BCC",
"w 	c #314BD2",
"x 	c #3043C9",
"y 	c #959593",
"z 	c #D5D5D5",
"A 	c #DADAD9",
"B 	c #585755",
"C 	c #0E085E",
"D 	c #1B009A",
"E 	c #A26A35",
"F 	c #76503B",
"G 	c #644C47",
"H 	c #11009B",
"I 	c #324BD0",
"J 	c #818190",
"K 	c #9092A8",
"L 	c #59443C",
"M 	c #060929",
"N 	c #5396DB",
"O 	c #482E08",
"P 	c #765E54",
"Q 	c #DFAF98",
"R 	c #C5A944",
"S 	c #976F55",
"T 	c #997462",
"U 	c #B0B2BE",
"V 	c #CBA08C",
"W 	c #4C85C0",
"X 	c #949391",
"Y 	c #6D6D6D",
"Z 	c #6E4E3D",
"` 	c #88542F",
" .	c #D3A38C",
"..	c #F0D5CA",
"+.	c #F5ECE8",
"@.	c #D7AA95",
"#.	c #304E6F",
"$.	c #9B9A9A",
"%.	c #CACAC9",
"&.	c #BDBCBC",
"*.	c #5C5B5B",
"=.	c #3B271D",
"-.	c #976C56",
";.	c #9F7560",
">.	c #4A5069",
",.	c #20209E",
"'.	c #3D3B82",
").	c #626369",
"!.	c #ABAAAC",
"~.	c #E4E4E4",
"{.	c #C0C0BF",
"].	c #BF8E71",
"^.	c #BB5C50",
"/.	c #224682",
"(.	c #15008D",
"_.	c #3140D3",
":.	c #4161FA",
"<.	c #3E5CF4",
"[.	c #1C12B7",
"}.	c #696885",
"|.	c #B4B4B3",
"1.	c #848383",
"2.	c #80401D",
"3.	c #1E1C3D",
"4.	c #1A1A59",
"5.	c #3751D9",
"6.	c #3E5CF3",
"7.	c #4061F9",
"8.	c #2829BF",
"9.	c #2008AF",
"0.	c #200F9F",
"a.	c #452E20",
"b.	c #B75E2C",
"c.	c #2A211A",
"d.	c #B66C13",
"e.	c #C66027",
"f.	c #58301F",
"g.	c #25259C",
"h.	c #292CC0",
"i.	c #2212B3",
"j.	c #2008B0",
"k.	c #2009AD",
"l.	c #412B50",
"m.	c #78462A",
"n.	c #884E2C",
"o.	c #DC8134",
"p.	c #314460",
"q.	c #E78E3E",
"r.	c #F6953E",
"s.	c #BA632E",
"t.	c #422F1E",
"u.	c #1F1E43",
"v.	c #071284",
"w.	c #021184",
"x.	c #2A1F78",
"y.	c #37291E",
"z.	c #5E3D29",
"A.	c #8B522F",
"B.	c #A55125",
"C.	c #A4785D",
"D.	c #CB6428",
"E.	c #EB8637",
"F.	c #CD662A",
"G.	c #C96329",
"H.	c #0C1D20",
"I.	c #593826",
"J.	c #CC6429",
"K.	c #DC712D",
"L.	c #CB6429",
"M.	c #5B3826",
"N.	c #B35C2B",
"O.	c #462F24",
"P.	c #A6775F",
"Q.	c #E9CFC4",
"R.	c #95522A",
"S.	c #F08C3A",
"T.	c #BA5F2C",
"U.	c #4F3526",
"V.	c #593927",
"W.	c #9A562E",
"X.	c #ED8939",
"Y.	c #F89840",
"Z.	c #ED8838",
"`.	c #96542E",
" +	c #522E21",
".+	c #2D2421",
"++	c #584136",
"@+	c #7C5237",
"#+	c #64494C",
"$+	c #B15A2C",
"%+	c #BF7236",
"&+	c #4B2B1F",
"*+	c #442D21",
"=+	c #623F2A",
"-+	c #9B4C25",
";+	c #B4662D",
">+	c #9B4D25",
",+	c #312722",
"'+	c #6F472D",
")+	c #513624",
"!+	c #3C4664",
"~+	c #E08037",
"{+	c #BE612D",
"]+	c #B3846D",
"^+	c #AB8776",
"/+	c #442F25",
"(+	c #8D522E",
"_+	c #5D3221",
":+	c #593122",
"<+	c #5E3322",
"[+	c #D76828",
"}+	c #D66728",
"|+	c #74423C",
"1+	c #412501",
"2+	c #774A2E",
"3+	c #E4D8D3",
"4+	c #6E5346",
"5+	c #754A2E",
"6+	c #CE662A",
"7+	c #F2903C",
"8+	c #D66829",
"9+	c #A85A2D",
"0+	c #D96828",
"a+	c #D86828",
"b+	c #CB642A",
"c+	c #564C5B",
"d+	c #8C6146",
"e+	c #E4D0C8",
"f+	c #000000",
"g+	c #9F7F74",
"h+	c #D79A76",
"i+	c #E3905A",
"j+	c #CE7C38",
"k+	c #7D482A",
"l+	c #7D4F31",
"m+	c #5D3400",
"n+	c #4A382E",
"o+	c #999998",
"p+	c #EEEEEE",
"q+	c #F2F2F2",
"r+	c #BAB7B6",
"s+	c #312A28",
"t+	c #232120",
"u+	c #66412A",
"v+	c #875130",
"w+	c #814E2E",
"x+	c #140000",
"y+	c #27557E",
"z+	c #B85C2A",
"A+	c #DE966F",
"B+	c #E6A076",
"C+	c #DE9E8B",
"D+	c #B1B2B2",
"E+	c #242525",
"F+	c #664028",
"G+	c #825030",
"H+	c #815030",
"I+	c #6E4D82",
"J+	c #592E1A",
"K+	c #BC612C",
"L+	c #ED8938",
"M+	c #F99940",
"N+	c #F99840",
"O+	c #AB531F",
"P+	c #161312",
"Q+	c #000204",
"R+	c #4B2F1F",
"S+	c #1C234D",
"T+	c #7469CA",
"U+	c #CD9D83",
"V+	c #703418",
"W+	c #9B562E",
"X+	c #B45D2C",
"Y+	c #DB6C2A",
"Z+	c #9C5A2F",
"`+	c #2A1915",
" @	c #202020",
".@	c #1F1F1F",
"+@	c #1D1E28",
"@@	c #2B1F28",
"#@	c #3C373F",
"$@	c #41281B",
"%@	c #A0582E",
"&@	c #D27935",
"*@	c #CA6227",
"=@	c #542F1A",
"-@	c #1B1D1D",
";@	c #1F1B13",
">@	c #281A0F",
",@	c #323D96",
"'@	c #673E76",
")@	c #06151A",
"!@	c #1E1E1E",
"~@	c #1F1B12",
"{@	c #27374B",
"]@	c #563E32",
"^@	c #AF837C",
"/@	c #986A5F",
"(@	c #110D0C",
"_@	c #293D54",
":@	c #84675A",
"<@	c #715446",
"[@	c #2E4C6D",
"                                                                ",
"                          . +   @ # $                           ",
"                      % & * = - ; > ,                           ",
"                      ' ) ! ~ { { ] ^ / (                       ",
"                    _ : < ] ] ] ] ] ] [                         ",
"                } | 1 2 3 3 ] ] ~ ] 4 5                         ",
"                6 7 8 9 0 a { b c d e f g                       ",
"                    h i j k l m n o p q                         ",
"                  r s t u v w x y z A B                         ",
"                  C D E F G H I J K L                           ",
"                  M N O P Q R S T U V                           ",
"                    W X Y Z `  ...+.@.                          ",
"                    #.$.%.&.*.=.-.;.>.                          ",
"                    ,.'.).!.A ~.{.].^./.                        ",
"                  (._.:.<.[.}.|.1.2.3.                          ",
"                  4.5.6.7.8.9.0.a.b.c.                          ",
"                d.e.f.g.h.i.j.k.l.m.n.o.                        ",
"              p.q.r.s.t.u.v.w.x.y.z.A.B.C.                      ",
"              D.E.F.G.H.I.J.K.L.M.N.O.P.Q.                      ",
"              R.S.T.U.V.W.X.Y.Z.`. +.+++@+                      ",
"              #+$+%+&+*+=+-+;+>+,+'+)+                          ",
"              !+~+{+]+^+/+(+_+:+<+[+}+|+                        ",
"                1+2+3+4+5+6+7+8+9+0+a+b+c+                      ",
"                  d+e+f+g+h+i+j+k+l+[+0+m+                      ",
"                    n+o+p+q+r+s+t+u+v+w+x+                      ",
"                  y+z+A+B+C+D+E+F+G+H+/+I+                      ",
"                  J+K+L+M+N+O+P+Q+R+S+T+U+                      ",
"                  V+W+X+Y+Z+`+ @.@.@+@@@#@                      ",
"                  $@%@&@*@=@-@ @ @;@                            ",
"                  >@,@'@)@!@~@{@                                ",
"                  ]@^@/@(@_@                                    ",
"                    :@<@[@                                      "};
