/* XPM */
static char * naruto_front_32px_xpm[] = {
"32 32 333 2",
"  	c None",
". 	c #56361E",
"+ 	c #5D6D94",
"@ 	c #C37D39",
"# 	c #23354D",
"$ 	c #9C6D56",
"% 	c #A08F26",
"& 	c #6B6C2B",
"* 	c #D5B24C",
"= 	c #D7C34E",
"- 	c #926631",
"; 	c #D7D04F",
"> 	c #B2A740",
", 	c #938C2E",
"' 	c #6D652E",
") 	c #C8AD47",
"! 	c #D0D04D",
"~ 	c #D8D850",
"{ 	c #D7D34F",
"] 	c #D8D550",
"^ 	c #D7CD4F",
"/ 	c #724725",
"( 	c #35435E",
"_ 	c #C39F40",
": 	c #D6BF4D",
"< 	c #717091",
"[ 	c #AF6D30",
"} 	c #D7CA4F",
"| 	c #D7CF4F",
"1 	c #D8DA50",
"2 	c #D19849",
"3 	c #D29949",
"4 	c #9D6738",
"5 	c #7E5948",
"6 	c #D3CA4D",
"7 	c #CFB04A",
"8 	c #CEA249",
"9 	c #D3D34E",
"0 	c #D0B64B",
"a 	c #BE7F63",
"b 	c #54395D",
"c 	c #31608C",
"d 	c #2E42D1",
"e 	c #8E90A4",
"f 	c #A4A5A6",
"g 	c #969798",
"h 	c #B4B4B6",
"i 	c #8C8C8B",
"j 	c #344EC7",
"k 	c #16226E",
"l 	c #462D00",
"m 	c #41239C",
"n 	c #858491",
"o 	c #D6D6D5",
"p 	c #AAA9A9",
"q 	c #DFDFDE",
"r 	c #AAA9A6",
"s 	c #30219C",
"t 	c #5A415C",
"u 	c #AA836E",
"v 	c #74482C",
"w 	c #ABABAE",
"x 	c #4F5AB1",
"y 	c #57514F",
"z 	c #524D52",
"A 	c #959CD8",
"B 	c #4C3B32",
"C 	c #CB9D88",
"D 	c #2C5C88",
"E 	c #4B3326",
"F 	c #E3CBC1",
"G 	c #C7AFA4",
"H 	c #F2DFD8",
"I 	c #D8B19F",
"J 	c #DACEC9",
"K 	c #926852",
"L 	c #000413",
"M 	c #040035",
"N 	c #969595",
"O 	c #987260",
"P 	c #DAAB95",
"Q 	c #E8B8A3",
"R 	c #DFAF99",
"S 	c #BE927C",
"T 	c #6A6867",
"U 	c #565555",
"V 	c #7D7775",
"W 	c #315072",
"X 	c #1E1B9C",
"Y 	c #160C7F",
"Z 	c #A9A8A8",
"` 	c #B9B9B9",
" .	c #4C382E",
"..	c #71574C",
"+.	c #5F453A",
"@.	c #74706F",
"#.	c #BBBABA",
"$.	c #545357",
"%.	c #845940",
"&.	c #8A8A8D",
"*.	c #000039",
"=.	c #3244D2",
"-.	c #3A55EB",
";.	c #39347D",
">.	c #C7C7C7",
",.	c #B9ADA8",
"'.	c #EA8536",
").	c #DE7130",
"!.	c #B1ABA8",
"~.	c #6E6D77",
"{.	c #1C02A8",
"].	c #5C3A0F",
"^.	c #846B6A",
"/.	c #736EA2",
"(.	c #BF5C5A",
"_.	c #261BA5",
":.	c #3E5DF5",
"<.	c #364CE0",
"[.	c #26216E",
"}.	c #182345",
"|.	c #CA642A",
"1.	c #8C4F2C",
"2.	c #22223F",
"3.	c #200AAD",
"4.	c #2008B0",
"5.	c #35227A",
"6.	c #4B4949",
"7.	c #575554",
"8.	c #BF6E11",
"9.	c #D66828",
"0.	c #854D2D",
"a.	c #232B6B",
"b.	c #2008AE",
"c.	c #2009AF",
"d.	c #1A1481",
"e.	c #92542F",
"f.	c #8B4F2C",
"g.	c #1B1580",
"h.	c #201A72",
"i.	c #5E3C25",
"j.	c #714A32",
"k.	c #313243",
"l.	c #E08439",
"m.	c #F3903C",
"n.	c #93542F",
"o.	c #453024",
"p.	c #5E3D1E",
"q.	c #5A3B26",
"r.	c #000F62",
"s.	c #9C5C31",
"t.	c #9B5C31",
"u.	c #402E1F",
"v.	c #57391C",
"w.	c #21201D",
"x.	c #845231",
"y.	c #613E29",
"z.	c #281000",
"A.	c #7F4C2A",
"B.	c #EF8B39",
"C.	c #A16133",
"D.	c #563626",
"E.	c #1A1E20",
"F.	c #7D4C2E",
"G.	c #CE662A",
"H.	c #E88235",
"I.	c #A46434",
"J.	c #E27B32",
"K.	c #AD592B",
"L.	c #83502F",
"M.	c #402D23",
"N.	c #402E24",
"O.	c #9C562D",
"P.	c #91512C",
"Q.	c #55495B",
"R.	c #E1762F",
"S.	c #D16E2F",
"T.	c #542F19",
"U.	c #171818",
"V.	c #3D2720",
"W.	c #94522D",
"X.	c #A05E31",
"Y.	c #895531",
"Z.	c #89552C",
"`.	c #724128",
" +	c #422E23",
".+	c #202020",
"++	c #463125",
"@+	c #6C3A24",
"#+	c #8E6754",
"$+	c #91644B",
"%+	c #A89F9B",
"&+	c #9B7B6C",
"*+	c #302119",
"=+	c #71320F",
"-+	c #A3572C",
";+	c #1D2221",
">+	c #001A1F",
",+	c #001B1F",
"'+	c #061C20",
")+	c #3C2D24",
"!+	c #6E4229",
"~+	c #A04F26",
"{+	c #5B463C",
"]+	c #BC8C74",
"^+	c #A8816E",
"/+	c #9E7564",
"(+	c #EFDAD2",
"_+	c #724E4C",
":+	c #242435",
"<+	c #B87032",
"[+	c #AA5C2D",
"}+	c #DA702C",
"|+	c #D76B2A",
"1+	c #C76229",
"2+	c #DA702D",
"3+	c #E07831",
"4+	c #B87036",
"5+	c #B25A27",
"6+	c #333038",
"7+	c #2E4C6F",
"8+	c #725543",
"9+	c #22256E",
"0+	c #2F2F5D",
"a+	c #ACA6A3",
"b+	c #CEB8B0",
"c+	c #DF875A",
"d+	c #F5943E",
"e+	c #CB642A",
"f+	c #E08539",
"g+	c #F89940",
"h+	c #F89840",
"i+	c #F99840",
"j+	c #F6953E",
"k+	c #B45E40",
"l+	c #1C04A9",
"m+	c #8E8085",
"n+	c #D8B09F",
"o+	c #C9ABA3",
"p+	c #C4C5C5",
"q+	c #AC8377",
"r+	c #BB5F2C",
"s+	c #8E532F",
"t+	c #D57431",
"u+	c #EE8A39",
"v+	c #F99940",
"w+	c #EA903C",
"x+	c #1F1392",
"y+	c #C96328",
"z+	c #F18F3C",
"A+	c #AC9690",
"B+	c #907F78",
"C+	c #39241C",
"D+	c #5A2A0F",
"E+	c #97562F",
"F+	c #D96B2A",
"G+	c #F2933E",
"H+	c #CA682C",
"I+	c #492A1A",
"J+	c #693211",
"K+	c #AA5C2E",
"L+	c #F4923D",
"M+	c #97582F",
"N+	c #3E4143",
"O+	c #7A4829",
"P+	c #A0582E",
"Q+	c #4E301E",
"R+	c #553827",
"S+	c #C9632A",
"T+	c #CF6529",
"U+	c #C0612B",
"V+	c #532C1A",
"W+	c #686D98",
"X+	c #E78234",
"Y+	c #E77E33",
"Z+	c #A2582E",
"`+	c #6B4227",
" @	c #867F7C",
".@	c #603E28",
"+@	c #356798",
"@@	c #295179",
"#@	c #2A1F1A",
"$@	c #784C2F",
"%@	c #805030",
"&@	c #5F3D25",
"*@	c #356494",
"=@	c #182C48",
"-@	c #432945",
";@	c #88542F",
">@	c #76472B",
",@	c #1A130F",
"'@	c #614333",
")@	c #2A4D71",
"!@	c #5DA7F2",
"~@	c #5DA6F1",
"{@	c #121B32",
"]@	c #2B2045",
"^@	c #2E2446",
"/@	c #254371",
"(@	c #2429AE",
"_@	c #241FB9",
":@	c #1C1A6A",
"<@	c #0C1011",
"[@	c #1F1F1F",
"}@	c #1E1F20",
"|@	c #201F1D",
"1@	c #1E1704",
"2@	c #1E1804",
"3@	c #0B044E",
"4@	c #2008B2",
"5@	c #2D37CB",
"6@	c #434FD7",
"7@	c #485E82",
"8@	c #3B0A67",
"9@	c #6B69DD",
"0@	c #3C5FF8",
"a@	c #11025F",
"b@	c #1E1E1D",
"c@	c #111210",
"d@	c #2A3CB6",
"e@	c #7B5894",
"f@	c #B1836A",
"g@	c #7F5E52",
"h@	c #E2B3A0",
"i@	c #8B6367",
"j@	c #0E1312",
"k@	c #20201F",
"l@	c #293D54",
"m@	c #2B415B",
"n@	c #253D58",
"o@	c #344058",
"p@	c #40475D",
"q@	c #85675A",
"r@	c #291F1A",
"                                                                ",
"                                                                ",
"                        . + @ # $ %                             ",
"                        & * = - ; > , '                         ",
"                      ) ! ~ ~ { ~ ] ^ / (                       ",
"                      _ ~ ~ ~ ~ ~ ~ ] : <                       ",
"                      [ } ~ | ~ ~ 1 2 3                         ",
"                      4 5 6 7 8 9 0 a b                         ",
"                      c d e f g h i j k                         ",
"                      l m n o p q r s t                         ",
"                      u v w x y z A B C                         ",
"                      D E F G H I J K L                         ",
"                      M N O P Q R S T U V W                     ",
"                    X Y Z `  ...+.@.#.$.%.&.                    ",
"                  *.=.-.;.>.,.'.).!.~.{.].^./.                  ",
"                  (._.:.<.[.}.|.1.2.3.4.5.6.7.                  ",
"                8.9.0.a.b.c.d.e.f.g.c.h.i.j.                    ",
"              k.l.m.n.o.p.q.r.s.t.u.v.w.x.y.z.                  ",
"              A.B.C.D.E.F.G.H.I.J.K.L.M.N.O.P.                  ",
"              Q.R.S.T.U.V.W.X.Y.Z.`. +.+++@+#+                  ",
"              $+%+&+*+=+-+;+>+,+'+)+!+~+{+]+^+                  ",
"              /+(+_+:+<+[+}+|+1+1+2+3+4+5+6+7+                  ",
"                8+9+0+a+b+c+d+e+f+g+h+i+j+k+                    ",
"                  l+m+n+o+p+q+r+s+t+u+v+h+w+                    ",
"                  x+y+h+z+A+B+C+D+F.E+F+G+H+I+                  ",
"                  J+K+v+L+M+N+O+P+Q+R+S+T+U+V+                  ",
"                  W+X+Y+Z+`+ @.@+@@@#@$@%@&@*@                  ",
"                  =@-@;@>@,@'@)@!@~@{@]@^@/@                    ",
"                  (@_@:@<@[@}@|@1@2@3@4@5@6@7@                  ",
"                8@9@0@a@.+.+.+.+.+.+b@c@d@e@f@                  ",
"                g@h@i@j@k@l@m@m@m@m@m@m@n@o@p@                  ",
"                  q@r@                                          "};
