/* XPM */
static char * naruto_look_right_xpm[] = {
"32 32 303 2",
"  	c None",
". 	c #3F4358",
"+ 	c #B3743A",
"@ 	c #9A6D47",
"# 	c #365174",
"$ 	c #C4AF44",
"% 	c #C29E3F",
"& 	c #BC7B40",
"* 	c #9A6127",
"= 	c #DAD050",
"- 	c #223948",
"; 	c #9FA45D",
"> 	c #814700",
", 	c #5C3200",
"' 	c #7D7D25",
") 	c #CCCC4B",
"! 	c #D8D850",
"~ 	c #D7D04F",
"{ 	c #D8D950",
"] 	c #D4B24C",
"^ 	c #D19E4A",
"/ 	c #246699",
"( 	c #CDA249",
"_ 	c #D2A34A",
": 	c #C68545",
"< 	c #B2743B",
"[ 	c #B0833F",
"} 	c #D8D450",
"| 	c #D7D14F",
"1 	c #B78F42",
"2 	c #1E1F1C",
"3 	c #150077",
"4 	c #130089",
"5 	c #8D6C6A",
"6 	c #B4753E",
"7 	c #D1BC4B",
"8 	c #D9DB51",
"9 	c #D2994A",
"0 	c #D9D650",
"a 	c #D7CD4F",
"b 	c #BC7A3F",
"c 	c #B7783D",
"d 	c #31216E",
"e 	c #180096",
"f 	c #335F8B",
"g 	c #767779",
"h 	c #8A807A",
"i 	c #676844",
"j 	c #5C4434",
"k 	c #5C5638",
"l 	c #A17341",
"m 	c #BD8744",
"n 	c #2F219A",
"o 	c #201C83",
"p 	c #244272",
"q 	c #585755",
"r 	c #DADAD9",
"s 	c #D5D5D5",
"t 	c #959593",
"u 	c #3043C9",
"v 	c #314BD2",
"w 	c #2E4BCC",
"x 	c #2F46BA",
"y 	c #23339F",
"z 	c #14007E",
"A 	c #376897",
"B 	c #59443C",
"C 	c #9092A8",
"D 	c #818190",
"E 	c #324BD0",
"F 	c #11009B",
"G 	c #644C47",
"H 	c #76503B",
"I 	c #A26A35",
"J 	c #1B009A",
"K 	c #0E085E",
"L 	c #CBA08C",
"M 	c #B0B2BE",
"N 	c #997462",
"O 	c #976F55",
"P 	c #C5A944",
"Q 	c #DFAF98",
"R 	c #765E54",
"S 	c #482E08",
"T 	c #5396DB",
"U 	c #060929",
"V 	c #D7AA95",
"W 	c #F5ECE8",
"X 	c #F0D5CA",
"Y 	c #D3A38C",
"Z 	c #88542F",
"` 	c #6E4E3D",
" .	c #6D6D6D",
"..	c #949391",
"+.	c #4C85C0",
"@.	c #5193D6",
"#.	c #4A5069",
"$.	c #9F7560",
"%.	c #976C56",
"&.	c #3B271D",
"*.	c #5C5B5B",
"=.	c #BDBCBC",
"-.	c #CACAC9",
";.	c #9B9A9A",
">.	c #304E6F",
",.	c #BB5C50",
"'.	c #BF8E71",
").	c #C0C0BF",
"!.	c #E4E4E4",
"~.	c #ABAAAC",
"{.	c #626369",
"].	c #3D3B82",
"^.	c #20209E",
"/.	c #579DE4",
"(.	c #1E1C3D",
"_.	c #80401D",
":.	c #848383",
"<.	c #B4B4B3",
"[.	c #696885",
"}.	c #1C12B7",
"|.	c #3E5CF4",
"1.	c #4161FA",
"2.	c #3140D3",
"3.	c #15008D",
"4.	c #2A211A",
"5.	c #B75E2C",
"6.	c #452E20",
"7.	c #200F9F",
"8.	c #2008AF",
"9.	c #2829BF",
"0.	c #4061F9",
"a.	c #3E5CF3",
"b.	c #3751D9",
"c.	c #1A1A59",
"d.	c #DC8134",
"e.	c #884E2C",
"f.	c #78462A",
"g.	c #412B50",
"h.	c #2009AD",
"i.	c #2008B0",
"j.	c #2212B3",
"k.	c #292CC0",
"l.	c #25259C",
"m.	c #58301F",
"n.	c #C66027",
"o.	c #B66C13",
"p.	c #A4785D",
"q.	c #A55125",
"r.	c #8B522F",
"s.	c #5E3D29",
"t.	c #37291E",
"u.	c #2A1F78",
"v.	c #021184",
"w.	c #071284",
"x.	c #1F1E43",
"y.	c #422F1E",
"z.	c #BA632E",
"A.	c #F6953E",
"B.	c #E78E3E",
"C.	c #314460",
"D.	c #E9CFC4",
"E.	c #A6775F",
"F.	c #462F24",
"G.	c #B35C2B",
"H.	c #5B3826",
"I.	c #CB6429",
"J.	c #DC712D",
"K.	c #CC6429",
"L.	c #593826",
"M.	c #0C1D20",
"N.	c #C96329",
"O.	c #CD662A",
"P.	c #EB8637",
"Q.	c #CB6428",
"R.	c #7C5237",
"S.	c #584136",
"T.	c #2D2421",
"U.	c #522E21",
"V.	c #96542E",
"W.	c #ED8838",
"X.	c #F89840",
"Y.	c #ED8939",
"Z.	c #9A562E",
"`.	c #593927",
" +	c #4F3526",
".+	c #BA5F2C",
"++	c #F08C3A",
"@+	c #95522A",
"#+	c #513624",
"$+	c #6F472D",
"%+	c #312722",
"&+	c #9B4D25",
"*+	c #B4662D",
"=+	c #9B4C25",
"-+	c #623F2A",
";+	c #442D21",
">+	c #4B2B1F",
",+	c #BF7236",
"'+	c #B15A2C",
")+	c #64494C",
"!+	c #74423C",
"~+	c #D66728",
"{+	c #D76828",
"]+	c #5E3322",
"^+	c #593122",
"/+	c #5D3221",
"(+	c #8D522E",
"_+	c #442F25",
":+	c #AB8776",
"<+	c #B3846D",
"[+	c #BE612D",
"}+	c #E08037",
"|+	c #3C4664",
"1+	c #564C5B",
"2+	c #CB642A",
"3+	c #D86828",
"4+	c #D96828",
"5+	c #A85A2D",
"6+	c #D66829",
"7+	c #F2903C",
"8+	c #CE662A",
"9+	c #754A2E",
"0+	c #6E5346",
"a+	c #E4D8D3",
"b+	c #774A2E",
"c+	c #412501",
"d+	c #5D3400",
"e+	c #7D4F31",
"f+	c #7D482A",
"g+	c #CE7C38",
"h+	c #E3905A",
"i+	c #D79A76",
"j+	c #9F7F74",
"k+	c #000000",
"l+	c #E4D0C8",
"m+	c #8C6146",
"n+	c #140000",
"o+	c #814E2E",
"p+	c #875130",
"q+	c #66412A",
"r+	c #232120",
"s+	c #312A28",
"t+	c #BAB7B6",
"u+	c #F2F2F2",
"v+	c #EEEEEE",
"w+	c #999998",
"x+	c #4A382E",
"y+	c #6E4D82",
"z+	c #815030",
"A+	c #825030",
"B+	c #664028",
"C+	c #242525",
"D+	c #B1B2B2",
"E+	c #DE9E8B",
"F+	c #E6A076",
"G+	c #DE966F",
"H+	c #B85C2A",
"I+	c #CD9D83",
"J+	c #7469CA",
"K+	c #1C234D",
"L+	c #4B2F1F",
"M+	c #000204",
"N+	c #161312",
"O+	c #AB531F",
"P+	c #F99840",
"Q+	c #F99940",
"R+	c #ED8938",
"S+	c #BC612C",
"T+	c #592E1A",
"U+	c #3C373F",
"V+	c #2B1F28",
"W+	c #1D1E28",
"X+	c #1F1F1F",
"Y+	c #202020",
"Z+	c #2A1915",
"`+	c #9C5A2F",
" @	c #DB6C2A",
".@	c #B45D2C",
"+@	c #9B562E",
"@@	c #703418",
"#@	c #2D4664",
"$@	c #1F1B13",
"%@	c #1B1D1D",
"&@	c #542F1A",
"*@	c #CA6227",
"=@	c #D27935",
"-@	c #A0582E",
";@	c #41281B",
">@	c #27374B",
",@	c #1F1B12",
"'@	c #1E1E1E",
")@	c #06151A",
"!@	c #673E76",
"~@	c #323D96",
"{@	c #281A0F",
"]@	c #293D54",
"^@	c #110D0C",
"/@	c #986A5F",
"(@	c #AF837C",
"_@	c #563E32",
":@	c #2E4C6D",
"<@	c #715446",
"[@	c #84675A",
"                                                                ",
"                          .   +   @ #                           ",
"                          $ % & * = - ; >                       ",
"                      , ' ) ! ~ ~ { ] ^ /                       ",
"                        ( ! ! ! ! ! ! _ : <                     ",
"                        [ } ! { ! ! | | 1 2 3 4                 ",
"                      5 6 7 8 9 0 ~ a b c d e f                 ",
"                        g h i j k l m n o p                     ",
"                        q r s t u v w x y z A                   ",
"                          B C D E F G H I J K                   ",
"                          L M N O P Q R S T U                   ",
"                          V W X Y Z `  ...+.@.                  ",
"                          #.$.%.&.*.=.-.;.>.                    ",
"                          ,.'.).!.r ~.{.].^./.                  ",
"                          (._.:.<.[.}.|.1.2.3.                  ",
"                          4.5.6.7.8.9.0.a.b.c.                  ",
"                        d.e.f.g.h.i.j.k.l.m.n.o.                ",
"                      p.q.r.s.t.u.v.w.x.y.z.A.B.C.              ",
"                      D.E.F.G.H.I.J.K.L.M.N.O.P.Q.              ",
"                      R.S.T.U.V.W.X.Y.Z.`. +.+++@+              ",
"                          #+$+%+&+*+=+-+;+>+,+'+)+              ",
"                        !+~+{+]+^+/+(+_+:+<+[+}+|+              ",
"                      1+2+3+4+5+6+7+8+9+0+a+b+c+                ",
"                      d+4+{+e+f+g+h+i+j+k+l+m+                  ",
"                      n+o+p+q+r+s+t+u+v+w+x+                    ",
"                      y+_+z+A+B+C+D+E+F+G+H+                    ",
"                      I+J+K+L+M+N+O+P+Q+R+S+T+                  ",
"                      U+V+W+X+X+Y+Z+`+ @.@+@@@                  ",
"                          #@$@Y+Y+%@&@*@=@-@;@                  ",
"                                >@,@'@)@!@~@{@                  ",
"                                    ]@^@/@(@_@                  ",
"                                      :@<@[@                    "};
