/* XPM */
static char * ngf_xpm[] = {
"32 32 626 2",
"  	c #A3A78D",
". 	c #B4B8A7",
"+ 	c #AEB2A2",
"@ 	c #6D893C",
"# 	c #779B31",
"$ 	c #799E32",
"% 	c #6B8F27",
"& 	c #799C32",
"* 	c #759930",
"= 	c #7BA034",
"- 	c #749730",
"; 	c #71942D",
"> 	c #72962D",
", 	c #769931",
"' 	c #789B32",
") 	c #70942C",
"! 	c #759A2E",
"~ 	c #72952D",
"{ 	c #779A31",
"] 	c #769B2F",
"^ 	c #72962E",
"/ 	c #74953B",
"( 	c #A0A697",
"_ 	c #B9BEBA",
": 	c #B4B7B3",
"< 	c #CBCCCB",
"[ 	c #8D8E7A",
"} 	c #A7A99B",
"| 	c #B5BAAA",
"1 	c #B0B4A7",
"2 	c #738D3F",
"3 	c #74972F",
"4 	c #73972D",
"5 	c #70942B",
"6 	c #759830",
"7 	c #7A9D35",
"8 	c #7A9E35",
"9 	c #7DA136",
"0 	c #789C32",
"a 	c #73962E",
"b 	c #75992E",
"c 	c #779C31",
"d 	c #6F932B",
"e 	c #7B9F34",
"f 	c #799B33",
"g 	c #98A38C",
"h 	c #BEC1C0",
"i 	c #B6B8AF",
"j 	c #A5A99A",
"k 	c #898A7A",
"l 	c #9C9E90",
"m 	c #AAAD9F",
"n 	c #95A083",
"o 	c #7CA035",
"p 	c #769831",
"q 	c #7EA236",
"r 	c #73972F",
"s 	c #7DA135",
"t 	c #7FA437",
"u 	c #70932C",
"v 	c #799D33",
"w 	c #56361E",
"x 	c #5D6D94",
"y 	c #C37D39",
"z 	c #23354D",
"A 	c #9C6D56",
"B 	c #A08F26",
"C 	c #7B9E35",
"D 	c #7CA036",
"E 	c #71942C",
"F 	c #839E56",
"G 	c #ABAEA3",
"H 	c #A1A592",
"I 	c #B6BAAA",
"J 	c #A1A098",
"K 	c #75903F",
"L 	c #7CA037",
"M 	c #6F922B",
"N 	c #779B30",
"O 	c #799C34",
"P 	c #789B33",
"Q 	c #769932",
"R 	c #7DA036",
"S 	c #799D32",
"T 	c #72952E",
"U 	c #74992F",
"V 	c #6B6C2B",
"W 	c #D5B24C",
"X 	c #D7C34E",
"Y 	c #926631",
"Z 	c #D7D04F",
"` 	c #B2A740",
" .	c #938C2E",
"..	c #6D652E",
"+.	c #7B9F36",
"@.	c #7EA237",
"#.	c #73982E",
"$.	c #72824B",
"%.	c #C3C5BE",
"&.	c #BABDB9",
"*.	c #9AA18B",
"=.	c #7DA234",
"-.	c #84AB39",
";.	c #759831",
">.	c #6B8E26",
",.	c #75982F",
"'.	c #82A738",
").	c #71952D",
"!.	c #C8AD47",
"~.	c #D0D04D",
"{.	c #D8D850",
"].	c #D7D34F",
"^.	c #D8D550",
"/.	c #D7CD4F",
"(.	c #724725",
"_.	c #35435E",
":.	c #82A739",
"<.	c #7B9F33",
"[.	c #748E40",
"}.	c #9AA388",
"|.	c #94A47D",
"1.	c #7CA039",
"2.	c #74982D",
"3.	c #7FA438",
"4.	c #779A32",
"5.	c #769A30",
"6.	c #6D9029",
"7.	c #7FA337",
"8.	c #C39F40",
"9.	c #D6BF4D",
"0.	c #717091",
"a.	c #73962F",
"b.	c #789C31",
"c.	c #7FA436",
"d.	c #789A32",
"e.	c #83AA35",
"f.	c #749830",
"g.	c #7A9F33",
"h.	c #7B9F35",
"i.	c #7DA235",
"j.	c #74982E",
"k.	c #789C33",
"l.	c #7EA235",
"m.	c #6C9026",
"n.	c #AF6D30",
"o.	c #D7CA4F",
"p.	c #D7CF4F",
"q.	c #D8DA50",
"r.	c #D19849",
"s.	c #D29949",
"t.	c #74982F",
"u.	c #7BA035",
"v.	c #70942A",
"w.	c #73972E",
"x.	c #759B2E",
"y.	c #779C30",
"z.	c #7EA337",
"A.	c #9D6738",
"B.	c #7E5948",
"C.	c #D3CA4D",
"D.	c #CFB04A",
"E.	c #CEA249",
"F.	c #D3D34E",
"G.	c #D0B64B",
"H.	c #BE7F63",
"I.	c #54395D",
"J.	c #80A537",
"K.	c #799E31",
"L.	c #6E912A",
"M.	c #75992F",
"N.	c #82A936",
"O.	c #31608C",
"P.	c #2E42D1",
"Q.	c #8E90A4",
"R.	c #A4A5A6",
"S.	c #969798",
"T.	c #B4B4B6",
"U.	c #8C8C8B",
"V.	c #344EC7",
"W.	c #16226E",
"X.	c #81A835",
"Y.	c #789D31",
"Z.	c #799D34",
"`.	c #7A9F32",
" +	c #769A31",
".+	c #7A9E33",
"++	c #6A8E25",
"@+	c #462D00",
"#+	c #41239C",
"$+	c #858491",
"%+	c #D6D6D5",
"&+	c #AAA9A9",
"*+	c #DFDFDE",
"=+	c #AAA9A6",
"-+	c #30219C",
";+	c #5A415C",
">+	c #6E9228",
",+	c #6F922A",
"'+	c #749A2D",
")+	c #7CA233",
"!+	c #70932B",
"~+	c #AA836E",
"{+	c #74482C",
"]+	c #ABABAE",
"^+	c #4F5AB1",
"/+	c #57514F",
"(+	c #524D52",
"_+	c #959CD8",
":+	c #4C3B32",
"<+	c #CB9D88",
"[+	c #74962F",
"}+	c #73962D",
"|+	c #81A737",
"1+	c #7A9E34",
"2+	c #6C9027",
"3+	c #7BA033",
"4+	c #769930",
"5+	c #789B34",
"6+	c #2C5C88",
"7+	c #4B3326",
"8+	c #E3CBC1",
"9+	c #C7AFA4",
"0+	c #F2DFD8",
"a+	c #D8B19F",
"b+	c #DACEC9",
"c+	c #926852",
"d+	c #000413",
"e+	c #7A9E32",
"f+	c #759A30",
"g+	c #7A9D34",
"h+	c #7BA032",
"i+	c #72962C",
"j+	c #040035",
"k+	c #969595",
"l+	c #987260",
"m+	c #DAAB95",
"n+	c #E8B8A3",
"o+	c #DFAF99",
"p+	c #BE927C",
"q+	c #6A6867",
"r+	c #565555",
"s+	c #7D7775",
"t+	c #315072",
"u+	c #779B33",
"v+	c #7EA336",
"w+	c #1E1B9C",
"x+	c #160C7F",
"y+	c #A9A8A8",
"z+	c #B9B9B9",
"A+	c #4C382E",
"B+	c #71574C",
"C+	c #5F453A",
"D+	c #74706F",
"E+	c #BBBABA",
"F+	c #545357",
"G+	c #845940",
"H+	c #8A8A8D",
"I+	c #6D9128",
"J+	c #85AC39",
"K+	c #000039",
"L+	c #3244D2",
"M+	c #3A55EB",
"N+	c #39347D",
"O+	c #C7C7C7",
"P+	c #B9ADA8",
"Q+	c #EA8536",
"R+	c #DE7130",
"S+	c #B1ABA8",
"T+	c #6E6D77",
"U+	c #1C02A8",
"V+	c #5C3A0F",
"W+	c #846B6A",
"X+	c #736EA2",
"Y+	c #779B2F",
"Z+	c #6D9229",
"`+	c #81A738",
" @	c #BF5C5A",
".@	c #261BA5",
"+@	c #3E5DF5",
"@@	c #364CE0",
"#@	c #26216E",
"$@	c #182345",
"%@	c #CA642A",
"&@	c #8C4F2C",
"*@	c #22223F",
"=@	c #200AAD",
"-@	c #2008B0",
";@	c #35227A",
">@	c #4B4949",
",@	c #575554",
"'@	c #688B22",
")@	c #769B30",
"!@	c #7EA334",
"~@	c #6F9429",
"{@	c #71952B",
"]@	c #6D9129",
"^@	c #779B32",
"/@	c #7CA134",
"(@	c #6E9129",
"_@	c #BF6E11",
":@	c #D66828",
"<@	c #854D2D",
"[@	c #232B6B",
"}@	c #2008AE",
"|@	c #2009AF",
"1@	c #1A1481",
"2@	c #92542F",
"3@	c #8B4F2C",
"4@	c #1B1580",
"5@	c #201A72",
"6@	c #5E3C25",
"7@	c #714A32",
"8@	c #769B2E",
"9@	c #313243",
"0@	c #E08439",
"a@	c #F3903C",
"b@	c #93542F",
"c@	c #453024",
"d@	c #5E3D1E",
"e@	c #5A3B26",
"f@	c #000F62",
"g@	c #9C5C31",
"h@	c #9B5C31",
"i@	c #402E1F",
"j@	c #57391C",
"k@	c #21201D",
"l@	c #845231",
"m@	c #613E29",
"n@	c #281000",
"o@	c #7A9C35",
"p@	c #71952C",
"q@	c #7F4C2A",
"r@	c #EF8B39",
"s@	c #A16133",
"t@	c #563626",
"u@	c #1A1E20",
"v@	c #7D4C2E",
"w@	c #CE662A",
"x@	c #E88235",
"y@	c #A46434",
"z@	c #E27B32",
"A@	c #AD592B",
"B@	c #83502F",
"C@	c #402D23",
"D@	c #402E24",
"E@	c #9C562D",
"F@	c #91512C",
"G@	c #7DA236",
"H@	c #7B9E34",
"I@	c #7CA136",
"J@	c #55495B",
"K@	c #E1762F",
"L@	c #D16E2F",
"M@	c #542F19",
"N@	c #171818",
"O@	c #3D2720",
"P@	c #94522D",
"Q@	c #A05E31",
"R@	c #895531",
"S@	c #89552C",
"T@	c #724128",
"U@	c #422E23",
"V@	c #202020",
"W@	c #463125",
"X@	c #6C3A24",
"Y@	c #8E6754",
"Z@	c #7C9F35",
"`@	c #81A538",
" #	c #6D9028",
".#	c #83A939",
"+#	c #6A8E26",
"@#	c #74972E",
"##	c #91644B",
"$#	c #A89F9B",
"%#	c #9B7B6C",
"&#	c #302119",
"*#	c #71320F",
"=#	c #A3572C",
"-#	c #1D2221",
";#	c #001A1F",
">#	c #001B1F",
",#	c #061C20",
"'#	c #3C2D24",
")#	c #6E4229",
"!#	c #A04F26",
"~#	c #5B463C",
"{#	c #BC8C74",
"]#	c #A8816E",
"^#	c #82A839",
"/#	c #82A737",
"(#	c #9E7564",
"_#	c #EFDAD2",
":#	c #724E4C",
"<#	c #242435",
"[#	c #B87032",
"}#	c #AA5C2D",
"|#	c #DA702C",
"1#	c #D76B2A",
"2#	c #C76229",
"3#	c #DA702D",
"4#	c #E07831",
"5#	c #B87036",
"6#	c #B25A27",
"7#	c #333038",
"8#	c #2E4C6F",
"9#	c #799C33",
"0#	c #799A39",
"a#	c #83A741",
"b#	c #759734",
"c#	c #6E9229",
"d#	c #725543",
"e#	c #22256E",
"f#	c #2F2F5D",
"g#	c #ACA6A3",
"h#	c #CEB8B0",
"i#	c #DF875A",
"j#	c #F5943E",
"k#	c #CB642A",
"l#	c #E08539",
"m#	c #F89940",
"n#	c #F89840",
"o#	c #F99840",
"p#	c #F6953E",
"q#	c #B45E40",
"r#	c #70893E",
"s#	c #949A77",
"t#	c #A6AD8A",
"u#	c #90957C",
"v#	c #929D76",
"w#	c #A0A686",
"x#	c #85985D",
"y#	c #799E30",
"z#	c #1C04A9",
"A#	c #8E8085",
"B#	c #D8B09F",
"C#	c #C9ABA3",
"D#	c #C4C5C5",
"E#	c #AC8377",
"F#	c #BB5F2C",
"G#	c #8E532F",
"H#	c #D57431",
"I#	c #EE8A39",
"J#	c #F99940",
"K#	c #EA903C",
"L#	c #81A53B",
"M#	c #878E73",
"N#	c #B6BBB7",
"O#	c #B4B9A9",
"P#	c #A2A58C",
"Q#	c #ACADA3",
"R#	c #B6BAAB",
"S#	c #A1A78E",
"T#	c #6F912C",
"U#	c #80A438",
"V#	c #769A2F",
"W#	c #83AA37",
"X#	c #1F1392",
"Y#	c #C96328",
"Z#	c #F18F3C",
"`#	c #AC9690",
" $	c #907F78",
".$	c #39241C",
"+$	c #5A2A0F",
"@$	c #97562F",
"#$	c #D96B2A",
"$$	c #F2933E",
"%$	c #CA682C",
"&$	c #492A1A",
"*$	c #83AB36",
"=$	c #7A9B38",
"-$	c #868B68",
";$	c #B5B9B0",
">$	c #C5C7C5",
",$	c #A0A094",
"'$	c #A4A59C",
")$	c #BBBFBC",
"!$	c #A2A894",
"~$	c #72952F",
"{$	c #693211",
"]$	c #AA5C2E",
"^$	c #F4923D",
"/$	c #97582F",
"($	c #3E4143",
"_$	c #7A4829",
":$	c #A0582E",
"<$	c #4E301E",
"[$	c #553827",
"}$	c #C9632A",
"|$	c #CF6529",
"1$	c #C0612B",
"2$	c #532C1A",
"3$	c #749731",
"4$	c #788356",
"5$	c #878977",
"6$	c #9CA08F",
"7$	c #7C7A64",
"8$	c #A4AB8B",
"9$	c #C8C9C6",
"0$	c #A7A99E",
"a$	c #7D9846",
"b$	c #749632",
"c$	c #686D98",
"d$	c #E78234",
"e$	c #E77E33",
"f$	c #A2582E",
"g$	c #6B4227",
"h$	c #867F7C",
"i$	c #603E28",
"j$	c #356798",
"k$	c #295179",
"l$	c #2A1F1A",
"m$	c #784C2F",
"n$	c #805030",
"o$	c #5F3D25",
"p$	c #356494",
"q$	c #84AA38",
"r$	c #798853",
"s$	c #B0B4A6",
"t$	c #B2B6A6",
"u$	c #868570",
"v$	c #969D7F",
"w$	c #BBBDB5",
"x$	c #9A9D8D",
"y$	c #ACB19E",
"z$	c #828D62",
"A$	c #759732",
"B$	c #182C48",
"C$	c #432945",
"D$	c #88542F",
"E$	c #76472B",
"F$	c #1A130F",
"G$	c #614333",
"H$	c #2A4D71",
"I$	c #5DA7F2",
"J$	c #5DA6F1",
"K$	c #121B32",
"L$	c #2B2045",
"M$	c #2E2446",
"N$	c #254371",
"O$	c #789D32",
"P$	c #708248",
"Q$	c #BFC1BB",
"R$	c #B8BCBA",
"S$	c #9D9D95",
"T$	c #BEC0B0",
"U$	c #C5C8C0",
"V$	c #AAAE96",
"W$	c #B6BAB5",
"X$	c #97A874",
"Y$	c #6F932A",
"Z$	c #2429AE",
"`$	c #241FB9",
" %	c #1C1A6A",
".%	c #0C1011",
"+%	c #1F1F1F",
"@%	c #1E1F20",
"#%	c #201F1D",
"$%	c #1E1704",
"%%	c #1E1804",
"&%	c #0B044E",
"*%	c #2008B2",
"=%	c #2D37CB",
"-%	c #434FD7",
";%	c #485E82",
">%	c #7FA536",
",%	c #779C2F",
"'%	c #799D35",
")%	c #6D8E2D",
"!%	c #98998B",
"~%	c #D4D4D4",
"{%	c #9A9991",
"]%	c #B7BAAF",
"^%	c #B8BCB3",
"/%	c #ACB090",
"(%	c #A3A68E",
"_%	c #899F5D",
":%	c #3B0A67",
"<%	c #6B69DD",
"[%	c #3C5FF8",
"}%	c #11025F",
"|%	c #1E1E1D",
"1%	c #111210",
"2%	c #2A3CB6",
"3%	c #7B5894",
"4%	c #B1836A",
"5%	c #789B31",
"6%	c #7CA033",
"7%	c #779A36",
"8%	c #949883",
"9%	c #A4A799",
"0%	c #7C7A69",
"a%	c #A5A597",
"b%	c #C6C7BF",
"c%	c #B0B39A",
"d%	c #878D72",
"e%	c #799B37",
"f%	c #86AD3A",
"g%	c #7F5E52",
"h%	c #E2B3A0",
"i%	c #8B6367",
"j%	c #0E1312",
"k%	c #20201F",
"l%	c #293D54",
"m%	c #2B415B",
"n%	c #253D58",
"o%	c #344058",
"p%	c #40475D",
"q%	c #74844E",
"r%	c #BBBEB6",
"s%	c #B5B9A9",
"t%	c #9B9B92",
"u%	c #818369",
"v%	c #9DA190",
"w%	c #868A7F",
"x%	c #779447",
"y%	c #85675A",
"z%	c #291F1A",
"A%	c #7CA135",
"B%	c #7DA137",
"C%	c #6C9028",
"D%	c #6A8D25",
"E%	c #7D9947",
"F%	c #99A17B",
"G%	c #BABBB7",
"H%	c #BDBFB9",
"I%	c #A6A59D",
"  . + @ # $ % & * = - ; > = , ' ) ! ~ , { ] ^ # , ] / ( _ : < [ ",
"} | 1 2 3 4 # 5 6 { 7 ) 8 9 0 a , 9 7 - 6 b c d 3 e f g h i j k ",
"l m n o p q r s t 6 u v w x y z A B , C 6 D * e 9 , E F G H I J ",
"K L M N O P Q 7 R S T U V W X Y Z `  ...O P 6 +.@.#., # $.%.&.*.",
"=.-.a ^ ;.>.,.'.$ ).O !.~.{.{.].{.^./.(._.% 3 :.<.5 O ) [.}.|.1.",
"2.3.4.5.-.{ 6., 7.0 O 8.{.{.{.{.{.{.^.9.0.~ a.6 q b.O D c.d.e.S ",
"f.g.h.i.j.a k.# C l.m.n.o.{.p.{.{.q.r.s.t.a.P # C u.v.i.w.f.;.w.",
"^ M i.x.y.3 s t 7 T z.A.B.C.D.E.F.G.H.I.] * # z.O T @.J.K.C $ ] ",
"a 0 6 L.<.q M.N.> @.C O.P.Q.R.S.T.U.V.W.S o 4.X.E D 8 O Y.v Z.K.",
"d `.~  +4..+++d T 9 7 @+#+$+%+&+*+=+-+;+d.g.>+E 6 t 7 v 6 = M.,+",
"'+)+u .+T 9 !+q <.L.!+~+{+]+^+/+(+_+:+<+[+u.> o c 5 }+|+6 1+2+<.",
"3+S [+e 3 6 O 4+$ .+5+6+7+8+9+0+a+b+c+d+- f.7 { e+f+g+.+4.E 7 )+",
"9 3 O { O u +.h+i+f.O j+k+l+m+n+o+p+q+r+s+t+O =.i+4.u+a >.; ;.v+",
"2..+3 D t 3 6 * 3+5.w+x+y+z+A+B+C+D+E+F+G+H+~ - g.g.;.S = - L.I+",
"8 @.>+y.S 4+J+R 4.K+L+M+N+O+P+Q+R+S+T+U+V+W+X+D  +D Y+g.b 6 a 0 ",
"Z+* o `+N g+o v T  @.@+@@@#@$@%@&@*@=@-@;@>@,@# ; '@)@!@~@~ {@.+",
"]@i+^@;./@<.(@/@_@:@<@[@}@|@1@2@3@4@|@5@6@7@t.e+4+4+, ,+8@M.t./@",
"a.9 8 ^@6 w.N 9@0@a@b@c@d@e@f@g@h@i@j@k@l@m@n@E 3 e o@p@g+z.c 4.",
"k.r 3 v+- 9 M q@r@s@t@u@v@w@x@y@z@A@B@C@D@E@F@o 9 a E G@T H@6 I@",
"i.z.M S O C , J@K@L@M@N@O@P@Q@R@S@T@U@V@W@X@Y@Z@`@v 4.= 4. #7 3 ",
"`..#3 w., +#@###$#%#&#*#=#-#;#>#,#'#)#!#~#{#]#^#g.E O )., !+) K.",
"{@t  +)@/#'  #(#_#:#<#[#}#|#1#2#2#3#4#5#6#7#8#;.9 /@9#z.v+0#a#b#",
",+^@9 h.=.c#O e d#e#f#g#h#i#j#k#l#m#n#o#p#q#P g.+.C ! # r#s#t#u#",
"v#w#x#y#2.5.= 7.O z#A#B#C#D#E#F#G#H#I#J#n#K#* 7.O !+9 L#M#N#O#P#",
"Q#R#S#T#.+U#V#W#) X#Y#n#Z#`# $.$+$v@@$#$$$%$&$*$E I@7 =$-$;$>$,$",
"'$)$!$~$r 5.m.E ;.{$]$J#^$/$($_$:$<$[$}$|$1$2$!+, 9 7 3$4$5$6$7$",
"8$9$0$a$b$o ).e .+c$d$e$f$g$h$i$j$k$l$m$n$o$p$1+# r 4 q$r$s$t$u$",
"v$w$x$y$z$A$7 f.0 B$C$D$E$F$G$H$I$J$K$L$M$N$7 4+Y.# 7 O$P$Q$R$S$",
"T$U$V$W$X$Y$C v+! Z$`$ %.%+%@%#%$%%%&%*%=%-%;%>%,%3 '% +)%!%~%{%",
"]%^%/%(%_%M.v 4.:%<%[%}%V@V@V@V@V@V@|%1%2%3%4%Q 5%6%E Y.7%8%9%0%",
"a%b%c%d%e%* f%D g%h%i%j%k%l%m%m%m%m%m%m%n%o%p%9 4+o V#$ q%r%s%t%",
"u%v%w%x%i.C z.3+(@y%z%`.~@I+)@N +#r 7.t A%C B%c C%D%3+E%F%G%H%I%"};
