/* XPM */
static char * parchemin32px_xpm[] = {
"32 32 11 1",
" 	c #008000",
".	c #080808",
"+	c #5A5A39",
"@	c #DECEBD",
"#	c #AD8C7B",
"$	c #CE3908",
"%	c #39394A",
"&	c #EF7B18",
"*	c #292918",
"=	c #AD0800",
"-	c #8C0000",
"                                ",
"                                ",
"                                ",
"                                ",
"                       ...      ",
"                     ..+@#..    ",
"                   ..$+@#.%%.   ",
"                 ..#&&+@#.%...  ",
"               ...#@&&+@#.*...  ",
"             ..#..#@$&+##.....  ",
"           ..#.@@@@@#$=+@#...   ",
"         ..#..@@@@#$$$$*#@@#.   ",
"       ..#.@.#@@#$$$$$$-*+#.    ",
"     ..#@.#@@@#$$$$$$=---..     ",
"    .$$@@@@@#$$$$$$=---..#.     ",
"   .+&&@@@#$$$$$$=---..#@.      ",
"   .#&&@#$$$$$$=---....@@.      ",
"  ..#&$$$$$$$=---..#..@@@.      ",
"  ..+$$$$$$=---..#@@@@@@@.      ",
"  ..*=$$$=---..#@@@@.#@@@#.     ",
"  ...+==---..#@@@@#....#@@.     ",
"   ...++*..#@@.@.@@@@@@@@@.     ",
"      ...#@@#..@@@@#....#@.     ",
"        .@#...@@#...    ...     ",
"        .@@@@@#..               ",
"        .@@@#..                 ",
"        .@#..                   ",
"        ...                     ",
"        .                       ",
"                                ",
"                                ",
"                                "};
