/* XPM */
static char * naruto_run_front_1_xpm[] = {
"32 32 406 2",
"  	c #7DA234",
". 	c #84AB39",
"+ 	c #73962E",
"@ 	c #72962E",
"# 	c #759831",
"$ 	c #6B8E26",
"% 	c #75982F",
"& 	c #82A738",
"* 	c #799E32",
"= 	c #71952D",
"- 	c #799C34",
"; 	c #71952C",
"> 	c #70942C",
", 	c #71932C",
"' 	c #7DA335",
") 	c #85AB39",
"! 	c #749730",
"~ 	c #759830",
"{ 	c #6B8F27",
"] 	c #74972F",
"^ 	c #82A739",
"/ 	c #7B9F33",
"( 	c #70942B",
"_ 	c #748E40",
": 	c #9AA388",
"< 	c #94A47D",
"[ 	c #7CA039",
"} 	c #74982D",
"| 	c #7FA438",
"1 	c #779A32",
"2 	c #769A30",
"3 	c #779A31",
"4 	c #6D9029",
"5 	c #769931",
"6 	c #7FA337",
"7 	c #789C32",
"8 	c #7DA036",
"9 	c #7CA035",
"0 	c #7A9D34",
"a 	c #84AA38",
"b 	c #799E31",
"c 	c #7FA437",
"d 	c #7A9F33",
"e 	c #82A837",
"f 	c #72952D",
"g 	c #73962F",
"h 	c #7EA236",
"i 	c #789C31",
"j 	c #7CA036",
"k 	c #7FA436",
"l 	c #789A32",
"m 	c #83AA35",
"n 	c #799D32",
"o 	c #749830",
"p 	c #7B9F35",
"q 	c #7DA235",
"r 	c #74982E",
"s 	c #789C33",
"t 	c #779B31",
"u 	c #7B9E35",
"v 	c #7EA235",
"w 	c #6C9026",
"x 	c #7BA034",
"y 	c #72952E",
"z 	c #779B32",
"A 	c #7B9F34",
"B 	c #7EA237",
"C 	c #74982F",
"D 	c #789B33",
"E 	c #7BA035",
"F 	c #70942A",
"G 	c #73972E",
"H 	c #6F922B",
"I 	c #759B2E",
"J 	c #779C30",
"K 	c #7DA135",
"L 	c #7A9D35",
"M 	c #7EA337",
"N 	c #80A537",
"O 	c #769A2F",
"P 	c #73972D",
"Q 	c #7DA236",
"R 	c #779D2F",
"S 	c #769B2F",
"T 	c #759930",
"U 	c #6E912A",
"V 	c #75992F",
"W 	c #82A936",
"X 	c #72962D",
"Y 	c #7A9C34",
"Z 	c #7CA034",
"` 	c #70952A",
" .	c #769A31",
"..	c #81A835",
"+.	c #71942C",
"@.	c #7A9E35",
"#.	c #789D31",
"$.	c #799D33",
"%.	c #799D34",
"&.	c #6F932B",
"*.	c #7A9F32",
"=.	c #7A9E33",
"-.	c #6A8E25",
";.	c #7DA136",
">.	c #799C33",
",.	c #7A9F34",
"'.	c #6C8F28",
").	c #6E9228",
"!.	c #6F922A",
"~.	c #749A2D",
"{.	c #7CA233",
"].	c #70932C",
"^.	c #70932B",
"/.	c #7EA336",
"(.	c #6D9128",
"_.	c #779D30",
":.	c #7DA333",
"<.	c #74962F",
"[.	c #779C31",
"}.	c #73962D",
"|.	c #81A737",
"1.	c #7A9E34",
"2.	c #6C9027",
"3.	c #7BA033",
"4.	c #769930",
"5.	c #789B34",
"6.	c #82AA36",
"7.	c #799E33",
"8.	c #7A9E32",
"9.	c #759A30",
"0.	c #7B9F36",
"a.	c #7BA032",
"b.	c #72962C",
"c.	c #688B23",
"d.	c #020202",
"e.	c #302017",
"f.	c #7C9F35",
"g.	c #201818",
"h.	c #71942D",
"i.	c #779B33",
"j.	c #6E9129",
"k.	c #C8B348",
"l.	c #4B2E18",
"m.	c #A06030",
"n.	c #85AC39",
"o.	c #785828",
"p.	c #D8D850",
"q.	c #D0B848",
"r.	c #A88040",
"s.	c #D0C648",
"t.	c #779B2F",
"u.	c #75992E",
"v.	c #6D9229",
"w.	c #81A738",
"x.	c #779B30",
"y.	c #6C8F27",
"z.	c #B38340",
"A.	c #688B22",
"B.	c #769B30",
"C.	c #7EA334",
"D.	c #6F9429",
"E.	c #71952B",
"F.	c #6D9129",
"G.	c #7CA134",
"H.	c #769B2E",
"I.	c #935333",
"J.	c #704837",
"K.	c #704027",
"L.	c #673820",
"M.	c #7A9C35",
"N.	c #73972F",
"O.	c #7CA135",
"P.	c #485890",
"Q.	c #D0A150",
"R.	c #D08848",
"S.	c #503833",
"T.	c #E08048",
"U.	c #7B9E34",
"V.	c #7CA136",
"W.	c #2008B0",
"X.	c #7080A8",
"Y.	c #888890",
"Z.	c #B0B0B0",
"`.	c #878780",
" +	c #5068A0",
".+	c #384888",
"++	c #905028",
"@+	c #A85838",
"#+	c #D07446",
"$+	c #6D9028",
"%+	c #83A939",
"&+	c #6A8E26",
"*+	c #74972E",
"=+	c #302828",
"-+	c #608098",
";+	c #C7C7C6",
">+	c #B8C0C1",
",+	c #473020",
"'+	c #815030",
")+	c #82A737",
"!+	c #789B32",
"~+	c #061830",
"{+	c #736350",
"]+	c #946453",
"^+	c #908888",
"/+	c #6780B0",
"(+	c #575353",
"_+	c #535343",
":+	c #8898C0",
"<+	c #646060",
"[+	c #B08578",
"}+	c #363631",
"|+	c #202020",
"1+	c #B06038",
"2+	c #799A39",
"3+	c #83A741",
"4+	c #759734",
"5+	c #6E9229",
"6+	c #7B9E36",
"7+	c #283878",
"8+	c #384038",
"9+	c #CBB0A4",
"0+	c #B7B7A8",
"a+	c #F0D6C7",
"b+	c #E7C0B0",
"c+	c #B79080",
"d+	c #082040",
"e+	c #101820",
"f+	c #759A2E",
"g+	c #70893E",
"h+	c #949A77",
"i+	c #A6AD8A",
"j+	c #90957C",
"k+	c #929D76",
"l+	c #A0A686",
"m+	c #85985D",
"n+	c #799E30",
"o+	c #878778",
"p+	c #929193",
"q+	c #856357",
"r+	c #D7A797",
"s+	c #E7B7A1",
"t+	c #D4A084",
"u+	c #615850",
"v+	c #001018",
"w+	c #604737",
"x+	c #81A53B",
"y+	c #878E73",
"z+	c #B6BBB7",
"A+	c #B4B9A9",
"B+	c #A2A58C",
"C+	c #ACADA3",
"D+	c #B6BAAB",
"E+	c #A1A78E",
"F+	c #6F912C",
"G+	c #80A438",
"H+	c #83AA37",
"I+	c #685044",
"J+	c #9898A0",
"K+	c #473730",
"L+	c #745450",
"M+	c #604840",
"N+	c #A2A1A1",
"O+	c #7A9B38",
"P+	c #868B68",
"Q+	c #B5B9B0",
"R+	c #C5C7C5",
"S+	c #A0A094",
"T+	c #A4A59C",
"U+	c #BBBFBC",
"V+	c #A2A894",
"W+	c #72952F",
"X+	c #777768",
"Y+	c #504040",
"Z+	c #D86828",
"`+	c #083060",
" @	c #74992D",
".@	c #749731",
"+@	c #788356",
"@@	c #878977",
"#@	c #9CA08F",
"$@	c #7C7A64",
"%@	c #A4AB8B",
"&@	c #C8C9C6",
"*@	c #A7A99E",
"=@	c #7D9846",
"-@	c #749632",
";@	c #98A098",
">@	c #282830",
",@	c #804828",
"'@	c #7C9F36",
")@	c #798853",
"!@	c #B0B4A6",
"~@	c #B2B6A6",
"{@	c #868570",
"]@	c #969D7F",
"^@	c #BBBDB5",
"/@	c #9A9D8D",
"(@	c #ACB19E",
"_@	c #828D62",
":@	c #759732",
"<@	c #F89840",
"[@	c #789D32",
"}@	c #708248",
"|@	c #BFC1BB",
"1@	c #B8BCBA",
"2@	c #9D9D95",
"3@	c #BEC0B0",
"4@	c #C5C8C0",
"5@	c #AAAE96",
"6@	c #B6BAB5",
"7@	c #97A874",
"8@	c #6F932A",
"9@	c #887870",
"0@	c #A4A498",
"a@	c #7FA536",
"b@	c #779C2F",
"c@	c #799D35",
"d@	c #6D8E2D",
"e@	c #98998B",
"f@	c #D4D4D4",
"g@	c #9A9991",
"h@	c #B7BAAF",
"i@	c #B8BCB3",
"j@	c #ACB090",
"k@	c #A3A68E",
"l@	c #899F5D",
"m@	c #B7A295",
"n@	c #769932",
"o@	c #789B31",
"p@	c #7CA033",
"q@	c #779A36",
"r@	c #949883",
"s@	c #A4A799",
"t@	c #7C7A69",
"u@	c #A5A597",
"v@	c #C6C7BF",
"w@	c #B0B39A",
"x@	c #878D72",
"y@	c #799B37",
"z@	c #86AD3A",
"A@	c #74844E",
"B@	c #BBBEB6",
"C@	c #B5B9A9",
"D@	c #9B9B92",
"E@	c #818369",
"F@	c #9DA190",
"G@	c #868A7F",
"H@	c #779447",
"I@	c #B08068",
"J@	c #151008",
"K@	c #7DA137",
"L@	c #6C9028",
"M@	c #6A8D25",
"N@	c #7D9947",
"O@	c #99A17B",
"P@	c #BABBB7",
"Q@	c #BDBFB9",
"R@	c #A6A59D",
"S@	c #A3A78D",
"T@	c #B4B8A7",
"U@	c #AEB2A2",
"V@	c #6D893C",
"W@	c #799C32",
"X@	c #181010",
"Y@	c #987858",
"Z@	c #C29485",
"`@	c #F0E7E3",
" #	c #74953B",
".#	c #A0A697",
"+#	c #B9BEBA",
"@#	c #B4B7B3",
"##	c #CBCCCB",
"$#	c #8D8E7A",
"%#	c #A7A99B",
"&#	c #B5BAAA",
"*#	c #B0B4A7",
"=#	c #738D3F",
"-#	c #E0B8B0",
";#	c #4060F8",
">#	c #988077",
",#	c #799B33",
"'#	c #98A38C",
")#	c #BEC1C0",
"!#	c #B6B8AF",
"~#	c #A5A99A",
"{#	c #898A7A",
"]#	c #9C9E90",
"^#	c #AAAD9F",
"/#	c #95A083",
"(#	c #769831",
"_#	c #886048",
":#	c #839E56",
"<#	c #ABAEA3",
"[#	c #A1A592",
"}#	c #B6BAAA",
"|#	c #A1A098",
"1#	c #75903F",
"2#	c #7CA037",
"3#	c #74992F",
"4#	c #6A8D26",
"5#	c #73982E",
"6#	c #72824B",
"7#	c #C3C5BE",
"8#	c #BABDB9",
"9#	c #9AA18B",
"  . + @ # $ % & * = - ; @ > , ' * ) ! ~ ! { ] ^ / ( - > _ : < [ ",
"} | 1 2 . 3 4 5 6 7 - 8 9 0 a 5 b c ! d e f g ~ h i - j k l m n ",
"o d p q r + s t u v w x 2 y ~ z y A B n C g D t u E F q G o # G ",
"@ H q I J ] K c L y M N O u n P ~ > Q R S T t M - y B N b u * S ",
"+ 7 ~ U / h V W X B u Y } Z 0 `  .n 5 U n 9 1 ..+.j @.- #.$.%.b ",
"&.*.f  .1 =.-.&.y ;.L >.D ,.V +.4 b '.1 l d ).+.~ c L $.~ x V !.",
"~.{.].=.y ;.^.h / U ^.k y /.(.V _.:.= 2 <.E X 9 [.( }.|.~ 1.2./ ",
"3.n <.A ] ~ - 4.* =.5.7 1 ; @.6.7.n 1 4.! o L 3 8.9.0 =.1 +.L {.",
";.] - 3 - ].0.a.b.o - ] c.H d.e.f.g.L ] d.h.-   b.1 i.+ $ h.# /.",
"} =.] j c ] ~ T 3.2 1 =.=.d.j.k.l.m.m.m.d.! f ! d d # n x ! U (.",
"@.B ).J n 4.n.8 1 h r n P k.o.p.q.r.p.s.d.z k j  .j t.d u.~ + 7 ",
"v.T 9 w.x.0 9 $.y y.u.d.e.z.p.p.p.p.p.p.s.z.0.t h.A.B.C.D.f E.=.",
"F.b.z # G./ j.G.4.=.1 H r.q.p.p.p.p.p.p.p.m.C 8.4.4.5 !.H.V C G.",
"g ;.@.z ~ G x.+.# t 0 +.I.q.q.p.p.p.p.p.q.J.K.L.] A M.; 0 M [.1 ",
"s N.] /.! ;.H O.B o U E L.P.q.Q.p.R.p.Q.S.z.T.T.e.+ +.Q y U.~ V.",
"q M H n - u 5 @.| q # =.d.W.X.Y.Y.Z.`. +.+++@+#+K.$.1 x 1 $+L ] ",
"*.%+] G 5 &+*+& n X - W.=+.+-+;+;+;+>+P..+,+,+m.'+g.- = 5 ^.> b ",
"E.c  .B.)+!+$+5 B A ~+W.{+]+^+/+(+_+:+<+[+}+|+1+T.l.>.M /.2+3+4+",
"!.z ;.p   5+- A 6+;.7+l.8+8+9+0+a+b+;+c+d+e+L.m.++e.f+t g+h+i+j+",
"k+l+m+n+} 2 x 6 - +.J.o+p+p+q+r+s+s+t+u+7+v+d.0+s+w+;.x+y+z+A+B+",
"C+D+E+F+=.G+O H+> `.1+I+(+(+J+K+L+I+M+N+~+;.1 c+[+V.L O+P+Q+R+S+",
"T+U+V+W+N.2 w +.]+l.X+`.Y+W.(+N+(+Z+@+I+`+V  @d.5 ;.L .@+@@@#@$@",
"%@&@*@=@-@9 = (+o+Z.;@K.1+>@,@>@K.L.K.L.e.'@; 1.t N.P a )@!@~@{@",
"]@^@/@(@_@:@L q+L.Z+T.T.Z+l.Z+@+K.#+T.<@m.W.L 4.#.t L [@}@|@1@2@",
"3@4@5@6@7@8@u d.m.T.++=+'+l.T.Z+9@Z.Z.Z.0@W.- a@b@] c@ .d@e@f@g@",
"h@i@j@k@l@V $.1 ++I.Z+1+m.L.Z+1+K+0@m@m@0@>@ .n@o@p@+.#.q@r@s@t@",
"u@v@w@x@y@T z@j e.Z+<@Z+L.,+,+,+=+1+<@<@T.e.N ;.4.9 O * A@B@C@D@",
"E@F@G@H@q u M 3.d.++K.w+I@,+B.x.g.m.T.T.Z+J@K@[.L@M@3.N@O@P@Q@R@",
"S@T@U@V@t * { W@T X@Y@Z@`@I+5 !+d.L.'+'+L.S @ t 5 S  #.#+#@###$#",
"%#&#*#=#] P t ( ~ 3 l.K.-#;.7 + 5 J@;#>#l.u.[.&.] A ,#'#)#!#~#{#",
"]#^#/#9 (#h N.K c ~ ].$.d./.s 9 3.n@_#s+I+j T A ;.5 +.:#<#[#}#|#",
"1#2#H x.- D n@L 8 n y 3#D 4#5.s 3 j J@,+- D ~ 0.B 5#5 t 6#7#8#9#"};
