/* XPM */
static char * naruto_run_front_4_xpm[] = {
"32 32 402 2",
"  	c #6D9129",
". 	c #72962C",
"+ 	c #779B32",
"@ 	c #759831",
"# 	c #7CA134",
"$ 	c #7B9F33",
"% 	c #6E9129",
"& 	c #769930",
"* 	c #7A9E33",
"= 	c #779A32",
"- 	c #6F922B",
"; 	c #799E32",
"> 	c #759830",
", 	c #75992E",
"' 	c #70942C",
") 	c #759931",
"! 	c #779A33",
"~ 	c #7BA034",
"{ 	c #779B31",
"] 	c #74982F",
"^ 	c #7A9E32",
"/ 	c #769931",
"( 	c #6F922A",
"_ 	c #769B2E",
": 	c #75992F",
"< 	c #73962F",
"[ 	c #7DA136",
"} 	c #7A9E35",
"| 	c #73972E",
"1 	c #779B30",
"2 	c #71942C",
"3 	c #7A9D34",
"4 	c #7CA035",
"5 	c #7A9D35",
"6 	c #759A2F",
"7 	c #769A30",
"8 	c #74972F",
"9 	c #7B9F34",
"0 	c #7A9C35",
"a 	c #71952C",
"b 	c #7EA337",
"c 	c #779C31",
"d 	c #789C33",
"e 	c #73972F",
"f 	c #7EA336",
"g 	c #749730",
"h 	c #7CA135",
"i 	c #7EA237",
"j 	c #749830",
"k 	c #6E912A",
"l 	c #7BA035",
"m 	c #72952E",
"n 	c #7CA034",
"o 	c #7CA036",
"p 	c #789C31",
"q 	c #70932B",
"r 	c #73962E",
"s 	c #7DA236",
"t 	c #7B9E34",
"u 	c #7CA136",
"v 	c #7DA235",
"w 	c #799D32",
"x 	c #799C34",
"y 	c #7B9E35",
"z 	c #7FA438",
"A 	c #6F932A",
"B 	c #789B32",
"C 	c #779C30",
"D 	c #7FA337",
"E 	c #70942A",
"F 	c #7C9F35",
"G 	c #81A538",
"H 	c #799D33",
"I 	c #6D9028",
"J 	c #7A9F32",
"K 	c #83A939",
"L 	c #6A8E26",
"M 	c #74972E",
"N 	c #82A738",
"O 	c #72962D",
"P 	c #72952D",
"Q 	c #7CA234",
"R 	c #789C32",
"S 	c #769A31",
"T 	c #6B8F27",
"U 	c #82A839",
"V 	c #7A9F33",
"W 	c #71952D",
"X 	c #799E31",
"Y 	c #71952B",
"Z 	c #7FA437",
"` 	c #769B30",
" .	c #82A737",
"..	c #7B9F35",
"+.	c #82A838",
"@.	c #769A2F",
"#.	c #7BA033",
"$.	c #80A536",
"%.	c #799C33",
"&.	c #799A39",
"*.	c #83A741",
"=.	c #759734",
"-.	c #7DA234",
";.	c #6E9229",
">.	c #7B9E36",
",.	c #70952A",
"'.	c #80A538",
").	c #789B33",
"!.	c #7B9F36",
"~.	c #759A2E",
"{.	c #70893E",
"].	c #949A77",
"^.	c #A6AD8A",
"/.	c #90957C",
"(.	c #929D76",
"_.	c #A0A686",
":.	c #85985D",
"<.	c #799E30",
"[.	c #74982D",
"}.	c #789B31",
"|.	c #7BA032",
"1.	c #759930",
"2.	c #81A53B",
"3.	c #878E73",
"4.	c #B6BBB7",
"5.	c #B4B9A9",
"6.	c #A2A58C",
"7.	c #ACADA3",
"8.	c #B6BAAB",
"9.	c #A1A78E",
"0.	c #6F912C",
"a.	c #80A438",
"b.	c #83AA37",
"c.	c #020202",
"d.	c #201818",
"e.	c #302017",
"f.	c #6F932B",
"g.	c #789D32",
"h.	c #83AB36",
"i.	c #7A9B38",
"j.	c #868B68",
"k.	c #B5B9B0",
"l.	c #C5C7C5",
"m.	c #A0A094",
"n.	c #A4A59C",
"o.	c #BBBFBC",
"p.	c #A2A894",
"q.	c #72952F",
"r.	c #6C9026",
"s.	c #7C9F36",
"t.	c #A06030",
"u.	c #4B2E18",
"v.	c #C8B348",
"w.	c #74992D",
"x.	c #749731",
"y.	c #788356",
"z.	c #878977",
"A.	c #9CA08F",
"B.	c #7C7A64",
"C.	c #A4AB8B",
"D.	c #C8C9C6",
"E.	c #A7A99E",
"F.	c #7D9846",
"G.	c #749632",
"H.	c #71942D",
"I.	c #D0C648",
"J.	c #D8D850",
"K.	c #A88040",
"L.	c #D0B848",
"M.	c #785828",
"N.	c #7A9E34",
"O.	c #73972D",
"P.	c #84AA38",
"Q.	c #798853",
"R.	c #B0B4A6",
"S.	c #B2B6A6",
"T.	c #868570",
"U.	c #969D7F",
"V.	c #BBBDB5",
"W.	c #9A9D8D",
"X.	c #ACB19E",
"Y.	c #828D62",
"Z.	c #759732",
"`.	c #B38340",
" +	c #789D31",
".+	c #708248",
"++	c #BFC1BB",
"@+	c #B8BCBA",
"#+	c #9D9D95",
"$+	c #BEC0B0",
"%+	c #C5C8C0",
"&+	c #AAAE96",
"*+	c #B6BAB5",
"=+	c #97A874",
"-+	c #7FA536",
";+	c #779C2F",
">+	c #799D35",
",+	c #6D8E2D",
"'+	c #98998B",
")+	c #D4D4D4",
"!+	c #9A9991",
"~+	c #B7BAAF",
"{+	c #B8BCB3",
"]+	c #ACB090",
"^+	c #A3A68E",
"/+	c #899F5D",
"(+	c #673820",
"_+	c #704027",
":+	c #704837",
"<+	c #935333",
"[+	c #769932",
"}+	c #7CA033",
"|+	c #779A36",
"1+	c #949883",
"2+	c #A4A799",
"3+	c #7C7A69",
"4+	c #A5A597",
"5+	c #C6C7BF",
"6+	c #B0B39A",
"7+	c #878D72",
"8+	c #799B37",
"9+	c #86AD3A",
"0+	c #E08048",
"a+	c #503833",
"b+	c #D0A150",
"c+	c #D08848",
"d+	c #485890",
"e+	c #80A537",
"f+	c #74844E",
"g+	c #BBBEB6",
"h+	c #B5B9A9",
"i+	c #9B9B92",
"j+	c #818369",
"k+	c #9DA190",
"l+	c #868A7F",
"m+	c #779447",
"n+	c #D07446",
"o+	c #A85838",
"p+	c #905028",
"q+	c #384888",
"r+	c #5068A0",
"s+	c #878780",
"t+	c #B0B0B0",
"u+	c #888890",
"v+	c #7080A8",
"w+	c #2008B0",
"x+	c #7DA137",
"y+	c #6C9028",
"z+	c #6A8D25",
"A+	c #7D9947",
"B+	c #99A17B",
"C+	c #BABBB7",
"D+	c #BDBFB9",
"E+	c #A6A59D",
"F+	c #A3A78D",
"G+	c #B4B8A7",
"H+	c #AEB2A2",
"I+	c #6D893C",
"J+	c #815030",
"K+	c #473020",
"L+	c #B8C0C1",
"M+	c #C7C7C6",
"N+	c #608098",
"O+	c #302828",
"P+	c #769B2F",
"Q+	c #72962E",
"R+	c #74953B",
"S+	c #A0A697",
"T+	c #B9BEBA",
"U+	c #B4B7B3",
"V+	c #CBCCCB",
"W+	c #8D8E7A",
"X+	c #A7A99B",
"Y+	c #B5BAAA",
"Z+	c #B0B4A7",
"`+	c #738D3F",
" @	c #B06038",
".@	c #202020",
"+@	c #363631",
"@@	c #B08578",
"#@	c #646060",
"$@	c #8898C0",
"%@	c #535343",
"&@	c #575353",
"*@	c #6780B0",
"=@	c #908888",
"-@	c #946453",
";@	c #736350",
">@	c #061830",
",@	c #799B33",
"'@	c #98A38C",
")@	c #BEC1C0",
"!@	c #B6B8AF",
"~@	c #A5A99A",
"{@	c #898A7A",
"]@	c #9C9E90",
"^@	c #AAAD9F",
"/@	c #95A083",
"(@	c #769831",
"_@	c #7EA236",
":@	c #101820",
"<@	c #082040",
"[@	c #B79080",
"}@	c #E7C0B0",
"|@	c #F0D6C7",
"1@	c #B7B7A8",
"2@	c #CBB0A4",
"3@	c #384038",
"4@	c #283878",
"5@	c #839E56",
"6@	c #ABAEA3",
"7@	c #A1A592",
"8@	c #B6BAAA",
"9@	c #A1A098",
"0@	c #75903F",
"a@	c #7CA037",
"b@	c #604737",
"c@	c #E7B7A1",
"d@	c #001018",
"e@	c #615850",
"f@	c #D4A084",
"g@	c #D7A797",
"h@	c #856357",
"i@	c #929193",
"j@	c #878778",
"k@	c #73982E",
"l@	c #72824B",
"m@	c #C3C5BE",
"n@	c #BABDB9",
"o@	c #9AA18B",
"p@	c #84AB39",
"q@	c #6B8E26",
"r@	c #75982F",
"s@	c #A2A1A1",
"t@	c #604840",
"u@	c #685044",
"v@	c #745450",
"w@	c #473730",
"x@	c #9898A0",
"y@	c #82A739",
"z@	c #70942B",
"A@	c #748E40",
"B@	c #9AA388",
"C@	c #94A47D",
"D@	c #7CA039",
"E@	c #779A31",
"F@	c #6D9029",
"G@	c #083060",
"H@	c #D86828",
"I@	c #504040",
"J@	c #777768",
"K@	c #7FA436",
"L@	c #789A32",
"M@	c #83AA35",
"N@	c #74982E",
"O@	c #7EA235",
"P@	c #282830",
"Q@	c #804828",
"R@	c #98A098",
"S@	c #759B2E",
"T@	c #7DA135",
"U@	c #F89840",
"V@	c #82A936",
"W@	c #A4A498",
"X@	c #887870",
"Y@	c #799D34",
"Z@	c #6A8E25",
"`@	c #B7A295",
" #	c #749A2D",
".#	c #7CA233",
"+#	c #70932C",
"@#	c #73962D",
"##	c #81A737",
"$#	c #6C9027",
"%#	c #74962F",
"&#	c #151008",
"*#	c #799E33",
"=#	c #B08068",
"-#	c #759A30",
";#	c #F0E7E3",
">#	c #C29485",
",#	c #987858",
"'#	c #181010",
")#	c #779B33",
"!#	c #988077",
"~#	c #4060F8",
"{#	c #E0B8B0",
"]#	c #6D9128",
"^#	c #6E9228",
"/#	c #85AC39",
"(#	c #7DA036",
"_#	c #886048",
":#	c #72972B",
"<#	c #779B2F",
"[#	c #6D9229",
"}#	c #81A738",
"|#	c #6C8F27",
"1#	c #7EA434",
"2#	c #83A839",
"3#	c #688B22",
"4#	c #7EA334",
"5#	c #6F9429",
"  . + @ # $ % # & * = - . ; > , ' . ) ! ~ { ] ^ & & / ( _ : ] # ",
"< [ } + > | 1 2 @ { 3 2 } [ { < / 4 5 > & 6 7 2 8 9 0 a 3 b c = ",
"d e 8 f g [ - h i j k l m n > o p e e o 8 o q 4 [ r 2 s m t > u ",
"v b - w x y / } z v @ * / A 5 B C D 8 E x y < F G H = ~ = I 5 8 ",
"J K 8 | / L M N w O x P 8 ' ' Q R K > S @ T < U V 2 x W / q ' X ",
"Y Z S `  .B I / i 9 d D ..x +.8 @.Z m #.$.] < @ [ # %.b f &.*.=.",
"( + [ ..-.;.x 9 >.[ ,.: n / { #   p '.R # I ).V !.y ~.{ {.].^./.",
"(._.:.<.[.7 ~ D x 2 [ N . 3 }.O / 2 4 |.| + 1.D x q [ 2.3.4.5.6.",
"7.8.9.0.* a.@.b.' z 5 c.O ~ d.E e.c.8 f.g.[ = h.2 u 5 i.j.k.l.m.",
"n.o.p.q.e 7 r.2 @ s.y c.t.t.t.u.v.R c.j 8 : w.q / [ 5 x.y.z.A.B.",
"C.D.E.F.G.4 W 9 * H.H.c.I.J.K.L.J.M.v.7 > s.a N.{ e O.P.Q.R.S.T.",
"U.V.W.X.Y.Z.5 j R 9 `.I.J.J.J.J.J.J.`.e.c.g 5 &  +{ 5 g..+++@+#+",
"$+%+&+*+=+A y f ~.r t.J.J.J.J.J.J.J.L.K.x - x -+;+8 >+S ,+'+)+!+",
"~+{+]+^+/+: H = (+_+:+L.J.J.J.J.J.L.L.<+o S S [+}.}+2  +|+1+2+3+",
"4+5+6+7+8+1.9+e.0+0+`.a+b+J.c+J.b+L.d+(+c B e+[ & 4 @.; f+g+h+i+",
"j+k+l+m+v y b _+n+o+p+q+r+s+t+u+u+v+w+c.h y x+c y+z+#.A+B+C+D+E+",
"F+G+H+I+{ ; d.J+t.K+K+q+d+L+M+M+M+N+q+O+w+P+Q+{ / P+R+S+T+U+V+W+",
"X+Y+Z+`+8 O.u.0+ @.@+@@@#@$@%@&@*@=@-@;@w+>@c f.8 9 ,@'@)@!@~@{@",
"]@^@/@4 (@_@e.p+t.(+:@<@[@M+}@|@1@2@3@3@u.4@1.9 [ / 2 5@6@7@8@9@",
"0@a@- 1 x ).b@c@1@c.d@4@e@f@c@c@g@h@i@i@j@:+> !.i k@/ { l@m@n@o@",
"-.p@r Q+@ q@r@@@[@W x >@s@t@u@v@w@x@&@&@u@ @s+y@$ z@x ' A@B@C@D@",
"[.z = 7 p@E@F@/ c.R x G@u@o+H@&@s@&@w+I@s+J@u.-@_@p x o K@L@M@w ",
"j V ..v N@r d { y O@r.e.(+_+(+_+P@Q@P@ @_+R@t+j@&@l E v | j @ | ",
"Q+- v S@C 8 T@Z 5 m w+t.U@0+n+_+o+H@u.H@0+0+H@(+h@m i e+X y ; P+",
"r R > k $ _@: V@O i w+W@t+t+t+X@H@0+u.J+O+p+0+t.c.o } x  +H Y@X ",
"f.J P S = * Z@f.m [ P@W@`@`@W@w@ @H@(+t. @H@<+p+> Z 5 H > ~ : ( ",
" #.#+#* m [ q _@$ k e.0+U@U@ @O+K+K+K+(+H@U@H@e.c z@@###> N.$#$ ",
"#.w %#9 8 > x & ; * &#H@0+0+t.d.*#w K+=#b@_+p+c.^ -#3 * = 2 5 .#",
"[ 8 x E@x +#!.|.. j x (+J+J+(+c.F g u@;#>#,#'#-.. = )#r q@H.@ f ",
"[.* 8 o Z 8 > 1.#.7 = u.!#~#&#y+;+* > {#_+u.P g V V @ w ~ g k ]#",
"} i ^#C w & /#(#= _@N@u@c@_#<  +3 i :#c.p + K@o S o <#V , > r R ",
"[#1.4 }#1 3 4 H m |#, 1#K+&#Y + q@> 4 2#{ 3 !.{ H.3#` 4#5#P Y * "};
