/* XPM */
static char * naruto_run_front_2_xpm[] = {
"32 32 409 2",
"  	c #73962E",
". 	c #789C32",
"+ 	c #759830",
"@ 	c #6E912A",
"# 	c #7B9F33",
"$ 	c #7EA236",
"% 	c #75992F",
"& 	c #82A936",
"* 	c #72962D",
"= 	c #7EA237",
"- 	c #7B9E35",
"; 	c #7A9C34",
"> 	c #74982D",
", 	c #7CA034",
"' 	c #7A9D34",
") 	c #70952A",
"! 	c #769A31",
"~ 	c #799D32",
"{ 	c #769931",
"] 	c #7CA035",
"^ 	c #779A32",
"/ 	c #81A835",
"( 	c #71942C",
"_ 	c #7CA036",
": 	c #7A9E35",
"< 	c #799C34",
"[ 	c #789D31",
"} 	c #799D33",
"| 	c #799D34",
"1 	c #799E31",
"2 	c #6F932B",
"3 	c #7A9F32",
"4 	c #72952D",
"5 	c #7A9E33",
"6 	c #6A8E25",
"7 	c #72952E",
"8 	c #7DA136",
"9 	c #7A9D35",
"0 	c #799C33",
"a 	c #789B33",
"b 	c #7A9F34",
"c 	c #6D9029",
"d 	c #6C8F28",
"e 	c #789A32",
"f 	c #7A9F33",
"g 	c #6E9228",
"h 	c #7FA437",
"i 	c #7BA034",
"j 	c #6F922A",
"k 	c #749A2D",
"l 	c #7CA233",
"m 	c #70932C",
"n 	c #70932B",
"o 	c #7FA436",
"p 	c #7EA336",
"q 	c #6D9128",
"r 	c #779D30",
"s 	c #7DA333",
"t 	c #71952D",
"u 	c #769A30",
"v 	c #74962F",
"w 	c #7BA035",
"x 	c #779C31",
"y 	c #70942B",
"z 	c #73962D",
"A 	c #81A737",
"B 	c #7A9E34",
"C 	c #6C9027",
"D 	c #7BA033",
"E 	c #7B9F34",
"F 	c #74972F",
"G 	c #769930",
"H 	c #799E32",
"I 	c #789B34",
"J 	c #71952C",
"K 	c #82AA36",
"L 	c #799E33",
"M 	c #749730",
"N 	c #749830",
"O 	c #779A31",
"P 	c #7A9E32",
"Q 	c #759A30",
"R 	c #7B9F36",
"S 	c #7BA032",
"T 	c #72962C",
"U 	c #688B23",
"V 	c #6F922B",
"W 	c #759831",
"X 	c #7FA435",
"Y 	c #7C9F35",
"Z 	c #71942D",
"` 	c #7DA234",
" .	c #779B33",
"..	c #6B8E26",
"+.	c #759930",
"@.	c #72962E",
"#.	c #6E9129",
"$.	c #6C9028",
"%.	c #779C2F",
"&.	c #7DA135",
"*.	c #779C30",
"=.	c #85AC39",
"-.	c #7DA036",
";.	c #74982E",
">.	c #73972D",
",.	c #73962F",
"'.	c #72972B",
").	c #70942A",
"!.	c #789C31",
"~.	c #779B32",
"{.	c #779B2F",
"].	c #75992E",
"^.	c #6D9229",
"/.	c #81A738",
"(.	c #779B30",
"_.	c #6C8F27",
":.	c #7EA434",
"<.	c #6B8E25",
"[.	c #71952B",
"}.	c #83A839",
"|.	c #779B31",
"1.	c #688B22",
"2.	c #769B30",
"3.	c #7EA334",
"4.	c #6F9429",
"5.	c #6D9129",
"6.	c #7CA134",
"7.	c #020202",
"8.	c #201818",
"9.	c #302017",
"0.	c #759931",
"a.	c #779A33",
"b.	c #74982F",
"c.	c #769B2E",
"d.	c #73972E",
"e.	c #A06030",
"f.	c #4B2E18",
"g.	c #C8B348",
"h.	c #759A2F",
"i.	c #7A9C35",
"j.	c #7EA337",
"k.	c #789C33",
"l.	c #73972F",
"m.	c #7CA135",
"n.	c #D0C648",
"o.	c #D8D850",
"p.	c #A88040",
"q.	c #D0B848",
"r.	c #785828",
"s.	c #7DA236",
"t.	c #7B9E34",
"u.	c #7CA136",
"v.	c #7DA235",
"w.	c #7FA438",
"x.	c #B38340",
"y.	c #81A538",
"z.	c #6D9028",
"A.	c #83A939",
"B.	c #6A8E26",
"C.	c #74972E",
"D.	c #82A738",
"E.	c #6B8F27",
"F.	c #82A839",
"G.	c #70942C",
"H.	c #82A737",
"I.	c #789B32",
"J.	c #673820",
"K.	c #704027",
"L.	c #704837",
"M.	c #935333",
"N.	c #80A536",
"O.	c #799A39",
"P.	c #83A741",
"Q.	c #759734",
"R.	c #7B9F35",
"S.	c #6E9229",
"T.	c #E08048",
"U.	c #503833",
"V.	c #D0A150",
"W.	c #D08848",
"X.	c #485890",
"Y.	c #759A2E",
"Z.	c #70893E",
"`.	c #949A77",
" +	c #A6AD8A",
".+	c #90957C",
"++	c #929D76",
"@+	c #A0A686",
"#+	c #85985D",
"$+	c #799E30",
"%+	c #D07446",
"&+	c #A85838",
"*+	c #905028",
"=+	c #384888",
"-+	c #5068A0",
";+	c #878780",
">+	c #B0B0B0",
",+	c #888890",
"'+	c #7080A8",
")+	c #2008B0",
"!+	c #7FA337",
"~+	c #81A53B",
"{+	c #878E73",
"]+	c #B6BBB7",
"^+	c #B4B9A9",
"/+	c #A2A58C",
"(+	c #ACADA3",
"_+	c #B6BAAB",
":+	c #A1A78E",
"<+	c #6F912C",
"[+	c #80A438",
"}+	c #815030",
"|+	c #473020",
"1+	c #B8C0C1",
"2+	c #C7C7C6",
"3+	c #608098",
"4+	c #302828",
"5+	c #83AB36",
"6+	c #7A9B38",
"7+	c #868B68",
"8+	c #B5B9B0",
"9+	c #C5C7C5",
"0+	c #A0A094",
"a+	c #A4A59C",
"b+	c #BBBFBC",
"c+	c #A2A894",
"d+	c #72952F",
"e+	c #B06038",
"f+	c #202020",
"g+	c #363631",
"h+	c #B08578",
"i+	c #646060",
"j+	c #8898C0",
"k+	c #535343",
"l+	c #575353",
"m+	c #6780B0",
"n+	c #908888",
"o+	c #946453",
"p+	c #736350",
"q+	c #061830",
"r+	c #74992D",
"s+	c #749731",
"t+	c #788356",
"u+	c #878977",
"v+	c #9CA08F",
"w+	c #7C7A64",
"x+	c #A4AB8B",
"y+	c #C8C9C6",
"z+	c #A7A99E",
"A+	c #7D9846",
"B+	c #749632",
"C+	c #101820",
"D+	c #082040",
"E+	c #B79080",
"F+	c #E7C0B0",
"G+	c #F0D6C7",
"H+	c #B7B7A8",
"I+	c #CBB0A4",
"J+	c #384038",
"K+	c #283878",
"L+	c #84AA38",
"M+	c #798853",
"N+	c #B0B4A6",
"O+	c #B2B6A6",
"P+	c #868570",
"Q+	c #969D7F",
"R+	c #BBBDB5",
"S+	c #9A9D8D",
"T+	c #ACB19E",
"U+	c #828D62",
"V+	c #759732",
"W+	c #604737",
"X+	c #E7B7A1",
"Y+	c #001018",
"Z+	c #615850",
"`+	c #D4A084",
" @	c #D7A797",
".@	c #856357",
"+@	c #929193",
"@@	c #878778",
"#@	c #789D32",
"$@	c #708248",
"%@	c #BFC1BB",
"&@	c #B8BCBA",
"*@	c #9D9D95",
"=@	c #BEC0B0",
"-@	c #C5C8C0",
";@	c #AAAE96",
">@	c #B6BAB5",
",@	c #97A874",
"'@	c #6F932A",
")@	c #A2A1A1",
"!@	c #604840",
"~@	c #685044",
"{@	c #745450",
"]@	c #473730",
"^@	c #9898A0",
"/@	c #7FA536",
"(@	c #799D35",
"_@	c #6D8E2D",
":@	c #98998B",
"<@	c #D4D4D4",
"[@	c #9A9991",
"}@	c #B7BAAF",
"|@	c #B8BCB3",
"1@	c #ACB090",
"2@	c #A3A68E",
"3@	c #899F5D",
"4@	c #769A2F",
"5@	c #083060",
"6@	c #D86828",
"7@	c #504040",
"8@	c #777768",
"9@	c #789B31",
"0@	c #7CA033",
"a@	c #779A36",
"b@	c #949883",
"c@	c #A4A799",
"d@	c #7C7A69",
"e@	c #A5A597",
"f@	c #C6C7BF",
"g@	c #B0B39A",
"h@	c #878D72",
"i@	c #799B37",
"j@	c #86AD3A",
"k@	c #282830",
"l@	c #804828",
"m@	c #98A098",
"n@	c #74844E",
"o@	c #BBBEB6",
"p@	c #B5B9A9",
"q@	c #9B9B92",
"r@	c #818369",
"s@	c #9DA190",
"t@	c #868A7F",
"u@	c #779447",
"v@	c #F89840",
"w@	c #6A8D25",
"x@	c #7D9947",
"y@	c #99A17B",
"z@	c #BABBB7",
"A@	c #BDBFB9",
"B@	c #A6A59D",
"C@	c #A3A78D",
"D@	c #B4B8A7",
"E@	c #AEB2A2",
"F@	c #6D893C",
"G@	c #799C32",
"H@	c #A4A498",
"I@	c #887870",
"J@	c #769B2F",
"K@	c #74953B",
"L@	c #A0A697",
"M@	c #B9BEBA",
"N@	c #B4B7B3",
"O@	c #CBCCCB",
"P@	c #8D8E7A",
"Q@	c #A7A99B",
"R@	c #B5BAAA",
"S@	c #B0B4A7",
"T@	c #738D3F",
"U@	c #B7A295",
"V@	c #799B33",
"W@	c #98A38C",
"X@	c #BEC1C0",
"Y@	c #B6B8AF",
"Z@	c #A5A99A",
"`@	c #898A7A",
" #	c #9C9E90",
".#	c #AAAD9F",
"+#	c #95A083",
"@#	c #769831",
"##	c #839E56",
"$#	c #ABAEA3",
"%#	c #A1A592",
"&#	c #B6BAAA",
"*#	c #A1A098",
"=#	c #75903F",
"-#	c #7CA037",
";#	c #769932",
">#	c #151008",
",#	c #B08068",
"'#	c #73982E",
")#	c #72824B",
"!#	c #C3C5BE",
"~#	c #BABDB9",
"{#	c #9AA18B",
"]#	c #84AB39",
"^#	c #75982F",
"/#	c #85AB39",
"(#	c #F0E7E3",
"_#	c #C29485",
":#	c #987858",
"<#	c #181010",
"[#	c #82A739",
"}#	c #748E40",
"|#	c #9AA388",
"1#	c #94A47D",
"2#	c #7CA039",
"3#	c #988077",
"4#	c #4060F8",
"5#	c #E0B8B0",
"6#	c #83AA35",
"7#	c #7EA235",
"8#	c #6C9026",
"9#	c #886048",
"0#	c #759B2E",
"a#	c #80A537",
"b#	c #779D2F",
"  . + @ # $ % & * = - ; > , ' ) ! ~ { @ ~ ] ^ / ( _ : < [ } | 1 ",
"2 3 4 ! ^ 5 6 2 7 8 9 0 a b % ( c 1 d ^ e f g ( + h 9 } + i % j ",
"k l m 5 7 8 n $ # @ n o 7 p q % r s t u v w * ] x y z A + B C # ",
"D ~ v E F + < G H 5 I . ^ J : K L ~ ^ G M N 9 O P Q ' 5 ^ ( 9 l ",
"8 F < O < m R S T N < F U V W X Y M 9 F < Z < ` T ^  .  ..Z W p ",
"> 5 F _ h F + +.D u ^ 5 5 @.#.$.%.5 + &.= M 4 M f f W ~ i M @ q ",
": = g *.~ G =.-.^ $ ;.~ >.F ,.[ ' = '.).!.~.o _ ! _ {.f ].+   . ",
"^.+.] /.(.' ] } 7 _.].:.<.* [.~...+ ] }.|.' R |.Z 1.2.3.4.4 [.5 ",
"5.T ~.W 6.# #.6.G 5 ^ 7.T H 8.].9.7.0.a.i |.b.P G G { j c.% b.6.",
",.8 : ~.+ d.(.( W |.' 7.e.e.e.f.g.] 7.+ G h.u ( F E i.J ' j.x ^ ",
"k.l.F p M 8 V m.= N @ 7.n.o.p.q.o.r.g._ F _ n ] 8   ( s.7 t.+ u.",
"v.j.V ~ < - { : w.v.x.n.o.o.o.o.o.o.x.9.7.- ,.Y y.} ^ i ^ z.9 F ",
"3 A.F d.{ B.C.D.~ * e.o.o.o.o.o.o.o.q.p.W E.,.F.f ( < t { n G.1 ",
"[.h ! 2.H.I.z.{ J.K.L.q.o.o.o.o.o.q.q.M.N.b.,.W 8 6.0 j.p O.P.Q.",
"j ~.8 R.` S.< 9.T.T.x.U.V.o.W.o.V.q.X.J.6.z.a f R - Y.|.Z.`. +.+",
"++@+#+$+> u i K.%+&+*+=+-+;+>+,+,+'+)+7.d.~.+.!+< n 8 ~+{+]+^+/+",
"(+_+:+<+5 [+8.}+e.|+|+=+X.1+2+2+2+3+=+4+)+8 ^ 5+( u.9 6+7+8+9+0+",
"a+b+c+d+l.u f.T.e+f+g+h+i+j+k+l+m+n+o+p+)+q+r+n { 8 9 s+t+u+v+w+",
"x+y+z+A+B+] 9.*+e.J.C+D+E+2+F+G+H+I+J+J+f.K+J B |.l.>.L+M+N+O+P+",
"Q+R+S+T+U+V+W+X+H+7.Y+K+Z+`+X+X+ @.@+@+@@@L.9 G [ |.9 #@$@%@&@*@",
"=@-@;@>@,@'@- h+E+  9 q+)@!@~@{@]@^@l+l+~@e+;+/@%.F (@! _@:@<@[@",
"}@|@1@2@3@% } ^ 7.4@F 5@~@&+6@l+)@l+)+7@;+8@f.o+9@0@( [ a@b@c@d@",
"e@f@g@h@i@+.j@_ ^ p >.9.J.K.J.K.k@l@k@e+K.m@>+@@l+] 4@H n@o@p@q@",
"r@s@t@u@v.- j.D #.j )+e.v@T.%+K.&+6@f.6@T.T.6@J..@w@D x@y@z@A@B@",
"C@D@E@F@|.H E.G@+.i )+H@>+>+>+I@6@T.f.}+4+*+T.e.7.J@K@L@M@N@O@P@",
"Q@R@S@T@F >.|.y + O k@H@U@U@H@]@e+6@J.e.e+6@M.*+F E V@W@X@Y@Z@`@",
" #.#+#] @#$ l.&.h + 9.T.v@v@e+4+|+|+|+J.6@v@6@9.8 { ( ##$#%#&#*#",
"=#-#V (.< a ;#9 -.~ >#6@T.T.e.8.O _ |+,#W+K.*+7.= '#{ |.)#!#~#{#",
"` ]#  @.W ..^#D.H t < J.}+}+J.7.H /#~@(#_#:#<#[## y < G.}#|#1#2#",
"> w.^ u ]#O c { !+. < f.3#4#>#{ 1 h M 5#K.f.,.+ $ !.< _ o e 6#~ ",
"N f R.v.;.  k.|.- 7#8#~@X+9#+ ~.7 E = 7.b.,.a |.- w ).v.d.N W d.",
"@.V v.0#*.F &.h 9 7 j.a#|+>#~ >.+ G.s.b#J@+.|.j.< 7 = a#1 - H J@"};
