/* XPM */
static char * naruto_run_front_6_xpm[] = {
"32 32 400 2",
"  	c #7A9F32",
". 	c #83A939",
"+ 	c #74972F",
"@ 	c #73972E",
"# 	c #769931",
"$ 	c #6A8E26",
"% 	c #74972E",
"& 	c #82A738",
"* 	c #799D32",
"= 	c #72962D",
"- 	c #799C34",
"; 	c #72952D",
"> 	c #70942C",
", 	c #7CA234",
"' 	c #789C32",
") 	c #759830",
"! 	c #769A31",
"~ 	c #759831",
"{ 	c #6B8F27",
"] 	c #73962F",
"^ 	c #82A839",
"/ 	c #7A9F33",
"( 	c #71942C",
"_ 	c #71952D",
": 	c #70932B",
"< 	c #799E31",
"[ 	c #71952B",
"} 	c #7FA437",
"| 	c #769B30",
"1 	c #82A737",
"2 	c #789B32",
"3 	c #6D9028",
"4 	c #7EA237",
"5 	c #7B9F34",
"6 	c #789C33",
"7 	c #7FA337",
"8 	c #7B9F35",
"9 	c #82A838",
"0 	c #769A2F",
"a 	c #72952E",
"b 	c #7BA033",
"c 	c #80A536",
"d 	c #74982F",
"e 	c #7DA136",
"f 	c #7CA134",
"g 	c #799C33",
"h 	c #7EA337",
"i 	c #7EA336",
"j 	c #799A39",
"k 	c #83A741",
"l 	c #759734",
"m 	c #6F922A",
"n 	c #779B32",
"o 	c #7DA234",
"p 	c #6E9229",
"q 	c #7B9E36",
"r 	c #70952A",
"s 	c #75992F",
"t 	c #7CA034",
"u 	c #779B31",
"v 	c #6D9129",
"w 	c #789C31",
"x 	c #80A538",
"y 	c #789B33",
"z 	c #7B9F36",
"A 	c #7B9E35",
"B 	c #759A2E",
"C 	c #70893E",
"D 	c #949A77",
"E 	c #A6AD8A",
"F 	c #90957C",
"G 	c #929D76",
"H 	c #A0A686",
"I 	c #85985D",
"J 	c #799E30",
"K 	c #74982D",
"L 	c #769A30",
"M 	c #7BA034",
"N 	c #72962C",
"O 	c #7A9D34",
"P 	c #789B31",
"Q 	c #7CA035",
"R 	c #7BA032",
"S 	c #759930",
"T 	c #81A53B",
"U 	c #878E73",
"V 	c #B6BBB7",
"W 	c #B4B9A9",
"X 	c #A2A58C",
"Y 	c #ACADA3",
"Z 	c #B6BAAB",
"` 	c #A1A78E",
" .	c #6F912C",
"..	c #7A9E33",
"+.	c #80A438",
"@.	c #83AA37",
"#.	c #7FA438",
"$.	c #7A9D35",
"%.	c #70942A",
"&.	c #779A32",
"*.	c #6F932B",
"=.	c #789D32",
"-.	c #83AB36",
";.	c #7CA136",
">.	c #7A9B38",
",.	c #868B68",
"'.	c #B5B9B0",
").	c #C5C7C5",
"!.	c #A0A094",
"~.	c #A4A59C",
"{.	c #BBBFBC",
"].	c #A2A894",
"^.	c #72952F",
"/.	c #73972F",
"(.	c #6C9026",
"_.	c #7C9F36",
":.	c #7A9F34",
"<.	c #70932C",
"[.	c #749830",
"}.	c #74992D",
"|.	c #749731",
"1.	c #788356",
"2.	c #878977",
"3.	c #9CA08F",
"4.	c #7C7A64",
"5.	c #A4AB8B",
"6.	c #C8C9C6",
"7.	c #A7A99E",
"8.	c #7D9846",
"9.	c #749632",
"0.	c #71942D",
"a.	c #75992E",
"b.	c #7FA635",
"c.	c #71952C",
"d.	c #7A9E34",
"e.	c #73972D",
"f.	c #84AA38",
"g.	c #798853",
"h.	c #B0B4A6",
"i.	c #B2B6A6",
"j.	c #868570",
"k.	c #969D7F",
"l.	c #BBBDB5",
"m.	c #9A9D8D",
"n.	c #ACB19E",
"o.	c #828D62",
"p.	c #759732",
"q.	c #7A9E35",
"r.	c #82A836",
"s.	c #749730",
"t.	c #769930",
"u.	c #789D31",
"v.	c #708248",
"w.	c #BFC1BB",
"x.	c #B8BCBA",
"y.	c #9D9D95",
"z.	c #BEC0B0",
"A.	c #C5C8C0",
"B.	c #AAAE96",
"C.	c #B6BAB5",
"D.	c #97A874",
"E.	c #6F932A",
"F.	c #73962E",
"G.	c #6A8D25",
"H.	c #020202",
"I.	c #302017",
"J.	c #201818",
"K.	c #6F922B",
"L.	c #7FA536",
"M.	c #779C2F",
"N.	c #799D35",
"O.	c #6D8E2D",
"P.	c #98998B",
"Q.	c #D4D4D4",
"R.	c #9A9991",
"S.	c #B7BAAF",
"T.	c #B8BCB3",
"U.	c #ACB090",
"V.	c #A3A68E",
"W.	c #899F5D",
"X.	c #799D33",
"Y.	c #7A9E32",
"Z.	c #6E922A",
"`.	c #C8B348",
" +	c #4B2E18",
".+	c #A06030",
"++	c #769932",
"@+	c #7CA033",
"#+	c #779A36",
"$+	c #949883",
"%+	c #A4A799",
"&+	c #7C7A69",
"*+	c #A5A597",
"=+	c #C6C7BF",
"-+	c #B0B39A",
";+	c #878D72",
">+	c #799B37",
",+	c #86AD3A",
"'+	c #7CA036",
")+	c #785828",
"!+	c #D8D850",
"~+	c #D0B848",
"{+	c #A88040",
"]+	c #D0C648",
"^+	c #80A537",
"/+	c #799E32",
"(+	c #74844E",
"_+	c #BBBEB6",
":+	c #B5B9A9",
"<+	c #9B9B92",
"[+	c #818369",
"}+	c #9DA190",
"|+	c #868A7F",
"1+	c #779447",
"2+	c #7DA235",
"3+	c #6E9129",
"4+	c #B38340",
"5+	c #7DA137",
"6+	c #779C31",
"7+	c #6C9028",
"8+	c #7D9947",
"9+	c #99A17B",
"0+	c #BABBB7",
"a+	c #BDBFB9",
"b+	c #A6A59D",
"c+	c #A3A78D",
"d+	c #B4B8A7",
"e+	c #AEB2A2",
"f+	c #6D893C",
"g+	c #799C32",
"h+	c #72962E",
"i+	c #769B2F",
"j+	c #74953B",
"k+	c #A0A697",
"l+	c #B9BEBA",
"m+	c #B4B7B3",
"n+	c #CBCCCB",
"o+	c #8D8E7A",
"p+	c #A7A99B",
"q+	c #B5BAAA",
"r+	c #B0B4A7",
"s+	c #738D3F",
"t+	c #70942B",
"u+	c #779A31",
"v+	c #935333",
"w+	c #704837",
"x+	c #704027",
"y+	c #673820",
"z+	c #799B33",
"A+	c #98A38C",
"B+	c #BEC1C0",
"C+	c #B6B8AF",
"D+	c #A5A99A",
"E+	c #898A7A",
"F+	c #9C9E90",
"G+	c #AAAD9F",
"H+	c #95A083",
"I+	c #769831",
"J+	c #7EA236",
"K+	c #7DA135",
"L+	c #485890",
"M+	c #D0A150",
"N+	c #D08848",
"O+	c #503833",
"P+	c #E08048",
"Q+	c #839E56",
"R+	c #ABAEA3",
"S+	c #A1A592",
"T+	c #B6BAAA",
"U+	c #A1A098",
"V+	c #75903F",
"W+	c #7CA037",
"X+	c #779B30",
"Y+	c #7DA036",
"Z+	c #74992F",
"`+	c #2008B0",
" @	c #7080A8",
".@	c #888890",
"+@	c #B0B0B0",
"@@	c #878780",
"#@	c #5068A0",
"$@	c #384888",
"%@	c #905028",
"&@	c #A85838",
"*@	c #D07446",
"=@	c #73982E",
"-@	c #72824B",
";@	c #C3C5BE",
">@	c #BABDB9",
",@	c #9AA18B",
"'@	c #84AB39",
")@	c #6B8E26",
"!@	c #75982F",
"~@	c #302828",
"{@	c #608098",
"]@	c #C7C7C6",
"^@	c #B8C0C1",
"/@	c #473020",
"(@	c #815030",
"_@	c #748E40",
":@	c #9AA388",
"<@	c #94A47D",
"[@	c #7CA039",
"}@	c #6D9029",
"|@	c #061830",
"1@	c #736350",
"2@	c #946453",
"3@	c #908888",
"4@	c #6780B0",
"5@	c #575353",
"6@	c #535343",
"7@	c #8898C0",
"8@	c #646060",
"9@	c #B08578",
"0@	c #363631",
"a@	c #202020",
"b@	c #B06038",
"c@	c #7FA436",
"d@	c #789A32",
"e@	c #83AA35",
"f@	c #74982E",
"g@	c #7EA235",
"h@	c #283878",
"i@	c #384038",
"j@	c #CBB0A4",
"k@	c #B7B7A8",
"l@	c #F0D6C7",
"m@	c #E7C0B0",
"n@	c #B79080",
"o@	c #082040",
"p@	c #101820",
"q@	c #759B2E",
"r@	c #779C30",
"s@	c #878778",
"t@	c #929193",
"u@	c #856357",
"v@	c #D7A797",
"w@	c #E7B7A1",
"x@	c #D4A084",
"y@	c #615850",
"z@	c #001018",
"A@	c #604737",
"B@	c #6E912A",
"C@	c #7B9F33",
"D@	c #82A936",
"E@	c #685044",
"F@	c #9898A0",
"G@	c #473730",
"H@	c #745450",
"I@	c #604840",
"J@	c #A2A1A1",
"K@	c #799D34",
"L@	c #6A8E25",
"M@	c #777768",
"N@	c #504040",
"O@	c #D86828",
"P@	c #083060",
"Q@	c #6E9228",
"R@	c #749A2D",
"S@	c #7CA233",
"T@	c #98A098",
"U@	c #282830",
"V@	c #804828",
"W@	c #7BA035",
"X@	c #73962D",
"Y@	c #81A737",
"Z@	c #6C9027",
"`@	c #74962F",
" #	c #F89840",
".#	c #759A30",
"+#	c #887870",
"@#	c #A4A498",
"##	c #779B33",
"$#	c #B7A295",
"%#	c #6D9128",
"&#	c #85AC39",
"*#	c #779B2F",
"=#	c #6D9229",
"-#	c #81A738",
";#	c #B08068",
">#	c #151008",
",#	c #688B22",
"'#	c #7EA334",
")#	c #6F9429",
"!#	c #181010",
"~#	c #987858",
"{#	c #C29485",
"]#	c #F0E7E3",
"^#	c #769B2E",
"/#	c #E0B8B0",
"(#	c #4060F8",
"_#	c #988077",
":#	c #759A2F",
"<#	c #7A9C35",
"[#	c #7CA135",
"}#	c #886048",
"|#	c #7DA236",
"1#	c #7B9E34",
"2#	c #7C9F35",
"3#	c #81A538",
"  . + @ # $ % & * = - ; + > > , ' . ) ! ~ { ] ^ / ( - _ # : > < ",
"[ } ! | 1 2 3 # 4 5 6 7 8 - 9 + 0 } a b c d ] ~ e f g h i j k l ",
"m n e 8 o p - 5 q e r s t # u f v w x ' f 3 y / z A B u C D E F ",
"G H I J K L M 7 - ( e & N O P = # ( Q R @ n S 7 - : e T U V W X ",
"Y Z `  ...+.0 @.> #.$.$.= M - %.&.* + *.=.e &.-.( ;.$.>.,.'.).!.",
"~.{.].^./.L (.( ~ _.A + d u :.p <.' v [.+ s }.: # e $.|.1.2.3.4.",
"5.6.7.8.9.Q _ 5 ..0.0.1 ) Q { ! a.b.: L ) _.c.d.u /.e.f.g.h.i.j.",
"k.l.m.n.o.p.$.[.' 5 - w y : q.r.' ' &.L + s.$.t.u.u $.=.v.w.x.y.",
"z.A.B.C.D.E.A i B F.$.&.G.<.H.I.7 J.- S H.K.- L.M.+ N.! O.P.Q.R.",
"S.T.U.V.W.s X.&.u 0 + Y.L H.Z.`. +.+.+.+H.! ! ++P @+( u.#+$+%+&+",
"*+=+-+;+>+S ,+'+&.i e.w e.`.)+!+~+{+!+]+H.2 ^+e t.Q 0 /+(+_+:+<+",
"[+}+|+1+2+A h b 3+m b H.I.4+!+!+!+!+!+!+]+4+5+6+7+G.b 8+9+0+a+b+",
"c+d+e+f+u /+{ g+S M s.0.{+~+!+!+!+!+!+!+!+.+h+u # i+j+k+l+m+n+o+",
"p+q+r+s++ e.u t+) u+$.> v+~+~+!+!+!+!+!+~+w+x+y++ 5 z+A+B+C+D+E+",
"F+G+H+Q I+J+/.K+} ) <.X.y+L+~+M+!+N+!+M+O+4+P+P+I.# ( Q+R+S+T+U+",
"V+W+K.X+- y ++$.Y+* a Z+H.`+ @.@.@+@@@#@$@%@&@*@x+=@# u -@;@>@,@",
"o '@F.h+~ )@!@& /+_ - `+~@$@{@]@]@]@^@L+$@/@/@.+(@J.- > _@:@<@[@",
"K #.&.L '@u+}@# 7 ' |@`+1@2@3@4@5@6@7@8@9@0@a@b@P+ +- '+c@d@e@* ",
"[./ 8 2+f@F.6 u A g@h@ +i@i@j@k@l@m@]@n@o@p@y+.+%@I.%.2+@ [.~ @ ",
"h+K.2+q@r@+ K+} $.a w+s@t@t@u@v@w@w@x@y@h@z@H.k@w@A@4 ^+< A /+i+",
"F.' ) B@C@J+s D@= @@b@E@5@5@F@G@H@E@I@J@|@Q &.n@9@'+q.- u.X.K@< ",
"*.  ; ! &...L@*.2@ +M@@@N@`+5@J@5@O@&@E@P@/ Q@H.) } $.X.) M s m ",
"R@S@<...a e : 5@s@+@T@x+b@U@V@U@x+y+x+y+I.W@= Q 6+t+X@Y@) d.Z@C@",
"b * `@5 + ) - u@y+O@P+P+O@ +O@&@x+*@P+ #.+`+$.u+Y..#O ..&.( $.S@",
"e + - u+- <.z H..+P+%@~@(@ +P+O@+#+@+@+@@#`+- o N &.##F.)@0.~ i ",
"K ..+ '+} + ) S %@v+O@b@.+y+O@b@G@@#$#$#@#U@; s./ / ~ * M s.B@%#",
"q.4 Q@r@* t.&#Y+I.O@ #O@y+/@/@/@~@b@ # #P+I.c@'+! '+*#/ a.) F.' ",
"=#S Q -#X+O Q X.H.%@x+A@;#/@[ n J..+P+P+O@>#z u 0.,#| '#)#; [ ..",
"v N n ~ f C@3+f t.!#~#{#]#E@) a.H.y+(@(@y+u d Y.t.t.# m ^#s d f ",
"] e q.n ) @ X+( ~ u  +x+/#e u ] # >#(#_# +:#L ( + 5 <#c.O h 6+&.",
"6 /.+ i s.e K.[#4 [.B@W@H.t ) '+w /.}#w@E@'+: Q e F.( |#a 1#) ;.",
"2+h K.* - A # q.#.2+~ ..# E.$.2 r@7 >#/@- A ] 2#3#X.&.M &.3 $.+ "};
