/* XPM */
static char * naruto_run_front_3_xpm[] = {
"32 32 402 2",
"  	c #7DA136",
". 	c #74972F",
"+ 	c #799C34",
"@ 	c #779A31",
"# 	c #70932C",
"$ 	c #7B9F36",
"% 	c #7BA032",
"& 	c #72962C",
"* 	c #749830",
"= 	c #688B23",
"- 	c #6F922B",
"; 	c #759831",
"> 	c #7FA435",
", 	c #7C9F35",
"' 	c #749730",
") 	c #7A9D35",
"! 	c #71942D",
"~ 	c #7DA234",
"{ 	c #779A32",
"] 	c #779B33",
"^ 	c #73962E",
"/ 	c #6B8E26",
"( 	c #7EA336",
"_ 	c #74982D",
": 	c #7A9E33",
"< 	c #7CA036",
"[ 	c #7FA437",
"} 	c #759830",
"| 	c #759930",
"1 	c #7BA033",
"2 	c #769A30",
"3 	c #72962E",
"4 	c #6E9129",
"5 	c #6C9028",
"6 	c #779C2F",
"7 	c #7DA135",
"8 	c #7EA237",
"9 	c #72952D",
"0 	c #7A9F33",
"a 	c #799D32",
"b 	c #7BA034",
"c 	c #6E912A",
"d 	c #6D9128",
"e 	c #7A9E35",
"f 	c #6E9228",
"g 	c #779C30",
"h 	c #769930",
"i 	c #85AC39",
"j 	c #7DA036",
"k 	c #7EA236",
"l 	c #74982E",
"m 	c #73972D",
"n 	c #73962F",
"o 	c #789D31",
"p 	c #7A9D34",
"q 	c #72972B",
"r 	c #70942A",
"s 	c #789C31",
"t 	c #779B32",
"u 	c #7FA436",
"v 	c #769A31",
"w 	c #779B2F",
"x 	c #75992E",
"y 	c #789C32",
"z 	c #6D9229",
"A 	c #7CA035",
"B 	c #81A738",
"C 	c #779B30",
"D 	c #799D33",
"E 	c #72952E",
"F 	c #6C8F27",
"G 	c #7EA434",
"H 	c #6B8E25",
"I 	c #72962D",
"J 	c #71952B",
"K 	c #83A839",
"L 	c #779B31",
"M 	c #688B22",
"N 	c #769B30",
"O 	c #7EA334",
"P 	c #6F9429",
"Q 	c #6D9129",
"R 	c #7CA134",
"S 	c #7B9F33",
"T 	c #799E32",
"U 	c #70942C",
"V 	c #759931",
"W 	c #779A33",
"X 	c #74982F",
"Y 	c #7A9E32",
"Z 	c #769931",
"` 	c #6F922A",
" .	c #769B2E",
"..	c #75992F",
"+.	c #73972E",
"@.	c #71942C",
"#.	c #759A2F",
"$.	c #7B9F34",
"%.	c #7A9C35",
"&.	c #71952C",
"*.	c #7EA337",
"=.	c #779C31",
"-.	c #789C33",
";.	c #73972F",
">.	c #7CA135",
",.	c #7BA035",
"'.	c #7CA034",
").	c #70932B",
"!.	c #7DA236",
"~.	c #7B9E34",
"{.	c #7CA136",
"].	c #7DA235",
"^.	c #7B9E35",
"/.	c #7FA438",
"(.	c #6F932A",
"_.	c #789B32",
":.	c #7FA337",
"<.	c #81A538",
"[.	c #6D9028",
"}.	c #7A9F32",
"|.	c #83A939",
"1.	c #6A8E26",
"2.	c #74972E",
"3.	c #82A738",
"4.	c #020202",
"5.	c #302017",
"6.	c #201818",
"7.	c #6B8F27",
"8.	c #82A839",
"9.	c #71952D",
"0.	c #799E31",
"a.	c #82A737",
"b.	c #7B9F35",
"c.	c #82A838",
"d.	c #C8B348",
"e.	c #4B2E18",
"f.	c #A06030",
"g.	c #799C33",
"h.	c #799A39",
"i.	c #83A741",
"j.	c #759734",
"k.	c #6E9229",
"l.	c #7B9E36",
"m.	c #70952A",
"n.	c #785828",
"o.	c #D8D850",
"p.	c #D0B848",
"q.	c #A88040",
"r.	c #D0C648",
"s.	c #789B33",
"t.	c #759A2E",
"u.	c #70893E",
"v.	c #949A77",
"w.	c #A6AD8A",
"x.	c #90957C",
"y.	c #929D76",
"z.	c #A0A686",
"A.	c #85985D",
"B.	c #799E30",
"C.	c #B38340",
"D.	c #81A53B",
"E.	c #878E73",
"F.	c #B6BBB7",
"G.	c #B4B9A9",
"H.	c #A2A58C",
"I.	c #ACADA3",
"J.	c #B6BAAB",
"K.	c #A1A78E",
"L.	c #6F912C",
"M.	c #80A438",
"N.	c #769A2F",
"O.	c #83AA37",
"P.	c #83AB36",
"Q.	c #7A9B38",
"R.	c #868B68",
"S.	c #B5B9B0",
"T.	c #C5C7C5",
"U.	c #A0A094",
"V.	c #A4A59C",
"W.	c #BBBFBC",
"X.	c #A2A894",
"Y.	c #72952F",
"Z.	c #6C9026",
"`.	c #7C9F36",
" +	c #935333",
".+	c #704837",
"++	c #704027",
"@+	c #673820",
"#+	c #749731",
"$+	c #788356",
"%+	c #878977",
"&+	c #9CA08F",
"*+	c #7C7A64",
"=+	c #A4AB8B",
"-+	c #C8C9C6",
";+	c #A7A99E",
">+	c #7D9846",
",+	c #749632",
"'+	c #485890",
")+	c #D0A150",
"!+	c #D08848",
"~+	c #503833",
"{+	c #E08048",
"]+	c #84AA38",
"^+	c #798853",
"/+	c #B0B4A6",
"(+	c #B2B6A6",
"_+	c #868570",
":+	c #969D7F",
"<+	c #BBBDB5",
"[+	c #9A9D8D",
"}+	c #ACB19E",
"|+	c #828D62",
"1+	c #759732",
"2+	c #2008B0",
"3+	c #7080A8",
"4+	c #888890",
"5+	c #B0B0B0",
"6+	c #878780",
"7+	c #5068A0",
"8+	c #384888",
"9+	c #905028",
"0+	c #A85838",
"a+	c #D07446",
"b+	c #789D32",
"c+	c #708248",
"d+	c #BFC1BB",
"e+	c #B8BCBA",
"f+	c #9D9D95",
"g+	c #BEC0B0",
"h+	c #C5C8C0",
"i+	c #AAAE96",
"j+	c #B6BAB5",
"k+	c #97A874",
"l+	c #302828",
"m+	c #608098",
"n+	c #C7C7C6",
"o+	c #B8C0C1",
"p+	c #473020",
"q+	c #815030",
"r+	c #799D35",
"s+	c #6D8E2D",
"t+	c #98998B",
"u+	c #D4D4D4",
"v+	c #9A9991",
"w+	c #B7BAAF",
"x+	c #B8BCB3",
"y+	c #ACB090",
"z+	c #A3A68E",
"A+	c #899F5D",
"B+	c #061830",
"C+	c #736350",
"D+	c #946453",
"E+	c #908888",
"F+	c #6780B0",
"G+	c #575353",
"H+	c #535343",
"I+	c #8898C0",
"J+	c #646060",
"K+	c #B08578",
"L+	c #363631",
"M+	c #202020",
"N+	c #B06038",
"O+	c #779A36",
"P+	c #949883",
"Q+	c #A4A799",
"R+	c #7C7A69",
"S+	c #A5A597",
"T+	c #C6C7BF",
"U+	c #B0B39A",
"V+	c #878D72",
"W+	c #799B37",
"X+	c #86AD3A",
"Y+	c #283878",
"Z+	c #384038",
"`+	c #CBB0A4",
" @	c #B7B7A8",
".@	c #F0D6C7",
"+@	c #E7C0B0",
"@@	c #B79080",
"#@	c #082040",
"$@	c #101820",
"%@	c #74844E",
"&@	c #BBBEB6",
"*@	c #B5B9A9",
"=@	c #9B9B92",
"-@	c #818369",
";@	c #9DA190",
">@	c #868A7F",
",@	c #779447",
"'@	c #878778",
")@	c #929193",
"!@	c #856357",
"~@	c #D7A797",
"{@	c #E7B7A1",
"]@	c #D4A084",
"^@	c #615850",
"/@	c #001018",
"(@	c #604737",
"_@	c #7D9947",
":@	c #99A17B",
"<@	c #BABBB7",
"[@	c #BDBFB9",
"}@	c #A6A59D",
"|@	c #A3A78D",
"1@	c #B4B8A7",
"2@	c #AEB2A2",
"3@	c #6D893C",
"4@	c #799C32",
"5@	c #685044",
"6@	c #9898A0",
"7@	c #473730",
"8@	c #745450",
"9@	c #604840",
"0@	c #A2A1A1",
"a@	c #769B2F",
"b@	c #74953B",
"c@	c #A0A697",
"d@	c #B9BEBA",
"e@	c #B4B7B3",
"f@	c #CBCCCB",
"g@	c #8D8E7A",
"h@	c #A7A99B",
"i@	c #B5BAAA",
"j@	c #B0B4A7",
"k@	c #738D3F",
"l@	c #70942B",
"m@	c #777768",
"n@	c #504040",
"o@	c #D86828",
"p@	c #083060",
"q@	c #799B33",
"r@	c #98A38C",
"s@	c #BEC1C0",
"t@	c #B6B8AF",
"u@	c #A5A99A",
"v@	c #898A7A",
"w@	c #9C9E90",
"x@	c #AAAD9F",
"y@	c #95A083",
"z@	c #769831",
"A@	c #98A098",
"B@	c #282830",
"C@	c #804828",
"D@	c #839E56",
"E@	c #ABAEA3",
"F@	c #A1A592",
"G@	c #B6BAAA",
"H@	c #A1A098",
"I@	c #75903F",
"J@	c #7CA037",
"K@	c #769932",
"L@	c #F89840",
"M@	c #73982E",
"N@	c #72824B",
"O@	c #C3C5BE",
"P@	c #BABDB9",
"Q@	c #9AA18B",
"R@	c #84AB39",
"S@	c #75982F",
"T@	c #887870",
"U@	c #A4A498",
"V@	c #82A739",
"W@	c #748E40",
"X@	c #9AA388",
"Y@	c #94A47D",
"Z@	c #7CA039",
"`@	c #6D9029",
" #	c #B7A295",
".#	c #789A32",
"+#	c #83AA35",
"@#	c #759B2E",
"##	c #B08068",
"$#	c #151008",
"%#	c #80A537",
"&#	c #82A936",
"*#	c #181010",
"=#	c #987858",
"-#	c #C29485",
";#	c #F0E7E3",
">#	c #81A835",
",#	c #799D34",
"'#	c #6F932B",
")#	c #6A8E25",
"!#	c #E0B8B0",
"~#	c #7A9F34",
"{#	c #4060F8",
"]#	c #988077",
"^#	c #749A2D",
"/#	c #7CA233",
"(#	c #779D30",
"_#	c #7DA333",
":#	c #886048",
"<#	c #73962D",
"[#	c #81A737",
"}#	c #7A9E34",
"|#	c #6C9027",
"1#	c #74962F",
"2#	c #789B34",
"3#	c #82AA36",
"4#	c #799E33",
"5#	c #759A30",
"  . + @ + # $ % & * + . = - ; > , ' ) . + ! + ~ & { ] ^ / ! ; ( ",
"_ : . < [ . } | 1 2 { : : 3 4 5 6 : } 7 8 ' 9 ' 0 0 ; a b ' c d ",
"e 8 f g a h i j { k l a m . n o p 8 q r s t u < v < w 0 x } ^ y ",
"z | A B C p A D E F x G H I J t / } A K L p $ L ! M N O P 9 J : ",
"Q & t ; R S 4 R h : { - & T } x U & V W b L X Y h h Z `  ...X R ",
"n   e t } +.C @.; L p @.e   L n Z A ) } h #.2 @.. $.%.&.p *.=.{ ",
"-.;.. ( '   - >.8 * c ,.E '.} < s ;.;.< . < ).A   ^ @.!.E ~.} {.",
"].*.- a + ^.Z e /.].; : Z (.) _.g :.. r + ^.n , <.D { b { [.) . ",
"}.|.. +.Z 1.2.3.a I + 9 . U 4.5.y 6.} v 4.7.n 8.0 @.+ 9.Z ).U 0.",
"J [ v N a._.[.Z 8 $.-.:.b.4.c.d.e.f.f.f.4.X n ;   R g.*.( h.i.j.",
"` t   b.~ k.+ $.l.  m...'.d.n.o.p.q.o.r.4.[.s.0 $ ^.t.L u.v.w.x.",
"y.z.A.B._ 2 b :.+ @.  4.5.C.o.o.o.o.o.o.r.C.| :.+ ).  D.E.F.G.H.",
"I.J.K.L.: M.N.O.U /.) ) q.p.o.o.o.o.o.o.o.f.{ P.@.{.) Q.R.S.T.U.",
"V.W.X.Y.;.2 Z.@.; `.^..  +p.p.o.o.o.o.o.p..+++@+Z   ) #+$+%+&+*+",
"=+-+;+>+,+A 9.$.: ! ! a.@+'+p.)+o.!+o.)+~+C.{+{+5.;.m ]+^+/+(+_+",
":+<+[+}+|+1+) * y $.+ s 4.2+3+4+4+5+6+7+8+9+0+a+++L ) b+c+d+e+f+",
"g+h+i+j+k+(.^.( t.^ ) 2+l+8+m+n+n+n+o+'+8+p+p+f.q+6.r+v s+t+u+v+",
"w+x+y+z+A+..D { L N.B+2+C+D+E+F+G+H+I+J+K+L+M+N+{+e.@.o O+P+Q+R+",
"S+T+U+V+W+| X+< { ( Y+e.Z+Z+`+ @.@+@n+@@#@$@@+f.9+5.N.T %@&@*@=@",
"-@;@>@,@].^.*.1 4 ` .+'@)@)@!@~@{@{@]@^@Y+/@4. @{@(@1 _@:@<@[@}@",
"|@1@2@3@L T 7.4@| 6+N+5@G+G+6@7@8@5@9@0@B+a@3 @@K+a@b@c@d@e@f@g@",
"h@i@j@k@. m L l@D+e.m@6+n@2+G+0@G+o@0+5@p@x =.4.. $.q@r@s@t@u@v@",
"w@x@y@A z@k ;.G+'@5+A@++N+B@C@B@++@+++@+5.< | $.  Z @.D@E@F@G@H@",
"I@J@- C + s.K@!@@+o@{+{+o@e.o@0+++a+{+L@f.2+} $ 8 M@Z L N@O@P@Q@",
"~ R@^ 3 ; / S@4.f.{+9+l+q+e.{+o@T@5+5+5+U@2+. V@S l@+ U W@X@Y@Z@",
"_ /.{ 2 R@@ `@Z 9+ +o@N+f.@+o@N+7@U@ # #U@B@n } k s + < u .#+#a ",
"* 0 b.].l ^ -.L 5.o@L@o@@+p+p+p+l+N+L@L@{+5.s.L ^.,.r ].+.* ; +.",
"3 - ].@#g . 7 [ 4.9+++(@##p+a m 6.f.{+{+o@$#L *.+ E 8 %#0.^.T a@",
"^ y } c S k ..&#I *#=#-#;#5@p m.4.@+q+q+@+A { >#@.< e + o D ,#0.",
"'#}.9 v { : )#'#E   e.++!#~#..@.`@$#{#]#e.0 f @.} [ ) D } b ..` ",
"^#/## : E   ).k S c ).u 4.( d ..(#_#:#{@5@,.I A =.l@<#[#} }#|#S ",
"1 a 1#$.. } + h T : 2#y { &.e 3#4#a $#p+' * ) @ Y 5#p : { @.) /#"};
