/* XPM */
static char * naruto_look_back_xpm[] = {
"32 32 315 2",
"  	c None",
". 	c #395575",
"+ 	c #C59E3B",
"@ 	c #316291",
"# 	c #BD7B3F",
"$ 	c #7F6B7A",
"% 	c #9A602C",
"& 	c #C6B747",
"* 	c #7D5C27",
"= 	c #DADB51",
"- 	c #C59A45",
"; 	c #D6C24E",
"> 	c #C6C547",
", 	c #343341",
"' 	c #D19E4A",
") 	c #D7D34F",
"! 	c #D8D850",
"~ 	c #D8D750",
"{ 	c #D6D64F",
"] 	c #CDC94B",
"^ 	c #925D38",
"/ 	c #BA9C3A",
"( 	c #D6C44E",
"_ 	c #D6D750",
": 	c #B9B946",
"< 	c #D5C34D",
"[ 	c #826B78",
"} 	c #B06E31",
"| 	c #D5BA4B",
"1 	c #D4CA4E",
"2 	c #000E6B",
"3 	c #C1C146",
"4 	c #D7CB4F",
"5 	c #D8D650",
"6 	c #D29849",
"7 	c #63749C",
"8 	c #523512",
"9 	c #7D4F9C",
"0 	c #D3C84D",
"a 	c #3444B6",
"b 	c #4058D2",
"c 	c #C08241",
"d 	c #D6D74F",
"e 	c #BF8B48",
"f 	c #573C31",
"g 	c #9D621F",
"h 	c #427CB4",
"i 	c #2E43D1",
"j 	c #845960",
"k 	c #6B4700",
"l 	c #1D079D",
"m 	c #82562C",
"n 	c #69410F",
"o 	c #2C49C6",
"p 	c #0E1E6E",
"q 	c #7D563C",
"r 	c #231F53",
"s 	c #1C07AD",
"t 	c #2007B2",
"u 	c #273077",
"v 	c #1F0BA8",
"w 	c #1C1290",
"x 	c #916953",
"y 	c #8D6855",
"z 	c #68462C",
"A 	c #8B5852",
"B 	c #251F4F",
"C 	c #201F31",
"D 	c #201F3B",
"E 	c #5C3B42",
"F 	c #72482C",
"G 	c #A37A66",
"H 	c #573510",
"I 	c #9B6538",
"J 	c #9E6438",
"K 	c #262C6F",
"L 	c #251FBA",
"M 	c #9A6531",
"N 	c #A06739",
"O 	c #000E19",
"P 	c #35312E",
"Q 	c #A36835",
"R 	c #6C4223",
"S 	c #384CC7",
"T 	c #89581D",
"U 	c #6C6867",
"V 	c #89695A",
"W 	c #0D0738",
"X 	c #636465",
"Y 	c #BCBCBB",
"Z 	c #E6E4E4",
"` 	c #DDDCDC",
" .	c #DDDCDB",
"..	c #CFCFCF",
"+.	c #A3A2A2",
"@.	c #605756",
"#.	c #1F0AAC",
"$.	c #1E2543",
"%.	c #190B85",
"&.	c #88888F",
"*.	c #C4C4C3",
"=.	c #E1E1E1",
"-.	c #AFA7A4",
";.	c #6F6E6A",
">.	c #1C1376",
",.	c #2008B1",
"'.	c #1E07A6",
").	c #3C237B",
"!.	c #4D494D",
"~.	c #281793",
"{.	c #2B2C99",
"].	c #323B7D",
"^.	c #2E387B",
"/.	c #200BAE",
"(.	c #2008B0",
"_.	c #442C37",
":.	c #784025",
"<.	c #344A6B",
"[.	c #907C74",
"}.	c #B9B7B6",
"|.	c #4A4746",
"1.	c #282698",
"2.	c #3F5FF7",
"3.	c #302FA3",
"4.	c #241D6E",
"5.	c #1E1390",
"6.	c #894E2F",
"7.	c #ED8838",
"8.	c #906348",
"9.	c #442713",
"0.	c #726D6B",
"a.	c #7D5948",
"b.	c #755236",
"c.	c #241DB8",
"d.	c #2C2398",
"e.	c #BB0F00",
"f.	c #8D4A2A",
"g.	c #601475",
"h.	c #613E1E",
"i.	c #92532F",
"j.	c #F28F3B",
"k.	c #A94900",
"l.	c #36506F",
"m.	c #787878",
"n.	c #834B2A",
"o.	c #936B57",
"p.	c #2F241F",
"q.	c #3D2C2F",
"r.	c #633324",
"s.	c #B93420",
"t.	c #CF1812",
"u.	c #75492D",
"v.	c #623F29",
"w.	c #7F4F2F",
"x.	c #BF612C",
"y.	c #9F4800",
"z.	c #345070",
"A.	c #7A7B7B",
"B.	c #D07E60",
"C.	c #545554",
"D.	c #5D3D29",
"E.	c #C8632A",
"F.	c #EA8838",
"G.	c #C05D26",
"H.	c #B85C29",
"I.	c #815030",
"J.	c #623E29",
"K.	c #804F30",
"L.	c #476C9B",
"M.	c #533826",
"N.	c #C28685",
"O.	c #757677",
"P.	c #96563E",
"Q.	c #5B3C29",
"R.	c #C2672E",
"S.	c #F8963F",
"T.	c #FB9A41",
"U.	c #E58236",
"V.	c #7C472A",
"W.	c #151D1F",
"X.	c #5B3922",
"Y.	c #376B9D",
"Z.	c #413237",
"`.	c #BF5F2A",
" +	c #959797",
".+	c #403330",
"++	c #7F4C2D",
"@+	c #525252",
"#+	c #6F6967",
"$+	c #4B362C",
"%+	c #3F2D22",
"&+	c #352520",
"*+	c #382922",
"=+	c #4B2A1B",
"-+	c #34608E",
";+	c #6B3721",
">+	c #DE853A",
",+	c #A5704D",
"'+	c #553425",
")+	c #613C29",
"!+	c #CBA898",
"~+	c #E5C1B2",
"{+	c #5F493E",
"]+	c #1C1F20",
"^+	c #834B2B",
"/+	c #C56229",
"(+	c #784221",
"_+	c #315C88",
":+	c #6FA9EB",
"<+	c #AD816A",
"[+	c #A55632",
"}+	c #B55A28",
"|+	c #5E3C28",
"1+	c #2F2927",
"2+	c #B78E7B",
"3+	c #9B7B6D",
"4+	c #DCAE99",
"5+	c #543520",
"6+	c #D76828",
"7+	c #B85E2C",
"8+	c #9E582F",
"9+	c #2A2151",
"0+	c #080058",
"a+	c #838996",
"b+	c #D6B2A2",
"c+	c #765544",
"d+	c #6A3E26",
"e+	c #72492B",
"f+	c #C59883",
"g+	c #DAAD98",
"h+	c #B38771",
"i+	c #5E3C27",
"j+	c #CE6529",
"k+	c #96532D",
"l+	c #694129",
"m+	c #362825",
"n+	c #1F1099",
"o+	c #6B6081",
"p+	c #BA581E",
"q+	c #D07733",
"r+	c #F2903C",
"s+	c #F89840",
"t+	c #C9702E",
"u+	c #6F4428",
"v+	c #6F452A",
"w+	c #6C442B",
"x+	c #483225",
"y+	c #68422B",
"z+	c #784B2E",
"A+	c #402A5A",
"B+	c #623018",
"C+	c #E88437",
"D+	c #F99A41",
"E+	c #E88739",
"F+	c #D4823A",
"G+	c #D5833B",
"H+	c #A55226",
"I+	c #2C201A",
"J+	c #382316",
"K+	c #6C4227",
"L+	c #825030",
"M+	c #43291B",
"N+	c #444255",
"O+	c #95542E",
"P+	c #DC6D2A",
"Q+	c #94552F",
"R+	c #8D522F",
"S+	c #312621",
"T+	c #663B1B",
"U+	c #804E2E",
"V+	c #7A4C2F",
"W+	c #1B130F",
"X+	c #6F462C",
"Y+	c #7B4C2E",
"Z+	c #73482C",
"`+	c #213954",
" @	c #7E3D1A",
".@	c #DA6928",
"+@	c #CF6529",
"@@	c #A2582D",
"#@	c #2D1F18",
"$@	c #92582B",
"%@	c #5B3625",
"&@	c #1A1E20",
"*@	c #1F1F1F",
"=@	c #0D1012",
"-@	c #1C196A",
";@	c #190B8B",
">@	c #203D5A",
",@	c #0E1772",
"'@	c #10136F",
")@	c #0D102D",
"!@	c #1D1D1D",
"~@	c #202020",
"{@	c #0C0C13",
"]@	c #210FA3",
"^@	c #1D00A4",
"/@	c #B68871",
"(@	c #6149A2",
"_@	c #2212B3",
":@	c #3E5CF3",
"<@	c #2728B8",
"[@	c #151500",
"}@	c #202122",
"|@	c #2B415C",
"1@	c #2B415B",
"2@	c #2A405B",
"3@	c #1D395C",
"4@	c #2E5687",
"5@	c #543626",
"6@	c #2C201B",
"7@	c #1D2A87",
"8@	c #243898",
"9@	c #151672",
"0@	c #1B1300",
"                                                                ",
"                                                                ",
"                          . + @ # $ %                           ",
"                        & * = - - ; >                           ",
"                      , ' ) ! ~ ~ ! { ] ^                       ",
"                      / ( _ : ! ! ! ! < [                       ",
"                      } | 1 2 3 4 ! 5 6 7                       ",
"                      8 9 0 a b c d e f g                       ",
"                      h i j k l m n o p                         ",
"                      q r s t u u v w x                         ",
"                      y z A B C D E F G                         ",
"                        H I J K L M N O                         ",
"                          P Q R S T U V W                       ",
"                        X Y Z `  ...+.@.#.$.                    ",
"                        %.&.*.=.=.-.;.>.,.'.                    ",
"                      ).!.~.{.].].^./.(.t _.:.                  ",
"                    <.[.}.|.1.2.2.3.4.(.5.6.7.                  ",
"                    8.9.0.a.b.c.d.e.f.g.h.i.j.k.                ",
"                    l.m.n.o.p.q.r.s.t.u.v.w.x.y.                ",
"                    z.A.B.C.D.E.F.G.H.I.J.w.K.L.                ",
"                    M.N.O.P.Q.R.S.T.U.V.W.X.Y.                  ",
"                  Z.`. +.+++@+#+$+%+&+*+=+-+                    ",
"                  ;+>+,+'+)+!+~+{+]+^+/+(+_+:+                  ",
"                  <+[+}+|+1+2+3+4+5+6+7+8+9+0+                  ",
"                  a+b+c+d+e+f+g+h+i+j+k+l+m+n+                  ",
"                  o+p+q+r+s+t+u+v+w+x+y+z+w.A+                  ",
"                  B+C+D+E+F+G+H+I+J+K+L+I.I.M+                  ",
"                  N+O+P+Q+R+S+T+U+V+W+X+Y+Z+`+                  ",
"                     @.@+@@@#@$@%@&@*@=@-@;@                    ",
"                    >@,@'@)@!@~@~@~@~@{@]@^@                    ",
"                  /@(@_@:@<@[@~@}@|@1@2@3@4@                    ",
"                  5@6@7@8@9@0@                                  "};
