/* XPM */
static char * kunai_7_xpm[] = {
"32 32 322 2",
"  	c #A3A78D",
". 	c #B4B8A7",
"+ 	c #AEB2A2",
"@ 	c #6D893C",
"# 	c #779B31",
"$ 	c #799E32",
"% 	c #6B8F27",
"& 	c #799C32",
"* 	c #759930",
"= 	c #7BA034",
"- 	c #749730",
"; 	c #71942D",
"> 	c #72962D",
", 	c #769931",
"' 	c #789B32",
") 	c #70942C",
"! 	c #759A2E",
"~ 	c #72952D",
"{ 	c #779A31",
"] 	c #769B2F",
"^ 	c #72962E",
"/ 	c #74953B",
"( 	c #A0A697",
"_ 	c #B9BEBA",
": 	c #B4B7B3",
"< 	c #CBCCCB",
"[ 	c #8D8E7A",
"} 	c #A7A99B",
"| 	c #B5BAAA",
"1 	c #B0B4A7",
"2 	c #738D3F",
"3 	c #74972F",
"4 	c #73972D",
"5 	c #70942B",
"6 	c #759830",
"7 	c #7A9D35",
"8 	c #7A9E35",
"9 	c #7DA136",
"0 	c #789C32",
"a 	c #73962E",
"b 	c #75992E",
"c 	c #779C31",
"d 	c #6F932B",
"e 	c #7B9F34",
"f 	c #799B33",
"g 	c #98A38C",
"h 	c #BEC1C0",
"i 	c #B6B8AF",
"j 	c #A5A99A",
"k 	c #898A7A",
"l 	c #9C9E90",
"m 	c #AAAD9F",
"n 	c #95A083",
"o 	c #7CA035",
"p 	c #769831",
"q 	c #7EA236",
"r 	c #73972F",
"s 	c #7DA135",
"t 	c #7FA437",
"u 	c #70932C",
"v 	c #799D33",
"w 	c #6F922A",
"x 	c #7EA336",
"y 	c #789C33",
"z 	c #7BA033",
"A 	c #769932",
"B 	c #7B9E35",
"C 	c #7CA036",
"D 	c #71942C",
"E 	c #839E56",
"F 	c #ABAEA3",
"G 	c #A1A592",
"H 	c #B6BAAA",
"I 	c #A1A098",
"J 	c #75903F",
"K 	c #7CA037",
"L 	c #6F922B",
"M 	c #779B30",
"N 	c #799C34",
"O 	c #789B33",
"P 	c #7DA036",
"Q 	c #799D32",
"R 	c #72952E",
"S 	c #74992F",
"T 	c #6A8D26",
"U 	c #789B34",
"V 	c #6F9329",
"W 	c #7B9F36",
"X 	c #7EA237",
"Y 	c #73982E",
"Z 	c #72824B",
"` 	c #C3C5BE",
" .	c #BABDB9",
"..	c #9AA18B",
"+.	c #7DA234",
"@.	c #84AB39",
"#.	c #759831",
"$.	c #6B8E26",
"%.	c #75982F",
"&.	c #82A738",
"*.	c #71952D",
"=.	c #71952C",
"-.	c #71932C",
";.	c #7DA335",
">.	c #85AB39",
",.	c #82A739",
"'.	c #7B9F33",
").	c #748E40",
"!.	c #9AA388",
"~.	c #94A47D",
"{.	c #7CA039",
"].	c #74982D",
"^.	c #7FA438",
"/.	c #779A32",
"(.	c #769A30",
"_.	c #6D9029",
":.	c #7FA337",
"<.	c #7A9D34",
"[.	c #84AA38",
"}.	c #799E31",
"|.	c #7A9F33",
"1.	c #82A837",
"2.	c #73962F",
"3.	c #789C31",
"4.	c #7FA436",
"5.	c #789A32",
"6.	c #83AA35",
"7.	c #749830",
"8.	c #7B9F35",
"9.	c #7DA235",
"0.	c #74982E",
"a.	c #7EA235",
"b.	c #6C9026",
"c.	c #779B32",
"d.	c #74982F",
"e.	c #7BA035",
"f.	c #70942A",
"g.	c #73972E",
"h.	c #759B2E",
"i.	c #779C30",
"j.	c #7EA337",
"k.	c #80A537",
"l.	c #769A2F",
"m.	c #7DA236",
"n.	c #779D2F",
"o.	c #FFFFFF",
"p.	c #6E912A",
"q.	c #75992F",
"r.	c #82A936",
"s.	c #7A9C34",
"t.	c #7CA034",
"u.	c #70952A",
"v.	c #769A31",
"w.	c #789D31",
"x.	c #799D34",
"y.	c #7A9F32",
"z.	c #7A9E33",
"A.	c #6A8E25",
"B.	c #799C33",
"C.	c #7A9F34",
"D.	c #6C8F28",
"E.	c #6E9228",
"F.	c #749A2D",
"G.	c #7CA233",
"H.	c #70932B",
"I.	c #FFDE73",
"J.	c #74962F",
"K.	c #FF7321",
"L.	c #73962D",
"M.	c #81A737",
"N.	c #7A9E34",
"O.	c #6C9027",
"P.	c #769930",
"Q.	c #CE1000",
"R.	c #7A9E32",
"S.	c #759A30",
"T.	c #7BA032",
"U.	c #72962C",
"V.	c #7FA435",
"W.	c #7C9F35",
"X.	c #779B33",
"Y.	c #6E9129",
"Z.	c #6C9028",
"`.	c #6D9128",
" +	c #85AC39",
".+	c #779B2F",
"++	c #6D9229",
"@+	c #81A738",
"#+	c #6C8F27",
"$+	c #6B8E25",
"%+	c #688B22",
"&+	c #769B30",
"*+	c #7EA334",
"=+	c #6F9429",
"-+	c #71952B",
";+	c #6D9129",
">+	c #7CA134",
",+	c #759931",
"'+	c #779A33",
")+	c #769B2E",
"!+	c #7A9C35",
"~+	c #7CA135",
"{+	c #7B9E34",
"]+	c #7CA136",
"^+	c #6F932A",
"/+	c #81A538",
"(+	c #6D9028",
"_+	c #83A939",
":+	c #6A8E26",
"<+	c #74972E",
"[+	c #7CA234",
"}+	c #82A839",
"|+	c #82A737",
"1+	c #799A39",
"2+	c #83A741",
"3+	c #759734",
"4+	c #6E9229",
"5+	c #70893E",
"6+	c #949A77",
"7+	c #A6AD8A",
"8+	c #90957C",
"9+	c #929D76",
"0+	c #A0A686",
"a+	c #85985D",
"b+	c #799E30",
"c+	c #789B31",
"d+	c #81A53B",
"e+	c #878E73",
"f+	c #B6BBB7",
"g+	c #B4B9A9",
"h+	c #A2A58C",
"i+	c #ACADA3",
"j+	c #B6BAAB",
"k+	c #A1A78E",
"l+	c #6F912C",
"m+	c #80A438",
"n+	c #83AA37",
"o+	c #789D32",
"p+	c #83AB36",
"q+	c #7A9B38",
"r+	c #868B68",
"s+	c #B5B9B0",
"t+	c #C5C7C5",
"u+	c #A0A094",
"v+	c #A4A59C",
"w+	c #BBBFBC",
"x+	c #A2A894",
"y+	c #72952F",
"z+	c #7C9F36",
"A+	c #74992D",
"B+	c #749731",
"C+	c #788356",
"D+	c #878977",
"E+	c #9CA08F",
"F+	c #7C7A64",
"G+	c #A4AB8B",
"H+	c #C8C9C6",
"I+	c #A7A99E",
"J+	c #7D9846",
"K+	c #749632",
"L+	c #7FA635",
"M+	c #798853",
"N+	c #B0B4A6",
"O+	c #B2B6A6",
"P+	c #868570",
"Q+	c #969D7F",
"R+	c #BBBDB5",
"S+	c #9A9D8D",
"T+	c #ACB19E",
"U+	c #828D62",
"V+	c #759732",
"W+	c #82A836",
"X+	c #708248",
"Y+	c #BFC1BB",
"Z+	c #B8BCBA",
"`+	c #9D9D95",
" @	c #BEC0B0",
".@	c #C5C8C0",
"+@	c #AAAE96",
"@@	c #B6BAB5",
"#@	c #97A874",
"$@	c #6A8D25",
"%@	c #7DA333",
"&@	c #7FA536",
"*@	c #779C2F",
"=@	c #799D35",
"-@	c #6D8E2D",
";@	c #98998B",
">@	c #D4D4D4",
",@	c #9A9991",
"'@	c #B7BAAF",
")@	c #B8BCB3",
"!@	c #ACB090",
"~@	c #A3A68E",
"{@	c #899F5D",
"]@	c #6E922A",
"^@	c #7CA033",
"/@	c #779A36",
"(@	c #949883",
"_@	c #A4A799",
":@	c #7C7A69",
"<@	c #A5A597",
"[@	c #C6C7BF",
"}@	c #B0B39A",
"|@	c #878D72",
"1@	c #799B37",
"2@	c #86AD3A",
"3@	c #72972B",
"4@	c #74844E",
"5@	c #BBBEB6",
"6@	c #B5B9A9",
"7@	c #9B9B92",
"8@	c #818369",
"9@	c #9DA190",
"0@	c #868A7F",
"a@	c #779447",
"b@	c #7DA137",
"c@	c #7D9947",
"d@	c #99A17B",
"e@	c #BABBB7",
"f@	c #BDBFB9",
"g@	c #A6A59D",
"  . + @ # $ % & * = - ; > = , ' ) ! ~ , { ] ^ # , ] / ( _ : < [ ",
"} | 1 2 3 4 # 5 6 { 7 ) 8 9 0 a , 9 7 - 6 b c d 3 e f g h i j k ",
"l m n o p q r s t 6 u v w x y o z A , B 6 C * e 9 , D E F G H I ",
"J K L M N O A 7 P Q R S O T U y { C r V N O 6 W X Y , # Z `  ...",
"+.@.a ^ #.$.%.&.$ *.N =.^ ) -.;.$ >.- 6 - % 3 ,.'.5 N ) ).!.~.{.",
"].^./.(.@.{ _., :.0 N P o <.[., }.t - |.1.~ 2.6 q 3.N C 4.5.6.Q ",
"7.|.8.9.0.a y # B a.b.= (.R 6 c.R e X Q d.2.O # B e.f.9.g.7.#.g.",
"^ L 9.h.i.3 s t 7 R j.k.l.B Q 4 6 ) m.n.] * # o.N R X k.}.B $ ] ",
"a 0 6 p.'.q q.r.> X B s.].t.<.u.v.Q , p.Q o o.o.o.C 8 N w.v x.}.",
"d y.~ v./.z.A.d R 9 7 B.O C.q.D _.}.D./.5.|.E.o.6 t 7 v 6 = q.w ",
"F.G.u z.R 9 H.q '.p.H.4.R x I.I.I.I.I.I.J.e.I.K.c 5 L.M.6 N.O.'.",
"z Q J.e 3 6 N P.$ z.U 0 /.I.K.K.Q.Q.Q.Q.K.I.K.Q.R.S.<.z./.D 7 G.",
"9 3 N { N u W T.U.7.N 3 I.K.Q.V.W.- 7 3 Q.K.Q.+.U./.X.a $.; #.x ",
"].z.3 C t 3 6 * z (./.I.K.^ Y.Z.I.I.I.s X Q.~ - |.|.#.Q = - p.`.",
"8 X E.i.Q P. +P /.q 0.I.Q.3 2.I.K.K.K.Q.3.c.4.C v.C .+|.b 6 a 0 ",
"++* o @+M <.o v R #+I.K.$+> I.K.Q.6 o K.Q.<.W # ; %+&+*+=+~ -+z.",
";+U.c.#.>+'.Y.>+P.z.I.Q.U.$ I.K.) U.,+'+K.Q.d.R.P.P., w )+q.d.>+",
"2.9 8 c.6 g.M D #.# I.Q.8 9 I.K., I.K.6 K.Q.(.D 3 e !+=.<.j.c /.",
"y r 3 x - 9 L ~+X I.K.K.Q.t.6 Q.K.K.K.C K.Q.H.o 9 a D m.R {+6 ]+",
"9.j.L Q N B , 8 ^.I.K.K.Q.^+7 ' Q.Q.3 f.K.Q.2.W./+v /.= /.(+7 3 ",
"y._+3 g., :+<+&.Q I.K.~ K.Q.) [+0 _+6 I.K.Q.2.}+|.D N *., H.) }.",
"-+t v.&+|+' (+, I.K.K.K.K.K.K.I.I.I.I.K.Q.d.2.#.9 >+B.j.x 1+2+3+",
"w c.9 8.+.4+N e K.Q.Q.Q.Q.Q.Q.Q.Q.Q.Q.Q.>+(+O |.W B ! # 5+6+7+8+",
"9+0+a+b+].(.= :.N D 9 &.U.<.c+> , D o T.g.c.* :.N H.9 d+e+f+g+h+",
"i+j+k+l+z.m+l.n+) ^.7 7 > = N f./.Q 3 d o+9 /.p+D ]+7 q+r+s+t+u+",
"v+w+x+y+r (.b.D #.z+B 3 d.# C.4+u 0 ;+7.3 q.A+H., 9 7 B+C+D+E+F+",
"G+H+I+J+K+o *.e z.; ; |+6 o % v.b L+H.(.6 z+=.N.# r 4 [.M+N+O+P+",
"Q+R+S+T+U+V+7 7.0 e N 3.O H.8 W+0 0 /.(.3 - 7 P.w.# 7 o+X+Y+Z+`+",
" @.@+@@@#@^+B x ! a 7 /.$@u 3 %@:.' N * N L N &@*@3 =@v.-@;@>@,@",
"'@)@!@~@{@q.v /.# l.3 R.(.6 ]@) ].$ #.x C v.v.A c+^@D w./@(@_@:@",
"<@[@}@|@1@* 2@C /.x 4 3.4 3 a w.<.X 3@f.c ' k.9 P.o l.$ 4@5@6@7@",
"8@9@0@a@9.B j.z Y.w z y.=+`.&+M :+r :.t ~+B b@c Z.$@z c@d@e@f@g@"};
