/* XPM */
static char * ngl_xpm[] = {
"32 32 600 2",
"  	c #A3A78D",
". 	c #B4B8A7",
"+ 	c #AEB2A2",
"@ 	c #6D893C",
"# 	c #779B31",
"$ 	c #799E32",
"% 	c #6B8F27",
"& 	c #799C32",
"* 	c #759930",
"= 	c #7BA034",
"- 	c #749730",
"; 	c #71942D",
"> 	c #72962D",
", 	c #769931",
"' 	c #789B32",
") 	c #70942C",
"! 	c #759A2E",
"~ 	c #72952D",
"{ 	c #779A31",
"] 	c #769B2F",
"^ 	c #72962E",
"/ 	c #74953B",
"( 	c #A0A697",
"_ 	c #B9BEBA",
": 	c #B4B7B3",
"< 	c #CBCCCB",
"[ 	c #8D8E7A",
"} 	c #A7A99B",
"| 	c #B5BAAA",
"1 	c #B0B4A7",
"2 	c #738D3F",
"3 	c #74972F",
"4 	c #73972D",
"5 	c #70942B",
"6 	c #759830",
"7 	c #7A9D35",
"8 	c #7A9E35",
"9 	c #365174",
"0 	c #9A6D47",
"a 	c #73962E",
"b 	c #B3743A",
"c 	c #4E83BE",
"d 	c #3F4358",
"e 	c #75992E",
"f 	c #779C31",
"g 	c #6F932B",
"h 	c #7B9F34",
"i 	c #799B33",
"j 	c #98A38C",
"k 	c #BEC1C0",
"l 	c #B6B8AF",
"m 	c #A5A99A",
"n 	c #898A7A",
"o 	c #9C9E90",
"p 	c #AAAD9F",
"q 	c #95A083",
"r 	c #7CA035",
"s 	c #769831",
"t 	c #7EA236",
"u 	c #73972F",
"v 	c #7DA135",
"w 	c #7FA437",
"x 	c #70932C",
"y 	c #814700",
"z 	c #9FA45D",
"A 	c #223948",
"B 	c #DAD050",
"C 	c #9A6127",
"D 	c #BC7B40",
"E 	c #C29E3F",
"F 	c #C4AF44",
"G 	c #7B9E35",
"H 	c #7CA036",
"I 	c #7DA136",
"J 	c #71942C",
"K 	c #839E56",
"L 	c #ABAEA3",
"M 	c #A1A592",
"N 	c #B6BAAA",
"O 	c #A1A098",
"P 	c #75903F",
"Q 	c #7CA037",
"R 	c #6F922B",
"S 	c #779B30",
"T 	c #799C34",
"U 	c #789B33",
"V 	c #769932",
"W 	c #7DA036",
"X 	c #799D32",
"Y 	c #72952E",
"Z 	c #246699",
"` 	c #D19E4A",
" .	c #D4B24C",
"..	c #D8D950",
"+.	c #D7D04F",
"@.	c #D8D850",
"#.	c #CCCC4B",
"$.	c #7D7D25",
"%.	c #5C3200",
"&.	c #7B9F36",
"*.	c #7EA237",
"=.	c #73982E",
"-.	c #72824B",
";.	c #C3C5BE",
">.	c #BABDB9",
",.	c #9AA18B",
"'.	c #7DA234",
").	c #84AB39",
"!.	c #759831",
"~.	c #6B8E26",
"{.	c #75982F",
"].	c #82A738",
"^.	c #71952D",
"/.	c #B2743B",
"(.	c #C68545",
"_.	c #D2A34A",
":.	c #CDA249",
"<.	c #82A739",
"[.	c #7B9F33",
"}.	c #748E40",
"|.	c #9AA388",
"1.	c #94A47D",
"2.	c #7CA039",
"3.	c #74982D",
"4.	c #7FA438",
"5.	c #779A32",
"6.	c #769A30",
"7.	c #6D9029",
"8.	c #130089",
"9.	c #150077",
"0.	c #1E1F1C",
"a.	c #B78F42",
"b.	c #D7D14F",
"c.	c #D8D450",
"d.	c #B0833F",
"e.	c #82A837",
"f.	c #73962F",
"g.	c #789C31",
"h.	c #7FA436",
"i.	c #789A32",
"j.	c #83AA35",
"k.	c #749830",
"l.	c #7A9F33",
"m.	c #7B9F35",
"n.	c #7DA235",
"o.	c #74982E",
"p.	c #789C33",
"q.	c #335F8B",
"r.	c #180096",
"s.	c #31216E",
"t.	c #B7783D",
"u.	c #BC7A3F",
"v.	c #D7CD4F",
"w.	c #D9D650",
"x.	c #D2994A",
"y.	c #D9DB51",
"z.	c #D1BC4B",
"A.	c #B4753E",
"B.	c #8D6C6A",
"C.	c #7BA035",
"D.	c #70942A",
"E.	c #73972E",
"F.	c #759B2E",
"G.	c #779C30",
"H.	c #244272",
"I.	c #201C83",
"J.	c #2F219A",
"K.	c #BD8744",
"L.	c #A17341",
"M.	c #5C5638",
"N.	c #5C4434",
"O.	c #676844",
"P.	c #8A807A",
"Q.	c #767779",
"R.	c #7EA337",
"S.	c #80A537",
"T.	c #799E31",
"U.	c #789C32",
"V.	c #6E912A",
"W.	c #75992F",
"X.	c #82A936",
"Y.	c #376897",
"Z.	c #14007E",
"`.	c #23339F",
" +	c #2F46BA",
".+	c #2E4BCC",
"++	c #314BD2",
"@+	c #3043C9",
"#+	c #959593",
"$+	c #D5D5D5",
"%+	c #DADAD9",
"&+	c #585755",
"*+	c #81A835",
"=+	c #789D31",
"-+	c #799D33",
";+	c #799D34",
">+	c #7A9F32",
",+	c #769A31",
"'+	c #7A9E33",
")+	c #6A8E25",
"!+	c #0E085E",
"~+	c #1B009A",
"{+	c #A26A35",
"]+	c #76503B",
"^+	c #644C47",
"/+	c #11009B",
"(+	c #324BD0",
"_+	c #818190",
":+	c #9092A8",
"<+	c #59443C",
"[+	c #6E9228",
"}+	c #6F922A",
"|+	c #749A2D",
"1+	c #7CA233",
"2+	c #70932B",
"3+	c #060929",
"4+	c #5396DB",
"5+	c #482E08",
"6+	c #765E54",
"7+	c #DFAF98",
"8+	c #C5A944",
"9+	c #976F55",
"0+	c #997462",
"a+	c #B0B2BE",
"b+	c #CBA08C",
"c+	c #74962F",
"d+	c #73962D",
"e+	c #81A737",
"f+	c #7A9E34",
"g+	c #6C9027",
"h+	c #7BA033",
"i+	c #769930",
"j+	c #4C85C0",
"k+	c #949391",
"l+	c #6D6D6D",
"m+	c #6E4E3D",
"n+	c #88542F",
"o+	c #D3A38C",
"p+	c #F0D5CA",
"q+	c #F5ECE8",
"r+	c #D7AA95",
"s+	c #7A9E32",
"t+	c #759A30",
"u+	c #7A9D34",
"v+	c #7BA032",
"w+	c #72962C",
"x+	c #304E6F",
"y+	c #9B9A9A",
"z+	c #CACAC9",
"A+	c #BDBCBC",
"B+	c #5C5B5B",
"C+	c #3B271D",
"D+	c #976C56",
"E+	c #9F7560",
"F+	c #4A5069",
"G+	c #779B33",
"H+	c #7EA336",
"I+	c #20209E",
"J+	c #3D3B82",
"K+	c #626369",
"L+	c #ABAAAC",
"M+	c #E4E4E4",
"N+	c #C0C0BF",
"O+	c #BF8E71",
"P+	c #BB5C50",
"Q+	c #224682",
"R+	c #6D9128",
"S+	c #85AC39",
"T+	c #15008D",
"U+	c #3140D3",
"V+	c #4161FA",
"W+	c #3E5CF4",
"X+	c #1C12B7",
"Y+	c #696885",
"Z+	c #B4B4B3",
"`+	c #848383",
" @	c #80401D",
".@	c #1E1C3D",
"+@	c #779B32",
"@@	c #779B2F",
"#@	c #6D9229",
"$@	c #81A738",
"%@	c #1A1A59",
"&@	c #3751D9",
"*@	c #3E5CF3",
"=@	c #4061F9",
"-@	c #2829BF",
";@	c #2008AF",
">@	c #200F9F",
",@	c #452E20",
"'@	c #B75E2C",
")@	c #2A211A",
"!@	c #83A839",
"~@	c #688B22",
"{@	c #769B30",
"]@	c #7EA334",
"^@	c #6F9429",
"/@	c #71952B",
"(@	c #6D9129",
"_@	c #7CA134",
":@	c #6E9129",
"<@	c #B66C13",
"[@	c #C66027",
"}@	c #58301F",
"|@	c #25259C",
"1@	c #292CC0",
"2@	c #2212B3",
"3@	c #2008B0",
"4@	c #2009AD",
"5@	c #412B50",
"6@	c #78462A",
"7@	c #884E2C",
"8@	c #DC8134",
"9@	c #74982F",
"0@	c #769B2E",
"a@	c #314460",
"b@	c #E78E3E",
"c@	c #F6953E",
"d@	c #BA632E",
"e@	c #422F1E",
"f@	c #1F1E43",
"g@	c #071284",
"h@	c #021184",
"i@	c #2A1F78",
"j@	c #37291E",
"k@	c #5E3D29",
"l@	c #8B522F",
"m@	c #A55125",
"n@	c #A4785D",
"o@	c #759A2F",
"p@	c #7A9C35",
"q@	c #71952C",
"r@	c #CB6428",
"s@	c #EB8637",
"t@	c #CD662A",
"u@	c #C96329",
"v@	c #0C1D20",
"w@	c #593826",
"x@	c #CC6429",
"y@	c #DC712D",
"z@	c #CB6429",
"A@	c #5B3826",
"B@	c #B35C2B",
"C@	c #462F24",
"D@	c #A6775F",
"E@	c #E9CFC4",
"F@	c #7DA236",
"G@	c #7B9E34",
"H@	c #7CA136",
"I@	c #95522A",
"J@	c #F08C3A",
"K@	c #BA5F2C",
"L@	c #4F3526",
"M@	c #593927",
"N@	c #9A562E",
"O@	c #ED8939",
"P@	c #F89840",
"Q@	c #ED8838",
"R@	c #96542E",
"S@	c #522E21",
"T@	c #2D2421",
"U@	c #584136",
"V@	c #7C5237",
"W@	c #7C9F35",
"X@	c #81A538",
"Y@	c #6D9028",
"Z@	c #83A939",
"`@	c #6A8E26",
" #	c #74972E",
".#	c #64494C",
"+#	c #B15A2C",
"@#	c #BF7236",
"##	c #4B2B1F",
"$#	c #442D21",
"%#	c #623F2A",
"&#	c #9B4C25",
"*#	c #B4662D",
"=#	c #9B4D25",
"-#	c #312722",
";#	c #6F472D",
">#	c #513624",
",#	c #82A839",
"'#	c #82A737",
")#	c #3C4664",
"!#	c #E08037",
"~#	c #BE612D",
"{#	c #B3846D",
"]#	c #AB8776",
"^#	c #442F25",
"/#	c #8D522E",
"(#	c #5D3221",
"_#	c #593122",
":#	c #5E3322",
"<#	c #D76828",
"[#	c #D66728",
"}#	c #74423C",
"|#	c #80A536",
"1#	c #799C33",
"2#	c #799A39",
"3#	c #83A741",
"4#	c #759734",
"5#	c #6E9229",
"6#	c #412501",
"7#	c #774A2E",
"8#	c #E4D8D3",
"9#	c #6E5346",
"0#	c #754A2E",
"a#	c #CE662A",
"b#	c #F2903C",
"c#	c #D66829",
"d#	c #A85A2D",
"e#	c #D96828",
"f#	c #D86828",
"g#	c #CB642A",
"h#	c #564C5B",
"i#	c #70893E",
"j#	c #949A77",
"k#	c #A6AD8A",
"l#	c #90957C",
"m#	c #929D76",
"n#	c #A0A686",
"o#	c #85985D",
"p#	c #799E30",
"q#	c #7FA337",
"r#	c #8C6146",
"s#	c #E4D0C8",
"t#	c #000000",
"u#	c #9F7F74",
"v#	c #D79A76",
"w#	c #E3905A",
"x#	c #CE7C38",
"y#	c #7D482A",
"z#	c #7D4F31",
"A#	c #5D3400",
"B#	c #81A53B",
"C#	c #878E73",
"D#	c #B6BBB7",
"E#	c #B4B9A9",
"F#	c #A2A58C",
"G#	c #ACADA3",
"H#	c #B6BAAB",
"I#	c #A1A78E",
"J#	c #6F912C",
"K#	c #80A438",
"L#	c #769A2F",
"M#	c #83AA37",
"N#	c #4A382E",
"O#	c #999998",
"P#	c #EEEEEE",
"Q#	c #F2F2F2",
"R#	c #BAB7B6",
"S#	c #312A28",
"T#	c #232120",
"U#	c #66412A",
"V#	c #875130",
"W#	c #814E2E",
"X#	c #140000",
"Y#	c #83AB36",
"Z#	c #7A9B38",
"`#	c #868B68",
" $	c #B5B9B0",
".$	c #C5C7C5",
"+$	c #A0A094",
"@$	c #A4A59C",
"#$	c #BBBFBC",
"$$	c #A2A894",
"%$	c #72952F",
"&$	c #6C9026",
"*$	c #27557E",
"=$	c #B85C2A",
"-$	c #DE966F",
";$	c #E6A076",
">$	c #DE9E8B",
",$	c #B1B2B2",
"'$	c #242525",
")$	c #664028",
"!$	c #825030",
"~$	c #815030",
"{$	c #6E4D82",
"]$	c #74992D",
"^$	c #749731",
"/$	c #788356",
"($	c #878977",
"_$	c #9CA08F",
":$	c #7C7A64",
"<$	c #A4AB8B",
"[$	c #C8C9C6",
"}$	c #A7A99E",
"|$	c #7D9846",
"1$	c #749632",
"2$	c #592E1A",
"3$	c #BC612C",
"4$	c #ED8938",
"5$	c #F99940",
"6$	c #F99840",
"7$	c #AB531F",
"8$	c #161312",
"9$	c #000204",
"0$	c #4B2F1F",
"a$	c #1C234D",
"b$	c #7469CA",
"c$	c #CD9D83",
"d$	c #7C9F36",
"e$	c #84AA38",
"f$	c #798853",
"g$	c #B0B4A6",
"h$	c #B2B6A6",
"i$	c #868570",
"j$	c #969D7F",
"k$	c #BBBDB5",
"l$	c #9A9D8D",
"m$	c #ACB19E",
"n$	c #828D62",
"o$	c #759732",
"p$	c #703418",
"q$	c #9B562E",
"r$	c #B45D2C",
"s$	c #DB6C2A",
"t$	c #9C5A2F",
"u$	c #2A1915",
"v$	c #202020",
"w$	c #1F1F1F",
"x$	c #1D1E28",
"y$	c #2B1F28",
"z$	c #3C373F",
"A$	c #789D32",
"B$	c #708248",
"C$	c #BFC1BB",
"D$	c #B8BCBA",
"E$	c #9D9D95",
"F$	c #BEC0B0",
"G$	c #C5C8C0",
"H$	c #AAAE96",
"I$	c #B6BAB5",
"J$	c #97A874",
"K$	c #6F932A",
"L$	c #41281B",
"M$	c #A0582E",
"N$	c #D27935",
"O$	c #CA6227",
"P$	c #542F1A",
"Q$	c #1B1D1D",
"R$	c #1F1B13",
"S$	c #7FA536",
"T$	c #779C2F",
"U$	c #799D35",
"V$	c #6D8E2D",
"W$	c #98998B",
"X$	c #D4D4D4",
"Y$	c #9A9991",
"Z$	c #B7BAAF",
"`$	c #B8BCB3",
" %	c #ACB090",
".%	c #A3A68E",
"+%	c #899F5D",
"@%	c #281A0F",
"#%	c #323D96",
"$%	c #673E76",
"%%	c #06151A",
"&%	c #1E1E1E",
"*%	c #1F1B12",
"=%	c #27374B",
"-%	c #789B31",
";%	c #7CA033",
">%	c #779A36",
",%	c #949883",
"'%	c #A4A799",
")%	c #7C7A69",
"!%	c #A5A597",
"~%	c #C6C7BF",
"{%	c #B0B39A",
"]%	c #878D72",
"^%	c #799B37",
"/%	c #86AD3A",
"(%	c #563E32",
"_%	c #AF837C",
":%	c #986A5F",
"<%	c #110D0C",
"[%	c #293D54",
"}%	c #72972B",
"|%	c #74844E",
"1%	c #BBBEB6",
"2%	c #B5B9A9",
"3%	c #9B9B92",
"4%	c #818369",
"5%	c #9DA190",
"6%	c #868A7F",
"7%	c #779447",
"8%	c #84675A",
"9%	c #715446",
"0%	c #2E4C6D",
"a%	c #7CA135",
"b%	c #7DA137",
"c%	c #6C9028",
"d%	c #6A8D25",
"e%	c #7D9947",
"f%	c #99A17B",
"g%	c #BABBB7",
"h%	c #BDBFB9",
"i%	c #A6A59D",
"  . + @ # $ % & * = - ; > = , ' ) ! ~ , { ] ^ # , ] / ( _ : < [ ",
"} | 1 2 3 4 # 5 6 { 7 ) 8 9 0 a b c d - 6 e f g 3 h i j k l m n ",
"o p q r s t u v w 6 x y z A B C D E F G 6 H * h I , J K L M N O ",
"P Q R S T U V 7 W X Y Z `  ...+.+.@.#.$.%.U 6 &.*.=., # -.;.>.,.",
"'.).a ^ !.~.{.].$ ^./.(._.@.@.@.@.@.@.:.- % 3 <.[.5 T ) }.|.1.2.",
"3.4.5.6.).{ 7., 8.9.0.a.b.b.@.@...@.c.d.e.~ f.6 t g.T H h.i.j.X ",
"k.l.m.n.o.a p.# q.r.s.t.u.v.+.w.x.y.z.A.B.f.U # G C.D.n.E.k.!.E.",
"^ R n.F.G.3 v w 7 Y H.I.J.K.L.M.N.O.P.Q.] * # R.T Y *.S.T.G $ ] ",
"a U.6 V.[.t W.X.> Y.Z.`. +.+++@+#+$+%+&+X r 5.*+J H 8 T =+-+;+T.",
"g >+~ ,+5.'+)+g Y !+~+{+]+^+/+(+_+:+<+5.i.l.[+J 6 w 7 -+6 = W.}+",
"|+1+x '+Y I 2+t [.3+4+5+6+7+8+9+0+a+b+6.c+C.> r f 5 d+e+6 f+g+[.",
"h+X c+h 3 6 T i+$ '+j+k+l+m+n+o+p+q+r+i+- k.7 { s+t+u+'+5.J 7 1+",
"I 3 T { T x &.v+w+k.x+y+z+A+B+C+D+E+F+3 T ; T '.w+5.G+a ~.; !.H+",
"3.'+3 H w 3 6 * h+6.I+J+K+L+%+M+N+O+P+Q+*.- ~ - l.l.!.X = - V.R+",
"8 *.[+G.X i+S+W 5.T+U+V+W+X+Y+Z+`+ @.@D.g.+@h.H ,+H @@l.e 6 a U.",
"#@* r $@S u+r -+Y %@&@*@=@-@;@>@,@'@)@!@# u+&.# ; ~@{@]@^@~ /@'+",
"(@w++@!._@[.:@_@<@[@}@|@1@2@3@4@5@6@7@8@= # 9@s+i+i+, }+0@W.9@_@",
"f.I 8 +@6 E.S a@b@c@d@e@f@g@h@i@j@k@l@m@n@o@6.J 3 h p@q@u+R.f 5.",
"p.u 3 H+- I R r@s@t@u@v@w@x@y@z@A@B@C@D@E@H 2+r I a J F@Y G@6 H@",
"n.R.R X T G , I@J@K@L@M@N@O@P@Q@R@S@T@U@V@G f.W@X@-+5.= 5.Y@7 3 ",
">+Z@3 E., `@ #.#+#@###$#%#&#*#=#-#;#>#,+!.% f.,#l.J T ^., 2+) T.",
"/@w ,+{@'#' Y@)#!#~#{#]#^#/#(#_#:#<#[#}#|#9@f.!.I _@1#R.H+2#3#4#",
"}++@I m.'.5#T h 6#7#8#9#0#a#b#c#d#e#f#g#h#Y@U l.&.G ! # i#j#k#l#",
"m#n#o#p#3.6.= q#T r#s#t#u#v#w#x#y#z#<#e#A#+@* q#T 2+I B#C#D#E#F#",
"G#H#I#J#'+K#L#M#) 4.N#O#P#Q#R#S#T#U#V#W#X#I 5.Y#J H@7 Z#`# $.$+$",
"@$#$$$%$u 6.&$J !.*$=$-$;$>$,$'$)$!$~$^#{$W.]$2+, I 7 ^$/$($_$:$",
"<$[$}$|$1$r ^.h '+2$3$4$5$6$7$8$9$0$a$b$c$d$q@f+# u 4 e$f$g$h$i$",
"j$k$l$m$n$o$7 k.U.p$q$r$s$t$u$v$w$w$x$y$z$- 7 i+=+# 7 A$B$C$D$E$",
"F$G$H$I$J$K$G H+! L$M$N$O$P$Q$v$v$R$T * T R T S$T$3 U$,+V$W$X$Y$",
"Z$`$ %.%+%W.-+5.# @%#%$%%%&%*%=%3.$ !.H+H ,+,+V -%;%J =+>%,%'%)%",
"!%~%{%]%^%* /%H 5.(%_%:%<%[%a =+u+*.}%D.f ' S.I i+r L#$ |%1%2%3%",
"4%5%6%7%n.G R.h+:@}+8%9%0%R+{@S `@u q#w a%G b%f c%d%h+e%f%g%h%i%"};
