/* XPM */
static char * rock_grounded_32px_xpm[] = {
"32 32 625 2",
"  	c #A3A78D",
". 	c #B4B8A7",
"+ 	c #AEB2A2",
"@ 	c #6D893C",
"# 	c #779B31",
"$ 	c #799E32",
"% 	c #6B8F27",
"& 	c #799C32",
"* 	c #759930",
"= 	c #7BA034",
"- 	c #749730",
"; 	c #71942D",
"> 	c #72962D",
", 	c #769931",
"' 	c #789B32",
") 	c #70942C",
"! 	c #759A2E",
"~ 	c #72952D",
"{ 	c #779A31",
"] 	c #769B2F",
"^ 	c #72962E",
"/ 	c #74953B",
"( 	c #A0A697",
"_ 	c #B9BEBA",
": 	c #B4B7B3",
"< 	c #CBCCCB",
"[ 	c #8D8E7A",
"} 	c #A7A99B",
"| 	c #B5BAAA",
"1 	c #B0B4A7",
"2 	c #738D3F",
"3 	c #74972F",
"4 	c #73972D",
"5 	c #70942B",
"6 	c #759830",
"7 	c #7A9D35",
"8 	c #7A9E35",
"9 	c #7DA136",
"0 	c #789C32",
"a 	c #73962E",
"b 	c #75992E",
"c 	c #779C31",
"d 	c #6F932B",
"e 	c #7B9F34",
"f 	c #799B33",
"g 	c #98A38C",
"h 	c #BEC1C0",
"i 	c #B6B8AF",
"j 	c #A5A99A",
"k 	c #898A7A",
"l 	c #9C9E90",
"m 	c #AAAD9F",
"n 	c #95A083",
"o 	c #7CA035",
"p 	c #769831",
"q 	c #7EA236",
"r 	c #73972F",
"s 	c #7DA135",
"t 	c #7FA437",
"u 	c #70932C",
"v 	c #799D33",
"w 	c #6F922A",
"x 	c #81A23B",
"y 	c #7E9B3B",
"z 	c #87A243",
"A 	c #8BA148",
"B 	c #97845D",
"C 	c #857253",
"D 	c #826E51",
"E 	c #7D7749",
"F 	c #789536",
"G 	c #71912E",
"H 	c #839E56",
"I 	c #ABAEA3",
"J 	c #A1A592",
"K 	c #B6BAAA",
"L 	c #A1A098",
"M 	c #75903F",
"N 	c #7CA037",
"O 	c #6F922B",
"P 	c #779B30",
"Q 	c #799C34",
"R 	c #789B33",
"S 	c #769932",
"T 	c #7DA036",
"U 	c #799D32",
"V 	c #72952E",
"W 	c #74992F",
"X 	c #7C9A39",
"Y 	c #9B945A",
"Z 	c #AD9D6B",
"` 	c #C3B27D",
" .	c #CEC186",
"..	c #D0C286",
"+.	c #CFC286",
"@.	c #CFC186",
"#.	c #C6B580",
"$.	c #C2B07C",
"%.	c #A59365",
"&.	c #897653",
"*.	c #787C42",
"=.	c #779833",
"-.	c #72824B",
";.	c #C3C5BE",
">.	c #BABDB9",
",.	c #9AA18B",
"'.	c #7DA234",
").	c #84AB39",
"!.	c #759831",
"~.	c #6B8E26",
"{.	c #75982F",
"].	c #82A738",
"^.	c #71952D",
"/.	c #769433",
"(.	c #9F9C5D",
"_.	c #C0B07B",
":.	c #CFC085",
"<.	c #D5C589",
"[.	c #D4C589",
"}.	c #D2C387",
"|.	c #D1C386",
"1.	c #CFC185",
"2.	c #C2B17D",
"3.	c #A69466",
"4.	c #897553",
"5.	c #767B41",
"6.	c #748B41",
"7.	c #9AA388",
"8.	c #94A47D",
"9.	c #7CA039",
"0.	c #74982D",
"a.	c #7FA438",
"b.	c #779A32",
"c.	c #769A30",
"d.	c #6D9029",
"e.	c #7FA337",
"f.	c #7D9A39",
"g.	c #A4A161",
"h.	c #CABA81",
"i.	c #D6C68A",
"j.	c #D7C78B",
"k.	c #DBC98D",
"l.	c #DDCA8E",
"m.	c #D8C78B",
"n.	c #CDBE84",
"o.	c #BDAB79",
"p.	c #A79566",
"q.	c #836F50",
"r.	c #7D973B",
"s.	c #789A32",
"t.	c #83AA35",
"u.	c #749830",
"v.	c #7A9F33",
"w.	c #7B9F35",
"x.	c #7DA235",
"y.	c #74982E",
"z.	c #789C33",
"A.	c #7B9E35",
"B.	c #81A139",
"C.	c #A19B5F",
"D.	c #D3C087",
"E.	c #D3C488",
"F.	c #D1C387",
"G.	c #D4C488",
"H.	c #DCCA8E",
"I.	c #C2AF7D",
"J.	c #B4A271",
"K.	c #877452",
"L.	c #738D35",
"M.	c #73972E",
"N.	c #759B2E",
"O.	c #779C30",
"P.	c #979656",
"Q.	c #9B935A",
"R.	c #A99866",
"S.	c #C7B57D",
"T.	c #DCC98E",
"U.	c #D9C88C",
"V.	c #D7C68A",
"W.	c #DCC98D",
"X.	c #D1C286",
"Y.	c #B3A170",
"Z.	c #789237",
"`.	c #6E912A",
" +	c #7B9F33",
".+	c #769930",
"++	c #9D9C59",
"@+	c #D2C086",
"#+	c #D7C58A",
"$+	c #CDBB82",
"%+	c #A59463",
"&+	c #B1A06C",
"*+	c #B9A671",
"=+	c #D5C288",
"-+	c #DBC88D",
";+	c #DDCB8F",
">+	c #CCBD84",
",+	c #B7A574",
"'+	c #9A885D",
")+	c #7F6B4E",
"!+	c #779237",
"~+	c #799D34",
"{+	c #799E31",
"]+	c #7A9F32",
"^+	c #769A31",
"/+	c #7A9E33",
"(+	c #8E8F4F",
"_+	c #CFBD84",
":+	c #C9BA80",
"<+	c #AA9968",
"[+	c #A79665",
"}+	c #A29161",
"|+	c #B19E6B",
"1+	c #B4A26E",
"2+	c #B8A671",
"3+	c #CDBF83",
"4+	c #D3C388",
"5+	c #BAA876",
"6+	c #9C8A5E",
"7+	c #8D7955",
"8+	c #7E6A4D",
"9+	c #758D37",
"0+	c #75992F",
"a+	c #749A2D",
"b+	c #7CA233",
"c+	c #819F3B",
"d+	c #A59F64",
"e+	c #DAC88C",
"f+	c #C8B67E",
"g+	c #B2A06D",
"h+	c #AF9F6C",
"i+	c #B1A06D",
"j+	c #A49363",
"k+	c #B09D6A",
"l+	c #C0AD78",
"m+	c #B9A776",
"n+	c #A39261",
"o+	c #9B895D",
"p+	c #8C7855",
"q+	c #7A9E34",
"r+	c #6C9027",
"s+	c #7BA033",
"t+	c #74962F",
"u+	c #8C934B",
"v+	c #D5C591",
"w+	c #E2D095",
"x+	c #DAC98C",
"y+	c #D7C78A",
"z+	c #BAA874",
"A+	c #AE9C6C",
"B+	c #CAB781",
"C+	c #D4C188",
"D+	c #D5C289",
"E+	c #A39262",
"F+	c #778F38",
"G+	c #71942C",
"H+	c #828A45",
"I+	c #D3C390",
"J+	c #DECB8F",
"K+	c #D9C68B",
"L+	c #AF9D6C",
"M+	c #BBA875",
"N+	c #B8A572",
"O+	c #A19060",
"P+	c #6D8531",
"Q+	c #7EA336",
"R+	c #7CA036",
"S+	c #7F8743",
"T+	c #AF9E71",
"U+	c #E0CF97",
"V+	c #DFCC91",
"W+	c #D0C086",
"X+	c #BCA976",
"Y+	c #B4A16D",
"Z+	c #A69463",
"`+	c #9F8E60",
" @	c #927E58",
".@	c #7A943A",
"+@	c #6D9128",
"@@	c #7EA237",
"#@	c #6E9228",
"$@	c #818945",
"%@	c #99875C",
"&@	c #BCAB77",
"*@	c #E4D39B",
"=@	c #DFCC90",
"-@	c #DAC88D",
";@	c #C3B17D",
">@	c #A69564",
",@	c #927F58",
"'@	c #758E36",
")@	c #6D9229",
"!@	c #81A738",
"~@	c #838C46",
"{@	c #B09E6A",
"]@	c #BEAB77",
"^@	c #E5D59D",
"/@	c #E5D49C",
"(@	c #DECB90",
"_@	c #E7D69D",
":@	c #C9B682",
"<@	c #A79666",
"[@	c #AA9866",
"}@	c #B5A26E",
"|@	c #938059",
"1@	c #9F8D5F",
"2@	c #708A32",
"3@	c #71952B",
"4@	c #6D9129",
"5@	c #72962C",
"6@	c #779B32",
"7@	c #7CA134",
"8@	c #838D46",
"9@	c #AF9C69",
"0@	c #B3A06C",
"a@	c #A79766",
"b@	c #B8A776",
"c@	c #E6D69E",
"d@	c #E5D59E",
"e@	c #DDCA90",
"f@	c #B9A672",
"g@	c #A99766",
"h@	c #B5A26D",
"i@	c #907D57",
"j@	c #9C8B5E",
"k@	c #769036",
"l@	c #74982F",
"m@	c #73962F",
"n@	c #799A35",
"o@	c #80963E",
"p@	c #85874A",
"q@	c #A79564",
"r@	c #B2A06C",
"s@	c #B3A06D",
"t@	c #B19F6B",
"u@	c #AF9C6A",
"v@	c #8E7A56",
"w@	c #917E58",
"x@	c #8F7B57",
"y@	c #98855B",
"z@	c #7E6A4E",
"A@	c #758C3A",
"B@	c #769732",
"C@	c #969E53",
"D@	c #B5A570",
"E@	c #A19063",
"F@	c #9A885C",
"G@	c #A59363",
"H@	c #AB9967",
"I@	c #AE9B69",
"J@	c #9A895D",
"K@	c #B29F6C",
"L@	c #A49263",
"M@	c #A08F60",
"N@	c #7F6A4E",
"O@	c #606E39",
"P@	c #708F34",
"Q@	c #7CA136",
"R@	c #7EA337",
"S@	c #7B963A",
"T@	c #C0B179",
"U@	c #D2C488",
"V@	c #B2A271",
"W@	c #99865B",
"X@	c #AE9C69",
"Y@	c #8F7B56",
"Z@	c #A79664",
"`@	c #98855C",
" #	c #9D8B5E",
".#	c #63713A",
"+#	c #556E30",
"@#	c #83A939",
"##	c #9D9A5C",
"$#	c #C6B87F",
"%#	c #AB9A69",
"&#	c #AC9A67",
"*#	c #8E7B56",
"=#	c #8B7755",
"-#	c #A29261",
";#	c #948159",
">#	c #9D8B5F",
",#	c #867252",
"'#	c #6F6B43",
")#	c #5E7335",
"!#	c #577131",
"~#	c #CABC82",
"{#	c #C6B87E",
"]#	c #A79765",
"^#	c #A49262",
"/#	c #AD9B69",
"(#	c #AD9A69",
"_#	c #A99666",
":#	c #94815A",
"<#	c #869347",
"[#	c #8B7D53",
"}#	c #877252",
"|#	c #6B683C",
"1#	c #5D7530",
"2#	c #617C36",
"3#	c #5D7538",
"4#	c #83A741",
"5#	c #759734",
"6#	c #907E5C",
"7#	c #E5D49B",
"8#	c #D5C68A",
"9#	c #CABC81",
"0#	c #A89766",
"a#	c #BEB078",
"b#	c #CDBE83",
"c#	c #CDBF84",
"d#	c #CABB81",
"e#	c #AA9868",
"f#	c #7F7D47",
"g#	c #7E8144",
"h#	c #8D7A56",
"i#	c #7D943D",
"j#	c #887B51",
"k#	c #79674B",
"l#	c #78654A",
"m#	c #6C683E",
"n#	c #547027",
"o#	c #5B7633",
"p#	c #576A3A",
"q#	c #72785F",
"r#	c #A6AD8A",
"s#	c #90957C",
"t#	c #929D76",
"u#	c #A0A686",
"v#	c #7D6D4C",
"w#	c #E0CE94",
"x#	c #D6C78B",
"y#	c #DAC78C",
"z#	c #D0C186",
"A#	c #C9BC7F",
"B#	c #59781C",
"C#	c #6E713B",
"D#	c #7F8E41",
"E#	c #59791F",
"F#	c #6F6743",
"G#	c #647A39",
"H#	c #5F7637",
"I#	c #556F2B",
"J#	c #57742A",
"K#	c #637D39",
"L#	c #6B715E",
"M#	c #B0B5B1",
"N#	c #B4B9A9",
"O#	c #A2A58C",
"P#	c #ACADA3",
"Q#	c #B6BAAB",
"R#	c #60742B",
"S#	c #CAB77F",
"T#	c #DECD96",
"U#	c #E1D099",
"V#	c #E2CF95",
"W#	c #DDCC91",
"X#	c #D7C98E",
"Y#	c #DFCE93",
"Z#	c #BFAD7A",
"`#	c #66633A",
" $	c #516B1E",
".$	c #5C7920",
"+$	c #4B691B",
"@$	c #597332",
"#$	c #648136",
"$$	c #587131",
"%$	c #5F7A36",
"&$	c #5E7736",
"*$	c #5D7537",
"=$	c #7F8464",
"-$	c #B5B9B0",
";$	c #C5C7C5",
">$	c #A0A094",
",$	c #A4A59C",
"'$	c #BBBFBC",
")$	c #586F24",
"!$	c #9B8A5E",
"~$	c #AF9D6A",
"{$	c #AD9A68",
"]$	c #D8C892",
"^$	c #DACA94",
"/$	c #DBCA94",
"($	c #D2BF86",
"_$	c #C5B37D",
":$	c #67623B",
"<$	c #5C6730",
"[$	c #56652A",
"}$	c #56712D",
"|$	c #5A7532",
"1$	c #5B7434",
"2$	c #5F7936",
"3$	c #637F35",
"4$	c #648233",
"5$	c #747F54",
"6$	c #878977",
"7$	c #9CA08F",
"8$	c #7C7A64",
"9$	c #A4AB8B",
"0$	c #C8C9C6",
"a$	c #858E75",
"b$	c #81814C",
"c$	c #A08D61",
"d$	c #A49362",
"e$	c #AB9867",
"f$	c #B29F6B",
"g$	c #AF9D69",
"h$	c #AA9765",
"i$	c #AA9865",
"j$	c #B19E6A",
"k$	c #96835A",
"l$	c #887453",
"m$	c #69613F",
"n$	c #536F2B",
"o$	c #516B2A",
"p$	c #5C7533",
"q$	c #587231",
"r$	c #5F7A35",
"s$	c #6B8A32",
"t$	c #678631",
"u$	c #6D8F2E",
"v$	c #84AA38",
"w$	c #798853",
"x$	c #B0B4A6",
"y$	c #B2B6A6",
"z$	c #868570",
"A$	c #969D7F",
"B$	c #BBBDB5",
"C$	c #9A9D8D",
"D$	c #A9AD9A",
"E$	c #807B57",
"F$	c #8B7855",
"G$	c #A18F61",
"H$	c #98A551",
"I$	c #B3A16C",
"J$	c #A19061",
"K$	c #7A6B4B",
"L$	c #5A7333",
"M$	c #5E7835",
"N$	c #6E8E31",
"O$	c #789D31",
"P$	c #789D32",
"Q$	c #708248",
"R$	c #BFC1BB",
"S$	c #B8BCBA",
"T$	c #9D9D95",
"U$	c #BEC0B0",
"V$	c #C5C8C0",
"W$	c #AAAE96",
"X$	c #B6BAB5",
"Y$	c #95A471",
"Z$	c #708932",
"`$	c #7F7D48",
" %	c #826F4F",
".%	c #728F30",
"+%	c #98AC4F",
"@%	c #8B7754",
"#%	c #716745",
"$%	c #5D7734",
"%%	c #5A7433",
"&%	c #6C8B35",
"*%	c #6A8B2C",
"=%	c #749534",
"-%	c #7FA536",
";%	c #779C2F",
">%	c #799D35",
",%	c #6D8E2D",
"'%	c #98998B",
")%	c #D4D4D4",
"!%	c #9A9991",
"~%	c #B7BAAF",
"{%	c #B8BCB3",
"]%	c #ACB090",
"^%	c #A3A68E",
"/%	c #899F5D",
"(%	c #799935",
"_%	c #779436",
":%	c #757343",
"<%	c #89A940",
"[%	c #806C4E",
"}%	c #7C684C",
"|%	c #7D694D",
"1%	c #766649",
"2%	c #607637",
"3%	c #5A7334",
"4%	c #6F8F36",
"5%	c #7B9F36",
"6%	c #789B31",
"7%	c #7CA033",
"8%	c #779A36",
"9%	c #949883",
"0%	c #A4A799",
"a%	c #7C7A69",
"b%	c #A5A597",
"c%	c #C6C7BF",
"d%	c #B0B39A",
"e%	c #878D72",
"f%	c #799B37",
"g%	c #86AD3A",
"h%	c #789C31",
"i%	c #7A9D34",
"j%	c #72972B",
"k%	c #70942A",
"l%	c #80A537",
"m%	c #769A2F",
"n%	c #74844E",
"o%	c #BBBEB6",
"p%	c #B5B9A9",
"q%	c #9B9B92",
"r%	c #818369",
"s%	c #9DA190",
"t%	c #868A7F",
"u%	c #779447",
"v%	c #6E9129",
"w%	c #6F9429",
"x%	c #769B30",
"y%	c #6A8E26",
"z%	c #7CA135",
"A%	c #7DA137",
"B%	c #6C9028",
"C%	c #6A8D25",
"D%	c #7D9947",
"E%	c #99A17B",
"F%	c #BABBB7",
"G%	c #BDBFB9",
"H%	c #A6A59D",
"  . + @ # $ % & * = - ; > = , ' ) ! ~ , { ] ^ # , ] / ( _ : < [ ",
"} | 1 2 3 4 # 5 6 { 7 ) 8 9 0 a , 9 7 - 6 b c d 3 e f g h i j k ",
"l m n o p q r s t 6 u v w x y z A B B B B B C D E F G H I J K L ",
"M N O P Q R S 7 T U V W X Y Z `  .....+.+.@.#.$.%.&.*.=.-.;.>.,.",
"'.).a ^ !.~.{.].$ ^.Q /.(._.:.<.<.[.}.<.<.<.|.1.2.3.4.5.6.7.8.9.",
"0.a.b.c.).{ d., e.0 f.g.h.i.}.i.j.i.<.k.j.l.m...n.o.p.q.r.s.t.U ",
"u.v.w.x.y.a z.# A.B.C.D.m.E.m.F...}.m.j.E.G.H.|.n.I.J.K.L.u.!.M.",
"^ O x.N.O.3 s a.P.Q.R.S.j.k.l.}.F.T.U.V.H.E.W.X.n.I.Y.K.Z.A.$ ] ",
"a 0 6 `. +q .+++@+#+$+%+&+*+=+-+-+;+U.F.E.F.k.X.>+,+'+)+!+v ~+{+",
"d ]+~ ^+b./+(+_+l.F.:+<+[+}+|+1+2+3+4+l.W.W.}.n.5+6+7+8+9+= 0+w ",
"a+b+u /+V c+d+n.e+G.i.;+f+g+h+i+j+k+l+#+G.G.n.m+n+o+p+8+9+q+r+ +",
"s+U t+e 3 u+v+w+}.l.U.i.<.x+y+T.z+}+A+B+C+D+5+E+}+o+p+8+F+G+7 b+",
"9 3 Q { Q H+I+w+m.V.V.[.E.V.l.J+K+}+L+M+N+J.E+O+'+o+p+8+P+; !.Q+",
"0./+3 R+t S+T+U+V+e+J+H.T.J+J+J+W+}+L+X+Y+Z+}+`+ @o+p+8+.@- `.+@",
"8 @@#@O.U $@%@&@*@=@J+-@U.J+J+l.;@}+L+X+Y+>@}+`+,@o+p+8+'@6 a 0 ",
")@* o !@P ~@'+{@]@^@/@(@(@=@_@:@<@O+[@}@Y+>@|@1@,@o+p+8+2@~ 3@/+",
"4@5@6@!.7@8@'+9@0@a@b@c@^@d@e@f@1@,@g@h@R.}+i@j@,@o+p+8+k@0+l@7@",
"m@9 8 n@o@p@'+}+|+E+q@}@r@s@t@u@v@w@g@}@g@}+x@p+i@y@p+z@A@@@c b.",
"z.r B@C@D@E@F@}+|+E+G@|+H@I@>@J@7+w@q@K@L@M@x@p+p+p+p+N@O@P@6 Q@",
"x.R@S@T@U@V@W@}+t@E+}+g@H@X@>@Y@p+w@}+Z@`@ #x@p+p+p+7+N@.#+#7 3 ",
"]+@###....$#%#O+[+}+}+g@&#>@E+*#=# @-#}+;#>#x@p+p+p+,#'#)#!#) {+",
"3@t <+m...|.~#{#]#}+}+^#j+}+/#(#_#v@y@-#:#<#[#p+p+}#|#1#2#3#4#5#",
"w 6@6#7#;+;+8#X.9#0#%+%+j+a#b#c#d#e#f#g#h#i#j#k#l#m#n#o#p#q#r#s#",
"t#u#v#;@c@d@w#V+x#y#z#z#:.1.F.e+}.A#B#C#D#E#F#G#H#I#J#K#L#M#N#O#",
"P#Q#R#|+}@Y+S#T#U#w+V#w+W#X#Y#i.E.Z#`# $.$+$@$#$$$%$&$*$=$-$;$>$",
",$'$)$!$}@Y+~${$}@]$^$^$/$/$^$($_$}#:$<$[$}$|$!#1$2$3$4$5$6$7$8$",
"9$0$a$b$c$t@~$d$e$f$0@g$h$i$j$[@k$l$m$n$o$p$q$r$s$t$u$v$w$x$y$z$",
"A$B$C$D$E$F$G$d$H$I$Y+I@J$J$k+E+=#K$.#o#L$L$M$N$O$# 7 P$Q$R$S$T$",
"U$V$W$X$Y$Z$`$ %.%+%Y+/#J$J$k+E+@%#%$%%%&%*%=%-%;%3 >%^+,%'%)%!%",
"~%{%]%^%/%0+(%_%:%<%[%)+}%}%)+|%1%2%3%4%5%^+^+S 6%7%G+O$8%9%0%a%",
"b%c%d%e%f%* g%R+b.Q+4 h%4 3 a O$i%@@j%k%c ' l%9 .+o m%$ n%o%p%q%",
"r%s%t%u%x.A.R@s+v%w s+]+w%+@x%P y%r e.t z%A.A%c B%C%s+D%E%F%G%H%"};
