/* XPM */
static char * naruto_run_front_0_xpm[] = {
"32 32 400 2",
"  	c #A3A78D",
". 	c #B4B8A7",
"+ 	c #AEB2A2",
"@ 	c #6D893C",
"# 	c #779B31",
"$ 	c #799E32",
"% 	c #6B8F27",
"& 	c #799C32",
"* 	c #759930",
"= 	c #7BA034",
"- 	c #749730",
"; 	c #71942D",
"> 	c #72962D",
", 	c #769931",
"' 	c #789B32",
") 	c #70942C",
"! 	c #759A2E",
"~ 	c #72952D",
"{ 	c #779A31",
"] 	c #769B2F",
"^ 	c #72962E",
"/ 	c #74953B",
"( 	c #A0A697",
"_ 	c #B9BEBA",
": 	c #B4B7B3",
"< 	c #CBCCCB",
"[ 	c #8D8E7A",
"} 	c #A7A99B",
"| 	c #B5BAAA",
"1 	c #B0B4A7",
"2 	c #738D3F",
"3 	c #74972F",
"4 	c #73972D",
"5 	c #70942B",
"6 	c #759830",
"7 	c #7A9D35",
"8 	c #7A9E35",
"9 	c #7DA136",
"0 	c #789C32",
"a 	c #73962E",
"b 	c #75992E",
"c 	c #779C31",
"d 	c #6F932B",
"e 	c #7B9F34",
"f 	c #799B33",
"g 	c #98A38C",
"h 	c #BEC1C0",
"i 	c #B6B8AF",
"j 	c #A5A99A",
"k 	c #898A7A",
"l 	c #9C9E90",
"m 	c #AAAD9F",
"n 	c #95A083",
"o 	c #7CA035",
"p 	c #769831",
"q 	c #7EA236",
"r 	c #73972F",
"s 	c #7DA135",
"t 	c #7FA437",
"u 	c #70932C",
"v 	c #799D33",
"w 	c #6F922A",
"x 	c #7EA336",
"y 	c #789C33",
"z 	c #7BA033",
"A 	c #769932",
"B 	c #7B9E35",
"C 	c #7CA036",
"D 	c #71942C",
"E 	c #839E56",
"F 	c #ABAEA3",
"G 	c #A1A592",
"H 	c #B6BAAA",
"I 	c #A1A098",
"J 	c #75903F",
"K 	c #7CA037",
"L 	c #6F922B",
"M 	c #779B30",
"N 	c #799C34",
"O 	c #789B33",
"P 	c #7DA036",
"Q 	c #799D32",
"R 	c #72952E",
"S 	c #74992F",
"T 	c #6A8D26",
"U 	c #789B34",
"V 	c #6F9329",
"W 	c #7B9F36",
"X 	c #7EA237",
"Y 	c #73982E",
"Z 	c #72824B",
"` 	c #C3C5BE",
" .	c #BABDB9",
"..	c #9AA18B",
"+.	c #7DA234",
"@.	c #84AB39",
"#.	c #759831",
"$.	c #6B8E26",
"%.	c #75982F",
"&.	c #82A738",
"*.	c #71952D",
"=.	c #71952C",
"-.	c #71932C",
";.	c #7DA335",
">.	c #85AB39",
",.	c #82A739",
"'.	c #7B9F33",
").	c #748E40",
"!.	c #9AA388",
"~.	c #94A47D",
"{.	c #7CA039",
"].	c #74982D",
"^.	c #7FA438",
"/.	c #779A32",
"(.	c #769A30",
"_.	c #6D9029",
":.	c #7FA337",
"<.	c #7A9D34",
"[.	c #84AA38",
"}.	c #799E31",
"|.	c #7A9F33",
"1.	c #82A837",
"2.	c #73962F",
"3.	c #789C31",
"4.	c #7FA436",
"5.	c #789A32",
"6.	c #83AA35",
"7.	c #749830",
"8.	c #7B9F35",
"9.	c #7DA235",
"0.	c #74982E",
"a.	c #7EA235",
"b.	c #6C9026",
"c.	c #779B32",
"d.	c #74982F",
"e.	c #7BA035",
"f.	c #70942A",
"g.	c #73972E",
"h.	c #759B2E",
"i.	c #779C30",
"j.	c #7EA337",
"k.	c #80A537",
"l.	c #769A2F",
"m.	c #7DA236",
"n.	c #779D2F",
"o.	c #6E912A",
"p.	c #75992F",
"q.	c #82A936",
"r.	c #020202",
"s.	c #7CA034",
"t.	c #201818",
"u.	c #70952A",
"v.	c #302017",
"w.	c #81A835",
"x.	c #789D31",
"y.	c #799D34",
"z.	c #7A9F32",
"A.	c #769A31",
"B.	c #7A9E33",
"C.	c #6A8E25",
"D.	c #A06030",
"E.	c #4B2E18",
"F.	c #C8B348",
"G.	c #6E9228",
"H.	c #749A2D",
"I.	c #7CA233",
"J.	c #70932B",
"K.	c #D0C648",
"L.	c #D8D850",
"M.	c #A88040",
"N.	c #D0B848",
"O.	c #785828",
"P.	c #74962F",
"Q.	c #73962D",
"R.	c #81A737",
"S.	c #7A9E34",
"T.	c #6C9027",
"U.	c #769930",
"V.	c #B38340",
"W.	c #7A9E32",
"X.	c #759A30",
"Y.	c #7BA032",
"Z.	c #72962C",
"`.	c #779B33",
" +	c #673820",
".+	c #704027",
"++	c #704837",
"@+	c #935333",
"#+	c #6D9128",
"$+	c #85AC39",
"%+	c #E08048",
"&+	c #503833",
"*+	c #D0A150",
"=+	c #D08848",
"-+	c #485890",
";+	c #779B2F",
">+	c #6D9229",
",+	c #81A738",
"'+	c #D07446",
")+	c #A85838",
"!+	c #905028",
"~+	c #384888",
"{+	c #5068A0",
"]+	c #878780",
"^+	c #B0B0B0",
"/+	c #888890",
"(+	c #7080A8",
"_+	c #2008B0",
":+	c #688B22",
"<+	c #769B30",
"[+	c #7EA334",
"}+	c #6F9429",
"|+	c #71952B",
"1+	c #6D9129",
"2+	c #7CA134",
"3+	c #815030",
"4+	c #473020",
"5+	c #B8C0C1",
"6+	c #C7C7C6",
"7+	c #608098",
"8+	c #302828",
"9+	c #769B2E",
"0+	c #B06038",
"a+	c #202020",
"b+	c #363631",
"c+	c #B08578",
"d+	c #646060",
"e+	c #8898C0",
"f+	c #535343",
"g+	c #575353",
"h+	c #6780B0",
"i+	c #908888",
"j+	c #946453",
"k+	c #736350",
"l+	c #061830",
"m+	c #7A9C35",
"n+	c #101820",
"o+	c #082040",
"p+	c #B79080",
"q+	c #E7C0B0",
"r+	c #F0D6C7",
"s+	c #B7B7A8",
"t+	c #CBB0A4",
"u+	c #384038",
"v+	c #283878",
"w+	c #7B9E34",
"x+	c #7CA136",
"y+	c #604737",
"z+	c #E7B7A1",
"A+	c #001018",
"B+	c #615850",
"C+	c #D4A084",
"D+	c #D7A797",
"E+	c #856357",
"F+	c #929193",
"G+	c #878778",
"H+	c #7C9F35",
"I+	c #81A538",
"J+	c #6D9028",
"K+	c #83A939",
"L+	c #6A8E26",
"M+	c #74972E",
"N+	c #A2A1A1",
"O+	c #604840",
"P+	c #685044",
"Q+	c #745450",
"R+	c #473730",
"S+	c #9898A0",
"T+	c #82A839",
"U+	c #82A737",
"V+	c #083060",
"W+	c #D86828",
"X+	c #504040",
"Y+	c #777768",
"Z+	c #799C33",
"`+	c #799A39",
" @	c #83A741",
".@	c #759734",
"+@	c #6E9229",
"@@	c #7B9E36",
"#@	c #282830",
"$@	c #804828",
"%@	c #98A098",
"&@	c #70893E",
"*@	c #949A77",
"=@	c #A6AD8A",
"-@	c #90957C",
";@	c #929D76",
">@	c #A0A686",
",@	c #85985D",
"'@	c #799E30",
")@	c #F89840",
"!@	c #81A53B",
"~@	c #878E73",
"{@	c #B6BBB7",
"]@	c #B4B9A9",
"^@	c #A2A58C",
"/@	c #ACADA3",
"(@	c #B6BAAB",
"_@	c #A1A78E",
":@	c #6F912C",
"<@	c #80A438",
"[@	c #83AA37",
"}@	c #A4A498",
"|@	c #887870",
"1@	c #7A9B38",
"2@	c #868B68",
"3@	c #B5B9B0",
"4@	c #C5C7C5",
"5@	c #A0A094",
"6@	c #A4A59C",
"7@	c #BBBFBC",
"8@	c #A2A894",
"9@	c #72952F",
"0@	c #7C9F36",
"a@	c #B7A295",
"b@	c #749731",
"c@	c #788356",
"d@	c #878977",
"e@	c #9CA08F",
"f@	c #7C7A64",
"g@	c #A4AB8B",
"h@	c #C8C9C6",
"i@	c #A7A99E",
"j@	c #7D9846",
"k@	c #749632",
"l@	c #798853",
"m@	c #B0B4A6",
"n@	c #B2B6A6",
"o@	c #868570",
"p@	c #969D7F",
"q@	c #BBBDB5",
"r@	c #9A9D8D",
"s@	c #ACB19E",
"t@	c #828D62",
"u@	c #759732",
"v@	c #151008",
"w@	c #B08068",
"x@	c #789D32",
"y@	c #708248",
"z@	c #BFC1BB",
"A@	c #B8BCBA",
"B@	c #9D9D95",
"C@	c #BEC0B0",
"D@	c #C5C8C0",
"E@	c #AAAE96",
"F@	c #B6BAB5",
"G@	c #97A874",
"H@	c #6F932A",
"I@	c #F0E7E3",
"J@	c #C29485",
"K@	c #987858",
"L@	c #181010",
"M@	c #7FA536",
"N@	c #779C2F",
"O@	c #799D35",
"P@	c #6D8E2D",
"Q@	c #98998B",
"R@	c #D4D4D4",
"S@	c #9A9991",
"T@	c #B7BAAF",
"U@	c #B8BCB3",
"V@	c #ACB090",
"W@	c #A3A68E",
"X@	c #899F5D",
"Y@	c #988077",
"Z@	c #4060F8",
"`@	c #E0B8B0",
" #	c #789B31",
".#	c #7CA033",
"+#	c #779A36",
"@#	c #949883",
"##	c #A4A799",
"$#	c #7C7A69",
"%#	c #A5A597",
"&#	c #C6C7BF",
"*#	c #B0B39A",
"=#	c #878D72",
"-#	c #799B37",
";#	c #86AD3A",
">#	c #886048",
",#	c #72972B",
"'#	c #74844E",
")#	c #BBBEB6",
"!#	c #B5B9A9",
"~#	c #9B9B92",
"{#	c #818369",
"]#	c #9DA190",
"^#	c #868A7F",
"/#	c #779447",
"(#	c #6E9129",
"_#	c #7CA135",
":#	c #7DA137",
"<#	c #6C9028",
"[#	c #6A8D25",
"}#	c #7D9947",
"|#	c #99A17B",
"1#	c #BABBB7",
"2#	c #BDBFB9",
"3#	c #A6A59D",
"  . + @ # $ % & * = - ; > = , ' ) ! ~ , { ] ^ # , ] / ( _ : < [ ",
"} | 1 2 3 4 # 5 6 { 7 ) 8 9 0 a , 9 7 - 6 b c d 3 e f g h i j k ",
"l m n o p q r s t 6 u v w x y o z A , B 6 C * e 9 , D E F G H I ",
"J K L M N O A 7 P Q R S O T U y { C r V N O 6 W X Y , # Z `  ...",
"+.@.a ^ #.$.%.&.$ *.N =.^ ) -.;.$ >.- 6 - % 3 ,.'.5 N ) ).!.~.{.",
"].^./.(.@.{ _., :.0 N P o <.[., }.t - |.1.~ 2.6 q 3.N C 4.5.6.Q ",
"7.|.8.9.0.a y # B a.b.= (.R 6 c.R e X Q d.2.O # B e.f.9.g.7.#.g.",
"^ L 9.h.i.3 s t 7 R j.k.l.B Q 4 6 ) m.n.] * # j.N R X k.}.B $ ] ",
"a 0 6 o.'.q p.q.> X B r.].s.t.u.v.r., o.Q o /.w.D C 8 N x.v y.}.",
"d z.~ A./.B.C.d R 9 7 r.D.D.D.E.F.}.r./.5.|.G.D 6 t 7 v 6 = p.w ",
"H.I.u B.R 9 J.q '.o.J.r.K.L.M.N.L.O.F.(.P.e.> o c 5 Q.R.6 S.T.'.",
"z Q P.e 3 6 N U.$ B.V.K.L.L.L.L.L.L.V.v.r.7.7 { W.X.<.B./.D 7 I.",
"9 3 N { N u W Y.Z.7.D.L.L.L.L.L.L.L.N.M.N ; N +.Z./.`.a $.; #.x ",
"].B.3 C t 3 6 *  +.+++N.L.L.L.L.L.N.N.@+X - ~ - |.|.#.Q = - o.#+",
"8 X G.i.Q U.$+v.%+%+V.&+*+L.=+L.*+N.-+ +3.c.4.C A.C ;+|.b 6 a 0 ",
">+* o ,+M <.o .+'+)+!+~+{+]+^+/+/+(+_+r.# <.W # ; :+<+[+}+~ |+B.",
"1+Z.c.#.2+'.t.3+D.4+4+~+-+5+6+6+6+7+~+8+_+# d.W.U.U., w 9+p.d.2+",
"2.9 8 c.6 g.E.%+0+a+b+c+d+e+f+g+h+i+j+k+_+l+(.D 3 e m+=.<.j.c /.",
"y r 3 x - 9 v.!+D. +n+o+p+6+q+r+s+t+u+u+E.v+J.o 9 a D m.R w+6 x+",
"9.j.L Q N B y+z+s+r.A+v+B+C+z+z+D+E+F+F+G+++2.H+I+v /.= /.J+7 3 ",
"z.K+3 g., L+M+c+p+> N l+N+O+P+Q+R+S+g+g+P+0+]+T+|.D N *., J.) }.",
"|+t A.<+U+' J+, r.e y V+P+)+W+g+N+g+_+X+]+Y+E.j+9 2+Z+j.x `+ @.@",
"w c.9 8.+.+@N e @@9 u.v. +.+ +.+#@$@#@0+.+%@^+G+g+B ! # &@*@=@-@",
";@>@,@'@].(.= :.N D _+D.)@%+'+.+)+W+E.W+%+%+W+ +E+J.9 !@~@{@]@^@",
"/@(@_@:@B.<@l.[@) ^._+}@^+^+^+|@W+%+E.3+8+!+%+D.r.x+7 1@2@3@4@5@",
"6@7@8@9@r (.b.D #.0@#@}@a@a@}@R+0+W+ +D.0+W+@+!+, 9 7 b@c@d@e@f@",
"g@h@i@j@k@o *.e B.; v.%+)@)@0+8+4+4+4+ +W+)@W+v.# r 4 [.l@m@n@o@",
"p@q@r@s@t@u@7 7.0 e v@W+%+%+D.t.0 0 4+w@y+.+!+r.x.# 7 x@y@z@A@B@",
"C@D@E@F@G@H@B x ! a 7  +3+3+ +r.:.' P+I@J@K@L@M@N@3 O@A.P@Q@R@S@",
"T@U@V@W@X@p.v /.# l.3 E.Y@Z@v@) ].$ #.`@.+E.A.A  #.#D x.+#@###$#",
"%#&#*#=#-#* ;#C /.x 4 P+z+>#a x.<.X ,#r.c ' k.9 U.o l.$ '#)#!#~#",
"{#]#^#/#9.B j.z (#w z z.4+v@<+M L+r :.t _#B :#c <#[#z }#|#1#2#3#"};
