/* XPM */
static char * naruto_run_right_xpm[] = {
"32 32 256 2",
"  	c None",
". 	c #020202",
"+ 	c #070810",
"@ 	c #001018",
"# 	c #151008",
"$ 	c #181010",
"% 	c #001728",
"& 	c #061830",
"* 	c #101820",
"= 	c #0C2134",
"- 	c #201818",
"; 	c #282718",
"> 	c #302017",
", 	c #202020",
"' 	c #282830",
") 	c #302828",
"! 	c #303028",
"~ 	c #363631",
"{ 	c #082040",
"] 	c #083058",
"^ 	c #103058",
"/ 	c #083060",
"( 	c #103767",
"_ 	c #203040",
": 	c #283878",
"< 	c #384038",
"[ 	c #185860",
"} 	c #2A4047",
"| 	c #285264",
"1 	c #4B2E18",
"2 	c #473020",
"3 	c #473730",
"4 	c #503833",
"5 	c #673820",
"6 	c #603840",
"7 	c #484818",
"8 	c #534A22",
"9 	c #506028",
"0 	c #604737",
"a 	c #605728",
"b 	c #704027",
"c 	c #704837",
"d 	c #785828",
"e 	c #6F6F28",
"f 	c #484444",
"g 	c #504040",
"h 	c #535343",
"i 	c #575353",
"j 	c #56656D",
"k 	c #604840",
"l 	c #685044",
"m 	c #615850",
"n 	c #784850",
"o 	c #785040",
"p 	c #745450",
"q 	c #616151",
"r 	c #687840",
"s 	c #607058",
"t 	c #736350",
"u 	c #646060",
"v 	c #676870",
"w 	c #687072",
"x 	c #706868",
"y 	c #777768",
"z 	c #717170",
"A 	c #2008B0",
"B 	c #186080",
"C 	c #384888",
"D 	c #385880",
"E 	c #485890",
"F 	c #4C6F94",
"G 	c #5068A0",
"H 	c #757780",
"I 	c #4060F8",
"J 	c #489870",
"K 	c #689858",
"L 	c #60B870",
"M 	c #5880A0",
"N 	c #608098",
"O 	c #6780B0",
"P 	c #6898A8",
"Q 	c #7080A8",
"R 	c #7890A8",
"S 	c #60A0B8",
"T 	c #78B0C0",
"U 	c #62B0FF",
"V 	c #50F890",
"W 	c #804828",
"X 	c #815030",
"Y 	c #905028",
"Z 	c #935333",
"` 	c #8A6800",
" .	c #876B31",
"..	c #A85838",
"+.	c #A06030",
"@.	c #B06038",
"#.	c #805848",
"$.	c #886048",
"%.	c #856357",
"&.	c #906048",
"*.	c #946453",
"=.	c #987858",
"-.	c #887868",
";.	c #887870",
">.	c #967066",
",.	c #907870",
"'.	c #AC6F55",
").	c #A07068",
"!.	c #A17870",
"~.	c #B06878",
"{.	c #B87870",
"].	c #F80000",
"^.	c #D86828",
"/.	c #D07446",
"(.	c #B86880",
"_.	c #F07898",
":.	c #919131",
"<.	c #B0A938",
"[.	c #878778",
"}.	c #908068",
"|.	c #988077",
"1.	c #A88040",
"2.	c #B38340",
"3.	c #B29242",
"4.	c #A08070",
"5.	c #A89070",
"6.	c #B08068",
"7.	c #B08578",
"8.	c #A8A840",
"9.	c #B8A060",
"0.	c #B8C038",
"a.	c #C0A800",
"b.	c #F8A800",
"c.	c #C09048",
"d.	c #C19150",
"e.	c #D08848",
"f.	c #D08858",
"g.	c #D18C67",
"h.	c #C0A048",
"i.	c #C8A850",
"j.	c #C8B348",
"k.	c #D0A150",
"l.	c #D0B848",
"m.	c #CAA368",
"n.	c #E08048",
"o.	c #E88050",
"p.	c #F38853",
"q.	c #F89840",
"r.	c #EA9168",
"s.	c #F0A878",
"t.	c #D0C648",
"u.	c #D7D748",
"v.	c #D8D850",
"w.	c #D4D568",
"x.	c #D8E048",
"y.	c #E0D060",
"z.	c #E5E550",
"A.	c #E8E86D",
"B.	c #878780",
"C.	c #888890",
"D.	c #889094",
"E.	c #908888",
"F.	c #979788",
"G.	c #929193",
"H.	c #8088B0",
"I.	c #8595A0",
"J.	c #9898A0",
"K.	c #98A098",
"L.	c #8EA0B6",
"M.	c #A08880",
"N.	c #A39888",
"O.	c #A29590",
"P.	c #B88880",
"Q.	c #B79080",
"R.	c #B09890",
"S.	c #A4A498",
"T.	c #A8B098",
"U.	c #B7A295",
"V.	c #A2A1A1",
"W.	c #A8A8B0",
"X.	c #B5A8A5",
"Y.	c #B7B7A8",
"Z.	c #B0B0B0",
"`.	c #8898C0",
" +	c #80A8C0",
".+	c #88B0C8",
"++	c #98A0C0",
"@+	c #90B0C0",
"#+	c #90B8D8",
"$+	c #A0A8C0",
"%+	c #A7B8D0",
"&+	c #B2B8C0",
"*+	c #98C0D0",
"=+	c #A4C6D6",
"-+	c #B8C0C1",
";+	c #B8C7D0",
">+	c #B0D0D8",
",+	c #B8D0E0",
"'+	c #C08880",
")+	c #C29485",
"!+	c #D59282",
"~+	c #D09890",
"{+	c #C7A791",
"]+	c #C8B080",
"^+	c #D4A084",
"/+	c #D7A797",
"(+	c #D0B088",
"_+	c #D8B098",
":+	c #CBB0A4",
"<+	c #E9A988",
"[+	c #E7B7A1",
"}+	c #E0B8B0",
"|+	c #F8A8B0",
"1+	c #F0B8A8",
"2+	c #D8CF88",
"3+	c #C8C1B0",
"4+	c #D8C8A5",
"5+	c #D1C6B6",
"6+	c #E8C0A7",
"7+	c #E7C0B0",
"8+	c #E0D0A8",
"9+	c #E8D0B8",
"0+	c #F0C0A8",
"a+	c #F6C0B0",
"b+	c #E6E687",
"c+	c #EDEBA4",
"d+	c #C7C7C6",
"e+	c #C0C8D7",
"f+	c #C1D0D6",
"g+	c #D3C7C1",
"h+	c #D2D0C8",
"i+	c #D2D2D2",
"j+	c #C6D2E0",
"k+	c #C0F8C8",
"l+	c #C0E0E8",
"m+	c #D0E3E8",
"n+	c #D8E8F0",
"o+	c #E5C8C2",
"p+	c #E6D0C3",
"q+	c #E1D3D2",
"r+	c #F8C0C0",
"s+	c #F0D6C7",
"t+	c #F1D8D0",
"u+	c #E8E5C8",
"v+	c #E6E0D8",
"w+	c #E0F0D0",
"x+	c #F0E0C8",
"y+	c #F8E0D8",
"z+	c #F0F0C8",
"A+	c #F0F0D0",
"B+	c #E1E2E2",
"C+	c #E8E8F0",
"D+	c #E8F0F0",
"E+	c #F0E7E3",
"F+	c #F0F0E7",
"G+	c #F7F7F7",
"                                                                ",
"                                      .                         ",
"                                      # Z   +.  .               ",
"                                  1 e . t.b 2.2.h.              ",
"                                  > k.h.v.t.t.v.t.; > .         ",
"                              . +.+.k.v.v.v.v.v.v.l.W           ",
"                            / { , h.v.v.v.v.v.v.v. .            ",
"                            & A ^ e.e.t.v.v.k.v.v.e.+..         ",
"                                / / : h.2.:.Z :.*.w             ",
"                                ^ C I C C A G.i+C+x             ",
"                              { A &.c : A I D.W.u               ",
"                              & H G.4 ^+1.d o L.)+              ",
"                              + B.Z.i+B.+._+y+G+_+              ",
"                            $ b A i Z.d+Z.l 6.)+l               ",
"                          . 5 G.G.0 , v d+d+W v &               ",
"                          B.1 t m p I : G.4 W C 6               ",
"                      ].B.~ ;.B.~ I A A ( W A A ^.5             ",
"                      G.< G.'.Y 4 A : : : 6 A i ..^.>           ",
"                    $ Y @.^.+.b 2 ) Z 5 @.> @ 4 @.0 _+)         ",
"                    # 4 ^.^.4 2 X /.q.+./.    > X =.)+3         ",
"                    5 ^...b b X ) W Y Y         . + 1           ",
"                  > =.7.Z 2 X W c 2 b 5                         ",
"              . 5 @.4 *.)+b b @./.n.q.^.                        ",
"              A 5 @.X 4 5 X 5 b @.n.q.q./.                      ",
"            * A : X X X X X X ) ) n.q.q.q.Y                     ",
"            / _ _ - 1 1 1 1 : 2 c ..q.q.q.Y                     ",
"            { p #.          A 2 @.W @.@.Y .                     ",
"              >             A A c X b - #                       ",
"                          $ O A &                               ",
"                          $ 7.*.                                ",
"                            ) -                                 ",
"                                                                "};
