/* XPM */
static char * ground_16px_right_xpm[] = {
"16 66 216 2",
"  	c #AA834B",
". 	c #AD894D",
"+ 	c #AD884D",
"@ 	c #AC864C",
"# 	c #A98149",
"$ 	c #A88047",
"% 	c #A88148",
"& 	c #AA824A",
"* 	c #B29251",
"= 	c #B29351",
"- 	c #B19150",
"; 	c #AF8C4F",
"> 	c #AB844B",
", 	c #A77F45",
"' 	c #A47B3F",
") 	c #A57D42",
"! 	c #B39451",
"~ 	c #B08F50",
"{ 	c #A88146",
"] 	c #A47B3E",
"^ 	c #A57C41",
"/ 	c #A98148",
"( 	c #AE8C4E",
"_ 	c #AE8A4E",
": 	c #AE8B4E",
"< 	c #B08E4F",
"[ 	c #B19050",
"} 	c #AD8A4C",
"| 	c #A88246",
"1 	c #A9824A",
"2 	c #AB854C",
"3 	c #AF8E4F",
"4 	c #AF8D4F",
"5 	c #AA824B",
"6 	c #AC874C",
"7 	c #AB864C",
"8 	c #AA844B",
"9 	c #AC874D",
"0 	c #AD8A4D",
"a 	c #B08F4F",
"b 	c #AC884D",
"c 	c #AB844C",
"d 	c #B39452",
"e 	c #A98249",
"f 	c #B0904E",
"g 	c #AF8E4D",
"h 	c #AB864A",
"i 	c #A98248",
"j 	c #AB8749",
"k 	c #A67E41",
"l 	c #A67D43",
"m 	c #AA8449",
"n 	c #A98545",
"o 	c #A78242",
"p 	c #A57D3F",
"q 	c #A37A3E",
"r 	c #B49752",
"s 	c #B49652",
"t 	c #B39552",
"u 	c #B39652",
"v 	c #AD8C4A",
"w 	c #A6803F",
"x 	c #A57E41",
"y 	c #A67E43",
"z 	c #A2793B",
"A 	c #A07736",
"B 	c #A07635",
"C 	c #B49753",
"D 	c #B39351",
"E 	c #B2934F",
"F 	c #AB8849",
"G 	c #AA844A",
"H 	c #A2783B",
"I 	c #9F7535",
"J 	c #9E7332",
"K 	c #9E7432",
"L 	c #9E7433",
"M 	c #AF8C4E",
"N 	c #B39551",
"O 	c #AE8D4D",
"P 	c #A67F44",
"Q 	c #A37C3D",
"R 	c #A27A39",
"S 	c #A27938",
"T 	c #AD8B4B",
"U 	c #AB8846",
"V 	c #A57E40",
"W 	c #A68042",
"X 	c #AA8745",
"Y 	c #AB8946",
"Z 	c #AB8947",
"` 	c #A78045",
" .	c #A37B3D",
"..	c #A17939",
"+.	c #A27B3A",
"@.	c #A88443",
"#.	c #AF8F4D",
"$.	c #B29450",
"%.	c #A77F46",
"&.	c #AA8645",
"*.	c #AD8B4A",
"=.	c #AF8E4E",
"-.	c #B59753",
";.	c #B49653",
">.	c #B29151",
",.	c #AA834A",
"'.	c #AC894B",
").	c #AC884B",
"!.	c #B19250",
"~.	c #B59853",
"{.	c #AA8549",
"].	c #AB8847",
"^.	c #A98444",
"/.	c #A67E42",
"(.	c #AA8747",
"_.	c #A47D3E",
":.	c #A27A3A",
"<.	c #A37B3B",
"[.	c #A88147",
"}.	c #B59953",
"|.	c #B69953",
"1.	c #AD8A4B",
"2.	c #A98543",
"3.	c #A98643",
"4.	c #A98546",
"5.	c #AA8349",
"6.	c #B29350",
"7.	c #B08F4E",
"8.	c #AC884C",
"9.	c #AB864B",
"0.	c #AB854B",
"a.	c #A67E44",
"b.	c #AD8A4A",
"c.	c #A57E3F",
"d.	c #A1783A",
"e.	c #A2793A",
"f.	c #A47C40",
"g.	c #B29250",
"h.	c #AD8C4B",
"i.	c #A88543",
"j.	c #A68240",
"k.	c #A78240",
"l.	c #B19251",
"m.	c #AE8B4D",
"n.	c #B0904D",
"o.	c #B0914D",
"p.	c #B1924E",
"q.	c #B49552",
"r.	c #B49651",
"s.	c #B1924F",
"t.	c #AE8C4C",
"u.	c #AA8448",
"v.	c #B69954",
"w.	c #A57F3F",
"x.	c #A37A3D",
"y.	c #AC8A47",
"z.	c #A37D3B",
"A.	c #9F7534",
"B.	c #AC884A",
"C.	c #A47E3D",
"D.	c #A07836",
"E.	c #9F7433",
"F.	c #9F7533",
"G.	c #B08F4D",
"H.	c #AE8D4C",
"I.	c #A17839",
"J.	c #9F7634",
"K.	c #A07738",
"L.	c #B09050",
"M.	c #A67E45",
"N.	c #A78241",
"O.	c #A68040",
"P.	c #A88145",
"Q.	c #A47D3D",
"R.	c #A37C3B",
"S.	c #A37B3A",
"T.	c #A17739",
"U.	c #A17738",
"V.	c #A37B3E",
"W.	c #A78046",
"X.	c #AD8C49",
"Y.	c #AC8B48",
"Z.	c #AC8A48",
"`.	c #AA8646",
" +	c #A78043",
".+	c #A57D43",
"++	c #AD894E",
"@+	c #AF8D4E",
"#+	c #A9824B",
"$+	c #B1914F",
"%+	c #AC874B",
"&+	c #A88343",
"*+	c #A67F41",
"=+	c #A98544",
"-+	c #AA8647",
";+	c #AA8744",
">+	c #AC8948",
",+	c #AB8A47",
"'+	c #B08E4E",
")+	c #A27B39",
"!+	c #A37C3C",
"~+	c #A78143",
"{+	c #A78341",
"]+	c #AB8848",
"^+	c #A17837",
"/+	c #A88442",
"(+	c #B0904C",
"_+	c #A57F40",
":+	c #AC8A49",
"<+	c #B0904F",
"[+	c #A98446",
"}+	c #AC8B49",
"|+	c #AE8E4A",
"1+	c #A27A3B",
"2+	c #A47D3C",
"3+	c #A2793C",
"                                ",
". . + @   # $ % &               ",
"* = - ; > , ' ) #               ",
"! ! = ~ . { ] ^ /               ",
"( _ : < [ } | $ 1               ",
"2 2 + 3 * 4 2 5   2 6 7 8 > @ 9 ",
"2 0 ~ a ( b c     + < 4 @ 9 < - ",
"c ( - 4 7       8 0 - [ _ : - d ",
"  9 _ b   5       @ _ 3 [ [ 4 ; ",
"@ 6 9 9 @ 8 e e     > . f g h i ",
"[ [ [ [ a j k l #     m n o p q ",
"r s t s u v w x i   # y z A B B ",
"C D ~ * r E v F G $ ^ H I J K L ",
"= < b M ! N E O G P Q R R S S S ",
": + c 9 ( T U o V W X Y Y Y Z Z ",
"@ 2 8 c 8 `  ...+.@.#.N N N ! $.",
"4 . 8 5 1 %.) W &.*.=.= -.;.>.~ ",
"t < 6 c 2   ,.'.f g ).0 !.- . 2 ",
"~.= a 4 4 . 2 {.].^./.W n (.G   ",
"~.C s s t ~ 6 { _.+.:.:.<.V [.  ",
"~.}.}.|.~.d a 1.X 2.3.3.3.4.5.  ",
"s -.C -.C s t ! 6.6.$.$.E 7.8.> ",
"3 [ [ [ [ [ [ [ - d -.;.* ~ 4 ; ",
"9.9 @ @ @ @ @ @ 6 4 ! * : : - d ",
"0 9   5 5 5 5 5   + < ; @ 9 4 - ",
"= 4 7   8 8 8     8 7 0.  8 7 6 ",
"~.* ; : : : : h ` l l l a.%.# 5 ",
"-.s t d d t = b.c.d.d.d.e.f.[.  ",
"* t ~.}.~.s g.h.i.j.j.j.k.^.).: ",
". [ s }.-.l.: m.n.o.o.o.o.p.6.! ",
"8 _ - = - ( 7 . [ = * * * * * * ",
"  7 b . + @ 8 2 b . . . . . . . ",
". 7 8 7 + 6 8                   ",
"* : 7 _ [ 4 2                   ",
"C - : 4 - ~ _ + + + + . . 9 2   ",
"~.s = < : 4 - * * * * * * < 9   ",
"! ! = a _ 4 * q.-.~.~.r.s.t.u.$ ",
"_ _ : < [ a M [ s v.~.p.X w.Q x.",
"    2 : - ~ _ 4 * ! p.y.z.A.A.A.",
"5 5   @ : < [ ~ ( B.@.C.D.E.E.F.",
"6 2   e e '.G.H.m ) I.J.A.B K.I.",
"L._ 8 M.' c.N.O.] d.I L F.I.f.y ",
"s [ 8.P.Q.R.R.S...T.U.U.U.V.W.& ",
"C t - g X.Y.Z.`. +) ) ) .+, #   ",
"! q.t ! ! ! = =.9.,.0.0.0.0.7 7 ",
"m.4 4 4 4 3 4 ++2 9 4 [ [ L.L.L.",
"9.@ 2 c c c c 2 7 : * s s s t t ",
"@+.   #+5 #+  b 4 ~ ~ * C s - 3 ",
"t a 9 2 2 8 8 0 $+=.%+} $+$+. 2 ",
"~.! ~ < 4 . > {.`.&+x *+=+-+m   ",
"~.-.s r q.L.6 { _.+.:.:.<.V [.  ",
"~.v.v.v.~.t a T U ;+;+;+;+`.m   ",
"N s r.r.r.s t ! $.6.6.$.6.7.6   ",
">+y.y.,+y.v '+~ ~ ~ ~ [ [ ; @   ",
"<.R R )+!+~+h 9 9 9 9 6 @ 2 8   ",
"A.J A.S.{+]+m.M ( M ( . c 5 5   ",
"B A.^+/+(+! N t t t d ~ b 8 8 8 ",
" ._+@.:+<+d ~.|.~.s * ~ 4 : : : ",
"[.1.f =.0 < q.~.-.* : : * t t t ",
"8 _ [ ~ M 4 [ - - M @ _ d v.v.}.",
"0.2 b 4 * ~ . 9 9 2 8 0 = ~.~.~.",
"c 5 8 _ ~ M 2     # W.[+}+|+|+|+",
"      2 9 @ 8     %.V.1+2+C.C.C.",
",.                W.' z z 3+3+3+",
"1                 e $ W.%.%.%.%.",
"e                               "};
