/* XPM */
static char * ground_50px_right_xpm[] = {
"50 66 335 2",
"  	c #AA834B",
". 	c #AC864C",
"+ 	c #A98249",
"@ 	c #A88047",
"# 	c #A78046",
"$ 	c #A88148",
"% 	c #A9824A",
"& 	c #AB854C",
"* 	c #AC874D",
"= 	c #AD894D",
"- 	c #AC874C",
"; 	c #A98348",
"> 	c #A77F46",
", 	c #A88147",
"' 	c #AB854A",
") 	c #AD884D",
"! 	c #A98149",
"~ 	c #AA824A",
"{ 	c #AE8B4E",
"] 	c #AB844C",
"^ 	c #A77F45",
"/ 	c #A37B3E",
"( 	c #A2793B",
"_ 	c #A2793C",
": 	c #A57D42",
"< 	c #A98148",
"[ 	c #AC884D",
"} 	c #B08F4F",
"| 	c #B29251",
"1 	c #AF8D4D",
"2 	c #A78243",
"3 	c #A2783B",
"4 	c #A57E40",
"5 	c #AC894A",
"6 	c #B19150",
"7 	c #B29351",
"8 	c #AF8C4F",
"9 	c #AB844B",
"0 	c #A47B3F",
"a 	c #AF8E4F",
"b 	c #A88246",
"c 	c #A37B3D",
"d 	c #A17839",
"e 	c #A57C41",
"f 	c #B19050",
"g 	c #B39552",
"h 	c #B49753",
"i 	c #B08F4D",
"j 	c #A98544",
"k 	c #A57E3D",
"l 	c #A47D3C",
"m 	c #A78241",
"n 	c #AD8C4A",
"o 	c #B29451",
"p 	c #B59853",
"q 	c #B49652",
"r 	c #B39451",
"s 	c #B08F50",
"t 	c #A88146",
"u 	c #A47B3E",
"v 	c #AD8A4C",
"w 	c #A67E44",
"x 	c #A67F44",
"y 	c #B08E4F",
"z 	c #AE8B4D",
"A 	c #AE8D4B",
"B 	c #AE8E4B",
"C 	c #AE8E4A",
"D 	c #AE8C4D",
"E 	c #AF8D4F",
"F 	c #B69953",
"G 	c #B59953",
"H 	c #B59753",
"I 	c #AE8C4E",
"J 	c #AE8A4E",
"K 	c #AA824B",
"L 	c #B29350",
"M 	c #B2934F",
"N 	c #AF8F4D",
"O 	c #AB874A",
"P 	c #AA8449",
"Q 	c #AD8B4B",
"R 	c #B1914E",
"S 	c #B1924E",
"T 	c #B29450",
"U 	c #AF8C4E",
"V 	c #AB864C",
"W 	c #AA844B",
"X 	c #B49552",
"Y 	c #AA8646",
"Z 	c #A47D3E",
"` 	c #A57F3F",
" .	c #A78240",
"..	c #A88342",
"+.	c #AB8748",
"@.	c #AD8A4D",
"#.	c #B39450",
"$.	c #B1924F",
"%.	c #AA8549",
"&.	c #AD894B",
"*.	c #B0904E",
"=.	c #AE8C4C",
"-.	c #A88149",
";.	c #AD8A4E",
">.	c #AF8E4E",
",.	c #AB864A",
"'.	c #AC874B",
").	c #B0904F",
"!.	c #AB874B",
"~.	c #AC884C",
"{.	c #A78045",
"].	c #A37A3C",
"^.	c #A07636",
"/.	c #9F7534",
"(.	c #A07635",
"_.	c #A17738",
":.	c #A2793A",
"<.	c #A37B3B",
"[.	c #A47D3D",
"}.	c #A78144",
"|.	c #AA834A",
"1.	c #B39452",
"2.	c #AB8849",
"3.	c #A88443",
"4.	c #A57F40",
"5.	c #A47C3E",
"6.	c #A57E3F",
"7.	c #A68040",
"8.	c #A47C3F",
"9.	c #A57D43",
"0.	c #AB8649",
"a.	c #A67F42",
"b.	c #A78043",
"c.	c #AC884B",
"d.	c #AC874A",
"e.	c #A67F43",
"f.	c #A07637",
"g.	c #9F7433",
"h.	c #9E7433",
"i.	c #A3793D",
"j.	c #AC8A49",
"k.	c #A47C40",
"l.	c #A17838",
"m.	c #9F7635",
"n.	c #A07737",
"o.	c #A27A3A",
"p.	c #A37C3B",
"q.	c #A68042",
"r.	c #AA854A",
"s.	c #A27A3B",
"t.	c #A37A3D",
"u.	c #A77F44",
"v.	c #9F7535",
"w.	c #A67E43",
"x.	c #AA844A",
"y.	c #AF8D4E",
"z.	c #B19250",
"A.	c #AF8E4D",
"B.	c #A98248",
"C.	c #A17739",
"D.	c #9E7432",
"E.	c #A1783A",
"F.	c #A57D41",
"G.	c #A88345",
"H.	c #AC8947",
"I.	c #A37B3A",
"J.	c #AB8749",
"K.	c #A67E41",
"L.	c #A67D43",
"M.	c #A98545",
"N.	c #A78242",
"O.	c #A57D3F",
"P.	c #A37A3E",
"Q.	c #B49752",
"R.	c #AF8F4B",
"S.	c #A68140",
"T.	c #A17938",
"U.	c #A88247",
"V.	c #A98247",
"W.	c #A27939",
"X.	c #B39652",
"Y.	c #A6803F",
"Z.	c #A57E41",
"`.	c #A07736",
" +	c #AE8D4A",
".+	c #AA8645",
"++	c #A68043",
"@+	c #AE8B4C",
"#+	c #A98346",
"$+	c #AB8846",
"%+	c #A88244",
"&+	c #B39351",
"*+	c #9E7332",
"=+	c #A17837",
"-+	c #B1914F",
";+	c #AD894C",
">+	c #AD884C",
",+	c #B39551",
"'+	c #AE8D4D",
")+	c #A37C3D",
"!+	c #A27A39",
"~+	c #A27938",
"{+	c #A88344",
"]+	c #B08E50",
"^+	c #B29151",
"/+	c #B69954",
"(+	c #B49653",
"_+	c #AA834C",
":+	c #A98645",
"<+	c #AA8448",
"[+	c #AA8745",
"}+	c #AB8946",
"|+	c #AB8947",
"1+	c #AB854B",
"2+	c #A37B3C",
"3+	c #A78044",
"4+	c #A17939",
"5+	c #A27B3A",
"6+	c #AD894E",
"7+	c #A67E42",
"8+	c #A78143",
"9+	c #A98644",
"0+	c #A88343",
"a+	c #AD8B4C",
"b+	c #A67E45",
"c+	c #AA8649",
"d+	c #AD8B4A",
"e+	c #A98349",
"f+	c #A9834A",
"g+	c #A88046",
"h+	c #AC894B",
"i+	c #A07738",
"j+	c #A68041",
"k+	c #AA8547",
"l+	c #AA8349",
"m+	c #A47C41",
"n+	c #9F7533",
"o+	c #A2783A",
"p+	c #AB8847",
"q+	c #A98444",
"r+	c #AA8747",
"s+	c #AD8A4B",
"t+	c #A98543",
"u+	c #A98643",
"v+	c #A98546",
"w+	c #B08F4E",
"x+	c #A57C40",
"y+	c #A98447",
"z+	c #AE8A4D",
"A+	c #B09050",
"B+	c #B19151",
"C+	c #AE8B4F",
"D+	c #AC864D",
"E+	c #AB864B",
"F+	c #AC8948",
"G+	c #A88245",
"H+	c #AB8948",
"I+	c #A78341",
"J+	c #A88442",
"K+	c #A88341",
"L+	c #AB8848",
"M+	c #A37C3C",
"N+	c #A67F41",
"O+	c #A98448",
"P+	c #B1934F",
"Q+	c #A27B39",
"R+	c #A6813F",
"S+	c #A78340",
"T+	c #A47D3F",
"U+	c #B18F50",
"V+	c #B59854",
"W+	c #A07837",
"X+	c #AF8E4B",
"Y+	c #AE8D4C",
"Z+	c #AF8E4C",
"`+	c #AD8A4A",
" @	c #B1904F",
".@	c #AD8B49",
"+@	c #A98547",
"@@	c #A88145",
"#@	c #AA8647",
"$@	c #B29250",
"%@	c #AD8C4B",
"&@	c #A88543",
"*@	c #A68240",
"=@	c #B19251",
"-@	c #B0904D",
";@	c #B0914D",
">@	c #A6803E",
",@	c #AA8744",
"'@	c #AF8F4C",
")@	c #A5803E",
"!@	c #A67F45",
"~@	c #B0904C",
"{@	c #AA8548",
"]@	c #A57F3D",
"^@	c #A37A3B",
"/@	c #9F7634",
"(@	c #A57F3E",
"_@	c #AC8B48",
":@	c #A98347",
"<@	c #A47C3D",
"[@	c #B49651",
"}@	c #A88048",
"|@	c #AC8A47",
"1@	c #A37D3B",
"2@	c #AD8C49",
"3@	c #AD8D49",
"4@	c #AC884A",
"5@	c #A47E3D",
"6@	c #A07836",
"7@	c #B59752",
"8@	c #AD8B48",
"9@	c #AA8746",
"0@	c #AC8A48",
"a@	c #A47B40",
"b@	c #A37B3F",
"c@	c #A78142",
"d@	c #A67F40",
"e@	c #A57D40",
"f@	c #AE8C4F",
"g@	c #AE8C4B",
"h@	c #A9824B",
"i@	c #A78042",
"j@	c #AB8A47",
"k@	c #B08E4E",
"l@	c #AC8949",
"m@	c #A98446",
"n@	c #A17937",
"o@	c #9F7434",
"p@	c #A78140",
"q@	c #AA8846",
"r@	c #B2924F",
"s@	c #AD8B4D",
"t@	c #AC8B49",
"                                                                                                    ",
".           + @ # # $ %     & * = = = = - ; # > , ' ) = ) ) ) ) ) = = = ) .   ! @ $ ~               ",
"{ ]       ~ ^ / ( _ : <     [ } | | | | 1 2 _ 3 4 5 6 7 | | | | | | | 7 6 8 9 ^ 0 : !               ",
"a = [ ) ) - b c d ( e $     ) f g h h g i j k l m n o h p p p p p q r r 7 s = t u e <               ",
"a 6 | | | 6 v b w x @ %     & = y g g } z A B C A D E 7 p F G G H | I J { y f v b @ %               ",
"f q q g q q f . K   9 . . 9 ] - { 6 6 I { f L M N O P Q R S S T 7 U & & ) a | E & K   & - V W 9 . * ",
"X H 7 y | q 6 *   W = } E * * a s E E s f a v Y m Z u `  . ...+.= * & @.s } I [ ]     ) y E . * y 6 ",
"#.$.Q %.&.*.=.P -.  ;.6 >.,.'.).} !.,.} f ~.{.].^./.(._.:.<.[.}.|.  ] I 6 E V       W @.6 f J { 6 1.",
"2.3.4.5.6.m 7.8.9.! . @.0.a.b.c.d.e.a.O c.}._ f.g.h.^.i.e.Y j.O   K   * J [   K       . J a f f E 8 ",
"k.l.m.(.n.d o.p.q.r.* - b s._ x ^ / t.u.^ ].m./.v.^.( w.x.y.z.E * . . - * * . W + +     9 = *.A.,.B.",
"C./.D./.E.F.G.H.A } f } +.I.^.3 0 e e 0 _ f.h.h.^.t.w $ 9 ) 8 } f f f f f f } J.K.L.!     P M.N.O.P.",
"/./.m.C.k.B.@.z.g Q.p Q.R.S.T.d 8.U.V.8.d W.W.l.( w %     & ) y r q Q.q g q X.n Y.Z.B.  ! w.( `.(.(.",
"D.v.( F.# |.* 8 | h F p T  +.+++b @+z #+b..+$+%+x $     & J s y y 7 h &+s | Q.M n 2.x.@ e 3 v.*+D.h.",
"=+d e $     ] - E r h p p q -+;+= f 6 @.>+} -+;+|.~   % x.D -+I - a 7 y [ U r ,+M '+x.x )+!+!+~+~+~+",
"{+w.# |.  ] ) E ]+y ^+q G /+(+| s y y s s s 8 * ] _+% ^ Z.N.:+<+  [ { ) ] * I Q $+N.4 q.[+}+}+}+|+|+",
"D x.%   % |.v -+>.'.@.7 q q q g 6 = = f 6 J 1+|.+ + @ 0 _.=+2+3+W . . & W ] W {.c 4+5+3.N ,+,+,+r T ",
"6+& _+  @ 7+8+9+0+Z.b a+y y y y { . . { 8 * + b+e e 0 d (.E.F.c+y.y E = W K % > : q..+d+>.7 H (+^+s ",
"  % % ! : E.=+W.!+o.Z.e+& & & & 9 |.f+|.x.|.g+/ n.^.^.^.d : r.y g h g y - ] &   |.h+*.A.c.@.z.6 = & ",
"> : F.e ( ^.i+/ j+j k+l+K K K K $ w e m+e e u _.n+D.v.o+Z.0.y 1.p F p 7 } E E = & %.p+q+7+q.M.r+x.  ",
"F.d f.n.^.n.P., v -+).[ 9 9 ]   @ 8.W.d d d _.f.^.(.d : r.E r q h H p h q q g s - t Z 5+o.o.<.4 ,   ",
"( /.D./._./ w |.8 X g s E E ;.& l+M...4 0 0 0 0 k.0 a.O E s f f f 1.p G G F p 1.} s+[+t+u+u+u+v+l+  ",
"n.^.v.n.8., |.W { r h q q X 6 = = ).*.c.+ ! < $ $ @ P 1 6 U V 1+- } q H h H h q g r L L T T M w+~.9 ",
"0 0 0 x+y+z+6+& ) y &+H /+G g A+f q (+B+C+D+|.# w.9.b.Y p+G.: e w.0.a f f f f f f f 6 1.H (+| s E 8 ",
"$ , @ B.v 6 y.1+  E+U r Q.H q g g Q.Q.g 6 = , 0 d _.d I.p.o.:.d ].3+E+* . . . . . . - E r | { { 6 1.",
"$ u.w.u.v+F+Y 3+: L.G+H+A ).6 6 6 6 ).B F+G+k.C.(.d / 7.I+J+K+I+3.L+@.*   K K K K K   ) y 8 . * E 6 ",
": ( _.d o.p.<.:.E.:.o.M+q.%.* * - - <+N+p.o.d ^.d F.O+=.R M P+P+M #.7 E V   W W W     W V 1+  W V - ",
"_ (.h./.Q+R+I+I+I+I+S+m %++ K K ! > : 0 5.Y.S.T+Z.%.U U+| (+V+/+G F p | 8 { { { { ,.{.L.L.L.w > ! K ",
"^./.n+W+I+X+S S S S S S 1 -     @ 0 t.w.P Y+Z+J.P 1 6 y.z+f Q.p p p H q g 1.1.g 7 `+6.E.E.E.:.k.,   ",
"h.m.Q+ .F+ @X H q &+1.H 1.a { J 0.K.k.@ * ]+y 0.b L+.@+@@@#@A *.6 | | g p G p q $@%@&@*@*@*@ .q+c.{ ",
"g.=+..B y.z+s g | { y g h g r &+} ,.$ % 9 - r.Z.s.p.l <.( <.` #+- [ = f q G H =@{ z -@;@;@;@;@S L r ",
"( u #@} 8 . ;.f E . ) A+7 7 7 | s [ % @ ^ ^ : E.`.p.>@R+Y.Y.S.G+% K W J 6 7 6 I V = f 7 | | | | | | ",
"# , x.- . W & * . W & * = = = = * & $ k.( o+d ^.!+,@'@;@-@;@'@;+W K   V [ = ) . W & [ = = = = = = = ",
"        + g+> > > ^ ^ ^ ^ ^ ^ ^ > ^ u.7.)@)@k 2+4 5 7 (+p G h f J = = V W V ) - W                   ",
"      % !@t.( ( ( ( ( ( ( ( ( ( 3 ( 4.H.'@~@A {@U.' { 7 p G p X 7 7 | { V J f E &                   ",
"x., # ^ 0 ^.g./.T.l ]@]@]@]@[.^@s.[.3.Z+7 1.f = W   V E 7 &+r q p p h 6 { E 6 s J ) ) ) ) = = * &   ",
"#@5.( ( _./.h./@(@_@'@R.R.R.j.#+:@d+Z+D J J = V     W - = = { | H G p q 7 y { E 6 | | | | | | y *   ",
"F+<@E.:.<.l l ]@[+*.r r r 7 } - - 1 Y+c+, @ @ @ @ g+@ +     & U 7 r r r 7 } J E | X H p p [@$.=.<+@ ",
"Y+t w {.#@n X+B Y+{ { { { { = & e+%+7.<@_ _ _ _ _ _ 0 ^ %     - @.J J J { y f } U f q /+p S [+` )+t.",
"s+B.}@  J z.r 7 y .     W   |.$ w.:.m./.`.o.l l l l ` #+V &             & { 6 s J E | r S |@1@/././.",
"6.0 w ~ * J 8 { ) ]         @ e ( ^.h.h.!+t+2@ + +3@A *.} = W K K K K K   . { y f s I 4@3.5@6@g.g.n+",
"p.[.}.E+V W |.B.$ $ $ $ $ , L.E././.(.!+m '@Q.p Q.Q.7@p q y [ - - - - &   + + h+i Y+P : d /@/.(.i+d ",
"8@2@Z+} { W ^ 0 t.t.t.t.t.t.3 ^.h.g.Q+9+R.,+p /+/+/+/+F p r 6 f 6 6 A+J W b+0 6.m 7.u E.v.h.n+d k.w.",
"Q.Q.H q f ~.{.].W.I.p.p.p.<.o.d l.!+ .A ,+h H q g g g g X q h q g q q f ~.@@[.p.p.I.4+C._._._./ # ~ ",
"/+/+/+p X f 4@{.%+|+_@_@_@_@9@}.}.p+d+D s g q 6 8 8 8 8 y 1.h 7 s 7 h g 6 A.2@_@0@Y b.: : : 9.^ !   ",
"X q q X X r y ~.z z.,+q Q.q z.@.@. @6 { { 6 | { 9 |.e++ r.1 -+@+,.I r X g r r r 7 >.E+|.1+1+1+1+V V ",
"8 E E E E E s f s ]+| h /+/+(+| s y y } } a { D++ w a@b@k.c@J+d@e@:@z E E E E a E 6+& * E f f A+A+A+",
"9 9 W |.e+x.v -+1 !.@.| q q q g f = = f 6 J 9 % # P.f.m.^.l.W.!+2+}.E+. & ] ] ] ] & V { | q q q g g ",
"K ~ > e 0 k.c@j N.F.@@v a E a a { V V { f@* + w u _./.D.v.3 x+0+p+g@y.=   h@K h@  [ E s s | h q 6 a ",
"+ $ e C.^.^._.W.W.o.Z.e+& & & & W |.+ |.|.f+# P.^././.m.d 7+' >.,+Q.g } * & & W W @.-+>.'.v -+-+= & ",
"m+k.( m.h./._.u i@9+#@|.K K K K $ L.a@a@k.k./ _.n+h.(.( 7+O } g p /+p r s y E = 9 %.Y 0+Z.N+j #@P   ",
"^.^.(././.n.0 , @.$.).) & & ]   , 8.W.d d C._.n.^.^.E.7+' a r q Q.H p H q Q.X A+- t Z 5+o.o.<.4 ,   ",
"D.h.h./.d 0 b+|.8 X X f y a { & P Y 3.N+k.0 0 a@a@0 7+0.E s } y A+r p /+/+/+p g } Q $+,@,@,@,@Y P   ",
"6@`.`.n.8., |.W { r q g g g f = = ).w+'.+ + l+l+l+e+E+} 7 y [ & - y ,+q [@[@[@q g r T L L T L w+-   ",
"9+t+j+F.:@@.= & * E f f f f s y y s E * V J E a E E s 1.h 7 E * 9 0.F+|@|@j@|@n k@s s s s f f 8 .   ",
"#.M D ,.z | s - & V V 1+1+1+@.-+f z+& W * s 1.g g g g q Q.q $@{ l+7+<.!+!+Q+M+8+,.* * * * - . & W   ",
"/+p 7 s | h 1.y = ] $ w : 9.}.p+l@r.K K V I f f f f f f ).Z+0@m@7+( /.*+/.I.I+L+z U I U I = ] K K   ",
"p H q g q h q r y 1+w _ _._.4+<.4.V.W 9 & . - - . V V V r.q.<.4+_.f.(./.=+J+~@r ,+g g g 1.s [ W W W ",
"6 f 6 6 6 6 B+f v @@P.^.D.h.n@)@.+s+I U I { = & % > L.9.m+E.o@*+/.C.c 4.3.j.).1.p F p q | s E { { { ",
"* - - - - . - E+@@].n.(./.(.(@2@M r r 1.1.g | J + F.:.d d n.(./@n.0 , s+*.>.@.y X p H | { { | g g g ",
"*   @ w L.L.w L.P.f.f.( Z p@q@A.^+| 6 6 7 q q f v Y I+S+I+I+I+I+..#+W J f s U E f 6 6 U . J 1./+/+G ",
"8 x.L._ d o+o+E.n.^._ x O A.w+@.* * * * { 7 h q o r@S S S S S S *.s@1+& [ E | s = * * & W @.7 p p p ",
"s 9 w u Z Y.(@c _ t.: + ) s y -         . E | | | | | | | | | | B+{ ] K W J s U &     ! # m@t@C C C ",
"y 1+-.$ 4@Z+Q ; # @ < |.& * - 9         W . [ [ [ [ [ [ [ [ [ ) [ V       & * . W     > / s.l 5@5@5@",
"{ ] K 9 J f E V                         % @ ^ ^ ^ ^ ^ ^ ^ ^ ^ ^ > $ |.                # 0 ( ( _ _ _ ",
"V W     V [ - 9                         $ k.( E.o+o+o+o+o+o+o+E._ w.%                 + @ # > > > > ",
"                                        @ ].v.n+/././././././.n+f.e +                               "};
