/* XPM */
static char * ground_50px_left_xpm[] = {
"50 66 336 2",
"  	c #AA834B",
". 	c #A88047",
"+ 	c #A37A3D",
"@ 	c #9F7535",
"# 	c #9F7533",
"$ 	c #9F7534",
"% 	c #A07737",
"& 	c #A57D41",
"* 	c #A9824A",
"= 	c #A88148",
"- 	c #A88046",
"; 	c #A78046",
"> 	c #A67E43",
", 	c #A2793B",
"' 	c #9F7433",
") 	c #A07635",
"! 	c #A27B3A",
"~ 	c #A47E3D",
"{ 	c #A57F3D",
"] 	c #A6803F",
"^ 	c #A98446",
"/ 	c #AC874C",
"( 	c #AC864C",
"_ 	c #A98249",
": 	c #AB854C",
"< 	c #AC874D",
"[ 	c #AD894D",
"} 	c #A98348",
"| 	c #A77F46",
"1 	c #A88147",
"2 	c #AB854A",
"3 	c #AD884D",
"4 	c #A57C41",
"5 	c #A2793C",
"6 	c #A2793A",
"7 	c #A07637",
"8 	c #A17938",
"9 	c #A98543",
"0 	c #AE8E4A",
"a 	c #AF8F4C",
"b 	c #B1914E",
"c 	c #B19150",
"d 	c #AE8B4E",
"e 	c #AB844C",
"f 	c #AA824A",
"g 	c #A77F45",
"h 	c #A37B3E",
"i 	c #A57D42",
"j 	c #A98148",
"k 	c #AC884D",
"l 	c #B08F4F",
"m 	c #B29251",
"n 	c #AF8D4D",
"o 	c #A78243",
"p 	c #A2783B",
"q 	c #A57E40",
"r 	c #AC894A",
"s 	c #B29351",
"t 	c #A2783A",
"u 	c #9F7635",
"v 	c #A17738",
"w 	c #A37B3B",
"x 	c #A68140",
"y 	c #AD8B49",
"z 	c #B29350",
"A 	c #B49652",
"B 	c #B49753",
"C 	c #AF8E4F",
"D 	c #A88246",
"E 	c #A37B3D",
"F 	c #A17839",
"G 	c #B19050",
"H 	c #B39552",
"I 	c #B08F4D",
"J 	c #A98544",
"K 	c #A57E3D",
"L 	c #A47D3C",
"M 	c #A78241",
"N 	c #AD8C4A",
"O 	c #B29451",
"P 	c #B59853",
"Q 	c #A37A3C",
"R 	c #A07636",
"S 	c #A47B3F",
"T 	c #A88145",
"U 	c #AC8949",
"V 	c #AE8D4B",
"W 	c #AE8C4D",
"X 	c #AF8D4F",
"Y 	c #B49653",
"Z 	c #B19151",
"` 	c #AF8C4E",
" .	c #AD8A4C",
"..	c #A67E44",
"+.	c #A67F44",
"@.	c #B08E4F",
"#.	c #AE8B4D",
"$.	c #AE8E4B",
"%.	c #B69953",
"&.	c #B59953",
"*.	c #B59753",
"=.	c #A1783A",
"-.	c #AB864B",
";.	c #AE8A4E",
">.	c #AA824B",
",.	c #AB844B",
"'.	c #AE8C4E",
").	c #B2934F",
"!.	c #AF8F4D",
"~.	c #AB874A",
"{.	c #AA8449",
"].	c #AD8B4B",
"^.	c #B1924E",
"/.	c #B29450",
"(.	c #A98149",
"_.	c #B08F50",
":.	c #B49552",
"<.	c #AA844B",
"[.	c #AA8646",
"}.	c #A47D3E",
"|.	c #A47B3E",
"1.	c #A57F3F",
"2.	c #A78240",
"3.	c #A88342",
"4.	c #AB8748",
"5.	c #AB864C",
"6.	c #B09050",
"7.	c #AD8A4E",
"8.	c #B39450",
"9.	c #B1924F",
"0.	c #AA8549",
"a.	c #AD894B",
"b.	c #B0904E",
"c.	c #AE8C4C",
"d.	c #A88149",
"e.	c #AF8E4E",
"f.	c #AB864A",
"g.	c #AC874B",
"h.	c #B0904F",
"i.	c #AB874B",
"j.	c #AC884C",
"k.	c #A78045",
"l.	c #A47D3D",
"m.	c #A78144",
"n.	c #AA834A",
"o.	c #B08E50",
"p.	c #AB8849",
"q.	c #A88443",
"r.	c #A57F40",
"s.	c #A47C3E",
"t.	c #A57E3F",
"u.	c #A68040",
"v.	c #A47C3F",
"w.	c #A57D43",
"x.	c #AD8A4D",
"y.	c #AB8649",
"z.	c #A67F42",
"A.	c #A78043",
"B.	c #AC884B",
"C.	c #AC874A",
"D.	c #A67F43",
"E.	c #9E7433",
"F.	c #A3793D",
"G.	c #AC8A49",
"H.	c #AF8D4E",
"I.	c #A47C40",
"J.	c #A17838",
"K.	c #A27A3A",
"L.	c #A37C3B",
"M.	c #A68042",
"N.	c #AA854A",
"O.	c #A27A3B",
"P.	c #A77F44",
"Q.	c #AA844A",
"R.	c #B19250",
"S.	c #A67E45",
"T.	c #AD894E",
"U.	c #AC894C",
"V.	c #A88144",
"W.	c #A88245",
"X.	c #A57E41",
"Y.	c #AA8548",
"Z.	c #A98447",
"`.	c #A17739",
" +	c #9E7432",
".+	c #A88345",
"++	c #AC8947",
"@+	c #A37B3A",
"#+	c #AF8C4F",
"$+	c #A27A39",
"%+	c #A98347",
"&+	c #A67E42",
"*+	c #A27A3C",
"=+	c #A88146",
"-+	c #A98248",
";+	c #B49752",
">+	c #AF8F4B",
",+	c #A88247",
"'+	c #A98247",
")+	c #A27939",
"!+	c #B39451",
"~+	c #AC8A47",
"{+	c #AF8E4D",
"]+	c #AD8A4B",
"^+	c #A57E3E",
"/+	c #A37B3F",
"(+	c #A47C41",
"_+	c #A37A3E",
":+	c #9F7434",
"<+	c #AE8D4A",
"[+	c #AA8645",
"}+	c #A68043",
"|+	c #AE8B4C",
"1+	c #A98346",
"2+	c #AB8846",
"3+	c #A88244",
"4+	c #B39551",
"5+	c #A88543",
"6+	c #A78044",
"7+	c #A57E42",
"8+	c #A17837",
"9+	c #B1914F",
"0+	c #AD894C",
"a+	c #AD884C",
"b+	c #B39651",
"c+	c #AA8746",
"d+	c #A78042",
"e+	c #AC884A",
"f+	c #A88344",
"g+	c #B29151",
"h+	c #B69954",
"i+	c #AA834C",
"j+	c #A78242",
"k+	c #A98645",
"l+	c #AA8448",
"m+	c #B29250",
"n+	c #AB854B",
"o+	c #A37B3C",
"p+	c #A78143",
"q+	c #A98644",
"r+	c #A88343",
"s+	c #AD8B4C",
"t+	c #AA8649",
"u+	c #B1904F",
"v+	c #A98349",
"w+	c #A9834A",
"x+	c #AB8946",
"y+	c #AB8747",
"z+	c #A07738",
"A+	c #A68041",
"B+	c #AA8547",
"C+	c #AA8349",
"D+	c #B39452",
"E+	c #A47D3F",
"F+	c #A98545",
"G+	c #A57C40",
"H+	c #AE8A4D",
"I+	c #B39351",
"J+	c #AE8B4F",
"K+	c #AC864D",
"L+	c #AB8847",
"M+	c #B0914E",
"N+	c #A98546",
"O+	c #AC8948",
"P+	c #A67D43",
"Q+	c #AB8948",
"R+	c #A78341",
"S+	c #A88442",
"T+	c #A88341",
"U+	c #AB8848",
"V+	c #A37C3C",
"W+	c #A67F41",
"X+	c #A98448",
"Y+	c #B1934F",
"Z+	c #A27B39",
"`+	c #A6813F",
" @	c #A78340",
".@	c #B18F50",
"+@	c #B59854",
"@@	c #A07837",
"#@	c #AF8E4B",
"$@	c #AE8D4C",
"%@	c #AF8E4C",
"&@	c #AB8749",
"*@	c #A68240",
"=@	c #A67E41",
"-@	c #A98547",
";@	c #AA8647",
">@	c #B0914D",
",@	c #A07736",
"'@	c #A6803E",
")@	c #AA8744",
"!@	c #B0904D",
"~@	c #A5803E",
"{@	c #A67F45",
"]@	c #B0904C",
"^@	c #A57F3E",
"/@	c #A37A3B",
"(@	c #9F7634",
"_@	c #AC8B48",
":@	c #AD8B4A",
"<@	c #A47C3D",
"[@	c #AA8745",
"}@	c #A88048",
"|@	c #B08F4E",
"1@	c #AB8947",
"2@	c #A57D3E",
"3@	c #AD8C49",
"4@	c #AD8D49",
"5@	c #B59752",
"6@	c #9E7332",
"7@	c #AC8A48",
"8@	c #AD8B48",
"9@	c #A47B40",
"0@	c #A78142",
"a@	c #A67F40",
"b@	c #A57D40",
"c@	c #B49651",
"d@	c #AE8C4F",
"e@	c #AE8C4B",
"f@	c #AA8845",
"g@	c #AA8747",
"h@	c #AC894B",
"i@	c #A47B41",
"j@	c #A1773A",
"k@	c #A07836",
"l@	c #A98643",
"m@	c #AE8D4D",
"n@	c #A17939",
"o@	c #A17937",
"p@	c #AE8D49",
"q@	c #A78140",
"r@	c #AA8846",
"s@	c #B39550",
"t@	c #B2924F",
"u@	c #AD8B4D",
"          . + @ # $ $ $ # % & *                                                                     ",
"  * = - ; > , $ ' ) ! ~ { ] ^ / (           _ . ; ; = *     : < [ [ [ [ / } ; | 1 2 3 [ 3 3 3 3 3 [ ",
"  = 4 5 5 6 7 $ ' 8 9 0 a a b c d e       f g h , 5 i j     k l m m m m n o 5 p q r c s m m m m m m ",
". > t $ $ u v 6 w x y z A B A s C [ k 3 3 / D E F , 4 =     3 G H B B H I J K L M N O B P P P P P A ",
"Q t R # ' % S T U V W X s Y Z ` C c m m m c  .D ..+.. *     : [ @.H H l #.V $.0 V W X s P %.&.&.*.m ",
"=.=.F F F + g -.@.c X ;.l m C ;.G A A H A A G ( >.  ,.( ( ,.e / d c c '.d G z ).!.~.{.].b ^.^./.s ` ",
"..........g (.e 3 '._.G X '.C c :.*.s @.m A c <   <.[ l X < < C _.X X _.G C  .[.M }.|.1.2.2.3.4.[ < ",
". = _   : 5.,.<.5.[ 6.m X 7.@.s 8.9.].0.a.b.c.{.d.  7.c e.f.g.h.l i.f.l G j.k.Q R $ ) v 6 w l.m.n.  ",
"h i = ( X @.3 ( d _.@.X l G o.'.p.q.r.s.t.M u.v.w.(.( x.y.z.A.B.C.D.z.~.B.m.5 7 ' E.R F.D.[.G.~.  >.",
"@ , g / _.G j.2 H.c  .2 H.c W } I.J.u ) % F K.L.M.N.< / D O.5 +.g h + P.g Q u $ @ R , > Q.H.R.X < ( ",
"E.=.S.: T.U.V.z.y. .W.X.Y. .Z.S `.$  +$ =.& .+++V l G l 4.@+R p S 4 4 S 5 7 E.E.R + ..= ,.3 #+l G G ",
"$+}.%+( < {.s.6 &+- I.*+&+=+I.% $ $ u `.I.-+x.R.H ;+P ;+>+x 8 F v.,+'+v.F )+)+J., ..*     : 3 @.!+A ",
"~+N {+_._.]+^+R =./+(+4 I._+`.:+ +@ , & ; n.< #+m B %.P /.<+[+}+D |+#.1+A.[+2+3++.=     : ;._.@.@.s ",
"!+4+A B *.^.5+$+v *+6+-+7+6 J.8 8+F 4 =     e / X !+B P P A 9+0+[ G c x.a+l 9+0+n.f   * Q.W 9+'./ C ",
"C G A &.&.b+>+c+d+A.e+W Y.z.f+c+f+> ; n.  e 3 X o.@.g+A &.h+Y m _.@.@._._._.#+< e i+* g X.j+k+l+  k ",
"/ d m A P P ;+z #./ @.m+'.g.H.9+W Q.*   * n. .9+e.g.x.s A A A H c [ [ G c ;.n+n._ _ . S v 8+o+6+<.( ",
"@.@.@.G H P h+*.s _.@.@.l _._.@.T.: i+  . &+p+q+r+X.D s+@.@.@.@.d ( ( d #+< _ S.4 4 S F ) =.& t+H.@.",
"/.u+x.[ c A B A A s d 3 @.m X (   * * (.i =.8+)+$+K.X.v+: : : : ,.n.w+n.Q.n.- h % R R R F i N.@.H B ",
"x+y+{.: ;.@.l l _.X k : ;.X T.  | i & 4 , R z+h A+J B+C+>.>.>.>.= ..4 (+4 4 |.v #  +@ t X.y.@.D+P %.",
"K.E+,+: ( / ( 5.5.:   n.Q.<.<.j & F 7 % R % _+1  .9+h.k ,.,.e   . v.)+F F F v 7 R ) F i N.X !+A B *.",
"/+D.e+H.X ;.5.>.>.* g i 4 4 i I., $  +$ v h ..n.#+:.H _.X X 7.: C+F+3.q S S S S I.S z.~.X _.G G G D+",
"j i.u+:.A m d e   _ & 6 F F F `.% R @ % v.1 n.<.d !+B A A :.c [ [ h.b.B._ (.j = = . {.n c ` 5.n+/ l ",
"  [ s P &.A c d ( n.^ 3.r.|._+h S S S G+Z.H+T.: 3 @.I+*.h+&.H 6.G A Y Z J+K+n.; > w.A.[.L+.+i 4 > y.",
"  3 m *.P P A m ;./ H.M+ .v+= = = 1 . -+ .c H.n+  -.` !+;+*.A H H ;+;+H c [ 1 S F v F @+L.K.6 F Q 6+",
"  < X m A P &.;+c @.!+B m #+< <.= P.> P.N+O+[.6+i P+W.Q+V h.c c c c h.$.O+W.I.`.) F h u.R+S+T+R+q.U+",
"n.  n+H+m *.P B :.H A B A s d n.i , v F K.L.w 6 =.6 K.V+M.0.< < / / l+W+L.K.F R F & X+c.b ).Y+Y+).8.",
"> P+P+D |+G Z Z g+g+Z Z m h.B.+.5 ) E.$ Z+`+R+R+R+R+ @M 3+_ >.>.(.| i S s.] x E+X.0.` .@m Y +@h+&.%.",
"6 t t v.%+/ k / / / / / < -.D.6 R $ # @@R+#@^.^.^.^.^.^.n /     . S + > {.$@%@&@{.n c H.H+G ;+P P P ",
"2.*@2.q.e+j.} +...........w.5 @ E.u Z+2.O+u+:.*.A I+D+*.D+C d ;.y.=@I.. < o.@.y.D U+y -@T ;@V b.c m ",
">@>@>@^.z !.r+, =.=.=.=.t F % @ ' 8+3.$.H.H+_.H m d @.H B H !+I+l f.= * ,./ N.X.O.L.L w , w 1.1+/ k ",
"m m m s s e.f++ 5 5 5 5 5 5 5 5 , |.;@l #+( 7.G X ( 3 6.s s s m _.k * . g g i =.,@L.'@`+] ] x W.* >.",
"[ [ [ [ [ / v+; | ; ; ; ; ; ; ; ; 1 Q./ ( <.: < ( <.: < [ [ [ [ < : = I., t F R $+)@a >@!@>@a 0+<.>.",
"      * . g g g g ; _                   _ - | | | g g g g g g g | g P.u.~@~@K o+q r s Y P &.B G ;.[ ",
"      = (+, , , , h g                 * {@+ , , , , , , , , , , p , r.++a ]@V Y.,+2 d s P &.P :.s s ",
"  e < f.o ^@{ ~ w + S.n.( 3 [ j.Q.1 ; g S R ' $ 8 L { { { { l./@O.l.q.%@s D+G [ <.  5.X s I+!+A P P ",
"  / @.c !@>+>+N B+; = n+` c s u+;@s., , v $ E.(@^@_@a >+>+>+G.1+%+:@%@W ;.;.[ 5.    <./ [ [ d m *.&.",
"  < l !+;+;+H R.` 3 k 7.l I+B 4+O+<@=.6 w L L { [@b.!+!+!+s l / / n $@t+1 . . . . - . _     : ` s !+",
"  : 3 C D+A G #+_.m m c C X s :.$@=+..k.;@N #@$.$@d d d d d [ : v+3+u.<@5 5 5 5 5 5 S g *     / x.;.",
"  ,.( d c m X x.e.b ^.!@e+l+]+!.]+-+}@  ;.R.!+s @.(     <.  n.= > 6 u $ ,@K.L L L L 1.1+5.:         ",
"  < X 6.X #+_.|@1@S+R+2.2@E t.x t.S ..f < ;.#+d 3 e         . 4 , R E.E.$+9 3@<+<+4@V b.l [ <.>.>.>.",
"= f.l u+B.2 $@$.2.,@$ ,@$+L.L L L.l.m.-.5.<.n.-+= = = = = 1 P+=.$ $ ) $+M a ;+P ;+;+5@P A @.k / / / ",
"h D.~.B.6+E+x x Z+$ 6@,@2.7@3@y 8@3@%@l d <.g S + + + + + + p R E.' Z+q+>+4+P h+h+h+h+%.P !+c G c c ",
"u , > g Q R ) ) $ u 8+{ 3@4+5@;+;+;+*.A G j.k.Q )+@+L.L.L.w K.F J.$+2.V 4+B *.A H H H H :.A B A H A ",
"' R p p 7 E.6@6@6@8+2.3@).P h+h+h+h+h+P :.G e+k.3+1@_@_@_@_@c+m.m.L+:@W _.H A c #+#+#+#+@.D+B s _.s ",
"z+J.K.! $+$+$+$+$+K 7@z ;+*.B A :.A A :.:.!+@.j.#.R.4+A ;+A R.x.x.u+c d d c m d ,.n.v+_ N.n 9+|+f.'.",
"i A.[.~+~+~+~+~+~+G.c.l D+A m C #+X X X X X _.G _.o.m B h+h+Y m _.@.@.l l C d K+_ ..9@/+I.0@S+a@b@%+",
"n+0+h.!+b+c@c@c@A O '.3 G H @.( ,.,.<.n.v+Q. .9+n i.x.m A A A H G [ [ G c ;.,.* ; _+7 u R J.)+$+o+m.",
"G _.o.c A h+h+h+h+A ` / _.H @.: >.f | 4 S I.0@J j+& T  .C X C C d 5.5.d d@< _ ..|.v $  +@ p G+r+L+e@",
"/.h.[ [ c A ;+A ;+!+d / @.s ` n._ = 4 `.R R v )+)+K.X.v+: : : : <.n._ n.n.w+; _+R $ $ u F &+2 e.4+;+",
"f@g@{.: ;.X @.@.o.X k : 7.'.Y.&+(+I., u E.$ v |.d+q+;@n.>.>.>.>.= P+9@9@I.I.h v # E.) , &+~.l H P h+",
"K.E+,+: ( ( n+Q.Q.Q.n.* n.} & v R R ) $ $ % S 1 x.9.h.3 : : e   1 v.)+F F `.v % R R =.&+2 C !+A ;+*.",
"S A.h@C @. .D 4 9@i@(+(+(+S j@:+ +E.E.$ F S S.n.#+:.:.G @.C d : {.[.q.W+I.S S 9@9@S &+y.X _.l @.6.!+",
"_ -.l H :.b.r+6 F )+)+)+)+)+J.8+k@,@,@% v.1 n.<.d !+A H H H G [ [ h.|@g._ _ C+C+C+v+-.l s @.k : / @.",
"  ( ` G G W .+q M l@q+l@l@l@q+q+q+9 A+& %+x.[ : < X G G G G _.@.@._.X < 5.;.X C X X _.D+B s X < ,.y.",
"  <.: 5.( n+n.N.m@).z ).).)././.8.).W f.#.m _./ : 5.5.n+n+n+x.9+G H+: <.< _.D+H H H H A ;+A m+d C+&+",
"    >.>.>.>.>.: d G G G G m :.P h+P s _.m B D+@.[ e = ..i w.m.L+U N.>.>.5.'.G G G G G G h.%@7@^ &+, ",
"f     <.<.<.<.e ( < < / ( j.l A P *.A H A B A !+@.n+..5 v v n@w r.'+<.,.: ( / / ( 5.5.5.N.M.w n@v 7 ",
"> =+B.'.` '.'.'.'.d d [ } k.~.l c G c c c c Z G  .T _+R  +E.o@~@[+]+'.` '.d [ : * | P+w.(+=.:+6@$ `.",
"F a@V !+H D+D+!+!+D+H 9+k+s.6+-.< / / / / ( / -.T Q % ) $ ) ^@3@).!+!+D+D+H m ;._ & 6 F F % ) (@% S ",
"+ M.].c m c c c c m A b+p@J 4.[ <   . ..P+P+..P+_+7 7 , }.q@r@{+g+m c c s A A G  .[.R+ @R+R+R+R+3.1+",
". _ n+< k < < < < ;.Z A s@9.z s #+Q.P+5 F t t =.% R 5 +.~.{+|@x.< < < < d s B A O t@^.^.^.^.^.^.b.u@",
"                >.: '.c m s A A _.,...|.}.] ^@E 5 + i _ 3 _.@./         ( X m m m m m m m m m m Z d ",
"                  <.5.k k ;.c H @.n+d.= e+%@].} ; . j n.: < / ,.        <.( k k k k k k k k k 3 k 5.",
"                          : '.G d e >.,.;.G X 5.                        * . g g g g g g g g g g | = ",
"                            5.k 5.<.    5.k / ,.                        = I., =.t t t t t t t =.5 > ",
"                                                                        . Q @ # $ $ $ $ $ $ $ # 7 4 "};
