/* XPM */
static char * ground_33px_down_xpm[] = {
"66 33 302 2",
"  	c #AA834B",
". 	c #A88148",
"+ 	c #A47C41",
"@ 	c #A2793B",
"# 	c #A37B3E",
"$ 	c #A77F45",
"% 	c #A9824A",
"& 	c #A67F45",
"* 	c #A37A3D",
"= 	c #A2783B",
"- 	c #A57F40",
"; 	c #AC8947",
"> 	c #AF8F4C",
", 	c #B0904C",
"' 	c #AE8D4B",
") 	c #AA8548",
"! 	c #A88247",
"~ 	c #AB854A",
"{ 	c #AE8B4E",
"] 	c #B29351",
"^ 	c #B59853",
"/ 	c #B59953",
"( 	c #B49552",
"_ 	c #B29251",
": 	c #AB864C",
"< 	c #AE8A4E",
"[ 	c #B19050",
"} 	c #AF8D4F",
"| 	c #AB854C",
"1 	c #AB844C",
"2 	c #AC874D",
"3 	c #AB864A",
"4 	c #A78243",
"5 	c #A57F3E",
"6 	c #A57F3D",
"7 	c #A47E3D",
"8 	c #A37B3B",
"9 	c #A67E45",
"0 	c #AA834A",
"a 	c #AC864C",
"b 	c #AD884D",
"c 	c #AD894D",
"d 	c #AC884C",
"e 	c #AA844A",
"f 	c #A88147",
"g 	c #A78046",
"h 	c #A47B3F",
"i 	c #A07636",
"j 	c #9F7433",
"k 	c #9F7534",
"l 	c #A17938",
"m 	c #A47D3C",
"n 	c #A47D3D",
"o 	c #A37A3B",
"p 	c #A27A3B",
"q 	c #A88443",
"r 	c #AF8E4C",
"s 	c #B39452",
"t 	c #AA844B",
"u 	c #B39351",
"v 	c #B39451",
"w 	c #B49652",
"x 	c #B49753",
"y 	c #B19150",
"z 	c #B08F50",
"A 	c #AC874C",
"B 	c #B08E4F",
"C 	c #B0904D",
"D 	c #AF8F4B",
"E 	c #AD8C4A",
"F 	c #AA8547",
"G 	c #AB854B",
"H 	c #AF8C4E",
"I 	c #B1904F",
"J 	c #AA8647",
"K 	c #A47C3E",
"L 	c #A17738",
"M 	c #9E7433",
"N 	c #9F7634",
"O 	c #AC8B48",
"P 	c #AC8A49",
"Q 	c #A98346",
"R 	c #A98347",
"S 	c #AD8B4A",
"T 	c #AE8C4D",
"U 	c #B59753",
"V 	c #B08F4F",
"W 	c #B49752",
"X 	c #B39552",
"Y 	c #B19250",
"Z 	c #AC884D",
"` 	c #AD8A4E",
" .	c #B39551",
"..	c #AC8948",
"+.	c #A47C3D",
"@.	c #A1783A",
"#.	c #A2793A",
"$.	c #AA8745",
"%.	c #B0904E",
"&.	c #AF8D4D",
"*.	c #AE8D4C",
"=.	c #AA8649",
"-.	c #A88047",
";.	c #A88046",
">.	c #A98249",
",.	c #B49651",
"'.	c #B1924F",
").	c #AE8C4C",
"!.	c #AA8448",
"~.	c #AF8E4F",
"{.	c #AF8C4F",
"].	c #A88146",
"^.	c #A67E44",
"/.	c #A78045",
"(.	c #AF8E4B",
"_.	c #AE8E4B",
":.	c #A98349",
"<.	c #A88244",
"[.	c #A68040",
"}.	c #A2793C",
"|.	c #AD8A4D",
"1.	c #B69954",
"2.	c #B1924E",
"3.	c #A57F3F",
"4.	c #A37C3D",
"5.	c #AB844B",
"6.	c #AF8E4E",
"7.	c #B1914E",
"8.	c #AC884A",
"9.	c #AD8A4B",
"0.	c #AF8F4D",
"a.	c #A98248",
"b.	c #A88048",
"c.	c #A67E43",
"d.	c #9F7635",
"e.	c #A07736",
"f.	c #A27A3A",
"g.	c #AC8A47",
"h.	c #A37D3B",
"i.	c #B09050",
"j.	c #B08F4E",
"k.	c #AB8947",
"l.	c #A88442",
"m.	c #A78341",
"n.	c #A78240",
"o.	c #A57D3E",
"p.	c #A37B3D",
"q.	c #A57E3F",
"r.	c #A68140",
"s.	c #AA824A",
"t.	c #A57C41",
"u.	c #A27A39",
"v.	c #A98543",
"w.	c #AD8C49",
"x.	c #AE8D4A",
"y.	c #AD8D49",
"z.	c #AA824B",
"A.	c #AE8C4E",
"B.	c #A07836",
"C.	c #9F7533",
"D.	c #AC884B",
"E.	c #A37C3B",
"F.	c #A78144",
"G.	c #AB864B",
"H.	c #A67D43",
"I.	c #A07635",
"J.	c #A78241",
"K.	c #B59752",
"L.	c #AC894B",
"M.	c #B08F4D",
"N.	c #AA8449",
"O.	c #A57D42",
"P.	c #A17839",
"Q.	c #A07738",
"R.	c #A67F43",
"S.	c #AB874A",
"T.	c #A78044",
"U.	c #A47D3F",
"V.	c #A27B39",
"W.	c #9E7332",
"X.	c #AC8A48",
"Y.	c #AD8B49",
"Z.	c #AD8B48",
"`.	c #A98644",
" +	c #B69953",
".+	c #A47B3E",
"++	c #9F7535",
"@+	c #A47C40",
"#+	c #A37A3C",
"$+	c #A17837",
"%+	c #A27939",
"&+	c #A37B3A",
"*+	c #A17838",
"=+	c #A88145",
"-+	c #A17939",
";+	c #A17739",
">+	c #A07637",
",+	c #B2934F",
"'+	c #AA8746",
")+	c #AB8847",
"!+	c #AF8E4D",
"~+	c #AA8646",
"{+	c #A78043",
"]+	c #A57D43",
"^+	c #A98149",
"/+	c #A27B3A",
"(+	c #A57E3D",
"_+	c #B29350",
":+	c #AE8B4D",
"<+	c #AA854A",
"[+	c #B1914F",
"}+	c #AE8B4C",
"|+	c #B08E50",
"1+	c #B49653",
"2+	c #AC864D",
"3+	c #A47B40",
"4+	c #A37B3F",
"5+	c #A78142",
"6+	c #A67F40",
"7+	c #A57D40",
"8+	c #AD894E",
"9+	c #AD894C",
"0+	c #B0904F",
"a+	c #B39651",
"b+	c #B29451",
"c+	c #AD8A4C",
"d+	c #AB874B",
"e+	c #A37A3E",
"f+	c #A37B3C",
"g+	c #A77F46",
"h+	c #A98544",
"i+	c #A78242",
"j+	c #A57D41",
"k+	c #AE8C4F",
"l+	c #9E7432",
"m+	c #A57C40",
"n+	c #A88343",
"o+	c #AE8C4B",
"p+	c #AF8D4E",
"q+	c #A9824B",
"r+	c #B29450",
"s+	c #A57E41",
"t+	c #A9834A",
"u+	c #A67E42",
"v+	c #AC874B",
"w+	c #AA8845",
"x+	c #AA8747",
"y+	c #A78042",
"z+	c #AA8549",
"A+	c #A67F41",
"B+	c #A98348",
"C+	c #A07737",
"D+	c #A47C3F",
"E+	c #A47D3E",
"F+	c #A57E40",
"G+	c #A88246",
"H+	c #A47B41",
"I+	c #A1773A",
"J+	c #9F7434",
"K+	c #AB8649",
"L+	c #AD8B4B",
"M+	c #AB8846",
"N+	c #AA8744",
"O+	c #AA8349",
"P+	c #A88345",
"Q+	c #A98643",
"R+	c #A68041",
"S+	c #AB8A47",
"T+	c #B08E4E",
"U+	c #AE8D4D",
"V+	c #B39450",
"W+	c #AE8A4D",
"X+	c #B29250",
"Y+	c #A37C3C",
"Z+	c #A78143",
"`+	c #AC8949",
" @	c #A98446",
".@	c #AB8848",
"+@	c #A98247",
"@@	c #A68042",
"#@	c #B19151",
"$@	c #A17937",
"%@	c #A5803E",
"&@	c #AA8645",
"*@	c #A98645",
"=@	c #AE8D49",
"-@	c #AB8748",
";@	c #A78140",
">@	c #AA8846",
",@	c #B29151",
"'@	c #A78340",
")@	c #A88342",
"!@	c #B39550",
"~@	c #A2783A",
"{@	c #A67F44",
"]@	c #B2924F",
"^@	c #AD8B4D",
"/@	c #A6803F",
"(@	c #AC8B49",
"_@	c #AE8E4A",
":@	c #A88149",
"<@	c #A98148",
"      . + @ @ @ @ # $                 % & * @ @ @ @ @ @ @ @ @ @ = @ - ; > , ' ) ! ~ { ] ^ / ^ ( ] ] _ { : < [ } |                   ",
"  1 2 3 4 5 6 7 8 * 9 0 a b c d e f g $ h i j k l m 6 6 6 6 n o p n q r ] s [ c t   : } ] u v w ^ ^ x y { } y z < b b b b c c 2 |   ",
"  A B y C D D E F g . G H y ] I J K @ @ L k M N 5 O > D D D P Q R S r T < < c :     t A c c { _ U / ^ w ] B { } y _ _ _ _ _ _ B 2   ",
"  2 V v W W X Y H b Z ` V u x  ...+.@.#.8 m m 6 $.%.v v v ] V A A &.*.=.f -.-.-.-.;.-.>.    | H ] v v v ] V < } _ ( U ^ ^ ,.'.).!.-.",
"  | b ~.s w [ {.z _ _ y ~.} ] ( *.].^./.J E (._.*.{ { { { { c | :.<.[.+.}.}.}.}.}.}.h $ %     A |.< < < { B [ V H [ w 1.^ 2.$.3.4.* ",
"  5.a { y _ } |.6.7.2.C 8.!.9.0.9.a.b.  < Y v ] B a     t   0 . c.#.d.k e.f.m m m m 3.Q : |             | { y z < } _ v 2.g.h.k k k ",
"  2 } i.} {.z j.k.l.m.n.o.p.q.r.q.h ^.s.2 < {.{ b 1         -.t.@ i M M u.v.w.x.x.y.' %.V c t z.z.z.z.z.  a { B [ z A.8.q 7 B.j j C.",
". 3 V I D.~ *._.n.e.k e.u.E.m m E.n F.G.: t 0 a.. . . . . f H.@.k k I.u.J.> W ^ W W K.^ w B Z A A A A |   >.>.L.M.*.N.O.P.N k I.Q.P.",
"# R.S.D.T.U.r.r.V.k W.e.n.X.w.Y.Z.w.r V { t $ h * * * * * * = i M j V.`.D  .^ 1.1.1.1. +^ v y [ y y i.< t 9 h q.J.[..+@.++M C.P.@+c.",
"d.@ c.$ #+i I.I.k d.$+6 w. .K.W W W U w [ d /.#+%+&+E.E.E.8 f.P.*+u.n.'  .x U w X X X X ( w x w X w w [ d =+n E.E.&+-+;+L L L # g s.",
"j i = = >+M W.W.W.$+n.w.,+^ 1.1.1.1.1.^ ( [ 8./.<.k.O O O O '+F.F.)+S T z X w y {.{.{.{.B s x ] z ] x X y !+w.O X.~+{+O.O.O.]+$ ^+  ",
"Q.*+f./+u.u.u.u.u.(+X._+W U x w ( w w ( ( v B d :+Y  .w W w Y |.|.I y { { y _ { 5.0 :.>.<+&.[+}+3 A.v ( X v v v ] 6.G.0 G G G G : : ",
"O.{+~+g.g.g.g.g.g.P ).V s w _ ~.{.} } } } } z [ z |+_ x 1.1.1+_ z B B V V ~.{ 2+>.^.3+4+@+5+l.6+7+R :+} } } } ~.} 8+| 2 } [ [ i.i.i.",
"G 9+0+v a+,.,.,.w b+A.b [ X B a 5.5.t 0 :.e c+[+&.d+|._ w w w X [ c c [ y < 5.% g e+>+d.i *+%+u.f+F.G.a | 1 1 1 1 | : { _ w w w X X ",
"[ z |+y w 1.1.1.1.w H A z X B | z.s.g+t.h @+5+h+i+j+=+c+~.} ~.~.{ : : { k+2 >.^..+L k l+++= m+n+)+o+p+c   q+z.q+  Z } z z _ x w y ~.",
"r+0+c c y w W w W v { A B ] H 0 >.. t.;+i i L %+%+f.s+:.| | | | t 0 >.0 0 t+g e+i k k d.P.u+~ 6. .W X V 2 | | t t |.[+6.v+c+[+[+c | ",
"w+x+N.| < } B B |+} Z | ` A.) u++ @+@ d.M k L .+y+`.J 0 z.z.z.z.. H.3+3+@+@+# L C.M I.@ u+S.V X ^ 1.^ v z B } c 5.z+~+n+s+A+h+J N.  ",
"f.U.! | a a G e e e 0 % 0 B+j+L i i I.k k C+h f |.'.0+b | | 1   f D+%+P.P.;+L C+i i @.u+~ ~.v w W U ^ U w W ( i.A ].E+/+f.f.8 F+f   ",
"h {+L.~.B c+G+t.3+H++ + + h I+J+l+M M k P.h 9 0 {.( ( [ B ~.{ | N.~+q A+@+h h 3+3+h u+K+} z V B i.v ^ 1.1.1.^ X V L+M+N+N+N+N+~+N.  ",
">.G.V X ( %.n+#.P.%+%+%+%+%+*+$+B.e.e.C+D+f 0 t { v w X X X [ c c 0+j.v+>.>.O+O+O+:.G.V ] B Z | A B  .w ,.,.,.w X v r+_+_+r+_+j.A   ",
"  a H [ [ T P+F+J.Q+`.Q+Q+Q+`.`.`.v.R+j+R |.c | 2 } [ [ [ [ z B B z } 2 : < } ~.} } z s x ] } 2 5.K+..g.g.S+g.E T+z z z z [ [ {.a   ",
"  t | : a G 0 <+U+,+_+,+,+,+r+r+V+,+T 3 :+_ z A | : : G G G |.[+[ W+| t 2 z s X X X X w W w X+{ O+u+8 u.u.V.Y+Z+3 2 2 2 2 A a | t   ",
"    z.z.z.z.z.| { [ [ [ [ _ ( ^ 1.^ ] z _ x s B c 1 . ^.O.]+F.)+`+<+z.z.: A.[ [ [ [ [ [ 0+r X. @u+@ k W.k &+m..@:+H A.H A.c 1 z.z.  ",
"s.    t t t t 1 a 2 2 A a d V w ^ U w X w x w v B G ^.}.L L -+8 - +@t 5.| a A A a : : : <+@@8 -+L >+I.k $+l., v  .X X X s z Z t t t ",
"c.].D.A.H A.A.A.A.{ { c B+/.S.V y [ y y y y #@[ c+=+e+i l+M $@%@&@9.A.H A.{ c | % g+H.]++ @.J+W.k ;+p.- q P 0+s ^  +^ w _ z } { { { ",
"P.6+' v X s s v v s X [+*@K T.G.2 A A A A a A G.=+#+C+I.k I.5 w.,+v v s s X _ < >.j+#.P.P.C+I.N C+h f 9.%.6.|.B ( ^ U _ { { _ X X X ",
"* @@L+y _ y y y y _ w a+=@h+-@c 2   -.^.H.H.^.H.e+>+>+@ E+;@>@!+,@_ y y ] w w [ c+~+m.'@m.m.m.m.)@Q t < [ z H } [ y y H a < s 1.1./ ",
"-.>.G 2 Z 2 2 2 2 < #@w !@'._+] {.e H.}.P.~@~@@.C+i }.{@S.!+j.|.2 2 2 2 { ] x w b+]@2.2.2.2.2.2.%.^@G | Z } _ z c 2 2 | t |.] ^ ^ ^ ",
"                z.| A.y _ ] w w z 5.^..+E+/@5 p.}.* O.>.b z B A         a } _ _ _ _ _ _ _ _ _ _ #@{ 1 z.t < z H |     ^+g  @(@_@_@_@",
"                  t : Z Z < y X B G :@. 8.r L+B+g -.<@0 | 2 A 5.        t a Z Z Z Z Z Z Z Z Z b Z :       | 2 a t     g+# p m 7 7 7 ",
"                          | A.[ { 1 z.5.< [ } :                         % -.$ $ $ $ $ $ $ $ $ $ g+. 0                 g h @ @ }.}.}.",
"                            : Z : t     : Z A 5.                        . @+@ @.~@~@~@~@~@~@~@@.}.c.%                 >.-.g g+g+g+g+",
"                                                                        -.#+++C.k k k k k k k C.>+t.>.                              "};
