/* XPM */
static char * ground_32px_xpm[] = {
"32 32 330 2",
"  	c #A3A78D",
". 	c #B4B8A7",
"+ 	c #AEB2A2",
"@ 	c #6D893C",
"# 	c #779B31",
"$ 	c #799E32",
"% 	c #6B8F27",
"& 	c #799C32",
"* 	c #759930",
"= 	c #7BA034",
"- 	c #749730",
"; 	c #71942D",
"> 	c #72962D",
", 	c #769931",
"' 	c #789B32",
") 	c #70942C",
"! 	c #759A2E",
"~ 	c #72952D",
"{ 	c #779A31",
"] 	c #769B2F",
"^ 	c #72962E",
"/ 	c #74953B",
"( 	c #A0A697",
"_ 	c #B9BEBA",
": 	c #B4B7B3",
"< 	c #CBCCCB",
"[ 	c #8D8E7A",
"} 	c #A7A99B",
"| 	c #B5BAAA",
"1 	c #B0B4A7",
"2 	c #738D3F",
"3 	c #74972F",
"4 	c #73972D",
"5 	c #70942B",
"6 	c #759830",
"7 	c #7A9D35",
"8 	c #7A9E35",
"9 	c #7DA136",
"0 	c #789C32",
"a 	c #73962E",
"b 	c #75992E",
"c 	c #779C31",
"d 	c #6F932B",
"e 	c #7B9F34",
"f 	c #799B33",
"g 	c #98A38C",
"h 	c #BEC1C0",
"i 	c #B6B8AF",
"j 	c #A5A99A",
"k 	c #898A7A",
"l 	c #9C9E90",
"m 	c #AAAD9F",
"n 	c #95A083",
"o 	c #7CA035",
"p 	c #769831",
"q 	c #7EA236",
"r 	c #73972F",
"s 	c #7DA135",
"t 	c #7FA437",
"u 	c #70932C",
"v 	c #799D33",
"w 	c #6F922A",
"x 	c #7EA336",
"y 	c #789C33",
"z 	c #7BA033",
"A 	c #769932",
"B 	c #7B9E35",
"C 	c #7CA036",
"D 	c #71942C",
"E 	c #839E56",
"F 	c #ABAEA3",
"G 	c #A1A592",
"H 	c #B6BAAA",
"I 	c #A1A098",
"J 	c #75903F",
"K 	c #7CA037",
"L 	c #6F922B",
"M 	c #779B30",
"N 	c #799C34",
"O 	c #789B33",
"P 	c #7DA036",
"Q 	c #799D32",
"R 	c #72952E",
"S 	c #74992F",
"T 	c #6A8D26",
"U 	c #789B34",
"V 	c #6F9329",
"W 	c #7B9F36",
"X 	c #7EA237",
"Y 	c #73982E",
"Z 	c #72824B",
"` 	c #C3C5BE",
" .	c #BABDB9",
"..	c #9AA18B",
"+.	c #7DA234",
"@.	c #84AB39",
"#.	c #759831",
"$.	c #6B8E26",
"%.	c #75982F",
"&.	c #82A738",
"*.	c #71952D",
"=.	c #71952C",
"-.	c #71932C",
";.	c #7DA335",
">.	c #85AB39",
",.	c #82A739",
"'.	c #7B9F33",
").	c #748E40",
"!.	c #9AA388",
"~.	c #94A47D",
"{.	c #7CA039",
"].	c #74982D",
"^.	c #7FA438",
"/.	c #779A32",
"(.	c #769A30",
"_.	c #6D9029",
":.	c #7FA337",
"<.	c #7A9D34",
"[.	c #84AA38",
"}.	c #799E31",
"|.	c #7A9F33",
"1.	c #82A837",
"2.	c #73962F",
"3.	c #789C31",
"4.	c #7FA436",
"5.	c #789A32",
"6.	c #83AA35",
"7.	c #749830",
"8.	c #7B9F35",
"9.	c #7DA235",
"0.	c #74982E",
"a.	c #7EA235",
"b.	c #6C9026",
"c.	c #779B32",
"d.	c #74982F",
"e.	c #7BA035",
"f.	c #70942A",
"g.	c #73972E",
"h.	c #759B2E",
"i.	c #779C30",
"j.	c #7EA337",
"k.	c #80A537",
"l.	c #769A2F",
"m.	c #7DA236",
"n.	c #779D2F",
"o.	c #6E912A",
"p.	c #75992F",
"q.	c #82A936",
"r.	c #7A9C34",
"s.	c #7CA034",
"t.	c #70952A",
"u.	c #769A31",
"v.	c #81A835",
"w.	c #789D31",
"x.	c #799D34",
"y.	c #7A9F32",
"z.	c #7A9E33",
"A.	c #6A8E25",
"B.	c #799C33",
"C.	c #7A9F34",
"D.	c #6C8F28",
"E.	c #6E9228",
"F.	c #749A2D",
"G.	c #7CA233",
"H.	c #70932B",
"I.	c #6D9128",
"J.	c #779D30",
"K.	c #7DA333",
"L.	c #74962F",
"M.	c #73962D",
"N.	c #81A737",
"O.	c #7A9E34",
"P.	c #6C9027",
"Q.	c #769930",
"R.	c #82AA36",
"S.	c #799E33",
"T.	c #7A9E32",
"U.	c #759A30",
"V.	c #7BA032",
"W.	c #72962C",
"X.	c #688B23",
"Y.	c #7FA435",
"Z.	c #7C9F35",
"`.	c #779B33",
" +	c #6E9129",
".+	c #6C9028",
"++	c #779C2F",
"@+	c #85AC39",
"#+	c #72972B",
"$+	c #779B2F",
"%+	c #6D9229",
"&+	c #81A738",
"*+	c #6C8F27",
"=+	c #7EA434",
"-+	c #6B8E25",
";+	c #71952B",
">+	c #83A839",
",+	c #688B22",
"'+	c #769B30",
")+	c #7EA334",
"!+	c #6F9429",
"~+	c #6D9129",
"{+	c #7CA134",
"]+	c #759931",
"^+	c #779A33",
"/+	c #769B2E",
"(+	c #759A2F",
"_+	c #7A9C35",
":+	c #7CA135",
"<+	c #7B9E34",
"[+	c #7CA136",
"}+	c #6F932A",
"|+	c #81A538",
"1+	c #6D9028",
"2+	c #83A939",
"3+	c #6A8E26",
"4+	c #74972E",
"5+	c #7CA234",
"6+	c #82A839",
"7+	c #82A737",
"8+	c #82A838",
"9+	c #80A536",
"0+	c #799A39",
"a+	c #83A741",
"b+	c #759734",
"c+	c #6E9229",
"d+	c #7B9E36",
"e+	c #80A538",
"f+	c #70893E",
"g+	c #949A77",
"h+	c #A6AD8A",
"i+	c #90957C",
"j+	c #929D76",
"k+	c #A0A686",
"l+	c #85985D",
"m+	c #799E30",
"n+	c #789B31",
"o+	c #81A53B",
"p+	c #878E73",
"q+	c #B6BBB7",
"r+	c #B4B9A9",
"s+	c #A2A58C",
"t+	c #ACADA3",
"u+	c #B6BAAB",
"v+	c #A1A78E",
"w+	c #6F912C",
"x+	c #80A438",
"y+	c #83AA37",
"z+	c #789D32",
"A+	c #83AB36",
"B+	c #7A9B38",
"C+	c #868B68",
"D+	c #B5B9B0",
"E+	c #C5C7C5",
"F+	c #A0A094",
"G+	c #A4A59C",
"H+	c #BBBFBC",
"I+	c #A2A894",
"J+	c #72952F",
"K+	c #7C9F36",
"L+	c #74992D",
"M+	c #749731",
"N+	c #788356",
"O+	c #878977",
"P+	c #9CA08F",
"Q+	c #7C7A64",
"R+	c #A4AB8B",
"S+	c #C8C9C6",
"T+	c #A7A99E",
"U+	c #7D9846",
"V+	c #749632",
"W+	c #7FA635",
"X+	c #798853",
"Y+	c #B0B4A6",
"Z+	c #B2B6A6",
"`+	c #868570",
" @	c #969D7F",
".@	c #BBBDB5",
"+@	c #9A9D8D",
"@@	c #ACB19E",
"#@	c #828D62",
"$@	c #759732",
"%@	c #82A836",
"&@	c #708248",
"*@	c #BFC1BB",
"=@	c #B8BCBA",
"-@	c #9D9D95",
";@	c #BEC0B0",
">@	c #C5C8C0",
",@	c #AAAE96",
"'@	c #B6BAB5",
")@	c #97A874",
"!@	c #6A8D25",
"~@	c #7FA536",
"{@	c #799D35",
"]@	c #6D8E2D",
"^@	c #98998B",
"/@	c #D4D4D4",
"(@	c #9A9991",
"_@	c #B7BAAF",
":@	c #B8BCB3",
"<@	c #ACB090",
"[@	c #A3A68E",
"}@	c #899F5D",
"|@	c #6E922A",
"1@	c #7CA033",
"2@	c #779A36",
"3@	c #949883",
"4@	c #A4A799",
"5@	c #7C7A69",
"6@	c #A5A597",
"7@	c #C6C7BF",
"8@	c #B0B39A",
"9@	c #878D72",
"0@	c #799B37",
"a@	c #86AD3A",
"b@	c #74844E",
"c@	c #BBBEB6",
"d@	c #B5B9A9",
"e@	c #9B9B92",
"f@	c #818369",
"g@	c #9DA190",
"h@	c #868A7F",
"i@	c #779447",
"j@	c #7DA137",
"k@	c #7D9947",
"l@	c #99A17B",
"m@	c #BABBB7",
"n@	c #BDBFB9",
"o@	c #A6A59D",
"  . + @ # $ % & * = - ; > = , ' ) ! ~ , { ] ^ # , ] / ( _ : < [ ",
"} | 1 2 3 4 # 5 6 { 7 ) 8 9 0 a , 9 7 - 6 b c d 3 e f g h i j k ",
"l m n o p q r s t 6 u v w x y o z A , B 6 C * e 9 , D E F G H I ",
"J K L M N O A 7 P Q R S O T U y { C r V N O 6 W X Y , # Z `  ...",
"+.@.a ^ #.$.%.&.$ *.N =.^ ) -.;.$ >.- 6 - % 3 ,.'.5 N ) ).!.~.{.",
"].^./.(.@.{ _., :.0 N P o <.[., }.t - |.1.~ 2.6 q 3.N C 4.5.6.Q ",
"7.|.8.9.0.a y # B a.b.= (.R 6 c.R e X Q d.2.O # B e.f.9.g.7.#.g.",
"^ L 9.h.i.3 s t 7 R j.k.l.B Q 4 6 ) m.n.] * # j.N R X k.}.B $ ] ",
"a 0 6 o.'.q p.q.> X B r.].s.<.t.u.Q , o.Q o /.v.D C 8 N w.v x.}.",
"d y.~ u./.z.A.d R 9 7 B.O C.p.D _.}.D./.5.|.E.D 6 t 7 v 6 = p.w ",
"F.G.u z.R 9 H.q '.o.H.4.R x I.p.J.K.*.(.L.e.> o c 5 M.N.6 O.P.'.",
"z Q L.e 3 6 N Q.$ z.U 0 /.=.8 R.S.Q /.Q.- 7.7 { T.U.<.z./.D 7 G.",
"9 3 N { N u W V.W.7.N 3 X.L #.Y.Z.- 7 3 N ; N +.W./.`.a $.; #.x ",
"].z.3 C t 3 6 * z (./.z.z.^  +.+++z.6 s X - ~ - |.|.#.Q = - o.I.",
"8 X E.i.Q Q.@+P /.q 0.Q 4 3 2.w.<.X #+f.3.c.4.C u.C $+|.b 6 a 0 ",
"%+* o &+M <.o v R *+b =+-+> ;+c.$.6 o >+# <.W # ; ,+'+)+!+~ ;+z.",
"~+W.c.#.{+'. +{+Q.z./.L W.$ 6 b ) W.]+^+= # d.T.Q.Q., w /+p.d.{+",
"2.9 8 c.6 g.M D #.# <.D 8 9 # 2., o 7 6 Q.(+(.D 3 e _+=.<.j.c /.",
"y r 3 x - 9 L :+X 7.o.e.R s.6 C 3.r r C 3 C H.o 9 a D m.R <+6 [+",
"9.j.L Q N B , 8 ^.9.#.z., }+7 ' i.:.3 f.N B 2.Z.|+v /.= /.1+7 3 ",
"y.2+3 g., 3+4+&.Q > N ~ 3 ) ) 5+0 2+6 u.#.% 2.6+|.D N *., H.) }.",
";+t u.'+7+' 1+, X e y :.8.N 8+3 l.t R z 9+d.2.#.9 {+B.j.x 0+a+b+",
"w c.9 8.+.c+N e d+9 t.p.s., # {+~+3.e+0 {+1+O |.W B ! # f+g+h+i+",
"j+k+l+m+].(.= :.N D 9 &.W.<.n+> , D o V.g.c.* :.N H.9 o+p+q+r+s+",
"t+u+v+w+z.x+l.y+) ^.7 7 > = N f./.Q 3 d z+9 /.A+D [+7 B+C+D+E+F+",
"G+H+I+J+r (.b.D #.K+B 3 d.# C.c+u 0 ~+7.3 p.L+H., 9 7 M+N+O+P+Q+",
"R+S+T+U+V+o *.e z.; ; 7+6 o % u.b W+H.(.6 K+=.O.# r 4 [.X+Y+Z+`+",
" @.@+@@@#@$@7 7.0 e N 3.O H.8 %@0 0 /.(.3 - 7 Q.w.# 7 z+&@*@=@-@",
";@>@,@'@)@}+B x ! a 7 /.!@u 3 K.:.' N * N L N ~@++3 {@u.]@^@/@(@",
"_@:@<@[@}@p.v /.# l.3 T.(.6 |@) ].$ #.x C u.u.A n+1@D w.2@3@4@5@",
"6@7@8@9@0@* a@C /.x 4 3.4 3 a w.<.X #+f.c ' k.9 Q.o l.$ b@c@d@e@",
"f@g@h@i@9.B j.z  +w z y.!+I.'+M 3+r :.t :+B j@c .+!@z k@l@m@n@o@"};
