/* XPM */
static char * ground_33px_right_xpm[] = {
"33 66 309 2",
"  	c #AA834B",
". 	c #AD894D",
"+ 	c #AC874C",
"@ 	c #A98348",
"# 	c #A78046",
"$ 	c #A77F46",
"% 	c #A88147",
"& 	c #AB854A",
"* 	c #AD884D",
"= 	c #AC864C",
"- 	c #A98149",
"; 	c #A88047",
"> 	c #A88148",
", 	c #AA824A",
"' 	c #B29251",
") 	c #AF8D4D",
"! 	c #A78243",
"~ 	c #A2793C",
"{ 	c #A2783B",
"] 	c #A57E40",
"^ 	c #AC894A",
"/ 	c #B19150",
"( 	c #B29351",
"_ 	c #AF8C4F",
": 	c #AB844B",
"< 	c #A77F45",
"[ 	c #A47B3F",
"} 	c #A57D42",
"| 	c #B49753",
"1 	c #B39552",
"2 	c #B08F4D",
"3 	c #A98544",
"4 	c #A57E3D",
"5 	c #A47D3C",
"6 	c #A78241",
"7 	c #AD8C4A",
"8 	c #B29451",
"9 	c #B59853",
"0 	c #B49652",
"a 	c #B39451",
"b 	c #B08F50",
"c 	c #A88146",
"d 	c #A47B3E",
"e 	c #A57C41",
"f 	c #A98148",
"g 	c #B08F4F",
"h 	c #AE8B4D",
"i 	c #AE8D4B",
"j 	c #AE8E4B",
"k 	c #AE8E4A",
"l 	c #AE8C4D",
"m 	c #AF8D4F",
"n 	c #B69953",
"o 	c #B59953",
"p 	c #B59753",
"q 	c #AE8C4E",
"r 	c #AE8A4E",
"s 	c #AE8B4E",
"t 	c #B08E4F",
"u 	c #B19050",
"v 	c #AD8A4C",
"w 	c #A88246",
"x 	c #A9824A",
"y 	c #B29350",
"z 	c #B2934F",
"A 	c #AF8F4D",
"B 	c #AB874A",
"C 	c #AA8449",
"D 	c #AD8B4B",
"E 	c #B1914E",
"F 	c #B1924E",
"G 	c #B29450",
"H 	c #AF8C4E",
"I 	c #AB854C",
"J 	c #AF8E4F",
"K 	c #AA824B",
"L 	c #AB864C",
"M 	c #AA844B",
"N 	c #AC874D",
"O 	c #AA8646",
"P 	c #A47D3E",
"Q 	c #A57F3F",
"R 	c #A78240",
"S 	c #A88342",
"T 	c #AB8748",
"U 	c #AD8A4D",
"V 	c #AC884D",
"W 	c #AB844C",
"X 	c #AB874B",
"Y 	c #AB864A",
"Z 	c #AC884C",
"` 	c #A78045",
" .	c #A37A3C",
"..	c #A07636",
"+.	c #9F7534",
"@.	c #A07635",
"#.	c #A17738",
"$.	c #A2793A",
"%.	c #A37B3B",
"&.	c #A47D3D",
"*.	c #A78144",
"=.	c #AA834A",
"-.	c #B39452",
";.	c #A67F43",
">.	c #A67F42",
",.	c #AC884B",
"'.	c #A07637",
").	c #9F7433",
"!.	c #9E7433",
"~.	c #A3793D",
"{.	c #AC8A49",
"].	c #A37B3E",
"^.	c #A37A3D",
"/.	c #A77F44",
"(.	c #9F7635",
"_.	c #9F7535",
":.	c #A2793B",
"<.	c #A67E43",
"[.	c #AA844A",
"}.	c #AF8D4E",
"|.	c #B19250",
"1.	c #A98249",
"2.	c #B0904E",
"3.	c #AF8E4D",
"4.	c #A98248",
"5.	c #A67E44",
"6.	c #AB8749",
"7.	c #A67E41",
"8.	c #A67D43",
"9.	c #A98545",
"0.	c #A78242",
"a.	c #A57D3F",
"b.	c #A37A3E",
"c.	c #A88247",
"d.	c #A98247",
"e.	c #A47C3F",
"f.	c #A17839",
"g.	c #A27939",
"h.	c #A17838",
"i.	c #B49752",
"j.	c #B39652",
"k.	c #A6803F",
"l.	c #A57E41",
"m.	c #A07736",
"n.	c #AE8B4C",
"o.	c #A98346",
"p.	c #A78043",
"q.	c #AA8645",
"r.	c #AB8846",
"s.	c #A88244",
"t.	c #A67F44",
"u.	c #B39351",
"v.	c #AB8849",
"w.	c #9E7332",
"x.	c #9E7432",
"y.	c #AD884C",
"z.	c #B1914F",
"A.	c #AD894C",
"B.	c #B39551",
"C.	c #AE8D4D",
"D.	c #A37C3D",
"E.	c #A27A39",
"F.	c #A27938",
"G.	c #AA834C",
"H.	c #A98645",
"I.	c #AA8448",
"J.	c #A68042",
"K.	c #AA8745",
"L.	c #AB8946",
"M.	c #AB8947",
"N.	c #AB854B",
"O.	c #A17837",
"P.	c #A37B3C",
"Q.	c #A78044",
"R.	c #A37B3D",
"S.	c #A17939",
"T.	c #A27B3A",
"U.	c #A88443",
"V.	c #A67E45",
"W.	c #A1783A",
"X.	c #A57D41",
"Y.	c #AA8649",
"Z.	c #AD8B4A",
"`.	c #AF8E4E",
" +	c #B49653",
".+	c #B29151",
"++	c #A9834A",
"@+	c #A88046",
"#+	c #A07737",
"$+	c #AA854A",
"%+	c #AC894B",
"&+	c #A47C41",
"*+	c #9F7533",
"=+	c #A2783A",
"-+	c #AB8649",
";+	c #AA8549",
">+	c #AB8847",
",+	c #A98444",
"'+	c #A67E42",
")+	c #AA8747",
"!+	c #A27A3A",
"~+	c #A47C40",
"{+	c #AD8A4B",
"]+	c #A98543",
"^+	c #A98643",
"/+	c #A98546",
"(+	c #AA8349",
"_+	c #B0904F",
":+	c #B08F4E",
"<+	c #B19151",
"[+	c #AE8B4F",
"}+	c #AC864D",
"|+	c #A57D43",
"1+	c #A88345",
"2+	c #A37B3A",
"3+	c #A37C3B",
"4+	c #AB864B",
"5+	c #AC8948",
"6+	c #A88245",
"7+	c #A17739",
"8+	c #A68040",
"9+	c #A78341",
"0+	c #A88442",
"a+	c #A88341",
"b+	c #AB8848",
"c+	c #A67F41",
"d+	c #A98448",
"e+	c #AE8C4C",
"f+	c #B1934F",
"g+	c #B39450",
"h+	c #A47C3E",
"i+	c #A68140",
"j+	c #A47D3F",
"k+	c #B18F50",
"l+	c #B59854",
"m+	c #B69954",
"n+	c #AE8D4C",
"o+	c #AF8E4C",
"p+	c #AE8A4D",
"q+	c #AD8A4A",
"r+	c #A57E3F",
"s+	c #B08E50",
"t+	c #AD8B49",
"u+	c #A98547",
"v+	c #A88145",
"w+	c #AA8647",
"x+	c #B29250",
"y+	c #AD8C4B",
"z+	c #A88543",
"A+	c #A68240",
"B+	c #A27A3B",
"C+	c #B19251",
"D+	c #B0904D",
"E+	c #B0914D",
"F+	c #A6803E",
"G+	c #A6813F",
"H+	c #AA8744",
"I+	c #AF8F4C",
"J+	c #A5803E",
"K+	c #A57F40",
"L+	c #AC8947",
"M+	c #B0904C",
"N+	c #AA8548",
"O+	c #B49552",
"P+	c #B49651",
"Q+	c #B1924F",
"R+	c #A47C3D",
"S+	c #AC8A47",
"T+	c #A37D3B",
"U+	c #AD8C49",
"V+	c #AE8D4A",
"W+	c #AD8D49",
"X+	c #AC884A",
"Y+	c #A47E3D",
"Z+	c #A07836",
"`+	c #B59752",
" @	c #9F7634",
".@	c #A07738",
"+@	c #A27B39",
"@@	c #A98644",
"#@	c #AF8F4B",
"$@	c #B09050",
"%@	c #AC8B48",
"&@	c #AC8A48",
"*@	c #B1904F",
"=@	c #A98349",
"-@	c #A47B40",
";@	c #A37B3F",
">@	c #A78142",
",@	c #A67F40",
"'@	c #A57D40",
")@	c #A98347",
"!@	c #AD894E",
"~@	c #AE8C4F",
"{@	c #A57C40",
"]@	c #A88343",
"^@	c #AE8C4B",
"/@	c #A9824B",
"(@	c #AC874B",
"_@	c #AB8A47",
":@	c #B08E4E",
"<@	c #A37C3C",
"[@	c #A78143",
"}@	c #A98446",
"|@	c #9F7434",
"1@	c #A78340",
"2@	c #B2924F",
"3@	c #AD8B4D",
"4@	c #AC8B49",
"                                                                  ",
". . . + @ # $ % & * . * * * * * . . . * =   - ; > ,               ",
"' ' ' ) ! ~ { ] ^ / ( ' ' ' ' ' ' ' ( / _ : < [ } -               ",
"| | 1 2 3 4 5 6 7 8 | 9 9 9 9 9 0 a a ( b . c d e f               ",
"1 1 g h i j k i l m ( 9 n o o p ' q r s t u v w ; x               ",
"/ / q s u y z A B C D E F F G ( H I I * J ' m I K   I + L M : = N ",
"m m b u J v O 6 P d Q R R S T . N I U b g q V W     * t m = N t / ",
"X Y g u Z `  ...+.@.#.$.%.&.*.=.  W q / m L       M U / u r s / -.",
";.>.B ,.*.~ '.).!...~.;.O {.B   K   N r V   K       = r J u u m _ ",
"].^./.<  .(.+._...:.<.[.}.|.m N = = + N N = M 1.1.    : . 2.3.Y 4.",
"e e [ ~ '.!.!...^.5.> : * _ g u u u u u u g 6.7.8.-     C 9.0.a.b.",
"c.d.e.f.g.g.h.:.5.x     I * t a 0 i.0 1 0 j.7 k.l.4.  - <.:.m.@.@.",
"n.h o.p.q.r.s.t.>     I r b t t ( | u.b ' i.z 7 v.[.; e { _.w.x.!.",
"u / U y.g z.A.=.,   x [.l z.q + J ( t V H a B.z C.[.t.D.E.E.F.F.F.",
"t t b b b _ N W G.x < l.0.H.I.  V s * W N q D r.0.] J.K.L.L.L.M.M.",
". . u / r N.=.1.1.; [ #.O.P.Q.M = = I M W M ` R.S.T.U.A B.B.B.a G ",
"= = s _ N 1.V.e e [ f.@.W.X.Y.}.t m . M K x $ } J.q.Z.`.( p  +.+b ",
"=.++=.[.=.@+].#+......f.} $+t 1 | 1 t + W I   =.%+2.3.,.U |./ . I ",
"5.e &+e e d #.*+x._.=+l.-+t -.9 n 9 ( g m m . I ;+>+,+'+J.9.)+[.  ",
"e.g.f.f.f.#.'...@.f.} $+m a 0 | p 9 | 0 0 1 b + c P T.!+!+%.] %   ",
"9.S ] [ [ [ [ ~+[ >.B m b u u u -.9 o o n 9 -.g {+K.]+^+^+^+/+(+  ",
"_+2.,.1.- f > > ; C ) / H L N.+ g 0 p | p | 0 1 a y y G G z :+Z : ",
"0  +<+[+}+=.# <.|+p.O >+1+} e <.-+J u u u u u u u / -.p  +' b m _ ",
"i.i.1 / . % [ f.#.f.2+3+!+$.f. .Q.4+N = = = = = = + m a ' s s / -.",
"/ _+j 5+6+~+7+@.f.].8+9+0+a+9+U.b+U N   K K K K K   * t _ = N m / ",
"+ I.c+3+!+f...f.X.d+e+E z f+f+z g+( m L   M M M     M L N.  M L + ",
"$ } [ h+k.i+j+l.;+H k+'  +l+m+o n 9 ' _ s s s s Y ` 8.8.8.5.$ - K ",
"[ ^.<.C n+o+6.C ) / }.p+u i.9 9 9 p 0 1 -.-.1 ( q+r+W.W.W.$.~+%   ",
"7.~+; N s+t -+w b+t+u+v+w+i 2./ ' ' 1 9 o 9 0 x+y+z+A+A+A+R ,+,.s ",
"Y > x : + $+l.B+3+5 %.:.%.Q o.+ V . u 0 o p C+s h D+E+E+E+E+F y a ",
"V x ; < < } W.m.3+F+G+k.k.i+6+x K M r / ( / q L . u ( ' ' ' ' ' ' ",
"I > ~+:.=+f...E.H+I+E+D+E+I+A.M K   L V . * = M I V . . . . . . . ",
"< /.8+J+J+4 P.] ^ (  +9 o | u r . . L M L * + M                   ",
":.K+L+I+M+i N+c.& s ( 9 o 9 O+( ( ' s L r u m I                   ",
"&.U.o+( -.u . M   L m ( u.a 0 9 9 | / s m / b r * * * * . . N I   ",
"Z.o+l r r . L     M + . . s ' p o 9 0 ( t s m / ' ' ' ' ' ' t N   ",
") n+Y.% ; ; ; ; @+; 1.    I H ( a a a ( g r m ' O+p 9 9 P+Q+e+I.; ",
"s.8+R+~ ~ ~ ~ ~ ~ [ < x     + U r r r s t u g H u 0 m+9 F K.Q D.^.",
"$.(.+.m.!+5 5 5 5 Q o.L I             I s / b r m ' a F S+T++.+.+.",
"..!.!.E.]+U+V+V+W+i 2.g . M K K K K K   = s t u b q X+U.Y+Z+).).*+",
"+.@.E.6 I+i.9 i.i.`+9 0 t V + + + + I   1.1.%+2 n+C } f. @+.@..@f.",
").+@@@#@B.9 m+m+m+m+n 9 a / u / / $@r M V.[ r+6 8+d W._.!.*+f.~+<.",
"E.R i B.| p 0 1 1 1 1 O+0 | 0 1 0 0 u Z v+&.3+3+2+S.7+#.#.#.].# , ",
">+Z.l b 1 0 / _ _ _ _ t -.| ( b ( | 1 / 3.U+%@&@O p.} } } |+< -   ",
"*@/ s s / ' s : =.=@1.$+) z.n.Y q a O+1 a a a ( `.4+=.N.N.N.N.L L ",
"t t g g J s }+1.5.-@;@~+>@0+,@'@)@h m m m m J m !@I N m u u $@$@$@",
". . u / r : x # b.'.(...h.g.E.P.*.4+= I W W W W I L s ' 0 0 0 1 1 ",
"L L s ~@N 1.5.d #.+.x._.{ {@]@>+^@}..   /@K /@  V m b b ' | 0 / J ",
"=.1.=.=.++# b...+.+.(.f.'+& `.B.i.1 g N I I M M U z.`.(@v z.z.. I ",
"8.-@-@~+~+].#.*+!.@.:.'+B g 1 9 m+9 a b t m . : ;+O ]@l.c+3 w+C   ",
"e.g.f.f.7+#.#+....W.'+& J a 0 i.p 9 p 0 i.O+$@+ c P T.!+!+%.] %   ",
"O U.c+~+[ [ -@-@[ '+-+m b g t $@a 9 m+m+m+9 1 g D r.H+H+H+H+O C   ",
"_+:+(@1.1.(+(+(+=@4+g ( t V I + t B.0 P+P+P+0 1 a G y y G y :++   ",
"b m N L r m J m m b -.| ( m N : -+5+S+S+_@S+7 :@b b b b u u _ =   ",
"p+I M N b -.1 1 1 1 0 i.0 x+s (+'+%.E.E.+@<@[@Y N N N N + = I M   ",
"$+K K L q u u u u u u _+o+&@}@'+:.+.w.+.2+9+b+h H q H q . W K K   ",
"d.M : I = + + = L L L $+J.%.S.#.'.@.+.O.0+M+a B.1 1 1 -.b V M M M ",
"{+q H q s . I x $ 8.|+&+W.|@w.+.7+R.K+U.{._+-.9 n 9 0 ' b m s s s ",
"a a -.-.1 ' r 1.X.$.f.f.#+@. @#+[ % {+2.`.U t O+9 p ' s s ' 1 1 1 ",
"' / / ( 0 0 u v O 9+1@9+9+9+9+S o.M r u b H m u / / H = r -.m+m+o ",
"N N N s ( | 0 8 2@F F F F F F 2.3@N.I V m ' b . N N I M U ( 9 9 9 ",
"      = m ' ' ' ' ' ' ' ' ' ' <+s W K M r b H I     - # }@4@k k k ",
"      M = V V V V V V V V V * V L       I N = M     $ ].B+5 Y+Y+Y+",
"      x ; < < < < < < < < < < $ > =.                # [ :.:.~ ~ ~ ",
"      > ~+:.W.=+=+=+=+=+=+=+W.~ <.x                 1.; # $ $ $ $ ",
"      ;  ._.*++.+.+.+.+.+.+.*+'.e 1.                              "};
