/* XPM */
static char * ground_16px_left_xpm[] = {
"16 66 248 2",
"  	c #AA834B",
". 	c #A88047",
"+ 	c #A37A3D",
"@ 	c #9F7535",
"# 	c #9F7533",
"$ 	c #9F7534",
"% 	c #A07737",
"& 	c #A57D41",
"* 	c #A9824A",
"= 	c #A88148",
"- 	c #A88046",
"; 	c #A78046",
"> 	c #A67E43",
", 	c #A2793B",
"' 	c #9F7433",
") 	c #A07635",
"! 	c #A27B3A",
"~ 	c #A47E3D",
"{ 	c #A57F3D",
"] 	c #A6803F",
"^ 	c #A98446",
"/ 	c #AC874C",
"( 	c #A57C41",
"_ 	c #A2793C",
": 	c #A2793A",
"< 	c #A07637",
"[ 	c #A17938",
"} 	c #A98543",
"| 	c #AE8E4A",
"1 	c #AF8F4C",
"2 	c #B1914E",
"3 	c #B19150",
"4 	c #A2783A",
"5 	c #9F7635",
"6 	c #A17738",
"7 	c #A37B3B",
"8 	c #A68140",
"9 	c #AD8B49",
"0 	c #B29350",
"a 	c #B49652",
"b 	c #B49753",
"c 	c #B29351",
"d 	c #A37A3C",
"e 	c #A07636",
"f 	c #A47B3F",
"g 	c #A88145",
"h 	c #AC8949",
"i 	c #AE8D4B",
"j 	c #AE8C4D",
"k 	c #AF8D4F",
"l 	c #B49653",
"m 	c #B19151",
"n 	c #AF8C4E",
"o 	c #A1783A",
"p 	c #A17839",
"q 	c #A77F45",
"r 	c #AB864B",
"s 	c #B08E4F",
"t 	c #AE8A4E",
"u 	c #B08F4F",
"v 	c #B29251",
"w 	c #AF8E4F",
"x 	c #A67E44",
"y 	c #A98149",
"z 	c #AB844C",
"A 	c #AD884D",
"B 	c #AE8C4E",
"C 	c #B08F50",
"D 	c #B19050",
"E 	c #A98249",
"F 	c #AB854C",
"G 	c #AB864C",
"H 	c #AB844B",
"I 	c #AA844B",
"J 	c #AD894D",
"K 	c #B09050",
"L 	c #AD8A4E",
"M 	c #A37B3E",
"N 	c #A57D42",
"O 	c #AC864C",
"P 	c #AE8B4E",
"Q 	c #B08E50",
"R 	c #AC884C",
"S 	c #AB854A",
"T 	c #AF8D4E",
"U 	c #AD8A4C",
"V 	c #A98348",
"W 	c #9E7433",
"X 	c #A67E45",
"Y 	c #AD894E",
"Z 	c #AC894C",
"` 	c #A88144",
" .	c #A67F42",
"..	c #AB8649",
"+.	c #A88245",
"@.	c #A57E41",
"#.	c #AA8548",
"$.	c #A98447",
"%.	c #A27A39",
"&.	c #A47D3E",
"*.	c #A98347",
"=.	c #AC874D",
"-.	c #AA8449",
";.	c #A47C3E",
">.	c #A67E42",
",.	c #A47C40",
"'.	c #A27A3C",
").	c #A88146",
"!.	c #AC8A47",
"~.	c #AD8C4A",
"{.	c #AF8E4D",
"].	c #AD8A4B",
"^.	c #A57E3E",
"/.	c #A37B3F",
"(.	c #A47C41",
"_.	c #A37A3E",
":.	c #A17739",
"<.	c #9F7434",
"[.	c #B39451",
"}.	c #B39551",
"|.	c #B59753",
"1.	c #B1924E",
"2.	c #A88543",
"3.	c #A78044",
"4.	c #A98248",
"5.	c #A57E42",
"6.	c #A17838",
"7.	c #B59953",
"8.	c #B39651",
"9.	c #AF8F4B",
"0.	c #AA8746",
"a.	c #A78042",
"b.	c #A78043",
"c.	c #AC884A",
"d.	c #A88344",
"e.	c #B59853",
"f.	c #B49752",
"g.	c #AE8B4D",
"h.	c #B29250",
"i.	c #AC874B",
"j.	c #B1914F",
"k.	c #B39552",
"l.	c #B69954",
"m.	c #B29450",
"n.	c #B1904F",
"o.	c #AD8A4D",
"p.	c #AB8946",
"q.	c #AB8747",
"r.	c #AC884D",
"s.	c #A27A3A",
"t.	c #A47D3F",
"u.	c #A88247",
"v.	c #AA834A",
"w.	c #AA844A",
"x.	c #A98148",
"y.	c #A67F43",
"z.	c #AA824B",
"A.	c #AB874B",
"B.	c #B49552",
"C.	c #A88342",
"D.	c #A57F40",
"E.	c #A47B3E",
"F.	c #B0914E",
"G.	c #A98349",
"H.	c #AF8C4F",
"I.	c #AB854B",
"J.	c #AE8A4D",
"K.	c #A67D43",
"L.	c #A88246",
"M.	c #AE8B4C",
"N.	c #B29151",
"O.	c #B0904F",
"P.	c #AC884B",
"Q.	c #A67F44",
"R.	c #A47C3F",
"S.	c #A78240",
"T.	c #A68240",
"U.	c #A88443",
"V.	c #A57D43",
"W.	c #B0914D",
"X.	c #AF8F4D",
"Y.	c #A88343",
"Z.	c #AF8E4E",
"`.	c #A77F46",
" +	c #AB864A",
".+	c #A78243",
"++	c #A57F3E",
"@+	c #B0904D",
"#+	c #AA8547",
"$+	c #B19250",
"%+	c #B39351",
"&+	c #B39452",
"*+	c #AA8448",
"=+	c #B08F4E",
"-+	c #AB8947",
";+	c #A88442",
">+	c #A78341",
",+	c #A57D3E",
"'+	c #A37B3D",
")+	c #A57E3F",
"!+	c #AE8D4C",
"~+	c #AE8E4B",
"{+	c #A07736",
"]+	c #A37C3B",
"^+	c #A47D3C",
"/+	c #AB874A",
"(+	c #A27B39",
"_+	c #9E7332",
":+	c #AC8A48",
"<+	c #AD8C49",
"[+	c #A17837",
"}+	c #B59752",
"|+	c #A2783B",
"1+	c #B2934F",
"2+	c #A07738",
"3+	c #A57E3D",
"4+	c #AA8646",
"5+	c #AC8A49",
"6+	c #AE8C4C",
"7+	c #AD894C",
"8+	c #B49651",
"9+	c #B29451",
"0+	c #AA8845",
"a+	c #AA8747",
"b+	c #AC894B",
"c+	c #A47B40",
"d+	c #A47B41",
"e+	c #A1773A",
"f+	c #B0904E",
"g+	c #A27939",
"h+	c #A88345",
"i+	c #A57E40",
"j+	c #A78241",
"k+	c #A98643",
"l+	c #A98644",
"m+	c #AA854A",
"n+	c #AE8D4D",
"o+	c #AA824A",
"p+	c #A78045",
"q+	c #A67F40",
"r+	c #A98645",
"s+	c #A68042",
"t+	c #AD8B4B",
"u+	c #AE8D49",
"v+	c #A98544",
"w+	c #AB8748",
"x+	c #B39550",
"y+	c #B1924F",
"          . + @ # $ $ $ # % & * ",
"  * = - ; > , $ ' ) ! ~ { ] ^ / ",
"  = ( _ _ : < $ ' [ } | 1 1 2 3 ",
". > 4 $ $ 5 6 : 7 8 9 0 a b a c ",
"d 4 e # ' % f g h i j k c l m n ",
"o o p p p + q r s 3 k t u v w t ",
"x x x x x q y z A B C D k B w 3 ",
". = E   F G H I G J K v k L s c ",
"M N = O k s A O P C s k u D Q B ",
"@ , q / C D R S T 3 U S T 3 j V ",
"W o X F Y Z `  ...U +.@.#.U $.f ",
"%.&.*.O =.-.;.: >.- ,.'.>.).,.% ",
"!.~.{.C C ].^.e o /.(.( ,._.:.<.",
"[.}.a b |.1.2.%.6 '.3.4.5.: 6.[ ",
"w D a 7.7.8.9.0.a.b.c.j #. .d.0.",
"/ P v a e.e.f.0 g./ s h.B i.T j.",
"s s s D k.e.l.|.c C s s u C C s ",
"m.n.o.J 3 a b a a c P A s v k O ",
"p.q.-.F t s u u C k r.F t k Y   ",
"s.t.u.F O / O G G F   v.w.I I x.",
"/.y.c.T k t G z.z.* q N ( ( N ,.",
"x.A.n.B.a v P z   E & : p p p :.",
"  J c e.7.a 3 P O v.^ C.D.E._.M ",
"  A v |.e.e.a v t / T F.U G.= = ",
"  =.k v a e.7.f.3 s [.b v H.=.I ",
"v.  I.J.v |.e.b B.k.a b a c P v.",
"> K.K.L.M.D m m N.N.m m v O.P.Q.",
": 4 4 R.*./ r./ / / / / =.r y.: ",
"S.T.S.U.c.R V Q.x x x x x V._ @ ",
"W.W.W.1.0 X.Y., o o o o 4 p % @ ",
"v v v c c Z.d.+ _ _ _ _ _ _ _ _ ",
"J J J J J / G.; `.; ; ; ; ; ; ; ",
"      * . q q q q ; E           ",
"      = (., , , , M q           ",
"  z =. +.+++{ ~ 7 + X v.O A J R ",
"  / s 3 @+9.9.~.#+; = I.n 3 c n.",
"  =.u [.f.f.k.$+n A r.L u %+b }.",
"  F A w &+a D H.C v v 3 w k c B.",
"  H O P 3 v k o.Z.2 1.@+c.*+].X.",
"  =.k K k H.C =+-+;+>+S.,+'+)+8 ",
"=  +u n.P.S !+~+S.{+$ {+%.]+^+^+",
"M y./+P.3.t.8 8 (+$ _+{+S.:+<+9 ",
"5 , > q d e ) ) $ 5 [+{ <+}.}+f.",
"' e |+|+< W _+_+_+[+S.<+1+e.l.l.",
"2+6.s.! %.%.%.%.%.3+:+0 f.|.b a ",
"N b.4+!.!.!.!.!.!.5+6+u &+a v w ",
"I.7+O.[.8.8+8+8+a 9+B A D k.s O ",
"D C Q 3 a l.l.l.l.a n / C k.s F ",
"m.O.J J 3 a f.a f.[.P / s c n v.",
"0+a+-.F t k s s Q k r.F L B #.>.",
"s.t.u.F O O I.w.w.w.v.* v.V & 6 ",
"f b.b+w s U L.( c+d+(.(.(.f e+<.",
"E r u k.B.f+Y.: p g+g+g+g+g+6.[+",
"  O n D D j h+i+j+k+l+k+k+k+l+l+",
"  I F G O I.v.m+n+1+0 1+1+1+m.m.",
"    z.z.z.z.z.F P D D D D v B.e.",
"o+    I I I I z O =.=./ O R u a ",
"> ).P.B n B B B B P P J V p+/+u ",
"p q+i [.k.&+&+[.[.&+k.j.r+;.3.r ",
"+ s+t+3 v 3 3 3 3 v a 8.u+v+w+J ",
". E I.=.r.=.=.=.=.t m a x+y+0 c ",
"                z.F B 3 v c a a ",
"                  I G r.r.t 3 k.",
"                          F B D ",
"                            G r.",
"                                "};
