/* XPM */
static char * ground_50px_down_xpm[] = {
"66 50 335 2",
"  	c #B08E4F",
". 	c #B19050",
"+ 	c #B39552",
"@ 	c #B59853",
"# 	c #B69954",
"$ 	c #B59753",
"% 	c #B29351",
"& 	c #B08F50",
"* 	c #B08F4F",
"= 	c #AD894E",
"- 	c #AB854C",
"; 	c #AA834C",
"> 	c #AA834B",
", 	c #A88047",
"' 	c #A67E42",
") 	c #A78143",
"! 	c #A98644",
"~ 	c #A88343",
"{ 	c #A57E41",
"] 	c #A88246",
"^ 	c #AD8B4C",
"/ 	c #AE8B4E",
"( 	c #AC864C",
"_ 	c #AF8C4F",
": 	c #AC874D",
"< 	c #A98249",
"[ 	c #A67E45",
"} 	c #A57C41",
"| 	c #A47B3F",
"1 	c #A17839",
"2 	c #A07635",
"3 	c #A1783A",
"4 	c #A57D41",
"5 	c #AA8649",
"6 	c #AF8D4E",
"7 	c #AF8D4F",
"8 	c #AD894D",
"9 	c #AA844B",
"0 	c #AA824B",
"a 	c #A9824A",
"b 	c #A77F46",
"c 	c #A57D42",
"d 	c #A68042",
"e 	c #AA8645",
"f 	c #AD8B4A",
"g 	c #AF8E4E",
"h 	c #B49653",
"i 	c #B29151",
"j 	c #B29450",
"k 	c #B1904F",
"l 	c #AD8A4D",
"m 	c #B19150",
"n 	c #B49652",
"o 	c #B49753",
"p 	c #AD884D",
"q 	c #B29251",
"r 	c #A98149",
"s 	c #A17837",
"t 	c #A27939",
"u 	c #A27A39",
"v 	c #A27A3A",
"w 	c #A98349",
"x 	c #AB844B",
"y 	c #AA834A",
"z 	c #A9834A",
"A 	c #AA844A",
"B 	c #A88046",
"C 	c #A37B3E",
"D 	c #A07737",
"E 	c #A07636",
"F 	c #AA854A",
"G 	c #AC874C",
"H 	c #AB844C",
"I 	c #AC894B",
"J 	c #B0904E",
"K 	c #AF8E4D",
"L 	c #AC884B",
"M 	c #B19250",
"N 	c #AB8946",
"O 	c #AB8747",
"P 	c #AA8449",
"Q 	c #AE8A4E",
"R 	c #AC884D",
"S 	c #A2793B",
"T 	c #A07738",
"U 	c #A68041",
"V 	c #A98544",
"W 	c #AA8547",
"X 	c #AA8349",
"Y 	c #A88148",
"Z 	c #A67E44",
"` 	c #A47C41",
" .	c #A47B3E",
"..	c #A17738",
"+.	c #9F7533",
"@.	c #9E7432",
"#.	c #9F7535",
"$.	c #A2783A",
"%.	c #AB8649",
"&.	c #B39452",
"*.	c #B69953",
"=.	c #AA8549",
"-.	c #AB8847",
";.	c #A98444",
">.	c #A98545",
",.	c #AA8747",
"'.	c #A47D3F",
").	c #A88247",
"!.	c #AB864C",
"~.	c #A98148",
"{.	c #A07637",
"].	c #A37A3E",
"^.	c #A88147",
"/.	c #AD8A4C",
"(.	c #B1914F",
"_.	c #B0904F",
":.	c #A47C3F",
"<.	c #B39451",
"[.	c #A88146",
"}.	c #A47D3E",
"|.	c #A27B3A",
"1.	c #A37B3B",
"2.	c #A57E40",
"3.	c #A37B3F",
"4.	c #A67F43",
"5.	c #AC884A",
"6.	c #A77F45",
"7.	c #A47C40",
"8.	c #9F7534",
"9.	c #B49552",
"0.	c #AD8A4E",
"a.	c #A88342",
"b.	c #A67F42",
"c.	c #AB874A",
"d.	c #B59953",
"e.	c #AD8A4B",
"f.	c #AA8745",
"g.	c #A98543",
"h.	c #A98643",
"i.	c #A98546",
"j.	c #AB874B",
"k.	c #A2793A",
"l.	c #A17739",
"m.	c #AF8D4D",
"n.	c #AF8C4E",
"o.	c #AB854B",
"p.	c #B29350",
"q.	c #B2934F",
"r.	c #B08F4E",
"s.	c #AC884C",
"t.	c #A98446",
"u.	c #A57F40",
"v.	c #A57C40",
"w.	c #A98447",
"x.	c #AE8A4D",
"y.	c #B39351",
"z.	c #B09050",
"A.	c #B19151",
"B.	c #AE8B4F",
"C.	c #AC864D",
"D.	c #A78046",
"E.	c #A67E43",
"F.	c #A57D43",
"G.	c #A78043",
"H.	c #AA8646",
"I.	c #A88345",
"J.	c #AF8E4F",
"K.	c #B0914E",
"L.	c #A98248",
"M.	c #AB864B",
"N.	c #B49752",
"O.	c #A37B3A",
"P.	c #A37C3B",
"Q.	c #A37A3C",
"R.	c #A78044",
"S.	c #A77F44",
"T.	c #AC8948",
"U.	c #A67D43",
"V.	c #A88245",
"W.	c #AB8948",
"X.	c #AE8D4B",
"Y.	c #AE8E4B",
"Z.	c #A68040",
"`.	c #A78341",
" +	c #A88442",
".+	c #A88341",
"++	c #A88443",
"@+	c #AB8848",
"#+	c #A37C3C",
"$+	c #AA8448",
"%+	c #A67F41",
"&+	c #A98448",
"*+	c #AE8C4C",
"=+	c #B1914E",
"-+	c #B1934F",
";+	c #B39450",
">+	c #AE8B4C",
",+	c #A67F44",
"'+	c #A2793C",
")+	c #9E7433",
"!+	c #A27B39",
"~+	c #A6813F",
"{+	c #A78340",
"]+	c #A78241",
"^+	c #A88244",
"/+	c #A47C3E",
"(+	c #A6803F",
"_+	c #A68140",
":+	c #B18F50",
"<+	c #B59854",
"[+	c #AB864A",
"}+	c #A78045",
"|+	c #A98347",
"1+	c #A07837",
"2+	c #AF8E4B",
"3+	c #B1924E",
"4+	c #A37A3D",
"5+	c #AE8D4C",
"6+	c #AF8E4C",
"7+	c #AB8749",
"8+	c #AD8A4A",
"9+	c #A57E3F",
"0+	c #A78240",
"a+	c #A68240",
"b+	c #A98348",
"c+	c #9F7635",
"d+	c #A67E41",
"e+	c #B08E50",
"f+	c #AD8B49",
"g+	c #A98547",
"h+	c #A88145",
"i+	c #AA8647",
"j+	c #B29250",
"k+	c #AD8C4B",
"l+	c #A88543",
"m+	c #B0914D",
"n+	c #AF8F4D",
"o+	c #9F7433",
"p+	c #A27A3B",
"q+	c #A47D3C",
"r+	c #A57F3F",
"s+	c #A98346",
"t+	c #B19251",
"u+	c #AE8B4D",
"v+	c #B0904D",
"w+	c #A88344",
"x+	c #A07736",
"y+	c #A6803E",
"z+	c #AE8C4E",
"A+	c #AA8744",
"B+	c #AF8F4C",
"C+	c #AD894C",
"D+	c #A5803E",
"E+	c #A57E3D",
"F+	c #A37B3C",
"G+	c #AC894A",
"H+	c #A67F45",
"I+	c #A2783B",
"J+	c #AC8947",
"K+	c #B0904C",
"L+	c #AA8548",
"M+	c #AB854A",
"N+	c #A78243",
"O+	c #A57F3E",
"P+	c #A57F3D",
"Q+	c #A47E3D",
"R+	c #A17938",
"S+	c #A47D3D",
"T+	c #A37A3B",
"U+	c #AF8F4B",
"V+	c #AD8C4A",
"W+	c #9F7634",
"X+	c #AC8B48",
"Y+	c #AC8A49",
"Z+	c #AE8C4D",
"`+	c #B39551",
" @	c #A47C3D",
".@	c #B49651",
"+@	c #B1924F",
"@@	c #A37C3D",
"#@	c #A88048",
"$@	c #AC8A47",
"%@	c #A37D3B",
"&@	c #AB8947",
"*@	c #A57D3E",
"=@	c #A37B3D",
"-@	c #AA824A",
";@	c #AD8C49",
">@	c #AE8D4A",
",@	c #AD8D49",
"'@	c #A07836",
")@	c #A78144",
"!@	c #B59752",
"~@	c #B08F4D",
"{@	c #9E7332",
"]@	c #AC8A48",
"^@	c #AD8B48",
"/@	c #A17838",
"(@	c #A17939",
"_@	c #AA8746",
":@	c #A47B40",
"<@	c #A78142",
"[@	c #A67F40",
"}@	c #A57D40",
"|@	c #B39651",
"1@	c #B29451",
"2@	c #A78242",
"3@	c #AE8C4F",
"4@	c #AE8C4B",
"5@	c #A9824B",
"6@	c #AC874B",
"7@	c #AA8845",
"8@	c #A78042",
"9@	c #A47B41",
"0@	c #A1773A",
"a@	c #9F7434",
"b@	c #AD8B4B",
"c@	c #AB8846",
"d@	c #AB8A47",
"e@	c #B08E4E",
"f@	c #AE8D4D",
"g@	c #AC8949",
"h@	c #A98247",
"i@	c #A17937",
"j@	c #A98645",
"k@	c #AE8D49",
"l@	c #AB8748",
"m@	c #A78140",
"n@	c #AA8846",
"o@	c #B39550",
"p@	c #B2924F",
"q@	c #AD8B4D",
"r@	c #AC8B49",
"s@	c #AE8E4A",
"t@	c #A88149",
"      . + @ # $ % &     * & &   = - ; > , ' ) ! ~ { ] ^         / ( ( / _ : < [ } } | 1 2 3 4 5 6   7 8 9 0 a b c d e f g % $ h i & ",
"j k l 8 m n o n n % / p   q 7 ( > a a r c 3 s t u v { w - - - - x y z y A y B C D E E E 1 c F   + o +   G H - > y I J K L l M m 8 - ",
"N O P - Q   * * & 7 R - Q 7 = > b c 4 } S E T C U V W X 0 0 0 0 Y Z } ` } }  ...+.@.#.$.{ %.  &.@ *.@ % * 7 7 8 - =.-.;.' d >.,.A > ",
"v '.).- ( G ( !.!.- > y A 9 9 ~.4 1 {.D E D ].^./.(._.R x x H > , :.t 1 1 1 ..{.E 2 1 c F 7 <.n o $ @ o n n + & G [.}.|.v v 1.2.^.> ",
"3.4.5.6 7 Q !.0 0 a 6.c } } c 7.S 8.@.8...C Z y _ 9.+ & 7 7 0.- X >.a.2.| | | | 7.| b.c.7 & . . . &.@ d.d.*.@ &.* e.f.g.h.h.h.i.X > ",
"~.j.k 9.n q / H > < 4 k.1 1 1 l.D E #.D :.^.y 9 / <.o n n 9.m 8 8 _.J L < r ~.Y Y , P m.m n.!.o.G * n $ o $ o n + <.p.p.j j q.r.s.x ",
"> 8 % @ d.n m / ( y t.a.u. .].C | | | v.w.x.= - p   y.$ # d.+ z.. n h A.B.C.y D.E.F.G.H.-.I.c } E.%.J.. . . . . . . m &.$ h q & 7 _ ",
"> p q $ @ @ n q Q G 6 K./.w Y Y Y ^., L./.m 6 o.> M.n.<.N.$ n + + N.N.+ m 8 ^.| 1 ..1 O.P.v k.1 Q.R.M.: ( ( ( ( ( ( G 7 <.q / / m &.",
"> : 7 q n @ d.N.m   <.o q _ : 9 Y S.E.S.i.T.H.R.c U.V.W.X._.m m m m _.Y.T.V.7.l.2 1 C Z.`. +.+`.++@+l : > 0 0 0 0 0 > p   _ ( : 7 m ",
"y > o.x.q $ @ o 9.+ n o n % / y c S ..1 v P.1.k.3 k.v #+d =.: : G G $+%+P.v 1 E 1 4 &+*+=+q.-+-+q.;+% 7 !.> 9 9 9 > > 9 !.o.> 9 !.G ",
"E.U.U.] >+. A.A.i i A.A.q _.L ,+'+2 )+8.!+~+`.`.`.`.{+]+^+< 0 0 r b c | /+(+_+'.{ =.n.:+q h <+# d.*.@ q _ / / / / [+}+U.U.U.Z b r 0 ",
"k.$.$.:.|+G R G G G G G : M.4.k.E 8.+.1+`.2+3+3+3+3+3+3+m.G > > , | 4+E.P 5+6+7+P m.m 6 x.. N.@ @ @ $ n + &.&.+ % 8+9+3 3 3 k.7.^.> ",
"0+a+0+++5.s.b+,+Z Z Z Z Z F.'+#.)+c+!+0+T.k 9.$ n y.&.$ &.J./ Q %.d+7., : e+  %.] @+f+g+h+i+X.J m q q + @ d.@ n j+k+l+a+a+a+0+;.L / ",
"m+m+m+3+p.n+~ S 3 3 3 3 $.1 D #.o+s a.Y.6 x.& + q /   + o + <.y.* [+Y a x G F { p+P.q+1.S 1.r+s+G R 8 . n d.$ t+/ u+v+m+m+m+m+3+p.<.",
"q q q % % g w+4+'+'+'+'+'+'+'+'+S  .i+* _ ( 0.. 7 ( p z.% % % q & R a , 6.6.c 3 x+P.y+~+(+(+_+V.a 0 9 Q m % m z+!.8 . % q q q q q q ",
"8 8 8 8 8 G w D.b D.D.D.D.D.D.D.D.^.A G ( 9 - : ( 9 - : 8 8 8 8 : - Y 7.S $.1 E u A+B+m+v+m+B+C+9 0 > !.R 8 p ( 9 - R 8 8 8 8 8 8 8 ",
"> > > a , 6.6.6.6.D.< > > > > > > > > > < B b b b 6.6.6.6.6.6.6.b 6.S.Z.D+D+E+F+2.G+% h @ d.o . Q 8 8 !.9 !.p G 9 > > > > > > > > > ",
"> > > Y ` S S S S C 6.> > > > > > > > a H+4+S S S S S S S S S S I+S u.J+B+K+X.L+).M+/ % @ d.@ 9.% % q / !.Q . 7 - > > > > > > > > > ",
"> H : [+N+O+P+Q+1.4+[ y ( p 8 s.A ^.D.6.| E o+8.R+q+P+P+P+P+S+T+p+S+++6+% &.. 8 9 > !.7 % y.<.n @ @ o m / 7 m & Q p p p p 8 8 : - > ",
"> G   m v+U+U+V+W D.Y o.n.m % k i+/+S S ..8.)+W+O+X+B+U+U+U+Y+s+|+f 6+Z+Q Q 8 !.> > 9 G 8 8 / q $ d.@ n %   / 7 m q q q q q q   : > ",
"> : * <.N.N.+ M n.p R 0.* y.o `+T. @3 k.1.q+q+P+f.J <.<.<.% * G G m.5+5 ^., , , , B , < > > - n.% <.<.<.% * Q 7 q 9.$ @ @ .@+@*+$+, ",
"> - p J.&.n . _ & q q m J.7 % 9.5+[.Z }+i+V+2+Y.5+/ / / / / 8 - w ^+Z. @'+'+'+'+'+'+| 6.a > > G l Q Q Q /   . * n.. n # @ 3+f.r+@@4+",
"> x ( / m q 7 l g =+3+v+5.$+e.n+e.L.#@> Q M <.%   ( > > 9 > y Y E.k.c+8.x+v q+q+q+q+r+s+!.- > > > > > > - / m & Q 7 q <.3+$@%@8.8.8.",
"> : 7 z.7 _ & r.&@ +`.0+*@=@9+_+9+| Z -@: Q _ / p H > > > > , } S E )+)+u g.;@>@>@,@X.J * 8 9 0 0 0 0 0 > ( /   . & z+5.++Q+'@o+o++.",
"Y [+* k L M+5+Y.0+x+8.x+u P.q+q+P.S+)@M.!.9 y L.Y Y Y Y Y ^.U.3 8.8.2 u ]+B+N.@ N.N.!@@ n   R G G G G - > < < I ~@5+P c 1 W+8.2 T 1 ",
"C 4.c.L R.'._+_+!+8.{@x+0+]@;@f+^@;@6+* / 9 6.| 4+4+4+4+4+4+I+E )+o+!+! U+`+@ # # # # *.@ <.m . m m z.Q 9 [ | 9+]+Z. .3 #.)++.1 7.E.",
"c+S E.6.Q.E 2 2 8.c+s P+;@`+!@N.N.N.$ n . s.}+Q.t O.P.P.P.1.v 1 /@u 0+X.`+o $ n + + + + 9.n o n + n n . s.h+S+P.P.O.(@l.......C D.-@",
"o+E I+I+{.)+{@{@{@s 0+;@q.@ # # # # # @ 9.. 5.}+^+&@X+X+X+X+_@)@)@-.f Z+& + n m _ _ _ _   &.o % & % o + m K ;@X+]@H.G.c c c F.6.r > ",
"T /@v |.u u u u u E+]@p.N.$ o n 9.n n 9.9.<.  s.u+M `+n N.n M l l k m / / m q / x y w < F m.(.>+[+z+<.9.+ <.<.<.% g M.y o.o.o.o.!.!.",
"c G.H.$@$@$@$@$@$@Y+*+* &.n q J._ 7 7 7 7 7 & . & e+q o # # h q &     * * J./ C.< Z :@3.7.<@ +[@}@|+u+7 7 7 7 J.7 = - : 7 . . z.z.z.",
"o.C+_.<.|@.@.@.@n 1@z+p . +   ( x x 9 y w A /.(.m.j.l q n n n + . 8 8 . m Q x a D.].{.c+E /@t u F+)@M.( - H H H H - !./ q n n n + + ",
". & e+m n # # # # n n.G & +   - 0 -@b } | 7.<@V 2@4 h+/.J.7 J.J./ !.!./ 3@: < Z  ...8.@.#.I+v.~ -.4@6 8 > 5@0 5@> R 7 & & q o n m J.",
"j _.8 8 m n N.n N.<./ G   % n.y < Y } l.E E ..t t v { w - - - - 9 y < y y z D.].E 8.8.c+1 ' M+g `+N.+ * : - - 9 9 l (.g 6@/.(.(.8 - ",
"7@,.P - Q 7     e+7 R - 0.z+L+' ` 7.S c+)+8... .8@! i+y 0 0 0 0 Y U.:@:@7.7.C ..+.)+2 S ' c.* + @ # @ <.&   7 8 x =.H.~ { %+V i+P > ",
"v '.).- ( ( o.A A A y a y b+4 ..E E 2 8.8.D | ^.l +@_.p - - H > ^.:.t 1 1 l...D E E 3 ' M+J.<.n N.$ @ $ n N.9.z.G [.}.|.v v 1.2.^.> ",
"| G.I J.  /.] } :@9@` ` ` | 0@a@@.)+)+8.1 | [ y _ 9.9..   J./ - P H.++%+7.| | :@:@| ' %.7 & *   z.<.@ # # # @ + * b@c@A+A+A+A+H.P > ",
"< M.* + 9.J ~ k.1 t t t t t /@s '@x+x+D :.^.y 9 / <.n + + + . 8 8 _.r.6@< < X X X w M.* %   R - G   `+n .@.@.@n + <.j p.p.j p.r.G > ",
"> ( n.. . Z+I.2.]+h.! h.h.h.! ! ! g.U 4 |+l 8 - : 7 . . . . &     & 7 : !.Q 7 J.7 7 & &.o % 7 : x %.T.$@$@d@$@V+e@& & & & . . _ ( > ",
"> 9 - !.( o.y F f@q.p.q.q.q.j j ;+q.Z+[+u+q & G - !.!.o.o.o.l (.. x.- 9 : & &.+ + + + n N.n j+/ X ' 1.u u !+#+) [+: : : : G ( - 9 > ",
"> > 0 0 0 0 0 - / . . . . q 9.@ # @ % & q o &.  8 H Y Z c F.)@-.g@F 0 0 !.z+. . . . . . _.6+]@t.' S 8.{@8.O.`.@+u+n.z+n.z+8 H 0 0 > ",
"-@> > 9 9 9 9 H ( : : G ( s.* n @ $ n + n o n <.  o.Z '+....(@1.u.h@9 x - ( G G ( !.!.!.F d 1.(@..{.2 8.s  +K+<.`++ + + &.& R 9 9 9 ",
"E.[.L z+n.z+z+z+z+/ / 8 b+}+c.* m . m m m m A.. /.h+].E @.)+i@D+e e.z+n.z+/ 8 - a b U.F.` 3 a@{@8.l.=@u.++Y+_.&.@ *.@ n q & 7 / / / ",
"1 [@X.<.+ &.&.<.<.&.+ (.j@/+R.M.: G G G G ( G M.h+Q.D 2 8.2 O+;@q.<.<.&.&.+ q Q < 4 k.1 1 D 2 W+D | ^.e.J g l   9.@ $ q / / q + + + ",
"4+d b@m q m m m m q n |@k@V l@8 : > , Z U.U.Z U.].{.{.S }.m@n@K i q m m % n n . /.H.`.{+`.`.`.`.a.s+9 Q . & n.7 . m m n.( Q &.# # d.",
", < o.: R : : : : Q A.n o@+@p.% _ A U.'+1 $.$.3 D E '+,+c.K r.l : : : : / % o n 1@p@3+3+3+3+3+3+J q@o.- R 7 q & 8 : : - 9 l % @ @ @ ",
"> > > > > > > > 0 - z+m q % n n & x Z  .}.(+O+=@'+4+c < p &   G > > > > ( 7 q q q q q q q q q q A./ H 0 9 Q & n.- > > r D.t.r@s@s@s@",
"> > > > > > > > > 9 !.R R Q m +   o.t@Y 5.6+b@b+D., ~.y - : G x > > > > 9 ( R R R R R R R R R p R !.> > > - : ( 9 > > b C p+q+Q+Q+Q+",
"> > > > > > > > > > > > > - z+. / H 0 x Q . 7 !.> > > > > > > > > > > > a , 6.6.6.6.6.6.6.6.6.6.b Y y > > > > > > > > D.| S S '+'+'+",
"> > > > > > > > > > > > > > !.R !.9 > > !.R G x > > > > > > > > > > > > Y 7.S 3 $.$.$.$.$.$.$.3 '+E.a > > > > > > > > < , D.b b b b ",
"> > > > > > > > > > > > > > > > > > > > > > > > > > > > > > > > > > > > , Q.#.+.8.8.8.8.8.8.8.+.{.} < > > > > > > > > > > > > > > > "};
