/* XPM */
static char * ground_33px_left_xpm[] = {
"33 66 303 2",
"  	c #AA834B",
". 	c #A88047",
"+ 	c #A37A3D",
"@ 	c #9F7535",
"# 	c #9F7533",
"$ 	c #9F7534",
"% 	c #A07737",
"& 	c #A57D41",
"* 	c #A9824A",
"= 	c #A88148",
"- 	c #A88046",
"; 	c #A78046",
"> 	c #A67E43",
", 	c #A2793B",
"' 	c #9F7433",
") 	c #A07635",
"! 	c #A27B3A",
"~ 	c #A47E3D",
"{ 	c #A57F3D",
"] 	c #A6803F",
"^ 	c #A98446",
"/ 	c #AC874C",
"( 	c #AC864C",
"_ 	c #A98249",
": 	c #AB854C",
"< 	c #AC874D",
"[ 	c #AD894D",
"} 	c #A57C41",
"| 	c #A2793C",
"1 	c #A2793A",
"2 	c #A07637",
"3 	c #A17938",
"4 	c #A98543",
"5 	c #AE8E4A",
"6 	c #AF8F4C",
"7 	c #B1914E",
"8 	c #B19150",
"9 	c #AE8B4E",
"0 	c #AB844C",
"a 	c #AA824A",
"b 	c #A77F45",
"c 	c #A37B3E",
"d 	c #A57D42",
"e 	c #A98148",
"f 	c #AC884D",
"g 	c #B08F4F",
"h 	c #B29251",
"i 	c #A2783A",
"j 	c #9F7635",
"k 	c #A17738",
"l 	c #A37B3B",
"m 	c #A68140",
"n 	c #AD8B49",
"o 	c #B29350",
"p 	c #B49652",
"q 	c #B49753",
"r 	c #B29351",
"s 	c #AF8E4F",
"t 	c #AD884D",
"u 	c #A88246",
"v 	c #A37B3D",
"w 	c #A17839",
"x 	c #B19050",
"y 	c #B39552",
"z 	c #A37A3C",
"A 	c #A07636",
"B 	c #A47B3F",
"C 	c #A88145",
"D 	c #AC8949",
"E 	c #AE8D4B",
"F 	c #AE8C4D",
"G 	c #AF8D4F",
"H 	c #B49653",
"I 	c #B19151",
"J 	c #AF8C4E",
"K 	c #AD8A4C",
"L 	c #A67E44",
"M 	c #A67F44",
"N 	c #B08E4F",
"O 	c #A1783A",
"P 	c #AB864B",
"Q 	c #AE8A4E",
"R 	c #AA824B",
"S 	c #AB844B",
"T 	c #A98149",
"U 	c #AE8C4E",
"V 	c #B08F50",
"W 	c #B49552",
"X 	c #B59753",
"Y 	c #AA844B",
"Z 	c #AB864C",
"` 	c #B09050",
" .	c #AD8A4E",
"..	c #B39450",
"+.	c #B1924F",
"@.	c #AD8B4B",
"#.	c #AA8549",
"$.	c #AD894B",
"%.	c #B0904E",
"&.	c #AE8C4C",
"*.	c #AA8449",
"=.	c #A88149",
"-.	c #AF8E4E",
";.	c #AB864A",
">.	c #AC874B",
",.	c #B0904F",
"'.	c #B08E50",
").	c #AB8849",
"!.	c #A88443",
"~.	c #A57F40",
"{.	c #A47C3E",
"].	c #A57E3F",
"^.	c #A78241",
"/.	c #A68040",
"(.	c #A47C3F",
"_.	c #A57D43",
":.	c #AD8A4D",
"<.	c #AB8649",
"[.	c #A67F42",
"}.	c #A78043",
"|.	c #AC884B",
"1.	c #AC874A",
"2.	c #AC884C",
"3.	c #AB854A",
"4.	c #AF8D4E",
"5.	c #A98348",
"6.	c #A47C40",
"7.	c #A17838",
"8.	c #A27A3A",
"9.	c #A37C3B",
"0.	c #A68042",
"a.	c #AA854A",
"b.	c #A27A3B",
"c.	c #9E7433",
"d.	c #A67E45",
"e.	c #AD894E",
"f.	c #AC894C",
"g.	c #A88144",
"h.	c #A88245",
"i.	c #A57E41",
"j.	c #AA8548",
"k.	c #A98447",
"l.	c #A17739",
"m.	c #9E7432",
"n.	c #A88345",
"o.	c #AC8947",
"p.	c #AB8748",
"q.	c #A37B3A",
"r.	c #A2783B",
"s.	c #A27A39",
"t.	c #A47D3E",
"u.	c #A98347",
"v.	c #A67E42",
"w.	c #A27A3C",
"x.	c #A88146",
"y.	c #A98248",
"z.	c #B19250",
"A.	c #B49752",
"B.	c #B59853",
"C.	c #AF8F4B",
"D.	c #AC8A47",
"E.	c #AD8C4A",
"F.	c #AF8E4D",
"G.	c #AD8A4B",
"H.	c #A57E3E",
"I.	c #A37B3F",
"J.	c #A47C41",
"K.	c #A37A3E",
"L.	c #9F7434",
"M.	c #AA834A",
"N.	c #AF8C4F",
"O.	c #B69953",
"P.	c #B29450",
"Q.	c #AE8D4A",
"R.	c #AA8645",
"S.	c #A68043",
"T.	c #B39451",
"U.	c #B39551",
"V.	c #B1924E",
"W.	c #A88543",
"X.	c #A78044",
"Y.	c #A57E42",
"Z.	c #A17837",
"`.	c #B1914F",
" +	c #AD894C",
".+	c #B59953",
"++	c #B39651",
"@+	c #AA8746",
"#+	c #A78042",
"$+	c #AC884A",
"%+	c #A88344",
"&+	c #B29151",
"*+	c #B69954",
"=+	c #AE8B4D",
"-+	c #B29250",
";+	c #AA844A",
">+	c #AA834C",
",+	c #A78143",
"'+	c #A98644",
")+	c #A88343",
"!+	c #AD8B4C",
"~+	c #B1904F",
"{+	c #A27939",
"]+	c #A98349",
"^+	c #AB8946",
"/+	c #AB8747",
"(+	c #A77F46",
"_+	c #A07738",
":+	c #A68041",
"<+	c #A98544",
"[+	c #AA8547",
"}+	c #AA8349",
"|+	c #A47D3F",
"1+	c #A88247",
"2+	c #A88147",
"3+	c #A67F43",
"4+	c #AB874B",
"5+	c #A88342",
"6+	c #A47B3E",
"7+	c #A57C40",
"8+	c #AE8A4D",
"9+	c #B39351",
"0+	c #B0914E",
"a+	c #AB854B",
"b+	c #A77F44",
"c+	c #A98546",
"d+	c #AC8948",
"e+	c #AA8646",
"f+	c #A67D43",
"g+	c #AB8948",
"h+	c #A37C3C",
"i+	c #AE8B4C",
"j+	c #A27B39",
"k+	c #A6813F",
"l+	c #A78341",
"m+	c #A78340",
"n+	c #A88244",
"o+	c #A07837",
"p+	c #AF8E4B",
"q+	c #AF8D4D",
"r+	c #A78240",
"s+	c #A68240",
"t+	c #B39452",
"u+	c #B0914D",
"v+	c #AF8F4D",
"w+	c #AE8E4B",
"x+	c #AA8647",
"y+	c #A67F45",
"z+	c #A78243",
"A+	c #A57F3E",
"B+	c #A47D3C",
"C+	c #A47D3D",
"D+	c #A37A3B",
"E+	c #B0904D",
"F+	c #9F7634",
"G+	c #AC8B48",
"H+	c #AC8A49",
"I+	c #A98346",
"J+	c #A47C3D",
"K+	c #AA8745",
"L+	c #AE8D4C",
"M+	c #A78045",
"N+	c #AA8448",
"O+	c #A88048",
"P+	c #B08F4E",
"Q+	c #AB8947",
"R+	c #A88442",
"S+	c #A57D3E",
"T+	c #A07736",
"U+	c #A78144",
"V+	c #AB874A",
"W+	c #9E7332",
"X+	c #AC8A48",
"Y+	c #AD8C49",
"Z+	c #AD8B48",
"`+	c #AF8E4C",
" @	c #B59752",
".@	c #B2934F",
"+@	c #A57E3D",
"@@	c #B49651",
"#@	c #B29451",
"$@	c #A78142",
"%@	c #A78242",
"&@	c #AA8845",
"*@	c #AA8747",
"=@	c #AC894B",
"-@	c #A47B40",
";@	c #A47B41",
">@	c #A1773A",
",@	c #A07836",
"'@	c #A57E40",
")@	c #A98643",
"!@	c #AE8D4D",
"~@	c #AB8847",
"{@	c #A17939",
"]@	c #A17937",
"^@	c #A5803E",
"/@	c #A67F40",
"(@	c #A98645",
"_@	c #AE8D49",
":@	c #A78140",
"<@	c #AA8846",
"[@	c #B39550",
"          . + @ # $ $ $ # % & *                                   ",
"  * = - ; > , $ ' ) ! ~ { ] ^ / (           _ . ; ; = *     : < [ ",
"  = } | | 1 2 $ ' 3 4 5 6 6 7 8 9 0       a b c , | d e     f g h ",
". > i $ $ j k 1 l m n o p q p r s [ f t t / u v w , } =     t x y ",
"z i A # ' % B C D E F G r H I J s 8 h h h 8 K u L M . *     : [ N ",
"O O w w w + b P N 8 G Q g h s Q x p p y p p x ( R   S ( ( S 0 / 9 ",
"L L L L L b T 0 t U V x G U s 8 W X r N h p 8 <   Y [ g G < < s V ",
". = _   : Z S Y Z [ ` h G  .N r ..+.@.#.$.%.&.*.=.   .8 -.;.>.,.g ",
"c d = ( G N t ( 9 V N G g x '.U ).!.~.{.].^./.(._.T ( :.<.[.}.|.1.",
"@ , b / V x 2.3.4.8 K 3.4.8 F 5.6.7.j ) % w 8.9.0.a.< / u b.| M b ",
"c.O d.: e.f.g.[.<.K h.i.j.K k.B l.$ m.$ O & n.o.E g x g p.q.A r.B ",
"s.t.u.( < *.{.1 v.- 6.w.v.x.6.% $ $ j l.6.y.:.z.y A.B.A.C.m 3 w (.",
"D.E.F.V V G.H.A O I.J.} 6.K.l.L.m.@ , & ; M.< N.h q O.B.P.Q.R.S.u ",
"T.U.p q X V.W.s.k w.X.y.Y.1 7.3 Z.w } =     0 / G T.q B.B.p `. +[ ",
"s x p .+.+++C.@+#+}.$+F j.[.%+@+%+> ; M.  0 t G '.N &+p .+*+H h V ",
"/ 9 h p B.B.A.o =+/ N -+U >.4.`.F ;+*   * M.K `.-.>.:.r p p p y 8 ",
"N N N x y B.*+X r V N N g V V N e.: >+  . v.,+'+)+i.u !+N N N N 9 ",
"P.~+:.[ 8 p q p p r 9 t N h G (   * * T d O Z.{+s.8.i.]+: : : : S ",
"^+/+*.: Q N g g V G f : Q G e.  (+d & } , A _+c :+<+[+}+R R R R = ",
"8.|+1+: ( / ( Z Z :   M.;+Y Y e & w 2 % A % K.2+K `.,.f S S 0   . ",
"I.3+$+4.G Q Z R R * b d } } d 6., $ m.$ k c L M.N.W y V G G  .: }+",
"e 4+~+W p h 9 0   _ & 1 w w w l.% A @ % (.2+M.Y 9 T.q p p W 8 [ [ ",
"  [ r B..+p 8 9 ( M.^ 5+~.6+K.c B B B 7+k.8+e.: t N 9+X *+.+y ` x ",
"  t h X B.B.p h Q / 4.0+K ]+= = = 2+. y.K 8 4.a+  P J T.A.X p y y ",
"  < G h p B..+A.8 N T.q h N.< Y = b+> b+c+d+e+X.d f+h.g+E ,.8 8 8 ",
"M.  a+8+h X B.q W y p q p r 9 M.d , k w 8.9.l 1 O 1 8.h+0.#.< < / ",
"> f+f+u i+x I I &+&+I I h ,.|.M | ) c.$ j+k+l+l+l+l+m+^.n+_ R R T ",
"1 i i (.u./ f / / / / / < P 3+1 A $ # o+l+p+V.V.V.V.V.V.q+/     . ",
"r+s+r+!.$+2.5.M L L L L L _.| @ c.j j+r+d+~+W X p 9+t+X t+s 9 Q <.",
"u+u+u+V.o v+)+, O O O O i w % @ ' Z.5+w+4.8+V y h 9 N y q y T.9+g ",
"h h h r r -.%++ | | | | | | | | , 6+x+g N.(  .x G ( t ` r r r h V ",
"[ [ [ [ [ / ]+; (+; ; ; ; ; ; ; ; 2+;+/ ( Y : < ( Y : < [ [ [ [ < ",
"      * . b b b b ; _                   _ - (+(+(+b b b b b b b (+",
"      = J., , , , c b                 * y++ , , , , , , , , , , r.",
"  0 < ;.z+A+{ ~ l + d.M.( t [ 2.;+2+; b B A ' $ 3 B+{ { { { C+D+b.",
"  / N 8 E+C.C.E.[+; = a+J 8 r ~+x+{., , k $ c.F+A+G+6 C.C.C.H+I+u.",
"  < g T.A.A.y z.J t f  .g 9+q U.d+J+O 1 l B+B+{ K+%.T.T.T.r g / / ",
"  : t s t+p x N.V h h 8 s G r W L+x.L M+x+E.p+w+L+9 9 9 9 9 [ : ]+",
"  S ( 9 8 h G :.-.7 V.E+$+N+G.v+G.y.O+  Q z.T.r N (     Y   M.= > ",
"  < G ` G N.V P+Q+R+l+r+S+v ].m ].B L a < Q N.9 t 0         . } , ",
"= ;.g ~+|.3.L+w+r+T+$ T+s.9.B+B+9.C+U+P Z Y M.y.= = = = = 2+f+O $ ",
"c 3+V+|.X.|+m m j+$ W+T+r+X+Y+n Z+Y+`+g 9 Y b B + + + + + + r.A c.",
"j , > b z A ) ) $ j Z.{ Y+U. @A.A.A.X p x 2.M+z {+q.9.9.9.l 8.w 7.",
"' A r.r.2 c.W+W+W+Z.r+Y+.@B.*+*+*+*+*+B.W x $+M+n+Q+G+G+G+G+@+U+U+",
"_+7.8.! s.s.s.s.s.+@X+o A.X q p W p p W W T.N 2.=+z.U.p A.p z.:.:.",
"d }.e+D.D.D.D.D.D.H+&.g t+p h s N.G G G G G V x V '.h q *+*+H h V ",
"a+ +,.T.++@@@@@@p #@U t x y N ( S S Y M.]+;+K `.q+4+:.h p p p y x ",
"x V '.8 p *+*+*+*+p J / V y N : R a (+} B 6.$@<+%@& C K s G s s 9 ",
"P.,.[ [ 8 p A.p A.T.9 / N r J M._ = } l.A A k {+{+8.i.]+: : : : Y ",
"&@*@*.: Q G N N '.G f :  .U j.v.J.6., j c.$ k 6+#+'+x+M.R R R R = ",
"8.|+1+: ( ( a+;+;+;+M.* M.5.& k A A ) $ $ % B 2+:.+.,.t : : 0   2+",
"B }.=@s N K u } -@;@J.J.J.B >@L.m.c.c.$ w B d.M.N.W W x N s 9 : *.",
"_ P g y W %.)+1 w {+{+{+{+{+7.Z.,@T+T+% (.2+M.Y 9 T.p y y y x [ [ ",
"  ( J x x F n.'@^.)@'+)@)@)@'+'+'+4 :+& u.:.[ : < G x x x x V N N ",
"  Y : Z ( a+M.a.!@.@o .@.@.@P.P....@F ;.=+h V / : Z Z a+a+a+:.`.x ",
"    R R R R R : 9 x x x x h W B.*+B.r V h q t+N [ 0 = L d _.U+~@D ",
"a     Y Y Y Y 0 ( < < / ( 2.g p B.X p y p q p T.N a+L | k k {@l ~.",
"> x.|.U J U U U U 9 9 [ 5.M+V+g 8 x 8 8 8 8 I x K C K.A m.c.]@^@R.",
"w /@E T.y t+t+T.T.t+y `.(@{.X.P < / / / / ( / P C z % ) $ ) A+Y+.@",
"+ 0.@.8 h 8 8 8 8 h p ++_@<+p.[ <   . L f+f+L f+K.2 2 , t.:@<@F.&+",
". _ a+< f < < < < Q I p [@+.o r N.;+f+| w i i O % A | M V+F.P+:.< ",
"                R : U 8 h r p p V S L 6+t.] A+v | + d _ t V N /   ",
"                  Y Z f f Q 8 y N a+=.= $+`+@.5.; . e M.: < / S   ",
"                          : U x 9 0 R S Q x G Z                   ",
"                            Z f Z Y     Z f / S                   ",
"                                                                  "};
