/* XPM */
static char * kunai_10_xpm[] = {
"66 66 352 2",
"  	c #AA834B",
". 	c #A88047",
"+ 	c #A37A3D",
"@ 	c #9F7535",
"# 	c #9F7533",
"$ 	c #9F7534",
"% 	c #A07737",
"& 	c #A57D41",
"* 	c #A9824A",
"= 	c #A88148",
"- 	c #A88046",
"; 	c #A78046",
"> 	c #A67E43",
", 	c #A2793B",
"' 	c #9F7433",
") 	c #A07635",
"! 	c #A27B3A",
"~ 	c #A47E3D",
"{ 	c #A57F3D",
"] 	c #A6803F",
"^ 	c #A98446",
"/ 	c #AC874C",
"( 	c #AC864C",
"_ 	c #A98249",
": 	c #AB854C",
"< 	c #AC874D",
"[ 	c #AD894D",
"} 	c #A98348",
"| 	c #A77F46",
"1 	c #A88147",
"2 	c #AB854A",
"3 	c #AD884D",
"4 	c #A98149",
"5 	c #AA824A",
"6 	c #A57C41",
"7 	c #A2793C",
"8 	c #A2793A",
"9 	c #A07637",
"0 	c #A17938",
"a 	c #A98543",
"b 	c #AE8E4A",
"c 	c #AF8F4C",
"d 	c #B1914E",
"e 	c #B19150",
"f 	c #AE8B4E",
"g 	c #AB844C",
"h 	c #A77F45",
"i 	c #A37B3E",
"j 	c #A57D42",
"k 	c #A98148",
"l 	c #AC884D",
"m 	c #B08F4F",
"n 	c #B29251",
"o 	c #AF8D4D",
"p 	c #A78243",
"q 	c #A2783B",
"r 	c #A57E40",
"s 	c #AC894A",
"t 	c #B29351",
"u 	c #AF8C4F",
"v 	c #AB844B",
"w 	c #A47B3F",
"x 	c #A2783A",
"y 	c #9F7635",
"z 	c #A17738",
"A 	c #A37B3B",
"B 	c #A68140",
"C 	c #AD8B49",
"D 	c #B29350",
"E 	c #B49652",
"F 	c #B49753",
"G 	c #AF8E4F",
"H 	c #A88246",
"I 	c #A37B3D",
"J 	c #A17839",
"K 	c #B19050",
"L 	c #B39552",
"M 	c #B08F4D",
"N 	c #A98544",
"O 	c #A57E3D",
"P 	c #A47D3C",
"Q 	c #A78241",
"R 	c #AD8C4A",
"S 	c #B29451",
"T 	c #B59853",
"U 	c #B39451",
"V 	c #B08F50",
"W 	c #A88146",
"X 	c #A47B3E",
"Y 	c #A37A3C",
"Z 	c #A07636",
"` 	c #A88145",
" .	c #AC8949",
"..	c #AE8D4B",
"+.	c #AE8C4D",
"@.	c #AF8D4F",
"#.	c #B49653",
"$.	c #B19151",
"%.	c #AF8C4E",
"&.	c #AD8A4C",
"*.	c #A67E44",
"=.	c #A67F44",
"-.	c #B08E4F",
";.	c #AE8B4D",
">.	c #AE8E4B",
",.	c #B69953",
"'.	c #B59953",
").	c #B59753",
"!.	c #AE8C4E",
"~.	c #AE8A4E",
"{.	c #A1783A",
"].	c #AB864B",
"^.	c #AA824B",
"/.	c #B2934F",
"(.	c #AF8F4D",
"_.	c #AB874A",
":.	c #AA8449",
"<.	c #AD8B4B",
"[.	c #B1924E",
"}.	c #B29450",
"|.	c #AB864C",
"1.	c #AA844B",
"2.	c #B49552",
"3.	c #AA8646",
"4.	c #A47D3E",
"5.	c #A57F3F",
"6.	c #A78240",
"7.	c #A88342",
"8.	c #AB8748",
"9.	c #AD8A4D",
"0.	c #B09050",
"a.	c #AD8A4E",
"b.	c #B39450",
"c.	c #B1924F",
"d.	c #AA8549",
"e.	c #AD894B",
"f.	c #B0904E",
"g.	c #AE8C4C",
"h.	c #A88149",
"i.	c #AF8E4E",
"j.	c #AB864A",
"k.	c #AC874B",
"l.	c #B0904F",
"m.	c #AB874B",
"n.	c #AC884C",
"o.	c #A78045",
"p.	c #A47D3D",
"q.	c #A78144",
"r.	c #AA834A",
"s.	c #B39452",
"t.	c #B08E50",
"u.	c #AB8849",
"v.	c #A88443",
"w.	c #A57F40",
"x.	c #A47C3E",
"y.	c #A57E3F",
"z.	c #A68040",
"A.	c #A47C3F",
"B.	c #A57D43",
"C.	c #AB8649",
"D.	c #A67F42",
"E.	c #A78043",
"F.	c #AC884B",
"G.	c #AC874A",
"H.	c #A67F43",
"I.	c #9E7433",
"J.	c #A3793D",
"K.	c #AC8A49",
"L.	c #AF8D4E",
"M.	c #A47C40",
"N.	c #A17838",
"O.	c #A27A3A",
"P.	c #A37C3B",
"Q.	c #A68042",
"R.	c #AA854A",
"S.	c #A27A3B",
"T.	c #A77F44",
"U.	c #AA844A",
"V.	c #B19250",
"W.	c #AF8E4D",
"X.	c #A98248",
"Y.	c #A67E45",
"Z.	c #AD894E",
"`.	c #AC894C",
" +	c #A88144",
".+	c #A88245",
"++	c #A57E41",
"@+	c #AA8548",
"#+	c #A98447",
"$+	c #A17739",
"%+	c #9E7432",
"&+	c #A88345",
"*+	c #AC8947",
"=+	c #A37B3A",
"-+	c #AB8749",
";+	c #A67E41",
">+	c #A67D43",
",+	c #A98545",
"'+	c #A78242",
")+	c #A57D3F",
"!+	c #A37A3E",
"~+	c #A27A39",
"{+	c #A98347",
"]+	c #A67E42",
"^+	c #A27A3C",
"/+	c #B49752",
"(+	c #AF8F4B",
"_+	c #A88247",
":+	c #A98247",
"<+	c #A27939",
"[+	c #B39652",
"}+	c #A07736",
"|+	c #AC8A47",
"1+	c #AD8A4B",
"2+	c #A57E3E",
"3+	c #A37B3F",
"4+	c #A47C41",
"5+	c #9F7434",
"6+	c #AE8D4A",
"7+	c #AA8645",
"8+	c #A68043",
"9+	c #AE8B4C",
"0+	c #A98346",
"a+	c #AB8846",
"b+	c #A88244",
"c+	c #B39351",
"d+	c #9E7332",
"e+	c #B39551",
"f+	c #A88543",
"g+	c #A78044",
"h+	c #A57E42",
"i+	c #A17837",
"j+	c #B1914F",
"k+	c #AD894C",
"l+	c #AD884C",
"m+	c #AE8D4D",
"n+	c #A37C3D",
"o+	c #A27938",
"p+	c #B39651",
"q+	c #AA8746",
"r+	c #A78042",
"s+	c #AC884A",
"t+	c #A88344",
"u+	c #B29151",
"v+	c #B69954",
"w+	c #AA834C",
"x+	c #A98645",
"y+	c #AA8448",
"z+	c #AA8745",
"A+	c #AB8946",
"B+	c #AB8947",
"C+	c #B29250",
"D+	c #AB854B",
"E+	c #A37B3C",
"F+	c #A17939",
"G+	c #A78143",
"H+	c #A98644",
"I+	c #A88343",
"J+	c #AD8B4C",
"K+	c #AA8649",
"L+	c #AD8B4A",
"M+	c #B1904F",
"N+	c #A98349",
"O+	c #A9834A",
"P+	c #AC894B",
"Q+	c #AB8747",
"R+	c #A07738",
"S+	c #A68041",
"T+	c #AA8547",
"U+	c #AA8349",
"V+	c #AB8847",
"W+	c #A98444",
"X+	c #AA8747",
"Y+	c #A47D3F",
"Z+	c #A98643",
"`+	c #A98546",
" @	c #F7F7F7",
".@	c #B08F4E",
"+@	c #A57C40",
"@@	c #AE8A4D",
"#@	c #AE8B4F",
"$@	c #AC864D",
"%@	c #B0914E",
"&@	c #AC8948",
"*@	c #AB8948",
"=@	c #A78341",
"-@	c #A88442",
";@	c #A88341",
">@	c #AB8848",
",@	c #A37C3C",
"'@	c #A67F41",
")@	c #A98448",
"!@	c #B1934F",
"~@	c #A27B39",
"{@	c #A6813F",
"]@	c #A78340",
"^@	c #B18F50",
"/@	c #B59854",
"(@	c #A07837",
"_@	c #AF8E4B",
":@	c #FFDE73",
"<@	c #AE8D4C",
"[@	c #FF7321",
"}@	c #AD8A4A",
"|@	c #A68240",
"1@	c #CE1000",
"2@	c #A98547",
"3@	c #AA8647",
"4@	c #AD8C4B",
"5@	c #B0914D",
"6@	c #B19251",
"7@	c #B0904D",
"8@	c #A6803E",
"9@	c #AA8744",
"0@	c #A67F45",
"a@	c #A57F3E",
"b@	c #9F7634",
"c@	c #AC8B48",
"d@	c #A47C3D",
"e@	c #B49651",
"f@	c #A88048",
"g@	c #A37D3B",
"h@	c #A57D3E",
"i@	c #AD8C49",
"j@	c #AD8D49",
"k@	c #A07836",
"l@	c #B59752",
"m@	c #AC8A48",
"n@	c #AD8B48",
"o@	c #AF8E4C",
"p@	c #A47B40",
"q@	c #A78142",
"r@	c #A67F40",
"s@	c #A57D40",
"t@	c #AE8C4F",
"u@	c #AE8C4B",
"v@	c #A9824B",
"w@	c #AA8845",
"x@	c #A47B41",
"y@	c #A1773A",
"z@	c #AB8A47",
"A@	c #B08E4E",
"B@	c #B0904C",
"C@	c #A17937",
"D@	c #A5803E",
"E@	c #AE8D49",
"F@	c #A78140",
"G@	c #AA8846",
"H@	c #B39550",
"I@	c #B2924F",
"J@	c #AD8B4D",
"K@	c #AC8B49",
"          . + @ # $ $ $ # % & *                                                                                                     ",
"  * = - ; > , $ ' ) ! ~ { ] ^ / (           _ . ; ; = *     : < [ [ [ [ / } ; | 1 2 3 [ 3 3 3 3 3 [ [ [ 3 (   4 . = 5               ",
"  = 6 7 7 8 9 $ ' 0 a b c c d e f g       5 h i , 7 j k     l m n n n n o p 7 q r s e t n n n n n n n t e u v h w j 4               ",
". > x $ $ y z 8 A B C D E F E t G [ l 3 3 / H I J , 6 =     3 K L F F L M N O P Q R S F T T T T T E U U t V [ W X 6 k               ",
"Y x Z # ' % w `  ...+.@.t #.$.%.G e n n n e &.H *.=.. *     : [ -.L L m ;...>.b ..+.@.t T ,.'.'.).n !.~.f -.K &.H . *               ",
"{.{.J J J + h ].-.e @.~.m n G ~.K E E L E E K ( ^.  v ( ( v g / f e e !.f K D /.(._.:.<.d [.[.}.t %.: : 3 G n @.: ^.  : / |.1.v ( < ",
"*.*.*.*.*.h 4 g 3 !.V K @.!.G e 2.).t -.n E e <   1.[ m @.< < G V @.@.V K G &.3.Q 4.X 5.6.6.7.8.[ < : 9.V m !.l g     3 -.@.( < -.e ",
". = _   : |.v 1.|.[ 0.n @.a.-.t b.c.<.d.e.f.g.:.h.  a.e i.j.k.l.m m.j.m K n.o.Y Z $ ) z 8 A p.q.r.  g !.e @.|.      1.9.e K ~.f e s.",
"i j = ( @.-.3 ( f V -.@.m K t.!.u.v.w.x.y.Q z.A.B.4 ( 9.C.D.E.F.G.H.D._.F.q.7 9 ' I.Z J.H.3.K._.  ^.  < ~.l   ^.      ( ~.G K K @.u ",
"@ , h / V K n.2 L.e &.2 L.e +.} M.N.y ) % J O.P.Q.R.< / H S.7 =.h i + T.h Y y $ @ Z , > U.L.V.@.< ( ( / < < ( 1._ _     v [ f.W.j.X.",
"I.{.Y.: Z.`. +D.C.&..+++@+&.#+w $+$ %+$ {.& &+*+..m K m 8.=+Z q w 6 6 w 7 9 I.I.Z + *.= v 3 u m K K K K K K m -+;+>+4     :.,+'+)+!+",
"~+4.{+( < :.x.8 ]+- M.^+]+W M.% $ $ y $+M.X.9.V.L /+T /+(+B 0 J A._+:+A.J <+<+N., *.*     : 3 -.U E /+E L E [+R ] ++X.  4 > , }+) ) ",
"|+R W.V V 1+2+Z {.3+4+6 M.!+$+5+%+@ , & ; r.< u n F ,.T }.6+7+8+H 9+;.0+E.7+a+b+=.=     : ~.V -.-.t F c+V n /+/.R u.U.. 6 q @ d+%+I.",
"U e+E F ).[.f+~+z ^+g+X.h+8 N.0 i+J 6 =     g / @.U F T T E j+k+[ K e 9.l+m j+k+r.5   * U.+.j+!./ G t -.l %.U e+/.m+U.=.n+~+~+o+o+o+",
"G K E '.'.p+(+q+r+E.s++.@+D.t+q+t+> ; r.  g 3 @.t.-.u+E '.v+#.n V -.-.V V V u < g w+* h ++'+x+y+  l f 3 g < !.<.a+'+r Q.z+A+A+A+B+B+",
"/ f n E T T /+D ;./ -.C+!.k.L.j++.U.*   * r.&.j+i.k.9.t E E E L e [ [ K e ~.D+r._ _ . w z i+E+g+1.( ( : 1.g 1.o.I F+! v.(.e+e+e+U }.",
"-.-.-.K L T v+).t V -.-.m V V -.Z.: w+  . ]+G+H+I+++H J+-.-.-.-.f ( ( f u < _ Y.6 6 w J ) {.& K+L.-.@.[ 1.^.* | j Q.7+L+i.t ).#.u+V ",
"}.M+9.[ e E F E E t f 3 -.n @.(   * * 4 j {.i+<+~+O.++N+: : : : v r.O+r.U.r.- i % Z Z Z J j R.-.L F L -./ g :   r.P+f.W.F.9.V.e [ : ",
"A+Q+:.: ~.-.m m V @.l : ~.@.Z.  | j & 6 , Z R+i S+N T+U+^.^.^.^.= *.6 4+6 6 X z # %+@ x ++C.-.s.T ,.T t m @.@.[ : d.V+W+]+Q.,+X+U.  ",
"O.Y+_+: ( / ( |.|.:   r.U.1.1.k & J 9 % Z % !+1 &.j+l.l v v g   . A.<+J J J z 9 Z ) J j R.@.U E F ).T F E E L V / W 4.! O.O.A r 1   ",
"3+H.s+L.@.~.|.^.^.* h j 6 6 j M., $ %+$ z i *.r.u 2.L V @.@.a.: U+,+7.r w w w w M.w D._.@.V K K K s.T '.'.,.T s.m 1+z+a Z+Z+Z+`+U+  ",
"k m.M+2.E n f g   _ & 8 J J J $+% Z @ % A.1 r.1.f U F E E 2.e [ [ l.f.F._  @k = = . :.o  @%.|.D+/ m E ).F ).F E L U D D }.}./..@n.v ",
"  [ t T '.E e f ( r.^ 7.w.X !+i w w w +@#+@@Z.: 3 -.c+).v+'.L 0.K E #.$.#@$@ @; > B.E. @V+&+j 6 > C.G K K K K K K K e s.).#.n V @.u ",
"  3 n ).T T E n ~./ L.%@&.N+= = = 1 . X.&.e L.D+  ].%.U /+).E L L /+/+L e [ 1  @J z  @=+P.O.8 J Y g+].< ( ( ( ( ( ( / @.U n f f e s.",
"  < @.n E T './+e -.U F n u < 1.= T.> T.`+&@3.g+j >+.+*@..l.e e e e l.>.&@.+M.$+ @ @i z.=@-@;@=@v.>@9.<   ^.^.^.^.^.  3 -.u ( < @.e ",
"r.  D+@@n ).T F 2.L E F E t f r.j , z J O.P.A 8 {.8 O.,@Q.d.< < / / y+'@P.O.J Z  @ @)@g.d /.!@!@/.b.t @.|.  1.1.1.    1.|.D+  1.|./ ",
"> >+>+H 9+K $.$.u+u+$.$.n l.F.=.7 ) I.$ ~@{@=@=@=@=@]@Q b+_ ^.^.4 | j w x.] B  @++d. @^@n #./@v+'.,.T n u f f f f j.o.>+>+>+*.| 4 ^.",
"8 x x A.{+/ l / / / / / < ].H.8 Z $ # (@=@_@[.[.[.[.[.[.o /   :@:@:@:@:@:@<@ @:@[@o e  @@@K /+T T T ).E L s.s.L t }@y.{.{.{.8 M.1   ",
"6.|@6.v.s+n.} =.*.*.*.*.*.B.7 @ I.y ~@6.&@M+2.).E c+s.).s.G :@[@[@1@1@1@1@ @:@[@1@>@C 2@ @3@..f.e n n L T '.T E C+4@f+|@|@|@6.W+F.f ",
"5@5@5@[.D (.I+, {.{.{.{.x J % @ ' i+7.>.L.@@V L n f -.L F :@[@1@m j.= * v 1@[@1@S.P.P A , A 5.0+/ l [ K E '.).6@f ;.7@5@5@5@5@[.D U ",
"n n n t t i.t++ 7 7 7 7 7 7 7 7 , X 3@m u ( a.K @.( 3 0.:@[@t n V :@:@:@h h 1@{.}+P.8@{@] ] B .+* ^.1.~.e t e !.|.[ K t n n n n n n ",
"[ [ [ [ [ / N+; | ; ; ; ; ; ; ; ; 1 U./ ( 1.: < ( 1.: < :@1@[ [ :@[@[@[@1@x J Z ~+9@c 5@7@5@c k+1.^.  |.l [ 3 ( 1.: l [ [ [ [ [ [ [ ",
"      * . h h h h ; _                   _ - | | | h h :@[@h h :@[@1@T.z.[@1@O E+r s t #.T '.F K ~.[ [ |.1.|.3 / 1.                  ",
"      = 4+, , , , i h                 * 0@+ , , , , , :@1@, , :@[@, w.*+c [@1@@+_+2 f t T '.T 2.t t n f |.~.K @.:                   ",
"  g < j.p a@{ ~ A + Y.r.( 3 [ n.U.1 ; h w Z ' $ 0 P { :@1@{ p.:@[@p.:@[@t [@1@[ 1.  |.@.t c+U E T T F e f @.e V ~.3 3 3 3 [ [ < :   ",
"  / -.e 7@(+(+R T+; = D+%.e t M+3@x., , z $ I.b@a@c@:@[@[@1@K.0+1@[@[@[@~.[@1@|.    1./ [ [ f n ).'.T E t -.f @.e n n n n n n -.<   ",
"  < m U /+/+L V.%.3 l a.m c+F e+&@d@{.8 A P P { z+f.:@[@[@1@m / / 1@1@K+1 [@1@. . - . _     : %.t U U U t m ~.@.n 2.).T T e@c.g.y+. ",
"  : 3 G s.E K u V n n e G @.t 2.<@W *.o.3@R _@>.<@f :@[@f [@1@: N+b+z.d@:@[@1@7 7 7 w h *     / 9.~.~.~.f -.K m %.K E v+T [.z+5.n++ ",
"  v ( f e n @.9.i.d [.7@s+y+1+(.1+X.f@  ~.V.U t -.:@[@[@[@[@[@[@:@:@:@:@[@1@P P P P 5.0+|.:             : f e V ~.@.n U [.|+g@$ $ $ ",
"  < @.0.@.u V .@B+-@=@6.h@I y.B y.w *.5 < ~.u f 3 [@1@1@1@1@1@1@1@1@1@1@1@a i@6+6+j@..f.m [ 1.^.^.^.^.^.  ( f -.K V !.s+v.~ k@' ' # ",
"= j.m M+F.2 <@>.6.}+$ }+~+P.P P P.p.q.].|.1.r.X.= = = = = 1 >+{.$ $ ) ~+Q c /+T /+/+l@T E -.l / / / / :   _ _ P+M <@:.j J b@$ ) R+J ",
"i H._.F.g+Y+B B ~@$ d+}+6.m@i@C n@i@o@m f 1.h w + + + + + + q Z I.' ~@H+(+e+T v+v+v+v+,.T U e K e e 0.~.1.Y.w y.Q z.X {.@ I.# J M.> ",
"y , > h Y Z ) ) $ y i+{ i@e+l@/+/+/+).E K n.o.Y <+=+P.P.P.A O.J N.~+6...e+F ).E L L L L 2.E F E L E E K n.` p.P.P.=+F+$+z z z i ; 5 ",
"' Z q q 9 I.d+d+d+i+6.i@/.T v+v+v+v+v+T 2.K s+o.b+B+c@c@c@c@q+q.q.V+L++.V L E e u u u u -.s.F t V t F L e W.i@c@m@3.E.j j j B.h 4   ",
"R+N.O.! ~+~+~+~+~+O m@D /+).F E 2.E E 2.2.U -.n.;.V.e+E /+E V.9.9.M+e f f e n f v r.N+_ R.o j+9+j.!.U 2.L U U U t i.].r.D+D+D+D+|.|.",
"j E.3.|+|+|+|+|+|+K.g.m s.E n G u @.@.@.@.@.V K V t.n F v+v+#.n V -.-.m m G f $@_ *.p@3+M.q@-@r@s@{+;.@.@.@.@.G @.Z.: < @.K K 0.0.0.",
"D+k+l.U p+e@e@e@E S !.3 K L -.( v v 1.r.N+U.&.j+o m.9.n E E E L K [ [ K e ~.v * ; !+9 y Z N.<+~+E+q.].( : g g g g : |.f n E E E L L ",
"K V t.e E v+v+v+v+E %./ V L -.: ^.5 | 6 w M.q@N '+& ` &.G @.G G f |.|.f t@< _ *.X z $ %+@ q +@I+V+u@L.[   v@^.v@  l @.V V n F E e G ",
"}.l.[ [ e E /+E /+U f / -.t %.r._ = 6 $+Z Z z <+<+O.++N+: : : : 1.r._ r.r.O+; !+Z $ $ y J ]+2 i.e+/+L m < : : 1.1.9.j+i.k.&.j+j+[ : ",
"w@X+:.: ~.@.-.-.t.@.l : a.!.@+]+4+M., y I.$ z X r+H+3@r.^.^.^.^.= >+p@p@M.M.i z # I.) , ]+_.m L T v+T U V -.@.[ v d.3.I+++'@N 3@:.  ",
"O.Y+_+: ( ( D+U.U.U.r.* r.} & z Z Z ) $ $ % w 1 9.c.l.3 : : g   1 A.<+J J $+z % Z Z {.]+2 G U E /+).T ).E /+2.0./ W 4.! O.O.A r 1   ",
"w E.P+G -.&.H 6 p@x@4+4+4+w y@5+%+I.I.$ J w Y.r.u 2.2.K -.G f : :.3.v.'@M.w w p@p@w ]+C.@.V m -.0.U T v+v+v+T L m <.a+9@9@9@9@3.:.  ",
"_ ].m L 2.f.I+8 J <+<+<+<+<+N.i+k@}+}+% A.1 r.1.f U E L L L K [ [ l..@k._ _ U+U+U+N+].m t -.l : / -.e+E e@e@e@E L U }.D D }.D .@/   ",
"  ( %.K K +.&+r Q Z+H+Z+Z+Z+H+H+H+a S+& {+9.[ : < @.K K K K V -.-.V @.< |.~.@.G @.@.V s.F t @.< v C.&@|+|+z@|+R A@V V V V K K u (   ",
"  1.: |.( D+r.R.m+/.D /././.}.}.b./.+.j.;.n V / : |.|.D+D+D+9.j+K @@: 1.< V s.L L L L E /+E C+f U+]+A ~+~+~@,@G+j.< < < < / ( : 1.  ",
"    ^.^.^.^.^.: f K K K K n 2.T v+T t V n F s.-.[ g = *.j B.q.V+ .R.^.^.|.!.K K K K K K l.o@m@^ ]+, $ d+$ =+=@>@;.%.!.%.!.[ g ^.^.  ",
"5     1.1.1.1.g ( < < / ( n.m E T ).E L E F E U -.D+*.7 z z F+A w.:+1.v : ( / / ( |.|.|.R.Q.A F+z 9 ) $ i+-@B@U e+L L L s.V l 1.1.1.",
"> W F.!.%.!.!.!.!.f f [ } o._.m e K e e e e $.K &.` !+Z %+I.C@D@7+1+!.%.!.f [ : * | >+B.4+{.5+d+$ $+I w.v.K.l.s.T ,.T E n V @.f f f ",
"J r@..U L s.s.U U s.L j+x+x.g+].< / / / / ( / ].` Y % ) $ ) a@i@/.U U s.s.L n ~._ & 8 J J % ) b@% w 1 1+f.i.9.-.2.T ).n f f n L L L ",
"+ Q.<.e n e e e e n E p+E@N 8.[ <   . *.>+>+*.>+!+9 9 , 4.F@G@W.u+n e e t E E K &.3.=@]@=@=@=@=@7.0+1.~.K V %.@.K e e %.( ~.s.v+v+'.",
". _ D+< l < < < < ~.$.E H@c.D t u U.>+7 J x x {.% Z 7 =._.W..@9.< < < < f t F E S I@[.[.[.[.[.[.f.J@D+: l @.n V [ < < : 1.9.t T T T ",
"                ^.: !.e n t E E V v *.X 4.] a@I 7 + j _ 3 V -./         ( @.n n n n n n n n n n $.f g ^.1.~.V %.:     4 ; ^ K@b b b ",
"                  1.|.l l ~.e L -.D+h.= s+o@<.} ; . k r.: < / v         1.( l l l l l l l l l 3 l |.      : < ( 1.    | i S.P ~ ~ ~ ",
"                          : !.K f g ^.v ~.K @.|.                        * . h h h h h h h h h h | = r.                ; w , , 7 7 7 ",
"                            |.l |.1.    |.l / v                         = M., {.x x x x x x x {.7 > *                 _ . ; | | | | ",
"                                                                        . Y @ # $ $ $ $ $ $ $ # 9 6 _                               "};
