/* XPM */
static char * kunai_9_xpm[] = {
"32 32 323 2",
"  	c #A3A78D",
". 	c #B4B8A7",
"+ 	c #AEB2A2",
"@ 	c #6D893C",
"# 	c #779B31",
"$ 	c #799E32",
"% 	c #6B8F27",
"& 	c #799C32",
"* 	c #759930",
"= 	c #7BA034",
"- 	c #749730",
"; 	c #71942D",
"> 	c #72962D",
", 	c #769931",
"' 	c #789B32",
") 	c #70942C",
"! 	c #759A2E",
"~ 	c #72952D",
"{ 	c #779A31",
"] 	c #769B2F",
"^ 	c #72962E",
"/ 	c #74953B",
"( 	c #A0A697",
"_ 	c #B9BEBA",
": 	c #B4B7B3",
"< 	c #CBCCCB",
"[ 	c #8D8E7A",
"} 	c #A7A99B",
"| 	c #B5BAAA",
"1 	c #B0B4A7",
"2 	c #738D3F",
"3 	c #74972F",
"4 	c #73972D",
"5 	c #70942B",
"6 	c #759830",
"7 	c #7A9D35",
"8 	c #7A9E35",
"9 	c #7DA136",
"0 	c #789C32",
"a 	c #73962E",
"b 	c #75992E",
"c 	c #779C31",
"d 	c #6F932B",
"e 	c #7B9F34",
"f 	c #799B33",
"g 	c #98A38C",
"h 	c #BEC1C0",
"i 	c #B6B8AF",
"j 	c #A5A99A",
"k 	c #898A7A",
"l 	c #9C9E90",
"m 	c #AAAD9F",
"n 	c #95A083",
"o 	c #7CA035",
"p 	c #769831",
"q 	c #7EA236",
"r 	c #73972F",
"s 	c #7DA135",
"t 	c #7FA437",
"u 	c #70932C",
"v 	c #799D33",
"w 	c #6F922A",
"x 	c #7EA336",
"y 	c #789C33",
"z 	c #7BA033",
"A 	c #769932",
"B 	c #7B9E35",
"C 	c #7CA036",
"D 	c #FFFFFF",
"E 	c #71942C",
"F 	c #839E56",
"G 	c #ABAEA3",
"H 	c #A1A592",
"I 	c #B6BAAA",
"J 	c #A1A098",
"K 	c #75903F",
"L 	c #7CA037",
"M 	c #6F922B",
"N 	c #779B30",
"O 	c #799C34",
"P 	c #789B33",
"Q 	c #7DA036",
"R 	c #799D32",
"S 	c #72952E",
"T 	c #74992F",
"U 	c #6A8D26",
"V 	c #789B34",
"W 	c #6F9329",
"X 	c #7B9F36",
"Y 	c #73982E",
"Z 	c #72824B",
"` 	c #C3C5BE",
" .	c #BABDB9",
"..	c #9AA18B",
"+.	c #7DA234",
"@.	c #84AB39",
"#.	c #759831",
"$.	c #6B8E26",
"%.	c #75982F",
"&.	c #82A738",
"*.	c #71952D",
"=.	c #71952C",
"-.	c #71932C",
";.	c #7DA335",
">.	c #85AB39",
",.	c #82A739",
"'.	c #748E40",
").	c #9AA388",
"!.	c #94A47D",
"~.	c #7CA039",
"{.	c #74982D",
"].	c #7FA438",
"^.	c #779A32",
"/.	c #769A30",
"(.	c #6D9029",
"_.	c #7FA337",
":.	c #7A9D34",
"<.	c #84AA38",
"[.	c #799E31",
"}.	c #7A9F33",
"|.	c #82A837",
"1.	c #73962F",
"2.	c #BDBDAD",
"3.	c #789C31",
"4.	c #7FA436",
"5.	c #789A32",
"6.	c #83AA35",
"7.	c #749830",
"8.	c #7B9F35",
"9.	c #7DA235",
"0.	c #74982E",
"a.	c #7EA235",
"b.	c #6C9026",
"c.	c #779B32",
"d.	c #7EA237",
"e.	c #74982F",
"f.	c #7BA035",
"g.	c #70942A",
"h.	c #73972E",
"i.	c #759B2E",
"j.	c #779C30",
"k.	c #7EA337",
"l.	c #80A537",
"m.	c #769A2F",
"n.	c #7DA236",
"o.	c #6E912A",
"p.	c #7B9F33",
"q.	c #75992F",
"r.	c #82A936",
"s.	c #7A9C34",
"t.	c #7CA034",
"u.	c #70952A",
"v.	c #769A31",
"w.	c #81A835",
"x.	c #789D31",
"y.	c #799D34",
"z.	c #7A9F32",
"A.	c #7A9E33",
"B.	c #6A8E25",
"C.	c #799C33",
"D.	c #7A9F34",
"E.	c #6C8F28",
"F.	c #6E9228",
"G.	c #749A2D",
"H.	c #7CA233",
"I.	c #70932B",
"J.	c #FFDE73",
"K.	c #74962F",
"L.	c #FF7321",
"M.	c #73962D",
"N.	c #81A737",
"O.	c #7A9E34",
"P.	c #6C9027",
"Q.	c #769930",
"R.	c #CE1000",
"S.	c #759A30",
"T.	c #7BA032",
"U.	c #72962C",
"V.	c #7FA435",
"W.	c #7C9F35",
"X.	c #779B33",
"Y.	c #6E9129",
"Z.	c #6C9028",
"`.	c #6D9128",
" +	c #85AC39",
".+	c #779B2F",
"++	c #6D9229",
"@+	c #81A738",
"#+	c #6C8F27",
"$+	c #6B8E25",
"%+	c #688B22",
"&+	c #769B30",
"*+	c #7EA334",
"=+	c #6F9429",
"-+	c #71952B",
";+	c #6D9129",
">+	c #7CA134",
",+	c #759931",
"'+	c #779A33",
")+	c #7A9E32",
"!+	c #769B2E",
"~+	c #7A9C35",
"{+	c #7CA135",
"]+	c #7B9E34",
"^+	c #7CA136",
"/+	c #6F932A",
"(+	c #81A538",
"_+	c #6D9028",
":+	c #83A939",
"<+	c #6A8E26",
"[+	c #74972E",
"}+	c #7CA234",
"|+	c #82A839",
"1+	c #82A737",
"2+	c #799A39",
"3+	c #83A741",
"4+	c #759734",
"5+	c #6E9229",
"6+	c #70893E",
"7+	c #949A77",
"8+	c #A6AD8A",
"9+	c #90957C",
"0+	c #929D76",
"a+	c #A0A686",
"b+	c #85985D",
"c+	c #799E30",
"d+	c #789B31",
"e+	c #81A53B",
"f+	c #878E73",
"g+	c #B6BBB7",
"h+	c #B4B9A9",
"i+	c #A2A58C",
"j+	c #ACADA3",
"k+	c #B6BAAB",
"l+	c #A1A78E",
"m+	c #6F912C",
"n+	c #80A438",
"o+	c #83AA37",
"p+	c #789D32",
"q+	c #83AB36",
"r+	c #7A9B38",
"s+	c #868B68",
"t+	c #B5B9B0",
"u+	c #C5C7C5",
"v+	c #A0A094",
"w+	c #A4A59C",
"x+	c #BBBFBC",
"y+	c #A2A894",
"z+	c #72952F",
"A+	c #7C9F36",
"B+	c #74992D",
"C+	c #749731",
"D+	c #788356",
"E+	c #878977",
"F+	c #9CA08F",
"G+	c #7C7A64",
"H+	c #A4AB8B",
"I+	c #C8C9C6",
"J+	c #A7A99E",
"K+	c #7D9846",
"L+	c #749632",
"M+	c #7FA635",
"N+	c #798853",
"O+	c #B0B4A6",
"P+	c #B2B6A6",
"Q+	c #868570",
"R+	c #969D7F",
"S+	c #BBBDB5",
"T+	c #9A9D8D",
"U+	c #ACB19E",
"V+	c #828D62",
"W+	c #759732",
"X+	c #82A836",
"Y+	c #708248",
"Z+	c #BFC1BB",
"`+	c #B8BCBA",
" @	c #9D9D95",
".@	c #BEC0B0",
"+@	c #C5C8C0",
"@@	c #AAAE96",
"#@	c #B6BAB5",
"$@	c #97A874",
"%@	c #6A8D25",
"&@	c #7DA333",
"*@	c #7FA536",
"=@	c #779C2F",
"-@	c #799D35",
";@	c #6D8E2D",
">@	c #98998B",
",@	c #D4D4D4",
"'@	c #9A9991",
")@	c #B7BAAF",
"!@	c #B8BCB3",
"~@	c #ACB090",
"{@	c #A3A68E",
"]@	c #899F5D",
"^@	c #6E922A",
"/@	c #7CA033",
"(@	c #779A36",
"_@	c #949883",
":@	c #A4A799",
"<@	c #7C7A69",
"[@	c #A5A597",
"}@	c #C6C7BF",
"|@	c #B0B39A",
"1@	c #878D72",
"2@	c #799B37",
"3@	c #86AD3A",
"4@	c #72972B",
"5@	c #74844E",
"6@	c #BBBEB6",
"7@	c #B5B9A9",
"8@	c #9B9B92",
"9@	c #818369",
"0@	c #9DA190",
"a@	c #868A7F",
"b@	c #779447",
"c@	c #7DA137",
"d@	c #7D9947",
"e@	c #99A17B",
"f@	c #BABBB7",
"g@	c #BDBFB9",
"h@	c #A6A59D",
"  . + @ # $ % & * = - ; > = , ' ) ! ~ , { ] ^ # , ] / ( _ : < [ ",
"} | 1 2 3 4 # 5 6 { 7 ) 8 9 0 a , 9 7 - 6 b c d 3 e f g h i j k ",
"l m n o p q r s t 6 u v w x y o z A , B 6 C * e D , E F G H I J ",
"K L M N O P A 7 Q R S T P U V y { C r W O P 6 X D Y , # Z `  ...",
"+.@.a ^ #.$.%.&.$ *.O =.^ ) -.;.$ >.- 6 - % 3 ,.D 5 O ) '.).!.~.",
"{.].^./.@.{ (., _.0 O Q o :.<., [.t - }.|.~ 1.6 2.3.O C 4.5.6.R ",
"7.}.8.9.0.a y # B a.b.= /.S 6 c.S e d.R e.1.P # D f.g.9.h.7.#.h.",
"^ M 9.i.j.3 s t 7 S k.l.m.B R 4 6 ) n.D D D D 2.D D 2.2.2.D $ ] ",
"a 0 6 o.p.q q.r.> d.B s.{.t.:.u.v.R , o.R o ^.w.D C 8 O x.v y.[.",
"d z.~ v.^.A.B.d S 9 7 C.P D.q.E (.[.E.^.5.}.F.E D t 7 v 6 = q.w ",
"G.H.u A.S 9 I.q p.o.I.4.S x J.J.J.J.J.J.K.f.J.L.D 5 M.N.6 O.P.p.",
"z R K.e 3 6 O Q.$ A.V 0 ^.J.L.L.R.R.R.R.L.J.L.R.D S.:.A.^.E 7 H.",
"9 3 O { O u X T.U.7.O 3 J.L.R.V.W.- 7 3 R.L.R.+.D ^.X.a $.; #.x ",
"{.A.3 C t 3 6 * z /.^.J.L.^ Y.Z.J.J.J.s d.R.~ - }.}.#.R = - o.`.",
"8 d.F.j.R Q. +Q ^.q 0.J.R.3 1.J.L.L.L.R.3.c.4.C v.C .+}.b 6 a 0 ",
"++* o @+N :.o v S #+J.L.$+> J.L.R.6 o L.R.:.X # ; %+&+*+=+~ -+A.",
";+U.c.#.>+p.Y.>+Q.A.J.R.U.$ J.L.) U.,+'+L.R.e.)+Q.Q., w !+q.e.>+",
"1.9 8 c.6 h.N E #.# J.R.8 9 J.L., J.L.6 L.R./.E 3 e ~+=.:.k.c ^.",
"y r 3 x - 9 M {+d.J.L.L.R.t.6 R.L.L.L.C L.R.I.o 9 a E n.S ]+6 ^+",
"9.k.M R O B , 8 ].J.L.L.R./+7 ' R.R.3 g.L.R.1.W.(+v ^.= ^._+7 3 ",
"z.:+3 h., <+[+&.R J.L.~ L.R.) }+0 :+6 J.L.R.1.|+}.E O *., I.) [.",
"-+t v.&+1+' _+, J.L.L.L.L.L.L.J.J.J.J.L.R.e.1.#.9 >+C.k.x 2+3+4+",
"w c.9 8.+.5+O e L.R.R.R.R.R.R.R.R.R.R.R.>+_+P }.X B ! # 6+7+8+9+",
"0+a+b+c+{./.= _.O E 9 &.U.:.d+> , E o T.h.c.* _.O I.9 e+f+g+h+i+",
"j+k+l+m+A.n+m.o+) ].7 7 > = O g.^.R 3 d p+9 ^.q+E ^+7 r+s+t+u+v+",
"w+x+y+z+r /.b.E #.A+B 3 e.# D.5+u 0 ;+7.3 q.B+I., 9 7 C+D+E+F+G+",
"H+I+J+K+L+o *.e A.; ; 1+6 o % v.b M+I./.6 A+=.O.# r 4 <.N+O+P+Q+",
"R+S+T+U+V+W+7 7.0 e O 3.P I.8 X+0 0 ^./.3 - 7 Q.x.# 7 p+Y+Z+`+ @",
".@+@@@#@$@/+B x ! a 7 ^.%@u 3 &@_.' O * O M O *@=@3 -@v.;@>@,@'@",
")@!@~@{@]@q.v ^.# m.3 )+/.6 ^@) {.$ #.x C v.v.A d+/@E x.(@_@:@<@",
"[@}@|@1@2@* 3@C ^.x 4 3.4 3 a x.:.d.4@g.c ' l.9 Q.o m.$ 5@6@7@8@",
"9@0@a@b@9.B k.z Y.w z z.=+`.&+N <+r _.t {+B c@c Z.%@z d@e@f@g@h@"};
