/* XPM */
static char * m_atk_1_xpm[] = {
"66 66 340 2",
"  	c #AA834B",
". 	c #A88047",
"+ 	c #A37A3D",
"@ 	c #9F7535",
"# 	c #9F7533",
"$ 	c #9F7534",
"% 	c #A07737",
"& 	c #A57D41",
"* 	c #A9824A",
"= 	c #000000",
"- 	c #A88148",
"; 	c #A88046",
"> 	c #A78046",
", 	c #A67E43",
"' 	c #A2793B",
") 	c #9F7433",
"! 	c #A07635",
"~ 	c #A27B3A",
"{ 	c #A47E3D",
"] 	c #A57F3D",
"^ 	c #A6803F",
"/ 	c #A98446",
"( 	c #AC874C",
"_ 	c #AC864C",
": 	c #A98249",
"< 	c #766D78",
"[ 	c #AC874D",
"} 	c #443941",
"| 	c #A98348",
"1 	c #A77F46",
"2 	c #A88147",
"3 	c #AB854A",
"4 	c #AD884D",
"5 	c #AD894D",
"6 	c #A98149",
"7 	c #AA824A",
"8 	c #A57C41",
"9 	c #A2793C",
"0 	c #A2793A",
"a 	c #A07637",
"b 	c #A17938",
"c 	c #A98543",
"d 	c #AE8E4A",
"e 	c #AF8F4C",
"f 	c #B1914E",
"g 	c #B19150",
"h 	c #AE8B4E",
"i 	c #AB844C",
"j 	c #A77F45",
"k 	c #A37B3E",
"l 	c #A57D42",
"m 	c #A2783B",
"n 	c #A57E40",
"o 	c #AC894A",
"p 	c #B29351",
"q 	c #B29251",
"r 	c #AF8C4F",
"s 	c #AB844B",
"t 	c #A47B3F",
"u 	c #A2783A",
"v 	c #9F7635",
"w 	c #A17738",
"x 	c #A37B3B",
"y 	c #A68140",
"z 	c #AD8B49",
"A 	c #B29350",
"B 	c #B49652",
"C 	c #B49753",
"D 	c #AF8E4F",
"E 	c #AC884D",
"F 	c #A88246",
"G 	c #A37B3D",
"H 	c #A17839",
"I 	c #A57E3D",
"J 	c #A47D3C",
"K 	c #A78241",
"L 	c #AD8C4A",
"M 	c #B29451",
"N 	c #B59853",
"O 	c #B39451",
"P 	c #B08F50",
"Q 	c #A88146",
"R 	c #A47B3E",
"S 	c #A98148",
"T 	c #A37A3C",
"U 	c #A07636",
"V 	c #A88145",
"W 	c #AC8949",
"X 	c #AE8D4B",
"Y 	c #AE8C4D",
"Z 	c #AF8D4F",
"` 	c #B49653",
" .	c #B19151",
"..	c #AF8C4E",
"+.	c #AD8A4C",
"@.	c #AE8E4B",
"#.	c #B69953",
"$.	c #B59953",
"%.	c #B59753",
"&.	c #AE8C4E",
"*.	c #AE8A4E",
"=.	c #B08E4F",
"-.	c #B19050",
";.	c #A1783A",
">.	c #AB864B",
",.	c #B08F4F",
"'.	c #B39552",
").	c #AA824B",
"!.	c #B2934F",
"~.	c #AF8F4D",
"{.	c #AB874A",
"].	c #AA8449",
"^.	c #AD8B4B",
"/.	c #B1924E",
"(.	c #B29450",
"_.	c #AB854C",
":.	c #AB864C",
"<.	c #AA844B",
"[.	c #A67E44",
"}.	c #B49552",
"|.	c #DEA55A",
"1.	c #AA8646",
"2.	c #A47D3E",
"3.	c #A57F3F",
"4.	c #A78240",
"5.	c #A88342",
"6.	c #AB8748",
"7.	c #AD8A4D",
"8.	c #B09050",
"9.	c #AD8A4E",
"0.	c #B39450",
"a.	c #B1924F",
"b.	c #AA8549",
"c.	c #AD894B",
"d.	c #B0904E",
"e.	c #AE8C4C",
"f.	c #FFE7BD",
"g.	c #A47D3D",
"h.	c #A78144",
"i.	c #AA834A",
"j.	c #B39452",
"k.	c #B08E50",
"l.	c #AB8849",
"m.	c #A88443",
"n.	c #A57F40",
"o.	c #A47C3E",
"p.	c #A57E3F",
"q.	c #A68040",
"r.	c #8C5A18",
"s.	c #9E7433",
"t.	c #A3793D",
"u.	c #A67F43",
"v.	c #AC8A49",
"w.	c #AC884C",
"x.	c #AF8D4E",
"y.	c #A47C40",
"z.	c #A17838",
"A.	c #FF0000",
"B.	c #AA844A",
"C.	c #B19250",
"D.	c #AF8E4D",
"E.	c #AB864A",
"F.	c #A98248",
"G.	c #A67E45",
"H.	c #AD894E",
"I.	c #AC894C",
"J.	c #A88144",
"K.	c #A67F42",
"L.	c #AB8649",
"M.	c #A88245",
"N.	c #A57E41",
"O.	c #AA8548",
"P.	c #A98447",
"Q.	c #A17739",
"R.	c #9E7432",
"S.	c #AB8749",
"T.	c #A67E41",
"U.	c #A67D43",
"V.	c #A98545",
"W.	c #A78242",
"X.	c #A57D3F",
"Y.	c #A37A3E",
"Z.	c #A27A39",
"`.	c #A98347",
" +	c #A67E42",
".+	c #A27A3C",
"++	c #B49752",
"@+	c #B39652",
"#+	c #A07736",
"$+	c #AC8A47",
"%+	c #AD8A4B",
"&+	c #A57E3E",
"*+	c #A37B3F",
"=+	c #A47C41",
"-+	c #9F7434",
";+	c #B39351",
">+	c #9E7332",
",+	c #B39551",
"'+	c #A88543",
")+	c #A78044",
"!+	c #A57E42",
"~+	c #A17837",
"{+	c #F7B5A4",
"]+	c #B1914F",
"^+	c #AE8D4D",
"/+	c #A67F44",
"(+	c #A37C3D",
"_+	c #A27938",
":+	c #B39651",
"<+	c #AF8F4B",
"[+	c #AA8746",
"}+	c #A78042",
"|+	c #A78043",
"1+	c #AC884A",
"2+	c #A88344",
"3+	c #671616",
"4+	c #D31414",
"5+	c #AA834C",
"6+	c #A98645",
"7+	c #AA8448",
"8+	c #AB8846",
"9+	c #A68042",
"0+	c #AA8745",
"a+	c #AB8946",
"b+	c #AB8947",
"c+	c #AE8B4D",
"d+	c #B29250",
"e+	c #AC874B",
"f+	c #A37B3C",
"g+	c #A78045",
"h+	c #A17939",
"i+	c #B69954",
"j+	c #231821",
"k+	c #AA8649",
"l+	c #AA8645",
"m+	c #AD8B4A",
"n+	c #AF8E4E",
"o+	c #B29151",
"p+	c #B1904F",
"q+	c #AC894B",
"r+	c #AB8747",
"s+	c #AB8847",
"t+	c #AA8747",
"u+	c #A27A3A",
"v+	c #A47D3F",
"w+	c #A88247",
"x+	c #A98546",
"y+	c #AA8349",
"z+	c #AB874B",
"A+	c #A47C3F",
"B+	c #B08F4E",
"C+	c #A57C40",
"D+	c #AE8A4D",
"E+	c #B0914E",
"F+	c #A98349",
"G+	c #A77F44",
"H+	c #A78341",
"I+	c #AB854B",
"J+	c #A98448",
"K+	c #B1934F",
"L+	c #AE8B4C",
"M+	c #B18F50",
"N+	c #B59854",
"O+	c #AF8E4C",
"P+	c #AF8D4D",
"Q+	c #AD8A4A",
"R+	c #A68240",
"S+	c #AB8848",
"T+	c #A98547",
"U+	c #AA8647",
"V+	c #AD8C4B",
"W+	c #A98444",
"X+	c #AC884B",
"Y+	c #B0914D",
"Z+	c #A88343",
"`+	c #AA854A",
" @	c #A27A3B",
".@	c #A37C3B",
"+@	c #B19251",
"@@	c #B0904D",
"#@	c #A6803E",
"$@	c #A6813F",
"%@	c #AA8744",
"&@	c #A78243",
"*@	c #A57F3E",
"=@	c #AA8547",
"-@	c #B49651",
";@	c #A37D3B",
">@	c #A07836",
",@	c #AE8D4C",
"'@	c #B08F4D",
")@	c #9F7634",
"!@	c #A07738",
"~@	c #A27B39",
"{@	c #AD8C49",
"]@	c #B59752",
"^@	c #A37B3A",
"/@	c #AC8B48",
"(@	c #AC8A48",
"_@	c #A57D43",
":@	c #AC864D",
"<@	c #A47B40",
"[@	c #A78142",
"}@	c #A88442",
"|@	c #A67F40",
"1@	c #A57D40",
"2@	c #AD894C",
"3@	c #B0904F",
"4@	c #A27939",
"5@	c #AE8C4B",
"6@	c #A9824B",
"7@	c #636373",
"8@	c #A9834A",
"9@	c #AA8845",
"0@	c #A67F41",
"a@	c #A98544",
"b@	c #A47B41",
"c@	c #A1773A",
"d@	c #A88345",
"e@	c #A98643",
"f@	c #A98644",
"g@	c #A68041",
"h@	c #AC8948",
"i@	c #AB8A47",
"j@	c #B08E4E",
"k@	c #A37C3C",
"l@	c #A78143",
"m@	c #ADADAD",
"n@	c #B0904C",
"o@	c #A17937",
"p@	c #A5803E",
"q@	c #AE8D49",
"r@	c #AA8846",
"s@	c #A78340",
"t@	c #A98346",
"u@	c #B39550",
"v@	c #B2924F",
"w@	c #AD8B4D",
"x@	c #AC8B49",
"y@	c #A88149",
"          . + @ # $ $ $ # % & *                       = = =     = = =   =                                                           ",
"  * - ; > , ' $ ) ! ~ { ] ^ / ( _           : . > > - * = < = [ = } = = = | > 1 2 3 4 5 4 4 4 4 4 5 5 5 4 _   6 . - 7               ",
"  - 8 9 9 0 a $ ) b c d e e f g h i       7 j k ' 9 l = = } < = = } < } = = 9 m n o g p q q q q q q q p g r s j t l 6               ",
". , u $ $ v w 0 x y z A B C B p D 5 E 4 4 ( F G H = = = = = } < = = } < } = I J K L M C N N N N N B O O p P 5 Q R 8 S               ",
"T u U # ) % t V W X Y Z p `  ...D g q q q g +.= = } } } < < } } } } } } = = @.d X Y Z p N #.$.$.%.q &.*.h =.-.+.F . *               ",
";.;.H H H + j >.=.g Z *.,.q D *.-.B B '.B B -._ ).= = } } } < < < } = = = = = !.~.{.].^.f /./.(.p .._._.4 D q Z _.).  _.( :.<.s _ [ ",
"[.[.[.[.[.j 6 i 4 &.P -.Z &.D g }.%.p =.q B g [   = = = = < < < } = = |.|.= = 1.K 2.R 3.4.4.5.6.5 [ _.7.P ,.&.E i     4 =.Z _ [ =.g ",
". - :   _.:.s <.:.5 8.q Z 9.=.p 0.a.^.b.c.d.e.].= = = = < } } < } = |.f.f.= = = U $ ! w 0 x g.h.i.  i &.g Z :.      <.7.g -.*.h g j.",
"k l - _ Z =.4 _ h P =.Z ,.-.k.&.l.m.n.o.p.K q.= = = = } } = } < = = r.f.|.= = = ) s.U t.u.1.v.{.  ).  [ *.E   ).      _ *.D -.-.Z r ",
"@ ' j ( P -.w.3 x.g +.3 x.g Y | y.z.v ! % H = = = = } } = = = } = A.= f.= = = = = U ' , B.x.C.Z [ _ _ ( [ [ _ <.: :     s 5 d.D.E.F.",
"s.;.G._.H.I.J.K.L.+.M.N.O.+.P.t Q.$ R.$ ;.= = = = = = = = = = } = r.f.f.= = = = = + [.- s 4 r ,.-.-.-.-.-.-.,.S.T.U.6     ].V.W.X.Y.",
"Z.2.`._ [ ].o.0  +; y..+ +Q y.% $ $ v Q.y.= = = = = = = = = = = r.|.|.f.|.= = = = = *     _.4 =.O B ++B '.B @+L ^ N.F.  6 , ' #+! ! ",
"$+L D.P P %+&+U ;.*+=+8 y.Y.Q.-+R.@ ' & = = = = = = = = = = = = r.= = f.r.= = = = =     _.*.P =.=.p C ;+P q ++!.L l.B.. 8 m @ >+R.s.",
"O ,+B C %./.'+Z.w .+)+F.!+0 z.b ~+H 8 - = = = = = = = = = = = = r.|.|.|.= {+{+= i.7 = * B.Y ]+&.( D p =.E ..O ,+!.^+B./+(+Z.Z._+_+_+",
"D -.B $.$.:+<+[+}+|+1+Y O.K.2+[+2+, > = = = = = = 3+= = = = = r.= r.|.= 4+{+4+= i 5+* j N.W.6+7+  E h 4 i [ &.^.8+W.n 9+0+a+a+a+b+b+",
"( h q B N N ++A c+( =.d+&.e+x.]+Y B.* = = i.= = = 4+= = = = r.|.r.= = = 3+4+4+3+= = = t w ~+f+)+<._ _ _.<.i <.g+G h+~ m.~.,+,+,+O (.",
"=.=.=.-.'.N i+%.p P =.=.,.P P =.H._.= = . = = = = 4+3+= = = j+= = = j+= 3+4+3+{+{+4+3+= = ;.& k+x.=.Z 5 <.).* 1 l 9+l+m+n+p %.` o+P ",
"(.p+7.5 g B C B B p h 4 =.q Z _   = = 6 l = = 3+4+3+= j+j+j+} } j+j+j+= 3+3+{+4+3+{+{+4+3+= = =.'.C '.=.( i _.  i.q+d.D.= = C.g 5 _.",
"a+r+]._.*.=.,.,.P Z E _.*.Z H.  1 l & 8 ' = 3+4+3+= = = j+} j+= = = = 3+= = 3+3+{+4+3+{+{+4+3+= N #.N p ,.Z Z 5 _.b.s+= = j+= t+B.  ",
"u+v+w+_._ ( _ :.:._.  i.B.<.<.S & H a % U % = = = 4+j+j+} } } j+j+= 4+= j+j+= = 3+3+{+4+3+3+= = = %.N C B B '.P ( Q = } = j+= n 2   ",
"*+u.1+x.Z *.:.).).* j l 8 8 l y.' $ R.$ w k = j+= 3+= = = = = = = 4+j+j+j+j+j+j+= = 3+3+= = j+j+= = N $.$.#.N j.,.%+= } = j+= x+y+  ",
"S z+p+}.B q h i   : & 0 H H H Q.% U @ % A+2 = } j+= 3+3+{+{+{+{+4+= j+j+} } } j+j+j+= = j+} } } j+j+= = = = C B '.O = } j+j+= B+w.s ",
"  5 p N $.B g h _ i./ 5.n.R Y.k t t t C+P.D+= } j+= 3+4+4+4+4+4+3+= j+} } } j+j+j+j+j+j+j+} } } } } } } j+j+= = = = = = j+= = P Z r ",
"  4 q %.N N B q *.( x.E++.F+- - - 2 . F.+.= j+} j+= = = = = = = = = j+} } } j+= = = = = = j+j+j+j+j+j+} } } } } j+= } = j+j+= h g j.",
"  [ Z q B N $.++g =.O = = r [ <.- G+, G+x+= } } = 3+3+4+{+{+{+{+3+= j+} } j+= Q.! H k q.H+= = = = = j+j+j+j+j+} } = } = j+j+= [ Z g ",
"i.  I+D+q %.N C }.= = } < = h i.l ' w = = = } j+= 3+4+4+{+4+4+4+3+= j+} j+= H U H & J+e.f !.K+K+!.0.= = = = j+j+j+= j+} j+j+= <.:.( ",
", U.U.F L+-. . .= < } = = } = /+9 = = j+} } } j+= 4+4+4+4+4+4+4+4+3+= j+j+= y v+N.b...M+q ` N+i+$.#.N q r h = = = = j+j+j+= [.1 6 ).",
"0 u u A+`.( E ( ( = = j+= } j+= = j+} } } } j+j+= 4+4+4+4+4+4+4+4+4+3+= = = O+S.].P+g x.D+-.++N N N %.B '.j.j.'.p Q+= = = ;.0 y.2   ",
"4.R+4.m.1+w.| /+= } j+j+j+= j+= } } } } j+j+= = 3+4+4+4+4+4+4+4+4+4+4+3+3+= =.L.F S+z T+V U+X d.g q q '.N $.N B d+V+'+R+R+R+4.W+X+h ",
"Y+Y+Y+/.A ~.Z+' = = = = j+j+j+= } j+j+j+= = P = 4+4+4+4+4+4+4+4+4+{+{+3+3+= `+N. @.@J x ' x 3.= ( E 5 -.B $.%.+@h c+@@Y+Y+Y+Y+/.A O ",
"q q q p p n+2++ 9 = } j+= = = = j+j+= = r _ = 3+4+4+4+4+4+4+4+{+{+{+4+3+3+= l ;.#+.@#@$@^ ^ y = * ).<.*.g p g &.:.5 -.p q q q q q q ",
"5 5 5 5 5 ( F+> 1 > = = > > > = = = B.( _ <.= 3+4+4+4+4+4+4+{+{+4+4+4+3+3+= H U Z.%@e Y+@@Y+e = = ).  :.E 5 4 _ <._.E 5 5 5 5 5 5 5 ",
"      * . j j j j > =                 = = = = 3+4+4+4+4+4+4+4+4+4+4+3+3+3+= = = n o p ` N $.= j+= 5 5 :.<.:.4 ( <.                  ",
"      - =+' ' ' ' k =             = = j+j+= = 3+3+4+4+4+4+4+4+4+4+3+3+3+3+= = j+= = h p N = = j+} = q h :.*.-.Z _.                  ",
"  i [ E.&@*@] { x = = i._ 4 5 w.= j+j+= = 3+= 3+3+= = = = = = 3+3+3+3+3+3+= 4+= = j+= = = 3+= j+} = C g h Z g P *.4 4 4 4 5 5 [ _.  ",
"  ( =.g @@<+<+L =@= j+= ..g p = = = = 3+4+3+= = = 3+3+4+{+{+3+= = = = = = = 3+4+4+= = 4+4+= j+} } = N B p =.h Z g q q q q q q =.[   ",
"  [ ,.O ++++'.C...= j+= = = = 3+4+3+4+= = = = = 3+4+{+3+3+4+{+4+3+3+= = j+j+= = 3+4+4+3+3+= j+} } = O O p ,.*.Z q }.%.N N -@a.e.7+. ",
"  _.4 D j.B -.r P = j+= j+j+= = = = = j+j+= 3+3+= 3+4+{+{+3+3+= 3+= } } = = j+j+= = 3+3+= j+} } j+= *.*.h =.-.,...-.B i+N /.0+3.(++ ",
"  s _ h g q Z 7.n+= j+j+= j+j+j+j+j+j+j+= = 3+4+{+4+3+4+4+{+{+4+= = } } } j+= j+j+j+= = j+j+} } =       _.h g P *.Z q O /.$+;@$ $ $ ",
"  [ Z 8.Z r P B+b+= j+j+= j+} } j+j+j+= 3+3+= 3+4+{+{+3+3+4+4+4+3+= } } } } = = j+j+j+j+} } } } = ).).).  _ h =.-.P &.1+m.{ >@) ) # ",
"- E.,.p+X+3 ,@@.4.#+= j+j+= j+} } } } = 3+4+{+4+3+3+4+{+{+3+3+3+3+= j+} } } j+= = j+} } } } } j+= ( ( _.  : : q+'@,@].l H )@$ ! !@H ",
"k u.{.X+)+v+y y ~@$ >+= = = = = j+} } } = = 4+{+{+4+3+4+4+{+4+= = } } } } } } = = j+j+j+} } j+j+= g 8.*.<.G.t p.K q.R ;.@ s.# H y., ",
"v ' , j T U ! ! $ v ~+] {@,+]@++= = = = = j+= 3+4+{+4+= 3+4+3+3+= j+} } } } } = '.= = j+j+j+j+= '.B B -.w.V g..@.@^@h+Q.w w w k > 7 ",
") U m m a s.>+>+>+~+4.{@!.N i+i+i+i+i+N = } } = 3+4+{+4+= 3+3+= h.= j+} } } j+= r r r = = = = p P p C '.g D.{@/@(@1.|+l l l _@j 6   ",
"!@z.u+~ Z.Z.Z.Z.Z.I (@A ++%.C B }.B B }.= } } } = 3+4+{+3+= = 7.= j+j+} } } = h s i.F+: `+P+]+L+E.&.O }.'.O O O p n+>.i.I+I+I+I+:.:.",
"l |+1.$+$+$+$+$+$+v.e.,.j.B q D r Z Z = j+} } } j+= 3+4+3+= ` = j+} } } } j+= :@: [.<@*+y.[@}@|@1@`.c+Z Z Z Z D Z H._.[ Z -.-.8.8.8.",
"I+2@3@O :+-@-@-@B M &.4 -.'.=._ s s <.= j+j+} } j+= = 3+3+= B = j+j+} } } = s * > Y.a v U z.4@Z.f+h.>._ _.i i i i _.:.h q B B B '.'.",
"-.P k.g B i+i+i+i+B ..( P '.=._.).7 1 = j+} } } j+= V = = Z D D = j+j+j+j+= : [.R w $ R.@ m C+Z+s+5@x.5   6@).6@  E Z P P q C B g D ",
"(.3@5 5 g B ++B ++O h ( =.p ..i.: - 8 = j+} } } j+= N.F+_._._.= 7@= = = = 8@> Y.U $ $ v H  +3 n+,+++'.,.[ _._.<.<.7.]+n+e++.]+]+5 _.",
"9@t+]._.*.Z =.=.k.Z E _.9.&.O. +=+y.' = j+} } } j+= U+i.).).= = 7@7@= <@y.y.k w # s.! '  +{.,.'.N i+N O P =.Z 5 s b.1.Z+N.0@a@U+].  ",
"u+v+w+_._ _ I+B.B.B.i.* i.| & w U U ! = j+} } } j+= 3@4 _._.= j+= = = H H Q.w % U U ;. +3 D O B ++%.N %.B ++}.8.( Q 2.~ u+u+x n 2   ",
"t |+q+D =.+.F 8 <@b@=+=+=+t c@-+R.s.s.$ = j+} } j+j+= -.=.D = j+j+j+= 0@y.t t <@<@t  +L.Z P ,.=.8.O N i+i+i+N '.,.^.8+%@%@%@%@1.].  ",
": >.,.'.}.d.Z+0 H 4@4@4@4@4@z.~+>@#+#+% = j+} } } j+= '.'.'.= j+} } = e+: : y+y+y+F+>.,.p =.E _.( =.,+B -@-@-@B '.O (.A A (.A B+(   ",
"  _ ..-.-.Y d@n K e@f@e@e@e@f@f@f@c g@& = j+j+} } j+= -.-.-.= = } } j+= :.*.Z D Z Z P j.C p Z [ s L.h@$+$+i@$+L j@P P P P -.-.r _   ",
"  <._.:._ I+i.`+^+!.A !.!.!.(.(.0.!.Y E.c+= j+j+j+= :.I+I+I+7.= j+} } = [ P j.'.'.'.'.B ++B d+h y+ +x Z.Z.~@k@l@E.[ [ [ [ ( _ _.<.  ",
"    ).).).).)._.h -.-.-.-.q }.N i+N p P q C = = = m@= [.l _@h.= j+j+j+= :.&.-.-.-.-.-.-.3@O+(@/  +' $ >+$ ^@H+S+c+..&...&.5 i ).).  ",
"7     <.<.<.<.i _ [ [ ( _ w.,.B N %.B '.B C B = 7@m@= = w w h+x = = = = = _ ( ( _ :.:.:.`+9+x h+w a ! $ ~+}@n@O ,+'.'.'.j.P E <.<.<.",
", Q X+&...&.&.&.&.h h 5 | g+{.,.g -.g g g g  .-.= = j+j+= s.o@p@= |.r.|.= h 5 _.* 1 U._@=+;.-+>+$ Q.G n.m.v.3@j.N #.N B q P Z h h h ",
"H |@X O '.j.j.O O j.'.]+6+o.)+>.[ ( ( ( ( _ ( >.= j+j+j+j+= *@{@!.= = = = '.q *.: & 0 H H % ! )@% t 2 %+d.n+7.=.}.N %.q h h q '.'.'.",
"+ 9+^.g q g g g g q B :+q@a@6.5 [   . [.U.U.[.U.= j+} j+j+= r@D.o+q g g p B B -.+.1.H+s@H+H+H+H+5.t@<.*.-.P ..Z -.g g .._ *.j.i+i+$.",
". : I+[ E [ [ [ [ *. .B u@a.A p r B.U.9 H u u = j+} } j+= D.B+7.[ [ [ [ h p C B M v@/./././././.d.w@I+_.E Z q P 5 [ [ _.<.7.p N N N ",
"                )._.&.g q p B B P s [.R 2.^ *@= } } } j+= P =.(         _ Z q q q q q q q q q q  .h i ).<.*.P .._.    6 > / x@d d d ",
"                  <.:.E E *.g '.=.I+y@- 1+O+= j+} } j+= _.[ ( s         <._ E E E E E E E E E 4 E :.      _.[ _ <.    1 k  @J { { { ",
"                          _.&.-.h i ).s *.-.= = = j+=                   * . j j j j j j j j j j 1 - i.                > t ' ' 9 9 9 ",
"                            :.E :.<.    :.= |.f.r.=                     - y.' ;.u u u u u u u ;.9 , *                 : . > 1 1 1 1 ",
"                                          = = = =                       . T @ # $ $ $ $ $ $ $ # a 8 :                               "};
