/* XPM */
static char * m_atk_0_xpm[] = {
"66 66 340 2",
"  	c #AA834B",
". 	c #A88047",
"+ 	c #A37A3D",
"@ 	c #9F7535",
"# 	c #9F7533",
"$ 	c #9F7534",
"% 	c #A07737",
"& 	c #A57D41",
"* 	c #A9824A",
"= 	c #A88148",
"- 	c #A88046",
"; 	c #A78046",
"> 	c #A67E43",
", 	c #A2793B",
"' 	c #9F7433",
") 	c #A07635",
"! 	c #A27B3A",
"~ 	c #A47E3D",
"{ 	c #A57F3D",
"] 	c #A6803F",
"^ 	c #A98446",
"/ 	c #AC874C",
"( 	c #AC864C",
"_ 	c #A98249",
": 	c #000000",
"< 	c #AD894D",
"[ 	c #A98348",
"} 	c #A77F46",
"| 	c #A88147",
"1 	c #AB854A",
"2 	c #AD884D",
"3 	c #A98149",
"4 	c #AA824A",
"5 	c #A57C41",
"6 	c #A2793C",
"7 	c #A2793A",
"8 	c #A07637",
"9 	c #A17938",
"0 	c #A98543",
"a 	c #AE8E4A",
"b 	c #AF8F4C",
"c 	c #B1914E",
"d 	c #B19150",
"e 	c #AE8B4E",
"f 	c #AB844C",
"g 	c #A77F45",
"h 	c #A37B3E",
"i 	c #AC884D",
"j 	c #B29251",
"k 	c #AF8D4D",
"l 	c #A78243",
"m 	c #A2783B",
"n 	c #A57E40",
"o 	c #AC894A",
"p 	c #B29351",
"q 	c #AF8C4F",
"r 	c #AB844B",
"s 	c #A47B3F",
"t 	c #A57D42",
"u 	c #A2783A",
"v 	c #9F7635",
"w 	c #A17738",
"x 	c #A37B3B",
"y 	c #A68140",
"z 	c #AD8B49",
"A 	c #B29350",
"B 	c #B49652",
"C 	c #B49753",
"D 	c #AF8E4F",
"E 	c #A88246",
"F 	c #A37B3D",
"G 	c #A17839",
"H 	c #766D78",
"I 	c #443941",
"J 	c #B39552",
"K 	c #A98544",
"L 	c #A57E3D",
"M 	c #A47D3C",
"N 	c #A78241",
"O 	c #AD8C4A",
"P 	c #B29451",
"Q 	c #B59853",
"R 	c #B39451",
"S 	c #B08F50",
"T 	c #A88146",
"U 	c #A47B3E",
"V 	c #A98148",
"W 	c #A37A3C",
"X 	c #A07636",
"Y 	c #A88145",
"Z 	c #AC8949",
"` 	c #AE8D4B",
" .	c #AE8C4D",
"..	c #AF8D4F",
"+.	c #B49653",
"@.	c #B19151",
"#.	c #AF8C4E",
"$.	c #AD8A4C",
"%.	c #A67E44",
"&.	c #A67F44",
"*.	c #AE8E4B",
"=.	c #B69953",
"-.	c #B59953",
";.	c #B59753",
">.	c #AE8C4E",
",.	c #AE8A4E",
"'.	c #B08E4F",
").	c #B19050",
"!.	c #A1783A",
"~.	c #AB864B",
"{.	c #B08F4F",
"].	c #B2934F",
"^.	c #AF8F4D",
"/.	c #AB874A",
"(.	c #AA8449",
"_.	c #AD8B4B",
":.	c #B1924E",
"<.	c #B29450",
"[.	c #AB854C",
"}.	c #AA824B",
"|.	c #AB864C",
"1.	c #AA844B",
"2.	c #AC874D",
"3.	c #B49552",
"4.	c #AA8646",
"5.	c #A47D3E",
"6.	c #A57F3F",
"7.	c #A78240",
"8.	c #A88342",
"9.	c #AB8748",
"0.	c #AD8A4D",
"a.	c #B09050",
"b.	c #AD8A4E",
"c.	c #B39450",
"d.	c #B1924F",
"e.	c #AA8549",
"f.	c #AD894B",
"g.	c #B0904E",
"h.	c #AE8C4C",
"i.	c #A78045",
"j.	c #A47D3D",
"k.	c #A78144",
"l.	c #AA834A",
"m.	c #B39452",
"n.	c #B08E50",
"o.	c #AB8849",
"p.	c #A88443",
"q.	c #A57F40",
"r.	c #A47C3E",
"s.	c #A57E3F",
"t.	c #DEA55A",
"u.	c #9E7433",
"v.	c #A3793D",
"w.	c #A67F43",
"x.	c #AC8A49",
"y.	c #AC884C",
"z.	c #AF8D4E",
"A.	c #A47C40",
"B.	c #A17838",
"C.	c #FFE7BD",
"D.	c #AA844A",
"E.	c #B19250",
"F.	c #AF8E4D",
"G.	c #AB864A",
"H.	c #A98248",
"I.	c #A67E45",
"J.	c #AD894E",
"K.	c #AC894C",
"L.	c #A88144",
"M.	c #A67F42",
"N.	c #AB8649",
"O.	c #A88245",
"P.	c #A57E41",
"Q.	c #AA8548",
"R.	c #A98447",
"S.	c #A17739",
"T.	c #AB8749",
"U.	c #A67E41",
"V.	c #A67D43",
"W.	c #A98545",
"X.	c #A78242",
"Y.	c #A57D3F",
"Z.	c #A37A3E",
"`.	c #A27A39",
" +	c #A98347",
".+	c #A67E42",
"++	c #A27A3C",
"@+	c #8C5A18",
"#+	c #A27939",
"$+	c #B49752",
"%+	c #B39652",
"&+	c #A07736",
"*+	c #AC8A47",
"=+	c #AD8A4B",
"-+	c #A57E3E",
";+	c #A37B3F",
">+	c #A47C41",
",+	c #9F7434",
"'+	c #9E7432",
")+	c #004040",
"!+	c #FF0000",
"~+	c #AB8846",
"{+	c #A88244",
"]+	c #B39351",
"^+	c #9E7332",
"/+	c #B39551",
"(+	c #A88543",
"_+	c #A78044",
":+	c #A57E42",
"<+	c #F7B5A4",
"[+	c #671616",
"}+	c #AD894C",
"|+	c #B1914F",
"1+	c #AE8D4D",
"2+	c #A37C3D",
"3+	c #A27938",
"4+	c #B39651",
"5+	c #AF8F4B",
"6+	c #AA8746",
"7+	c #A78042",
"8+	c #A78043",
"9+	c #AC884A",
"0+	c #D31414",
"a+	c #AA834C",
"b+	c #A98645",
"c+	c #AA8448",
"d+	c #A68042",
"e+	c #AA8745",
"f+	c #AB8946",
"g+	c #AB8947",
"h+	c #AE8B4D",
"i+	c #B29250",
"j+	c #AC874B",
"k+	c #A17837",
"l+	c #A37B3C",
"m+	c #A17939",
"n+	c #B69954",
"o+	c #AA8649",
"p+	c #AA8645",
"q+	c #AD8B4A",
"r+	c #AF8E4E",
"s+	c #B29151",
"t+	c #B1904F",
"u+	c #231821",
"v+	c #AA854A",
"w+	c #AC894B",
"x+	c #AC884B",
"y+	c #AB8747",
"z+	c #AB8847",
"A+	c #A98444",
"B+	c #AA8747",
"C+	c #A27A3A",
"D+	c #A47D3F",
"E+	c #A88247",
"F+	c #A98643",
"G+	c #A98546",
"H+	c #AA8349",
"I+	c #AB874B",
"J+	c #AB854B",
"K+	c #B08F4E",
"L+	c #A88345",
"M+	c #A77F44",
"N+	c #AB8848",
"O+	c #AE8A4D",
"P+	c #AE8B4C",
"Q+	c #A27B39",
"R+	c #A47C3F",
"S+	c #A07837",
"T+	c #A78341",
"U+	c #AE8D4C",
"V+	c #AF8E4C",
"W+	c #A68240",
"X+	c #AC8948",
"Y+	c #A98547",
"Z+	c #B0914D",
"`+	c #A27A3B",
" @	c #A37C3B",
".@	c #B0904D",
"+@	c #A88344",
"@@	c #AA8647",
"#@	c #A6803E",
"$@	c #A6813F",
"%@	c #A98349",
"&@	c #AA8744",
"*@	c #A5803E",
"=@	c #A67F45",
"-@	c #B0904C",
";@	c #A57F3E",
">@	c #AA8547",
",@	c #A47C3D",
"'@	c #B49651",
")@	c #A88048",
"!@	c #A98346",
"~@	c #A37D3B",
"{@	c #A88442",
"]@	c #A57D3E",
"^@	c #AD8D49",
"/@	c #A07836",
"(@	c #B59752",
"_@	c #B08F4D",
":@	c #9F7634",
"<@	c #A07738",
"[@	c #AC8A48",
"}@	c #AD8C49",
"|@	c #AD8B48",
"1@	c #A68040",
"2@	c #A37B3A",
"3@	c #AC8B48",
"4@	c #A57D43",
"5@	c #A78142",
"6@	c #A67F40",
"7@	c #A57D40",
"8@	c #B0904F",
"9@	c #A57C40",
"0@	c #A88343",
"a@	c #AE8C4B",
"b@	c #A9824B",
"c@	c #AA8845",
"d@	c #636373",
"e@	c #A67F41",
"f@	c #ADADAD",
"g@	c #A47B40",
"h@	c #A47B41",
"i@	c #A1773A",
"j@	c #A98644",
"k@	c #AB8A47",
"l@	c #B08E4E",
"m@	c #A37C3C",
"n@	c #A78143",
"o@	c #A17937",
"p@	c #AE8D49",
"q@	c #A78140",
"r@	c #AA8846",
"s@	c #A78340",
"t@	c #B39550",
"u@	c #B2924F",
"v@	c #AD8B4D",
"w@	c #AC8B49",
"x@	c #A88149",
"y@	c #9C5221",
"          . + @ # $ $ $ # % & *                                                                                                     ",
"  * = - ; > , $ ' ) ! ~ { ] ^ / (           _ . ; ; = *     : : < < < < / [ ; } | 1 2 < 2 2 2 2 2 < < < 2 (   3 . = 4               ",
"  = 5 6 6 7 8 $ ' 9 0 a b b c d e f       4 g h , 6 : : : : i : : : j j k l 6 m n o d p j j j j j j j p d q r g s t 3               ",
". > u $ $ v w 7 x y z A B C B p D < i 2 2 / E F G , 5 : H : : : I : : J : K L M N O P C Q Q Q Q Q B R R p S < T U 5 V               ",
"W u X # ' % s Y Z `  ...p +.@.#.D d j j j d $.E %.&.: : I H : : I H I : : ` *.a `  ...p Q =.-.-.;.j >.,.e '.).$.E . *               ",
"!.!.G G G + g ~.'.d ..,.{.j D ,.).B B J B B ).( : : : : : I H : : I H I : ).A ].^./.(._.c :.:.<.p #.[.[.2 D j ..[.}.  [./ |.1.r ( 2.",
"%.%.%.%.%.g 3 f 2 >.S )...>.D d 3.;.p '.j B : : I I I H H I I I I I I : : D $.4.N 5.U 6.7.7.8.9.< 2.[.0.S {.>.i f     2 '...( 2.'.d ",
". = _   [.|.r 1.|.< a.j ..b.'.p c.d._.e.f.g.h.: : : I I I H H H I : : : : : i.W X $ ) w 7 x j.k.l.  f >.d ..|.      1.0.d ).,.e d m.",
"h t = ( ..'.2 ( e S '...{.).n.>.o.p.q.r.s.N : : : : : : H H H I : : t.t.: : 6 8 ' u.X v.w.4.x./.  }.  2.,.i   }.      ( ,.D ).)...q ",
"@ , g / S ).y.1 z.d $.1 z.d  .[ A.B.v ) : : : : : : : H I I H I : t.C.C.: : v $ @ X , > D.z.E...2.( ( / 2.2.( 1._ _     r < g.F.G.H.",
"u.!.I.[.J.K.L.M.N.$.O.P.Q.$.R.s S.$ : : : : : : : : I I : I H : : t.C.C.: : u.u.X + %.= r 2 q {.).).).).).).{.T.U.V.3     (.W.X.Y.Z.",
"`.5. +( 2.(.r.7 .+- A.++.+T A.% $ $ v : : : : : : I I : : : I : : @+C.t.: : #+B., %.*     [.2 '.R B $+B J B %+O ] P.H.  3 > , &+) ) ",
"*+O F.S S =+-+X !.;+>+5 A.Z.S.,+'+@ : : : : : : : : : : : : I )+!+: C.: : : ~+{+&.=     [.,.S '.'.p C ]+S j $+].O o.D.. 5 m @ ^+'+u.",
"R /+B C ;.:.(+`.w ++_+H.:+7 B.9 : : : : : : : : : <+<+[+: : I @+C.t.C.t.: [+: }+l.4   * D. .|+>./ D p '.i #.R /+].1+D.&.2+`.`.3+3+3+",
"D ).B -.-.4+5+6+7+8+9+ .Q.M.: : : : : : : : : : 0+0+<+0+: : : @+t.t.C.: : 0+: 2.f a+* g P.X.b+c+  i e 2 f 2.>._.~+X.n d+e+f+f+f+g+g+",
"/ e j B Q Q $+A h+/ '.i+>.j+z.|+ .: : : : : : <+<+0+0+[+: : : @+: : t.: [+0+: l._ _ . s w k+l+_+1.( ( [.1.f 1.i.F m+! p.^./+/+/+R <.",
"'.'.'.).J Q n+;.p S '.'.{.S S '.: : : : : <+0+: : [+0+[+: : : : @+t.: : [+0+: I.5 5 s G ) !.& o+z.'...< 1.}.* } t d+p+q+r+p ;.+.s+S ",
"<.t+0.< d B C B B p e 2 '.j ..: : : : 0+[+: : 0+<+<+0+[+: : : u+: : : : : [+0+: % X X X G t v+'.J C J './ f [.  l.w+g.F.x+0.E.d < [.",
"f+y+(.[.,.'.{.{.S ..i [.,.: : : : : [+<+<+0+[+: 0+[+: : 0+u+u+I I I u+u+0+: [+0+: '+@ u P.N.'.m.Q =.Q p {.....< [.e.z+A+.+d+W.B+D.  ",
"C+D+E+[.( / ( |.|.[.  : : : : : : : : : [+0+: : : : u+u+0+: : : : : : [+[+: : [+0+: G t v+..R B C ;.Q C B B J S / T 5.! C+C+x n |   ",
";+w.9+z...,.|.}.}.* g t 5 5 : : u+I I u+: : u+u+u+u+I I : [+[+<+<+<+0+: : u+u+: [+0+: /...S ).).).m.Q -.-.=.Q m.{.: : : F+F+F+G+H+  ",
"V I+t+3.B j e f   _ & 7 G : I I I I u+u+u+u+u+u+u+: I u+: [+0+0+0+0+0+: u+u+I I : [+[+: d #.|.J+/ {.B ;.C ;.C B : I : I : <.].K+y.r ",
"  < p Q -.B d e ( l.^ 8.: I I u+u+u+u+u+u+u+: : : u+u+: : : : : : : : : u+u+I I I : : : z+L+t 5 > N.D ).).).).: I u+I : ;.+.j S ..q ",
"  2 j ;.Q Q B j ,./ z.: I u+u+u+u+: : : : : : u+u+u+u+: [+0+<+<+<+<+[+[+: u+u+I I u+: u+: : 7 G W _+~.2.( ( ( : I : u+I : j e e d m.",
"  2...j B Q -.$+d '.: u+u+u+u+u+: M+> : : : : : u+u+u+: 0+0+<+0+0+0+0+[+: : u+u+u+I I I I u+: : p.N+0.2.  }.: : u+: u+: '.q ( 2...d ",
"l.  J+O+j ;.Q C : : : : @+: : u+: , : : : : : : u+u+: [+0+0+0+0+0+0+0+0+: C+: : u+u+u+I I I I u+: : : ..|.: I : u+: : : |.J+  1.|./ ",
"> V.V.E P+).@.: u+I I u+: : @+: 6 ) : : Q+: : u+u+u+: [+0+0+0+0+0+0+0+0+: ] y D+: : u+u+u+I I u+I I u+: : : I u+: : : V.V.V.%.} 3 }.",
"7 u u R+ +/ : H H H I I I I : : X : # S+T+: : u+u+: [+[+0+0+0+0+0+0+0+0+: U+V+T.(.k : : : u+u+u+u+I I I : : u+I : u+: !.!.!.7 A.|   ",
"7.W+7.p.9+y.: I : I : I : u+u+: u.v Q+7.X+: : u+u+: [+0+0+0+0+0+0+0+0+<+: n.'.N.E N+z Y+Y : : u+u+u+u+u+: @+: u+u+: : W+W+W+7.A+x+e ",
"Z+Z+Z+:.A ^.: u+: u+: u+: u+u+: ' k+8.*.z.: : : : [+0+0+0+0+0+0+0+0+<+<+: / v+P.`+ @M x , x 6.: : : : u+u+: @+: u+: .@Z+Z+Z+Z+:.A R ",
"j j j p p r++@: : : : u+: : : u+: U @@{.q ( : [+[+[+0+0+0+0+0+0+0+<+<+0+: g t !.&+ @#@$@] ] y O.* }.1.: : : : : : < ).p j j j j j j ",
"< < < < < / %@; } ; : : ; ; ; : : | D./ ( 1.: [+[+[+0+0+0+0+0+0+<+<+0+0+: u G X `.&@b Z+.@Z+b }+1.}.  |.i < 2 ( 1.[.i < < < < < < < ",
"      * . g g g g ; _                   _ - : [+[+[+[+0+0+0+0+0+0+0+0+0+: *@L l+n o p +.Q -.C ).,.< < |.1.|.2 / 1.                  ",
"      = >+, , , , h g                 * =@+ : [+[+[+[+[+0+0+0+0+0+0+0+[+: -@` Q.E+1 e p Q -.Q 3.p p j e |.,.)...[.                  ",
"  f 2.G.l ;@{ ~ x + I.l.( 2 < y.D.| ; g s X : : [+[+[+[+[+[+0+0+0+[+[+[+: m.).< 1.  |...p ]+R B Q Q C d e ..d S ,.2 2 2 2 < < 2.[.  ",
"  / '.d .@5+5+O >@; = J+#.d p t+@@r., , w : [+[+: : : : : : : : : : : : : : < |.    1./ < < e j ;.-.Q B p '.e ..d j j j j j j '.2.  ",
"  2.{.R $+$+J E.#.2 i b.{.]+C /+X+,@!.7 x : [+0+0+[+: [+0+<+<+<+<+<+<+0+: [+: . . - . _     [.#.p R R R p {.,...j 3.;.Q Q '@d.h.c+. ",
"  [.2 D m.B ).q S j j d D ..p 3.U+T %.i.@@: 0+<+<+0+: [+[+[+0+0+0+0+0+0+[+: [+: 6 6 s g *     / 0.,.,.,.e '.).{.#.).B n+Q :.e+6.2++ ",
"  r ( e d j ..0.r+c :..@9+c+=+^.=+H.)@  ,.: [+0+0+0+: : : : : [+[+[+[+[+: : : : M M 6.!@|.[.            [.e d S ,...j R :.*+~@$ $ $ ",
"  2...a...q S K+g+{@T+7.]@F s.y s.s %.4 : 0+0+0+[+: u+: [+0+<+<+<+<+<+<+0+: : [+: ^@` g.{.< 1.}.}.}.}.}.  ( e '.).S >.9+p.~ /@' ' # ",
"= G.{.t+x+1 U+*.7.&+$ &+`. @M M  @j.k.: 0+<+<+<+0+: u+: [+[+[+0+0+0+0+0+[+: u+: : $+(@Q B '.i / / / / [.  _ _ w+_@U+(.t G :@$ ) <@G ",
"h w./.x+_+D+y y Q+$ ^+&+7.[@}@z |@}@V+: [+[+0+0+0+: u+: : : : : [+[+[+[+: : u+: [+: n+=.Q R d ).d d a.,.1.I.s s.N 1@U !.@ u.# G A.> ",
"v , > g W X ) ) $ v k+{ }@/+(@$+$+$+: [+0+0+0+[+: u+u+: [+[+0+0+0+0+0+0+[+: u+u+: : J J 3.B C B J B B ).y.Y j. @ @2@m+S.w w w h ; 4 ",
"' X m m 8 u.^+^+^+k+7.}@].Q n+n+n+n+: 0+<+<+<+0+: u+I : [+0+<+<+<+<+<+<+0+[+: u+: [+: q '.m.C p S p C J d F.}@3@[@4.8+t t t 4@g 3   ",
"<@B.C+! `.`.`.`.`.L [@A $+;.C B 3.: [+[+[+0+0+0+: u+I : [+[+[+0+0+0+0+0+0+[+: u+I : : _ v+k |+P+G.>.R 3.J R R R p r+~.l.J+J+J+J+|.|.",
"t 8+4.*+*+*+*+*+*+x.h.{.m.B j D q : [+0+0+0+[+: u+u+I I : : : : [+[+[+[+: : : u+I : [+: A.5@{@6@7@ +h+........D ..J.[.2...).).a.a.a.",
"J+}+8@R 4+'@'@'@B P >.2 ).J '.( r : 0+<+<+<+0+: u+I I I : [+[+0+0+0+0+0+0+[+: u+I I : : X B.#+`.l+k.~.( [.f f f f [.|.e j B B B J J ",
").S n.d B n+n+n+n+B #./ S J '.[.}.: [+[+[+<+0+: u+I I I : [+0+<+<+<+<+<+0+[+: u+I u+u+: @ m 9@0@z+a@z.<   b@}.b@  i ..S S j C B d D ",
"<.8@< < d B $+B $+R e / '.p #.l._ : : : 0+0+: u+u+I I I : : : : : : : : : : : u+u+u+u+: G .+1 r+/+$+J {.2.[.[.1.1.0.|+r+j+$.|+|+< [.",
"c@B+(.[.,...'.'.n...i [.b.>.Q..+>+: u+u+: : : u+u+I I u+: u+u+u+u+: d@: u+: : u+u+u+u+: .+/.{.J Q n+Q R S '...< r e.4.0@P.e@K @@(.  ",
"C+D+E+[.( ( J+D.D.D.l.* l.[ & w : u+u+u+u+u+u+u+I I I : : : : : : d@f@d@: S.: u+u+u+u+: 1 D R B $+;.Q ;.B $+3.a./ T 5.! C+C+x n |   ",
"s 8+w+D '.$.E 5 g@h@>+>+>+s i@,+: u+u+u+u+u+u+I I I u+: '.D : u+: f@d@: A.s s : u+u+u+: ..S {.'.a.R Q n+n+n+Q J {._.~+&@&@&@&@4.(.  ",
"_ ~.{.J 3.g.0@7 G #+#+#+#+#+B.k+: u+u+I I I I I I I u+: J J : u+u+: : j+_ _ H+: u+u+u+: p '.i [./ './+B '@'@'@B J R <.A A <.A K+/   ",
"  ( #.).). .L+n N F+j@F+F+F+j@j@: : : : u+u+I I I u+: ).).).: u+u+: ..2.|.,...: u+u+: m.C p ..2.r N.X+*+*+k@*+O l@S S S S ).).q (   ",
"  1.[.|.( J+l.v+1+].A ].].].<.<.c.]. .: : : : : : : : J+J+J+0.: u+: [.1.2.S m.: : : J B $+B i+e H+.+x `.`.Q+m@n@G.2.2.2.2./ ( [.1.  ",
"    }.}.}.}.}.[.e ).).).).j 3.Q n+Q p S j C m.: : : = %.t 4@k.: u+: }.}.|.>.).).).).).).8@V+[@^ .+, $ ^+$ 2@T+N+h+#.>.#.>.< f }.}.  ",
"4     1.1.1.1.f ( 2.2./ ( y.{.B Q ;.B J B C B : d@: %.6 w w m+: : : 1.r [.( / / ( |.|.|.v+d+x m+w 8 ) $ k+{@-@R /+J J J m.S i 1.1.1.",
"> T x+>.#.>.>.>.>.e e < [ i./.{.d ).d d d d @.: : : Z.X '+u.o@: @+: >.#.>.e < [.* } V.4@>+!.,+^+$ S.F q.p.x.8@m.Q =.Q B j S ..e e e ",
"G 6@` R J m.m.R R m.J |+b+r._+~.2./ / / / ( / : u+: : ) $ ) ;@}@: @+: m.m.J j ,._ & 7 G G % ) :@% s | =+g.r+0.'.3.Q ;.j e e j J J J ",
"+ d+_.d j d d d d j B 4+p@K 9.< 2.  . %.V.V.%.: I u+: , 5.q@r@F.: : : d p B B ).$.4.T+s@T+T+T+T+8.!@1.,.).S #...).d d #.( ,.m.n+n+-.",
". _ J+2.i 2.2.2.2.,.@.B t@d.A p q D.V.6 G u u : I I : &./.F.K+0.2.2.2.2.e p C B P u@:.:.:.:.:.:.g.v@J+[.i ..j S < 2.2.[.1.0.p Q Q Q ",
"                }.[.>.d j p B B S r %.U 5.] ;@: u+I : _ 2 S './         ( ..j j j j j j j j j j @.e f }.1.,.S #.[.    3 ; ^ w@a a a ",
"                  1.|.i i ,.d J '.J+x@= 9+V+_.: : u+: l.[.2./ r         1.( i i i i i i i i i 2 i |.      [.2.( 1.    } h `+M ~ ~ ~ ",
"                          [.>.).e f }.r ,.)...: y@: :                   * . g g g g g g g g g g } = l.                ; s , , 6 6 6 ",
"                            |.i |.1.    |.i / : t.C.:                   = A., !.u u u u u u u !.6 > *                 _ . ; } } } } ",
"                                                : :                     . W @ # $ $ $ $ $ $ $ # 8 5 _                               "};
