/* XPM */
static char * m_atk_2_xpm[] = {
"66 66 337 2",
"  	c #AA834B",
". 	c #A88047",
"+ 	c #A37A3D",
"@ 	c #9F7535",
"# 	c #9F7533",
"$ 	c #9F7534",
"% 	c #A07737",
"& 	c #A57D41",
"* 	c #A9824A",
"= 	c #000000",
"- 	c #A88148",
"; 	c #A88046",
"> 	c #A78046",
", 	c #A67E43",
"' 	c #A2793B",
") 	c #9F7433",
"! 	c #A07635",
"~ 	c #A27B3A",
"{ 	c #A47E3D",
"] 	c #A57F3D",
"^ 	c #A6803F",
"/ 	c #A98446",
"( 	c #AC874C",
"_ 	c #AC864C",
": 	c #A98249",
"< 	c #766D78",
"[ 	c #AD894D",
"} 	c #A98348",
"| 	c #A77F46",
"1 	c #A88147",
"2 	c #AB854A",
"3 	c #AD884D",
"4 	c #A98149",
"5 	c #AA824A",
"6 	c #A57C41",
"7 	c #A2793C",
"8 	c #A2793A",
"9 	c #A07637",
"0 	c #A17938",
"a 	c #A98543",
"b 	c #AE8E4A",
"c 	c #AF8F4C",
"d 	c #B1914E",
"e 	c #B19150",
"f 	c #AE8B4E",
"g 	c #AB844C",
"h 	c #A77F45",
"i 	c #A37B3E",
"j 	c #A57D42",
"k 	c #A98148",
"l 	c #443941",
"m 	c #AF8D4D",
"n 	c #A78243",
"o 	c #A2783B",
"p 	c #A57E40",
"q 	c #AC894A",
"r 	c #B29351",
"s 	c #B29251",
"t 	c #AF8C4F",
"u 	c #AB844B",
"v 	c #A47B3F",
"w 	c #A2783A",
"x 	c #9F7635",
"y 	c #A17738",
"z 	c #A37B3B",
"A 	c #A68140",
"B 	c #AD8B49",
"C 	c #B29350",
"D 	c #B49652",
"E 	c #B49753",
"F 	c #AF8E4F",
"G 	c #AC884D",
"H 	c #A88246",
"I 	c #A37B3D",
"J 	c #A17839",
"K 	c #A98544",
"L 	c #A57E3D",
"M 	c #A47D3C",
"N 	c #A78241",
"O 	c #AD8C4A",
"P 	c #B29451",
"Q 	c #B59853",
"R 	c #B39451",
"S 	c #B08F50",
"T 	c #A88146",
"U 	c #A47B3E",
"V 	c #A37A3C",
"W 	c #A07636",
"X 	c #A88145",
"Y 	c #AC8949",
"Z 	c #AE8D4B",
"` 	c #AE8C4D",
" .	c #AF8D4F",
"..	c #B49653",
"+.	c #B19151",
"@.	c #AF8C4E",
"#.	c #AD8A4C",
"$.	c #AE8E4B",
"%.	c #B69953",
"&.	c #B59953",
"*.	c #B59753",
"=.	c #AE8C4E",
"-.	c #AE8A4E",
";.	c #B08E4F",
">.	c #B19050",
",.	c #A1783A",
"'.	c #AB864B",
").	c #B08F4F",
"!.	c #B39552",
"~.	c #AA824B",
"{.	c #B2934F",
"].	c #AF8F4D",
"^.	c #AB874A",
"/.	c #AA8449",
"(.	c #AD8B4B",
"_.	c #B1924E",
":.	c #B29450",
"<.	c #AB854C",
"[.	c #AB864C",
"}.	c #AA844B",
"|.	c #AC874D",
"1.	c #A67E44",
"2.	c #B49552",
"3.	c #DEA55A",
"4.	c #AA8646",
"5.	c #A47D3E",
"6.	c #A57F3F",
"7.	c #A78240",
"8.	c #A88342",
"9.	c #AB8748",
"0.	c #AD8A4D",
"a.	c #B09050",
"b.	c #AD8A4E",
"c.	c #B39450",
"d.	c #B1924F",
"e.	c #AA8549",
"f.	c #AD894B",
"g.	c #B0904E",
"h.	c #FFE7BD",
"i.	c #A47D3D",
"j.	c #A78144",
"k.	c #AA834A",
"l.	c #B39452",
"m.	c #B08E50",
"n.	c #AB8849",
"o.	c #A88443",
"p.	c #A57F40",
"q.	c #A47C3E",
"r.	c #8C5A18",
"s.	c #9E7433",
"t.	c #A3793D",
"u.	c #A67F43",
"v.	c #AC8A49",
"w.	c #AC884C",
"x.	c #AF8D4E",
"y.	c #004040",
"z.	c #FF0000",
"A.	c #AA844A",
"B.	c #B19250",
"C.	c #AF8E4D",
"D.	c #AB864A",
"E.	c #A98248",
"F.	c #A67E45",
"G.	c #AD894E",
"H.	c #AC894C",
"I.	c #A88144",
"J.	c #A67F42",
"K.	c #AB8649",
"L.	c #A88245",
"M.	c #A57E41",
"N.	c #AA8548",
"O.	c #A98447",
"P.	c #A17739",
"Q.	c #AB8749",
"R.	c #A67E41",
"S.	c #A67D43",
"T.	c #A98545",
"U.	c #A78242",
"V.	c #A57D3F",
"W.	c #A37A3E",
"X.	c #A27A39",
"Y.	c #A98347",
"Z.	c #A67E42",
"`.	c #A47C40",
" +	c #A27A3C",
".+	c #B49752",
"++	c #B39652",
"@+	c #A07736",
"#+	c #AC8A47",
"$+	c #AD8A4B",
"%+	c #A57E3E",
"&+	c #A37B3F",
"*+	c #A47C41",
"=+	c #9F7434",
"-+	c #9E7432",
";+	c #B39351",
">+	c #9E7332",
",+	c #B39551",
"'+	c #A88543",
")+	c #A78044",
"!+	c #A57E42",
"~+	c #A17838",
"{+	c #A17837",
"]+	c #F7B5A4",
"^+	c #B1914F",
"/+	c #AE8D4D",
"(+	c #A67F44",
"_+	c #A37C3D",
":+	c #A27938",
"<+	c #B39651",
"[+	c #AF8F4B",
"}+	c #AA8746",
"|+	c #A78042",
"1+	c #A78043",
"2+	c #AC884A",
"3+	c #A88344",
"4+	c #671616",
"5+	c #D31414",
"6+	c #AA834C",
"7+	c #231821",
"8+	c #AB8846",
"9+	c #A68042",
"0+	c #AA8745",
"a+	c #AB8946",
"b+	c #AB8947",
"c+	c #AE8B4D",
"d+	c #B29250",
"e+	c #AC874B",
"f+	c #A78045",
"g+	c #A17939",
"h+	c #B69954",
"i+	c #AA8645",
"j+	c #AD8B4A",
"k+	c #AF8E4E",
"l+	c #B29151",
"m+	c #B1904F",
"n+	c #AC894B",
"o+	c #AB8747",
"p+	c #AB8847",
"q+	c #AA8747",
"r+	c #A27A3A",
"s+	c #A47D3F",
"t+	c #A88247",
"u+	c #A98546",
"v+	c #AA8349",
"w+	c #AB874B",
"x+	c #B08F4E",
"y+	c #AB854B",
"z+	c #B1934F",
"A+	c #AE8B4C",
"B+	c #B59854",
"C+	c #A47C3F",
"D+	c #AD8A4A",
"E+	c #A68240",
"F+	c #AD8C4B",
"G+	c #A98444",
"H+	c #AC884B",
"I+	c #B0914D",
"J+	c #A88343",
"K+	c #A98346",
"L+	c #B19251",
"M+	c #B0904D",
"N+	c #A98349",
"O+	c #AD894C",
"P+	c #A57F3E",
"Q+	c #AA8547",
"R+	c #AA8647",
"S+	c #AC8948",
"T+	c #A47C3D",
"U+	c #B49651",
"V+	c #AE8C4C",
"W+	c #AA8448",
"X+	c #AE8D4C",
"Y+	c #A37D3B",
"Z+	c #A88442",
"`+	c #A78341",
" @	c #A57D3E",
".@	c #A57E3F",
"+@	c #AE8D4A",
"@@	c #AD8D49",
"#@	c #A07836",
"$@	c #A37C3B",
"%@	c #B59752",
"&@	c #B08F4D",
"*@	c #9F7634",
"=@	c #A07738",
"-@	c #A27B39",
";@	c #AC8A48",
">@	c #AD8C49",
",@	c #AD8B48",
"'@	c #AF8E4C",
")@	c #A68040",
"!@	c #A37B3A",
"~@	c #AC8B48",
"{@	c #A57D43",
"]@	c #AA854A",
"^@	c #AC864D",
"/@	c #A47B40",
"(@	c #A78142",
"_@	c #A67F40",
":@	c #A57D40",
"<@	c #B0904F",
"[@	c #A27939",
"}@	c #A37B3C",
"|@	c #A57C40",
"1@	c #AE8C4B",
"2@	c #A9824B",
"3@	c #636373",
"4@	c #A9834A",
"5@	c #AA8845",
"6@	c #A67F41",
"7@	c #A47B41",
"8@	c #A1773A",
"9@	c #AA8744",
"0@	c #A88345",
"a@	c #A98643",
"b@	c #A98644",
"c@	c #A68041",
"d@	c #AB8A47",
"e@	c #B08E4E",
"f@	c #A37C3C",
"g@	c #A78143",
"h@	c #ADADAD",
"i@	c #AB8848",
"j@	c #B0904C",
"k@	c #A17937",
"l@	c #A5803E",
"m@	c #A98645",
"n@	c #AE8D49",
"o@	c #AA8846",
"p@	c #A78340",
"q@	c #B39550",
"r@	c #B2924F",
"s@	c #AD8B4D",
"t@	c #AC8B49",
"u@	c #A88149",
"v@	c #A27A3B",
"          . + @ # $ $ $ # % & *                             =       =                                                               ",
"  * - ; > , ' $ ) ! ~ { ] ^ / ( _           : . > > - *   = < = [ = = = ( } > | 1 2 3 [ 3 3 3 3 3 [ [ [ 3 _   4 . - 5               ",
"  - 6 7 7 8 9 $ ) 0 a b c c d e f g       5 h i ' 7 j k = = l < = l < = m n 7 o p q e r s s s s s s s r e t u h v j 4               ",
". , w $ $ x y 8 z A B C D E D r F [ G 3 3 ( H I J = = = = = l < = l < = = K L M N O P E Q Q Q Q Q D R R r S [ T U 6 k               ",
"V w W # ) % v X Y Z `  .r ..+.@.F e s s s e #.= = l l l < < l l l l l l = = $.b Z `  .r Q %.&.&.*.s =.-.f ;.>.#.H . *               ",
",.,.J J J + h '.;.e  .-.).s F -.>.D D !.D D >._ ~.= = = = = l l < l = = = = = {.].^./.(.d _._.:.r @.<.<.3 F s  .<.~.  <.( [.}.u _ |.",
"1.1.1.1.1.h 4 g 3 =.S >. .=.F e 2.*.r ;.s D e |.= = = l l < < < = = = 3.3.= = 4.N 5.U 6.7.7.8.9.[ |.<.0.S ).=.G g     3 ;. ._ |.;.e ",
". - :   <.[.u }.[.[ a.s  .b.;.r c.d.(.e.f.g.= = = = = = = l l < = = 3.h.h.= = = W $ ! y 8 z i.j.k.  g =.e  .[.      }.0.e >.-.f e l.",
"i j - _  .;.3 _ f S ;. .).>.m.=.n.o.p.q.= = = = = = = = = = l < = = r.h.3.= = = ) s.W t.u.4.v.^.  ~.  |.-.G   ~.      _ -.F >.>. .t ",
"@ ' h ( S >.w.2 x.e #.2 x.e ` = = = = = = = = = = = = = = l < = y.z.= h.= = = = @ W ' , A.= B. .|._ _ ( |.|._ }.: :     u [ g.C.D.E.",
"s.,.F.<.G.H.I.J.K.#.L.M.N.#.O.v P.= = = = = = = = = = = l l = = r.r.h.h.= = = = = + 1.- = = t ).>.>.>.>.>.>.).Q.R.S.4     /.T.U.V.W.",
"X.5.Y._ |./.q.8 Z.; `. +Z.T `.% $ $ x P.= = = = = = = = l = = = r.3.3.h.3.= = = = = = = = <.3 ;.R D .+D !.D ++O ^ M.E.  4 , ' @+! ! ",
"#+O C.S S $+%+W ,.&+*+6 `.W.P.=+-+@ ' = = = = = = = = = = = = = r.= = h.r.= = = = = = = <.-.S ;.;.r E ;+S s .+{.O n.A.. 6 o @ >+-+s.",
"R ,+D E *._.'+X.y  +)+E.!+8 ~+0 {+= = = = = = = = = = = = = = = r.3.3.3.= ]+]+= k.5   * A.` ^+= = = = ;.G @.R ,+{./+A.(+_+X.X.:+:+:+",
"F >.D &.&.<+[+}+|+1+2+` N.J.3+}+3+, > k.  g = = = 4+= = = = = r.= r.3.= 5+]+5+= = 6+* h M.= = 7+7+= f 3 g |.=.(.8+U.p 9+0+a+a+a+b+b+",
"( f s D Q Q .+C c+( ;.d+=.e+x.^+` A.*   * = = = = 5+= = = = r.3.r.= = = 4+5+5+4+4+= = = = 7+7+7+= _ _ <.}.g }.f+I g+~ o.].,+,+,+R :.",
";.;.;.>.!.Q h+*.r S ;.;.).S S ;.G.<.6+= = = = = = 5+4+= = = 7+= = = 7+= 4+5+4+]+]+5+5+4+4+= = = = ;. .[ }.~.* | j 9+i+j+k+r *...l+S ",
":.m+0.[ e D E D D r f 3 ;.s  ._ = = = = = = = 4+5+4+= 7+7+7+l l 7+7+7+= 4+4+]+5+5+]+]+5+]+]+5+4+= E !.;.( g <.  k.n+g.C.= = B.e [ <.",
"a+o+/.<.-.;.).).S  .G <.-. .G.  | j = = = = 4+5+4+= = = 7+l 7+= = = = 4+= = 4+4+]+5+5+]+5+4+= = = %.Q r ). . .[ <.e.p+= = 7+= q+A.  ",
"r+s+t+<._ ( _ [.[.<.  k.A.}.}.k & J 9 % = = = = = 5+7+7+l l l 7+7+= 5+= 7+7+= = = 4+]+5+4+= = D E *.Q E D D !.S ( T = l = 7+= p 1   ",
"&+u.2+x. .-.[.~.~.* h = = = = `.' $ -+$ y i = 7+= 4+= = = = = = = 5+7+7+7+7+7+7+7+= = 4+= 7+7+= = = Q &.&.%.Q l.).$+= l = 7+= u+v+  ",
"k w+m+2.D s f = = = = 7+7+7+7+= = W @ % = = = l 7+= 4+4+]+]+]+]+5+= 7+7+l l l 7+7+7+7+= = 7+l l 7+7+= = = = E D !.R = l 7+7+= x+w.u ",
"  [ r Q &.D = 7+7+7+7+7+7+7+7+7+7+= = = 7+7+= l 7+= 4+5+5+5+5+5+4+= 7+l l l 7+7+7+7+7+7+7+l l l l l l l 7+7+= = = = = = 7+= = S  .t ",
"  3 s *.Q = = = = = 7+7+7+7+7+7+7+7+7+= = = 7+l 7+= = = = = = = = = 7+l l l 7+= = = = = 7+7+7+7+7+7+7+l l l l l 7+= l = 7+7+= f e l.",
"  |. .s = = &..+e ;.= = = 7+7+7+7+= = 5+4+= l l = 4+4+5+]+]+]+]+4+= 7+l l 7+= = 4+= 7+7+= = = = = = 7+7+7+7+7+l l = l = 7+7+= |. .e ",
"k.  y+= s *.Q E 2.= = l < = 7+7+= 5+4+= = = l 7+= 4+5+5+]+5+5+5+4+= 7+l 7+= = 4+5+= l 7+7+= z+z+{.c.= = = = 7+7+7+= 7+l 7+7+= }.[.( ",
", S.S.H A+>.+.+.= < l = = l = = 4+= = 7+l l l 7+= 5+5+5+5+5+5+5+5+4+= 7+7+= 4+4+4+= l 7+7+= B+h+&.%.Q s t f = = = = 7+7+7+= 1.| 4 ~.",
"8 w w C+Y.( G ( ( = = 7+= l 7+= = 7+l l l l 7+7+= 5+5+5+5+5+5+5+5+5+4+= = = 4+5+= l l 7+7+= .+Q Q Q *.D !.l.l.!.r D+= = = ,.8 `.1   ",
"7.E+7.o.2+w.} (+= l 7+7+7+= 7+= l l l l 7+7+= = 4+5+5+5+5+5+5+5+5+5+5+4+4+= 5+5+= l l 7+7+= Z g.e s s !.Q &.Q D d+F+'+E+E+E+7.G+H+f ",
"I+I+I+_.C ].J+' = = = = 7+7+7+= l 7+7+7+= = 4+= 5+5+5+5+5+5+5+5+5+]+]+4+4+= 4+4+= l l 7+= z 6.K+( G [ >.D &.*.L+f c+M+I+I+I+I+_.C R ",
"s s s r r k+3++ 7 = l 7+= = = = 7+7+= = 5+4+= 4+5+5+5+5+5+5+5+]+]+]+5+4+4+= 5+= l l 7+7+= ^ A L.* ~.}.-.e r e =.[.[ >.r s s s s s s ",
"[ [ [ [ [ ( N+> | > = = > > > = = = 7+7+= 5+= 4+5+5+5+5+5+5+]+]+5+5+5+4+4+= 5+= l 7+7+= M+I+c O+}.~.  [.G [ 3 _ }.<.G [ [ [ [ [ [ [ ",
"      * . h h h h > :             = 7+7+l = = 4+5+5+5+5+5+5+5+5+5+5+4+4+4+= 4+= 7+7+= ..Q &.E >.-.[ [ [.}.[.3 ( }.                  ",
"      - *+' ' ' ' i h               = = l l = = 4+5+5+5+5+5+5+5+5+4+4+4+= = = 7+7+= f r Q &.Q 2.r r s f [.-.>. .<.                  ",
"  g |.D.n P+] { z + F.k._ 3 [ w.A.1 > h = l l 7+= = = = = = = 4+4+4+= = = 7+7+= =   [. .r ;+R D Q Q E e f  .e S -.3 3 3 3 [ [ |.<.  ",
"  ( ;.e M+[+[+O Q+> - y+@.e r m+R+q.' ' y = 7+l = 4+4+5+]+]+4+= = = = 7+7+7+= [.    }.( [ [ f s *.&.Q D r ;.f  .e s s s s s s ;.|.  ",
"  |.).R .+.+!.B.@.3 G b.).;+E ,+S+T+,.8 z = = = 4+5+]+]+4+5+]+5+4+4+= = = = . . . ; . :     <.@.r R R R r ).-. .s 2.*.Q Q U+d.V+W+. ",
"  <.3 F l.D >.t S s s e F  .r 2.X+T 1.= = 4+4+4+= 4+5+5+]+]+4+= = = l l 7+= 7 7 7 7 v h *     ( 0.-.-.-.f ;.>.).@.>.D h+Q _.0+6._++ ",
"  u _ f e s  .0.k+d _.M+2+W+$+].$+E.= 4+4+= 4+5+]+]+4+4+5+5+]+5+4+= l l l 7+= M M M 6.K+[.<.            <.f e S -. .s R _.#+Y+$ $ $ ",
"  |. .a. .t S x+b+Z+`+7. @I .@A .@v = 4+5+]+]+4+5+5+]+]+4+4+5+4+= 7+l l l l = +@+@@@Z g.).[ }.~.~.~.~.~.  _ f ;.>.S =.2+o.{ #@) ) # ",
"- D.).m+H+2 X+$.7.@+$ @+X.$@M M $@i.= = 4+5+5+]+4+4+5+5+]+= = 4+= 7+7+l l l 7+= .+.+%@Q D ;.G ( ( ( ( <.  : : n+&@X+/.j J *@$ ! =@J ",
"i u.^.H+)+s+A A -@$ >+@+7.;@>@B ,@>@'@).= 4+5+5+]+5+= 4+5+4+4+= 7+l l l l l l = h+h+h+%.Q R e >.e e a.-.}.F.v .@N )@U ,.@ s.# J `., ",
"x ' , h V W ! ! $ x {+] >@,+%@.+.+.+*.D = = 4+4+5+]+5+= 4+4+= = = 7+l l l l l = !.!.!.!.2.D E D !.D D >.w.X i.$@$@!@g+P.y y y i > 5 ",
") W o o 9 s.>+>+>+{+7.>@{.Q h+h+h+h+h+Q = l = = 4+5+]+4+= = }+j.= = 7+l l l 7+= t t t t ;.l.E r S r E !.e C.>@~@;@4.1+j j j {@h 4   ",
"=@~+r+~ X.X.X.X.X.L ;@C .+*.E D 2.D D 2.= l l l = 4+4+= .+D B.= = 7+7+l l l = f u k.N+: ]@m ^+A+D.=.R 2.!.R R R r k+'.k.y+y+y+y+[.[.",
"j 1+4.#+#+#+#+#+#+v.V+).l.D s F t  . .= 7+l l l 7+= = E h+h+..= 7+l l l l 7+= ^@: 1./@&+`.(@Z+_@:@Y.c+ . . . .F  .G.<.|. .>.>.a.a.a.",
"y+O+<@R <+U+U+U+D P =.3 >.!.;._ u u }.= 7+7+l l 7+= 0.s D D D = 7+7+l l l = u * > W.9 x W ~+[@X.}@j.'._ <.g g g g <.[.f s D D D !.!.",
">.S m.e D h+h+h+h+D @.( S !.;.<.~.5 | = 7+l l l 7+= X #.F  .F F = 7+7+7+7+= : 1.U y $ -+@ o |@J+p+1@x.[   2@~.2@  G  .S S s E D e F ",
":.<@[ [ e D .+D .+R f ( ;.r @.k.: - 6 = 7+l l l 7+= M.N+<.<.<.= 3@= = = = 4@> W.W $ $ x J Z.2 k+,+.+!.).|.<.<.}.}.0.^+k+e+#.^+^+[ <.",
"5@q+/.<.-. .;.;.m. .G <.b.=.N.Z.*+`.' = 7+l l l 7+= R+k.~.~.= = 3@3@= /@`.`.i y # s.! ' Z.^.).!.Q h+Q R S ;. .[ u e.4.J+M.6@K R+/.  ",
"r+s+t+<._ _ y+A.A.A.k.* k.} & y W W ! = 7+l l l 7+= <@3 <.<.= 7+= = = J J P.y % W W ,.Z.2 F R D .+*.Q *.D .+2.a.( T 5.~ r+r+z p 1   ",
"v 1+n+F ;.#.H 6 /@7@*+*+*+v 8@=+-+s.s.$ = 7+l l 7+7+= >.;.F = 7+7+7+= 6@`.v v /@/@v Z.K. .S ).;.a.R Q h+h+h+Q !.).(.8+9@9@9@9@4./.  ",
": '.).!.2.g.J+8 J [@[@[@[@[@~+{+#@@+@+% = 7+l l l 7+= !.!.!.= 7+l l = e+: : v+v+v+N+'.).r ;.G <.( ;.,+D U+U+U+D !.R :.C C :.C x+(   ",
"  _ @.>.>.` 0@p N a@b@a@a@a@b@b@b@a c@& = 7+7+l l 7+= >.>.>.= = l l 7+= [.-. .F  . .S l.E r  .|.u K.S+#+#+d@#+O e@S S S S >.>.t _   ",
"  }.<.[._ y+k.]@/+{.C {.{.{.:.:.c.{.` D.c+= 7+7+7+= [.y+y+y+0.= 7+l l = |.S l.!.!.!.!.D .+D d+f v+Z.z X.X.-@f@g@D.|.|.|.|.( _ <.}.  ",
"    ~.~.~.~.~.<.f >.>.>.>.s 2.Q h+Q r S s E = = = h@= 1.j {@j.= 7+7+7+= [.=.>.>.>.>.>.>.<@'@;@/ Z.' $ >+$ !@`+i@c+@.=.@.=.[ g ~.~.  ",
"5     }.}.}.}.g _ |.|.( _ w.).D Q *.D !.D E D = 3@h@= = y y g+z = = = = = _ ( ( _ [.[.[.]@9+z g+y 9 ! $ {+Z+j@R ,+!.!.!.l.S G }.}.}.",
", T H+=.@.=.=.=.=.f f [ } f+^.).e >.e e e e +.>.= = 7+7+= s.k@l@= 3.r.3.= f [ <.* | S.{@*+,.=+>+$ P.I p.o.v.<@l.Q %.Q D s S  .f f f ",
"J _@Z R !.l.l.R R l.!.^+m@q.)+'.|.( ( ( ( _ ( '.= 7+7+7+7+= P+>@{.= = = = !.s -.: & 8 J J % ! *@% v 1 $+g.k+0.;.2.Q *.s f f s !.!.!.",
"+ 9+(.e s e e e e s D <+n@K 9.[ |.  . 1.S.S.1.S.= 7+l 7+7+= o@C.l+s e e r D D >.#.4.`+p@`+`+`+`+8.K+}.-.>.S @. .>.e e @._ -.l.h+h+&.",
". : y+|.G |.|.|.|.-.+.D q@d.C r t A.S.7 J w w = 7+l l 7+= C.x+0.|.|.|.|.f r E D P r@_._._._._._.g.s@y+<.G  .s S [ |.|.<.}.0.r Q Q Q ",
"                ~.<.=.e s r D D S u 1.U 5.^ P+= l l l 7+= S ;.(         _  .s s s s s s s s s s +.f g ~.}.-.S @.<.    4 > / t@b b b ",
"                  }.[.G G -.e !.;.y+u@- 2+'@= 7+l l 7+= <.|.( u         }._ G G G G G G G G G 3 G [.      <.|._ }.    | i v@M { { { ",
"                          <.=.>.f g ~.u -.>.= = = 7+=                   * . h h h h h h h h h h | - k.                > v ' ' 7 7 7 ",
"                            [.G [.}.    [.= 3.h.r.=                     - `.' ,.w w w w w w w ,.7 , *                 : . > | | | | ",
"                                          = = = =                       . V @ # $ $ $ $ $ $ $ # 9 6 :                               "};
