/* XPM */
static char * m_atk_3_xpm[] = {
"66 66 331 2",
"  	c #AA834B",
". 	c #A88047",
"+ 	c #A37A3D",
"@ 	c #9F7535",
"# 	c #9F7533",
"$ 	c #9F7534",
"% 	c #A07737",
"& 	c #A57D41",
"* 	c #A9824A",
"= 	c #000000",
"- 	c #A88148",
"; 	c #A88046",
"> 	c #A78046",
", 	c #A67E43",
"' 	c #A2793B",
") 	c #9F7433",
"! 	c #A07635",
"~ 	c #A27B3A",
"{ 	c #A47E3D",
"] 	c #A57F3D",
"^ 	c #A6803F",
"/ 	c #A98446",
"( 	c #AC874C",
"_ 	c #AC864C",
": 	c #A98249",
"< 	c #766D78",
"[ 	c #AD894D",
"} 	c #443941",
"| 	c #A77F46",
"1 	c #A88147",
"2 	c #AB854A",
"3 	c #AD884D",
"4 	c #A98149",
"5 	c #AA824A",
"6 	c #A57C41",
"7 	c #A2793C",
"8 	c #A2793A",
"9 	c #A07637",
"0 	c #A17938",
"a 	c #A98543",
"b 	c #AE8E4A",
"c 	c #AF8F4C",
"d 	c #B1914E",
"e 	c #B19150",
"f 	c #AE8B4E",
"g 	c #AB844C",
"h 	c #A77F45",
"i 	c #A37B3E",
"j 	c #A57D42",
"k 	c #A98148",
"l 	c #A2783B",
"m 	c #A57E40",
"n 	c #AC894A",
"o 	c #B29351",
"p 	c #B29251",
"q 	c #AF8C4F",
"r 	c #AB844B",
"s 	c #A47B3F",
"t 	c #A2783A",
"u 	c #9F7635",
"v 	c #A17738",
"w 	c #A37B3B",
"x 	c #A68140",
"y 	c #AD8B49",
"z 	c #B29350",
"A 	c #B49652",
"B 	c #B49753",
"C 	c #AF8E4F",
"D 	c #AC884D",
"E 	c #A88246",
"F 	c #A37B3D",
"G 	c #A17839",
"H 	c #A47D3C",
"I 	c #A78241",
"J 	c #AD8C4A",
"K 	c #B29451",
"L 	c #B59853",
"M 	c #B39451",
"N 	c #B08F50",
"O 	c #A88146",
"P 	c #A47B3E",
"Q 	c #A37A3C",
"R 	c #A07636",
"S 	c #A88145",
"T 	c #AC8949",
"U 	c #AE8D4B",
"V 	c #AE8C4D",
"W 	c #AF8D4F",
"X 	c #B49653",
"Y 	c #B19151",
"Z 	c #AF8C4E",
"` 	c #AD8A4C",
" .	c #B69953",
"..	c #B59953",
"+.	c #B59753",
"@.	c #AE8C4E",
"#.	c #AE8A4E",
"$.	c #B08E4F",
"%.	c #B19050",
"&.	c #A1783A",
"*.	c #AB864B",
"=.	c #B08F4F",
"-.	c #B39552",
";.	c #AA824B",
">.	c #AF8F4D",
",.	c #AB874A",
"'.	c #AA8449",
").	c #AD8B4B",
"!.	c #B1924E",
"~.	c #B29450",
"{.	c #AB854C",
"].	c #AB864C",
"^.	c #AA844B",
"/.	c #AC874D",
"(.	c #A67E44",
"_.	c #B49552",
":.	c #DEA55A",
"<.	c #A47D3E",
"[.	c #A57F3F",
"}.	c #A78240",
"|.	c #A88342",
"1.	c #AB8748",
"2.	c #AD8A4D",
"3.	c #B09050",
"4.	c #AD8A4E",
"5.	c #FFE7BD",
"6.	c #A47D3D",
"7.	c #A78144",
"8.	c #AA834A",
"9.	c #B39452",
"0.	c #B08E50",
"a.	c #AB8849",
"b.	c #8C5A18",
"c.	c #9E7433",
"d.	c #A3793D",
"e.	c #A67F43",
"f.	c #AA8646",
"g.	c #AC8A49",
"h.	c #AC884C",
"i.	c #AF8D4E",
"j.	c #A98348",
"k.	c #A47C40",
"l.	c #A17838",
"m.	c #FF0000",
"n.	c #AA844A",
"o.	c #B19250",
"p.	c #B0904E",
"q.	c #AF8E4D",
"r.	c #AB864A",
"s.	c #A98248",
"t.	c #A67E45",
"u.	c #AD894E",
"v.	c #AC894C",
"w.	c #A88144",
"x.	c #A67F42",
"y.	c #AB8649",
"z.	c #A88245",
"A.	c #A57E41",
"B.	c #AA8548",
"C.	c #A98447",
"D.	c #A17739",
"E.	c #AB8749",
"F.	c #A67E41",
"G.	c #A67D43",
"H.	c #A98545",
"I.	c #A78242",
"J.	c #A57D3F",
"K.	c #A37A3E",
"L.	c #A27A39",
"M.	c #A98347",
"N.	c #A47C3E",
"O.	c #A67E42",
"P.	c #A27A3C",
"Q.	c #B49752",
"R.	c #B39652",
"S.	c #A07736",
"T.	c #AC8A47",
"U.	c #AD8A4B",
"V.	c #A57E3E",
"W.	c #A37B3F",
"X.	c #A47C41",
"Y.	c #B39351",
"Z.	c #B2934F",
"`.	c #9E7332",
" +	c #9E7432",
".+	c #B39551",
"++	c #A88543",
"@+	c #A78044",
"#+	c #A57E42",
"$+	c #F7B5A4",
"%+	c #B1914F",
"&+	c #AE8D4D",
"*+	c #A67F44",
"=+	c #A37C3D",
"-+	c #A27938",
";+	c #B39651",
">+	c #AF8F4B",
",+	c #AA8746",
"'+	c #A78042",
")+	c #A78043",
"!+	c #A88344",
"~+	c #671616",
"{+	c #D31414",
"]+	c #231821",
"^+	c #AB8846",
"/+	c #A68042",
"(+	c #AA8745",
"_+	c #AB8946",
":+	c #AB8947",
"<+	c #AE8B4D",
"[+	c #B29250",
"}+	c #AC874B",
"|+	c #A78045",
"1+	c #A17939",
"2+	c #A88443",
"3+	c #B69954",
"4+	c #AA8645",
"5+	c #AD8B4A",
"6+	c #AF8E4E",
"7+	c #B29151",
"8+	c #B1904F",
"9+	c #AC894B",
"0+	c #AC884B",
"a+	c #AB8747",
"b+	c #AA8549",
"c+	c #AB8847",
"d+	c #A98444",
"e+	c #A27A3A",
"f+	c #A47D3F",
"g+	c #A88247",
"h+	c #AC884A",
"i+	c #AA8349",
"j+	c #AB874B",
"k+	c #AB854B",
"l+	c #AE8A4D",
"m+	c #B1934F",
"n+	c #B39450",
"o+	c #AE8B4C",
"p+	c #B59854",
"q+	c #A47C3F",
"r+	c #AD8A4A",
"s+	c #A57E3F",
"t+	c #A68240",
"u+	c #AA8647",
"v+	c #AD8C4B",
"w+	c #B0914D",
"x+	c #A88343",
"y+	c #A98346",
"z+	c #B19251",
"A+	c #B0904D",
"B+	c #A98349",
"C+	c #AD894C",
"D+	c #A78243",
"E+	c #A57F3E",
"F+	c #AA8547",
"G+	c #AC8948",
"H+	c #A47C3D",
"I+	c #B49651",
"J+	c #B1924F",
"K+	c #AE8C4C",
"L+	c #AA8448",
"M+	c #AE8D4C",
"N+	c #A37D3B",
"O+	c #B08F4E",
"P+	c #A88442",
"Q+	c #A78341",
"R+	c #A57D3E",
"S+	c #AE8D4A",
"T+	c #AD8D49",
"U+	c #A07836",
"V+	c #AE8E4B",
"W+	c #A37C3B",
"X+	c #B59752",
"Y+	c #B08F4D",
"Z+	c #9F7634",
"`+	c #A07738",
" @	c #A27B39",
".@	c #AC8A48",
"+@	c #AD8C49",
"@@	c #AD8B48",
"#@	c #AF8E4C",
"$@	c #A68040",
"%@	c #A17837",
"&@	c #A37B3A",
"*@	c #AC8B48",
"=@	c #A57D43",
"-@	c #A57E3D",
";@	c #AA854A",
">@	c #AF8D4D",
",@	c #A47B40",
"'@	c #A78142",
")@	c #A67F40",
"!@	c #A57D40",
"~@	c #B0904F",
"{@	c #A27939",
"]@	c #A37B3C",
"^@	c #A57C40",
"/@	c #AE8C4B",
"(@	c #A9824B",
"_@	c #636373",
":@	c #AA8845",
"<@	c #AA8747",
"[@	c #A67F41",
"}@	c #A98544",
"|@	c #A47B41",
"1@	c #A1773A",
"2@	c #9F7434",
"3@	c #AA8744",
"4@	c #A88345",
"5@	c #A98643",
"6@	c #A98644",
"7@	c #A68041",
"8@	c #AB8A47",
"9@	c #B08E4E",
"0@	c #A37C3C",
"a@	c #A78143",
"b@	c #ADADAD",
"c@	c #AB8848",
"d@	c #A57F40",
"e@	c #B0904C",
"f@	c #A17937",
"g@	c #A5803E",
"h@	c #A98645",
"i@	c #AE8D49",
"j@	c #A78340",
"k@	c #B39550",
"l@	c #B2924F",
"m@	c #AD8B4D",
"n@	c #AC8B49",
"o@	c #A88149",
"p@	c #A27A3B",
"          . + @ # $ $ $ # % & *                         = = =     = = =   =                                                         ",
"  * - ; > , ' $ ) ! ~ { ] ^ / ( _           : . > > - *   = < = [ = } = = = > | 1 2 3 [ 3 3 3 3 3 [ [ [ 3 _   4 . - 5               ",
"  - 6 7 7 8 9 $ ) 0 a b c c d e f g       5 h i ' 7 j k = = } < = = } < } = = l m n e o p p p p p p p o e q r h s j 4               ",
". , t $ $ u v 8 w x y z A B A o C [ D 3 3 ( E F G ' = = = = = } < = = } < } = H I J K B L L L L L A M M o N [ O P 6 k               ",
"Q t R # ) % s S T U V W o X Y Z C e p p p e ` E = = } } } < < } } } } } } = = b U V W o L  .....+.p @.#.f $.%.` E . *               ",
"&.&.G G G + h *.$.e W #.=.p C #.%.A A -.A A %._ ;.  = = } } } < < < } = = = = = >.,.'.).d !.!.~.o Z {.{.3 C p W {.;.  {.( ].^.r _ /.",
"(.(.(.(.(.h 4 g 3 @.N %.W @.= = _.+.o $.p A e = = = = = = = < < < } = = :.:.= = I <.P [.}.}.|.1.[ /.{.2.N =.@.D g     3 $.W _ /.$.e ",
". - :   {.].r ^.].[ 3.p W 4.$.= = = = = = = = = = = = = = < } } < } = :.5.5.= = R $ ! v 8 w 6.7.8.  g @.e W ].      ^.2.e %.#.f e 9.",
"i j - _ W $.3 _ f N $.W =.%.0.@.a.= = = = = = = = = = = } } = } < = = b.5.:.= = = c.R d.e.f.g.,.  ;.  /.#.D   ;.      _ #.C %.%.W q ",
"@ ' h ( N %.h.2 i.e ` 2 i.e V j.k.l.u = = = = = = = = } } = = = } = m.= 5.= = = = = ' , n.i.o.W /._ _ ( /./._ ^.: :     r [ p.q.r.s.",
"c.&.t.{.u.v.w.x.y.` z.A.B.` C.s D.$ = = = = = = = = = = = = = = } = b.5.5.= = = = = = = r 3 q =.%.%.%.%.%.%.=.E.F.G.4     '.H.I.J.K.",
"L.<.M._ /.'.N.8 O.; k.P.O.O k.% = = = = = = = = = = = = = = = = = b.:.:.5.:.= = = = = = = = 3 $.M A Q.A -.A R.J ^ A.s.  4 , ' S.! ! ",
"T.J q.N N U.V.R &.W.X.6 k.K.D.= = = = = = = = = = = = = = = = = = b.= = 5.b.= = = =     {.#.N $.$.= B Y.N p Q.Z.J a.n.. 6 l @ `. +c.",
"M .+A B +.!.++L.v P.@+s.#+8 = = = = = = = = = = = = = = = = = = = b.:.:.:.= $+$+= = = * n.V %+= = = o $.D Z M .+Z.&+n.*+=+L.L.-+-+-+",
"C %.A ....;+>+,+'+)+= V B.x.!+,+!+, > 8.= = = = = = ~+= = = = = b.= b.:.= {+$+{+= = = = = = = ]+= D f 3 g /.@.).^+I.m /+(+_+_+_+:+:+",
"( f p A L L Q.z <+( = [+@.}+i.%+V n.* = = = = = = = {+= = = = b.:.b.= = = ~+{+{+~+$+{+$+{+~+= = = _ _ {.^.g ^.|+F 1+~ 2+>..+.+.+M ~.",
"$.$.$.%.-.L 3++.o N = = =.N N $.u.{.= = = = = = = = {+~+= = = ]+= = = ]+= ~+{+~+$+{+$+{+{+$+$+{+~+= W [ ^.;.* | j /+4+5+6+o +.X 7+N ",
"~.8+2.[ e A B A A o = = $.p W _ = = = = = &.= = ~+{+~+= ]+]+]+} } ]+]+]+= ~+~+~+~+{+$+{+$+{+~+= = B -.$.( g {.  8.9+p.q.0+= = e [ {.",
"_+a+'.{.#.$.=.=.N W = ]+= W = = ]+= ]+]+]+= = ~+{+~+= = = ]+} ]+= = = = ~+= = = = ~+~+~+{+~+= = L  .L o =.W W [ {.b+c+d+= = ]+= n.  ",
"e+f+g+{._ ( _ ].].{.= ]+= = ]+]+]+]+]+]+]+= K.= = = {+]+]+} } } ]+]+= {+= ]+]+]+]+= = = = = = = B +.L B A A -.N ( O <.= } = ]+= 1   ",
"W.e.h+i.W #.].;.;.* = ]+]+= ]+} } ]+]+]+]+]+= = ]+= ~+= = = = = = = {+]+]+} } } } } } ]+]+]+]+]+= = = .... .L 9.=.U.(+= } = ]+= i+  ",
"k j+8+_.A p f g   : = ]+]+= ]+} } } ]+= = = ]+= } ]+= ~+~+$+$+$+$+{+= ]+]+} } } ]+]+} } } } } } } ]+]+= = = = A -.M z = } ]+]+= h.r ",
"  [ o L ..A e f _ 8.= ]+]+]+= ]+} } = ~+{+~+= = } ]+= ~+{+{+{+{+{+~+= ]+} } } ]+]+]+]+]+]+]+} } } } } } } ]+]+= = = = = = ]+= = W q ",
"  3 p +.L L A p #.( i.= ]+]+= ]+]+= {+{+{+~+= ]+} ]+= = = = = = = = = ]+} } } ]+= = = = = ]+]+]+]+]+]+]+} } } } } ]+= } = ]+]+= e 9.",
"  /.W p A L ..Q.e $.M = = = ]+= ]+= {+~+~+~+= } } = ~+~+{+$+$+$+$+~+= ]+} } ]+= ~+~+= ]+]+= = = = = = ]+]+]+]+]+} } = } = ]+]+= W e ",
"8.  k+l+p +.L B _.-.= = } < = = ]+]+= {+= = = } ]+= ~+{+{+$+{+{+{+~+= ]+} ]+= ~+~+{+= } ]+= m+m+Z.n+o = = = = ]+]+]+= ]+} ]+]+= ].( ",
", G.G.E o+%.Y Y 7+= < } = = } = = ]+= = ]+} } } ]+= {+{+{+{+{+{+{+{+~+= ]+]+= ~+{+= } } ]+= p+3+.. .L p q f f = = = = ]+]+]+= | 4 ;.",
"8 t t q+M.( D ( ( ( = = ]+= } ]+= = ]+} } } } ]+]+= {+{+{+{+{+{+{+{+{+~+= = = {+{+= } ]+= %.Q.L L L +.A -.9.9.-.o r+s+= = = 8 k.1   ",
"}.t+}.2+h+h.j.*+(.= } ]+]+]+= ]+= } } } } ]+]+= = ~+{+{+{+{+{+{+{+{+{+{+~+~+= {+= } } ]+= u+U p.e p p -.L ..L A [+v+++t+t+t+}.d+0+f ",
"w+w+w+!.z >.x+' &.= = = = ]+]+]+= } ]+]+]+= = ~+= {+{+{+{+{+{+{+{+{+$+$+~+~+= ~+= } } = ' w [.y+( D [ %.A ..+.z+f <+A+w+w+w+w+!.z M ",
"p p p o o 6+!++ 7 7 = } ]+= = = = ]+]+= = ]+= = ~+{+{+{+{+{+{+{+$+$+$+{+~+~+= = } } ]+= ^ ^ x z.* ;.^.#.e o e @.].[ %.o p p p p p p ",
"[ [ [ [ [ ( B+> | > > = = > > > = = = ]+= ]+]+= ~+{+{+{+{+{+{+$+$+{+{+{+~+~+= = } ]+= w+A+w+c C+^.;.  ].D [ 3 _ ^.{.D [ [ [ [ [ [ [ ",
"      * . h h h h > :               = ]+} = ]+= ~+{+{+{+{+{+{+{+{+{+{+~+~+~+= ]+]+= o X L ..B %.#.[ [ ].^.].3 ( ^.                  ",
"      - X.' ' ' ' i h                 = = } = } = = {+{+{+{+{+{+{+{+~+~+~+= ]+]+= 2 f o L ..L _.o o p f ].#.%.W {.                  ",
"  g /.r.D+E+] { w + t.8._ 3 [ h.n.1 > h s = = = ]+} = = = = = = ~+~+~+= = ]+]+= ^.  ].W o Y.M A L L B e f W e N #.3 3 3 3 [ [ /.{.  ",
"  ( $.e A+>+>+J F+> - k+Z e o 8+u+N.' ' v $ c.= = = = ~+{+$+$+~+= = = = ]+= = ].    ^.( [ [ f p +...L A o $.f W e p p p p p p $./.  ",
"  /.=.M Q.Q.-.o.Z 3 D 4.=.Y.B .+G+H+&.8 w = = = = ~+$+= ~+~+{+$+{+~+= = = ]+= . . ; . :     {.Z o M M M o =.#.W p _.+.L L I+J+K+L+. ",
"  {.3 C 9.A %.q N p p e C W o _.M+O = = = = ~+$+{+= {+$+{+~+~+~+~+= ]+} } ]+= 7 7 7 s h *     ( 2.#.#.#.f $.%.=.Z %.A 3+L !.(+[.=++ ",
"  r _ f e p W 2.6+d !.A+h+L+U.>.U.s.= ~+~+~+= {+$+$+~+{+$+{+~+= = ]+} } } } ]+= H H [.y+].{.            {.f e N #.W p M !.T.N+$ $ $ ",
"  /.W 3.W q N O+:+P+Q+}.R+F s+x s+s = ~+{+$+$+~+{+{+$+~+{+$+{+~+= ]+]+} } } } = S+T+U p.=.[ ^.;.;.;.;.;.  _ f $.%.N @.h+2+{ U+) ) # ",
"- r.=.8+0+2 M+V+}.S.$ S.L.W+H H W+6.7.= ~+{+{+$+~+~+{+$+= ~+~+= ]+]+]+]+} } } ]+= Q.X+L A $.D ( ( ( ( {.  : : 9+Y+M+'.j G Z+$ ! `+G ",
"i e.,.0+@+f+x x  @$ `.S.}..@+@y @@+@#@=.= ~+{+{+$+= ~+{+~+= = ]+]+]+} } } } } } = 3+3+ .L M e %.e e 3.#.^.t.s s+I $@P &.@ c.# G k., ",
"u ' , h Q R ! ! $ u %@] +@.+X+Q.Q.Q.+.A %.= = ~+{+$+= ~+~+= ]+= = = ]+} } } } } = -.-.-._.A B A -.A A %.h.S 6.W+W+&@1+D.v v v i > 5 ",
") R l l 9 c.`.`.`.%@}.+@Z.L 3+3+3+3+3+L _.= ]+= ~+~+~+= = = = 7.7.= = ]+} } } ]+= q q q $.9.B o N o B -.e q.+@*@.@f.)+j j j =@h 4   ",
"`+l.e+~ L.L.L.L.L.-@.@z Q.+.B A _.A A _._.= } ]+= = = = Q.A o.2.= = ]+]+} } } = r 8.B+: ;@>@%+o+r.@.M _.-.M M M o 6+*.8.k+k+k+k+].].",
"j )+f.T.T.T.T.T.T.g.K+=.9.A p C q W W W = ]+} } ]+]+]+= 3+3+X p = ]+} } } } ]+= : (.,@W.k.'@P+)@!@M.<+W W W W C W u.{./.W %.%.3.3.3.",
"k+C+~@M ;+I+I+I+A K @.3 %.-.$._ r r ^.8.= ]+]+} } ]+= p A A A -.= ]+]+} } } = * > K.9 u R l.{@L.]@7.*._ {.g g g g {.].f p A A A -.-.",
"%.N 0.e A 3+3+3+3+A Z ( N -.$.{.;.5 | 6 = ]+} } } ]+= ` C W C C f = ]+]+]+]+= (.P v $  +@ l ^@x+c+/@i.[   (@;.(@  D W N N p B A e C ",
"~.~@[ [ e A Q.A Q.M f ( $.o Z 8.: - 6 D.= ]+} } } ]+= B+{.{.{.{.= _@= = = = > K.R $ $ u G O.2 6+.+Q.-.=./.{.{.^.^.2.%+6+}+` %+%+[ {.",
":@<@'.{.#.W $.$.0.W D {.4.@.B.O.X.k.' u = ]+} } } ]+= 8.;.;.;.= = _@_@= k.k.i v # c.! ' O.,.=.-.L 3+L M N $.W [ r b+f.x+A.[@}@u+'.  ",
"e+f+g+{._ _ k+n.n.n.8.* 8.j.& v R R ! $ = ]+} } } ]+= 3 {.{.g = ]+= = = G D.v % R R &.O.2 C M A Q.+.L +.A Q._.3.( O <.~ e+e+w m 1   ",
"s )+9+C $.` E 6 ,@|@X.X.X.s 1@2@ +c.c.$ G = ]+} } ]+]+= $.C f = ]+]+]+= k.s s ,@,@s O.y.W N =.$.3.M L 3+3+3+L -.=.).^+3@3@3@3@f.'.  ",
": *.=.-._.p.x+8 G {@{@{@{@{@l.%@U+S.S.% q+= ]+} } } ]+= -.-.%.= ]+} } = : : i+i+i+B+*.=.o $.D {.( $..+A I+I+I+A -.M ~.z z ~.z O+(   ",
"  _ Z %.%.V 4@m I 5@6@5@5@5@6@6@6@a 7@& M.= ]+]+} } ]+= %.%.N = = } } ]+= #.W C W W N 9.B o W /.r y.G+T.T.8@T.J 9@N N N N %.%.q _   ",
"  ^.{.]._ k+8.;@&+Z.z Z.Z.Z.~.~.n+Z.V r.<+p = ]+]+]+= k+k+k+2.%+= ]+} } = N 9.-.-.-.-.A Q.A [+f i+O.w L.L. @0@a@r././././.( _ {.^.  ",
"    ;.;.;.;.;.{.f %.%.%.%.p _.L 3+L o N p B 9.= = = b@= j =@7.c+= ]+]+]+= @.%.%.%.%.%.%.~@#@.@/ O.' $ `.$ &@Q+c@<+Z @.Z @.[ g ;.;.  ",
"5     ^.^.^.^.g _ /./.( _ h.=.A L +.A -.A B A M = _@b@= = v 1+w d@= = = = = ( ( _ ].].].;@/+w 1+v 9 ! $ %@P+e@M .+-.-.-.9.N D ^.^.^.",
", O 0+@.Z @.@.@.@.f f [ j.|+,.=.e %.e e e e Y %.` = = ]+]+= f@g@4+= :.b.:.= [ {.* | G.=@X.&.2@`.$ D.F d@2+g.~@9.L  .L A p N W f f f ",
"G )@U M -.9.9.M M 9.-.%+h@N.@+*./.( ( ( ( _ ( *.S = ]+]+]+]+= +@Z.M = = = = p #.: & 8 G G % ! Z+% s 1 U.p.6+2.$._.L +.p f f p -.-.-.",
"+ /+).e p e e e e p A ;+i@}@1.[ /.  . (.G.G.(.G.K.= ]+} ]+]+= q.7+p e e o A A %.` f.Q+j@Q+Q+Q+Q+|.y+^.#.%.N Z W %.e e Z _ #.9.3+3+..",
". : k+/.D /./././.#.Y A k@J+z o q n.G.7 G t t &.= ]+} } ]+= O+2././././.f o B A K l@!.!.!.!.!.!.p.m@k+{.D W p N [ /./.{.^.2.o L L L ",
"                ;.{.@.e p o A A N r (.P <.^ E+F = } } } ]+= $.(         _ W p p p p p p p p p p Y f g ;.^.#.N Z {.    4 > / n@b b b ",
"                  ^.].D D #.e -.$.k+o@- h+#@).= ]+} } ]+= /.( r         ^._ D D D D D D D D D 3 D ].      {./._ ^.    | i p@H { { { ",
"                          {.@.%.f g ;.r #.%.W = = = ]+=                 * . h h h h h h h h h h | - 8.                > s ' ' 7 7 7 ",
"                            ].D ].^.    ].D = :.5.b.=                   - k.' &.t t t t t t t &.7 , *                 : . > | | | | ",
"                                            = = = =                     . Q @ # $ $ $ $ $ $ $ # 9 6 :                               "};
