/* XPM */
static char * mugshot_right_xpm[] = {
"65 66 14 1",
" 	c None",
".	c #000000",
"+	c #FFFF00",
"@	c #D64A00",
"#	c #FF8C00",
"$	c #393939",
"%	c #7B8484",
"&	c #5A5A5A",
"*	c #FFEFC6",
"=	c #BDBDBD",
"-	c #C6734A",
";	c #942900",
">	c #FFB57B",
",	c #0029FF",
"                                                                 ",
"                                                                 ",
"                                                                 ",
"                                                                 ",
"                                                                 ",
"                                                                 ",
"                                                                 ",
"                                                                 ",
"                                                                 ",
"                                                                 ",
"                                                                 ",
"                                                                 ",
"                                                                 ",
"                                                                 ",
"                                                                 ",
"                                                                 ",
"                                                                 ",
"                                                                 ",
"                                                                 ",
"                                                                 ",
"                                                                 ",
"                                                                 ",
"                                                                 ",
"                                                                 ",
"                                                                 ",
"                                                                 ",
"                             . .  .                              ",
"                             ..+..+.                             ",
"                          ...@.#+#+..                            ",
"                           .#@@#++++...                          ",
"                          ...@@##@+@#.                           ",
"                           .@@@@@##+#.                           ",
"                          $..@.$@#+#%#.                          ",
"                         $$...$$&@.%*.                           ",
"                        .$ ........==.                           ",
"                        .....$@-;%.$.                            ",
"                          ...->;>*,;.                            ",
"                         ...@.;>;**-.                            ",
"                        .. ....->>>.                             ",
"                        .     .....                              ",
"                                                                 ",
"                                                                 ",
"                                                                 ",
"                                                                 ",
"                                                                 ",
"                                                                 ",
"                                                                 ",
"                                                                 ",
"                                                                 ",
"                                                                 ",
"                                                                 ",
"                                                                 ",
"                                                                 ",
"                                                                 ",
"                                                                 ",
"                                                                 ",
"                                                                 ",
"                                                                 ",
"                                                                 ",
"                                                                 ",
"                                                                 ",
"                                                                 ",
"                                                                 ",
"                                                                 ",
"                                                                 ",
"                                                                 "};
