/* XPM */
static char * p_hurt_0_xpm[] = {
"66 66 344 2",
"  	c #AA834B",
". 	c #A88047",
"+ 	c #A37A3D",
"@ 	c #9F7535",
"# 	c #9F7533",
"$ 	c #9F7534",
"% 	c #A07737",
"& 	c #A57D41",
"* 	c #A9824A",
"= 	c #A88148",
"- 	c #A88046",
"; 	c #A78046",
"> 	c #A67E43",
", 	c #A2793B",
"' 	c #9F7433",
") 	c #A07635",
"! 	c #A27B3A",
"~ 	c #A47E3D",
"{ 	c #A57F3D",
"] 	c #A6803F",
"^ 	c #A98446",
"/ 	c #AC874C",
"( 	c #AC864C",
"_ 	c #A98249",
": 	c #AB854C",
"< 	c #AC874D",
"[ 	c #AD894D",
"} 	c #A98348",
"| 	c #A77F46",
"1 	c #A88147",
"2 	c #AB854A",
"3 	c #AD884D",
"4 	c #A98149",
"5 	c #AA824A",
"6 	c #A57C41",
"7 	c #A2793C",
"8 	c #A2793A",
"9 	c #A07637",
"0 	c #A17938",
"a 	c #A98543",
"b 	c #AE8E4A",
"c 	c #AF8F4C",
"d 	c #B1914E",
"e 	c #B19150",
"f 	c #AE8B4E",
"g 	c #AB844C",
"h 	c #A77F45",
"i 	c #A37B3E",
"j 	c #A57D42",
"k 	c #A98148",
"l 	c #AC884D",
"m 	c #B08F4F",
"n 	c #B29251",
"o 	c #AF8D4D",
"p 	c #A78243",
"q 	c #A2783B",
"r 	c #A57E40",
"s 	c #AC894A",
"t 	c #B29351",
"u 	c #AF8C4F",
"v 	c #AB844B",
"w 	c #A47B3F",
"x 	c #A2783A",
"y 	c #9F7635",
"z 	c #A17738",
"A 	c #A37B3B",
"B 	c #A68140",
"C 	c #AD8B49",
"D 	c #B29350",
"E 	c #B49652",
"F 	c #B49753",
"G 	c #AF8E4F",
"H 	c #A88246",
"I 	c #A37B3D",
"J 	c #A17839",
"K 	c #B19050",
"L 	c #B39552",
"M 	c #B08F4D",
"N 	c #A98544",
"O 	c #A57E3D",
"P 	c #A47D3C",
"Q 	c #A78241",
"R 	c #AD8C4A",
"S 	c #B29451",
"T 	c #B59853",
"U 	c #B39451",
"V 	c #B08F50",
"W 	c #A88146",
"X 	c #A47B3E",
"Y 	c #A37A3C",
"Z 	c #A07636",
"` 	c #A88145",
" .	c #AC8949",
"..	c #AE8D4B",
"+.	c #AE8C4D",
"@.	c #AF8D4F",
"#.	c #B49653",
"$.	c #B19151",
"%.	c #AF8C4E",
"&.	c #AD8A4C",
"*.	c #A67E44",
"=.	c #A67F44",
"-.	c #B08E4F",
";.	c #AE8B4D",
">.	c #AE8E4B",
",.	c #B69953",
"'.	c #B59953",
").	c #B59753",
"!.	c #AE8C4E",
"~.	c #AE8A4E",
"{.	c #A1783A",
"].	c #AB864B",
"^.	c #AA824B",
"/.	c #B2934F",
"(.	c #AF8F4D",
"_.	c #AB874A",
":.	c #AA8449",
"<.	c #AD8B4B",
"[.	c #B1924E",
"}.	c #B29450",
"|.	c #AB864C",
"1.	c #AA844B",
"2.	c #B49552",
"3.	c #AA8646",
"4.	c #A47D3E",
"5.	c #A57F3F",
"6.	c #A78240",
"7.	c #A88342",
"8.	c #AB8748",
"9.	c #AD8A4D",
"0.	c #B09050",
"a.	c #AD8A4E",
"b.	c #B39450",
"c.	c #B1924F",
"d.	c #AA8549",
"e.	c #AD894B",
"f.	c #B0904E",
"g.	c #AE8C4C",
"h.	c #A88149",
"i.	c #AF8E4E",
"j.	c #AB864A",
"k.	c #AC874B",
"l.	c #B0904F",
"m.	c #AB874B",
"n.	c #AC884C",
"o.	c #A78045",
"p.	c #A47D3D",
"q.	c #A78144",
"r.	c #AA834A",
"s.	c #B39452",
"t.	c #B08E50",
"u.	c #AB8849",
"v.	c #A88443",
"w.	c #A57F40",
"x.	c #A47C3E",
"y.	c #A57E3F",
"z.	c #A68040",
"A.	c #A47C3F",
"B.	c #A57D43",
"C.	c #AB8649",
"D.	c #A67F42",
"E.	c #A78043",
"F.	c #AC884B",
"G.	c #AC874A",
"H.	c #A67F43",
"I.	c #9E7433",
"J.	c #A3793D",
"K.	c #AC8A49",
"L.	c #AF8D4E",
"M.	c #A47C40",
"N.	c #A17838",
"O.	c #A27A3A",
"P.	c #A37C3B",
"Q.	c #A68042",
"R.	c #AA854A",
"S.	c #A27A3B",
"T.	c #A77F44",
"U.	c #AA844A",
"V.	c #B19250",
"W.	c #AF8E4D",
"X.	c #A98248",
"Y.	c #A67E45",
"Z.	c #AD894E",
"`.	c #AC894C",
" +	c #A88144",
".+	c #A88245",
"++	c #A57E41",
"@+	c #AA8548",
"#+	c #A98447",
"$+	c #A17739",
"%+	c #9E7432",
"&+	c #A88345",
"*+	c #AC8947",
"=+	c #A37B3A",
"-+	c #AB8749",
";+	c #A67E41",
">+	c #A67D43",
",+	c #A98545",
"'+	c #A78242",
")+	c #A57D3F",
"!+	c #A37A3E",
"~+	c #A27A39",
"{+	c #A98347",
"]+	c #A67E42",
"^+	c #A27A3C",
"/+	c #B49752",
"(+	c #AF8F4B",
"_+	c #A88247",
":+	c #A98247",
"<+	c #A27939",
"[+	c #B39652",
"}+	c #A07736",
"|+	c #AC8A47",
"1+	c #AD8A4B",
"2+	c #A57E3E",
"3+	c #A37B3F",
"4+	c #A47C41",
"5+	c #9F7434",
"6+	c #4A4A4A",
"7+	c #AE8D4A",
"8+	c #AA8645",
"9+	c #A68043",
"0+	c #AE8B4C",
"a+	c #A98346",
"b+	c #AB8846",
"c+	c #A88244",
"d+	c #B39351",
"e+	c #9E7332",
"f+	c #B39551",
"g+	c #A88543",
"h+	c #A78044",
"i+	c #A57E42",
"j+	c #A17837",
"k+	c #292929",
"l+	c #B1914F",
"m+	c #AD894C",
"n+	c #AD884C",
"o+	c #AE8D4D",
"p+	c #A37C3D",
"q+	c #A27938",
"r+	c #B39651",
"s+	c #AA8746",
"t+	c #A78042",
"u+	c #AC884A",
"v+	c #A88344",
"w+	c #B29151",
"x+	c #CE3900",
"y+	c #B69954",
"z+	c #AA834C",
"A+	c #A98645",
"B+	c #AA8448",
"C+	c #AA8745",
"D+	c #AB8946",
"E+	c #AB8947",
"F+	c #B29250",
"G+	c #080808",
"H+	c #EF7B00",
"I+	c #AB854B",
"J+	c #A37B3C",
"K+	c #A17939",
"L+	c #EFEF00",
"M+	c #AA8649",
"N+	c #AD8B4A",
"O+	c #B1904F",
"P+	c #AC894B",
"Q+	c #AB8747",
"R+	c #AB8847",
"S+	c #A98444",
"T+	c #AA8747",
"U+	c #A47D3F",
"V+	c #A98643",
"W+	c #A98546",
"X+	c #AA8349",
"Y+	c #B08F4E",
"Z+	c #6B7B7B",
"`+	c #AE8B4F",
" @	c #AC864D",
".@	c #B0914E",
"+@	c #A98349",
"@@	c #EFDEBD",
"#@	c #181818",
"$@	c #DEAD7B",
"%@	c #AC8948",
"&@	c #A78341",
"*@	c #A88442",
"=@	c #A88341",
"-@	c #AB8848",
";@	c #AE8A4D",
">@	c #A67F41",
",@	c #BD6B39",
"'@	c #B1934F",
")@	c #8C1800",
"!@	c #0018EF",
"~@	c #B59854",
"{@	c #AD8A4A",
"]@	c #A68240",
"^@	c #AA8647",
"/@	c #AD8C4B",
"(@	c #B0914D",
"_@	c #A88343",
":@	c #B19251",
"<@	c #B0904D",
"[@	c #A6803E",
"}@	c #A6813F",
"|@	c #AA8744",
"1@	c #6B0000",
"2@	c #A57F3E",
"3@	c #AA8547",
"4@	c #AC8B48",
"5@	c #AF8E4C",
"6@	c #AE8D4C",
"7@	c #B49651",
"8@	c #A47C3D",
"9@	c #A37D3B",
"0@	c #AD8C49",
"a@	c #AD8D49",
"b@	c #A07836",
"c@	c #B59752",
"d@	c #9F7634",
"e@	c #A07738",
"f@	c #A27B39",
"g@	c #AC8A48",
"h@	c #A9824B",
"i@	c #AA8845",
"j@	c #A47B40",
"k@	c #A47B41",
"l@	c #A1773A",
"m@	c #A98644",
"n@	c #A68041",
"o@	c #B08E4E",
"p@	c #A37C3C",
"q@	c #A78143",
"r@	c #B0904C",
"s@	c #A17937",
"t@	c #A5803E",
"u@	c #A67F40",
"v@	c #AE8D49",
"w@	c #A78140",
"x@	c #AA8846",
"y@	c #A78340",
"z@	c #B39550",
"A@	c #B2924F",
"B@	c #AD8B4D",
"C@	c #AC8B49",
"          . + @ # $ $ $ # % & *                                                                                                     ",
"  * = - ; > , $ ' ) ! ~ { ] ^ / (           _ . ; ; = *     : < [ [ [ [ / } ; | 1 2 3 [ 3 3 3 3 3 [ [ [ 3 (   4 . = 5               ",
"  = 6 7 7 8 9 $ ' 0 a b c c d e f g       5 h i , 7 j k     l m n n n n o p 7 q r s e t n n n n n n n t e u v h w j 4               ",
". > x $ $ y z 8 A B C D E F E t G [ l 3 3 / H I J , 6 =     3 K L F F L M N O P Q R S F T T T T T E U U t V [ W X 6 k               ",
"Y x Z # ' % w `  ...+.@.t #.$.%.G e n n n e &.H *.=.. *     : [ -.L L m ;...>.b ..+.@.t T ,.'.'.).n !.~.f -.K &.H . *               ",
"{.{.J J J + h ].-.e @.~.m n G ~.K E E L E E K ( ^.  v ( ( v g / f e e !.f K D /.(._.:.<.d [.[.}.t %.: : 3 G n @.: ^.  : / |.1.v ( < ",
"*.*.*.*.*.h 4 g 3 !.V K @.!.G e 2.).t -.n E e <   1.[ m @.< < G V @.@.V K G &.3.Q 4.X 5.6.6.7.8.[ < : 9.V m !.l g     3 -.@.( < -.e ",
". = _   : |.v 1.|.[ 0.n @.a.-.t b.c.<.d.e.f.g.:.h.  a.e i.j.k.l.m m.j.m K n.o.Y Z $ ) z 8 A p.q.r.  g !.e @.|.      1.9.e K ~.f e s.",
"i j = ( @.-.3 ( f V -.@.m K t.!.u.v.w.x.y.Q z.A.B.4 ( 9.C.D.E.F.G.H.D._.F.q.7 9 ' I.Z J.H.3.K._.  ^.  < ~.l   ^.      ( ~.G K K @.u ",
"@ , h / V K n.2 L.e &.2 L.e +.} M.N.y ) % J O.P.Q.R.< / H S.7 =.h i + T.h Y y $ @ Z , > U.L.V.@.< ( ( / < < ( 1._ _     v [ f.W.j.X.",
"I.{.Y.: Z.`. +D.C.&..+++@+&.#+w $+$ %+$ {.& &+*+..m K m 8.=+Z q w 6 6 w 7 9 I.I.Z + *.= v 3 u m K K K K K K m -+;+>+4     :.,+'+)+!+",
"~+4.{+( < :.x.8 ]+- M.^+]+W M.% $ $ y $+M.X.9.V.L /+T /+(+B 0 J A._+:+A.J <+<+N., *.*     : 3 -.U E /+E L E [+R ] ++X.  4 > , }+) ) ",
"|+R W.V V 1+2+Z {.3+4+6 M.!+$+5+%+@ , 6+6+r.< u n F ,.T }.7+8+9+H 0+;.a+E.8+b+c+=.=     : ~.V -.-.t F d+V n /+/.R u.U.. 6 q @ e+%+I.",
"U f+E F ).[.g+~+z ^+h+X.i+8 N.0 j+J k+6+    g / @.U F T T E l+m+[ K e 9.n+m l+m+r.5   * U.+.l+!./ G t -.l %.U f+/.o+U.=.p+~+~+q+q+q+",
"G K E '.'.r+(+s+t+E.u++.@+D.v+s+v+> k+6+  g 3 @.t.-.w+x+'.y+#.n V -.-.V V V u < g z+* h ++'+A+B+  l f 3 g < !.<.b+'+r Q.C+D+D+D+E+E+",
"/ f n E T T /+D ;./ -.F+!.k.L.l++.k+6+6+* r.&.x+i.k.G+H+x+E x+x+x+x+[ K e ~.I+r._ _ . w z j+J+h+1.( ( : 1.g 1.o.I K+! v.(.f+f+f+U }.",
"-.-.-.K L T y+).t V -.-.m V V k+Z.k+6+  . ]+x+L+G+G+x+H+x+x+H+L+x+x+H+H+H+< _ Y.6 6 w J ) {.& M+L.-.@.[ 1.^.* | j Q.8+N+i.t ).#.w+V ",
"}.O+9.[ e E F E E t f 3 -.n k+6+  k+6+4 j {.G+H+L+x+x+L+x+H+L+x+x+L+H+H+U.r.- i % Z Z Z J j R.-.L F L -./ g :   r.P+f.W.F.9.V.e [ : ",
"D+Q+:.: ~.-.m m V @.l : ~.k+6+  | k+k+6 G+G+x+x+H+H+L+L+x+L+L+x+L+H+6 4+6 6 X z # %+@ x ++C.-.s.T ,.T t m @.@.[ : d.R+S+]+Q.,+T+U.  ",
"O.U+_+: ( / ( |.|.:   r.U.k+6+6+& k+G+G+x+H+H+x+x+H+L+H+H+L+H+L+H+A.<+J J J z 9 Z ) J j R.@.U E F ).T F E E L V / W 4.! O.O.A r 1   ",
"3+H.u+L.@.~.|.^.^.* h j 6 6 k+6+, $ k+G+x+x+H+x+x+x+x+H+H+H+L+H+L+H+H+H+H+H+w w M.w D._.@.V K K K s.T '.'.,.T s.m 1+C+a V+V+V+W+X+  ",
"k m.O+2.E n f g   _ & 8 J J J k+6+Z @ k+G+x+x+x+H+x+x+H+L+H+L+6+H+L+L+H+_ 4 k = = . :.o e %.|.I+/ m E ).F ).F E L U D D }.}./.Y+n.v ",
"  [ t T '.E e f ( r.^ 7.w.X !+i k+k+w k+G+x+G+x+k+k+x+H+L+L+H+Z+Z+H+H+$.`+ @r.; > B.E.3.R+&+j 6 > C.G K K K K K K K e s.).#.n V @.u ",
"  3 n ).T T E n ~./ L..@&.+@= = = k+k+k+G+G+G+G+k+k+k+x+k+L+H+@@@@Z+6+6+e [ 1 w J z J =+P.O.8 J Y h+].< ( ( ( ( ( ( / @.U n f f e s.",
"  < @.n E T './+e -.U F n u < 1.= T.k+G+G+#@k+k+k+k+6+k+k+H+$@@@Z+6+l.>.%@.+M.G+G+G+G+z.&@*@=@&@v.-@9.<   ^.^.^.^.^.  3 -.u ( < @.e ",
"r.  I+;@n ).T F 2.L E F E t f r.j G+G+6+k+G+G+G+G+G+G+G+G+G+Z+Z+G+/ B+>@P.O.G+$@$@,@$@G+d /.'@'@/.b.t @.|.  1.1.1.    1.|.I+  1.|./ ",
"> >+>+H 0+K $.$.w+w+$.$.n l.F.G+G+k+k+G+G+6+k+G+x+,@)@Z+!@G+k+G+G+G+G+G+G+G+$@,@)@G+G+,@G+#.~@y+'.,.T n u f f f f j.o.>+>+>+*.| 4 ^.",
"8 x x A.{+/ l / / / / / < G+G+G+#@#@#@#@#@G+G+G+G+G+G+G+G+G+G+#@6+Z+6+k+G+,@,@)@G+)@G+G+G+K /+T T T ).E L s.s.L t {@y.{.{.{.8 M.1   ",
"6.]@6.v.u+n.} =.*.*.*.*.#@#@6+k+#@#@k+k+k+k+k+k+k+k+k+Z+Z+Z+Z+Z+#@#@k+k+G+,@)@G+)@G+)@G+` ^@..f.e n n L T '.T E F+/@g+]@]@]@6.S+F.f ",
"(@(@(@[.D (._@, {.{.{.{.G+k+k+#@k+k+k+6+6+6+Z+Z+Z+Z+Z+Z+Z+6+6+6+#@#@6+k+G+)@)@G+G+P.G+G+, A 5.a+/ l [ K E '.).:@f ;.<@(@(@(@(@[.D U ",
"n n n t t i.v++ 7 7 7 G+#@#@k+#@k+6+6+Z+Z+Z+Z+Z+Z+Z+6+6+k+k+k+k+#@k+6+k+G+G+G+{.}+P.[@}@] ] B .+* ^.1.~.e t e !.|.[ K t n n n n n n ",
"[ [ [ [ [ / +@; | ; ; G+#@#@#@#@k+k+k+k+k+k+k+#@#@G+G+#@#@#@#@#@G+G+G+G+G+x J Z ~+|@c (@<@(@c m+1.^.  |.l [ 3 ( 1.: l [ [ [ [ [ [ [ ",
"      * . h h h h ; G+G+G+G+G+#@#@#@#@#@G+G+G+G+G+G+G+G+G+G+G+G+G+G+G+G+G+G+)@)@G+s t #.T '.F K ~.[ [ |.1.|.3 / 1.                  ",
"      = 4+, , , , i G+)@)@1@G+G+G+G+G+G+G+G+G+G+G+G+G+#@#@#@#@#@#@#@#@#@#@#@)@,@,@G+f t T '.T 2.t t n f |.~.K @.:                   ",
"  g < j.p 2@{ ~ A + G+)@x+)@1@G+G+G+G+G+G+#@G+G+k+G+{ { { { #@#@#@G+G+G+G+G+G+G+G+)@G+@.t d+U E T T F e f @.e V ~.3 3 3 3 [ [ < :   ",
"  / -.e <@(+(+R 3@; G+)@x+)@1@1@1@1@1@1@1@G+G+k+G+4@c (+(+(+K.a+{+N+5@+.~.~.[ |.  G+G+/ [ [ f n ).'.T E t -.f @.e n n n n n n -.<   ",
"  < m U /+/+L V.%.3 G+1@x+x+)@)@)@1@1@1@1@1@G+#@G+f.U U U t m / / o 6@M+1 . . . . - . _     : %.t U U U t m ~.@.n 2.).T T 7@c.g.B+. ",
"  : 3 G s.E K u V n n G+)@x+x+x+x+)@)@)@)@1@G+#@G+f f f f f [ : +@c+z.8@7 7 7 7 7 7 w h *     / 9.~.~.~.f -.K m %.K E y+T [.C+5.p++ ",
"  v ( f e n @.9.i.d [.G+1@x+x+)@)@1@)@)@)@1@1@G+#@G+G+G+G+G+G+G+> 8 y $ }+O.P P P P 5.a+|.:             : f e V ~.@.n U [.|+9@$ $ $ ",
"  < @.0.@.u V Y+E+*@&@G+1@)@)@x+x+)@1@1@1@)@)@G+#@G+1@1@1@1@1@1@G+G+G+G+G+G+0@7+7+a@..f.m [ 1.^.^.^.^.G+G+G+f -.K V !.u+v.~ b@' ' # ",
"= j.m O+F.2 6@>.6.}+$ }+G+1@1@1@)@x+x+x+x+x+x+1@G+G+1@)@)@)@)@)@x+x+x+x+)@)@G+G+/+/+c@T E -.l / / / G+k+,@#@_ P+M 6@:.j J d@$ ) e@J ",
"i H._.F.h+U+B B f@$ e+}+6.G+1@1@1@1@x+H+H+x+1@G+k+G+1@1@)@)@x+x+x+H+H+H+H+x+x+)@G+G+G+G+G+U e K e G+#@#@k+G+w y.Q z.X {.@ I.# J M.> ",
"y , > h Y Z ) ) $ y j+{ 0@G+1@1@1@1@1@1@1@G+k+6+G+)@G+G+G+G+)@)@x+x+x+H+H+H+x+x+x+x+x+)@G+G+G+G+G+k+#@k+G+` p.P.P.=+K+$+z z z i ; 5 ",
"' Z q q 9 I.e+e+e+j+6.0@/.T G+G+G+G+G+G+k+6+#@#@x+)@)@)@)@)@G+G+G+)@)@)@)@x+x+x+x+x+x+x+G+#@k+G+6+#@k+#@G+W.0@4@g@3.E.j j j B.h 4   ",
"e@N.O.! ~+~+~+~+~+O g@D /+).F G+k+6+6+6+#@#@)@x+x+)@x+x+x+x+x+)@)@G+G+)@)@)@)@)@x+x+x+)@G+k+#@G+k+#@k+G+L U U U t i.].r.I+I+I+I+|.|.",
"j E.3.|+|+|+|+|+|+K.g.m s.E n G #@#@#@#@1@1@)@x+)@H+H+H+H+H+H+x+x+)@)@G+1@1@1@1@1@1@)@)@G+#@G+#@#@k+#@G+@.@.@.G @.Z.: < @.K K 0.0.0.",
"I+m+l.U r+7@7@7@E S !.3 K L -.( G+1@1@1@1@)@x+)@x+x+H+H+H+H+H+H+H+x+x+)@G+G+G+G+G+1@1@G+G+G+#@#@k+#@G+( : g g g g : |.f n E E E L L ",
"K V t.e E y+y+y+y+E %./ V L -.: ^.G+1@)@1@1@)@x+x+x+x+x+x+H+H+H+H+H+H+H+x+x+G+*.X G+G+G+@ q G+G+G+G+L.[   h@^.h@  l @.V V n F E e G ",
"}.l.[ [ e E /+E /+U f / -.t %.r._ = G+1@)@)@)@)@)@)@)@)@x+x+x+H+H+x+x+x+H+H+x+G+G+$ $ y J ]+2 i.f+/+L m < : : 1.1.9.l+i.k.&.l+l+[ : ",
"i@T+:.: ~.@.-.-.t.@.l : a.!.@+]+4+M., G+G+1@1@1@1@1@)@)@)@)@x+x+x+)@)@x+x+H+H+H+x+G+) , ]+_.m L T y+T U V -.@.[ v d.3._@++>@N ^@:.  ",
"O.U+_+: ( ( I+U.U.U.r.* r.} & z Z Z ) $ $ G+G+G+G+G+G+1@1@1@)@)@)@)@x+x+)@H+x+H+H+x+G+]+2 G U E /+).T ).E /+2.0./ W 4.! O.O.A r 1   ",
"w E.P+G -.&.H 6 j@k@4+4+4+w l@5+%+I.I.$ J w Y.r.u 2.2.G+G+G+G+1@)@x+)@)@)@H+x+H+H+H+x+G+@.V m -.0.U T G+G+y+T L m <.b+|@|@|@|@3.:.  ",
"_ ].m L 2.f._@8 J <+<+<+<+<+N.j+b@}+}+% A.1 r.1.f U E L L L K G+G+1@1@1@)@x+)@x+H+x+1@G+#@-.l : / G+G+,@@@G+7@E L U }.D D }.D Y+/   ",
"  ( %.K K +.&+r Q V+m@V+V+V+m@m@m@a n@& {+9.[ : < @.K K K K V -.-.G+G+1@)@x+)@x+x+1@G+G+#@#@G+G+G+#@#@#@#@G+|+R o@V V V V K K u (   ",
"  1.: |.( I+r.R.o+/.D /././.}.}.b./.+.j.;.n V / : |.|.I+I+I+9.l+K ;@: G+1@)@)@)@1@G+G+#@k+#@6+k+Z+k+#@#@,@G+p@q@j.< < < < / ( : 1.  ",
"    ^.^.^.^.^.: f K K K K n 2.T y+T t V n F s.-.[ g = *.j B.q.R+ .R.^.^.G+1@)@1@G+#@G+k+6+#@6+#@k+#@#@G+)@G+&@-@;.%.!.%.!.[ g ^.^.  ",
"5     1.1.1.1.g ( < < / ( n.m E T ).E L E F E U -.I+*.7 z z K+A w.:+1.v : G+1@1@G+G+#@#@#@k+G+#@#@G+k+G+,@G+r@U f+L L L s.V l 1.1.1.",
"> W F.!.%.!.!.!.!.f f [ } o._.m e K e e e e $.K &.` !+Z %+I.s@t@8+1+!.%.!.f G+G+* G+G+G+G+G+G+G+k+#@G+G+G+K.l.s.T ,.T E n V @.f f f ",
"J u@..U L s.s.U U s.L l+A+x.h+].< / / / / ( / ].` Y % ) $ ) 2@0@/.U U s.s.L n ~._ & 8 G+k+k+k+#@G+G+G+1+f.i.9.-.2.T ).n f f n L L L ",
"+ Q.<.e n e e e e n E r+v@N 8.[ <   . *.>+>+*.>+!+9 9 , 4.w@x@W.w+n e e t E E K &.3.&@y@G+G+G+G+7.a+1.~.K V %.@.K e e %.( ~.s.y+y+'.",
". _ I+< l < < < < ~.$.E z@c.D t u U.>+7 J x x {.% Z 7 =._.W.Y+9.< < < < f t F E S A@[.[.[.[.[.[.f.B@I+: l @.n V [ < < : 1.9.t T T T ",
"                ^.: !.e n t E E V v *.X 4.] 2@I 7 + j _ 3 V -./         ( @.n n n n n n n n n n $.f g ^.1.~.V %.:     4 ; ^ C@b b b ",
"                  1.|.l l ~.e L -.I+h.= u+5@<.} ; . k r.: < / v         1.( l l l l l l l l l 3 l |.      : < ( 1.    | i S.P ~ ~ ~ ",
"                          : !.K f g ^.v ~.K @.|.                        * . h h h h h h h h h h | = r.                ; w , , 7 7 7 ",
"                            |.l |.1.    |.l / v                         = M., {.x x x x x x x {.7 > *                 _ . ; | | | | ",
"                                                                        . Y @ # $ $ $ $ $ $ $ # 9 6 _                               "};
