/* XPM */
static char * ngr_xpm[] = {
"32 32 602 2",
"  	c #A3A78D",
". 	c #B4B8A7",
"+ 	c #AEB2A2",
"@ 	c #6D893C",
"# 	c #779B31",
"$ 	c #799E32",
"% 	c #6B8F27",
"& 	c #799C32",
"* 	c #759930",
"= 	c #7BA034",
"- 	c #749730",
"; 	c #71942D",
"> 	c #72962D",
", 	c #769931",
"' 	c #789B32",
") 	c #70942C",
"! 	c #759A2E",
"~ 	c #72952D",
"{ 	c #779A31",
"] 	c #769B2F",
"^ 	c #72962E",
"/ 	c #74953B",
"( 	c #A0A697",
"_ 	c #B9BEBA",
": 	c #B4B7B3",
"< 	c #CBCCCB",
"[ 	c #8D8E7A",
"} 	c #A7A99B",
"| 	c #B5BAAA",
"1 	c #B0B4A7",
"2 	c #738D3F",
"3 	c #74972F",
"4 	c #73972D",
"5 	c #70942B",
"6 	c #759830",
"7 	c #7A9D35",
"8 	c #7A9E35",
"9 	c #3F4358",
"0 	c #789C32",
"a 	c #B3743A",
"b 	c #9A6D47",
"c 	c #365174",
"d 	c #75992E",
"e 	c #779C31",
"f 	c #6F932B",
"g 	c #7B9F34",
"h 	c #799B33",
"i 	c #98A38C",
"j 	c #BEC1C0",
"k 	c #B6B8AF",
"l 	c #A5A99A",
"m 	c #898A7A",
"n 	c #9C9E90",
"o 	c #AAAD9F",
"p 	c #95A083",
"q 	c #7CA035",
"r 	c #769831",
"s 	c #7EA236",
"t 	c #73972F",
"u 	c #7DA135",
"v 	c #7FA437",
"w 	c #70932C",
"x 	c #799D33",
"y 	c #6F922A",
"z 	c #C4AF44",
"A 	c #C29E3F",
"B 	c #BC7B40",
"C 	c #9A6127",
"D 	c #DAD050",
"E 	c #223948",
"F 	c #9FA45D",
"G 	c #814700",
"H 	c #7CA036",
"I 	c #7DA136",
"J 	c #71942C",
"K 	c #839E56",
"L 	c #ABAEA3",
"M 	c #A1A592",
"N 	c #B6BAAA",
"O 	c #A1A098",
"P 	c #75903F",
"Q 	c #7CA037",
"R 	c #6F922B",
"S 	c #779B30",
"T 	c #799C34",
"U 	c #789B33",
"V 	c #769932",
"W 	c #7DA036",
"X 	c #799D32",
"Y 	c #72952E",
"Z 	c #5C3200",
"` 	c #7D7D25",
" .	c #CCCC4B",
"..	c #D8D850",
"+.	c #D7D04F",
"@.	c #D8D950",
"#.	c #D4B24C",
"$.	c #D19E4A",
"%.	c #246699",
"&.	c #7B9F36",
"*.	c #7EA237",
"=.	c #73982E",
"-.	c #72824B",
";.	c #C3C5BE",
">.	c #BABDB9",
",.	c #9AA18B",
"'.	c #7DA234",
").	c #84AB39",
"!.	c #73962E",
"~.	c #759831",
"{.	c #6B8E26",
"].	c #75982F",
"^.	c #82A738",
"/.	c #71952D",
"(.	c #71952C",
"_.	c #CDA249",
":.	c #D2A34A",
"<.	c #C68545",
"[.	c #B2743B",
"}.	c #82A739",
"|.	c #7B9F33",
"1.	c #748E40",
"2.	c #9AA388",
"3.	c #94A47D",
"4.	c #7CA039",
"5.	c #74982D",
"6.	c #7FA438",
"7.	c #779A32",
"8.	c #769A30",
"9.	c #6D9029",
"0.	c #7FA337",
"a.	c #B0833F",
"b.	c #D8D450",
"c.	c #D7D14F",
"d.	c #B78F42",
"e.	c #1E1F1C",
"f.	c #150077",
"g.	c #130089",
"h.	c #789C31",
"i.	c #7FA436",
"j.	c #789A32",
"k.	c #83AA35",
"l.	c #749830",
"m.	c #7A9F33",
"n.	c #7B9F35",
"o.	c #7DA235",
"p.	c #74982E",
"q.	c #789C33",
"r.	c #7B9E35",
"s.	c #7EA235",
"t.	c #6C9026",
"u.	c #8D6C6A",
"v.	c #B4753E",
"w.	c #D1BC4B",
"x.	c #D9DB51",
"y.	c #D2994A",
"z.	c #D9D650",
"A.	c #D7CD4F",
"B.	c #BC7A3F",
"C.	c #B7783D",
"D.	c #31216E",
"E.	c #180096",
"F.	c #335F8B",
"G.	c #7BA035",
"H.	c #70942A",
"I.	c #73972E",
"J.	c #759B2E",
"K.	c #779C30",
"L.	c #7EA337",
"M.	c #80A537",
"N.	c #767779",
"O.	c #8A807A",
"P.	c #676844",
"Q.	c #5C4434",
"R.	c #5C5638",
"S.	c #A17341",
"T.	c #BD8744",
"U.	c #2F219A",
"V.	c #201C83",
"W.	c #244272",
"X.	c #799E31",
"Y.	c #6E912A",
"Z.	c #75992F",
"`.	c #82A936",
" +	c #7A9C34",
".+	c #585755",
"++	c #DADAD9",
"@+	c #D5D5D5",
"#+	c #959593",
"$+	c #3043C9",
"%+	c #314BD2",
"&+	c #2E4BCC",
"*+	c #2F46BA",
"=+	c #23339F",
"-+	c #14007E",
";+	c #376897",
">+	c #81A835",
",+	c #789D31",
"'+	c #799D34",
")+	c #7A9F32",
"!+	c #769A31",
"~+	c #7A9E33",
"{+	c #6A8E25",
"]+	c #799C33",
"^+	c #59443C",
"/+	c #9092A8",
"(+	c #818190",
"_+	c #324BD0",
":+	c #11009B",
"<+	c #644C47",
"[+	c #76503B",
"}+	c #A26A35",
"|+	c #1B009A",
"1+	c #0E085E",
"2+	c #749A2D",
"3+	c #7CA233",
"4+	c #70932B",
"5+	c #CBA08C",
"6+	c #B0B2BE",
"7+	c #997462",
"8+	c #976F55",
"9+	c #C5A944",
"0+	c #DFAF98",
"a+	c #765E54",
"b+	c #482E08",
"c+	c #5396DB",
"d+	c #060929",
"e+	c #73962D",
"f+	c #81A737",
"g+	c #7A9E34",
"h+	c #6C9027",
"i+	c #7BA033",
"j+	c #74962F",
"k+	c #769930",
"l+	c #789B34",
"m+	c #D7AA95",
"n+	c #F5ECE8",
"o+	c #F0D5CA",
"p+	c #D3A38C",
"q+	c #88542F",
"r+	c #6E4E3D",
"s+	c #6D6D6D",
"t+	c #949391",
"u+	c #4C85C0",
"v+	c #5193D6",
"w+	c #7A9E32",
"x+	c #759A30",
"y+	c #7A9D34",
"z+	c #7BA032",
"A+	c #72962C",
"B+	c #688B23",
"C+	c #4A5069",
"D+	c #9F7560",
"E+	c #976C56",
"F+	c #3B271D",
"G+	c #5C5B5B",
"H+	c #BDBCBC",
"I+	c #CACAC9",
"J+	c #9B9A9A",
"K+	c #304E6F",
"L+	c #779B33",
"M+	c #7EA336",
"N+	c #BB5C50",
"O+	c #BF8E71",
"P+	c #C0C0BF",
"Q+	c #E4E4E4",
"R+	c #ABAAAC",
"S+	c #626369",
"T+	c #3D3B82",
"U+	c #20209E",
"V+	c #579DE4",
"W+	c #6D9128",
"X+	c #6E9228",
"Y+	c #85AC39",
"Z+	c #1E1C3D",
"`+	c #80401D",
" @	c #848383",
".@	c #B4B4B3",
"+@	c #696885",
"@@	c #1C12B7",
"#@	c #3E5CF4",
"$@	c #4161FA",
"%@	c #3140D3",
"&@	c #15008D",
"*@	c #779B2F",
"=@	c #6D9229",
"-@	c #81A738",
";@	c #6C8F27",
">@	c #7EA434",
",@	c #6B8E25",
"'@	c #2A211A",
")@	c #B75E2C",
"!@	c #452E20",
"~@	c #200F9F",
"{@	c #2008AF",
"]@	c #2829BF",
"^@	c #4061F9",
"/@	c #3E5CF3",
"(@	c #3751D9",
"_@	c #1A1A59",
":@	c #688B22",
"<@	c #769B30",
"[@	c #7EA334",
"}@	c #6F9429",
"|@	c #71952B",
"1@	c #6D9129",
"2@	c #779B32",
"3@	c #7CA134",
"4@	c #6E9129",
"5@	c #DC8134",
"6@	c #884E2C",
"7@	c #78462A",
"8@	c #412B50",
"9@	c #2009AD",
"0@	c #2008B0",
"a@	c #2212B3",
"b@	c #292CC0",
"c@	c #25259C",
"d@	c #58301F",
"e@	c #C66027",
"f@	c #B66C13",
"g@	c #769B2E",
"h@	c #74982F",
"i@	c #73962F",
"j@	c #A4785D",
"k@	c #A55125",
"l@	c #8B522F",
"m@	c #5E3D29",
"n@	c #37291E",
"o@	c #2A1F78",
"p@	c #021184",
"q@	c #071284",
"r@	c #1F1E43",
"s@	c #422F1E",
"t@	c #BA632E",
"u@	c #F6953E",
"v@	c #E78E3E",
"w@	c #314460",
"x@	c #7A9C35",
"y@	c #7CA135",
"z@	c #E9CFC4",
"A@	c #A6775F",
"B@	c #462F24",
"C@	c #B35C2B",
"D@	c #5B3826",
"E@	c #CB6429",
"F@	c #DC712D",
"G@	c #CC6429",
"H@	c #593826",
"I@	c #0C1D20",
"J@	c #C96329",
"K@	c #CD662A",
"L@	c #EB8637",
"M@	c #CB6428",
"N@	c #7DA236",
"O@	c #7B9E34",
"P@	c #7CA136",
"Q@	c #7C5237",
"R@	c #584136",
"S@	c #2D2421",
"T@	c #522E21",
"U@	c #96542E",
"V@	c #ED8838",
"W@	c #F89840",
"X@	c #ED8939",
"Y@	c #9A562E",
"Z@	c #593927",
"`@	c #4F3526",
" #	c #BA5F2C",
".#	c #F08C3A",
"+#	c #95522A",
"@#	c #6D9028",
"##	c #83A939",
"$#	c #6A8E26",
"%#	c #74972E",
"&#	c #513624",
"*#	c #6F472D",
"=#	c #312722",
"-#	c #9B4D25",
";#	c #B4662D",
">#	c #9B4C25",
",#	c #623F2A",
"'#	c #442D21",
")#	c #4B2B1F",
"!#	c #BF7236",
"~#	c #B15A2C",
"{#	c #64494C",
"]#	c #82A737",
"^#	c #74423C",
"/#	c #D66728",
"(#	c #D76828",
"_#	c #5E3322",
":#	c #593122",
"<#	c #5D3221",
"[#	c #8D522E",
"}#	c #442F25",
"|#	c #AB8776",
"1#	c #B3846D",
"2#	c #BE612D",
"3#	c #E08037",
"4#	c #3C4664",
"5#	c #799A39",
"6#	c #83A741",
"7#	c #759734",
"8#	c #6E9229",
"9#	c #7B9E36",
"0#	c #70952A",
"a#	c #564C5B",
"b#	c #CB642A",
"c#	c #D86828",
"d#	c #D96828",
"e#	c #A85A2D",
"f#	c #D66829",
"g#	c #F2903C",
"h#	c #CE662A",
"i#	c #754A2E",
"j#	c #6E5346",
"k#	c #E4D8D3",
"l#	c #774A2E",
"m#	c #412501",
"n#	c #70893E",
"o#	c #949A77",
"p#	c #A6AD8A",
"q#	c #90957C",
"r#	c #929D76",
"s#	c #A0A686",
"t#	c #85985D",
"u#	c #799E30",
"v#	c #5D3400",
"w#	c #7D4F31",
"x#	c #7D482A",
"y#	c #CE7C38",
"z#	c #E3905A",
"A#	c #D79A76",
"B#	c #9F7F74",
"C#	c #000000",
"D#	c #E4D0C8",
"E#	c #8C6146",
"F#	c #81A53B",
"G#	c #878E73",
"H#	c #B6BBB7",
"I#	c #B4B9A9",
"J#	c #A2A58C",
"K#	c #ACADA3",
"L#	c #B6BAAB",
"M#	c #A1A78E",
"N#	c #6F912C",
"O#	c #80A438",
"P#	c #769A2F",
"Q#	c #83AA37",
"R#	c #140000",
"S#	c #814E2E",
"T#	c #875130",
"U#	c #66412A",
"V#	c #232120",
"W#	c #312A28",
"X#	c #BAB7B6",
"Y#	c #F2F2F2",
"Z#	c #EEEEEE",
"`#	c #999998",
" $	c #4A382E",
".$	c #83AB36",
"+$	c #7A9B38",
"@$	c #868B68",
"#$	c #B5B9B0",
"$$	c #C5C7C5",
"%$	c #A0A094",
"&$	c #A4A59C",
"*$	c #BBBFBC",
"=$	c #A2A894",
"-$	c #72952F",
";$	c #7C9F36",
">$	c #6E4D82",
",$	c #815030",
"'$	c #825030",
")$	c #664028",
"!$	c #242525",
"~$	c #B1B2B2",
"{$	c #DE9E8B",
"]$	c #E6A076",
"^$	c #DE966F",
"/$	c #B85C2A",
"($	c #74992D",
"_$	c #749731",
":$	c #788356",
"<$	c #878977",
"[$	c #9CA08F",
"}$	c #7C7A64",
"|$	c #A4AB8B",
"1$	c #C8C9C6",
"2$	c #A7A99E",
"3$	c #7D9846",
"4$	c #749632",
"5$	c #CD9D83",
"6$	c #7469CA",
"7$	c #1C234D",
"8$	c #4B2F1F",
"9$	c #000204",
"0$	c #161312",
"a$	c #AB531F",
"b$	c #F99840",
"c$	c #F99940",
"d$	c #ED8938",
"e$	c #BC612C",
"f$	c #592E1A",
"g$	c #84AA38",
"h$	c #798853",
"i$	c #B0B4A6",
"j$	c #B2B6A6",
"k$	c #868570",
"l$	c #969D7F",
"m$	c #BBBDB5",
"n$	c #9A9D8D",
"o$	c #ACB19E",
"p$	c #828D62",
"q$	c #759732",
"r$	c #3C373F",
"s$	c #2B1F28",
"t$	c #1D1E28",
"u$	c #1F1F1F",
"v$	c #202020",
"w$	c #2A1915",
"x$	c #9C5A2F",
"y$	c #DB6C2A",
"z$	c #B45D2C",
"A$	c #9B562E",
"B$	c #703418",
"C$	c #789D32",
"D$	c #708248",
"E$	c #BFC1BB",
"F$	c #B8BCBA",
"G$	c #9D9D95",
"H$	c #BEC0B0",
"I$	c #C5C8C0",
"J$	c #AAAE96",
"K$	c #B6BAB5",
"L$	c #97A874",
"M$	c #6F932A",
"N$	c #6A8D25",
"O$	c #2D4664",
"P$	c #1F1B13",
"Q$	c #1B1D1D",
"R$	c #542F1A",
"S$	c #CA6227",
"T$	c #D27935",
"U$	c #A0582E",
"V$	c #41281B",
"W$	c #7FA536",
"X$	c #779C2F",
"Y$	c #799D35",
"Z$	c #6D8E2D",
"`$	c #98998B",
" %	c #D4D4D4",
".%	c #9A9991",
"+%	c #B7BAAF",
"@%	c #B8BCB3",
"#%	c #ACB090",
"$%	c #A3A68E",
"%%	c #899F5D",
"&%	c #6E922A",
"*%	c #27374B",
"=%	c #1F1B12",
"-%	c #1E1E1E",
";%	c #06151A",
">%	c #673E76",
",%	c #323D96",
"'%	c #281A0F",
")%	c #789B31",
"!%	c #7CA033",
"~%	c #779A36",
"{%	c #949883",
"]%	c #A4A799",
"^%	c #7C7A69",
"/%	c #A5A597",
"(%	c #C6C7BF",
"_%	c #B0B39A",
":%	c #878D72",
"<%	c #799B37",
"[%	c #86AD3A",
"}%	c #293D54",
"|%	c #110D0C",
"1%	c #986A5F",
"2%	c #AF837C",
"3%	c #563E32",
"4%	c #74844E",
"5%	c #BBBEB6",
"6%	c #B5B9A9",
"7%	c #9B9B92",
"8%	c #818369",
"9%	c #9DA190",
"0%	c #868A7F",
"a%	c #779447",
"b%	c #2E4C6D",
"c%	c #715446",
"d%	c #84675A",
"e%	c #7DA137",
"f%	c #6C9028",
"g%	c #7D9947",
"h%	c #99A17B",
"i%	c #BABBB7",
"j%	c #BDBFB9",
"k%	c #A6A59D",
"  . + @ # $ % & * = - ; > = , ' ) ! ~ , { ] ^ # , ] / ( _ : < [ ",
"} | 1 2 3 4 # 5 6 { 7 ) 8 9 0 a , b c - 6 d e f 3 g h i j k l m ",
"n o p q r s t u v 6 w x y z A B C D E F G H * g I , J K L M N O ",
"P Q R S T U V 7 W X Y Z `  ...+.+.@.#.$.%.U 6 &.*.=., # -.;.>.,.",
"'.).!.^ ~.{.].^.$ /.T (._.............:.<.[.3 }.|.5 T ) 1.2.3.4.",
"5.6.7.8.).{ 9., 0.0 T W a.b...@.....c.c.d.e.f.g.s h.T H i.j.k.X ",
"l.m.n.o.p.!.q.# r.s.t.u.v.w.x.y.z.+.A.B.C.D.E.F.r.G.H.o.I.l.~.I.",
"^ R o.J.K.3 u v 7 Y L.M.N.O.P.Q.R.S.T.U.V.W.# L.T Y *.M.X.r.$ ] ",
"!.0 6 Y.|.s Z.`.> *.r. +.+++@+#+$+%+&+*+=+-+;+>+J H 8 T ,+x '+X.",
"f )+~ !+7.~+{+f Y I 7 ]+U ^+/+(+_+:+<+[+}+|+1+J 6 v 7 x 6 = Z.y ",
"2+3+w ~+Y I 4+s |.Y.4+i.Y 5+6+7+8+9+0+a+b+c+d+q e 5 e+f+6 g+h+|.",
"i+X j+g 3 6 T k+$ ~+l+0 7.m+n+o+p+q+r+s+t+u+v+{ w+x+y+~+7.J 7 3+",
"I 3 T { T w &.z+A+l.T 3 B+C+D+E+F+G+H+I+J+K+T '.A+7.L+!.{.; ~.M+",
"5.~+3 H v 3 6 * i+8.7.~+~+N+O+P+Q+++R+S+T+U+V+- m.m.~.X = - Y.W+",
"8 *.X+K.X k+Y+W 7.s p.X 4 Z+`+ @.@+@@@#@$@%@&@H !+H *@m.d 6 !.0 ",
"=@* q -@S y+q x Y ;@d >@,@'@)@!@~@{@]@^@/@(@_@# ; :@<@[@}@~ |@~+",
"1@A+2@~.3@|.4@3@k+~+7.R 5@6@7@8@9@0@a@b@c@d@e@f@k+k+, y g@Z.h@3@",
"i@I 8 2@6 I.S J ~.# y+j@k@l@m@n@o@p@q@r@s@t@u@v@w@g x@(.y+L.e 7.",
"q.t 3 M+- I R y@*.l.Y.z@A@B@C@D@E@F@G@H@I@J@K@L@M@!.J N@Y O@6 P@",
"o.L.R X T r., 8 6.o.~.Q@R@S@T@U@V@W@X@Y@Z@`@ #.#+#x 7.= 7.@#7 3 ",
")+##3 I., $#%#^.X > T ~ 3 &#*#=#-#;#>#,#'#)#!#~#{#J T /., 4+) X.",
"|@v !+<@]#' @#, *.g q.0.^#/#(#_#:#<#[#}#|#1#2#3#4#3@]+L.M+5#6#7#",
"y 2@I n.'.8#T g 9#I 0#a#b#c#d#e#f#g#h#i#j#k#l#m#&.r.! # n#o#p#q#",
"r#s#t#u#5.8.= 0.T J I v#d#(#w#x#y#z#A#B#C#D#E#0.T 4+I F#G#H#I#J#",
"K#L#M#N#~+O#P#Q#) 6.7 R#S#T#U#V#W#X#Y#Z#`# $7..$J P@7 +$@$#$$$%$",
"&$*$=$-$t 8.t.J ~.;$r.>$}#,$'$)$!$~${$]$^$/$($4+, I 7 _$:$<$[$}$",
"|$1$2$3$4$q /.g ~+; ; 5$6$7$8$9$0$a$b$c$d$e$f$g+# t 4 g$h$i$j$k$",
"l$m$n$o$p$q$7 l.0 g T r$s$t$u$u$v$w$x$y$z$A$B$k+,+# 7 C$D$E$F$G$",
"H$I$J$K$L$M$r.M+! !.7 7.N$O$P$v$v$Q$R$S$T$U$V$W$X$3 Y$!+Z$`$ %.%",
"+%@%#%$%%%Z.x 7.# P#3 w+8.6 &%) *%=%-%;%>%,%'%V )%!%J ,+~%{%]%^%",
"/%(%_%:%<%* [%H 7.M+4 h.4 3 !.,+y+*.}%|%1%2%3%I k+q P#$ 4%5%6%7%",
"8%9%0%a%o.r.L.i+4@y i+)+}@W+<@S $#t 0.b%c%d%e%e f%N$i+g%h%i%j%k%"};
