/* XPM */
static char * p_mov_left_1_xpm[] = {
"66 66 348 2",
"  	c #AA834B",
". 	c #A88047",
"+ 	c #A37A3D",
"@ 	c #9F7535",
"# 	c #9F7533",
"$ 	c #9F7534",
"% 	c #A07737",
"& 	c #A57D41",
"* 	c #A9824A",
"= 	c #AD894D",
"- 	c #AC874C",
"; 	c #A98348",
"> 	c #A78046",
", 	c #A77F46",
"' 	c #A88147",
") 	c #AB854A",
"! 	c #AD884D",
"~ 	c #AC864C",
"{ 	c #A98149",
"] 	c #A88148",
"^ 	c #AA824A",
"/ 	c #A88046",
"( 	c #A67E43",
"_ 	c #A2793B",
": 	c #9F7433",
"< 	c #A07635",
"[ 	c #A27B3A",
"} 	c #A47E3D",
"| 	c #A57F3D",
"1 	c #A6803F",
"2 	c #A98446",
"3 	c #A98249",
"4 	c #AB854C",
"5 	c #AC874D",
"6 	c #B29251",
"7 	c #AF8D4D",
"8 	c #A78243",
"9 	c #A2793C",
"0 	c #A2783B",
"a 	c #A57E40",
"b 	c #AC894A",
"c 	c #B19150",
"d 	c #B29351",
"e 	c #AF8C4F",
"f 	c #AB844B",
"g 	c #A77F45",
"h 	c #A47B3F",
"i 	c #A57D42",
"j 	c #A57C41",
"k 	c #A2793A",
"l 	c #A07637",
"m 	c #A17938",
"n 	c #A98543",
"o 	c #AE8E4A",
"p 	c #AF8F4C",
"q 	c #B1914E",
"r 	c #AE8B4E",
"s 	c #AB844C",
"t 	c #A37B3E",
"u 	c #A98148",
"v 	c #AC884D",
"w 	c #B08F4F",
"x 	c #B49753",
"y 	c #B39552",
"z 	c #B08F4D",
"A 	c #A98544",
"B 	c #A57E3D",
"C 	c #A47D3C",
"D 	c #A78241",
"E 	c #AD8C4A",
"F 	c #B29451",
"G 	c #B59853",
"H 	c #B49652",
"I 	c #B39451",
"J 	c #B08F50",
"K 	c #A88146",
"L 	c #A47B3E",
"M 	c #A2783A",
"N 	c #9F7635",
"O 	c #A17738",
"P 	c #A37B3B",
"Q 	c #A68140",
"R 	c #AD8B49",
"S 	c #B29350",
"T 	c #AF8E4F",
"U 	c #A88246",
"V 	c #A37B3D",
"W 	c #A17839",
"X 	c #B19050",
"Y 	c #AE8B4D",
"Z 	c #AE8D4B",
"` 	c #AE8E4B",
" .	c #AE8C4D",
"..	c #AF8D4F",
"+.	c #B69953",
"@.	c #B59953",
"#.	c #B59753",
"$.	c #AE8C4E",
"%.	c #AE8A4E",
"&.	c #B08E4F",
"*.	c #AD8A4C",
"=.	c #A37A3C",
"-.	c #A07636",
";.	c #A88145",
">.	c #AC8949",
",.	c #B49653",
"'.	c #B19151",
").	c #AF8C4E",
"!.	c #A67E44",
"~.	c #A67F44",
"{.	c #B2934F",
"].	c #AF8F4D",
"^.	c #AB874A",
"/.	c #AA8449",
"(.	c #AD8B4B",
"_.	c #B1924E",
":.	c #B29450",
"<.	c #AA824B",
"[.	c #AB864C",
"}.	c #AA844B",
"|.	c #A1783A",
"1.	c #AB864B",
"2.	c #AA8646",
"3.	c #A47D3E",
"4.	c #A57F3F",
"5.	c #A78240",
"6.	c #A88342",
"7.	c #AB8748",
"8.	c #AD8A4D",
"9.	c #B49552",
"0.	c #AB874B",
"a.	c #AB864A",
"b.	c #AC884C",
"c.	c #A78045",
"d.	c #A47D3D",
"e.	c #A78144",
"f.	c #AA834A",
"g.	c #B39452",
"h.	c #B09050",
"i.	c #AD8A4E",
"j.	c #B39450",
"k.	c #B1924F",
"l.	c #AA8549",
"m.	c #AD894B",
"n.	c #B0904E",
"o.	c #AE8C4C",
"p.	c #A88149",
"q.	c #AF8E4E",
"r.	c #AC874B",
"s.	c #B0904F",
"t.	c #A67F43",
"u.	c #A67F42",
"v.	c #AC884B",
"w.	c #9E7433",
"x.	c #A3793D",
"y.	c #AC8A49",
"z.	c #B08E50",
"A.	c #AB8849",
"B.	c #A88443",
"C.	c #A57F40",
"D.	c #A47C3E",
"E.	c #A57E3F",
"F.	c #A68040",
"G.	c #A47C3F",
"H.	c #A57D43",
"I.	c #AB8649",
"J.	c #A78043",
"K.	c #AC874A",
"L.	c #A77F44",
"M.	c #AA844A",
"N.	c #AF8D4E",
"O.	c #B19250",
"P.	c #AF8E4D",
"Q.	c #A98248",
"R.	c #A47C40",
"S.	c #A17838",
"T.	c #A27A3A",
"U.	c #A37C3B",
"V.	c #A68042",
"W.	c #AA854A",
"X.	c #A27A3B",
"Y.	c #AB8749",
"Z.	c #A67E41",
"`.	c #A67D43",
" +	c #A98545",
".+	c #A78242",
"++	c #A57D3F",
"@+	c #A37A3E",
"#+	c #A67E45",
"$+	c #AD894E",
"%+	c #AC894C",
"&+	c #A88144",
"*+	c #A88245",
"=+	c #A57E41",
"-+	c #AA8548",
";+	c #A98447",
">+	c #A17739",
",+	c #9E7432",
"'+	c #A88345",
")+	c #AC8947",
"!+	c #A37B3A",
"~+	c #A88247",
"{+	c #A98247",
"]+	c #A27939",
"^+	c #B49752",
"/+	c #B39652",
"(+	c #A07736",
"_+	c #A27A39",
":+	c #A98347",
"<+	c #A67E42",
"[+	c #A27A3C",
"}+	c #AF8F4B",
"|+	c #AE8B4C",
"1+	c #A98346",
"2+	c #AA8645",
"3+	c #AB8846",
"4+	c #A88244",
"5+	c #B39351",
"6+	c #9E7332",
"7+	c #AC8A47",
"8+	c #AD8A4B",
"9+	c #A57E3E",
"0+	c #A37B3F",
"a+	c #A47C41",
"b+	c #9F7434",
"c+	c #AE8D4A",
"d+	c #A68043",
"e+	c #AD884C",
"f+	c #B1914F",
"g+	c #AD894C",
"h+	c #080808",
"i+	c #B39551",
"j+	c #AE8D4D",
"k+	c #A37C3D",
"l+	c #A27938",
"m+	c #A88543",
"n+	c #A78044",
"o+	c #A57E42",
"p+	c #A17837",
"q+	c #AA834C",
"r+	c #A98645",
"s+	c #AA8448",
"t+	c #CE3900",
"u+	c #EF7B00",
"v+	c #AA8745",
"w+	c #AB8946",
"x+	c #AB8947",
"y+	c #B39651",
"z+	c #AA8746",
"A+	c #A78042",
"B+	c #AC884A",
"C+	c #A88344",
"D+	c #B29151",
"E+	c #B69954",
"F+	c #AB854B",
"G+	c #EFEF00",
"H+	c #A17939",
"I+	c #B29250",
"J+	c #AD8B4A",
"K+	c #A78143",
"L+	c #A98644",
"M+	c #A88343",
"N+	c #AD8B4C",
"O+	c #A9834A",
"P+	c #AC894B",
"Q+	c #6B7B7B",
"R+	c #B1904F",
"S+	c #A98349",
"T+	c #292929",
"U+	c #4A4A4A",
"V+	c #AB8747",
"W+	c #A07738",
"X+	c #A68041",
"Y+	c #AA8547",
"Z+	c #AA8349",
"`+	c #A47D3F",
" @	c #A98643",
".@	c #A98546",
"+@	c #181818",
"@@	c #AE8B4F",
"#@	c #AC864D",
"$@	c #A57C40",
"%@	c #AE8A4D",
"&@	c #B0914E",
"*@	c #AC8948",
"=@	c #EFDEBD",
"-@	c #BD6B39",
";@	c #AB8948",
">@	c #A67F41",
",@	c #A98448",
"'@	c #8C1800",
")@	c #A37C3C",
"!@	c #A27B39",
"~@	c #A6813F",
"{@	c #A78341",
"]@	c #A78340",
"^@	c #AE8D4C",
"/@	c #AF8E4C",
"(@	c #A07837",
"_@	c #AF8E4B",
":@	c #AB8848",
"<@	c #A98547",
"[@	c #0018EF",
"}@	c #DEAD7B",
"|@	c #6B0000",
"1@	c #A6803E",
"2@	c #AA8647",
"3@	c #AA8744",
"4@	c #B0914D",
"5@	c #B0904D",
"6@	c #A5803E",
"7@	c #A37B3C",
"8@	c #B0904C",
"9@	c #A67F45",
"0@	c #A37A3B",
"a@	c #9F7634",
"b@	c #A57F3E",
"c@	c #AC8B48",
"d@	c #AA8649",
"e@	c #A47C3D",
"f@	c #A88048",
"g@	c #AD8C49",
"h@	c #AD8D49",
"i@	c #A57D3E",
"j@	c #B59752",
"k@	c #AB8847",
"l@	c #A47B40",
"m@	c #A78142",
"n@	c #A88442",
"o@	c #AE8C4F",
"p@	c #AA8845",
"q@	c #AA8747",
"r@	c #A47B41",
"s@	c #A1773A",
"t@	c #B08F4E",
"u@	c #B49651",
"v@	c #A07836",
"w@	c #AB8A47",
"x@	c #B08E4E",
"y@	c #A17937",
"z@	c #A67F40",
"A@	c #AE8D49",
"B@	c #A78140",
"C@	c #AA8846",
"D@	c #B2924F",
"E@	c #AD8B4D",
"F@	c #B39550",
"G@	c #AC8B49",
"                                                                            . + @ # $ $ $ # % & *                                   ",
"= = = - ; > , ' ) ! = ! ! ! ! ! = = = ! ~   { . ] ^                 * ] / > ( _ $ : < [ } | 1 2 - ~           3 . > > ] *     4 5 = ",
"6 6 6 7 8 9 0 a b c d 6 6 6 6 6 6 6 d c e f g h i {                 ] j 9 9 k l $ : m n o p p q c r s       ^ g t _ 9 i u     v w 6 ",
"x x y z A B C D E F x G G G G G H I I d J = K L j u               . ( M $ $ N O k P Q R S H x H d T = v ! ! - U V W _ j ]     ! X y ",
"y y w Y Z ` o Z  ...d G +.@.@.#.6 $.%.r &.X *.U . *               =.M -.# : % h ;.>.Z  ...d ,.'.).T c 6 6 6 c *.U !.~.. *     4 = &.",
"c c $.r X S {.].^./.(.q _._.:.d ).4 4 ! T 6 ..4 <.  4 - [.}.f ~ 5 |.|.W W W + g 1.&.c ..%.w 6 T %.X H H y H H X ~ <.  f ~ ~ f s - r ",
"....J X T *.2.D 3.L 4.5.5.6.7.= 5 4 8.J w $.v s     ! &...~ 5 &.c !.!.!.!.!.g { s ! $.J X ..$.T c 9.#.d &.6 H c 5   }.= w ..5 5 T J ",
"0.a.w X b.c.=.-.$ < O k P d.e.f.  s $.c ..[.      }.8.c X %.r c g.. ] 3   4 [.f }.[.= h.6 ..i.&.d j.k.(.l.m.n.o./.p.  i.c q.a.r.s.w ",
"t.u.^.v.e.9 l : w.-.x.t.2.y.^.  <.  5 %.v   <.      ~ %.T X X ..e t i ] ~ ..&.! ~ r J &...w X z.$.A.B.C.D.E.D F.G.H.{ ~ 8.I.u.J.v.K.",
"t + L.g =.N $ @ -._ ( M.N.O...5 ~ ~ - 5 5 ~ }.3 3     f = n.P.a.Q.@ _ g - J X b.) N.c *.) N.c  .; R.S.N < % W T.U.V.W.5 - U X.9 ~.g ",
"j j h 9 l w.w.-.+ !.] f ! e w X X X X X X w Y.Z.`.{     /. +.+++@+w.|.#+4 $+%+&+u.I.*.*+=+-+*.;+h >+$ ,+$ |.& '+)+Z w X w 7.!+-.0 h ",
"~+{+G.W ]+]+S._ !.*     4 ! &.I H ^+H y H /+E 1 =+Q.  { ( _ (+< < _+3.:+~ 5 /.D.k <+/ R.[+<+K R.% $ $ N >+R.Q.8.O.y ^+G ^+}+Q m W G.",
"|+Y 1+J.2+3+4+~.]     4 %.J &.&.d x 5+J 6 ^+{.E A.M.. j 0 @ 6+,+w.7+E P.J J 8+9+-.|.0+a+j R.@+>+b+,+@ _ & > f.5 e 6 x +.G :.c+2+d+U ",
"X c 8.e+w f+g+f.^   * M. .f+$.- h+d h+h+).I i+{.j+M.~.k+_+_+l+l+l+I i+H x #._.m+_+O [+n+Q.o+k S.m p+W j ]     s - ..I x G G H f+g+= ",
"&.&.J J J e 5 s q+* g =+.+r+s+h+t+h+u+h+5 $.h+3+.+a V.v+w+w+w+x+x+T X H @.@.y+}+z+A+J.B+ .-+u.C+z+C+( > f.  s ! ..z.&.D+H @.E+,.6 J ",
"= = X c %.F+f.3 3 . h+O h+h+h+G+u+h+G+t+h+h+h+V H+[ B.].i+i+i+I :.- r 6 H G G ^+S Y - &.I+$.r.N.f+ .M.*   * f.*.f+q.r.8.d H H H y c ",
"~ ~ r e 5 3 #+j j h+G+h+h+u+h+u+G+t+G+u+t+t+h+i V.2+J+q.d #.,.D+J &.&.&.X y G E+#.d J &.&.w J J &.$+4 q+  . <+K+L+M+=+U N+&.&.&.&.r ",
"f.O+f.M.f./ t % -.h+G+t+h+G+u+h+G+t+u+u+u+u+h+f.P+n.P.v.8.Q+Q+= 4 :.R+8.= c H x H H d r ! &.6 ..~   * * { i |.p+]+_+T.=+S+4 4 4 4 f ",
"!.j a+j j L O # ,+h+G+t+u+G+u+G+u+t+u+u+t+h+h+T+T+U+U+Q+Q+T+h+h+U+U+V+/.4 %.&.w w J ..v 4 %...$+  , i & j _ -.W+t X+A Y+Z+<.<.<.<.] ",
"G.]+W W W O l -.< h+u+G+t+G+G+G+u+u+u+G+G+u+t+t+h+T+h+h+h+h+h+h+h+T+`+~+4 ~ - ~ [.[.4   f.M.}.}.u & W l % -.% @+' *.f+s.v f f s   . ",
" +6.a h h h h R.h+t+h+G+u+u+G+u+u+u+u+t+h+h+h+h+h+T+h+h+ @ @.@Z+  h+h+h+h+h+%.[.<.<.* g i j j i R._ $ ,+$ O t !.f.e 9.y J ....i.4 Z+",
"s.n.v.3 { u ] ] h+G+t+u+u+u+u+u+u+u+t+h+h+h+h+h+T+h+h+h+h+h+h+h+f u +@h+h+H 6 r s   3 & k W W W >+% -.@ % G.' f.}.r I x H H 9.c = = ",
"H ,.'.@@#@f.> ( h+u+G+u+G+G+u+u+h+h+h+T+h+T+h+h+T+c g.T+h+h+h+h+h+h+= d G @.H c r ~ f.2 6.C.L @+t h h h $@;+%@$+4 ! &.5+#.E+@.y h.X ",
"^+^+y c = ' h W h+t+u+T+T+Q+G+u+h+h+h+h+h+h+h+h+h+- ..I 6 r r c g.  ! 6 #.G G H 6 %.- N.&@*.S+] ] ] ' . Q.*.c N.F+  1.).I ^+#.H y y ",
"c s.` *@*+R.>+< W h+T+=@=@Q+T+G+u+h+h+-@h+h+t+u+h+h+! &.e ~ 5 ..c   5 ..6 H G @.^+c &.I x 6 e 5 }.] L.( L..@*@2.n+i `.*+;@Z s.c c c ",
"- s+>@U.T.W -.W & ,@h+=@Q+Q+T+h+h+h+-@'@-@h+t+t+u++@h+[.h+h+h+h+- f.  F+%@6 #.G x 9.y H x H d r f.i _ O W T.U.P k |.k T.)@V.l.5 5 - ",
", i h D.1 Q `+=+l.).h+T+T+h+h+Q+'@'@'@'@-@h+h+t+h+T+h++@h+h+h+h+h+( `.`.U |+X '.'.D+D+'.'.6 s.v.~.9 < w.$ !@~@{@{@{@{@]@D 4+3 <.<.{ ",
"h + ( /.^@/@Y./.7 c N.h+h+'@h+=@-@'@'@'@'@h+h+h++@h++@+@+@+@+@h+h+h+h+h+h+h+- v - - - - - 5 1.t.k -.$ # (@{@_@_._._._._._.7 -     . ",
"Z.R.. 5 z.&.I.U :@R <@;.h+'@[@}@}@-@-@'@'@h+h+h+Q+Q+U+U++@+@+@+@h+h+h+h+h+h+h+h+h+h+h+!.!.!.H.9 @ w.N !@5.*@R+9.#.H 5+g.#.g.T r %.I.",
"a.] * f - W.=+X.U.C P _ h+'@=@}@-@'@'@'@h++@+@Q+Q+U+U+T+T+h+h++@|@|@h+h+h+h+h+h+'@}@}@h+|.M W % @ : p+6.` N.%@J y 6 r &.y x y I 5+w ",
"v * . g g i |.(+U.1@~@1 1 h+'@}@-@-@h+h+h++@+@Q+Q+U+U+T+T+T++@h+h+h+|@|@h+h+h+'@'@'@h+h+h+9 9 9 9 _ L 2@w e ~ i.X ..~ ! h.d d d 6 J ",
"4 ] R._ M W -._+3@p 4@5@4@p h+h+h+h+h+v h++@h+Q+U+U+T+U++@+@+@+@+@+@h+h+h+h+h+'@'@'@-@}@h+> > > > > ' M.- ~ }.4 5 ~ }.4 5 = = = = 5 ",
"g L.F.6@6@B 7@a b d ,.G @.x X %.= = [.}.[.h+h+h+U+U+T+T+U+U+U+U+T+T++@+@+@+@+@h+-@'@h+h+                  3 / , , , g g g g g g g , ",
"_ C.)+p 8@Z -+~+) r d G @.G 9.d d 6 r [.%.X h+h+h+h+T+T+T+T+U+U+U+U+T+T+T+U+h+h+h+h+h+g                 * 9@+ _ _ _ _ _ _ _ _ _ _ 0 ",
"d.B./@d g.X = }.  [...d 5+I H G G x c r ..c h+T+T+h+h+h+h+h++@+@+@+@+@+@U+h+h+'@-@h+h+h+f.~ ! = b.M.' > g h -.: $ m C | | | | d.0@X.",
"J+/@ .%.%.= [.    }.- = = r 6 #.@.G H d &.r ..h+T++@h+h+|@h++@+@+@+@U+U+h+h+'@-@-@}@=@=@h+).c d R+2@D._ _ O $ w.a@b@c@p }+}+}+y.1+:+",
"7 ^@d@' . . . . / . 3     4 ).d I I I d w %...6 h+T+|@|@|@|@'@h+h+h+h+U+h+h+'@-@}@'@'@h+h+w 5+x i+*@e@|.k P C C | v+n.I I I d w - - ",
"4+F.e@9 9 9 9 9 9 h g *     - 8.%.%.%.r &.X w ).X h++@|@t+'@'@'@'@h++@U+h+h+h+-@}@}@=@-@h+T ..d 9.^@K !.c.2@E _@` ^@r r r r r = 4 S+",
"k N $ (+T.C C C C 4.1+[.4             4 r c J %...6 h+Q+T+'@t+'@T+T+T++@h+h+h++@-@-@'@h+5@B+s+8+].8+Q.f@  %.O.I d &.~     }.  f.] ( ",
"-.w.w._+n g@c+c+h@Z n.w = }.<.<.<.<.<.  ~ r &.X J h+h+h+Q+U+U+U+T++@+@+@+@h+h+h++@h+h+{@5.i@V E.Q h+h+h+h+5 %.e r ! s         . j _ ",
"$ < _+D p ^+G ^+^+j@G H &.v - - - - 4   3 3 h+h+h+|@|@h+h++@+@+@+@h+h+h+h+'@'@'@'@h+h+h+h+h+h+h+h+'@t+t+'@h+}.f.Q.] ] ] ] ] ' `.|.$ ",
": !@L+}+i+G E+E+E+E++.G I c X c c h.%.}.h+h+|@|@t+t+t+t+|@h+h+h+h+'@'@'@'@'@'@'@'@'@|@h+h+t+u+u+u+t+t+u+h+h+h+h+h+h+h++ + + + 0 -.w.",
"_+5.Z i+x #.H y y y y 9.H x H y H H X h+h+|@|@|@|@|@|@|@|@h+|@|@|@'@'@t+t+'@'@'@'@'@|@h+u+u+u+u+u+u+t+t+h+-@+@h++@T+T+h+U.U.P T.W S.",
"k@J+ .J y H c e e e e &.g.x d J d x h+h+|@'@'@'@'@'@'@'@'@'@'@h+|@|@|@'@'@t+t+t+t+t+t+t+t+t+t+t+t+t+u+t+h+}@T+h+T+h+T++@h+c@c@z+e.e.",
"R+c r r c 6 r f f.S+3 W.7 f+|+a.h+h+h+'@t+t+t+t+t+t+t+|@|@|@|@h+h+|@|@|@|@|@'@t+t+t+t+t+t+t+t+'@'@'@t+'@h+h++@h++@h++@T+h+^+H O.8.8.",
"&.&.w w T r #@3 !.l@0+R.m@n@h+h+'@'@t+t+t+t+t+|@'@'@'@'@|@|@|@|@h+h+h+h+|@|@|@|@'@'@t+t+t+t+'@'@'@'@'@|@h+h+h++@h+h+h+T+h+E+E+,.6 J ",
"= = X c %.f * > @+l N -.h+h+'@t+t+t+t+t+t+t+|@|@|@|@h+h+h+h+h+h+h+h+h+h+h+|@|@t+t+t+t+t+t+'@'@'@h+h+h+h+h+h+h+h+h++@+@h+T+h+H H y X ",
"[.[.r o@5 h+h+L O $ ,+h+'@t+t+t+t+t+t+t+t+'@|@h+h+h+J J 6 x H c T X J z.h+h+|@|@|@t+t+t+'@h+h+h+h+<.^ , j h R.h+T+T++@h+T+h+..T T r ",
"f.3 f.f.h+}@h+h+h+h+h+h+h+h+'@t+t+t+t+'@'@'@h+h+8.f+q.r.*.f+f+= 4 :.s.= = c h+h+h+h+h+h+h+h+d ).f.3 ] j >+-.-.O h+T++@'@h+h+4 4 4 }.",
"`.l@l@R.h+h+-@T++@U+h+T+h+-@h+'@'@t+'@'@'@h+h+f l.2.M+=+>@A 2@/.  p@q@/.4 %...&.&.z...v 4 i.$.-+<+a+R._ N w.$ O h+h+h+-@h+h+<.<.<.] ",
"G.]+W W >+h+h+T+T++@U++@T++@-@h+'@'@'@h+h+h+h.- K 3.[ T.T.P a '   T.`+~+4 ~ ~ F+M.M.M.f.* f.; & O -.-.< $ $ % h h+-@h+T+h+h+4 s   ' ",
"2.B.>@R.h h h+h+h+T++@U++@T++@h+h+'@h+h+E+G y w (.3+3@3@3@3@2./.  h J.P+T &.*.U j l@r@a+a+a+h s@b+,+w.w.$ W h #+f.h+h+h+h+&.T r 4 /.",
"s.t@r.3 3 Z+Z+h+h++@+@+@T++@h+h+h+h+H u@u@u@H y I :.S S :.S t@-   3 1.w y 9.n.M+k W ]+]+]+]+]+S.p+v@(+(+% G.' f.}.r I H y y y X = = ",
"J ..5 [.%...T ....h+h++@+@T+h+f I.*@7+7+w@7+E x@J J J J X X e ~     ~ ).X X  .'+a D  @L+ @ @ @L+L+L+n X+& :+8.= 4 5 ..X X X X J &.&.",
"%@4 }.5 J g.y y y y h+h+h+h+h+Z+<+P _+_+!@)@K+a.5 5 5 5 - ~ 4 }.    }.4 [.~ F+f.W.j+{.S {.{.{.:.:.j.{. .a.Y 6 J - 4 [.[.F+F+F+8.f+X ",
"W.<.<.[.$.X X X X X X h+h+h+2 <+_ $ 6+$ !+{@:@Y ).$.).$.= s <.<.      <.<.<.<.<.4 r X X X X 6 9.G E+G d J 6 x g.&.= s ] !.i H.e.k@>.",
"{+}.f 4 ~ - - ~ [.[.[.W.V.P H+O l < $ p+n@8@I i+y y y g.J v }.}.}.^     }.}.}.}.s ~ 5 5 - ~ b.w H G #.H y H x H I &.F+!.9 O O H+P C.",
"8+$.).$.r = 4 * , `.H.a+|.b+6+$ >+V C.B.y.s.g.G +.G H 6 J ..r r r ( K v.$.).$.$.$.$.r r = ; c.^.w c X c c c c '.X *.;.@+-.,+w.y@6@2+",
"I I g.g.y 6 %.3 & k W W % < a@% h ' 8+n.q.8.&.9.G #.6 r r 6 y y y W z@Z I y g.g.I I g.y f+r+D.n+1.5 - - - - ~ - 1.;.=.% < $ < b@g@{.",
"6 c c d H H X *.2.{@]@{@{@{@{@6.1+}.%.X J )...X c c ).~ %.g.E+E+@.+ V.(.c 6 c c c c 6 H y+A@A 7.= 5   . !.`.`.!.`.@+l l _ 3.B@C@P.D+",
"5 5 5 r d x H F D@_._._._._._.n.E@F+4 v ..6 J = 5 5 4 }.8.d G G G . 3 F+5 v 5 5 5 5 %.'.H F@k.S d e M.`.9 W M M |.% -.9 ~.^.P.t@8.5 ",
"      ~ ..6 6 6 6 6 6 6 6 6 6 '.r s <.}.%.J ).4     { > 2 G@o o o                 <.4 $.c 6 d H H J f !.L 3.1 b@V 9 + i 3 ! J &.-   ",
"      }.~ v v v v v v v v v ! v [.      4 5 ~ }.    , t X.C } } }                   }.[.v v %.c y &.F+p.] B+/@(.; > . u f.4 5 - f   ",
"      * . g g g g g g g g g g , ] f.                > h _ _ 9 9 9                           4 $.X r s <.f %.X ..[.                  ",
"      ] R._ |.M M M M M M M |.9 ( *                 3 . > , , , ,                             [.v [.}.    [.v - f                   ",
"      . =.@ # $ $ $ $ $ $ $ # l j 3                                                                                                 "};
