/* XPM */
static char * p_mov_left_0_xpm[] = {
"66 66 350 2",
"  	c #AA834B",
". 	c #A88047",
"+ 	c #A37A3D",
"@ 	c #9F7535",
"# 	c #9F7533",
"$ 	c #9F7534",
"% 	c #A07737",
"& 	c #A57D41",
"* 	c #A9824A",
"= 	c #AD894D",
"- 	c #AD884D",
"; 	c #AC864C",
"> 	c #A98149",
", 	c #A88148",
"' 	c #AA824A",
") 	c #A88046",
"! 	c #A78046",
"~ 	c #A67E43",
"{ 	c #A2793B",
"] 	c #9F7433",
"^ 	c #A07635",
"/ 	c #A27B3A",
"( 	c #A47E3D",
"_ 	c #A57F3D",
": 	c #A6803F",
"< 	c #A98446",
"[ 	c #AC874C",
"} 	c #A98249",
"| 	c #AB854C",
"1 	c #AC874D",
"2 	c #A98348",
"3 	c #A77F46",
"4 	c #A88147",
"5 	c #AB854A",
"6 	c #B29251",
"7 	c #B29351",
"8 	c #B19150",
"9 	c #AF8C4F",
"0 	c #AB844B",
"a 	c #A77F45",
"b 	c #A47B3F",
"c 	c #A57D42",
"d 	c #A57C41",
"e 	c #A2793C",
"f 	c #A2793A",
"g 	c #A07637",
"h 	c #A17938",
"i 	c #A98543",
"j 	c #AE8E4A",
"k 	c #AF8F4C",
"l 	c #B1914E",
"m 	c #AE8B4E",
"n 	c #AB844C",
"o 	c #A37B3E",
"p 	c #A98148",
"q 	c #AC884D",
"r 	c #B08F4F",
"s 	c #AF8D4D",
"t 	c #A78243",
"u 	c #A2783B",
"v 	c #A57E40",
"w 	c #AC894A",
"x 	c #B39451",
"y 	c #B08F50",
"z 	c #A88146",
"A 	c #A47B3E",
"B 	c #A2783A",
"C 	c #9F7635",
"D 	c #A17738",
"E 	c #A37B3B",
"F 	c #A68140",
"G 	c #AD8B49",
"H 	c #B29350",
"I 	c #B49652",
"J 	c #B49753",
"K 	c #AF8E4F",
"L 	c #A88246",
"M 	c #A37B3D",
"N 	c #A17839",
"O 	c #B19050",
"P 	c #B39552",
"Q 	c #B08F4D",
"R 	c #A98544",
"S 	c #A57E3D",
"T 	c #A47D3C",
"U 	c #A78241",
"V 	c #AD8C4A",
"W 	c #B29451",
"X 	c #B59853",
"Y 	c #AE8C4E",
"Z 	c #AE8A4E",
"` 	c #B08E4F",
" .	c #AD8A4C",
"..	c #A37A3C",
"+.	c #A07636",
"@.	c #A88145",
"#.	c #AC8949",
"$.	c #AE8D4B",
"%.	c #AE8C4D",
"&.	c #AF8D4F",
"*.	c #B49653",
"=.	c #B19151",
"-.	c #AF8C4E",
";.	c #A67E44",
">.	c #A67F44",
",.	c #AE8B4D",
"'.	c #AE8E4B",
").	c #B69953",
"!.	c #B59953",
"~.	c #B59753",
"{.	c #AA824B",
"].	c #AB864C",
"^.	c #AA844B",
"/.	c #A1783A",
"(.	c #AB864B",
"_.	c #B2934F",
":.	c #AF8F4D",
"<.	c #AB874A",
"[.	c #AA8449",
"}.	c #AD8B4B",
"|.	c #B1924E",
"1.	c #B29450",
"2.	c #AD8A4D",
"3.	c #B49552",
"4.	c #AA8646",
"5.	c #A47D3E",
"6.	c #A57F3F",
"7.	c #A78240",
"8.	c #A88342",
"9.	c #AB8748",
"0.	c #B39452",
"a.	c #B09050",
"b.	c #AD8A4E",
"c.	c #B39450",
"d.	c #B1924F",
"e.	c #AA8549",
"f.	c #AD894B",
"g.	c #B0904E",
"h.	c #AE8C4C",
"i.	c #A88149",
"j.	c #AF8E4E",
"k.	c #AB864A",
"l.	c #AC874B",
"m.	c #B0904F",
"n.	c #AB874B",
"o.	c #AC884C",
"p.	c #A78045",
"q.	c #A47D3D",
"r.	c #A78144",
"s.	c #AA834A",
"t.	c #B08E50",
"u.	c #AB8849",
"v.	c #A88443",
"w.	c #A57F40",
"x.	c #A47C3E",
"y.	c #A57E3F",
"z.	c #A68040",
"A.	c #A47C3F",
"B.	c #A57D43",
"C.	c #AB8649",
"D.	c #A67F42",
"E.	c #A78043",
"F.	c #AC884B",
"G.	c #AC874A",
"H.	c #A67F43",
"I.	c #9E7433",
"J.	c #A3793D",
"K.	c #AC8A49",
"L.	c #AF8E4D",
"M.	c #A98248",
"N.	c #AF8D4E",
"O.	c #A47C40",
"P.	c #A17838",
"Q.	c #A27A3A",
"R.	c #A37C3B",
"S.	c #A68042",
"T.	c #AA854A",
"U.	c #A27A3B",
"V.	c #A77F44",
"W.	c #AA844A",
"X.	c #B19250",
"Y.	c #AB8749",
"Z.	c #A67E41",
"`.	c #A67D43",
" +	c #A98545",
".+	c #A78242",
"++	c #A57D3F",
"@+	c #A37A3E",
"#+	c #A67E45",
"$+	c #AD894E",
"%+	c #AC894C",
"&+	c #A88144",
"*+	c #A88245",
"=+	c #A57E41",
"-+	c #AA8548",
";+	c #A98447",
">+	c #A17739",
",+	c #9E7432",
"'+	c #A88345",
")+	c #AC8947",
"!+	c #A37B3A",
"~+	c #B49752",
"{+	c #B39652",
"]+	c #A07736",
"^+	c #A27A39",
"/+	c #A98347",
"(+	c #A67E42",
"_+	c #A27A3C",
":+	c #AF8F4B",
"<+	c #A88247",
"[+	c #A98247",
"}+	c #A27939",
"|+	c #B39351",
"1+	c #9E7332",
"2+	c #AC8A47",
"3+	c #AD8A4B",
"4+	c #A57E3E",
"5+	c #A37B3F",
"6+	c #A47C41",
"7+	c #9F7434",
"8+	c #AE8D4A",
"9+	c #AA8645",
"0+	c #A68043",
"a+	c #AE8B4C",
"b+	c #A98346",
"c+	c #AB8846",
"d+	c #A88244",
"e+	c #B39551",
"f+	c #AE8D4D",
"g+	c #A37C3D",
"h+	c #A27938",
"i+	c #A88543",
"j+	c #A78044",
"k+	c #A57E42",
"l+	c #A17837",
"m+	c #B1914F",
"n+	c #AD894C",
"o+	c #AD884C",
"p+	c #AA8745",
"q+	c #AB8946",
"r+	c #AB8947",
"s+	c #080808",
"t+	c #B39651",
"u+	c #AA8746",
"v+	c #AC884A",
"w+	c #A88344",
"x+	c #B29151",
"y+	c #B69954",
"z+	c #AA834C",
"A+	c #A98645",
"B+	c #AA8448",
"C+	c #A17939",
"D+	c #B29250",
"E+	c #AB854B",
"F+	c #A37B3C",
"G+	c #AD8B4A",
"H+	c #EF7B00",
"I+	c #CE3900",
"J+	c #A78143",
"K+	c #A98644",
"L+	c #A88343",
"M+	c #AD8B4C",
"N+	c #AA8649",
"O+	c #AC894B",
"P+	c #EFEF00",
"Q+	c #6B7B7B",
"R+	c #A98349",
"S+	c #A9834A",
"T+	c #AB8847",
"U+	c #A98444",
"V+	c #AA8747",
"W+	c #4A4A4A",
"X+	c #292929",
"Y+	c #AA8547",
"Z+	c #AA8349",
"`+	c #A98643",
" @	c #AE8A4D",
".@	c #AE8B4F",
"+@	c #AC864D",
"@@	c #B0914E",
"#@	c #A98546",
"$@	c #AC8948",
"%@	c #AB8948",
"&@	c #A78341",
"*@	c #A88442",
"=@	c #A88341",
"-@	c #AB8848",
";@	c #A67F41",
">@	c #A98448",
",@	c #B1934F",
"'@	c #EFDEBD",
")@	c #BD6B39",
"!@	c #181818",
"~@	c #8C1800",
"{@	c #DEAD7B",
"]@	c #A47D3F",
"^@	c #B18F50",
"/@	c #B59854",
"(@	c #AD8A4A",
"_@	c #AE8D4C",
":@	c #AF8E4C",
"<@	c #AD8C4B",
"[@	c #A68240",
"}@	c #A98547",
"|@	c #AA8647",
"1@	c #B19251",
"2@	c #B0904D",
"3@	c #B0914D",
"4@	c #0018EF",
"5@	c #A6803E",
"6@	c #A6813F",
"7@	c #AA8744",
"8@	c #A5803E",
"9@	c #B0904C",
"0@	c #A57F3E",
"a@	c #B49651",
"b@	c #6B0000",
"c@	c #A37D3B",
"d@	c #A07836",
"e@	c #B08F4E",
"f@	c #AD8C49",
"g@	c #AD8D49",
"h@	c #9F7634",
"i@	c #A07738",
"j@	c #B1904F",
"k@	c #B59752",
"l@	c #A27B39",
"m@	c #AC8B48",
"n@	c #AC8A48",
"o@	c #A47B40",
"p@	c #A78142",
"q@	c #A67F40",
"r@	c #A57D40",
"s@	c #A9824B",
"t@	c #AE8C4F",
"u@	c #A57C40",
"v@	c #AE8C4B",
"w@	c #AA8845",
"x@	c #A47B41",
"y@	c #A1773A",
"z@	c #AB8A47",
"A@	c #B08E4E",
"B@	c #A68041",
"C@	c #A37C3C",
"D@	c #AE8D49",
"E@	c #A78340",
"F@	c #B39550",
"G@	c #B2924F",
"H@	c #AD8B4D",
"I@	c #AC8B49",
"                                          . + @ # $ $ $ # % & *                                                                     ",
"= = - ;   > . , '                 * , ) ! ~ { $ ] ^ / ( _ : < [ ;           } . ! ! , *     | 1 = = = = [ 2 ! 3 4 5 - = - - - - - = ",
"6 7 8 9 0 a b c >                 , d e e f g $ ] h i j k k l 8 m n       ' a o { e c p     q r 6 6 6 6 s t e u v w 8 7 6 6 6 6 6 6 ",
"x x 7 y = z A d p               . ~ B $ $ C D f E F G H I J I 7 K = q - - [ L M N { d ,     - O P J J P Q R S T U V W J X X X X X I ",
"Y Z m ` O  .L . *               ..B +.# ] % b @.#.$.%.&.7 *.=.-.K 8 6 6 6 8  .L ;.>.. *     | = ` P P r ,.$.'.j $.%.&.7 X ).!.!.~.6 ",
"| | - K 6 &.| {.  | [ ].^.0 ; 1 /./.N N N + a (.` 8 &.Z r 6 K Z O I I P I I O ; {.  0 ; ; 0 n [ m 8 8 Y m O H _.:.<.[.}.l |.|.1.7 -.",
"| 2.y r Y q n     - ` &.; 1 ` 8 ;.;.;.;.;.a > n - Y y O &.Y K 8 3.~.7 ` 6 I 8 1   ^.= r &.1 1 K y &.&.y O K  .4.U 5.A 6.7.7.8.9.= 1 ",
"n Y 8 &.].      ^.2.8 O Z m 8 0.. , }   | ].0 ^.].= a.6 &.b.` 7 c.d.}.e.f.g.h.[.i.  b.8 j.k.l.m.r n.k.r O o.p...+.$ ^ D f E q.r.s.  ",
"  1 Z q   {.      ; Z K O O &.9 o c , ; &.` - ; m y ` &.r O t.Y u.v.w.x.y.U z.A.B.> ; 2.C.D.E.F.G.H.D.<.F.r.e g ] I.+.J.H.4.K.<.  {.",
"; [ 1 1 ; ^.} }     0 = g.L.k.M.@ { a [ y O o.5 N.8  .5 N.8 %.2 O.P.C ^ % N Q.R.S.T.1 [ L U.e >.a o + V.a ..C $ @ +.{ ~ W.N.X.&.1 ; ",
"O O O O r Y.Z.`.>     [. +.+++@+I./.#+| $+%+&+D.C. .*+=+-+ .;+b >+$ ,+$ /.& '+)+$.r O r 9.!++.u b d d b e g I.I.+.+ ;., 0 - 9 r O O ",
"~+I P I {+V : =+M.  > ~ { ]+^ ^ ^+5./+; 1 [.x.f (+) O._+(+z O.% $ $ C >+O.M.2.X.P ~+X ~+:+F h N A.<+[+A.N }+}+P.{ ;.*     | - ` x I ",
"J |+y 6 ~+_.V u.W.. d u @ 1+,+I.2+V L.y y 3+4++./.5+6+d O.@+>+7+,+@ { & ! s.1 9 6 J ).X 1.8+9+0+L a+,.b+E.9+c+d+>.,     | Z y ` ` 7 ",
"7 ` q -.x e+_.f+W.>.g+^+^+h+h+h+x e+I J ~.|.i+^+D _+j+M.k+f P.h l+N d ,     n [ &.x J X X I m+n+= O 8 2.o+r m+n+s.'   * W.%.m+Y [ K ",
"m - n 1 Y }.c+.+v S.p+q+q+q+r+r+K O s+!.!.t+:+u+s+E.v+%.-+D.w+u+w+~ ! s.  n - &.t.` x+I !.y+*.6 y ` ` y y y 9 1 n z+* a =+.+A+B+  q ",
"; | ^.n ^.p.M C+/ v.:.e+e+e+x s+[ m s+s+X X ~+s+s+[ ` D+Y l.N.m+%.W.*   * s. .m+j.l.2.7 I I I P 8 = = O 8 Z E+s.} } . b D l+F+j+^.; ",
"&.= ^.{.* 3 c S.9+G+j.7 ~.*.s+s+s+s+H+s+s+X s+I+s+y ` ` r y y ` $+| z+  . (+J+K+L+=+L M+` ` ` ` m ; ; m 9 1 } #+d d b N ^ /.& N+N.` ",
"P ` [ n |   s.O+g.L.F.2.X.8 s+P+s+s+H+P+I+s+s+I+s+7 m - ` Q+Q+s+s+s+s+> c /.l+}+^+Q.=+R+| | | | 0 s.S+s.W.s.) o % +.+.+.N c T.` P J ",
"X 7 r &.&.= | e.T+U+(+S. +V+s+H+P+I+H+P+H+I+I+I+s+s+q | W+X+s+s+s+s+s+s+s+X+X+X+X+R Y+Z+{.{.{.{., ;.d 6+d d A D # ,+@ B =+C.` 0.X ).",
"X J I I P y [ z 5./ Q.Q.s+s+s+s+P+P+H+H+P+H+I+I+s+s+X+X+s+s+^.p & X+s+X+X+X+X+X+ .m+m.q 0 0 n   . A.}+N N N D g +.^ N c T.&.x I J ~.",
"X !.!.).X 0.r 3+p+i `+s+s+H+P+H+H+P+P+H+P+H+H+I+s+s+X+X+s+Q+Q+Q+Q+s+,+$ D o ;.s.9 3.P y &.&.b.| Z+ +8.v b b b b O.b D.<.&.y O O O 0.",
"I ~.J ~.J I P x H H s+s+H+H+P+P+H+H+P+H+H+P+P+I+s+s+s+s+s+s+s+s+s+s+W+% A.4 s.^.m x J I I 3.8 = = m.g.F.} > p , , . [.s 8 -.].E+[ r ",
"K O O O O O O O 8 0.~.s+s+H+H+H+P+H+H+H+H+H+I+H+H+s+s+s+s+s+@+o b s+s+s+W+ @$+| - ` |+~.y+!.P a.O I *.=..@+@s.! ~ B.E.4.T+'+c d ~ C.",
"(.1 ; ; ; ; ; ; [ s+s+H+H+H+P+H+H+H+H+H+I+H+s+X+X+I+s+@@ .R+, , , 4 . s+s+s+s+E+  (.-.x ~+~.I P P ~+~+P 8 = 4 b N D N !+R.Q.f N ..j+",
"2.1   {.{.{.{.{.  - s+s+s+I+H+P+P+H+P+H+s+s+s+X+X+s+s+s+6 9 1 ^., V.~ V.#@$@4.j+c `.*+%@$.m.8 8 8 8 m.'.$@*+O.>+^ N o z.&@*@=@&@v.-@",
"7 &.].  ^.^.^.    ^.].E+s+s+H+X+X+X+X+P+P+H+s+s+s+s+H+s+I 7 m s.c { D N Q.s+s+s+s+s+s+s+s+s+1 1 [ [ B+;@R.Q.N +.N & >@h.l _.,@,@_.c.",
"X 6 9 m m m m k.p.`.`.s+s+I+X+'@'@Q+X+X+H+s+s+s+)@s+s+I+!@m.F.s+s+s+s+s+s+!@!@!@!@!@s+~@~@{@s+{.> 3 c b x.: F ]@=+e.-.^@6 *./@y+!.).",
"~.I P 0.0.P 7 (@y./.s+s+s+s+Q+'@Q+Q+s+s+s+H+H+s+)@H+s+s+s+s+s+s+s+!@!@!@!@!@!@s+s+!@s+~@~@~@s+  . b + ~ [._@:@Y.[.s 8 N. @O ~+X X X ",
"6 P X !.X I D+<@i+[@[@[@7.s+X+Q+X+s+s+Q+~@s+)@)@s+H+s+s+I+s+s+!@!@s+s+s+!@!@s+!@s+s+s+s+~@)@{@s+C.Z.O.. 1 t.` C.L -@G }@@.|@$.g.8 6 ",
"= O I !.~.1@m ,.2@3@3@3@3@|.s+s+s+~@4@'@{@{@~@~@~@s+s+s+!@s+W+Q+W+!@!@s+s+s+s+s+s+s+~@)@s+s+s+|+r k., * 0 [ T.=+U.R.T E { E 6.b+[ q ",
"^.Z 8 7 8 Y ].= O 7 6 6 6 6 6 s+~@)@4@'@)@~@)@~@~@s+s+!@!@Q+Q+W+X+X+X+X+s+s+b.O &.; s+s+s+7 7 6 y q * . a a c /.]+R.5@6@: : F *+* {.",
"  ].q = - ; ^.| q = = = = = = s+s+)@'@{@{@~@~@~@s+s+X+!@X+Q+W+W+X+X+X+!@!@!@s+s+s+^.| 1 = = = = 1 | , O.{ B N +.^+7@k 3@2@3@k n+^.{.",
"= ].^.].- [ ^.                  s+s+{@{@)@)@s+s+s+s+s+!@X+s+W+W+X+X+X+!@!@X+X+X+!@s+s+s+a a a a 3 a V.z.8@8@S F+v w 7 *.X !.J O Z = ",
"6 m ].Z O &.|                     s+s+s+s+s+!@s+s+s+!@X+X+s+s+W+X+X+X+!@X+X+X+X+X+X+!@s+s+s+{ { u { w.)+k 9@$.-+<+5 m 7 X !.X 3.7 7 ",
"J 8 m &.8 y Z - - - - = = 1 |     n 1 k.t 0@s+s+s+!@!@X+X+X+s+s+s+X+X+X+!@!@X+X+X+X+!@X+X+!@s+s+s+s+v.:@7 0.O = ^.  ].&.7 |+x I X X ",
"X I 7 ` m &.8 6 6 6 6 6 6 ` 1     [ ` 8 2@:+:+s+X+X+!@X+!@s+s+s+s+s+s+X+!@!@!@X+X+X+!@X+X+W+s+)@)@s+s+s+Z Z = ].    ^.[ = = m 6 ~.!.",
"x x 7 r Z &.6 3.~.X X a@d.h.B+.   1 r x ~+~+P X.s+Q+s+s+s+b@b@b@b@~@b@s+s+s+X+!@X+X+X+X+W+s+~@)@)@{@{@'@s+. . . . ) . }     | -.7 x ",
"Z Z m ` O r -.O I y+X |.p+6.g++   | - K 0.I O 9 s+s+Q+s+b@b@b@b@~@~@b@b@s+!@s+!@!@X+!@X+W+s+~@)@{@~@~@s+s+e e e e e b a *     [ 2.Z ",
"    | m 8 y Z &.6 x |.2+c@$ $ $   0 ; m 8 6 &.2.j.s+I+{@s+I+~@~@~@b@b@b@s+!@!@s+s+s+s+s+W+s+s+)@{@'@'@)@s+Q.T T T T 6.b+].|         ",
"{.{.  ; m ` O y Y v+v.( d@] ] #   1 &.a.&.9 y e@r+*@s+~@X+s+~@~@b@b@b@s+!@!@s+b@s+n   s+s+W+s+!@{@)@~@s+^+i f@8+8+g@$.g.r = ^.{.{.{.",
"[ |   } } O+Q _@[.c N h@$ ^ i@N , k.r j@F.5 _@'.7.]+$ s+b@X+s+s+s+s+!@!@!@s+b@b@b@s+, , s+s+`.s+!@s+s+^+U k ~+X ~+~+k@X I ` q [ [ [ ",
"a.Z ^.#+b y.U z.A /.@ I.# N O.~ o H.<.F.j+]@F !@!@!@s+s+s+s+s+!@!@!@!@!@s+b@b@b@b@s++ + + + u +.I.] l@K+:+e+X y+y+y+y+).X x 8 O 8 8 ",
"I O o.@.q.R.R.!+C+>+D D D o ! ' C { ~ a ..+.s+I+I+I+I+I+~@~@b@s+s+s+s+s+b@~@~@~@b@b@s+R.R.E Q.N P.^+7.$.e+J ~.I P P P P 3.I J I P I ",
"J P 8 L.f@m@n@4.E.c c c B.a >   ] +.u u g s+I+I+I+I+I+I+I+~@b@b@~@s+b@b@b@~@~@I+~@b@s+m@m@m@u+r.r.T+G+%.y P I 8 9 9 9 9 ` 0.J 7 y 7 ",
"x 3.P x x x 7 j.(.s.E+E+E+E+].].i@P.Q./ !@I+I+H+I+I+I+I+I+I+~@~@b@s+b@b@~@~@I+H+I+b@s+I ~+I X.2.2.j@8 m m 8 6 m 0 s.R+} T.s m+a+k.Y ",
",.&.&.&.&.K &.$+| 1 &.O O a.a.a.c E.4.2+!@H+H+H+I+I+I+I+~@~@~@b@b@b@s+b@~@I+H+H+I+~@b@s+y+y+*.6 y ` ` r r K m +@} ;.o@5+O.p@*@q@r@/+",
"(.; | n n n n | ].m 6 I I I P P E+n+m.x s+H+H+I+I+I+I+~@I+b@~@b@s+s+s+s+~@H+H+H+H+I+b@s+I I I P O = = O 8 Z 0 * ! @+g C +.P.}+^+F+r.",
"N.=   s@{.s@  q &.y y 6 J I 8 K O y t.8 I s+I+I+I+~@~@I+s+s+s+s+s+~@b@s+b@I+H+H+H+I+~@s+s+s+K K m ].].m t@1 } ;.A D $ ,+@ u u@L+T+v@",
"P r 1 | | ^.^.2.m+j.l. .m+m+= | 1.m.= = 8 I s+I+I+I+I+b@s+I+b@b@~@~@b@b@s+~@I+H+H+I+I+s+b@s+s+| ^.s.} s.s.S+! @++.$ $ C N (+5 j.e+~+",
"X x y ` &.= 0 e.4.L+=+;@R |@[.  w@V+[.| Z &.` s+s+s+b@~@I+b@s+s+s+s+s+s+s+b@~@~@I+I+I+I+~@~@b@s+, `.o@o@O.O.o D # I.^ { (+<.r P X y+",
"X ~.I ~+3.a.[ z 5./ Q.Q.E v 4   Q.]@<+| ; ; E+W.W.W.s+s+s+s+& D +.+.^ $ $ s+s+~@I+I+~@b@b@b@b@s+4 A.}+N N >+D % +.+./.(+5 K x I ~+~.",
"X y+y+y+X P r }.c+7@7@7@7@4.[.  b E.O+K `  .L d o@x@6+6+6+b y@7+,+I.I.$ N b #+s+b@b@b@b@b@b@b@s+[.4.v.;@O.b b o@o@b (+C.&.y r ` a.x ",
"e+I a@a@a@I P x 1.H H 1.H e@[   } (.r P 3.g.L+f N }+}+}+}+}+P.l+d@]+]+% A.4 s.s+~@b@b@b@b@b@s+s+= m.e@l.} } Z+Z+Z+R+(.r 7 ` q | [ ` ",
"$@2+2+z@2+V A@y y y y O O 9 ;     ; -.O O %.'+v U `+K+`+`+`+K+K+K+i B@& /+2.= | s+~@~@b@b@s+~@X+s+y &.1 ].Z &.K &.&.y 0.J 7 &.1 0 C.",
"E ^+^+l@C@J+k.1 1 1 1 [ ; | ^.    ^.| ].; E+s.T.f+_.H _._._.1.1.c._.%.k.,.6 y [ | s+s+s+s+~@)@X+s+s+| ^.1 y 0.P P P P I ~+I D+m Z+(+",
"$ 1+$ !+&@-@,.-.Y -.Y = n {.{.      {.{.{.{.{.| m O O O O 6 3.X y+X 7 y 6 J 0.` = n , s+s+)@s+s+X+s+s+{.].Y O O O O O O m.:@n@< (+{ ",
"^ $ l+*@9@x e+P P P 0.y q ^.^.^.'     ^.^.^.^.n ; 1 1 [ ; o.r I X ~.I P I J I x ` E+;.e s+s+s+s+X+s+s+0 | ; [ [ ; ].].].T.S.E C+D g ",
"M w.v.K.m.0.X ).X I 6 y &.m m m ~ z F.Y -.Y Y Y Y m m = 2 p.<.r 8 O 8 8 8 8 =.O  .@.@++.s+s+s+s+X+s+s+-.Y m = | * 3 `.B.6+/.7+1+$ >+",
"4 3+g.j.2.` 3.X ~.6 m m 6 P P P N q@$.x P 0.0.x x 0.P m+A+x.j+(.1 [ [ [ [ ; [ (.@...% s+s+s+X+X+X+s+x 0.0.P 6 Z } & f N N % ^ h@% b ",
"^.Z O y -.&.O 8 8 -.; Z 0.y+y+!.+ S.}.8 6 8 8 8 8 6 I t+D@R 9.= 1   . ;.`.`.;.`.@+g s+X+X+X+W+W+s+s+8 8 7 I I O  .4.&@E@&@&@&@&@8.b+",
"E+| q &.6 y = 1 1 | ^.2.7 X X X . } E+1 q 1 1 1 1 Z =.I F@d.H 7 9 W.`.e N B B /.% +.s+)@X+{@)@s+s+1 1 1 m 7 J I W G@|.|.|.|.|.|.g.H@",
"n {.^.Z y -.|     > ! < I@j j j                 {.| Y 8 6 7 I I y 0 ;.A 5.: 0@M e + s+s+s+s+s+s+        ; &.6 6 6 6 6 6 6 6 6 6 =.m ",
"      | 1 ; ^.    3 o U.T ( ( (                   ^.].q q Z 8 P ` E+i., v+:@}.2 ! . p s.| 1 [ 0         ^.; q q q q q q q q q - q ].",
"s.                ! b { { e e e                           | Y O m n {.0 Z O &.].                        * . a a a a a a a a a a 3 , ",
"*                 } . ! 3 3 3 3                             ].q ].^.    ].q [ 0                         , O.{ /.B B B B B B B /.e ~ ",
"}                                                                                                       . ..@ # $ $ $ $ $ $ $ # g d "};
