/* XPM */
static char * p_mov_right_1_xpm[] = {
"66 66 346 2",
"  	c #AA834B",
". 	c #A88047",
"+ 	c #A37A3D",
"@ 	c #9F7535",
"# 	c #9F7533",
"$ 	c #9F7534",
"% 	c #A07737",
"& 	c #A57D41",
"* 	c #A9824A",
"= 	c #AD894D",
"- 	c #AC874C",
"; 	c #A98348",
"> 	c #A78046",
", 	c #A77F46",
"' 	c #A88147",
") 	c #AB854A",
"! 	c #AD884D",
"~ 	c #AC864C",
"{ 	c #A98149",
"] 	c #A88148",
"^ 	c #AA824A",
"/ 	c #A88046",
"( 	c #A67E43",
"_ 	c #A2793B",
": 	c #9F7433",
"< 	c #A07635",
"[ 	c #A27B3A",
"} 	c #A47E3D",
"| 	c #A57F3D",
"1 	c #A6803F",
"2 	c #A98446",
"3 	c #A98249",
"4 	c #AB854C",
"5 	c #AC874D",
"6 	c #B29251",
"7 	c #AF8D4D",
"8 	c #A78243",
"9 	c #A2793C",
"0 	c #A2783B",
"a 	c #A57E40",
"b 	c #AC894A",
"c 	c #B19150",
"d 	c #B29351",
"e 	c #AF8C4F",
"f 	c #AB844B",
"g 	c #A77F45",
"h 	c #A47B3F",
"i 	c #A57D42",
"j 	c #A57C41",
"k 	c #A2793A",
"l 	c #A07637",
"m 	c #A17938",
"n 	c #A98543",
"o 	c #AE8E4A",
"p 	c #AF8F4C",
"q 	c #B1914E",
"r 	c #AE8B4E",
"s 	c #AB844C",
"t 	c #A37B3E",
"u 	c #A98148",
"v 	c #AC884D",
"w 	c #B08F4F",
"x 	c #B49753",
"y 	c #B39552",
"z 	c #B08F4D",
"A 	c #A98544",
"B 	c #A57E3D",
"C 	c #A47D3C",
"D 	c #A78241",
"E 	c #AD8C4A",
"F 	c #B29451",
"G 	c #B59853",
"H 	c #B49652",
"I 	c #B39451",
"J 	c #B08F50",
"K 	c #A88146",
"L 	c #A47B3E",
"M 	c #A2783A",
"N 	c #9F7635",
"O 	c #A17738",
"P 	c #A37B3B",
"Q 	c #A68140",
"R 	c #AD8B49",
"S 	c #B29350",
"T 	c #AF8E4F",
"U 	c #A88246",
"V 	c #A37B3D",
"W 	c #A17839",
"X 	c #B19050",
"Y 	c #AE8B4D",
"Z 	c #AE8D4B",
"` 	c #AE8E4B",
" .	c #AE8C4D",
"..	c #AF8D4F",
"+.	c #B69953",
"@.	c #B59953",
"#.	c #B59753",
"$.	c #AE8C4E",
"%.	c #AE8A4E",
"&.	c #B08E4F",
"*.	c #AD8A4C",
"=.	c #A37A3C",
"-.	c #A07636",
";.	c #A88145",
">.	c #AC8949",
",.	c #B49653",
"'.	c #B19151",
").	c #AF8C4E",
"!.	c #A67E44",
"~.	c #A67F44",
"{.	c #B2934F",
"].	c #AF8F4D",
"^.	c #AB874A",
"/.	c #AA8449",
"(.	c #AD8B4B",
"_.	c #B1924E",
":.	c #B29450",
"<.	c #AA824B",
"[.	c #AB864C",
"}.	c #AA844B",
"|.	c #A1783A",
"1.	c #AB864B",
"2.	c #AA8646",
"3.	c #A47D3E",
"4.	c #A57F3F",
"5.	c #A78240",
"6.	c #A88342",
"7.	c #AB8748",
"8.	c #AD8A4D",
"9.	c #B49552",
"0.	c #AB874B",
"a.	c #AB864A",
"b.	c #AC884C",
"c.	c #A78045",
"d.	c #A47D3D",
"e.	c #A78144",
"f.	c #AA834A",
"g.	c #B39452",
"h.	c #B09050",
"i.	c #AD8A4E",
"j.	c #B39450",
"k.	c #B1924F",
"l.	c #AA8549",
"m.	c #AD894B",
"n.	c #B0904E",
"o.	c #AE8C4C",
"p.	c #A88149",
"q.	c #AF8E4E",
"r.	c #AC874B",
"s.	c #B0904F",
"t.	c #A67F43",
"u.	c #A67F42",
"v.	c #AC884B",
"w.	c #9E7433",
"x.	c #A3793D",
"y.	c #AC8A49",
"z.	c #B08E50",
"A.	c #AB8849",
"B.	c #A88443",
"C.	c #A57F40",
"D.	c #A47C3E",
"E.	c #A57E3F",
"F.	c #A68040",
"G.	c #A47C3F",
"H.	c #A57D43",
"I.	c #AB8649",
"J.	c #A78043",
"K.	c #AC874A",
"L.	c #A77F44",
"M.	c #AA844A",
"N.	c #AF8D4E",
"O.	c #B19250",
"P.	c #AF8E4D",
"Q.	c #A98248",
"R.	c #A47C40",
"S.	c #A17838",
"T.	c #A27A3A",
"U.	c #A37C3B",
"V.	c #A68042",
"W.	c #AA854A",
"X.	c #A27A3B",
"Y.	c #AB8749",
"Z.	c #A67E41",
"`.	c #A67D43",
" +	c #A98545",
".+	c #A78242",
"++	c #A57D3F",
"@+	c #A37A3E",
"#+	c #A67E45",
"$+	c #AD894E",
"%+	c #AC894C",
"&+	c #A88144",
"*+	c #A88245",
"=+	c #A57E41",
"-+	c #AA8548",
";+	c #A98447",
">+	c #A17739",
",+	c #9E7432",
"'+	c #A88345",
")+	c #AC8947",
"!+	c #A37B3A",
"~+	c #A88247",
"{+	c #A98247",
"]+	c #A27939",
"^+	c #B49752",
"/+	c #B39652",
"(+	c #A07736",
"_+	c #A27A39",
":+	c #A98347",
"<+	c #A67E42",
"[+	c #A27A3C",
"}+	c #AF8F4B",
"|+	c #AE8B4C",
"1+	c #A98346",
"2+	c #AA8645",
"3+	c #AB8846",
"4+	c #A88244",
"5+	c #B39351",
"6+	c #9E7332",
"7+	c #AC8A47",
"8+	c #AD8A4B",
"9+	c #A57E3E",
"0+	c #A37B3F",
"a+	c #A47C41",
"b+	c #9F7434",
"c+	c #AE8D4A",
"d+	c #A68043",
"e+	c #AD884C",
"f+	c #B1914F",
"g+	c #AD894C",
"h+	c #B39551",
"i+	c #AE8D4D",
"j+	c #A37C3D",
"k+	c #A27938",
"l+	c #A88543",
"m+	c #A78044",
"n+	c #080808",
"o+	c #A17837",
"p+	c #AA834C",
"q+	c #A98645",
"r+	c #AA8448",
"s+	c #AA8745",
"t+	c #AB8946",
"u+	c #AB8947",
"v+	c #B39651",
"w+	c #AA8746",
"x+	c #A78042",
"y+	c #AC884A",
"z+	c #EF7B00",
"A+	c #CE3900",
"B+	c #B29151",
"C+	c #B69954",
"D+	c #AB854B",
"E+	c #A37B3C",
"F+	c #A17939",
"G+	c #EFEF00",
"H+	c #AA8649",
"I+	c #AD8B4A",
"J+	c #A98644",
"K+	c #A88343",
"L+	c #AD8B4C",
"M+	c #A9834A",
"N+	c #AC894B",
"O+	c #6B7B7B",
"P+	c #A98349",
"Q+	c #AB8847",
"R+	c #A98444",
"S+	c #AA8747",
"T+	c #4A4A4A",
"U+	c #292929",
"V+	c #A68041",
"W+	c #AA8547",
"X+	c #AA8349",
"Y+	c #181818",
"Z+	c #AE8B4F",
"`+	c #AC864D",
" @	c #AC8948",
".@	c #A78341",
"+@	c #A88442",
"@@	c #A88341",
"#@	c #AB8848",
"$@	c #BD6B39",
"%@	c #EFDEBD",
"&@	c #AB8948",
"*@	c #A67F41",
"=@	c #A98448",
"-@	c #B1934F",
";@	c #8C1800",
">@	c #A37C3C",
",@	c #A47D3F",
"'@	c #B18F50",
")@	c #B59854",
"!@	c #A78340",
"~@	c #AE8D4C",
"{@	c #AF8E4C",
"]@	c #AE8A4D",
"^@	c #AD8A4A",
"/@	c #AF8E4B",
"(@	c #A98547",
"_@	c #AA8647",
":@	c #DEAD7B",
"<@	c #0018EF",
"[@	c #B1904F",
"}@	c #6B0000",
"|@	c #A6803E",
"1@	c #A6813F",
"2@	c #AA8744",
"3@	c #B0914D",
"4@	c #B0904D",
"5@	c #A5803E",
"6@	c #B0904C",
"7@	c #A67F45",
"8@	c #A37A3B",
"9@	c #9F7634",
"0@	c #A57F3E",
"a@	c #AC8B48",
"b@	c #A47C3D",
"c@	c #A88048",
"d@	c #AD8C49",
"e@	c #AD8D49",
"f@	c #B08F4E",
"g@	c #A57D3E",
"h@	c #B59752",
"i@	c #A27B39",
"j@	c #AC8A48",
"k@	c #AD8B48",
"l@	c #A57C40",
"m@	c #A78142",
"n@	c #A47B40",
"o@	c #AA8845",
"p@	c #A47B41",
"q@	c #B49651",
"r@	c #AB8A47",
"s@	c #B08E4E",
"t@	c #A98643",
"u@	c #B29250",
"v@	c #A78143",
"w@	c #A17937",
"x@	c #A67F40",
"y@	c #AE8D49",
"z@	c #A78140",
"A@	c #AA8846",
"B@	c #B2924F",
"C@	c #AD8B4D",
"D@	c #B39550",
"E@	c #AC8B49",
"                                                                            . + @ # $ $ $ # % & *                                   ",
"= = = - ; > , ' ) ! = ! ! ! ! ! = = = ! ~   { . ] ^                 * ] / > ( _ $ : < [ } | 1 2 - ~           3 . > > ] *     4 5 = ",
"6 6 6 7 8 9 0 a b c d 6 6 6 6 6 6 6 d c e f g h i {                 ] j 9 9 k l $ : m n o p p q c r s       ^ g t _ 9 i u     v w 6 ",
"x x y z A B C D E F x G G G G G H I I d J = K L j u               . ( M $ $ N O k P Q R S H x H d T = v ! ! - U V W _ j ]     ! X y ",
"y y w Y Z ` o Z  ...d G +.@.@.#.6 $.%.r &.X *.U . *               =.M -.# : % h ;.>.Z  ...d ,.'.).T c 6 6 6 c *.U !.~.. *     4 = &.",
"c c $.r X S {.].^./.(.q _._.:.d ).4 4 ! T 6 ..4 <.  4 - [.}.f ~ 5 |.|.W W W + g 1.&.c ..%.w 6 T %.X H H y H H X ~ <.  f ~ ~ f s - r ",
"....J X T *.2.D 3.L 4.5.5.6.7.= 5 4 8.J w $.v s     ! &...~ 5 &.c !.!.!.!.!.g { s ! $.J X ..$.T c 9.#.d &.6 H c 5   }.= w ..5 5 T J ",
"0.a.w X b.c.=.-.$ < O k P d.e.f.  s $.c ..[.      }.8.c X %.r c g.. ] 3   4 [.f }.[.= h.6 ..i.&.d j.k.(.l.m.n.o./.p.  i.c q.a.r.s.w ",
"t.u.^.v.e.9 l : w.-.x.t.2.y.^.  <.  5 %.v   <.      ~ %.T X X ..e t i ] ~ ..&.! ~ r J &...w X z.$.A.B.C.D.E.D F.G.H.{ ~ 8.I.u.J.v.K.",
"t + L.g =.N $ @ -._ ( M.N.O...5 ~ ~ - 5 5 ~ }.3 3     f = n.P.a.Q.@ _ g - J X b.) N.c *.) N.c  .; R.S.N < % W T.U.V.W.5 - U X.9 ~.g ",
"j j h 9 l w.w.-.+ !.] f ! e w X X X X X X w Y.Z.`.{     /. +.+++@+w.|.#+4 $+%+&+u.I.*.*+=+-+*.;+h >+$ ,+$ |.& '+)+Z w X w 7.!+-.0 h ",
"~+{+G.W ]+]+S._ !.*     4 ! &.I H ^+H y H /+E 1 =+Q.  { ( _ (+< < _+3.:+~ 5 /.D.k <+/ R.[+<+K R.% $ $ N >+R.Q.8.O.y ^+G ^+}+Q m W G.",
"|+Y 1+J.2+3+4+~.]     4 %.J &.&.d x 5+J 6 ^+{.E A.M.. j 0 @ 6+,+w.7+E P.J J 8+9+-.|.0+a+j R.@+>+b+,+@ _ & > f.5 e 6 x +.G :.c+2+d+U ",
"X c 8.e+w f+g+f.^   * M. .f+$.- T d &.v ).I h+{.i+M.~.j+_+_+k+k+k+I h+H x #._.l+_+O [+m+Q.n+n+S.n+o+W j ]     s - ..I x G G H f+g+= ",
"&.&.J J J e 5 s p+* g =+.+q+r+  v r ! s 5 $.(.3+.+a V.s+t+t+t+u+u+T X H @.@.v+}+w+x+n+y+ .n+z+n+A+n+( > f.  s ! ..z.&.B+H @.C+,.6 J ",
"= = X c %.D+f.3 3 . h O o+E+m+}.~ ~ 4 }.s }.c.V F+[ B.].h+h+h+I :.- r 6 H G G ^+S Y n+n+n+A+G+n+z+G+n+n+n+* n+*.f+q.r.8.d H H H y c ",
"~ ~ r e 5 3 #+j j h W < |.& H+N.&...= }.<.* , i V.2+I+q.d #.,.B+J &.&.&.X y G C+#.d n+A+A+z+G+A+G+z+n+z+n+n+G+n+J+K+=+U L+&.&.&.&.r ",
"f.M+f.M.f./ t % -.-.-.W i W.&.y x y &.- s 4   f.N+n.P.v.8.O.c = 4 :.O+O+= c H x H H n+z+z+z+z+A+G+n+z+G+n+A+G+n+]+_+T.=+P+4 4 4 4 f ",
"!.j a+j j L O # ,+@ M =+I.&.g.G +.G d w ....= 4 l.Q+R+<+V. +S+T+T+n+n+U+O+O+T+T+U+U+n+n+A+z+z+A+z+G+z+G+z+A+G+n+t V+A W+X+<.<.<.<.] ",
"G.]+W W W O l -.< W i W...I H x #.G x H H y J - K 3.[ T.T.P a U+n+n+n+n+n+n+n+U+n+A+A+z+G+G+z+z+z+G+G+G+A+G+z+n+' *.f+s.v f f s   . ",
" +6.a h h h h R.h u.^...J X X X g.G @.@.+.G g.w 8+s+n n+n+n+n+n+  0+t.y+N.n+n+U+n+n+n+n+n+A+z+z+z+z+G+z+z+G+n+A+n+e 9.y J ....i.4 X+",
"s.n.v.3 { u ] ] . /.7 c ).[.D+- w H #.x #.x H y I S S :.n+n+Y+b.f n+n+n+n+n+n+n+U+n+n+n+n+n+A+z+z+z+z+z+z+z+A+G+n+r I x H H 9.c = = ",
"H ,.'.Z+`+f.> ( H.J.2.Q+'+i j ( I.T X X X X X X X c g.#.,.6 J n+n+n+n+n+n+U+H c U+n+n+U+n+U+n+n+n+z+z+G+G+z+G+z+n+! &.5+#.C+@.y h.X ",
"^+^+y c = ' h W O W !+U.T.k W =.m+1.5 ~ ~ ~ ~ ~ ~ - ..I 6 r r c g.  ! 6 #.G G H n+n+n+n+n+n+n+n+n+z+G+O+U+U+z+A+n+  1.).I ^+#.H y y ",
"c s.`  @*+R.>+< W t F..@+@@@.@B.#@8.5   <.<.<.<.<.  ! &.e ~ 5 ..c   5 ..6 H G n+n+z+A+n+n+$@n+n+z+G+U+O+%@%@U+n+m+i `.*+&@Z s.c c c ",
"- r+*@U.T.W -.W & =@o.q {.-@-@{.j.d ..[.  }.}.}.    }.[.D+  }.[.- n+n+n+n+6 n+Y+z+A+A+n+$@;@$@n+n+n+U+O+O+%@n+P k |.k T.>@V.l.5 5 - ",
", i h D.1 Q ,@=+l.).'@6 ,.)@C+@.+.G 6 e r r r r a.c.`.`.`.!., { n+n+n+n+n+Y+n+U+n+A+n+n+$@;@;@;@;@O+n+n+U+U+n+.@.@.@.@!@D 4+3 <.<.{ ",
"h + ( /.~@{@Y./.7 c N.]@X ^+G G G #.H y g.g.y d ^@E.|.n+n+n+n+n+n+n+Y+Y+Y+Y+Y+n+Y+n+n+n+;@;@;@;@$@%@n+;@n+n+/@_._._._._._.7 -     . ",
"Z.R.. 5 z.&.I.U #@R (@;._@Z n.c 6 6 y G @.G n+n+n+n+n+n+n+n+n+n+n+Y+Y+Y+Y+T+T+O+O+n+n+n+;@;@$@$@:@:@<@;@n+ @[@9.#.H 5+g.#.g.T r %.I.",
"a.] * f - W.=+X.U.C P _ P 4.1+- v = X H @.n+:@:@;@n+n+n+n+n+n+}@}@Y+n+n+U+U+T+T+O+O+Y+Y+n+;@;@;@$@:@%@;@n+N.]@J y 6 r &.y x y I 5+w ",
"v * . g g i |.(+U.|@1@1 1 Q *+* <.}.%.c n+n+n+;@;@;@n+n+n+}@}@n+n+n+Y+U+U+U+T+T+O+O+Y+Y+n+n+n+$@$@:@;@n+w e ~ i.X ..~ ! h.d d d 6 J ",
"4 ] R._ M W -._+2@p 3@4@3@p g+}.<.  [.v n+:@$@;@;@;@n+n+n+n+n+Y+Y+Y+Y+Y+Y+T+U+T+T+O+n+Y+n+> n+n+n+n+n+M.- ~ }.4 5 ~ }.4 5 = = = = 5 ",
"g L.F.5@5@B E+a b d ,.G @.x X %.= = [.}.[.n+n+;@$@n+Y+Y+Y+Y+Y+U+U+T+T+T+T+U+U+T+T+n+n+n+                  3 / , , , g g g g g g g , ",
"_ C.)+p 6@Z -+~+) r d G @.G 9.d d 6 r [.%.X n+n+n+n+n+T+U+U+U+T+T+T+T+U+U+U+U+n+n+n+n+g                 * 7@+ _ _ _ _ _ _ _ _ _ _ 0 ",
"d.B.{@d g.X = }.  [...d 5+I H G G x c r ..n+n+n+$@;@n+n+T+Y+Y+Y+Y+Y+Y+n+n+n+n+n+U+U+n+#+f.~ ! = b.M.' > g h -.: $ m C | | | | d.8@X.",
"I+{@ .%.%.= [.    }.- = = r 6 #.@.G H d n+%@%@:@$@$@;@n+n+T+T+Y+Y+Y+Y+n+}@n+n+Y+U+n+> ] D+).c d [@_@D._ _ O $ w.9@0@a@p }+}+}+y.1+:+",
"7 ~@H+' . . . . / . 3     4 ).d I I I d n+n+;@;@:@$@;@n+n+T+n+n+n+n+;@}@}@}@}@U+n+).! v i.w 5+x h+ @b@|.k P C C | s+n.I I I d w - - ",
"4+F.b@9 9 9 9 9 9 h g *     - 8.%.%.%.r n+$@%@:@:@$@n+n+n+T+Y+n+;@;@;@;@A+}@Y+n+e J 6 6 c T ..d 9.~@K !.c._@E /@` ~@r r r r r = 4 P+",
"k N $ (+T.C C C C 4.1+[.4             4 r n+;@$@$@Y+n+n+n+Y+U+U+U+;@A+;@U+O+n+..8.q.q _.4@y+r+8+].8+Q.c@  %.O.I d &.~     }.  f.] ( ",
"-.w.w._+n d@c+c+e@Z n.w n+n+n+n+<.<.<.  ~ r n+n+Y+n+n+n+Y+Y+Y+Y+U+T+T+T+O+n+n+n+f@u++@.@5.g@V E.Q E.h !.^ 5 %.e r ! s         . j _ ",
"$ < _+D p ^+G ^+^+h@G n+;@A+A+;@n+n+n+n+n+n+n+n+;@;@;@;@n+n+n+n+Y+Y+Y+Y+n+n+}@}@n+n+n+$ (+_+U.C C U.d.e.1.[.}.f.Q.] ] ] ] ] ' `.|.$ ",
": i@J+}+h+G n+n+n+n+n+n+n+z+A+A+z+z+z+A+n+n+}@;@;@;@;@;@;@;@;@;@n+n+n+n+}@A+A+A+A+}@}@n+n+5.j@d@R k@d@{@w r }.g h + + + + + + 0 -.w.",
"_+5.Z h+x n+U+U+Y+n+Y+$@n+A+A+z+z+z+z+z+z+n+}@;@;@;@;@;@A+A+;@;@}@}@}@n+}@}@}@}@}@}@}@}@n+n+h+h@^+^+^+#.H X b.c.=.]+!+U.U.U.P T.W S.",
"Q+I+ .J n+Y+U+n+U+n+U+:@n+A+z+A+A+A+A+A+A+A+A+A+A+A+A+A+;@;@}@}@}@n+;@;@;@;@;@;@;@;@;@;@}@n+n+C+C+C+C+C+G 9.X y+c.4+u+a@a@a@a@w+e.e.",
"[@c r r n+U+Y+n+Y+n+Y+n+n+;@A+;@;@;@A+A+A+A+A+A+A+A+;@}@}@}@}@}@n+n+}@}@}@}@A+A+A+A+A+A+A+;@n+n+n+9.H H 9.9.I &.b.Y O.h+H ^+H O.8.8.",
"&.&.w w n+U+n+n+n+Y+n+n+n+}@;@;@;@;@;@A+A+A+A+;@;@}@}@}@}@n+n+n+n+}@}@}@}@;@;@;@;@}@A+A+A+A+A+;@;@n+n+........J X J z.6 x C+C+,.6 J ",
"= = X n+U+n+Y+Y+n+n+n+n+n+n+n+n+n+;@;@;@A+A+A+A+A+A+}@}@n+n+n+n+n+n+n+n+n+n+n+}@}@}@}@A+A+A+A+A+A+A+;@n+n+P+M.*.f+7 0.8.6 H H H y X ",
"[.[.r n+U+n+Y+U+U+n+,+@ 0 l@K+Q+n+n+n+n+;@A+A+A+}@}@}@n+n+x H c T X J z.c H C+n+n+n+}@;@A+A+A+A+A+A+A+A+;@n+R.m@A .+n+n+*.T ..T T r ",
"f.3 f.n+n+;@Y+U+n+$ N W <+) q.h+^+y w n+n+n+n+n+n+n+n+r.*.f+f+= 4 :.s.= = c H ^+H n+n+;@;@;@A+A+A+A+;@n+n+n+n+n+n+n+n+:@n+4 4 4 4 }.",
"`.n@n@n+n+$@n+n+n+< _ <+^.w y G C+G I J &...= f l.2.K+=+*@A _@/.  o@S+/.4 %...&.&.z.n+n+;@;@;@A+;@;@n+$@n+U+n+T+Y+U+$@n+n+<.<.<.<.] ",
"G.]+W n+n+U+n+$@n+|.<+) T I H ^+#.G #.H ^+9.h.- K 3.[ T.T.P a '   T.,@~+4 ~ ~ D+M.M.M.n+n+n+;@;@;@n+$@Y+U+Y+T+Y+U+U+n+n+! 4 4 s   ' ",
"2.B.*@R.n+n+n+n+h <+I...J w &.h.I G C+C+C+G y w (.3+2@2@2@2@2./.  h J.N+T &.*.U j n@p@a+a+n+n+;@n+n+Y+U+Y+T+Y+U+n+n+n+9.X &.T r 4 /.",
"s.f@r.3 3 X+X+X+P+1.w d &.v 4 - &.h+H q@q@q@H y I :.S S :.S f@-   3 1.w y 9.n.K+k W ]+]+]+]+]+n+n+n+n+Y+U+Y+Y+Y+n+n+I H y y y X = = ",
"J ..5 [.%...T ....J g.x d ..5 f I. @7+7+r@7+E s@J J J J X X e ~     ~ ).X X  .'+a D t@J+t@t@t@J+J+J+n+U+Y+Y+n+n+4 5 ..X X X X J &.&.",
"]@4 }.5 J g.y y y y H ^+H u@r X+<+P _+_+i@>@v@a.5 5 5 5 - ~ 4 }.    }.4 [.~ D+f.W.i+{.S {.{.{.:.:.j.n+n+n+n+n+J - 4 [.[.D+D+D+8.f+X ",
"W.<.<.[.$.X X X X X X s.{@j@2 <+_ $ 6+$ !+.@#@Y ).$.).$.= s <.<.      <.<.<.<.<.4 r X X X X 6 9.G C+G n+n+n+x g.&.= s ] !.i H.e.Q+>.",
"{+}.f 4 ~ - - ~ [.[.[.W.V.P F+O l < $ o++@6@I h+y y y g.J v }.}.}.^     }.}.}.}.s ~ 5 5 - ~ b.w H G #.H y H x H I &.D+!.9 O O F+P C.",
"8+$.).$.r = 4 * , `.H.a+|.b+6+$ >+V C.B.y.s.g.G +.G H 6 J ..r r r ( K v.$.).$.$.$.$.r r = ; c.^.w c X c c c c '.X *.;.@+-.,+w.w@5@2+",
"I I g.g.y 6 %.3 & k W W % < 9@% h ' 8+n.q.8.&.9.G #.6 r r 6 y y y W x@Z I y g.g.I I g.y f+q+D.m+1.5 - - - - ~ - 1.;.=.% < $ < 0@d@{.",
"6 c c d H H X *.2..@!@.@.@.@.@6.1+}.%.X J )...X c c ).~ %.g.C+C+@.+ V.(.c 6 c c c c 6 H v+y@A 7.= 5   . !.`.`.!.`.@+l l _ 3.z@A@P.B+",
"5 5 5 r d x H F B@_._._._._._.n.C@D+4 v ..6 J = 5 5 4 }.8.d G G G . 3 D+5 v 5 5 5 5 %.'.H D@k.S d e M.`.9 W M M |.% -.9 ~.^.P.f@8.5 ",
"      ~ ..6 6 6 6 6 6 6 6 6 6 '.r s <.}.%.J ).4     { > 2 E@o o o                 <.4 $.c 6 d H H J f !.L 3.1 0@V 9 + i 3 ! J &.-   ",
"      }.~ v v v v v v v v v ! v [.      4 5 ~ }.    , t X.C } } }                   }.[.v v %.c y &.D+p.] y+{@(.; > . u f.4 5 - f   ",
"      * . g g g g g g g g g g , ] f.                > h _ _ 9 9 9                           4 $.X r s <.f %.X ..[.                  ",
"      ] R._ |.M M M M M M M |.9 ( *                 3 . > , , , ,                             [.v [.}.    [.v - f                   ",
"      . =.@ # $ $ $ $ $ $ $ # l j 3                                                                                                 "};
