/* XPM */
static char * p_mov_right_3_xpm[] = {
"66 66 346 2",
"  	c #AA834B",
". 	c #A88047",
"+ 	c #A37A3D",
"@ 	c #9F7535",
"# 	c #9F7533",
"$ 	c #9F7534",
"% 	c #A07737",
"& 	c #A57D41",
"* 	c #A9824A",
"= 	c #A88148",
"- 	c #A88046",
"; 	c #A78046",
"> 	c #A67E43",
", 	c #A2793B",
"' 	c #9F7433",
") 	c #A07635",
"! 	c #A27B3A",
"~ 	c #A47E3D",
"{ 	c #A57F3D",
"] 	c #A6803F",
"^ 	c #A98446",
"/ 	c #AC874C",
"( 	c #AC864C",
"_ 	c #A98249",
": 	c #AB854C",
"< 	c #AC874D",
"[ 	c #AD894D",
"} 	c #A98348",
"| 	c #A77F46",
"1 	c #A88147",
"2 	c #AB854A",
"3 	c #AD884D",
"4 	c #A98149",
"5 	c #AA824A",
"6 	c #A57C41",
"7 	c #A2793C",
"8 	c #A2793A",
"9 	c #A07637",
"0 	c #A17938",
"a 	c #A98543",
"b 	c #AE8E4A",
"c 	c #AF8F4C",
"d 	c #B1914E",
"e 	c #B19150",
"f 	c #AE8B4E",
"g 	c #AB844C",
"h 	c #A77F45",
"i 	c #A37B3E",
"j 	c #A57D42",
"k 	c #A98148",
"l 	c #AC884D",
"m 	c #B08F4F",
"n 	c #B29251",
"o 	c #AF8D4D",
"p 	c #A78243",
"q 	c #A2783B",
"r 	c #A57E40",
"s 	c #AC894A",
"t 	c #B29351",
"u 	c #AF8C4F",
"v 	c #AB844B",
"w 	c #A47B3F",
"x 	c #A2783A",
"y 	c #9F7635",
"z 	c #A17738",
"A 	c #A37B3B",
"B 	c #A68140",
"C 	c #AD8B49",
"D 	c #B29350",
"E 	c #B49652",
"F 	c #B49753",
"G 	c #AF8E4F",
"H 	c #A88246",
"I 	c #A37B3D",
"J 	c #A17839",
"K 	c #B19050",
"L 	c #B39552",
"M 	c #B08F4D",
"N 	c #A98544",
"O 	c #A57E3D",
"P 	c #A47D3C",
"Q 	c #A78241",
"R 	c #AD8C4A",
"S 	c #B29451",
"T 	c #B59853",
"U 	c #B39451",
"V 	c #B08F50",
"W 	c #A88146",
"X 	c #A47B3E",
"Y 	c #A37A3C",
"Z 	c #A07636",
"` 	c #A88145",
" .	c #AC8949",
"..	c #AE8D4B",
"+.	c #AE8C4D",
"@.	c #AF8D4F",
"#.	c #B49653",
"$.	c #B19151",
"%.	c #AF8C4E",
"&.	c #AD8A4C",
"*.	c #A67E44",
"=.	c #A67F44",
"-.	c #B08E4F",
";.	c #AE8B4D",
">.	c #AE8E4B",
",.	c #B69953",
"'.	c #B59953",
").	c #B59753",
"!.	c #AE8C4E",
"~.	c #AE8A4E",
"{.	c #A1783A",
"].	c #AB864B",
"^.	c #AA824B",
"/.	c #B2934F",
"(.	c #AF8F4D",
"_.	c #AB874A",
":.	c #AA8449",
"<.	c #AD8B4B",
"[.	c #B1924E",
"}.	c #B29450",
"|.	c #AB864C",
"1.	c #AA844B",
"2.	c #B49552",
"3.	c #AA8646",
"4.	c #A47D3E",
"5.	c #A57F3F",
"6.	c #A78240",
"7.	c #A88342",
"8.	c #AB8748",
"9.	c #AD8A4D",
"0.	c #B09050",
"a.	c #AD8A4E",
"b.	c #B39450",
"c.	c #B1924F",
"d.	c #AA8549",
"e.	c #AD894B",
"f.	c #B0904E",
"g.	c #AE8C4C",
"h.	c #A88149",
"i.	c #AF8E4E",
"j.	c #AB864A",
"k.	c #AC874B",
"l.	c #B0904F",
"m.	c #AB874B",
"n.	c #AC884C",
"o.	c #A78045",
"p.	c #A47D3D",
"q.	c #A78144",
"r.	c #AA834A",
"s.	c #B39452",
"t.	c #B08E50",
"u.	c #AB8849",
"v.	c #A88443",
"w.	c #A57F40",
"x.	c #A47C3E",
"y.	c #A57E3F",
"z.	c #A68040",
"A.	c #A47C3F",
"B.	c #A57D43",
"C.	c #AB8649",
"D.	c #A67F42",
"E.	c #A78043",
"F.	c #AC884B",
"G.	c #AC874A",
"H.	c #A67F43",
"I.	c #9E7433",
"J.	c #A3793D",
"K.	c #AC8A49",
"L.	c #AF8D4E",
"M.	c #A47C40",
"N.	c #A17838",
"O.	c #A27A3A",
"P.	c #A37C3B",
"Q.	c #A68042",
"R.	c #AA854A",
"S.	c #A27A3B",
"T.	c #A77F44",
"U.	c #AA844A",
"V.	c #B19250",
"W.	c #AF8E4D",
"X.	c #A98248",
"Y.	c #A67E45",
"Z.	c #AD894E",
"`.	c #AC894C",
" +	c #A88144",
".+	c #A88245",
"++	c #A57E41",
"@+	c #AA8548",
"#+	c #A98447",
"$+	c #A17739",
"%+	c #9E7432",
"&+	c #A88345",
"*+	c #AC8947",
"=+	c #A37B3A",
"-+	c #AB8749",
";+	c #A67E41",
">+	c #A67D43",
",+	c #A98545",
"'+	c #A78242",
")+	c #A57D3F",
"!+	c #A37A3E",
"~+	c #A27A39",
"{+	c #A98347",
"]+	c #A67E42",
"^+	c #A27A3C",
"/+	c #B49752",
"(+	c #AF8F4B",
"_+	c #A88247",
":+	c #A98247",
"<+	c #A27939",
"[+	c #B39652",
"}+	c #A07736",
"|+	c #AC8A47",
"1+	c #AD8A4B",
"2+	c #A57E3E",
"3+	c #A37B3F",
"4+	c #A47C41",
"5+	c #9F7434",
"6+	c #AE8D4A",
"7+	c #AA8645",
"8+	c #A68043",
"9+	c #AE8B4C",
"0+	c #A98346",
"a+	c #AB8846",
"b+	c #A88244",
"c+	c #B39351",
"d+	c #9E7332",
"e+	c #B39551",
"f+	c #A88543",
"g+	c #A78044",
"h+	c #A57E42",
"i+	c #A17837",
"j+	c #B1914F",
"k+	c #AD894C",
"l+	c #AD884C",
"m+	c #AE8D4D",
"n+	c #A37C3D",
"o+	c #A27938",
"p+	c #B39651",
"q+	c #AA8746",
"r+	c #A78042",
"s+	c #AC884A",
"t+	c #A88344",
"u+	c #B29151",
"v+	c #B69954",
"w+	c #AA834C",
"x+	c #080808",
"y+	c #A98645",
"z+	c #AA8448",
"A+	c #AA8745",
"B+	c #AB8946",
"C+	c #AB8947",
"D+	c #B29250",
"E+	c #A37B3C",
"F+	c #A17939",
"G+	c #A78143",
"H+	c #A98644",
"I+	c #A88343",
"J+	c #AD8B4C",
"K+	c #EF7B00",
"L+	c #AD8B4A",
"M+	c #B1904F",
"N+	c #A98349",
"O+	c #A9834A",
"P+	c #CE3900",
"Q+	c #EFEF00",
"R+	c #AC894B",
"S+	c #AB8747",
"T+	c #A07738",
"U+	c #A68041",
"V+	c #AA8547",
"W+	c #AA8349",
"X+	c #4A4A4A",
"Y+	c #AB8847",
"Z+	c #A98444",
"`+	c #AA8747",
" @	c #A47D3F",
".@	c #6B7B7B",
"+@	c #292929",
"@@	c #A98643",
"#@	c #A98546",
"$@	c #B08F4E",
"%@	c #A57C40",
"&@	c #AE8A4D",
"*@	c #B0914E",
"=@	c #AB854B",
"-@	c #AC8948",
";@	c #A37C3C",
">@	c #A27B39",
",@	c #A6813F",
"'@	c #A78341",
")@	c #A78340",
"!@	c #BD6B39",
"~@	c #EFDEBD",
"{@	c #A07837",
"]@	c #AF8E4B",
"^@	c #AD8A4A",
"/@	c #A68240",
"(@	c #8C1800",
"_@	c #AD8C4B",
":@	c #B0914D",
"<@	c #181818",
"[@	c #DEAD7B",
"}@	c #B19251",
"|@	c #B0904D",
"1@	c #0018EF",
"2@	c #A57F3E",
"3@	c #6B0000",
"4@	c #AA8647",
"5@	c #A47C3D",
"6@	c #B49651",
"7@	c #AE8D4C",
"8@	c #A88048",
"9@	c #A37D3B",
"0@	c #A88442",
"a@	c #A57D3E",
"b@	c #AD8C49",
"c@	c #AD8D49",
"d@	c #A07836",
"e@	c #B59752",
"f@	c #9F7634",
"g@	c #AC8A48",
"h@	c #AD8B48",
"i@	c #AF8E4C",
"j@	c #AC8B48",
"k@	c #AC864D",
"l@	c #A47B40",
"m@	c #A78142",
"n@	c #A67F40",
"o@	c #A57D40",
"p@	c #AE8C4B",
"q@	c #A9824B",
"r@	c #AA8845",
"s@	c #A67F41",
"t@	c #A47B41",
"u@	c #AA8744",
"v@	c #AB8A47",
"w@	c #B08E4E",
"x@	c #AB8848",
"y@	c #B0904C",
"z@	c #A5803E",
"A@	c #AE8D49",
"B@	c #B39550",
"C@	c #B2924F",
"D@	c #AD8B4D",
"E@	c #AC8B49",
"          . + @ # $ $ $ # % & *                                                                                                     ",
"  * = - ; > , $ ' ) ! ~ { ] ^ / (           _ . ; ; = *     : < [ [ [ [ / } ; | 1 2 3 [ 3 3 3 3 3 [ [ [ 3 (   4 . = 5               ",
"  = 6 7 7 8 9 $ ' 0 a b c c d e f g       5 h i , 7 j k     l m n n n n o p 7 q r s e t n n n n n n n t e u v h w j 4               ",
". > x $ $ y z 8 A B C D E F E t G [ l 3 3 / H I J , 6 =     3 K L F F L M N O P Q R S F T T T T T E U U t V [ W X 6 k               ",
"Y x Z # ' % w `  ...+.@.t #.$.%.G e n n n e &.H *.=.. *     : [ -.L L m ;...>.b ..+.@.t T ,.'.'.).n !.~.f -.K &.H . *               ",
"{.{.J J J + h ].-.e @.~.m n G ~.K E E L E E K ( ^.  v ( ( v g / f e e !.f K D /.(._.:.<.d [.[.}.t %.: : 3 G n @.: ^.  : / |.1.v ( < ",
"*.*.*.*.*.h 4 g 3 !.V K @.!.G e 2.).t -.n E e <   1.[ m @.< < G V @.@.V K G &.3.Q 4.X 5.6.6.7.8.[ < : 9.V m !.l g     3 -.@.( < -.e ",
". = _   : |.v 1.|.[ 0.n @.a.-.t b.c.<.d.e.f.g.:.h.  a.e i.j.k.l.m m.j.m K n.o.Y Z $ ) z 8 A p.q.r.  g !.e @.|.      1.9.e K ~.f e s.",
"i j = ( @.-.3 ( f V -.@.m K t.!.u.v.w.x.y.Q z.A.B.4 ( 9.C.D.E.F.G.H.D._.F.q.7 9 ' I.Z J.H.3.K._.  ^.  < ~.l   ^.      ( ~.G K K @.u ",
"@ , h / V K n.2 L.e &.2 L.e +.} M.N.y ) % J O.P.Q.R.< / H S.7 =.h i + T.h Y y $ @ Z , > U.L.V.@.< ( ( / < < ( 1._ _     v [ f.W.j.X.",
"I.{.Y.: Z.`. +D.C.&..+++@+&.#+w $+$ %+$ {.& &+*+..m K m 8.=+Z q w 6 6 w 7 9 I.I.Z + *.= v 3 u m K K K K K K m -+;+>+4     :.,+'+)+!+",
"~+4.{+( < :.x.8 ]+- M.^+]+W M.% $ $ y $+M.X.9.V.L /+T /+(+B 0 J A._+:+A.J <+<+N., *.*     : 3 -.U E /+E L E [+R ] ++X.  4 > , }+) ) ",
"|+R W.V V 1+2+Z {.3+4+6 M.!+$+5+%+@ , & ; r.< u n F ,.T }.6+7+8+H 9+;.0+E.7+a+b+=.=     : ~.V -.-.t F c+V n /+/.R u.U.. 6 q @ d+%+I.",
"U e+E F ).[.f+~+z ^+g+X.h+8 N.0 i+J 6 =     g / @.U F T T E j+k+[ K e 9.l+m j+k+r.5   * U.+.j+!./ G t -.l %.U e+/.m+U.=.n+~+~+o+o+o+",
"G K E '.'.p+(+q+r+E.s++.@+D.t+q+t+> ; r.  g 3 @.t.-.u+E '.v+#.n V -.-.V V V u < g w+* h ++x+y+z+  l f 3 g < !.<.a+'+r Q.A+B+B+B+C+C+",
"/ f n E T T /+D ;./ -.D+!.k.L.j++.U.*   * r.&.j+i.k.9.t E E E L e [ [ K e ~.x+x+_ _ . w x+x+E+g+1.( ( : 1.g 1.o.I F+! v.(.e+e+e+U }.",
"-.-.-.K L T v+).t V -.-.m V V -.Z.: w+  . ]+G+H+I+++H J+-.-.-.-.f ( ( f u < _ x+x+6 w x+x+K+x+x+x+x+@.[ 1.^.* | j Q.7+L+i.t ).#.u+V ",
"}.M+9.[ e E F E E t f 3 -.n @.(   * * 4 j {.i+<+~+O.++N+: : : : v r.O+r.x+x+x+x+K+x+x+P+Q+K+x+K+Q+K+x+-./ g :   r.R+f.W.F.9.V.e [ : ",
"B+S+:.: ~.-.m m V @.l : ~.@.Z.  | j & 6 , Z T+i U+N V+W+^.^.^.^.= *.6 X+x+x+x+P+K+P+P+K+Q+K+P+Q+K+x+T t m @.@.[ : d.Y+Z+]+Q.,+`+U.  ",
"O. @_+: ( / ( |.|.:   r.U.1.1.k & J 9 % Z % !+1 &.j+l.l v v g   .@.@.@x+x+x+x+x+P+P+K+Q+K+K+Q+Q+x+K+x+x+x+E L V / W 4.! O.O.A r 1   ",
"3+H.s+L.@.~.|.^.^.* h j 6 6 j M., $ %+$ z i *.r.u x+x+x+x+.@.@.@x+x+x+x+w +@x+x+P+K+K+Q+K+Q+Q+K+K+Q+K+x+'.,.T s.m 1+A+a @@@@@@#@W+  ",
"k m.M+2.E n f g   _ & 8 J J J $+% Z @ % A.1 r.1.f U x+x+x+x+x+x+[ X+X+X+x+x+P+x+P+Q+Q+K+K+Q+K+K+Q+Q+Q+K+x+x+F E L U D D }.}./.$@n.v ",
"  [ t T '.E e f ( r.^ 7.w.X !+i w w w %@#+&@Z.: 3 -.c+).v+X+X+X+x+x+x+x+x+P+x+K+K+P+K+K+K+K+K+Q+K+K+Q+x+x+K K K K K e s.).#.n V @.u ",
"  3 n ).T T E n ~./ L.*@&.N+= = = 1 . X.&.e L.=@  ].X+X+x+x+x+x+x+/+/+x+x+x++@+@+@x+K+P+K+K+K+K+K+Q+K+x+( ( ( ( ( ( / @.U n f f e s.",
"  < @.n E T './+e -.U F n u < 1.= T.> T.#@-@3.g+j x+x+x+x+l.e e e e l.>.x+x+x++@+@x+x+x+K+Q+K+Q+Q+K+P+Q+x+x+^.^.^.^.  3 -.u ( < @.e ",
"r.  =@&@n ).T F 2.L E F E t f r.j , z J O.P.A 8 {.8 O.;@Q.d.< < / / x+x+x+x+x+x+x+x+K+Q+Q++@+@+@+@K+Q+P+x+  1.1.1.    1.|.=@  1.|./ ",
"> >+>+H 9+K $.$.u+u+$.$.n l.F.=.7 ) I.$ >@,@'@'@'@'@)@Q b+_ ^.^.x+x+x+x+x+x+K+!@x+x+x+K++@+@.@~@~@+@P+x+u f f f f j.o.>+>+>+*.| 4 ^.",
"8 x x A.{+/ l / / / / / < ].H.8 Z $ # {@'@]@[.[.[.[.[.x+x+x+x+x+X+X+.@x++@x+!@!@x+K+K+x+x+x+.@.@~@.@x+E L s.s.L t ^@y.{.{.{.8 M.1   ",
"6./@6.v.s+n.} =.*.*.*.*.*.B.7 @ I.y >@6.-@M+2.x+x+x+x+x+x+x++@+@+@X+X+.@x+x+!@x+!@!@x+(@.@x+x++@.@+@x+L T '.T E D+_@f+/@/@/@6.Z+F.f ",
":@:@:@[.D (.I+, {.{.{.{.x J % @ ' i+7.x+x+x+x+x+X+X++@+@+@+@+@+@+@+@X+.@<@<@x+(@(@(@[@[@~@x+(@!@x+x+[ K E '.).}@f ;.|@:@:@:@:@[.D U ",
"n n n t t i.t++ 7 7 7 7 7 7 7 7 , X x+(@[@!@(@x+x+x+X+<@<@<@<@<@+@+@X+X+<@<@<@x+(@!@(@!@~@1@!@(@x+^.1.~.e t e !.|.[ K t n n n n n n ",
"[ [ [ [ [ / N+; | ; ; ; ; ; ; ; ; x+(@[@~@~@[@(@x+x+x+X++@+@<@x+<@+@X+x+x+<@<@x+x+(@(@(@[@~@~@x+1.^.  |.l [ 3 ( 1.: l [ [ [ [ [ [ [ ",
"      * . h h h h ; _             x+x+x+(@(@!@(@(@(@x+X++@+@<@x+<@+@x+x+<@<@x+x+x+x+!@!@!@[@x+x+~.[ [ |.1.|.3 / 1.                  ",
"      = 4+, , , , i h                 x+!@~@~@x+x+<@x+X++@x+x+x+x+x++@+@x+x+x+x+x+2 <@<@<@<@<@2.t t n f |.~.K @.:                   ",
"  g < j.p 2@{ ~ A + Y.r.( 3 [ n.U.1 ; h x+x+<@+@x+x+x+x+x+x+3@3@3@x+<@+@+@.@+@x+1.  |.@.t c+U E T T F e f @.e V ~.3 3 3 3 [ [ < :   ",
"  / -.e |@(+(+R V+; = =@%.e t M+4@x., , z $ I.x+x+x+(@3@3@3@3@3@3@x+x++@.@+@x+x+    1./ [ [ f n ).'.T E t -.f @.e n n n n n n -.<   ",
"  < m U /+/+L V.%.3 l a.m c+F e+-@5@{.8 A P <@<@(@(@3@3@3@3@3@3@(@(@+@.@+@x+x+. . - . _     : %.t U U U t m ~.@.n 2.).T T 6@c.g.z+. ",
"  : 3 G s.E K u V n n e G @.t 2.7@W *.o.4@x+x+<@x+x+x+x+x+x+x+(@(@(@.@(@x+x+7 7 7 7 w h *     / 9.~.~.~.f -.K m %.K E v+T [.A+5.n++ ",
"  v ( f e n @.9.i.d [.|@s+z+1+(.1+X.8@  ~.x+x+x+<@<@<@<@<@<@+@x+(@3@.@x+}+O.P P P P 5.0+|.:             : f e V ~.@.n U [.|+9@$ $ $ ",
"  < @.0.@.u V $@C+0@'@6.a@I y.B y.w *.5 x+3@3@3@3@3@(@(@x+x++@+@x+.@x+x+~+a b@6+6+c@..f.m [ 1.^.^.^.^.^.  ( f -.K V !.s+v.~ d@' ' # ",
"= j.m M+F.2 7@>.6.}+$ }+~+P.P P P.p.q.].x+3@3@3@3@3@P+P+K+K+P+x+x+x+x+~+Q c /+T /+/+e@T E -.l / / / / :   _ _ R+M 7@:.j J f@$ ) T+J ",
"i H._.F.g+ @B B >@$ d+}+6.g@b@C h@b@i@m x+3@3@3@3@(@P+P+K+K+K+K+P+P+x+x+(+e+T v+v+v+v+,.T U e K e e 0.~.1.Y.w y.Q z.X {.@ I.# J M.> ",
"y , > h Y Z ) ) $ y i+{ b@e+x+x+x+x+).E K x+3@3@3@(@(@P+P+K+K+K+K+K+P+P+<@F ).E L L L L 2.E F E L E E K n.` p.P.P.=+F+$+z z z i ; 5 ",
"' Z q q 9 I.d+d+d+i+6.b@/.T x+x+x+x+x+x+2.x+x+3@3@3@(@(@(@P+K+K+K+K+P+P+P+<@E e u u u u -.s.F t V t F L e W.b@j@g@3.E.j j j B.h 4   ",
"T+N.O.! ~+~+~+~+~+O g@D /+).x+x++@x+x+x+x+x+x+x+x+3@3@(@(@(@(@P+P+P+P+P+P+<@n f v r.N+_ R.o j+9+j.!.U 2.L U U U t i.].r.=@=@=@=@|.|.",
"j E.3.|+|+|+|+|+|+K.g.m s.x+x++@+@x++@+@x+3@3@3@3@x+x+x+(@(@(@(@P+(@P+P+P+<@f k@_ *.l@3+M.m@0@n@o@{+;.@.@.@.@.G @.Z.: < @.K K 0.0.0.",
"=@k+l.U p+6@6@6@E S !.3 K x+x++@x+x++@!@x+3@3@3@3@(@3@P+x+x+(@(@(@(@P+P+(@<@v * ; !+9 y Z N.<+~+E+q.].( : g g g g : |.f n E E E L L ",
"K V t.e E v+v+v+v+E %./ V x+x++@+@x+x+!@x+3@3@3@3@3@(@(@P+P+(@(@(@(@(@x+x+< _ *.X z $ %+@ q %@I+Y+p@L.[   q@^.q@  l @.V V n F E e G ",
"}.l.[ [ e E /+E /+U f / -.x+x+x++@+@x+x+x+x+3@3@3@3@(@(@(@P+P+x+x+x+x+r.r.O+; !+Z $ $ y J ]+2 i.e+/+L m < : : 1.1.9.j+i.k.&.j+j+[ : ",
"r@`+:.: ~.@.-.-.t.@.l : a.x+x+x+x++@x+y x+x+x+x+x+x+x+x+x+x+x+3@3@x+l@l@M.M.i z # I.) , ]+_.m L T v+T U V -.@.[ v d.3.I+++s@N 4@:.  ",
"O. @_+: ( ( =@U.U.U.r.* r.x+x++@+@+@x+$ $ % w 1 x+3@3@3@3@3@3@(@x+A.<+J J $+z % Z Z {.]+2 G U E /+).T ).E /+2.0./ W 4.! O.O.A r 1   ",
"w E.R+G -.&.H 6 l@t@4+4+4+x+x+(@!@(@x+$ J w Y.x+3@3@3@3@3@(@(@x+:.3.v.s@M.w w l@l@w ]+C.@.V m -.0.U T v+v+v+T L m <.a+u@u@u@u@3.:.  ",
"_ ].m L 2.f.I+8 J <+<+<+<+<+x+x+x+x+}+% A.1 x+x+x+3@3@3@(@x+x+[ [ l.$@k._ _ W+W+W+N+].m t -.l : / -.e+E 6@6@6@E L U }.D D }.D $@/   ",
"  ( %.K K +.&+r Q @@H+@@@@@@H+H+H+a U+& {+x+x+!@x+x+(@(@x+K V -.-.V @.< |.~.@.G @.@.V s.F t @.< v C.-@|+|+v@|+R w@V V V V K K u (   ",
"  1.: |.( =@r.R.m+/.D /././.}.}.b./.+.j.x+x+x+x+!@!@x+x+=@=@9.j+K &@: 1.< V s.L L L L E /+E D+f W+]+A ~+~+>@;@G+j.< < < < / ( : 1.  ",
"    ^.^.^.^.^.: f K K K K n 2.T v+T t V x+x+x+x+X++@+@X+x+B.q.Y+ .R.^.^.|.!.K K K K K K l.i@g@^ ]+, $ d+$ =+'@x@;.%.!.%.!.[ g ^.^.  ",
"5     1.1.1.1.g ( < < / ( n.m E T ).E L E x+x+x+x++@+@x+x+x+F+A w.:+1.v : ( / / ( |.|.|.R.Q.A F+z 9 ) $ i+0@y@U e+L L L s.V l 1.1.1.",
"> W F.!.%.!.!.!.!.f f [ } o._.m e K e e e e x++@+@X+X++@+@+@x+z@7+1+!.%.!.f [ : * | >+B.4+{.5+d+$ $+I w.v.K.l.s.T ,.T E n V @.f f f ",
"J n@..U L s.s.U U s.L j+y+x.g+].< / / / / ( / x++@X+X+!@[@+@!@x+/.U U s.s.L n ~._ & 8 J J % ) f@% w 1 1+f.i.9.-.2.T ).n f f n L L L ",
"+ Q.<.e n e e e e n E p+A@N 8.[ <   . *.>+>+*.>+x+x+x+x+x+x+x+x+u+n e e t E E K &.3.'@)@'@'@'@'@7.0+1.~.K V %.@.K e e %.( ~.s.v+v+'.",
". _ =@< l < < < < ~.$.E B@c.D t u U.>+7 J x x {.% Z 7 =._.W.$@9.< < < < f t F E S C@[.[.[.[.[.[.f.D@=@: l @.n V [ < < : 1.9.t T T T ",
"                ^.: !.e n t E E V v *.X 4.] 2@I 7 + j _ 3 V -./         ( @.n n n n n n n n n n $.f g ^.1.~.V %.:     4 ; ^ E@b b b ",
"                  1.|.l l ~.e L -.=@h.= s+i@<.} ; . k r.: < / v         1.( l l l l l l l l l 3 l |.      : < ( 1.    | i S.P ~ ~ ~ ",
"                          : !.K f g ^.v ~.K @.|.                        * . h h h h h h h h h h | = r.                ; w , , 7 7 7 ",
"                            |.l |.1.    |.l / v                         = M., {.x x x x x x x {.7 > *                 _ . ; | | | | ",
"                                                                        . Y @ # $ $ $ $ $ $ $ # 9 6 _                               "};
