/* XPM */
static char * p_move_up_right_0_xpm[] = {
"66 66 346 2",
"  	c #A27A3A",
". 	c #A47D3F",
"+ 	c #A88247",
"@ 	c #AB854C",
"# 	c #AC864C",
"$ 	c #AB854B",
"% 	c #AA844A",
"& 	c #AA834A",
"* 	c #A9824A",
"= 	c #A98348",
"- 	c #A57D41",
"; 	c #A17738",
"> 	c #A07636",
", 	c #A07635",
"' 	c #9F7534",
") 	c #A07737",
"! 	c #A47B3F",
"~ 	c #A88147",
"{ 	c #AD8A4D",
"] 	c #B1924F",
"^ 	c #B0904F",
"/ 	c #AD884D",
"( 	c #AB844C",
"_ 	c #AA834B",
": 	c #A47C3F",
"< 	c #A27939",
"[ 	c #A17839",
"} 	c #A17739",
"| 	c #A1783A",
"1 	c #A67E42",
"2 	c #AB854A",
"3 	c #AF8E4F",
"4 	c #B39451",
"5 	c #B49652",
"6 	c #B49752",
"7 	c #B59753",
"8 	c #B59853",
"9 	c #B49552",
"0 	c #B09050",
"a 	c #AC874C",
"b 	c #A88146",
"c 	c #A47D3E",
"d 	c #A27B3A",
"e 	c #A37B3B",
"f 	c #A57E40",
"g 	c #A78043",
"h 	c #AC894B",
"i 	c #B08E4F",
"j 	c #AD8A4C",
"k 	c #A88246",
"l 	c #A57C41",
"m 	c #A47B40",
"n 	c #A47B41",
"o 	c #A47C41",
"p 	c #A1773A",
"q 	c #9F7434",
"r 	c #9E7432",
"s 	c #9E7433",
"t 	c #A67E45",
"u 	c #AF8C4F",
"v 	c #B19050",
"w 	c #AE8B4E",
"x 	c #AA8449",
"y 	c #AA8646",
"z 	c #A88443",
"A 	c #A67F41",
"B 	c #A47C40",
"C 	c #AB8649",
"D 	c #AF8D4F",
"E 	c #B08F50",
"F 	c #B08F4F",
"G 	c #B69954",
"H 	c #B39552",
"I 	c #AD8B4B",
"J 	c #AB8846",
"K 	c #AA8744",
"L 	c #A98249",
"M 	c #AB864B",
"N 	c #B0904E",
"O 	c #A88343",
"P 	c #A2793A",
"Q 	c #A17838",
"R 	c #A17837",
"S 	c #A07836",
"T 	c #A07736",
"U 	c #AA844B",
"V 	c #AD894D",
"W 	c #B08F4E",
"X 	c #AC874B",
"Y 	c #AA8349",
"Z 	c #A98349",
"` 	c #B29351",
" .	c #AC884D",
"..	c #B39551",
"+.	c #B49651",
"@.	c #B29450",
"#.	c #B29350",
"$.	c #AF8C4E",
"%.	c #AE8C4D",
"&.	c #A88345",
"*.	c #A78241",
"=.	c #A98643",
"-.	c #A98644",
";.	c #A98543",
">.	c #A68041",
",.	c #A98347",
"'.	c #AC874D",
").	c #AB864C",
"!.	c #AE8A4E",
"~.	c #B39452",
"{.	c #B49753",
"].	c #AB844B",
"^.	c #AC8948",
"/.	c #AC8A47",
"(.	c #AB8A47",
"_.	c #AD8C4A",
":.	c #B08E4E",
"<.	c #AA854A",
"[.	c #AE8D4D",
"}.	c #B2934F",
"|.	c #B39450",
"1.	c #AB864A",
"2.	c #AE8B4D",
"3.	c #B29251",
"4.	c #B1914F",
"5.	c #AE8A4D",
"6.	c #B29250",
"7.	c #A27A39",
"8.	c #A27B39",
"9.	c #A37C3C",
"0.	c #A78143",
"a.	c #AA824B",
"b.	c #A88148",
"c.	c #A67E44",
"d.	c #A57D42",
"e.	c #A57D43",
"f.	c #A78144",
"g.	c #AB8847",
"h.	c #AC8949",
"i.	c #AE8C4E",
"j.	c #AF8E4C",
"k.	c #AC8A48",
"l.	c #A98446",
"m.	c #A2793B",
"n.	c #9E7332",
"o.	c #A37B3A",
"p.	c #A78341",
"q.	c #AB8848",
"r.	c #AA824A",
"s.	c #AC884C",
"t.	c #A2793C",
"u.	c #A17939",
"v.	c #A57F40",
"w.	c #A98247",
"x.	c #080808",
"y.	c #A68042",
"z.	c #A07637",
"A.	c #A88442",
"B.	c #B0904C",
"C.	c #A67E43",
"D.	c #AC884B",
"E.	c #A78045",
"F.	c #AB874A",
"G.	c #B19150",
"H.	c #B19151",
"I.	c #A88145",
"J.	c #A37A3E",
"K.	c #A17937",
"L.	c #A5803E",
"M.	c #AA8645",
"N.	c #CE3900",
"O.	c #EF7B00",
"P.	c #A67D43",
"Q.	c #A37B3D",
"R.	c #AC8A49",
"S.	c #B69953",
"T.	c #A67F40",
"U.	c #AE8D4B",
"V.	c #A98645",
"W.	c #A47C3E",
"X.	c #A78044",
"Y.	c #A37A3C",
"Z.	c #A57F3E",
"`.	c #AD8C49",
" +	c #EFEF00",
".+	c #9F7634",
"++	c #AD8A4B",
"@+	c #AF8E4E",
"#+	c #A37A3D",
"$+	c #B39651",
"%+	c #AE8D49",
"&+	c #A98544",
"*+	c #AB8748",
"=+	c #A88047",
"-+	c #A88342",
";+	c #A98346",
">+	c #B59953",
",+	c #B39550",
"'+	c #A2783A",
")+	c #292929",
"!+	c #BD6B39",
"~+	c #DEAD7B",
"{+	c #8C1800",
"]+	c #A47B3E",
"^+	c #A6803F",
"/+	c #181818",
"(+	c #4A4A4A",
"_+	c #EFDEBD",
":+	c #A78046",
"<+	c #AC8B49",
"[+	c #AE8E4A",
"}+	c #A88149",
"|+	c #AC884A",
"1+	c #A98148",
"2+	c #6B7B7B",
"3+	c #A37B3E",
"4+	c #A27A3B",
"5+	c #A47D3C",
"6+	c #A47E3D",
"7+	c #A77F46",
"8+	c #9F7535",
"9+	c #9F7533",
"0+	c #A88046",
"a+	c #9F7433",
"b+	c #A57F3D",
"c+	c #A98149",
"d+	c #A17938",
"e+	c #AF8F4C",
"f+	c #B1914E",
"g+	c #A77F45",
"h+	c #9F7635",
"i+	c #A68140",
"j+	c #AD8B49",
"k+	c #0018EF",
"l+	c #B49653",
"m+	c #B1924E",
"n+	c #A57F3F",
"o+	c #A78240",
"p+	c #AD8A4E",
"q+	c #AA8549",
"r+	c #AD894B",
"s+	c #A47D3D",
"t+	c #B08E50",
"u+	c #AB8849",
"v+	c #A3793D",
"w+	c #A67F43",
"x+	c #AF8D4E",
"y+	c #B19250",
"z+	c #AF8E4D",
"A+	c #A98248",
"B+	c #AD894E",
"C+	c #AC894C",
"D+	c #A88144",
"E+	c #A67F42",
"F+	c #A88245",
"G+	c #A57E41",
"H+	c #AA8548",
"I+	c #A98447",
"J+	c #AB8749",
"K+	c #A67E41",
"L+	c #A98545",
"M+	c #A78242",
"N+	c #A57D3F",
"O+	c #A27A3C",
"P+	c #B39652",
"Q+	c #A57E3E",
"R+	c #A37B3F",
"S+	c #A88244",
"T+	c #A67F44",
"U+	c #B39351",
"V+	c #A2783B",
"W+	c #A88543",
"X+	c #A57E42",
"Y+	c #AD884C",
"Z+	c #AD894C",
"`+	c #A37C3D",
" @	c #A27938",
".@	c #AF8F4B",
"+@	c #AA8746",
"@@	c #A78042",
"#@	c #A88344",
"$@	c #AA834C",
"%@	c #AA8448",
"&@	c #AA8745",
"*@	c #AB8946",
"=@	c #AB8947",
"-@	c #A37B3C",
";@	c #AF8F4D",
">@	c #AA8649",
",@	c #AD8B4A",
"'@	c #B29151",
")@	c #B1904F",
"!@	c #AB8747",
"~@	c #A98444",
"{@	c #AA8747",
"]@	c #A98546",
"^@	c #AB874B",
"/@	c #AF8D4D",
"(@	c #6B0000",
"_@	c #A57C40",
":@	c #A37C3B",
"<@	c #A77F44",
"[@	c #A88341",
"}@	c #B1934F",
"|@	c #AE8B4C",
"1@	c #A6813F",
"2@	c #B59854",
"3@	c #A07837",
"4@	c #AF8E4B",
"5@	c #AD8A4A",
"6@	c #A57E3F",
"7@	c #A68240",
"8@	c #AA8647",
"9@	c #AD8C4B",
"0@	c #B0914D",
"a@	c #AE8E4B",
"b@	c #B19251",
"c@	c #B0904D",
"d@	c #A68040",
"e@	c #A57E3D",
"f@	c #A67F45",
"g@	c #AC8947",
"h@	c #A78243",
"i@	c #A37A3B",
"j@	c #AA8547",
"k@	c #A47C3D",
"l@	c #AE8D4C",
"m@	c #AE8C4C",
"n@	c #A88048",
"o@	c #A37D3B",
"p@	c #A57D3E",
"q@	c #AE8D4A",
"r@	c #B08F4D",
"s@	c #A07738",
"t@	c #AD8B48",
"u@	c #B59752",
"v@	c #AC8B48",
"w@	c #AC864D",
"x@	c #A78142",
"y@	c #A57D40",
"z@	c #B29451",
"A@	c #AE8C4F",
"B@	c #AE8C4B",
"C@	c #A9824B",
"D@	c #A9834A",
"E@	c #AA8845",
"  . + @ # # $ % % % & * & = - ; > > , ' ' ) ! ~ { ] ^ / @ @ ( _ ~ : < [ [ } ; ) > > | 1 2 3 4 5 6 7 8 7 5 6 9 0 a b c d     e f ~ _ ",
"! g h 3 i j k l m n o o o ! p q r s s ' [ ! t & u 9 9 v i 3 w @ x y z A B ! ! m m ! 1 C D E F i 0 4 8 G G G 8 H F I J K K K K y x _ ",
"L M F H 9 N O P [ < < < < < Q R S T T ) : ~ & U w 4 5 H H H v V V ^ W X L L Y Y Y Z M F ` i  .@ a i ..5 +.+.+.5 H 4 @.#.#.@.#.W a _ ",
"_ # $.v v %.&.f *.=.-.=.=.=.-.-.-.;.>.- ,.{ V @ '.D v v v v E i i E D '.).!.D 3 D D E ~.{.` D '.].C ^././.(./._.:.E E E E v v u # _ ",
"_ U @ ).# $ & <.[.}.#.}.}.}.@.@.|.}.%.1.2.3.E a @ ).).$ $ $ { 4.v 5.@ U '.E ~.H H H H 5 6 5 6.w Y 1 e 7.7.8.9.0.1.'.'.'.'.a # @ U _ ",
"_ _ a.a.a.a.a.@ w v v v v 3.9 8 G 8 ` E 3.{.~.i V ( b.c.d.e.f.g.h.<.a.a.).i.v v v v v v ^ j.k.l.1 m.' n.' o.p.q.2.$.i.$.i.V ( a.a._ ",
"r._ _ U U U U ( # '.'.a # s.F 5 8 7 5 H 5 {.5 4 i $ c.t.; ; u.e v.w.x.x.@ # a a x.).).).<.y.e u.; z., ' R A.B.4 ..H H H ~.E  .U U U ",
"C.b D.i.$.i.i.i.i.w w V = E.F.F G.v G.G.G.G.H.v j I.J.> r s K.L.M.x.N.x.i.x.x.x.O.x.P.e.o | q n.' } Q.v.z R.^ ~.8 S.8 5 3.E D w w w ",
"[ T.U.4 H ~.~.4 4 ~.H 4.V.W.X.M '.a a a a # a M I.Y.x.x.x., Z.`.x.x.O. +x.N.x.x. +x.x.[ [ ) , .+) ! ~ ++N @+{ i 9 8 7 3.w w 3.H H H ",
"#+y.I G.3.G.G.G.G.3.5 $+%+&+*+V '._ =+c.P.P.c.P.J.z.x.N.O.x.x.x.N.x.O. +O.N.x.x. +x.O.x.p.p.p.p.-+;+U !.x.x.x.x.v G.G.$.# !.~.G G >+",
"=+L $ '. .'.'.'.'.!.H.5 ,+] #.` u % P.t.[ '+'+| ) > )+)+O. + +O.O.N.O. + +O.O.O. +O. +N.x.x.x.x.x.x.x.x.!+~+!+{+x.x.x.@ U { ` 8 8 8 ",
"_ _ _ _ _ _ _ _ a.@ i.G.3.` 5 5 E ].c.]+c ^+Z.Q.t.#+d.x.N.O. + + +O. + + +O. + +O. +O.x./+/+)+)+)+)+(+)+x.!+_+_+~+!+{+x.:+l.<+[+[+[+",
"_ _ _ _ _ _ _ _ _ U ). . .!.G.H i $ }+b.|+j.I = :+=+1+)+N.O.O. + +O. + + +O. + +O.O.)+O./+)+/+/+(+2+2+(+x.{+~+~+{+x.x.x.3+4+5+6+6+6+",
"_ _ _ _ _ _ _ _ _ _ _ _ _ @ i.v w ( a.].!.v D )._ _ (+/+O. + +O.O. +O. + +O. + +O.x.O.x.)+/+x.x./+)+)+(+)+x.{+~+!+x._ :+! m.m.t.t.t.",
"_ _ _ _ _ _ _ _ _ _ _ _ _ _ ). .).U _ _ ). .a ]._ _ )+O. +O./+/+ +O.O. +O. +O.O.N.O. +O.x.x.x.x./+x.x.x.x.x.x.x.x._ _ L =+:+7+7+7+7+",
"_ _ _ _ _ _ _ _ _ _ _ _ _ _ _ _ _ _ _ _ _ _ _ _ _ _ _ /+N./+(+/+ +N./+/+/+/+/+/+/+N.x.N.x.x.x.x.x.l L _ _ _ _ _ _ _ _ _ _ _ _ _ _ _ ",
"_ _ _ _ _ =+#+8+9+' ' ' 9+) - * _ _ _ _ _ _ _ _ _ _ /+O./+/+(+/+O./+(+2+2+_+_+2+(+/+O.x.x.x._ _ _ _ _ _ _ _ _ _ _ _ _ _ _ _ _ _ _ _ ",
"_ * b.0+:+C.m.' a+, d 6+b+^+l.a # _ _ _ _ _ L =+:+(+/+N./+{+/+/+/+/+(+2+2+_+_+2+(+/+ +x./ / / / / V V V / # _ c+=+b.r._ _ _ _ _ _ _ ",
"_ b.l t.t.P z.' a+d+;.[+e+e+f+G.w ( _ _ _ r.g+3+m.)+/+)+/+!+)+N.{+!+/+/+/+/+/+/+/+/+O.x.3.3.3.3.3.3.3.` G.u ].g+! d.c+_ _ _ _ _ _ _ ",
"=+C.'+' ' h+; P e i+j+#.5 {.5 ` 3 V  ./ / a k Q./+/+/+(+/+{+)+O.!+!+2+k+!+!+2+k+x._.x.{.8 8 8 8 8 5 4 4 ` E V b ]+l 1+_ _ _ _ _ _ _ ",
"Y.'+> 9+a+) ! I.h.U.%.D ` l+H.$.3 G.3.3.3.G.j /+/+)+/+/+/+/+/+N.{+{+_+k+~+~+_+k+x.%.D ` 8 S.>+>+7 3.i.!.w i v j k =+* _ _ _ _ _ _ _ ",
"| | [ [ [ #+g+M i G.D !.F 3.3 !.v 5 5 H 5 5 x.x.)+(+)+/+)+x./+{+{+!+~+~+~+~+~+!+x.F.x I f+m+m+@.` $.@ @ / 3 3.D @ a._ @ a ).U ].# '.",
"c.c.c.c.c.g+c+( / i.E v D i.3 G.9 7 ` i 3.x.)+2+2+2+(+)+/+x.x.x.{+{+{+!+~+~+!+{+/+c ]+n+o+o+-+*+V '.@ { E F i. .( _ _ / i D # '.i G.",
"=+b.L _ @ ).].U ).V 0 3.D p+i ` |.] I q+r+x.(+(+(+2+2+2+(+)+x.)+x.{+!+!+!+!+{+x.> ' , ; P e s+f.& _ ( i.G.D )._ _ _ U { G.v !.w G.~.",
"3+d.b.# D i / # w E i D F v t+i.u+z v.W.x.)+2+2+(+(+(+(+)+/+x.x.)+x.x.x.x.x.x.z.a+s > v+w+y R.F._ a._ '.!. ._ a._ _ _ # !.3 v v D u ",
"8+m.g+a E v s.2 x+G.j 2 x+G.%.= B Q h+, x.(+2+2+2+2+2+(+(+(+)+x.x.x.)+x.x.x.h+' 8+> m.C.% x+y+D '.# # a '.'.# U L L _ _ ].V N z+1.A+",
"s | t @ B+C+D+E+C j F+G+H+j I+! } ' r ' x.2+2+(+(+(+)+)+)+)+x.x.x.x.x.x.x.z.s s > #+c.b.]./ u F v v v v v v F J+K+P.c+_ _ x L+M+N+J.",
"7.c ,.# '.x W.P 1 0+B O+1 b B ) ' ' h+} x.2+2+(+)+)+x.x.x.x.x.{+{+)+)+{+x.< < Q m.c.* _ _ @ / i 4 5 6 5 H 5 P+_.^+G+A+_ c+C.m.T , , ",
"/._.z+E E ++Q+> | R+o l B J.} q r 8+m./+x.(+2+2+(+)+)+x.x.{+N.N.)+)+{+x.g M.J S+T+b._ _ @ !.E i i ` {.U+E 3.6 }._.u+% =+l V+8+n.r s ",
"4 ..5 {.7 m+W+7.; O+X.A+X+P Q d+R /+/+{+x.(+(+(+)+x.x.x.{+{+{+{+)+)+{+x.Y+F 4.Z+& r._ * % %.4.i.a 3 ` i  .$.4 ..}.[.% T+`+7.7. @ @ @",
"3 v 5 >+>+$+.@+@@@g |+%.H+E+#@/+/+{+N.{+x.)+(+)+)+x.x.{+N.N.N.{+)+{+x.{+x.E u '.( $@* g+G+M+V.%@_  .w / ( '.i.I J M+f y.&@*@*@*@=@=@",
"a w 3.5 8 8 6 #.2.a i 6.i./+/+{+N.N.{+{+x./+)+(+)+x.x.{+{+{+{+)+)+)+x.{+{+x.$ & L L =+! ; R -@X.U # # @ U ( U E.Q.u.d z ;@......4 @.",
"i i i v H 8 G 7 ` E i i x.{+N.N.N.N.N.N.x.x.x.)+)+)+x.x.)+)+)+x.x.x.{+{+N.{+x.t l l ! [ , | - >@x+i D V U a.* 7+d.y.M.,@@+` 7 l+'@E ",
"@.)@{ V G.5 {.5 5 ` w x.N.N.O.O.O.O.O.N.x.)+x.x.)+)+x.{+x.x.x.{+{+{+{+{+N.{+N.x.) > > > [ d.<.i H {.H i a ( @ _ & h N z+D.{ y+G.V @ ",
"*@!@x @ !.i F F E D x.N.O.O.O.O.O.O.N.{+x.x.(+)+)+x.x.{+N.N.N.N.{+{+N.N.O.{+N.x.9+r 8+'+G+C i ~.8 S.8 ` F D D V @ q+g.~@1 y.L+{@% _ ",
"  . + @ # a # ).).x.N.O.O.O.O.O.N.N.{+x.x.x.(+(+)+)+x.x.{+{+{+{+N.N.N.N.O.N.O.O.x., [ d.<.D 4 5 {.7 8 {.5 5 H E a b c d     e f ~ _ ",
"R+w+|+x+D !.).a.a.x.N.O.O.O.N.N.{+{+{+{+{+x.)+(+(+)+)+x.x.{+N.N.N.N.N.N.O.O.O.O.{+x.E+F.D E v v v ~.8 >+>+S.8 ~.F ++&@;.=.=.=.]@Y _ ",
"1+^@)@9 5 3.w ( _ x.N.N.O.O.O.N.N.N.{+x.x.x.)+)+(+(+(+x.x.x.x.{+{+{+{+N.N.O.O.O.N.x.x /@G.$.).$ a F 5 7 {.7 {.5 H 4 #.#.@.@.}.W s.].",
"_ V ` 8 >+5 G.w # x.(@N.N.N.N.N.{+{+x._@I+x.x.)+)+)+)+)+x.>+H x.x.{+N.O.O.O.O.O.O.{+x.y g.&.d.l C.C 3 v v v v v v v G.~.7 l+3.E D u ",
"_ / 3.7 8 8 5 3.!.a x.(@{+{+{+x.x.x.x.A+j x.x.(+)+x.x.)+x.7 5 H H x.{+N.N.O.O.O.O.{+x.o.:@  P [ Y.X.M '.# # # # # # a D 4 3.w w G.~.",
"_ '.D 3.5 8 >+6 G.i 4 x.(@(@(@(@x.x.C.<@]@x.x.)+(+(+)+x.x.^ G.G.G.G.x.{+N.O.O.O.N.{+(@x.p.A.[@p.z q.{ '._ a.a.a.a.a._ / i u # '.D G.",
"& _ $ 5.3.7 8 {.9 H 5 x.x.x.x.x.(+x.; [   x.x.(+(+(+)+x.y.q+'.'.a a %@x.{+N.N.N.{+{+(@x.f+}.}@}@}.|.` D )._ U U U _ _ U ).$ _ U ).a ",
"C.P.P.k |@v H.H.'@'@x.)+x.x.)+x.)+x.s ' 8.1@x.)+(+(+)+/+x.L a.a.c+7+d.! x.{+{+{+{+(@(@x.3.l+2@G >+S.8 3.u w w w w 1.E.P.P.P.c.7+c+a.",
"P '+'+: ,.a  .a x.x.(+x.(+)+x.x.)+x.9+3@p.4@x.x.x.x.x.x.x.a _ _ =+! #+C.x.(@{+{+(@(@(@{+x.v 6 8 8 8 7 5 H ~.~.H ` 5@6@| | | P B ~ _ ",
"o+7@o+z |+s.= x.!+/+(+(+x.x.)+/+x.h+8.o+^.)@x.x.!+!+!+{+x.3 w !.C K+B =+'.x.N.{+(@(@(@N.x.8@U.N G.3.3.H 8 >+8 5 6.9@W+7@7@7@o+~@D.w ",
"0@0@0@m+#.;@O x./+!+/+/+(+)+/+x.a+R -+a@x+5.x.{+~+~+~+!+{+x.4 U+F 1.b.* ].x.(@N.{+(@(@N.(@x.n+;+a  .V v 5 >+7 b@w 2.c@0@0@0@0@m+#.4 ",
"3.3.3.` ` @+#@#+x./+/+~+/+/+x.t.m.]+8@F u # x.!+~+_+~+_+~+{+x.3.E  .* =+g+g+x.(@{+(@{+N.(@x.i+F+* a.U !.G.` G.i.).V v ` 3.3.3.3.3.3.",
"V V V V V a Z :+7+x./+/+x.:+:+:+:+~ % a # U x.{+~+_+~+_+~+!+{+x.'.@ b.B m.'+x.x.(@N.N.{+(@x.e+Z+U a._ ). .V / # U @  .V V V V V V V ",
"_ _ _ * =+g+g+g+g+:+L _ _ _ _ _ _ _ _ _ L 0+7+x.~+!+~+!+_+x.!+x.7+g+<@d@L.L.e@x.x.x.x.x.x.>+{.v !.V V ).U )./ a U _ _ _ _ _ _ _ _ _ ",
"_ _ _ b.o m.m.m.m.3+g+_ _ _ _ _ _ _ _ * f@#+m.x.!+{+~+{+~+x.x.x.V+m.v.g@e+B.U.x.)+(+(+)+x.>+8 9 ` ` 3.w ).!.v D @ _ _ _ _ _ _ _ _ _ ",
"_ ( '.1.h@Z.b+6+e #+t & # / V s.% ~ :+g+! > a+' x.{+~+{+~+x.s+i@4+s+z j.` ~.v V x.x.x.x.x.U+4 5 8 8 {.G.w D G.E !./ / / / V V '.@ _ ",
"_ a i G.c@.@.@_.j@:+b.$ $.G.` )@8@W.m.m.; ' s .+Z.x.!+x.!+x.R.;+,.,@j.%.!.!.V ).x.)+(+(+)+x.w 3.7 >+8 5 ` i w D G.3.3.3.3.3.3.i '._ ",
"_ '.F 4 6 6 H y+$./  .p+F U+{...^.k@| P e 5+5+b+&@N x.x.x.` F a a /@l@>@~ =+=+=+x.x.x.x.x.x.@ $.` 4 4 4 ` F !.D 3.9 7 8 8 +.] m@%@=+",
"_ @ / 3 ~.5 v u E 3.3.G.3 D ` 9 l@b c.E.8@_.4@a@l@w w w w w V @ Z S+d@k@t.t.t.t.x.)+)+)+)+(+x.a { !.!.!.w i v F $.v 5 G 8 m+&@n+`+#+",
"_ ].# w G.3.D { @+f+m+c@|+%@++;@++A+n@_ !.y+4 ` i # _ _ U _ & b.C.P h+' T   5+5+x./+(+(+(+)+x._ _ _ _ _ @ w G.E !.D 3.4 m+/.o@' ' ' ",
"_ '.D 0 D u E W =@A.p.o+p@Q.6@i+6@! c.r.'.!.u w / ( _ _ _ _ =+l m.> s s 7.;.`.q@x./+)+)+)+/+x.a.a.a.a.a._ # w i v E i.|+z 6+S a+a+9+",
"b.1.F )@D.2 l@a@o+T ' T 7.:@5+5+:@s+f.M ).U & A+b.b.b.b.b.~ P.| ' ' , 7.*.e+6 8 x./+{+!+{+!+x.a a a a @ _ L L h r@l@x d.[ .+' , s@[ ",
"3+w+F.D.X.. i+i+8.' n.T o+k.`.j+t@`.j.F w U g+! #+#+#+#+#+#+V+> s a+8.-..@..8 G G x.!+~+!+~+x.v G.G.0 !.U t ! 6@*.d@]+| 8+s 9+[ B C.",
"h+m.C.g+Y.> , , ' h+R b+`...u@6 6 6 7 5 v s.E.Y.< o.:@:@:@e   [ Q 7.o+U...{.7 5 H x./+)+)+)+x.5 H 5 5 v s.I.s+:@:@o.u.} ; ; ; 3+:+r.",
"a+> V+V+z.s n.n.n.R o+`.}.8 G G G G G 8 9 v |+E.S+=@v@v@v@v@+@f.f.g.,@%.E H 5 G.u u x.x.x.x.{.` E ` {.H G.z+`.v@k.y g d.d.d.e.g+c+_ ",
"s@Q   d 7.7.7.7.7.e@k.#.6 7 {.5 9 5 5 9 9 4 i s.2.y+..5 6 5 y+{ { )@G.w w G.3.w ].& Z L <./@4.|@1.i.4 9 H 4 4 4 ` @+M & $ $ $ $ ).).",
"d.g y /./././././.R.m@F ~.5 3.3 u D D D D D E v E t+3.{.G G l+3.E i i F F 3 w w@L c.m R+B x@A.T.y@,.2.D D D D 3 D B+@ '.D v v 0 0 0 ",
"$ Z+^ 4 $++.+.+.5 z@i./ v H i # ].].U & Z % j 4./@^@{ 3.5 5 5 H v V V v G.!.].* :+J.z.h+> Q < 7.-@f.M # @ ( ( ( ( @ ).w 3.5 5 5 H H ",
"v E t+G.5 G G G G 5 $.a E H i @ a.r.7+l ! B x@&+M+- I.j 3 D 3 3 w ).).w A@'.L c.]+; ' r 8+V+_@O g.B@x+V _ C@a.C@_  .D E E 3.{.5 G.3 ",
"@.^ V V G.5 6 5 6 4 w a i ` $.& L b.l } > > ; < <   G+Z @ @ @ @ U & L & & D@:+J.> ' ' h+[ 1 2 @+..6 H F '.@ @ U U { 4.@+X j 4.4.V @ ",
"E@{@x @ !.D i i t+D  .@ p+i.H+1 o B m.h+s ' ; ]+@@-.8@& a.a.a.a.b.P.m m B B 3+; 9+s , m.1 F.F H 8 G 8 4 E i D V ].q+y O G+A &+8@x _ "};
