/* XPM */
static char * p_mov_down_left_2_xpm[] = {
"66 66 351 2",
"  	c #A27A3A",
". 	c #A47D3F",
"+ 	c #A88247",
"@ 	c #AB854C",
"# 	c #AC864C",
"$ 	c #AB854B",
"% 	c #AA844A",
"& 	c #AA834A",
"* 	c #A9824A",
"= 	c #A98348",
"- 	c #A57D41",
"; 	c #A17738",
"> 	c #A07636",
", 	c #A07635",
"' 	c #9F7534",
") 	c #A07737",
"! 	c #A47B3F",
"~ 	c #A88147",
"{ 	c #AD8A4D",
"] 	c #B1924F",
"^ 	c #B0904F",
"/ 	c #AD884D",
"( 	c #AB844C",
"_ 	c #AA834B",
": 	c #A47C3F",
"< 	c #A27939",
"[ 	c #A17839",
"} 	c #A17739",
"| 	c #A1783A",
"1 	c #A67E42",
"2 	c #AB854A",
"3 	c #AF8E4F",
"4 	c #B39451",
"5 	c #B49652",
"6 	c #B49752",
"7 	c #B59753",
"8 	c #B59853",
"9 	c #B49552",
"0 	c #B09050",
"a 	c #AC874C",
"b 	c #A88146",
"c 	c #A47D3E",
"d 	c #A27B3A",
"e 	c #A37B3B",
"f 	c #A57E40",
"g 	c #A78043",
"h 	c #AC894B",
"i 	c #B08E4F",
"j 	c #AD8A4C",
"k 	c #A88246",
"l 	c #A57C41",
"m 	c #A47B40",
"n 	c #A47B41",
"o 	c #A47C41",
"p 	c #A1773A",
"q 	c #9F7434",
"r 	c #9E7432",
"s 	c #9E7433",
"t 	c #A67E45",
"u 	c #AF8C4F",
"v 	c #B19050",
"w 	c #AE8B4E",
"x 	c #AA8449",
"y 	c #AA8646",
"z 	c #A88443",
"A 	c #A67F41",
"B 	c #A47C40",
"C 	c #AB8649",
"D 	c #AF8D4F",
"E 	c #B08F50",
"F 	c #B08F4F",
"G 	c #B69954",
"H 	c #B39552",
"I 	c #AD8B4B",
"J 	c #AB8846",
"K 	c #AA8744",
"L 	c #A98249",
"M 	c #AB864B",
"N 	c #B0904E",
"O 	c #A88343",
"P 	c #A2793A",
"Q 	c #A17838",
"R 	c #A17837",
"S 	c #A07836",
"T 	c #A07736",
"U 	c #AA844B",
"V 	c #AD894D",
"W 	c #B08F4E",
"X 	c #AC874B",
"Y 	c #AA8349",
"Z 	c #A98349",
"` 	c #B29351",
" .	c #AC884D",
"..	c #B39551",
"+.	c #B49651",
"@.	c #B29450",
"#.	c #B29350",
"$.	c #AF8C4E",
"%.	c #AE8C4D",
"&.	c #A88345",
"*.	c #A78241",
"=.	c #A98643",
"-.	c #A98644",
";.	c #A98543",
">.	c #A68041",
",.	c #A98347",
"'.	c #AC874D",
").	c #AB864C",
"!.	c #AE8A4E",
"~.	c #B39452",
"{.	c #B49753",
"].	c #AB844B",
"^.	c #AC8948",
"/.	c #AC8A47",
"(.	c #AB8A47",
"_.	c #AD8C4A",
":.	c #B08E4E",
"<.	c #AA854A",
"[.	c #AE8D4D",
"}.	c #B2934F",
"|.	c #B39450",
"1.	c #AB864A",
"2.	c #AE8B4D",
"3.	c #B29251",
"4.	c #B1914F",
"5.	c #AE8A4D",
"6.	c #B29250",
"7.	c #A27A39",
"8.	c #A27B39",
"9.	c #A37C3C",
"0.	c #A78143",
"a.	c #AA824B",
"b.	c #A88148",
"c.	c #A67E44",
"d.	c #A57D42",
"e.	c #A57D43",
"f.	c #A78144",
"g.	c #AB8847",
"h.	c #AC8949",
"i.	c #AE8C4E",
"j.	c #AF8E4C",
"k.	c #AC8A48",
"l.	c #A98446",
"m.	c #A2793B",
"n.	c #9E7332",
"o.	c #A37B3A",
"p.	c #A78341",
"q.	c #AB8848",
"r.	c #AA824A",
"s.	c #AC884C",
"t.	c #A2793C",
"u.	c #A17939",
"v.	c #A57F40",
"w.	c #A98247",
"x.	c #A68042",
"y.	c #A07637",
"z.	c #A88442",
"A.	c #B0904C",
"B.	c #A67E43",
"C.	c #AC884B",
"D.	c #A78045",
"E.	c #AB874A",
"F.	c #B19150",
"G.	c #B19151",
"H.	c #A88145",
"I.	c #A37A3E",
"J.	c #A17937",
"K.	c #A5803E",
"L.	c #AA8645",
"M.	c #AD8A4B",
"N.	c #A77F46",
"O.	c #A67D43",
"P.	c #A37B3D",
"Q.	c #AC8A49",
"R.	c #B69953",
"S.	c #A67F40",
"T.	c #AE8D4B",
"U.	c #A98645",
"V.	c #A47C3E",
"W.	c #A78044",
"X.	c #A37A3C",
"Y.	c #A57F3E",
"Z.	c #AD8C49",
"`.	c #9F7634",
" +	c #AF8E4E",
".+	c #A37A3D",
"++	c #B39651",
"@+	c #AE8D49",
"#+	c #A98544",
"$+	c #AB8748",
"%+	c #A88047",
"&+	c #A78140",
"*+	c #AA8846",
"=+	c #AF8E4D",
"-+	c #B29151",
";+	c #A78340",
">+	c #A88342",
",+	c #A98346",
"'+	c #B59953",
")+	c #B39550",
"!+	c #A2783A",
"~+	c #A67F44",
"{+	c #B29451",
"]+	c #B2924F",
"^+	c #B1924E",
"/+	c #AD8B4D",
"(+	c #A47B3E",
"_+	c #A6803F",
":+	c #A98149",
"<+	c #A78046",
"[+	c #AC8B49",
"}+	c #AE8E4A",
"|+	c #A88149",
"1+	c #AC884A",
"2+	c #080808",
"3+	c #A98148",
"4+	c #A37B3E",
"5+	c #A27A3B",
"6+	c #A47D3C",
"7+	c #A47E3D",
"8+	c #EF7B00",
"9+	c #A77F45",
"0+	c #EFEF00",
"a+	c #9F7535",
"b+	c #9F7533",
"c+	c #A88046",
"d+	c #9F7433",
"e+	c #A57F3D",
"f+	c #A17938",
"g+	c #AF8F4C",
"h+	c #B1914E",
"i+	c #292929",
"j+	c #A2783B",
"k+	c #AC894A",
"l+	c #9F7635",
"m+	c #A68140",
"n+	c #AD8B49",
"o+	c #CE3900",
"p+	c #181818",
"q+	c #B49653",
"r+	c #4A4A4A",
"s+	c #AF8F4D",
"t+	c #6B7B7B",
"u+	c #EFDEBD",
"v+	c #A57F3F",
"w+	c #A78240",
"x+	c #AD8A4E",
"y+	c #AA8549",
"z+	c #AD894B",
"A+	c #AE8C4C",
"B+	c #8C1800",
"C+	c #A47D3D",
"D+	c #B08E50",
"E+	c #AB8849",
"F+	c #A57E3F",
"G+	c #A68040",
"H+	c #BD6B39",
"I+	c #A3793D",
"J+	c #A67F43",
"K+	c #AF8D4E",
"L+	c #A37C3B",
"M+	c #0018EF",
"N+	c #B19250",
"O+	c #A98248",
"P+	c #AD894E",
"Q+	c #AC894C",
"R+	c #A88144",
"S+	c #A67F42",
"T+	c #A88245",
"U+	c #A57E41",
"V+	c #AA8548",
"W+	c #A98447",
"X+	c #AC8947",
"Y+	c #DEAD7B",
"Z+	c #AB8749",
"`+	c #A67E41",
" @	c #A98545",
".@	c #A78242",
"+@	c #A57D3F",
"@@	c #A27A3C",
"#@	c #B39652",
"$@	c #A57E3E",
"%@	c #A37B3F",
"&@	c #B39351",
"*@	c #A88543",
"=@	c #A57E42",
"-@	c #A37C3D",
";@	c #A27938",
">@	c #AF8F4B",
",@	c #AA8746",
"'@	c #A78042",
")@	c #A88344",
"!@	c #AA8448",
"~@	c #AA8745",
"{@	c #AB8946",
"]@	c #AB8947",
"^@	c #A37B3C",
"/@	c #AA834C",
"(@	c #AA8649",
"_@	c #AD8B4A",
":@	c #B1904F",
"<@	c #AB8747",
"[@	c #A98444",
"}@	c #AA8747",
"|@	c #6B0000",
"1@	c #A98546",
"2@	c #AB874B",
"3@	c #B0914E",
"4@	c #A77F44",
"5@	c #AB8948",
"6@	c #B1934F",
"7@	c #AE8B4C",
"8@	c #A6813F",
"9@	c #A07837",
"0@	c #AF8E4B",
"a@	c #AD8A4A",
"b@	c #A68240",
"c@	c #AD8C4B",
"d@	c #B0914D",
"e@	c #AE8E4B",
"f@	c #B19251",
"g@	c #B0904D",
"h@	c #AA8647",
"i@	c #A57E3D",
"j@	c #A67F45",
"k@	c #A78243",
"l@	c #A37A3B",
"m@	c #AA8547",
"n@	c #A47C3D",
"o@	c #AF8D4D",
"p@	c #AE8D4C",
"q@	c #A88244",
"r@	c #A88048",
"s@	c #A37D3B",
"t@	c #A57D3E",
"u@	c #AE8D4A",
"v@	c #B08F4D",
"w@	c #A07738",
"x@	c #AD8B48",
"y@	c #B59752",
"z@	c #AC8B48",
"A@	c #AC864D",
"B@	c #A78142",
"C@	c #A57D40",
"D@	c #AD894C",
"E@	c #AE8C4F",
"F@	c #A57C40",
"G@	c #AE8C4B",
"H@	c #A9824B",
"I@	c #A9834A",
"J@	c #AA8845",
"  . + @ # # $ % % % & * & = - ; > > , ' ' ) ! ~ { ] ^ / @ @ ( _ ~ : < [ [ } ; ) > > | 1 2 3 4 5 6 7 8 7 5 6 9 0 a b c d     e f ~ _ ",
"! g h 3 i j k l m n o o o ! p q r s s ' [ ! t & u 9 9 v i 3 w @ x y z A B ! ! m m ! 1 C D E F i 0 4 8 G G G 8 H F I J K K K K y x _ ",
"L M F H 9 N O P [ < < < < < Q R S T T ) : ~ & U w 4 5 H H H v V V ^ W X L L Y Y Y Z M F ` i  .@ a i ..5 +.+.+.5 H 4 @.#.#.@.#.W a _ ",
"_ # $.v v %.&.f *.=.-.=.=.=.-.-.-.;.>.- ,.{ V @ '.D v v v v E i i E D '.).!.D 3 D D E ~.{.` D '.].C ^././.(./._.:.E E E E v v u # _ ",
"_ U @ ).# $ & <.[.}.#.}.}.}.@.@.|.}.%.1.2.3.E a @ ).).$ $ $ { 4.v 5.@ U '.E ~.H H H H 5 6 5 6.w Y 1 e 7.7.8.9.0.1.'.'.'.'.a # @ U _ ",
"_ _ a.a.a.a.a.@ w v v v v 3.9 8 G 8 ` E 3.{.~.i V ( b.c.d.e.f.g.h.<.a.a.).i.v v v v v v ^ j.k.l.1 m.' n.' o.p.q.2.$.i.$.i.V ( a.a._ ",
"r._ _ U U U U ( # '.'.a # s.F 5 8 7 5 H 5 {.5 4 i $ c.t.; ; u.e v.w.U ].@ # a a # ).).).<.x.e u.; y., ' R z.A.4 ..H H H ~.E  .U U U ",
"B.b C.i.$.i.i.i.i.w w V = D.E.F F.v F.F.F.F.G.v j H.I.> r s J.K.L.M.i.$.i.w V @ * N.O.e.o | q n.' } P.v.z Q.^ ~.8 R.8 5 3.E D w w w ",
"[ S.T.4 H ~.~.4 4 ~.H 4.U.V.W.M '.a a a a # a M H.X.) , ' , Y.Z.}.4 4 ~.~.H 3.!.L - P [ [ ) , `.) ! ~ M.N  +{ i 9 8 7 3.w w 3.H H H ",
".+x.I F.3.F.F.F.F.3.5 ++@+#+$+V '._ %+c.O.O.c.O.I.y.y.m.c &+*+=+-+3.F.F.` 5 5 v j y p.;+p.p.p.p.>+,+U !.v E $.D v F.F.$.# !.~.G G '+",
"%+L $ '. .'.'.'.'.!.G.5 )+] #.` u % O.t.[ !+!+| ) > t.~+E.=+W { '.'.'.'.w ` {.5 {+]+^+^+^+^+^+^+N /+$ @  .D 3.E V '.'.@ U { ` 8 8 8 ",
"_ _ _ _ _ _ _ _ a.@ i.F.3.` 5 5 E ].c.(+c _+Y.P.t..+d.L / E i a _ _ _ _ # D 3.3.3.3.3.3.3.3.3.3.G.w ( a.U !.E $.@ _ _ :+<+l.[+}+}+}+",
"_ _ _ _ _ _ _ _ _ U ). . .!.F.H i $ |+b.1+j.I = <+2+3+& @ '.a 2+_ _ _ _ U #  . . . . . . . . ./  .)._ _ _ @ '.# U _ _ N.4+5+6+7+7+7+",
"_ _ _ _ _ _ _ _ _ _ _ _ _ @ i.v w ( a.].!.v D ).2+8+2+_ 2+_ 2+8+2+_ _ _ * %+9+9+9+9+9+9+9+9+9+9+N.b.& _ _ _ _ _ _ _ _ <+! m.m.t.t.t.",
"_ _ _ _ _ _ _ _ _ _ _ _ _ _ ). .).U _ _ ). .a ].2+8+2+2+8+2+0+8+8+2+_ _ 2+B m.| !+!+!+!+!+!+!+| t.B.* _ _ _ _ _ _ _ _ L %+<+N.N.N.N.",
"_ _ _ _ _ _ _ _ _ _ _ _ _ _ _ _ _ _ _ _ _ _ 2+2+2+0+8+2+8+0+0+8+2+8+2+2+8+2+a+b+' ' ' ' ' ' ' b+y.l L _ _ _ _ _ _ _ _ _ _ _ _ _ _ _ ",
"_ _ _ _ _ %+.+a+b+' ' ' b+) - * _ _ _ _ _ _ 2+0+8+0+0+0+0+0+0+8+0+0+8+8+0+2+_ _ _ _ _ _ _ _ _ _ _ _ _ _ _ _ _ _ _ _ _ _ _ _ _ _ _ _ ",
"_ * b.c+<+B.m.' d+, d 7+e+_+l.a # _ _ _ _ _ L 2+0+8+0+0+0+0+0+0+0+0+0+0+0+0+2+N.~ 2 / V / / / / / V V V / # _ :+%+b.r._ _ _ _ _ _ _ ",
"_ b.l t.t.P y.' d+f+;.}+g+g+h+F.w ( _ _ _ r.9+4+2+0+0+0+0+8+0+0+8+0+0+0+0+2+i+j+f k+F.` 3.3.3.3.3.3.3.` F.u ].9+! d.:+_ _ _ _ _ _ _ ",
"%+B.!+' ' l+; P e m+n+#.5 {.5 ` 3 V  ./ / a k 2+8+8+8+8+8+8+8+8+0+0+0+0+8+o+p+6+*._.{+{.8 8 8 8 8 5 4 4 ` E V b (+l 3+_ _ _ _ _ _ _ ",
"X.!+> b+d+) ! H.h.T.%.D ` q+G.$.3 F.3.3.3.2+2+2+0+8+8+8+8+8+8+8+8+0+8+0+r+8+p+}+T.%.D ` 8 R.'+'+7 3.i.!.w i v j k %+* _ _ _ _ _ _ _ ",
"| | [ [ [ .+9+M i F.D !.F 3.3 !.v 5 5 H 5 2+0+2+8+p+p+p+p+p+p+p+8+0+o+8+p+o+p+r+s+E.x I h+^+^+@.` $.@ @ / 3 3.D @ a._ @ a ).U ].# '.",
"c.c.c.c.c.9+:+( / i.E v D i.3 F.9 7 ` i 3.5 2+8+p+r+t+u+u+t+t+r+p+8+p+o+p+p+p+p+r+c (+v+w+w+>+$+V '.@ { E F i. .( _ _ / i D # '.i F.",
"%+b.L _ @ ).].U ).V 0 3.D x+i ` |.] I y+z+N A+2+p+r+t+u+u+t+t+r+p+p+p+p+B+p+p+X.p+r+, ; P e C+f.& _ ( i.F.D )._ _ _ U { F.v !.w F.~.",
"4+d.b.# D i / # w E i D F v D+i.E+z v.V.F+*.G+: p+p+p+p+p+p+p+p+H+B+o+i+H+p+p+y.p+r+> I+J+y Q.E._ a._ '.!. ._ a._ _ _ # !.3 v v D u ",
"a+m.9+a E v s.2 K+F.j 2 K+F.%.= B Q l+, ) [   L+x.2+M+t+H+H+M+t+H+H+8+i+B+p+2+' a+p+r+B.% K+N+D '.# # a '.'.# U L L _ _ ].V N =+1.O+",
"s | t @ P+Q+R+S+C j T+U+V+j W+! } ' r ' | - &.X+T.2+M+u+Y+Y+M+u+B+B+o+p+p+2+2+2+> p+r+b.]./ u F v v v v v v F Z+`+O.:+_ _ x  @.@+@I.",
"7.c ,.# '.x V.P 1 c+B @@1 b B ) ' ' l+} B O+{ N+2+2+H+Y+Y+Y+Y+Y+H+B+B+p+2+2+i+i+2+p+r+_ _ @ / i 4 5 6 5 H 5 #@_._+U+O+_ :+B.m.T , , ",
"/._.=+E E M.$@> | %@o l B I.} q r a+m.- <+& '.u 2+p+B+H+Y+Y+H+B+B+B+2+2+i+2+i+t+i+2+p+r+@ !.E i i ` {.&@E 3.6 }._.E+% %+l j+a+n.r s ",
"4 ..5 {.7 ^+*@7.; @@W.O+=@P Q f+R [ l b._ _ ( a 2+i+2+B+H+H+H+H+2+2+2+2+2+i+r+t+t+r+2+r+% %.4.i.a 3 ` i  .$.4 ..}.[.% ~+-@7.7.;@;@;@",
"3 v 5 '+'+++>@,@'@g 1+%.V+S+)@,@)@B.<+& _ ( / 2+i+i+i+2+2+2+2+2+2+2+2+2+i+r+r+r+t+t+r+2+U+.@U.!@_  .w / ( '.i.I J .@f x.~@{@{@{@]@]@",
"a w 3.5 8 8 6 #.2.a i 6.i.X K+4.%.% * _ * & j 2+i+r+i+2+2+2+2+2+p+2+p+i+i+i+r+r+r+t+r+i+2+R ^@W.U # # @ U ( U D.P.u.d z s+......4 @.",
"i i i v H 8 G 7 ` E i i F E E i P+@ /@_ %+1 0.2+2+i+i+2+2+2+i+2+i+2+i+r+i+i+i+i+r+r+r+r+2+| - (@K+i D V U a.* N.d.x.L._@ +` 7 q+-+E ",
"@.:@{ V F.5 {.5 5 ` w / i 3.D # _ * * :+d.| 2+i+r+i+2+2+@ 2+i+2+i+2+i+r+r+i+i+i+i+r+r+i+2+d.<.i H {.H i a ( @ _ & h N =+C.{ N+F.V @ ",
"{@<@x @ !.i F F E D  .@ !.D P+_ N.d.- l m.> 2+2+2+i+2+Y a.2+2+2+2+r+2+2+i+r+i+i+p+i+i+p+r+2+i ~.8 R.8 ` F D D V @ y+g.[@1 x. @}@% _ ",
"  . + @ # a # ).).@ _ & % U U 3+- [ y.) > 2+2+B+B+2+2+ .].].2+B+2+i+p+2+2+2+2+i+p+p+p+r+i+2+4 5 {.7 8 {.5 5 H E a b c d     e f ~ _ ",
"%@J+1+K+D !.).a.a.* 9+d.l l d.B m.' r ' 2+B+H+Y+Y+H+2+E D D 2+|@B+p+i+p+o+o+B+2+p+p+i+i+r+i+2+v v ~.8 '+'+R.8 ~.F M.~@;.=.=.=.1@Y _ ",
"3+2@:@9 5 3.w ( _ L - P [ [ [ } ) > a+2+B+2+Y+B+Y+2+{.5 5 9 2+|@o+p+r+p+B+B+B+2+p+i+i+r+i+r+2+$ a F 5 7 {.7 {.5 H 4 #.#.@.@.}.W s.].",
"_ V ` 8 '+5 F.w # & l.>+v.(+I.4+! ! ! 2+2+Y+2+2+H+2+&@7 G '+H 2+|@B+p+i+2+|@|@|@2+i+r+r+r+t+2+l B.C 3 v v v v v v v F.~.7 q+3.E D u ",
"_ / 3.7 8 8 5 3.!.a K+3@j Z b.b.b.~ %+2+H+2+K+$ 2+M $.4 6 7 5 2+2+|@p+i+p+|@|@|@2+i+r+r+t+i+2+[ X.W.M '.# # # # # # a D 4 3.w w F.~.",
"_ '.D 3.5 8 '+6 F.i 4 {.3.u '.U b.4@B.4@2+^.y W.d.O.T+5@T.^ 2+|@|@2+2+2+2+2+2+2+p+i+r+r+r+i+2+p.z q.{ '._ a.a.a.a.a._ / i u # '.D F.",
"& _ $ 5.3.7 8 {.9 H 5 {.5 ` w & d.m.; [   L+e P | P   9.2+2+B+|@|@2+|@|@|@|@|@2+2+2+i+r+i+2+6@6@}.|.` D )._ U U U _ _ U ).$ _ U ).a ",
"B.O.O.k 7@v G.G.-+-+G.G.3.^ C.~+t., s ' 8.8@p.p.p.p.2+2+o+o+o+B+B+2+B+o+o+B+2+i+r+t+r+i+2+i+2+G '+R.8 3.u w w w w 1.D.O.O.O.c.N.:+a.",
"P !+!+: ,.a  .a a a a a '.M J+P > ' b+9@p.0@^+^+2+2+B+o+8+8+o+o+o+B+2+|@B+2+2+i+r+t+t+r+2+o+|@2+8 8 7 5 H ~.~.H ` a@F+| | | P B ~ _ ",
"w+b@w+z 1+s.= ~+c.c.c.c.c.e.t.a+s l+8.w+^.:@9 2+o+8+8+8+8+8+8+o+o+B+2+B+2+B+Y+2+2+2+r+2+B+8+o+2+F.3.3.H 8 '+8 5 6.c@*@b@b@b@w+[@C.w ",
"d@d@d@^+#.s+O m.| | | | !+[ ) a+d+R >+e@K+5.2+o+8+8+8+8+8+8+o+B+B+B+2+B+2+2+2+H+Y+u+2+2+B+8+o+|@2+ .V v 5 '+7 f@w 2.g@d@d@d@d@^+#.4 ",
"3.3.3.` `  +)@.+t.t.t.t.t.t.t.t.m.(+h@F u # 2+o+o+8+o+o+o+o+o+B+|@2+2+2+2+Y+H+2+B+H+Y+2+o+o+o+|@2+a.U !.F.` F.i.).V v ` 3.3.3.3.3.3.",
"V V V V V a Z <+N.<+<+<+<+<+<+<+<+~ % a # U 2+B+B+o+o+o+o+B+B+2+2+@ b.B m.2+2+2+2+B+H+2+B+o+B+|@2+a._ ). .V / # U @  .V V V V V V V ",
"_ _ _ * %+9+9+9+9+<+L _ _ _ _ _ _ _ _ _ L c+2+B+B+B+B+|@|@B+2+9+N.9+4@G+K.K.i@^@2+2+2+B+B+|@|@|@2+V V ).U )./ a U _ _ _ _ _ _ _ _ _ ",
"_ _ _ b.o m.m.m.m.4+9+_ _ _ _ _ _ _ _ * j@.+2+B+|@|@|@|@|@|@2+m.j+m.v.X+g+A.T.V+2+|@|@|@|@|@B+B+2+` 3.w ).!.v D @ _ _ _ _ _ _ _ _ _ ",
"_ ( '.1.k@Y.e+7+e .+t & # / V s.% ~ <+9+! > 2+B+|@|@B+B+B+B+2+l@5+C+z j.` ~.v V 2+|@|@|@|@|@o+B+2+8 {.F.w D F.E !./ / / / V V '.@ _ ",
"_ a i F.g@>@>@_.m@<+b.$ $.F.` :@h@V.m.m.; ' 2+B+|@|@|@|@|@B+2+,+,._@j.%.!.!.V ).2+B+|@|@B+o+B+|@2+'+8 5 ` i w D F.3.3.3.3.3.3.i '._ ",
"_ '.F 4 6 6 H N+$./  .x+F &@{...^.n@| P e 6+2+B+|@|@B+|@|@2+F a a o@p@(@~ %+%+%+2+|@B+B+o+B+B+|@2+4 4 4 ` F !.D 3.9 7 8 8 +.] A+!@%+",
"_ @ / 3 ~.5 v u E 3.3.F.3 D ` 9 p@b c.D.h@_.2+B+o+o+B+|@2+2+2+@ Z q@G+n@t.t.t.t.2+B+B+o+B+|@2+2+2+!.!.!.w i v F $.v 5 G 8 ^+~@v+-@.+",
"_ ].# w F.3.D {  +h+^+g@1+!@M.s+M.O+r@_ !.N+4 2+2+2+2+2+2+i+2+b.B.P l+' T   6+6+6+2+2+2+2+2+2+_ _ _ _ _ @ w F.E !.D 3.4 ^+/.s@' ' ' ",
"_ '.D 0 D u E W ]@z.p.w+t@P.F+m+F+! c.r.'.!.2+r+i+i+r+2+2+2+2+l m.> s s 7.;.Z.u@u@2+2+2+p+i+i+2+a.a.a.a._ # w i v E i.1+z 7+S d+d+b+",
"b.1.F :@C.2 p@e@w+T ' T 7.L+6+6+L+C+f.M ).2+2+2+2+2+2+i+i+2+2+| ' ' , 7.*.g+6 8 6 2+i+2+2+2+2+2+2+a a @ _ L L h v@p@x d.[ `.' , w@[ ",
"4+J+E.C.W.. m+m+8.' n.T w+k.Z.n+x@Z.j.F 2+i+i+i+i+i+i+2+2+2+j+> s d+8.-.>@..8 G G 2+2+p+r+t+t+r+2+2+0 !.U t ! F+*.G+(+| a+s b+[ B B.",
"l+m.B.9+X.> , , ' l+R e+Z...y@6 6 6 7 2+H+i+Y+H+r+i+2+2+L+e   [ Q 7.w+T...{.7 5 H 2+H+Y+2+Y+H+B+i+i+2+v s.H.C+L+L+o.u.} ; ; ; 4+<+r.",
"d+> j+j+y.s n.n.n.R w+Z.}.8 G G G G G 2+2+2+2+2+2+2+z@z@z@z@,@f.f.g._@%.E H 5 F.u 2+r+r+r+r+r+r+t+r+2+H F.=+Z.z@k.y g d.d.d.e.9+:+_ ",
"w@Q   d 7.7.7.7.7.i@k.#.6 7 {.5 9 5 5 9 9 4 i s.2.N+..5 6 5 N+{ { :@F.w w F.3.w ].& 2+2+2+2+2+2+2+2+2+9 H 4 4 4 `  +M & $ $ $ $ ).).",
"d.g y /./././././.Q.A+F ~.5 3.3 u D D D D D E v E D+3.{.G G q+3.E i i F F 3 w A@L c.m %@B B@z.S.C@,.2.D D D D 3 D P+@ '.D v v 0 0 0 ",
"$ D@^ 4 +++.+.+.5 {+i./ v H i # ].].U & Z % j 4.o@2@{ 3.5 5 5 H v V V v F.!.].* <+I.y.l+> Q < 7.^@f.M # @ ( ( ( ( @ ).w 3.5 5 5 H H ",
"v E D+F.5 G G G G 5 $.a E H i @ a.r.N.l ! B B@#+.@- H.j 3 D 3 3 w ).).w E@'.L c.(+; ' r a+j+F@O g.G@K+V _ H@a.H@_  .D E E 3.{.5 F.3 ",
"@.^ V V F.5 6 5 6 4 w a i ` $.& L b.l } > > ; < <   U+Z @ @ @ @ U & L & & I@<+I.> ' ' l+[ 1 2  +..6 H F '.@ @ U U { 4. +X j 4.4.V @ ",
"J@}@x @ !.D i i D+D  .@ x+i.V+1 o B m.l+s ' ; (+'@-.h@& a.a.a.a.b.O.m m B B 4+; b+s , m.1 E.F H 8 G 8 4 E i D V ].y+y O U+A #+h@x _ "};
