/* XPM */
static char * p_mov_up_left_3_xpm[] = {
"66 66 345 2",
"  	c #AA834B",
". 	c #A9824A",
"+ 	c #A57D41",
"@ 	c #A07737",
"# 	c #9F7533",
"$ 	c #9F7534",
"% 	c #9F7535",
"& 	c #A37A3D",
"* 	c #A88047",
"= 	c #AA824A",
"- 	c #A88148",
"; 	c #A98149",
"> 	c #AC864C",
", 	c #AD884D",
"' 	c #AD894D",
") 	c #AB854A",
"! 	c #A88147",
"~ 	c #A77F46",
"{ 	c #A78046",
"] 	c #A98348",
"^ 	c #AC874C",
"/ 	c #AC874D",
"( 	c #AB854C",
"_ 	c #A98249",
": 	c #A98446",
"< 	c #A6803F",
"[ 	c #A57F3D",
"} 	c #A47E3D",
"| 	c #A27B3A",
"1 	c #A07635",
"2 	c #9F7433",
"3 	c #A2793B",
"4 	c #A67E43",
"5 	c #A88046",
"6 	c #A57D42",
"7 	c #A47B3F",
"8 	c #A77F45",
"9 	c #AB844B",
"0 	c #AF8C4F",
"a 	c #B19150",
"b 	c #B29351",
"c 	c #B29251",
"d 	c #AC894A",
"e 	c #A57E40",
"f 	c #A2783B",
"g 	c #A2793C",
"h 	c #A78243",
"i 	c #AF8D4D",
"j 	c #B08F4F",
"k 	c #AC884D",
"l 	c #A98148",
"m 	c #A37B3E",
"n 	c #AB844C",
"o 	c #AE8B4E",
"p 	c #B1914E",
"q 	c #AF8F4C",
"r 	c #AE8E4A",
"s 	c #A98543",
"t 	c #A17938",
"u 	c #A07637",
"v 	c #A2793A",
"w 	c #A57C41",
"x 	c #A47B3E",
"y 	c #A88146",
"z 	c #B08F50",
"A 	c #B39451",
"B 	c #B49652",
"C 	c #B59853",
"D 	c #B49753",
"E 	c #B29451",
"F 	c #AD8C4A",
"G 	c #A78241",
"H 	c #A47D3C",
"I 	c #A57E3D",
"J 	c #A98544",
"K 	c #B08F4D",
"L 	c #B39552",
"M 	c #B19050",
"N 	c #A17839",
"O 	c #A37B3D",
"P 	c #A88246",
"Q 	c #AF8E4F",
"R 	c #B29350",
"S 	c #AD8B49",
"T 	c #A68140",
"U 	c #A37B3B",
"V 	c #A17738",
"W 	c #9F7635",
"X 	c #A2783A",
"Y 	c #AD8A4C",
"Z 	c #B08E4F",
"` 	c #AE8A4E",
" .	c #AE8C4E",
"..	c #B59753",
"+.	c #B59953",
"@.	c #B69953",
"#.	c #AF8D4F",
"$.	c #AE8C4D",
"%.	c #AE8D4B",
"&.	c #AE8E4B",
"*.	c #AE8B4D",
"=.	c #A67F44",
"-.	c #A67E44",
";.	c #AF8C4E",
">.	c #B19151",
",.	c #B49653",
"'.	c #AC8949",
").	c #A88145",
"!.	c #A07636",
"~.	c #A37A3C",
"{.	c #AA844B",
"].	c #AB864C",
"^.	c #AA824B",
"/.	c #B29450",
"(.	c #B1924E",
"_.	c #AD8B4B",
":.	c #AA8449",
"<.	c #AB874A",
"[.	c #AF8F4D",
"}.	c #B2934F",
"|.	c #AB864B",
"1.	c #A1783A",
"2.	c #AD8A4D",
"3.	c #AB8748",
"4.	c #A88342",
"5.	c #A78240",
"6.	c #A57F3F",
"7.	c #A47D3E",
"8.	c #AA8646",
"9.	c #080808",
"0.	c #B49552",
"a.	c #B39452",
"b.	c #AA834A",
"c.	c #A78144",
"d.	c #A47D3D",
"e.	c #AC884C",
"f.	c #EF7B00",
"g.	c #EFEF00",
"h.	c #AC874B",
"i.	c #AB864A",
"j.	c #AF8E4E",
"k.	c #AD8A4E",
"l.	c #A88149",
"m.	c #AE8C4C",
"n.	c #B0904E",
"o.	c #AD894B",
"p.	c #AA8549",
"q.	c #B1924F",
"r.	c #B39450",
"s.	c #B09050",
"t.	c #AC8A49",
"u.	c #A67F43",
"v.	c #A3793D",
"w.	c #9E7433",
"x.	c #CE3900",
"y.	c #A67F42",
"z.	c #AB8649",
"A.	c #A57D43",
"B.	c #A47C3F",
"C.	c #A68040",
"D.	c #A57E3F",
"E.	c #A47C3E",
"F.	c #A57F40",
"G.	c #A88443",
"H.	c #AB8849",
"I.	c #B08E50",
"J.	c #A98248",
"K.	c #AF8E4D",
"L.	c #B19250",
"M.	c #AF8D4E",
"N.	c #AA844A",
"O.	c #AA854A",
"P.	c #A68042",
"Q.	c #A37C3B",
"R.	c #A27A3A",
"S.	c #A17838",
"T.	c #A47C40",
"U.	c #A37A3E",
"V.	c #A57D3F",
"W.	c #A78242",
"X.	c #A98545",
"Y.	c #A67D43",
"Z.	c #A67E41",
"`.	c #AB8749",
" +	c #AC8947",
".+	c #A88345",
"++	c #9E7432",
"@+	c #A17739",
"#+	c #A98447",
"$+	c #AA8548",
"%+	c #A57E41",
"&+	c #A88245",
"*+	c #A88144",
"=+	c #AC894C",
"-+	c #AD894E",
";+	c #A67E45",
">+	c #A07736",
",+	c #B39652",
"'+	c #B49752",
")+	c #A67E42",
"!+	c #A27A3C",
"~+	c #A98347",
"{+	c #A27A39",
"]+	c #9E7332",
"^+	c #B39351",
"/+	c #9F7434",
"(+	c #A47C41",
"_+	c #A37B3F",
":+	c #A57E3E",
"<+	c #AD8A4B",
"[+	c #AC8A47",
"}+	c #A27938",
"|+	c #A37C3D",
"1+	c #AE8D4D",
"2+	c #B39551",
"3+	c #B1914F",
"4+	c #6B7B7B",
"5+	c #292929",
"6+	c #A17837",
"7+	c #A57E42",
"8+	c #A78044",
"9+	c #A88543",
"0+	c #AB8947",
"a+	c #AB8946",
"b+	c #AA8745",
"c+	c #AB8846",
"d+	c #AA8448",
"e+	c #A98645",
"f+	c #EFDEBD",
"g+	c #4A4A4A",
"h+	c #B29151",
"i+	c #A88344",
"j+	c #AA8746",
"k+	c #AC884A",
"l+	c #A78043",
"m+	c #A78042",
"n+	c #AF8F4B",
"o+	c #B39651",
"p+	c #A17939",
"q+	c #A78045",
"r+	c #A37B3C",
"s+	c #DEAD7B",
"t+	c #B29250",
"u+	c #AD8B4A",
"v+	c #AA8645",
"w+	c #AA8649",
"x+	c #AD8B4C",
"y+	c #A88343",
"z+	c #A98644",
"A+	c #A78143",
"B+	c #AA834C",
"C+	c #B69954",
"D+	c #AC884B",
"E+	c #AC894B",
"F+	c #0018EF",
"G+	c #8C1800",
"H+	c #BD6B39",
"I+	c #A27939",
"J+	c #B1904F",
"K+	c #AA8747",
"L+	c #A98444",
"M+	c #AB8847",
"N+	c #A68041",
"O+	c #A07738",
"P+	c #AB8747",
"Q+	c #A88247",
"R+	c #A47D3F",
"S+	c #AA8349",
"T+	c #A98546",
"U+	c #A98643",
"V+	c #B08F4E",
"W+	c #AB854B",
"X+	c #AB874B",
"Y+	c #181818",
"Z+	c #AE8A4D",
"`+	c #A57C40",
" @	c #A98349",
".@	c #B0914E",
"+@	c #AB8848",
"@@	c #A78341",
"#@	c #A88341",
"$@	c #AC8948",
"%@	c #A77F44",
"&@	c #B0904F",
"*@	c #AE8B4C",
"=@	c #AD8A4A",
"-@	c #A68240",
";@	c #AD8C4B",
">@	c #B0914D",
",@	c #B0904D",
"'@	c #B19251",
")@	c #6B0000",
"!@	c #A57F3E",
"~@	c #AA8647",
"{@	c #AA8547",
"]@	c #B49651",
"^@	c #A47C3D",
"/@	c #AF8E4B",
"(@	c #AE8D4C",
"_@	c #A37D3B",
":@	c #A98346",
"<@	c #A88048",
"[@	c #A07836",
"}@	c #AD8D49",
"|@	c #AE8D4A",
"1@	c #A57D3E",
"2@	c #A88442",
"3@	c #9F7634",
"4@	c #B59752",
"5@	c #AF8E4C",
"6@	c #AD8C49",
"7@	c #AD8B48",
"8@	c #AC8A48",
"9@	c #A27B39",
"0@	c #A37B3A",
"a@	c #AC8B48",
"b@	c #A57D40",
"c@	c #A67F40",
"d@	c #A78142",
"e@	c #AD894C",
"f@	c #A9824B",
"g@	c #AE8C4B",
"h@	c #AE8C4F",
"i@	c #A9834A",
"j@	c #A67F41",
"k@	c #A47B40",
"l@	c #AA8845",
"m@	c #AA8744",
"n@	c #A1773A",
"o@	c #A47B41",
"p@	c #B08E4E",
"q@	c #AB8A47",
"r@	c #A37C3C",
"s@	c #B0904C",
"t@	c #A98247",
"u@	c #A5803E",
"v@	c #A17937",
"w@	c #A78340",
"x@	c #AA8846",
"y@	c #A78140",
"z@	c #AD8B4D",
"A@	c #B2924F",
"B@	c #B39550",
"C@	c #AC8B49",
"D@	c #A27A3B",
"                                                                                                    . + @ # $ $ $ # % & *           ",
"              = - * ;   > , ' ' ' , , , , , ' , ) ! ~ { ] ^ ' ' ' ' / (     . - { { * _           > ^ : < [ } | 1 2 $ 3 4 { 5 - .   ",
"              ; 6 7 8 9 0 a b c c c c c c c b a d e f g h i c c c c j k     l 6 g 3 m 8 =       n o a p q q r s t 2 $ u v g g w -   ",
"              l w x y ' z b A A B C C C C C D E F G H I J K L D D L M ,     - w 3 N O P ^ , , k ' Q b B D B R S T U v V W $ $ X 4 * ",
"              . * P Y M Z o `  .c ..+.+.@.C b #.$.%.r &.%.*.j L L Z ' (     . * =.-.P Y a c c c a Q ;.>.,.b #.$.%.'.).7 @ 2 # !.X ~.",
"/ > 9 {.].^ (   ^.( #.c Q , ( ( ;.b /.(.(.p _.:.<.[.}.R M o  .a a o ^ n 9 > > 9   ^.> M B B L B B M ` Q c j ` #.a Z |.8 & N N N 1.1.",
"a Z / > #.Z ,     n k  .j z 2.( / ' 3.4.5.5.6.x 7.G 8.Y Q M 9.9.#.9.Q / / #.j ' {.  / a B c Z b ..0.a Q  .#.M z  ., n ; 8 -.-.-.-.-.",
"a.a o ` M a 2.{.      ].#.a  .n   b.c.d.U v V 1 $ 9.9.9.e.9.f.9.9.g.9.h.i.j.a k.  l.:.m.n.o.p._.q.r.b Z k.#.c s.' ].{.9 ].(   _ - * ",
"0 #.M M Q ` >       ^.  k ` /   ^.  <.t.8.u.v.!.w.9.g.f.9.f.g.x.g.f.9.9.y.z.2.> ; A.B.C.G D.E.F.G.H. .I.M j #.Z z o > , Z #.> - 6 m ",
"J.i.K.n.' 9     _ _ {.> / / ^ > > / #.L.M.N.4 9.9.9.f.g.f.f.g.f.f.x.9.x.9.9.^ / O.P.Q.R.N @ 1 W S.T.] $.a M.) Y a M.) e.M z ^ 8 3 % ",
"U.V.W.X.:.    ; Y.Z.`.j M M M M M M j 0 , 9 - 9.f.g.f.f.g.f.f.f.x.x.x.f.f.x.9.M j %. +.++ 1.$ ++$ @+7 #+Y $+%+&+Y z.y.*+=+-+( ;+1.w.",
"1 1 >+3 4 ;   J.%+< F ,+B L B '+B A Z , (     . 9.f.g.g.f.f.x.f.g.g.f.x.x.f.x.9.'+L L.2.J.T.@+W $ $ @ T.y )+!+T.5 )+v E.:./ > ~+7.{+",
"w.++]+% f w * N.H.F }.'+c z ^+D b Z Z z ` (   9.f.g.f.g.f.f.x.x.f.x.g.f.x.x.9.@.D c 0 / b.{ + 3 % ++/+@+U.T.w (+_+1.!.:+<+z z K.F [+",
"}+}+}+{+{+|+=.N.1+}.2+A ;.k Z b Q ^  .3+$.N.9.f.g.4+f.g.g.f.x.5+5+5+x.g.x.9.C D A #.^ n     - w N 6+t S.v 7+J.8+!+V {+9+(...D B 2+A ",
"0+0+a+a+a+b+P.e W.c+_. ./ n , o k   d+e+W.%+9.9.9.f+f.g.5+x.5+5+5+9.9.x.9.9.g+h+Z I.#., n   b.{ 4 i+j+i+y.$+$.k+l+m+j+n+o++.+.B M Q ",
"/.A 2+2+2+[.G.| p+O q+{.n {.( > > {.8+r+6+V 7 * 9.f+s+f.5+5+g+5+5+5+5+9.9.9.5+g+h.j.3+Y b..   . N.$.3+M.h. .t+Z ^ *.R '+C C B c o ^ ",
"z h+,...b j.u+v+P.6 ~ . ^.{.' #.Z M.w++ 1.1 N 7 9.4+4+9.9.9.9.9.9.9.9.9.9.9.x+5+%+y+z+A+)+*   B+( -+Z z z j Z Z z b ..C+C L M Z Z Z ",
"( ' a L.2.D+K.n.E+b.  ( n ^ Z L D L Z O.6 N !.!.!.9.5+9.F+4+G+H+x.x.f.5+9.9.5+9.R.{+I+6+1.6 ; . .   > #.c Z , o b B B D B a ' 2.J+/.",
"  N.K+X.P.)+L+M+p.( ' #.#.j b C @.C a.Z z.%+X % ++9.H+G+F+f+s+s+H+g.s+5+x.9.9.9.5+N+m O+!.3 w + 6 ~   -+#.` ( k #.z j j Z ` ( :.P+a+",
"  ! e U R.R.| 7.y ^ z L B B D C ..D B A #.O.6 N 1 9.G+H+F+f+s+G+G+f.s+G+f.9.9.9.9.Y ! U.@ !.@ u N + l {.{.N.b.  ( ].].> ^ > ( Q+R+R.",
"  S+T+U+U+U+s b+<+j a.C @.+.+.C a.M M M z #.<.y.7 T.G+f+f+s+G+s+H+G+9.9.9.#.9.9.9.9.b.-.g+g+$ ++$ 3 T.6 w w 6 8 . ^.^.].` #.M.k+u._+",
"9 e.V+}././.R R A L B D ..D ..B j ^ W+].;.a i :.* - 9.s+f+f+s+H+G+9.H+9.9.9.9.9.A 9.9.5+5+B.@ % !.@ @+N N N v + _   n o c B 0.J+X+l ",
"0 #.z c ,...a.a M M M M M M M Q z.4 w 6 .+M+8.l+A.4 { 9.H+H+H+G+9.G+9.5+Y+Y+9.9.Z 9.9.9.Z+#+`+7 7 7 m U.x F.4.: b.> o a B +.C b '   ",
"a.a o o c A #.^ > > > > > > / |.8+~.N v R.Q.9.9.V N 7 ! 9.9.9.9.9.9.5+Y+9.5+5+5+Y+9.Y+M.a Y J.* ! - - -  @Y .@M.^ ` c B C C ..c ,   ",
"a #./ > 0 Z ,   ^.^.^.^.^.  / 2.+@G.@@#@9.9.f+9.N 1 @+T.&+9.9.9.Y+Y+Y+9.5+5+g+g+g+5+g+9.$@T+%@4 %@- {./ 0 c D A Z a '++.C B c #./   ",
"^ ].{.  W+].{.    {.{.{.  ].#.b r.}.9.9.9.s+9.9.+ N !.9.9.9.5+5+9.Y+5+5+5+g+4+g+Y+Y+g+4+9.R.N V 3 6 b.o b B D B L 0.D C ..c Z+W+  b.",
"^.; ~ -.Y.Y.Y.q+i.o o o o 0 c C @.9.f+s+H+9.9.;.p.9.9.5+5+g+g+g+4+Y+g+g+g+4+5+5+Y+Y+5+g+4+Y+$ w.1 g =.D+&@c >.>.h+h+>.>.M *@P Y.Y.4 ",
"  ! T.v 1.1.1.D.=@b L a.a.L B ..9.s+H+G+9.H+s+9.9.5+g+g+5+g+g+g+4+Y+4+4+g+5+9.Y+Y+5+g+5+5+5+9.# $ !.v u.|./ ^ ^ ^ ^ ^ k ^ ~+B.X X v ",
"o D+L+5.-@-@-@9+;@t+B C +.C L 9.9.H+G+9.9.9.9.5+g+g+5+9.5+5+g+g+4+Y+4+4+g+5+9.Y+Y+5+5+g+g+5+5+9.W w.% g A.-.-.-.-.-.=.] e.k+G.5.-@5.",
"A R (.>@>@>@>@,@*.o '@..+.B M 9.9.9.9.9.9.g+g+5+g+9.5+9.9.5+5+5+4+Y+Y+Y+4+g+5+9.Y+Y+Y+Y+Y+Y+5+9.9.2 % @ N X 1.1.1.1.3 y+[.R (.>@>@>@",
"c c c c c c b M ' ]. .a b a ` 9.5+9.9.9.5+g+5+9.5+9.9.9.G+G+G+5+g+Y+5+5+Y+Y+Y+)@)@9.9.5+g+g+g+5+9.3 g g g g g g g g & i+j.b b c c c ",
"' ' ' ' ' ' ' k ( {.> , ' k ].  9.5+5+5+5+5+9.9.9.9.9.9.x.f.5+g+Y+G+5+G+9.9.f.x.)@9.5+g+4+g+5+5+9.{ { { { { { { { ~ {  @^ ' ' ' ' ' ",
"                  {.^ , ].{.].' ' 9.9.9.9.9.9.9.d e r+9.G+x.5+g+Y+x.f.f.9.f+9.9.9.9.9.5+g+5+5+5+9.            _ { 8 8 8 8 * .       ",
"                  ( #.M ` ].o c b b 0.C +.C b o ) Q+$+9.G+G+5+g+Y+x.x.x.G+9.s+9.9.H+9.9.9.5+5+9.              8 m 3 3 3 3 (+-       ",
"  ( / ' ' , , , , ` z a #.o a D C C B A ^+b #.].  {.' 9.G+G+5+g+Y+G+G+x.G+9.9.H+s+f+9.s+9.9.9.{ ! N.e.' , > b.;+& U } [ !@h i./ n   ",
"  / Z c c c c c c a #.o Z b B C +...c o ' ' ^ {.    ].9.G+x.5+4+G+x.f.f.9.s+H+9.G+H+s+9.9.V 3 3 E.~@J+b a ;.W+- { {@F n+n+,@a Z ^   ",
"* d+m.q.]@C C ..0.c #.` j b A A A b ;.(     _ * 5 * * 9.G+G+5+4+G+G+G+G+G+9.9.9.9.G+H+9.H U v 1.^@$@2+D ^+j k.k , ;.L.L '+'+A j /   ",
"& |+6.b+(.C C+B M ;.j M Z o ` ` ` 2.^     . 8 7 g g g 9.9.5+5+Y+Y+5+5+5+G+G+G+G+9.9.9./@F ~@q+-.y (@0.b #.Q a c c z 0 M B a.Q , (   ",
"$ $ $ _@[+(.A c #.` z a o (             ( ].:@6.H H H 9.9.9.9.9.9.9.9.9.9.9.9.9.> Z b A L.`   <@J.<+[.<+d+k+,@(.p j.2.#.c a o > 9   ",
"# 2 2 [@} G.k+ .z M Z o >   ^.^.^.^.^.{.' j n.%.}@|@9.G+G+G+G+G+9.G+G+G+G+G+G+Y+n , o 0 ` / = -.7 D.T D.O 1@5.@@2@0+V+z 0 #.s.#./   ",
"N O+1 $ 3@N 6 :.(@K E+_ _   ( ^ ^ ^ ^ k Z B C 4@'+9.G+G+G+G+x.G+9.G+G+G+G+G+G+G+9.- J.b.{.].|.c.d.Q.H H Q.{+>+$ >+5.&.(@) D+J+j i.- ",
"4 T.N # w.% 1.x C.G D.7 ;+{.` s.a a M a A C @.C+9.G+x.x.G+G+x.G+9.G+x.G+x.x.x.G+9.& 7 8 {.o j 5@6@7@S 6@8@5.>+]+$ 9@T T R+8+D+<.u.m ",
"= { m V V V @+p+0@Q.Q.d.).e.M B B L B D B 0.L 9.G+x.x.x.x.x.G+G+9.G+G+x.f.f.x.G+9.I+~.q+e.M B ..'+'+'+4@2+6@[ 6+W $ 1 1 !.~.8 4 3 W ",
"  ; 8 A.6 6 6 l+8.8@a@6@K.a L D b z b D a.Z 9.G+x.f.f.f.x.G+x.G+9.G+f.f.f.f.f.x.G+Y+q+k+M 0.C C+C+C+C+C+C }.6@5.6+]+]+]+w.u f f !.2 ",
"].].W+W+W+W+b.|.j.b A A A L 0.A  .i.*@3+i O.9.x.x.x.x.x.x.x.G+9.9.G+x.f.f.f.f.x.G+Y+e.Z A 0.0.B B 0.B D ..'+R 8@I {+{+{+{+{+| R.S.O+",
"s.s.s.M M #./ ( -+#.Q #.#.#.#.*.~+b@c@2@d@Y+G+x.f.f.f.f.x.G+9.Z Z 9.x.x.f.f.f.x.G+Y+M z #.#.#.#.#.0 Q c B a.j m.t.[+[+[+[+[+[+8.l+6 ",
"L L B B B c o ].( n n n n ( > |.c.r+{+I+S.Y+G+x.f.f.f.x.G+9.M ' ' 9.G+x.f.f.f.x.G+G+9.Y N. @b.{.9 9 > Z L M ,  .E B ]@]@]@o+A &@e@W+",
"Q a B D c z z #.k   f@^.f@  ' M.g@M+y+`+f 9.x.G+x.x.x.G+9.h@o ].].o 9.G+x.x.x.x.G+G+9.d@T.7 w ~ = ^.( Z L z ^ ;.B C+C+C+C+B a I.z M ",
"( ' 3+3+Y h.j.3+2.{.{.( ( / j L '+2+j.) 9.)@x.G+G+)@)@9.i@b.b._ b.{.9.)@G+x.x.G+G+G+)@9.!.!.@+w - _ b.;.b Z ^ o A '+B '+B a ' ' &@/.",
"  :.~@J j@%+y+8.p.9 ' #.Z z A C C+C L j 9.x.G+G+G+)@)@9.T.T.k@k@Y.- ^.9.)@G+G+G+x.x.G+)@9.w.W 3 T.(+)+$+ .k.( k #.I.Z Z #.` ( :.K+l@",
"  ! e U R.R.| 7.y ^ s.0.'+B ..C ..'+B A 9.G+)@G+G+)@)@9.@+N N I+B.!   n 9.)@G+G+G+G+G+G+)@9.9.1 !.!.V + ] b.. b.N.N.N.W+> > ( Q+R+R.",
"  :.8.m@m@m@m@c+_.j L C C+C+C+C A s.Z j 9.)@)@)@)@)@9.7 7 T.j@G.8.:.( o Q 9.)@G+x.x.x.x.x.)@9.Y+w.++/+n@7 (+(+(+o@k@w P Y Z Q E+l+7 ",
"  ^ V+R /.R R /.A L B ]@]@]@B 2+Z ^ ( 9.H+)@)@)@)@9.9.S+_ _ h.V+&@' ' M L L 9.)@)@G+G+x.G+G+Y+Y+Y+[@6+S.I+I+I+I+I+N v y+n.0.L j |._ ",
"  > 0 M M z z z z p@F [+q@[+[+$@z.9 / 9.9.9.9.9.9.5+9.#.` ]./ #.z Z Z z M M M 9.)@)@G+G+G+Y+H+s+Y+9.z+z+U+U+U+z+U+G e .+$.M M ;.>   ",
"  {.( > ^ / / / / i.A+r@9@{+{+U )+S+o 9.5+5+g+5+5+g+9.a.z / {.( Z+M 3+2.W+W+W+].9.9.G+G+Y+9.9.9.Y+5+9./.}.}.}.R }.1+O.b.W+> ].( {.  ",
"  ^.^.n '  .;. .;.*.+@@@0@$ ]+$ 3 9.9.9.5+5+5+9.9.9.9.M  .].^.^.O.'.M+c.A.6 -.- n 9.9.9.Y+9.g+4+5+9.9.9.c M M M M o ( ^.^.^.^.^.    ",
"{.{.{.k z a.L L L 2+A s@2@6+$ 1 9.9.9.9.9.9.9.5+5+9.9.^ > ( 9 {.t@F.U p+V V g -.W+Z A 9.9.g+9.9.9.5+5+5+9.> ^ / / > n {.{.{.{.    = ",
"o o o #.z c B C @.C a.&@t.G.F.9.H+5+s+H+g+g+5+g+9.9.( ' o  .;. .<+v+u@v@w.++!.U.).Y M >.9.9.9.g+4+4+g+9.9.9.' o o  . . . .;. .D+y 4 ",
"L L L c o o c ..C 0.Z 2.j.n.<+9.9.9.9.9.9.9.9.9.+ _ ` c L a.a.A A }.6@!@1 $ 1 @ ~.).|.^ 9.H+s+5+s+s+H+G+9.9.3+L a.A A a.a.L A %.c@N ",
"+.C+C+a.` > ;.a a M #.;.z M ` {.:@4.@@@@@@@@w@@@8.Y M B B b a a c h+K.x@y@7.3 u u U.Y.-.Y.9.g+4+g+4+4+g+g+9.o+B c a a a a c a _.P.& ",
"C C C b 2.{.( / / ' z c #.k ( W+z@n.(.(.(.(.(.(.A@E B D b o / / / / 2.V+K.<.=.g !.@ 1.X X 9.9.9.9.9.9.9.9.B@B >.` / / / / k / W+_ * ",
"r r r C@: { ;     ( ;.z ` {.^.n o >.c c c c c c c c c c #.>         ^ Z z , _ 6 & g O !@< 7.x -.9 z B B b c a  .( ^.                ",
"} } } H D@m ~     {.> / (       ].k , k k k k k k k k k > {.        9 ^ / ( b.l * { ] _.5@k+- l.W+Z L a ` k k ].{.                  ",
"g g g 3 3 7 {                 b.- ~ 8 8 8 8 8 8 8 8 8 8 * .                         ].#.M ` 9 ^.n o M  .(                           ",
"~ ~ ~ ~ { * _                 . 4 g 1.X X X X X X X 1.3 T.-                         9 ^ k ].    {.].k ].                            ",
"                              _ w u # $ $ $ $ $ $ $ # % ~.*                                                                         "};
