/* XPM */
static char * p_mov_left_2_xpm[] = {
"66 66 341 2",
"  	c #AA834B",
". 	c #A88047",
"+ 	c #A37A3D",
"@ 	c #9F7535",
"# 	c #9F7533",
"$ 	c #9F7534",
"% 	c #A07737",
"& 	c #A57D41",
"* 	c #A9824A",
"= 	c #AC864C",
"- 	c #A98249",
"; 	c #A78046",
"> 	c #A88148",
", 	c #AB854C",
"' 	c #AC874D",
") 	c #AD894D",
"! 	c #AC874C",
"~ 	c #A98348",
"{ 	c #A77F46",
"] 	c #A88147",
"^ 	c #AB854A",
"/ 	c #AD884D",
"( 	c #A98149",
"_ 	c #AA824A",
": 	c #A88046",
"< 	c #A67E43",
"[ 	c #A2793B",
"} 	c #9F7433",
"| 	c #A07635",
"1 	c #A27B3A",
"2 	c #A47E3D",
"3 	c #A57F3D",
"4 	c #A6803F",
"5 	c #A98446",
"6 	c #AE8B4E",
"7 	c #AB844C",
"8 	c #A77F45",
"9 	c #A37B3E",
"0 	c #A2793C",
"a 	c #A57D42",
"b 	c #A98148",
"c 	c #AC884D",
"d 	c #B08F4F",
"e 	c #B29251",
"f 	c #AF8D4D",
"g 	c #A78243",
"h 	c #A2783B",
"i 	c #A57E40",
"j 	c #AC894A",
"k 	c #B19150",
"l 	c #B29351",
"m 	c #AF8C4F",
"n 	c #AB844B",
"o 	c #A47B3F",
"p 	c #A57C41",
"q 	c #A2793A",
"r 	c #A07637",
"s 	c #A17938",
"t 	c #A98543",
"u 	c #AE8E4A",
"v 	c #AF8F4C",
"w 	c #B1914E",
"x 	c #AF8E4F",
"y 	c #A88246",
"z 	c #A37B3D",
"A 	c #A17839",
"B 	c #B19050",
"C 	c #B39552",
"D 	c #B49753",
"E 	c #B08F4D",
"F 	c #A98544",
"G 	c #A57E3D",
"H 	c #A47D3C",
"I 	c #A78241",
"J 	c #AD8C4A",
"K 	c #B29451",
"L 	c #B59853",
"M 	c #B49652",
"N 	c #B39451",
"O 	c #B08F50",
"P 	c #A88146",
"Q 	c #A47B3E",
"R 	c #A2783A",
"S 	c #9F7635",
"T 	c #A17738",
"U 	c #A37B3B",
"V 	c #A68140",
"W 	c #AD8B49",
"X 	c #B29350",
"Y 	c #AD8A4C",
"Z 	c #A67E44",
"` 	c #A67F44",
" .	c #B08E4F",
"..	c #AE8B4D",
"+.	c #AE8D4B",
"@.	c #AE8E4B",
"#.	c #AE8C4D",
"$.	c #AF8D4F",
"%.	c #B69953",
"&.	c #B59953",
"*.	c #B59753",
"=.	c #AE8C4E",
"-.	c #AE8A4E",
";.	c #A37A3C",
">.	c #A07636",
",.	c #A88145",
"'.	c #AC8949",
").	c #B49653",
"!.	c #B19151",
"~.	c #AF8C4E",
"{.	c #AA824B",
"].	c #B2934F",
"^.	c #AF8F4D",
"/.	c #AB874A",
"(.	c #AA8449",
"_.	c #AD8B4B",
":.	c #B1924E",
"<.	c #B29450",
"[.	c #AB864C",
"}.	c #AA844B",
"|.	c #A1783A",
"1.	c #AB864B",
"2.	c #B49552",
"3.	c #AA8646",
"4.	c #A47D3E",
"5.	c #A57F3F",
"6.	c #A78240",
"7.	c #A88342",
"8.	c #AB8748",
"9.	c #AD8A4D",
"0.	c #B39450",
"a.	c #B1924F",
"b.	c #AA8549",
"c.	c #AD894B",
"d.	c #B0904E",
"e.	c #AE8C4C",
"f.	c #A88149",
"g.	c #AD8A4E",
"h.	c #AF8E4E",
"i.	c #AB864A",
"j.	c #AC874B",
"k.	c #B0904F",
"l.	c #AB874B",
"m.	c #AC884C",
"n.	c #A78045",
"o.	c #A47D3D",
"p.	c #A78144",
"q.	c #AA834A",
"r.	c #B39452",
"s.	c #B09050",
"t.	c #AB8849",
"u.	c #A88443",
"v.	c #A57F40",
"w.	c #A47C3E",
"x.	c #A57E3F",
"y.	c #A68040",
"z.	c #A47C3F",
"A.	c #A57D43",
"B.	c #AB8649",
"C.	c #A67F42",
"D.	c #A78043",
"E.	c #AC884B",
"F.	c #AC874A",
"G.	c #A67F43",
"H.	c #9E7433",
"I.	c #A3793D",
"J.	c #AC8A49",
"K.	c #B08E50",
"L.	c #A47C40",
"M.	c #A17838",
"N.	c #A27A3A",
"O.	c #A37C3B",
"P.	c #A68042",
"Q.	c #AA854A",
"R.	c #A27A3B",
"S.	c #A77F44",
"T.	c #AA844A",
"U.	c #AF8D4E",
"V.	c #B19250",
"W.	c #AF8E4D",
"X.	c #A98248",
"Y.	c #A17739",
"Z.	c #9E7432",
"`.	c #A88345",
" +	c #AC8947",
".+	c #A37B3A",
"++	c #AB8749",
"@+	c #A67E41",
"#+	c #A67D43",
"$+	c #A98545",
"%+	c #A78242",
"&+	c #A57D3F",
"*+	c #A37A3E",
"=+	c #A67E45",
"-+	c #AD894E",
";+	c #AC894C",
">+	c #A88144",
",+	c #A88245",
"'+	c #A57E41",
")+	c #AA8548",
"!+	c #A98447",
"~+	c #B49752",
"{+	c #AF8F4B",
"]+	c #A88247",
"^+	c #A98247",
"/+	c #A27939",
"(+	c #B39652",
"_+	c #A07736",
":+	c #A27A39",
"<+	c #A98347",
"[+	c #A67E42",
"}+	c #A27A3C",
"|+	c #AE8D4A",
"1+	c #AA8645",
"2+	c #A68043",
"3+	c #AE8B4C",
"4+	c #080808",
"5+	c #AB8846",
"6+	c #A88244",
"7+	c #B39351",
"8+	c #9E7332",
"9+	c #AC8A47",
"0+	c #AD8A4B",
"a+	c #A57E3E",
"b+	c #A37B3F",
"c+	c #A47C41",
"d+	c #9F7434",
"e+	c #A17837",
"f+	c #B1914F",
"g+	c #AD884C",
"h+	c #AD894C",
"i+	c #B39551",
"j+	c #AE8D4D",
"k+	c #A37C3D",
"l+	c #A27938",
"m+	c #A88543",
"n+	c #A78044",
"o+	c #A57E42",
"p+	c #A88344",
"q+	c #B29151",
"r+	c #EF7B00",
"s+	c #A98645",
"t+	c #AA8448",
"u+	c #AA8745",
"v+	c #AB8946",
"w+	c #AB8947",
"x+	c #B39651",
"y+	c #AA8746",
"z+	c #A78042",
"A+	c #AC884A",
"B+	c #EFEF00",
"C+	c #CE3900",
"D+	c #A37B3C",
"E+	c #A17939",
"F+	c #B29250",
"G+	c #AA834C",
"H+	c #A78143",
"I+	c #A98644",
"J+	c #A88343",
"K+	c #AA8649",
"L+	c #AD8B4A",
"M+	c #B69954",
"N+	c #6B7B7B",
"O+	c #AC894B",
"P+	c #B1904F",
"Q+	c #A07738",
"R+	c #A68041",
"S+	c #292929",
"T+	c #4A4A4A",
"U+	c #AB8847",
"V+	c #A98444",
"W+	c #AA8747",
"X+	c #AB8747",
"Y+	c #A47D3F",
"Z+	c #A98643",
"`+	c #A98546",
" @	c #AA8349",
".@	c #B08F4E",
"+@	c #A57C40",
"@@	c #AE8A4D",
"#@	c #AB854B",
"$@	c #B0914E",
"%@	c #A98349",
"&@	c #AC8948",
"*@	c #EFDEBD",
"=@	c #BD6B39",
"-@	c #8C1800",
";@	c #181818",
">@	c #A27B39",
",@	c #A6813F",
"'@	c #A78341",
")@	c #A78340",
"!@	c #DEAD7B",
"~@	c #A07837",
"{@	c #AF8E4B",
"]@	c #0018EF",
"^@	c #A68240",
"/@	c #B0914D",
"(@	c #AA8647",
"_@	c #A5803E",
":@	c #A67F45",
"<@	c #B0904C",
"[@	c #A37A3B",
"}@	c #AF8E4C",
"|@	c #A57F3E",
"1@	c #9F7634",
"2@	c #AC8B48",
"3@	c #A98346",
"4@	c #6B0000",
"5@	c #B0904D",
"6@	c #AA8547",
"7@	c #A47C3D",
"8@	c #AE8D4C",
"9@	c #A88048",
"0@	c #A37D3B",
"a@	c #AD8C49",
"b@	c #AD8D49",
"c@	c #A07836",
"d@	c #A88442",
"e@	c #A57D3E",
"f@	c #AD8B48",
"g@	c #AC8A48",
"h@	c #B59752",
"i@	c #A78142",
"j@	c #AE8C4B",
"k@	c #AA8845",
"l@	c #AA8744",
"m@	c #A47B40",
"n@	c #A47B41",
"o@	c #A1773A",
"p@	c #B49651",
"q@	c #AB8A47",
"r@	c #B08E4E",
"s@	c #A37C3C",
"t@	c #AB8848",
"u@	c #A67F40",
"v@	c #AE8D49",
"w@	c #B2924F",
"x@	c #AD8B4D",
"y@	c #B39550",
"z@	c #AC8B49",
"                                                                                                              . + @ # $ $ $ # % & * ",
"=           - . ; ; > *     , ' ) ) ) ) ! ~ ; { ] ^ / ) / / / / / ) ) ) / =   ( . > _                 * > : ; < [ $ } | 1 2 3 4 5 ! ",
"6 7       _ 8 9 [ 0 a b     c d e e e e f g 0 h i j k l e e e e e e e l k m n 8 o a (                 > p 0 0 q r $ } s t u v v w k ",
"x ) c / / ! y z A [ p >     / B C D D C E F G H I J K D L L L L L M N N l O ) P Q p b               . < R $ $ S T q U V W X M D M l ",
"x k e e e k Y y Z ` . *     , )  .C C d ..+.@.u +.#.$.l L %.&.&.*.e =.-.6  .B Y y . *               ;.R >.# } % o ,.'.+.#.$.l ).!.~.",
"B M M C M M B = {.  n = = n 7 ! 6 k k =.6 B X ].^./.(._.w :.:.<.l ~., , / x e $., {.  , ! [.}.n = ' |.|.A A A + 8 1. .k $.-.d e x -.",
"2.*.l  .e M k '   }.) d $.' ' x O $.$.O B x Y 3.I 4.Q 5.6.6.7.8.) ' , 9.O d =.c 7     /  .$.= '  .k Z Z Z Z Z 8 ( 7 / =.O B $.=.x k ",
"0.a._.b.c.d.e.(.f.  g.k h.i.j.k.d l.i.d B m.n.;.>.$ | T q U o.p.q.  7 =.k $.[.      }.9.k B -.6 k r.. > -   , [.n }.[.) s.e $.g. .l ",
"t.u.v.w.x.I y.z.A.( = 9.B.C.D.E.F.G.C./.E.p.0 r } H.>.I.G.3.J./.  {.  ' -.c   {.      = -.x B B $.m 9 a > = $. ./ = 6 O  .$.d B K.=.",
"L.M.S | % A N.O.P.Q.' ! y R.0 ` 8 9 + S.8 ;.S $ @ >.[ < T.U.V.$.' = = ! ' ' = }.- -     n ) d.W.i.X.@ [ 8 ! O B m.^ U.k Y ^ U.k #.~ ",
"Y.$ Z.$ |.& `. ++.d B d 8..+>.h o p p o 0 r H.H.>.+ Z > n / m d B B B B B B d ++@+#+(     (.$+%+&+*+H.|.=+, -+;+>+C.B.Y ,+'+)+Y !+o ",
"$ $ S Y.L.X.9.V.C ~+L ~+{+V s A z.]+^+z.A /+/+M.[ Z *     , /  .N M ~+M C M (+J 4 '+X.  ( < [ _+| | :+4.<+= ' (.w.q [+: L.}+[+P L.% ",
"Z.@ [ & ; q.' m e D %.L <.|+1+2+y 3+..4+D.1+5+6+` >     , -.O  . .l D 7+O e ~+].J t.T.. p h @ 8+Z.H.9+J W.O O 0+a+>.|.b+c+p L.*+Y.d+",
"e+A p >     7 ! $.N D L L 4+f+4+) 4+4+4+g+d f+h+q._   * T.#.f+=.! x l  .c ~.N i+].j+T.` k+:+:+l+l+l+N i+M D *.:.m+:+T }+n+X.o+q M.s ",
"p+< ; q.  7 / $.K. .q+M &.4+).4+4+4+r+4+O O m 4+4+4+* 8 '+%+s+t+  c 6 / 7 ' =._.5+%+i P.u+v+v+v+w+w+x B M &.&.x+{+y+z+D.A+#.)+C.p+y+",
"#.T.*   * q.Y f+h.j.4+l 4+r+4+B+r+4+B+C+4+4+4+C+4+- . o T e+D+n+}.= = , }.7 }.n.z E+1 u.^.i+i+i+N <.! 6 e M L L ~+X ..!  .F+=.j.U.f+",
"-+, G+  . [+H+I+J+'+4+4+4+r+4+r+B+C+B+r+C+C+C+4+p p o A | |.& K+U. .$.) }.{.* { a P.1+L+h.l *.).q+O  . . .B C L M+*.l O  . .d O O  .",
"  * * ( a |.e+/+:+N.4+B+4+r+r+4+B+C+r+r+r+r+4+4+4+>.>.>.A a Q. .C N+N+ .! 7 ,   q.O+d.W.E.9.V.k ) , <.P+9.) k M D M M l 6 /  .e $.= ",
"{ a & p [ >.Q+9 R+F 4+B+C+r+B+r+B+r+C+r+r+C+4+4+S+T+@ R '+B. .r.N+S+S+l d $.$.) , b.U+V+[+P.$+W+T.  v+X+(., -. .d d O $.c , -.$.-+  ",
"& A r % >.% *+] Y f+4+r+B+C+B+B+B+r+r+r+B+B+r+C+4+4+T+T+T+T+T+N+S+*.L D 4+4+4+4+! P 4.1 N.N.U i ]   N.Y+]+, = ! = [.[.,   q.T.}.}.b ",
"[ $ Z.$ T 9 Z q.4+4+C+4+B+r+B+B+r+r+r+r+C+4+4+4+C+4+4+T+S+S+S+S+B 4+4+4+4+4+4+4+d 0+u+t Z+Z+Z+`+ @  b+G.A+U.$.-.[.{.{.* 8 a p p a L.",
"% >.@ % z.] q.}.4+B+4+C+r+r+B+r+r+r+C+C+4+S+S+S+4+4+4+4+4+T+T+4+4+4+4+4+4+*.D M C N X X <.<.]..@m.n b l.P+2.M e 6 7   - & q A A A Y.",
"o o o +@!+@@-+, / 4+B+C+r+B+B+r+r+r+4+4+4+S+S+4+4+4+D.3.4+4+4+4+4+4+x B B B B B B B k r.*.).e O $.m   ) l L &.M k 6 = q.5 7.v.Q *+9 ",
"> ] . X.Y k U.#@  1.4+C+S+S+S+B+r+4+4+4+4+S+4+C+4+4+4+.+O.N.q A ;.n+1.' = = = = = = ! $.N e 6 6 k r.  / e *.L L M e -.! U.$@Y %@> > ",
"> S.< S.`+&@3.n+a #+,+4+*@N+S+S+B+r+4+4+4+4+C+r+r+4+9 4+4+4+4+4+4+4+4+4+4+{.{.{.{.{.  /  .m = ' $.k   ' $.e M L &.~+k  .N D e m ' }.",
"a [ T A N.O.U q |.q N.4+N+N+S+S+4+r+4+4+=@-@4+r+4+;@4+4+4+4+;@;@;@;@;@;@;@;@;@4+4+4+4+4+[.#@  }.[.! q.  #@@@e *.L D 2.C M D M l 6 q.",
"0 | H.$ >@,@'@'@'@'@)@4+N+S+4+4+-@4+-@r+4+-@4+4+4+4+4+4+;@4+4+4+4+4+4+4+;@;@;@4+4+-@!@!@4+#+Z { ( {.< #+#+y 3+B !.!.q+q+!.!.e k.E.` ",
">.$ # ~@'@{@:.:.:.:.:.:.4+4+4+N+-@=@-@r+4+-@4+4+4+4+4+4+-@-@-@4+4+4+4+4+4+4+;@4+4+-@-@=@4+4+q L.]   q R R z.<+! c ! ! ! ! ! ' 1.G.q ",
"H.S >@6.&@P+2.*.M 7+r.*.r.4+]@N+!@!@=@=@4+4+4+4+T+T+T+4+4+4+4+4+4+4+4+;@4+4+4+4+4+-@-@=@!@4+6.V+E.6 6.^@6.u.A+m.~ ` Z Z Z Z Z A.0 @ ",
"} e+7.@.U.@@O C e 6  .C D 4+!@*@!@=@-@-@4+4+4+N+T+T+S+S+S+S+S+S+4+4+4+B M ;@;@;@4+=@-@4+4+/@/@:.X N /@/@/@:.X ^.J+[ |.|.|.|.R A % @ ",
"[ Q (@d m = g.B $.= / s.l l 4+!@=@=@=@4+4+4+4+N+T+T+S+S+S+S+S+T+T+S+;@4+4+l k =.[.4+4+l e e e e e e e e e l l h.p++ 0 0 0 0 0 0 0 0 ",
"; ] T.! = }., ' = }., ' ) ) ) ;@;@;@;@L.[ 4+4+S+S+S+S+S+S+T+T+S+;@;@;@;@;@4+/ = }., c ) ) ) ) ) ) ) ) ) ) ) ) ! %@; { ; ; ; ; ; ; ; ",
"        - : { { { 8 8 8 8 8 8 8 { 8 S.y._@4+4+4+S+S+S+S+4+S+S+T+S+S+S+S+;@;@;@4+}.                        * . 8 8 8 8 ; -           ",
"      * :@+ [ [ [ [ [ [ [ [ [ [ h [ v. +v <@T+4+4+4+4+4+4+4+4+S+S+S+S+S+S+T+4+4+4+4+4+4+                  > c+[ [ [ [ 9 8           ",
"T.] ; 8 o >.} $ s H 3 3 3 3 o.[@R.o.u.}@l r.4+4+S+S+S+;@4+4+4+4+S+S+S+S+T+4+4+4+-@=@!@=@4+4+) ' ,     7 ' i.g |@3 2 U + =+q.= / ) m.",
"(@w.[ [ T $ H.1@|@2@v {+{+{+J.3@<+L+}@#.-.-.) 4+4+S+S+4+4@4@4@4@4+4+S+S+T+4+4+-@=@!@!@*@*@=@4+ .'     !  .k 5@{+{+J 6@; > #@~.k l P+",
"&@7@|.q U H H 3 u+d.N N N l d ! ! f 8@K+] . . . 4+4+4+4@-@-@4@4@4@4@4+4+T+4+4+-@=@!@-@4+4+4+4+e.t+.   ' d N ~+~+C V.~./ c g.d 7+D i+",
"8@P Z n.(@J {@@.8@6 6 6 6 6 ) , %@6+y.7@0 0 0 0 0 4+N+4+C+C+C+-@4@4+S+;@4+4+4+4+!@!@*@=@4+:.u+5.k++   , / x r.M B m O e e k x $.l 2.",
"0+X.9@  -.V.N l  .=     }.  q.> < q S $ _+N.H H H H 4+N+4+-@4@4+T+T+;@;@4+4+4+S+;@4+4+4+4+9+0@$ $ $   n = 6 k e $.9.h.w :.5@A+t+0+^.",
"x.o Z _ ' -.m 6 / 7         . p [ >.H.H.:+t a@|+|+b@4+T+T+4+4+T+T+;@;@4+4@4@4@4@4+O =.A+u.2 c@} } #   4+4+4+$.m O .@w+d@'@6.e@z x.V ",
"O.o.p.1.[.}.q.X.> > > > > ] #+|.$ $ | :+I v ~+L ~+~+4+4+4+4+S+S+S+4+4+4@-@-@4@4@4+8@(.a A 1@$ | Q+4+4+S+S+S+4+^ 8@@.6._+$ _+:+O.H H ",
"f@a@}@d 6 }.8 o + + + + + + h >.H.} >@I+{+i+L M+M+4+4@-@-@4+4+4+4+4@4@-@-@-@-@4@4+y.Q |.@ 4+4+4+4+4+;@;@S+S+4+Y+V V >@$ 8+_+6.g@a@W ",
"~+~+*.M B m.n.;./+.+O.O.O.U N.A M.:+6.+.i+D *.4+4+-@C+C+-@-@-@4+4@4@4@C+C+C+-@4@4@4+E+4+4+-@4@4+S+4+S+S+4+S+T+4+| | $ S e+3 a@i+h@~+",
"M+M+M+L 2.B A+n.6+w+2@2@2@2@y+p.p.U+L+#.O 4+4+C+C+C+C+-@-@4@4@4@4+4@-@r+r+C+C+-@4@4@4+4@-@C+-@4@4+S+4+S+4+S+T+S+4+8+8+e+6.a@].L M+M+",
"2.M M 2.2.N  .m...V.i+M ~+M V.9.9.P+k 6 4+C+C+C+C+C+-@-@-@-@-@-@4+4@-@r+r+r+C+C+-@4+4+-@C+C+-@C+4+;@4+4+;@S+S+S+4+:+:+G g@X ~+*.D M ",
"m $.$.$.$.$.O B O K.e D M+M+).e O  . .4+C+C+C+C+C+4@4@4@4@4@4@4@4@4+4@C+r+r+r+C+-@-@-@C+C+-@-@C+4+4+4+4+4+;@;@S+S+4+9+J.e.d r.M e x ",
"n n }.q.%@T.Y f+f l.9.e M M M C B ) ) 4+-@C+C+C+-@C+-@4@4@4@4+4+4+4+4+-@C+r+r+C+-@C+C+C+-@-@C+4@4+C #@h+4+;@;@-@S+4+M K =./ B C  .= ",
"{._ { p o L.i@F %+& ,.Y x $.x x 6 [.[.4+4@-@-@-@C+-@4@4@4+4++@J+U+j@U.4+-@C+C+C+C+C+-@-@-@4@4@4@4+x B O K.4+;@=@S+4+M+M ~.! O C  ., ",
"- > p Y.>.>.T /+/+N.'+%@, , , , }.q.4+4@-@C+C+C+-@4+4+4+A [+^ h.i+~+C d 4+4@-@-@C+-@4@4@4@4@4+4+) , <.k.) 4+=@S+S+4+~+N 6 !  .l ~.q.",
"c+L.[ S H.$ T Q z+I+(@q.{.{.{.{.> #+4+-@C+-@-@-@-@4@4+[ [+/.d C L M+L N O 4+4+4@4@4@4@4@4+4+F (@(.  k@W+(., 4+4+4+ .K.$.c , g.=.)+[+",
">.>.| $ $ % o ] 9.a.k./ , , 7   ] z.4+4@-@-@-@-@C+4@4+[+^ x N M ~+*.L *.M ~+2.4+4+4+4+4+N.N.U i ]   N.Y+]+, = = #@T.T.T.q.* q.~ & T ",
"Z.H.H.$ A o =+q.m 2.2.B  .x 6 , (.3.4+4@4@C+C+C+4@4+4+B.$.O d  .s.N L M+M+M+L C d _.5+l@l@l@l@3.(.  o D.O+x  .Y y p m@n@c+c+c+o o@d+",
"c@_+_+% z.] q.}.6 N M C C C B ) ) k..@4+4+4+4+4+4+4+1.d l  .c , !  .i+M p@p@p@M C N <.X X <.X .@!   - 1.d C 2.d.J+q A /+/+/+/+/+M.e+",
"I+t R+& <+9.) , ' $.B B B B O  . .O $.4+S+;@;@S+4+$.O r.D l $.' n B.&@9+9+q@9+J r@O O O O B B m =     = ~.B B #.`.i I Z+I+Z+Z+Z+I+I+",
"0.].#.i...e O ! , [.[.#@#@#@9.f+B @@4+T+4+4+4+4+4+C C M ~+M F+6  @[+U :+:+>@s@H+i.' ' ' ' ! = , }.    }., [.= #@q.Q.j+].X ].].].<.<.",
"M+L l O e D r. .) 7 > Z a A.p.U+'.4+S+S+T+S+S+T+4+B B B k.}@g@5 [+[ $ 8+$ .+'@t@..~.=.~.=.) 7 {.{.      {.{.{.{.{., 6 B B B B e 2.L ",
"L *.M C M D M N  .#@Z 0 T T E+4+4+4+S+S+4+4+4+4+4+[.[.[.Q.P.U E+T r | $ e+d@<@N i+C C C r.O c }.}.}._     }.}.}.}.7 = ' ' ! = m.d M ",
"k B k k k k !.B Y ,.*+>.Z.H.4+S+S+S+T+T+S+S+S+S+4+{ #+A.c+|.d+8+$ Y.z v.u.J.k.r.L %.L M e O $.6 6 6 < P E.=.~.=.=.=.=.6 6 ) ~ n./.d ",
"' ! ! ! ! = ! 1.,.;.% | $ 4+=@S+!@=@T+T+S+T+4+4+4+& q A A % | 1@% o ] 0+d.h.9. .2.L *.e 6 6 e C C C A u@+.N C r.r.N N r.C f+s+w.n+1.",
"'   . Z #+#+Z #+*+r r [ 4.4+4+4+4+4+4+4+4+4+4+B Y 3.'@)@'@'@'@'@7.3@}.-.B O ~.$.B k k ~.= -.r.M+M+&.+ P._.k e k k k k e M x+v@F 8.) ",
"m T.#+0 A R R |.% >.0 ` /.W..@9.' ' ' ' 6 l D M K w@:.:.:.:.:.:.d.x@#@, c $.e O ) ' ' , }.9.l L L L . - #@' c ' ' ' ' -.!.M y@a.X l ",
"O n Z Q 4.4 |@z 0 + a - / O  .!         = $.e e e e e e e e e e !.6 7 {.}.-.O ~.,     ( ; 5 z@u u u                 {., =.k e l M M ",
" .#@f.> A+}@_.~ ; . b q., ' ! n         }.= c c c c c c c c c / c [.      , ' = }.    { 9 R.H 2 2 2                   }.[.c c -.k C ",
"6 7 {.n -.B $.[.                        * . 8 8 8 8 8 8 8 8 8 8 { > q.                ; o [ [ 0 0 0                           , =.B ",
"[.}.    [.c ! n                         > L.[ |.R R R R R R R |.0 < *                 - . ; { { { {                             [.c ",
"                                        . ;.@ # $ $ $ $ $ $ $ # r p -                                                               "};
