/* XPM */
static char * p_mov_down_left_1_xpm[] = {
"66 66 347 2",
"  	c #AA834B",
". 	c #A88148",
"+ 	c #A47C41",
"@ 	c #A2793B",
"# 	c #A37B3E",
"$ 	c #A77F45",
"% 	c #A9824A",
"& 	c #A67F45",
"* 	c #A37A3D",
"= 	c #A2783B",
"- 	c #A57F40",
"; 	c #AC8947",
"> 	c #AF8F4C",
", 	c #B0904C",
"' 	c #AE8D4B",
") 	c #AA8548",
"! 	c #A88247",
"~ 	c #AB854A",
"{ 	c #AE8B4E",
"] 	c #B29351",
"^ 	c #B59853",
"/ 	c #B59953",
"( 	c #B49552",
"_ 	c #B29251",
": 	c #AB864C",
"< 	c #AE8A4E",
"[ 	c #B19050",
"} 	c #AF8D4F",
"| 	c #AB854C",
"1 	c #AB844C",
"2 	c #AC874D",
"3 	c #AB864A",
"4 	c #A78243",
"5 	c #A57F3E",
"6 	c #A57F3D",
"7 	c #A47E3D",
"8 	c #A37B3B",
"9 	c #A67E45",
"0 	c #AA834A",
"a 	c #AC864C",
"b 	c #AD884D",
"c 	c #AD894D",
"d 	c #AC884C",
"e 	c #AA844A",
"f 	c #A88147",
"g 	c #A78046",
"h 	c #A47B3F",
"i 	c #A07636",
"j 	c #9F7433",
"k 	c #9F7534",
"l 	c #A17938",
"m 	c #A47D3C",
"n 	c #A47D3D",
"o 	c #A37A3B",
"p 	c #A27A3B",
"q 	c #A88443",
"r 	c #AF8E4C",
"s 	c #B39452",
"t 	c #AA844B",
"u 	c #B39351",
"v 	c #B39451",
"w 	c #B49652",
"x 	c #B49753",
"y 	c #B19150",
"z 	c #B08F50",
"A 	c #AC874C",
"B 	c #B08E4F",
"C 	c #B0904D",
"D 	c #AF8F4B",
"E 	c #AD8C4A",
"F 	c #AA8547",
"G 	c #AB854B",
"H 	c #AF8C4E",
"I 	c #B1904F",
"J 	c #AA8647",
"K 	c #A47C3E",
"L 	c #A17738",
"M 	c #9E7433",
"N 	c #9F7634",
"O 	c #AC8B48",
"P 	c #4A4A4A",
"Q 	c #AC8A49",
"R 	c #A98346",
"S 	c #A98347",
"T 	c #AD8B4A",
"U 	c #AE8C4D",
"V 	c #B59753",
"W 	c #B08F4F",
"X 	c #B49752",
"Y 	c #B39552",
"Z 	c #B19250",
"` 	c #AC884D",
" .	c #AD8A4E",
"..	c #B39551",
"+.	c #AC8948",
"@.	c #A47C3D",
"#.	c #A1783A",
"$.	c #A2793A",
"%.	c #AA8745",
"&.	c #B0904E",
"*.	c #AF8D4D",
"=.	c #AE8D4C",
"-.	c #AA8649",
";.	c #A88047",
">.	c #A88046",
",.	c #A98249",
"'.	c #B49651",
").	c #B1924F",
"!.	c #AE8C4C",
"~.	c #AA8448",
"{.	c #AF8E4F",
"].	c #AF8C4F",
"^.	c #A88146",
"/.	c #A67E44",
"(.	c #A78045",
"_.	c #AF8E4B",
":.	c #AE8E4B",
"<.	c #292929",
"[.	c #A68040",
"}.	c #A2793C",
"|.	c #AD8A4D",
"1.	c #B69954",
"2.	c #B1924E",
"3.	c #A57F3F",
"4.	c #A37C3D",
"5.	c #AB844B",
"6.	c #AF8E4E",
"7.	c #B1914E",
"8.	c #AC884A",
"9.	c #AD8A4B",
"0.	c #AF8F4D",
"a.	c #A98248",
"b.	c #A88048",
"c.	c #A07736",
"d.	c #A27A3A",
"e.	c #AC8A47",
"f.	c #A37D3B",
"g.	c #B09050",
"h.	c #B08F4E",
"i.	c #AB8947",
"j.	c #A88442",
"k.	c #A78341",
"l.	c #A78240",
"m.	c #A57D3E",
"n.	c #A37B3D",
"o.	c #A57E3F",
"p.	c #A68140",
"q.	c #AA824A",
"r.	c #A57C41",
"s.	c #A27A39",
"t.	c #A98543",
"u.	c #AD8C49",
"v.	c #AE8D4A",
"w.	c #AD8D49",
"x.	c #AA824B",
"y.	c #AE8C4E",
"z.	c #A07836",
"A.	c #9F7533",
"B.	c #AC884B",
"C.	c #A37C3B",
"D.	c #A78144",
"E.	c #AB864B",
"F.	c #A67D43",
"G.	c #A78241",
"H.	c #B59752",
"I.	c #AC894B",
"J.	c #B08F4D",
"K.	c #AA8449",
"L.	c #A57D42",
"M.	c #A17839",
"N.	c #A07635",
"O.	c #A07738",
"P.	c #A67F43",
"Q.	c #AB874A",
"R.	c #A78044",
"S.	c #A47D3F",
"T.	c #A27B39",
"U.	c #9E7332",
"V.	c #AC8A48",
"W.	c #AD8B49",
"X.	c #AD8B48",
"Y.	c #080808",
"Z.	c #A98644",
"`.	c #B69953",
" +	c #A47B3E",
".+	c #9F7535",
"++	c #A47C40",
"@+	c #A67E43",
"#+	c #9F7635",
"$+	c #A37A3C",
"%+	c #A17837",
"&+	c #CE3900",
"*+	c #A88145",
"=+	c #A37B3A",
"-+	c #A17939",
";+	c #A17739",
">+	c #A07637",
",+	c #B2934F",
"'+	c #EFEF00",
")+	c #EF7B00",
"!+	c #AF8E4D",
"~+	c #AA8646",
"{+	c #A78043",
"]+	c #A57D43",
"^+	c #A98149",
"/+	c #A17838",
"(+	c #A27B3A",
"_+	c #A57E3D",
":+	c #B29350",
"<+	c #A98349",
"[+	c #AA854A",
"}+	c #B1914F",
"|+	c #AE8B4C",
"1+	c #AC864D",
"2+	c #A47B40",
"3+	c #A37B3F",
"4+	c #A78142",
"5+	c #A67F40",
"6+	c #A57D40",
"7+	c #AE8B4D",
"8+	c #AD894E",
"9+	c #AD894C",
"0+	c #B0904F",
"a+	c #B39651",
"b+	c #B29451",
"c+	c #A37A3E",
"d+	c #A27939",
"e+	c #A37B3C",
"f+	c #B08E50",
"g+	c #AE8C4F",
"h+	c #9E7432",
"i+	c #A57C40",
"j+	c #A88343",
"k+	c #AB8847",
"l+	c #AE8C4B",
"m+	c #AF8D4E",
"n+	c #A9824B",
"o+	c #B29450",
"p+	c #181818",
"q+	c #A9834A",
"r+	c #A67E42",
"s+	c #AC874B",
"t+	c #AD8A4C",
"u+	c #AA8845",
"v+	c #AA8747",
"w+	c #AA8549",
"x+	c #A57E41",
"y+	c #A67F41",
"z+	c #A98544",
"A+	c #A98348",
"B+	c #A57D41",
"C+	c #A47C3F",
"D+	c #A07737",
"E+	c #A47D3E",
"F+	c #A57E40",
"G+	c #A88246",
"H+	c #A47B41",
"I+	c #A1773A",
"J+	c #9F7434",
"K+	c #6B7B7B",
"L+	c #EFDEBD",
"M+	c #AB8649",
"N+	c #AD8B4B",
"O+	c #AB8846",
"P+	c #AA8744",
"Q+	c #8C1800",
"R+	c #AA8349",
"S+	c #A88345",
"T+	c #A98643",
"U+	c #BD6B39",
"V+	c #AB8A47",
"W+	c #B08E4E",
"X+	c #AE8D4D",
"Y+	c #B39450",
"Z+	c #0018EF",
"`+	c #A37C3C",
" @	c #A78143",
".@	c #DEAD7B",
"+@	c #AB8848",
"@@	c #A98645",
"#@	c #A68042",
"$@	c #AE8D49",
"%@	c #AB8748",
"&@	c #A78340",
"*@	c #B19151",
"=@	c #B39550",
"-@	c #B2924F",
";@	c #6B0000",
">@	c #A98446",
",@	c #AC8B49",
"'@	c #AE8E4A",
")@	c #A77F46",
"!@	c #A2783A",
"~@	c #A98148",
"{@	c #AC8949",
"]@	c #B49653",
"^@	c #A67F44",
"/@	c #A88342",
"(@	c #AD894B",
"_@	c #AB8849",
":@	c #AC894C",
"<@	c #A88144",
"[@	c #A67F42",
"}@	c #A88245",
"|@	c #A98447",
"1@	c #AB8749",
"2@	c #A67E41",
"3@	c #A98545",
"4@	c #A78242",
"5@	c #A57D3F",
"6@	c #A27A3C",
"7@	c #A98247",
"8@	c #B39652",
"9@	c #A6803F",
"0@	c #A57E3E",
"a@	c #A88543",
"b@	c #A57E42",
"c@	c #AD884C",
"d@	c #A27938",
"e@	c #AA8746",
"f@	c #A78042",
"g@	c #A88344",
"h@	c #AB8946",
"i@	c #B29250",
"j@	c #AA834C",
"k@	c #AA8645",
"l@	c #B29151",
"m@	c #AB8747",
"n@	c #A68041",
"o@	c #A98444",
"p@	c #A98546",
"q@	c #AB874B",
"r@	c #AE8A4D",
"s@	c #AE8B4F",
"t@	c #B0914E",
"u@	c #A77F44",
"v@	c #AB8948",
"w@	c #A6813F",
"x@	c #A88244",
"y@	c #A07837",
"z@	c #AD8A4A",
"A@	c #A68240",
"B@	c #AD8C4B",
"C@	c #B0914D",
"D@	c #B19251",
"E@	c #A5803E",
"F@	c #AC894A",
"      . + @ @ @ @ # $                 % & * @ @ @ @ @ @ @ @ @ @ = @ - ; > , ' ) ! ~ { ] ^ / ^ ( ] ] _ { : < [ } |                   ",
"  1 2 3 4 5 6 7 8 * 9 0 a b c d e f g $ h i j k l m 6 6 6 6 n o p n q r ] s [ c t   : } ] u v w ^ ^ x y { } y z < b b b b c c 2 |   ",
"  A B y C D D E F g . G H y ] I J K @ @ L k M N 5 O > P D D Q R S T r U < < c :     t A c c { _ V / ^ w ] B { } y _ _ _ _ _ _ B 2   ",
"  2 W v X X Y Z H b `  .W u x ..+.@.#.$.8 m m 6 %.&.v P P ] W A A *.=.-.f ;.;.;.;.>.;.,.    | H ] v v v ] W < } _ ( V ^ ^ '.).!.~.;.",
"  | b {.s w [ ].z _ _ y {.} ] ( =.^./.(.J E _.:.=.{ { P P <.c | P P [.@.}.}.}.}.}.}.h $ %     A |.< < < { B [ W H [ w 1.^ 2.%.3.4.* ",
"  5.a { y _ } |.6.7.2.C 8.~.9.0.9.a.b.  < Z v ] B a     P <.0 . P P <.k c.d.m m m m 3.R : |             | { y z < } _ v 2.e.f.k k k ",
"  2 } g.} ].z h.i.j.k.l.m.n.o.p.o.h /.q.2 < ].{ b 1     P <.;.r.P P <.M s.t.u.v.v.w.' &.W c t x.x.x.x.x.  a { B [ z y.8.q 7 z.j j A.",
". 3 W I B.~ =.:.l.c.k c.s.C.m m C.n D.E.: t 0 a.. . . . P <.F.#.P P <.s.G.> X ^ X X H.^ w B ` A A A A |   ,.,.I.J.=.K.L.M.N k N.O.M.",
"# P.Q.B.R.S.p.p.T.k U.c.l.V.u.W.X.u.Y.Y.{ t $ h Y.Y.* * P <.= i P P <.Z.D ..^ 1.1.1.1.`.^ v y [ y y g.< t 9 h o.G.[. +#..+M A.M.++@+",
"#+@ @+$ $+i N.N.k #+%+6 u...H.X X X Y.&+[ Y.Y.$+Y.&+Y.C.P <.d.M.P <.l.' ..x V w Y Y Y Y ( w x w Y w w [ d *+n C.C.=+-+;+L L L # g q.",
"j i = = >+M U.U.U.%+l.u.,+^ 1.1.1.1.Y.'+)+Y.)+Y.'+&+Y.Y.Y.Y.Y.D.P <.T U z Y w y ].].].].B s x ] z ] x Y y !+u.O V.~+{+L.L.L.]+$ ^+  ",
"O./+d.(+s.s.s.s.s._+V.:+X V x w Y.Y.Y.'+)+Y.'+)+'+)+Y.)+)+Y.)+Y.P <.y { { y _ { 5.0 <+,.[+*.}+|+3 y.v ( Y v v v ] 6.E.0 G G G G : : ",
"L.{+~+e.e.e.e.e.e.Q !.W s w _ {.Y.'+)+'+'+)+'+)+)+)+'+'+)+&+'+Y.P <.B W W {.{ 1+,./.2+3+++4+j.5+6+S 7+} } } } {.} 8+| 2 } [ [ g.g.g.",
"G 9+0+v a+'.'.'.w b+y.b [ Y B a 5.Y.'+)+'+'+)+)+)+)+&+&+&+)+'+)+Y.c c [ y < 5.% g c+>+#+i /+d+s.e+D.E.a | 1 1 1 1 | : { _ w w w Y Y ",
"[ z f+y w 1.1.1.1.w H A z Y B | x.q.Y.'+'+'+)+)+'+'+)+&+&+&+)+Y.<.: : { g+2 ,./. +L k h+.+= i+j+k+l+m+c   n+x.n+  ` } z z _ x w y {.",
"o+0+c c y w X w X v { A B ] H 0 ,.Y.)+)+)+'+)+&+)+)+'+)+)+&+)+&+p+0 ,.0 0 q+g c+i k k #+M.r+~ 6...X Y W 2 | | t t |.}+6.s+t+}+}+c | ",
"u+v+K.| < } B B f+} ` |  .y.) Y.Y.Y.'+)+&+)+)+&+)+&+)+'+p+p+P )+p+F.2+2+++++# L A.M N.@ r+Q.W Y ^ 1.^ v z B } c 5.w+~+j+x+y+z+J K.  ",
"d.S.! | a a G e e e 0 % 0 A+B+Y.'+Y.)+p+p+p+p+p+p+p+)+'+p+P p+&+p+C+d+M.M.;+L D+i i #.r+~ {.v w X V ^ V w X ( g.A ^.E+(+d.d.8 F+f   ",
"h {+I.{.B t+G+r.2+H++ + + h I+J+Y.)+p+P K+L+L+K+K+P p+)+p+P p+p+p+~+q y+++h h 2+2+h r+M+} z W B g.v ^ 1.1.1.^ Y W N+O+P+P+P+P+~+K.  ",
",.E.W Y ( &.j+$.M.d+d+d+d+d+/+%+z.Y.p+P K+L+L+K+K+P p+p+p+p+Q+p+p+0+h.s+,.,.R+R+R+<+E.W ] B ` | A B ..w '.'.'.w Y v o+:+:+o+:+h.A   ",
"  a H [ [ U S+F+G.T+Z.T+T+T+Z.Z.Z.t.p+p+p+p+p+p+p+p+U+Q+&+<.U+p+p+p+p+p+p+p+p+p+p+p+p+p+x ] } 2 5.M++.e.e.V+e.E W+z z z z [ [ ].a   ",
"  t | : a G 0 [+X+,+:+,+,+,+o+o+Y+,+U Y.Z+K+U+U+Z+K+U+U+)+<.Q+p+<.p+<.<.p+P K+K+K+P <.<.p+p+p+{ R+r+8 s.s.T.`+ @3 2 2 2 2 A a | t   ",
"    x.x.x.x.x.| { [ [ [ [ _ ( ^ 1.^ ] Y.Z+L+.@.@Z+L+Q+Q+&+p+p+p+p+p+P <.<.P P P P <.<.<.P P K+<.p+p+k U.k =+k.+@7+H y.H y.c 1 x.x.  ",
"q.    t t t t 1 a 2 2 A a d W w ^ V w Y.U+.@.@.@.@.@U+Q+Q+p+Y.<.p+<.P <.p+<.<.<.<.<.<.p+p+p+<.<.<.p+<.<.p+p+, v ..Y Y Y s z ` t t t ",
"@+^.B.y.H y.y.y.y.{ { c A+(.Q.W y [ y p+Q+U+.@.@U+Q+Q+Q+Y.Y.Y.p+<.P P P <.p+<.p+p+p+p+p+<.<.p+p+p+p+P P K+K+p+s ^ `.^ w _ z } { { { ",
"M.5+' v Y s s v v s Y }+@@K R.E.2 A A A Y.Q+U+U+U+U+Q+Y.p+Y.<.P P P <.<.<.p+p+p+p+p+p+p+p+p+p+p+p+<.p+p+Y.P P p+( ^ V _ { { _ Y Y Y ",
"* #@N+y _ y y y y _ w a+$@z+%@c 2   ;./.Y.p+Y.Y.Y.Y.Y.<.p+Y.p+<.<.<.<.p+p+p+p+p+p+p+k.&@k.k.Y.p+p+p+Q+Q+.@Y.Y.Y.[ y y H a < s 1.1./ ",
";.,.G 2 ` 2 2 2 2 < *@w =@).:+] ].e Y.Y.Y.<.p+Y.Y.<.Y.<.P P <.p+Y.Y.Y.Y.Y.p+p+p+p+-@2.2.2.2.2.2.p+p+Y.Y.Y.U+.@L+Y.2 2 | t |.] ^ ^ ^ ",
"                x.| y.y _ ] Y.Y.Y.Y.p+P <.P <.Y.Y.Y.<.Y.<.<.P p+;@;@;@;@;@;@Y.Y._ _ _ _ _ _ _ _ *@p+.@.@U+Y.Q+U+.@Y.  ^+g >@,@'@'@'@",
"                  t : ` Y.Y.<.<.<.<.Y.<.p+<.p+p+p+Y.Y.;@&+<.K+p+Q+Q+Q+Q+Q+;@;@Y.` ` ` ` ` ` ` b ` : Y.Y.Q+Y.Y.Q+U+Y.  )@# p m 7 7 7 ",
"                        Y.<.P K+P p+p+p+p+Y.Y.Y.Y.Y.;@Q+&+<.P P p+Q+Q+&+Q+;@;@Y.$ $ $ $ $ $ $ $ )@. 0   Y.Y.  Y.Y.Y.  g h @ @ }.}.}.",
"                        Y.Y.Y.<.<.<.p+p+Y.Y.A 5.    Y.;@&+)+<.K+p+)+)+&+Q+Q+&+Q+p+!@!@!@!@!@!@#.}.@+%                 ,.;.g )@)@)@)@",
"                    Y.Y.Y.Q+Q+Y.Y.p+Y.Y.              Y.;@&+<.P p+&+&+&+&+&+Q+Q+p+k k k k k k A.>+r.,.                              ",
"          ;.* .+A.k Y.Q+U+.@.@U+Y.Y.                    Y.Q+p+P P p+&+&+Q+Q+Q+Q+&+p+                                                ",
"  % . >.g @+@ k j Y.Q+Y..@Q+.@Y.Y.          ,.;.g g . %   Y.Q+p+K+p+Q+;@;@Q+&+&+;@<.Y.c b b b b b c c c b a   ^+;.. q.              ",
"  . r.}.}.$.>+k j Y.Y..@Y.Y.U+Y.{ 1       q.$ # @ }.L.~@  Y.;@p+<.P p+;@;@;@;@<.<.Y.Y.] _ _ _ _ _ _ _ ] y ].5.$ h L.^+              ",
";.@+!@k k #+L $.8 Y.Q+Y.w x Y.] {.c ` b b A G+n.M.@ r..     Y.Y.<.Y.<.Y.Y.Y.<.<.Y.Y.Y.x ^ ^ ^ ^ ^ w v v ] z c ^. +r.~@              ",
"$+!@i A.j D+h *+{@' Y.} ] ]@*@H {.y _ _ _ y t+G+/.^@;.% Y.Y.Q+Q+Y.Y.Y.<.Y.Y.Y.Y.Q+Q+Y.] ^ `./ / V _ y.< { B [ t+G+;.%               ",
"#.#.M.M.M.* $ E.B y } < W _ {.< [ w w Y w w [ a x.  Y.Y.Y.Q+Q+&+&+Q+Q+&+Q+Q+Q+Q+Q+Q+Q+Y.7.2.2.o+] H | | b {._ } | x.  | A : t 5.a 2 ",
"/././././.$ ^+1 b y.z [ } y.{.y ( V ] B _ w y 2 Y.Y.&+)+&+&+Q+Q+&+&+Y.&+&+Q+Q+Q+&+&+&+Y.l.l./@%@c 2 | |.z W y.` 1     b B } a 2 B y ",
";.. ,.  | : 5.t : c g._ }  .B ] Y+).N+w+(@&.!.Y.Q+&+)+&+&+&+&+Q+Q+&+Y.&+Q+&+Q+&+&+Q+Q+Y.$.8 n D.0   1 y.y } :       t |.y [ < { y s ",
"# L.. a } B b a { z B } W [ f+y._@q - K o.G.Y.Q+&+)+)+)+&+Q+Q+Q+Q+Q+Q+Y.;@Q+Q+Q+&+&+&+Q+Y.~+Q Q.  x.  2 < `   x.      a < {.[ [ } ].",
".+@ $ A z [ d ~ m+y t+~ m+y U A+++/+#+N.D+M.Y.Q+&+)+)+&+&+&+&+&+Q+Q+Y.Y.;@Q+Q+Q+&+)+)+&+Q+Y.Z } 2 a a A 2 2 a t ,.,.    5.c &.!+3 a.",
"M #.9 | 8+:@<@[@M+t+}@x+) t+|@h ;+k h+k #.B+Y.Q+)+)+)+&+&+&+Q+Q+Y.Y.r.h Y.Q+Q+&+&+)+)+&+Q+Y.].W [ [ [ [ [ [ W 1@2@F.^+    K.3@4@5@c+",
"s.E+S a 2 K.K $.r+>.++6@r+^.++D+k k #+;+++a.Y.Q+&+&+&+&+Q+Q+Y.Y.C+! 7@C+Y.Y.Q+&+)+)+)+)+&+Y.b B v w X w Y w 8@E 9@x+a.  ^+@+@ c.N.N.",
"e.E !+z z 9.0@i #.3++ r.++c+;+J+h+.+@ B+g 0 2 Y.Q+&+&+;@Y.Y.;@;@Y.|+7+R {+Y.Q+&+)+)+)+)+&+<.z B B ] x u z _ X ,+E _@e ;.r.= .+U.h+M ",
"v ..w x V 2.a@s.L 6@R.a.b@$./+l %+M.r..     1 A Y.Q+&+&+Q+Q+;@Q+Y.[ y |.c@Y.Q+&+)+)+)+)+&+;@p+y.A {.] B ` H v ..,+X+e ^@4.s.s.d@d@d@",
"{.[ w / / a+D e@f@{+8.U ) [@g@e@g@@+g 0   1 b } f+Y.Y.Q+Q+Q+&+Y.Y.B B z z z Y.;@&+)+)+&+Q+Q+p+~.  ` { b 1 2 y.N+O+4@F+#@%.h@h@h@i.i.",
"A { _ w ^ ^ X :+7+A B i@y.s+m+}+U e %   % 0 t+}+6.s+Y.Q+Q+&+Y.<.Y.Y.c [ y < Y.;@&+&+&+Q+;@Q+p+R.t a a | t 1 t (.n.-+(+q 0.......v o+",
"B B B [ Y ^ 1.V ] z B B W z z B 8+| j@  ;.r+ @Z.j+x+G+Y.Y.Y.<.Y.Y.Y.a { ].2 ,.Y.;@Q+Q+;@Q+Q+p+-.m+B } c t x.% )@L.#@k@T 6.] V ]@l@z ",
"o+I |.c y w x w w ] { b B _ } a   % % ^+L.#.%+d+s.d.x+<+Y.<.Y.Y.Y.Y.q+0 e 0 >.Y.;@Q+;@Q+&+&+p+B Y x Y B A 1 |   0 I.&.!+B.|.Z y c | ",
"h@m@K.| < B W W z } ` | < } 8+  )@L.B+r.@ i O.# n@z+F R+Y.Y.<.Y.<./.r.+ r.r. +Y.;@;@;@Q+&+Q+p+s ^ `.^ ] W } } c | w+k+o@r+#@3@v+e   ",
"d.S.! | a A a : : |   0 e t t ~@B+M.>+D+i D+c+f t+}+0+Y.<.<.Y.<.Y.C+d+M.M.M.L Y.;@;@Q+&+Q+Q+&+p+x V ^ x w w Y z A ^.E+(+d.d.8 F+f   ",
"3+P.8.m+} < : x.x.% $ L.r.r.L.++@ k h+k L # /.0 ].( Y.<.<.<.Y.Y.Y.3@/@F+h h h Y.;@;@Q+Q+&+Q+Q+p+[ s ^ / / `.^ s W 9.%.t.T+T+T+p@R+  ",
"~@q@I ( w _ { 1   ,.B+$.M.M.M.;+D+i .+D+C+f 0 t { v Y.U+<.U+Y.Y.c 0+&.B.,.^+~@. Y.Y.Q+Q+Q+&+Y.Y.A W w V x V x w Y v :+:+o+o+,+h.d 5.",
"  c ] ^ / w y { a 0 >@/@-  +c+# h h h i+|@r@8+| b B u Y.Y.Y.Y.g.[ w ]@*@s@1+0 g @+Y.Y.Y.Y.Y.Y.r.@+M+{.[ [ [ [ [ [ [ y s V ]@_ z } ].",
"  b _ V ^ ^ w _ < A m+t@t+<+. . . f ;.a.t+y m+G   E.H v X V w Y Y X X Y y c f h M.Y.<.<.P <.Y.M.$+R.E.2 a a a a a a A } v _ { { y s ",
"  2 } _ w ^ / X y B v x _ ].2 t . u@@+u@p@+.~+R.L.F.}@v@' 0+y y y y 0+:.+.}@++;+N.Y.Y.<.<.Y.Y.k.q +@|.2   x.x.x.x.x.  b B ].a 2 } y ",
"0   G r@_ V ^ x ( Y w x w ] { 0 L.@ L M.d.C.8 $.#.$.d.`+#@w+2 2 A A ~.y+C.d.M.i M.Y.<.Y.Y.Y.<.Y.,+Y+] } :   t t t     t : G   t : A ",
"@+F.F.G+|+[ *@*@l@l@*@*@_ 0+B.^@}.N.M k T.w@k.k.k.k.&@G.x@,.x.x.^+)@L.h K 9@p.S.x+Y.<.Y.<.<.Y.Y./ `.^ _ ].{ { { { 3 (.F.F.F./.)@^+x.",
"$.!@!@C+S A ` A A A A A 2 E.P.$.i k A.y@k._.2.2.2.2.2.2.*.A     ;.h * @+K.=.r 1@K.Y.<.Y.Y.Y.Y.Y.^ ^ V w Y s s Y ] z@o.#.#.#.$.++f   ",
"l.A@l.q 8.d A+^@/././././.]+}..+M #+T.l.+.I ( V w u s V s {.{ < M+2@++;.2 f+B M+G+Y.<.<.Y.Y.<.Y.y _ _ Y ^ / ^ w i@B@a@A@A@A@l.o@B.{ ",
"C@C@C@2.:+0.j+@ #.#.#.#.!@M.D+.+j %+/@:.m+r@z Y _ { B Y x Y v u W 3 . % 5.A [+x+p Y.Y.<.<.<.Y.Y.A ` c [ w / V D@{ 7+C C@C@C@C@2.:+v ",
"_ _ _ ] ] 6.g@* }.}.}.}.}.}.}.}.@  +J W ].a  .[ } a b g.] ] ] _ z ` % ;.$ $ L.#.c.Y.Q+Y.Y.Y.U+Y.% x.t < y ] y y.: c [ ] _ _ _ _ _ _ ",
"c c c c c A <+g )@g g g g g g g g f e A a t | 2 a t | 2 c c c c 2 | . ++@ !@M.i s.Y.U+Y..@U+Y.Y.t x.  : ` c b a t | ` c c c c c c c ",
"      % ;.$ $ $ $ g ,.                  ,.>.)@)@)@$ $ $ $ $ $ $ )@$ u@[.E@E@_+e+F+F@Y.Y.Y.Y.Y.[ < c c : t : b A t                   "};
