/* XPM */
static char * p_mov_down_left_0_xpm[] = {
"66 66 346 2",
"  	c #B08E4F",
". 	c #B19050",
"+ 	c #B39552",
"@ 	c #B59853",
"# 	c #B69954",
"$ 	c #B59753",
"% 	c #B29351",
"& 	c #B08F50",
"* 	c #B08F4F",
"= 	c #AD894E",
"- 	c #AB854C",
"; 	c #AA834C",
"> 	c #AA834B",
", 	c #A88047",
"' 	c #A67E42",
") 	c #A78143",
"! 	c #A98644",
"~ 	c #A88343",
"{ 	c #A57E41",
"] 	c #A88246",
"^ 	c #AD8B4C",
"/ 	c #AE8B4E",
"( 	c #AC864C",
"_ 	c #AF8C4F",
": 	c #AC874D",
"< 	c #A98249",
"[ 	c #A67E45",
"} 	c #A57C41",
"| 	c #A47B3F",
"1 	c #A17839",
"2 	c #A07635",
"3 	c #A1783A",
"4 	c #A57D41",
"5 	c #AA8649",
"6 	c #AF8D4E",
"7 	c #AF8D4F",
"8 	c #AD894D",
"9 	c #AA844B",
"0 	c #AA824B",
"a 	c #A9824A",
"b 	c #A77F46",
"c 	c #A57D42",
"d 	c #A68042",
"e 	c #AA8645",
"f 	c #AD8B4A",
"g 	c #AF8E4E",
"h 	c #B49653",
"i 	c #B29151",
"j 	c #B29450",
"k 	c #B1904F",
"l 	c #AD8A4D",
"m 	c #B19150",
"n 	c #B49652",
"o 	c #B49753",
"p 	c #AD884D",
"q 	c #B29251",
"r 	c #A98149",
"s 	c #A17837",
"t 	c #A27939",
"u 	c #A27A39",
"v 	c #A27A3A",
"w 	c #A98349",
"x 	c #AB844B",
"y 	c #AA834A",
"z 	c #A9834A",
"A 	c #AA844A",
"B 	c #A88046",
"C 	c #A37B3E",
"D 	c #A07737",
"E 	c #A07636",
"F 	c #AA854A",
"G 	c #AC874C",
"H 	c #AB844C",
"I 	c #AC894B",
"J 	c #B0904E",
"K 	c #AF8E4D",
"L 	c #AC884B",
"M 	c #B19250",
"N 	c #AB8946",
"O 	c #AB8747",
"P 	c #AA8449",
"Q 	c #AE8A4E",
"R 	c #AC884D",
"S 	c #A2793B",
"T 	c #A07738",
"U 	c #A68041",
"V 	c #A98544",
"W 	c #AA8547",
"X 	c #AA8349",
"Y 	c #A88148",
"Z 	c #A67E44",
"` 	c #A47C41",
" .	c #A47B3E",
"..	c #A17738",
"+.	c #9F7533",
"@.	c #9E7432",
"#.	c #9F7535",
"$.	c #A2783A",
"%.	c #AB8649",
"&.	c #B39452",
"*.	c #B69953",
"=.	c #AA8549",
"-.	c #AB8847",
";.	c #A98444",
">.	c #A98545",
",.	c #AA8747",
"'.	c #A47D3F",
").	c #A88247",
"!.	c #AB864C",
"~.	c #A98148",
"{.	c #A07637",
"].	c #A37A3E",
"^.	c #A88147",
"/.	c #AD8A4C",
"(.	c #B1914F",
"_.	c #B0904F",
":.	c #A47C3F",
"<.	c #B39451",
"[.	c #A88146",
"}.	c #A47D3E",
"|.	c #A27B3A",
"1.	c #A37B3B",
"2.	c #A57E40",
"3.	c #A37B3F",
"4.	c #A67F43",
"5.	c #AC884A",
"6.	c #A77F45",
"7.	c #A47C40",
"8.	c #9F7534",
"9.	c #B49552",
"0.	c #AD8A4E",
"a.	c #A88342",
"b.	c #A67F42",
"c.	c #AB874A",
"d.	c #B59953",
"e.	c #AD8A4B",
"f.	c #AA8745",
"g.	c #A98543",
"h.	c #A98643",
"i.	c #A98546",
"j.	c #AB874B",
"k.	c #A2793A",
"l.	c #A17739",
"m.	c #AF8D4D",
"n.	c #AF8C4E",
"o.	c #AB854B",
"p.	c #B29350",
"q.	c #B2934F",
"r.	c #B08F4E",
"s.	c #AC884C",
"t.	c #A98446",
"u.	c #A57F40",
"v.	c #A57C40",
"w.	c #A98447",
"x.	c #AE8A4D",
"y.	c #080808",
"z.	c #B39351",
"A.	c #B19151",
"B.	c #AE8B4F",
"C.	c #AC864D",
"D.	c #A78046",
"E.	c #A67E43",
"F.	c #A57D43",
"G.	c #A78043",
"H.	c #AA8646",
"I.	c #A88345",
"J.	c #AF8E4F",
"K.	c #B0914E",
"L.	c #A98248",
"M.	c #EF7B00",
"N.	c #CE3900",
"O.	c #B49752",
"P.	c #A37B3A",
"Q.	c #A37C3B",
"R.	c #A37A3C",
"S.	c #A78044",
"T.	c #AB864B",
"U.	c #A77F44",
"V.	c #AC8948",
"W.	c #EFEF00",
"X.	c #AE8E4B",
"Y.	c #A68040",
"Z.	c #A78341",
"`.	c #A88442",
" +	c #A88341",
".+	c #A88443",
"++	c #AB8848",
"@+	c #A98448",
"#+	c #AE8C4C",
"$+	c #B1914E",
"%+	c #B1934F",
"&+	c #B39450",
"*+	c #A67D43",
"=+	c #AE8B4C",
"-+	c #8C1800",
";+	c #BD6B39",
">+	c #DEAD7B",
",+	c #292929",
"'+	c #B18F50",
")+	c #B59854",
"!+	c #AB864A",
"~+	c #A78045",
"{+	c #A98347",
"]+	c #EFDEBD",
"^+	c #4A4A4A",
"/+	c #181818",
"(+	c #AB8749",
"_+	c #AD8A4A",
":+	c #A57E3F",
"<+	c #A78240",
"[+	c #A68240",
"}+	c #6B7B7B",
"|+	c #AD8B49",
"1+	c #A98547",
"2+	c #A88145",
"3+	c #AA8647",
"4+	c #AE8D4B",
"5+	c #B29250",
"6+	c #AD8C4B",
"7+	c #A88543",
"8+	c #B0914D",
"9+	c #B1924E",
"0+	c #AF8F4D",
"a+	c #A27A3B",
"b+	c #A47D3C",
"c+	c #A57F3F",
"d+	c #A98346",
"e+	c #B19251",
"f+	c #AE8B4D",
"g+	c #B0904D",
"h+	c #A88344",
"i+	c #A37A3D",
"j+	c #A2793C",
"k+	c #A07736",
"l+	c #A6803E",
"m+	c #A6813F",
"n+	c #A6803F",
"o+	c #A68140",
"p+	c #A88245",
"q+	c #AE8C4E",
"r+	c #AA8744",
"s+	c #AF8F4C",
"t+	c #AD894C",
"u+	c #AC894A",
"v+	c #A67F45",
"w+	c #AB854A",
"x+	c #A78243",
"y+	c #A57F3E",
"z+	c #A57F3D",
"A+	c #A47E3D",
"B+	c #AF8F4B",
"C+	c #AD8C4A",
"D+	c #A47C3E",
"E+	c #9E7433",
"F+	c #0018EF",
"G+	c #B39551",
"H+	c #A47C3D",
"I+	c #B49651",
"J+	c #B1924F",
"K+	c #AA8448",
"L+	c #AE8D4C",
"M+	c #AF8E4B",
"N+	c #A37C3D",
"O+	c #A88048",
"P+	c #AC8A47",
"Q+	c #A37D3B",
"R+	c #B09050",
"S+	c #AB8947",
"T+	c #A57D3E",
"U+	c #A37B3D",
"V+	c #AA824A",
"W+	c #A07836",
"X+	c #9F7433",
"Y+	c #A47D3D",
"Z+	c #A78144",
"`+	c #B08F4D",
" @	c #9F7634",
".@	c #A27B39",
"+@	c #9E7332",
"@@	c #AC8A48",
"#@	c #AD8C49",
"$@	c #AD8B48",
"%@	c #AF8E4C",
"&@	c #A78241",
"*@	c #9F7635",
"=@	c #B59752",
"-@	c #A17939",
";@	c #A2783B",
">@	c #A88244",
",@	c #AC8B48",
"'@	c #A17838",
")@	c #A57E3D",
"!@	c #AC8A49",
"~@	c #B08E50",
"{@	c #B39651",
"]@	c #B29451",
"^@	c #A78142",
"/@	c #A78242",
"(@	c #A9824B",
"_@	c #AC874B",
":@	c #AA8845",
"<@	c #AA8548",
"[@	c #A78042",
"}@	c #A67F41",
"|@	c #A98348",
"1@	c #A47B40",
"2@	c #A47B41",
"3@	c #A1773A",
"4@	c #9F7434",
"5@	c #AD8B4B",
"6@	c #AB8846",
"7@	c #AE8C4D",
"8@	c #AE8D4D",
"9@	c #6B0000",
"0@	c #A98247",
"a@	c #A5803E",
"b@	c #A67F40",
"c@	c #A98645",
"d@	c #AE8D49",
"e@	c #AB8748",
"f@	c #AA8846",
"g@	c #B39550",
"h@	c #AC8B49",
"i@	c #AE8E4A",
"j@	c #A88149",
"k@	c #A17938",
"l@	c #AC8949",
"m@	c #AB8849",
"n@	c #AC874A",
"o@	c #A3793D",
"p@	c #A67F44",
"q@	c #AC894C",
"r@	c #A88144",
"s@	c #AC8947",
"t@	c #A67E41",
"u@	c #A57D3F",
"v@	c #A27A3C",
"w@	c #B39652",
"x@	c #A57E3E",
"y@	c #AE8D4A",
"z@	c #A68043",
"A@	c #A57E42",
"B@	c #AD884C",
"C@	c #A27938",
"D@	c #AA8746",
"E@	c #A37B3C",
"      . + @ # $ % &     * & &   = - ; > , ' ) ! ~ { ] ^         / ( ( / _ : < [ } } | 1 2 3 4 5 6   7 8 9 0 a b c d e f g % $ h i & ",
"j k l 8 m n o n n % / p   q 7 ( > a a r c 3 s t u v { w - - - - x y z y A y B C D E E E 1 c F   + o +   G H - > y I J K L l M m 8 - ",
"N O P - Q   * * & 7 R - Q 7 = > b c 4 } S E T C U V W X 0 0 0 0 Y Z } ` } }  ...+.@.#.$.{ %.  &.@ *.@ % * 7 7 8 - =.-.;.' d >.,.A > ",
"v '.).- ( G ( !.!.- > y A 9 9 ~.4 1 {.D E D ].^./.(._.R x x H > , :.t 1 1 1 ..{.E 2 1 c F 7 <.n o $ @ o n n + & G [.}.|.v v 1.2.^.> ",
"3.4.5.6 7 Q !.0 0 a 6.c } } c 7.S 8.@.8...C Z y _ 9.+ & 7 7 0.- X >.a.2.| | | | 7.| b.c.7 & . . . &.@ d.d.*.@ &.* e.f.g.h.h.h.i.X > ",
"~.j.k 9.n q / H > < 4 k.1 1 1 l.D E #.D :.^.y 9 / <.o n n 9.m 8 8 _.J L < r ~.Y Y , P m.m n.!.o.G * n $ o $ o n + <.p.p.j j q.r.s.x ",
"> 8 % @ d.n m / ( y t.a.u. .].C | | | v.w.x.= - p y.z.$ # d.y.y.. n h A.B.C.y D.E.F.G.H.-.I.c } E.%.J.. . . . . . . m &.$ h q & 7 _ ",
"> p q $ @ @ n q Q G 6 K./.w Y Y Y ^., L./.m 6 o.y.M.y.y.y.$ y.N.y.O.O.+ m 8 ^.| 1 ..1 P.Q.v k.1 R.S.T.: ( ( ( ( ( ( G 7 <.q / / m &.",
"> : 7 q n @ d.O.m   <.o q _ : 9 Y U.E.U.i.V.H.y.y.W.y.y.N.y.W.M.y.y._.X.V.y.y.y.2 1 C Y.Z.`. +Z..+++l : > 0 0 0 0 0 > p   _ ( : 7 m ",
"y > o.x.q $ @ o 9.+ y.y.y.y./ y c S ..1 v Q.y.M.y.W.y.y.N.M.W.M.y.N.y.y.y.M.N.y.1 4 @+#+$+q.%+%+q.&+% 7 !.> 9 9 9 > > 9 !.o.> 9 !.G ",
"E.*+*+] =+. A.y.y.y.-+;+>+;+y.y.y.y.y.y.y.y.N.W.M.W.M.M.M.W.W.M.N.M.M.W.W.M.,+,+{ =.n.'+q h )+# d.*.@ q _ / / / / !+~+*+*+*+Z b r 0 ",
"k.$.$.:.{+G y.-+;+>+]+]+;+y.,+^+,+,+,+,+/+/+y.M.W.M.W.W.M.W.W.W.M.W.W.W.M.N.y.(+P m.m 6 x.. O.@ @ @ $ n + &.&.+ % _+:+3 3 3 k.7.^.> ",
"<+[+<+.+5.s.y.y.y.-+>+>+-+y.^+}+}+^+/+/+,+/+M.,+M.M.W.W.M.W.W.W.M.W.W.M.M.N.,+%.] ++|+1+2+3+4+J m q q + @ d.@ n 5+6+7+[+[+[+<+;.L / ",
"8+8+8+9+p.0+~ S y.;+>+-+y.,+^+,+,+/+y.y./+,+y.M.y.M.W.W.M.W.W.M.W.M.M.W.W.M./+^+a+Q.b+1.S 1.c+d+G R 8 . n d.$ e+/ f+g+8+8+8+8+9+p.<.",
"q q q % % g h+i+j+y.y.y.y.y.y.y.y./+y.y.y.y.M.W.M.N.M.M.W.M.W.M.M.W./+/+M.W.M.,+k+Q.l+m+n+n+o+p+a 0 9 Q m % m q+!.8 . % q q q q q q ",
"8 8 8 8 8 G w D.b D.D.D.D.D.D.D.D.y.y.y.y.y.N.y.N./+/+/+/+/+/+/+N.W./+^+/+N./+E u r+s+8+g+8+s+t+9 0 > !.R 8 p ( 9 - R 8 8 8 8 8 8 8 ",
"> > > a , 6.6.6.6.D.< > > > > > > > > > y.y.y.M./+^+}+]+]+}+}+^+/+M./+^+/+/+M./+2.u+% h @ d.o . Q 8 8 !.9 !.p G 9 > > > > > > > > > ",
"> > > Y ` S S S S C 6.> > > > > > > > a v+i+y.W./+^+}+]+]+}+}+^+/+/+/+/+-+/+N./+^+w+/ % @ d.@ 9.% % q / !.Q . 7 - > > > > > > > > > ",
"> H : !+x+y+z+A+1.i+[ y ( p 8 s.A ^.D.6.| E y.M./+/+/+/+/+/+/+/+;+-+N.,+;+/+,+/+,+> !.7 % z.<.n @ @ o m / 7 m & Q p p p p 8 8 : - > ",
"> G   m g+B+B+C+W D.Y o.n.m % k 3+D+S S ..8.E+y.y+y.F+}+;+;+F+}+;+;+M.,+-+/+^+/+/+/+9 G 8 8 / q $ d.@ n %   / 7 m q q q q q q   : > ",
"> : * <.O.O.+ M n.p R 0.* z.o G+V.H+3 k.1.b+b+z+f.y.F+]+>+>+F+]+-+-+N./+/+/+/+/+,+/+/+< > > - n.% <.<.<.% * Q 7 q 9.$ @ @ I+J+#+K+, ",
"> - p J.&.n . _ & q q m J.7 % 9.L+[.Z ~+3+C+M+X.L+y.;+>+>+>+>+>+;+-+-+/+y.,+/+,+^+,+y.y.a > > G l Q Q Q /   . * n.. n # @ 9+f.c+N+i+",
"> x ( / m q 7 l g $+9+g+5.K+e.0+e.L.O+> Q M <.%   /+-+;+>+>+;+-+-+-+y.y.y./+,+^+}+}+}+,+y.- > > > > > > - / m & Q 7 q <.9+P+Q+8.8.8.",
"> : 7 R+7 _ & r.S+`.Z.<+T+U+:+o+:+| Z V+: Q _ / p H y.-+;+;+;+;+-+y.,+y.,+^+}+}+}+^+^+^+y.8 9 0 0 0 0 0 > ( /   . & q+5..+A+W+X+X++.",
"Y !+* k L w+L+X.<+k+8.k+u Q.b+b+Q.Y+Z+T.!.9 y L.Y Y Y y.y.y.y.y.y.,+y.y./+,+^+^+^+^+}+}+,+y.R G G G G - > < < I `+L+P c 1  @8.2 T 1 ",
"C 4.c.L S.'.o+o+.@8.+@k+<+@@#@|+$@#@%@* / 9 6.| i+i+i+i+y.y.y.,+y.y.y.,+^+^+^+}+}+}+}+}+^+y.m . m m R+Q 9 [ | :+&@Y. .3 #.E++.1 7.E.",
"*@S E.6.R.E 2 2 8.*@s z+#@G+=@O.O.O.$ n . s.~+R.t P.Q.Q.Q.y.y.y.y.y.y.y.,+,+,+,+^+^+^+}+}+y.o n + n n . s.2+Y+Q.Q.P.-@l.......C D.V+",
"X+E ;@;@{.E++@+@+@s <+#@q.@ # # # # # @ 9.. 5.~+>@S+,@,@,@y.-+,+,+-+-+y.y.y.y.y.,+,+^+}+}+y.o % & % o + m K #@,@@@H.G.c c c F.6.r > ",
"T '@v |.u u u u u )@@@p.O.$ o n 9.n n 9.9.<.  s.f+M G+n O.n y.-+,+,+N.N.-+y.y.,+,+^+}+}+^+y./+=+!+q+<.9.+ <.<.<.% g T.y o.o.o.o.!.!.",
"c G.H.P+P+P+P+P+P+!@#+* &.n q J._ 7 7 7 7 7 & . & ~@q o # # y.-+,+,+-+-+-+-+y.y.y.,+^+^+^+y.-+/+/+{+f+7 7 7 7 J.7 = - : 7 . . R+R+R+",
"o.t+_.<.{@I+I+I+n ]@q+p . +   ( x x 9 y w A /.(.m.j.l q n y.-+y.-+,+-+N.N.N.-+y.y.,+,+^+,+y.-+N.-+/+/+( - H H H H - !./ q n n n + + ",
". & ~@m n # # # # n n.G & +   - 0 V+b } | 7.^@V /@4 2+/.y.-+-+y.,+,+,+-+-+-+-+y.y.,+^+,+/+y.-+-+N.N.-+/+/+(@0 (@> R 7 & & q o n m J.",
"j _.8 8 m n O.n O.<./ G   % n.y < Y } l.E E ..t t v { y.-+N.-+-+y.y.y.,+,+,+y.y.,+,+,+y.y.y.N.N.N.N.N.N.-+y.- 9 9 l (.g _@/.(.(.8 - ",
":@,.P - Q 7     ~@7 R - 0.q+<@' ` 7.S *@E+8... .[@! y.N.-+N.-+-+-+-+-+y.y.y.-+y.,+,+y.y.,+y.N.M.M.M.M.M.N.N.y.8 x =.H.~ { }@V 3+P > ",
"v '.).- ( ( o.A A A y a y |@4 ..E E 2 8.8.D | ^.l J+y.N.-+M.N.N.-+-+N.N.N.N.-+y.y.,+,+^+y.y.-+N.M.M.M.M.M.M.N.y.G [.}.|.v v 1.2.^.> ",
"| G.I J.  /.] } 1@2@` ` ` | 3@4@@.E+E+8.1 | [ y _ y.M.M.N.M.N.N.N.N.-+-+-+-+y.y.,+,+^+^+y.y.y.-+N.N.M.M.M.M.M.N.y.5@6@r+r+r+r+H.P > ",
"< T.* + 9.J ~ k.1 t t t t t '@s W+k+k+D :.^.y 9 y.-+M.M.M.M.N.N.N.N.N.N.-+y.y.,+,+^+^+,+y.-+-+-+-+-+N.N.M.M.M.N.y.<.j p.p.j p.r.G > ",
"> ( n.. . 7@I.2.&@h.! h.h.h.! ! ! g.U 4 {+l 8 - y.N.M.M.M.N.N.-+-+-+-+y.y.y.y.^+^+^+,+,+y.y.y.-+N.N.N.M.M.M.N.N.y.& & & & . . _ ( > ",
"> 9 - !.( o.y F 8@q.p.q.q.q.j j &+q.7@!+f+q & y.-+M.M.M.M.M.M.N.-+y.y.9 : y.,+,+,+,+,+y.y.n 5+y.-+-+N.N.N.N.N.9@y.: : : : G ( - 9 > ",
"> > 0 0 0 0 0 - / . . . . q 9.@ # @ % & q o &.y.-+M.M.M.M.N.N.-+y.F 0 0 !.y.,+y.y.,+^+y.y.%@@@y.y.y.y.-+-+-+9@y.f+n.q+n.q+8 H 0 0 > ",
"V+> > 9 9 9 9 H ( : : G ( s.* n @ $ n + n o y.9@-+N.M.M.M.N.-+y.u.0@9 x - y.y.,+^+^+,+y.y.d 1.-@y.y.9@9@9@9@y.<.G++ + + &.& R 9 9 9 ",
"E.[.L q+n.q+q+q+q+/ / 8 |@~+c.* m . m m m m y.9@-+-+N.N.N.-+y.a@e e.q+n.q+/ y.,+^+^+^+y.y.3 4@+@y.^+y.y.y.y.y.&.@ *.@ n q & 7 / / / ",
"1 b@4+<.+ &.&.<.<.&.+ (.c@D+S.T.: G G G G ( y.9@9@-+-+-+-+y.y+#@q.<.<.&.&.y./+,+^+^+,+y.1 D 2  @y.,+y.,+y.y.,+y.9.@ $ q / / q + + + ",
"i+d 5@m q m m m m q n {@d@V e@8 : > , Z *+y.-+9@9@9@-+-+9@y.f@K i q m m % y.y.y.y.y.y.y.Z.Z.Z.Z.y.,+y.y.,+^+y.^+y.y.m n.( Q &.# # d.",
", < o.: R : : : : Q A.n g@J+p.% _ A *+j+1 y.N.9@9@9@-+N.y.K r.l : : : : / y.-+;+;+;+y.y.9+9+9+9+J y./+,+y.y.^+^+/+;+y.- 9 l % @ @ @ ",
"> > > > > > > > 0 - q+m q % n n & x Z  .y.9@N.9@9@-+N.9@y.&   G > > > > y.-+;+>+>+>+-+y.q q q q A./ y./+,+^+/+/+;+/+y.r D.t.h@i@i@i@",
"> > > > > > > > > 9 !.R R Q m +   o.j@Y y.9@N.-+9@-+9@y.- : G x > > > y.-+>+]+>+]+>+;+y.R R R p R !.> y./+/+>+/+/+y.> b C a+b+A+A+A+",
"> > > > > > > > > > > > > - q+. / H 0 x y.9@-+N.N.9@y.y.> > > > > > y.-+;+>+]+>+]+>+-+y.6.6.6.6.b Y y > > y./+/+y.> > D.| S S j+j+j+",
"> > > > > > > > > > > > > > !.R !.9 > > !.y.y.y.y.y.y.> > > > > > > y.;+y.]+;+>+;+>+y.$.$.$.$.3 j+E.a > > > > > > > > < , D.b b b b ",
"> > > > > > > > > > > > > > > > > > > > > y.,+^+^+,+y.> > > > > > > y.y.y.>+-+>+-+;+y.8.8.8.8.+.{.} < > > > > > > > > > > > > > > > ",
"> > > > > , i+#.+.8.8.8.+.D 4 a > > > > > y.y.y.y.y.> > > > > > > > > > y.>+-+>+-+y.> > > > > > > > > > > > > > > > > > > > > > > > ",
"> a Y B D.E.S 8.X+2 |.A+z+n+t.G ( > > > y.,+^+^+,+y.Y a > > - : 8 8 8 8 y.;+y.;+y.w+p 8 p p p p p 8 8 8 p ( > r , Y V+> > > > > > > ",
"> Y } j+j+k.{.8.X+k@g.i@s+s+$+m / H > > y.y.y.y.y.y.c ~.> > R * q q q q m.y.y.y.2.u+m % q q q q q q q % m _ x 6.| c r > > > > > > > ",
", E.$.8.8.*@..k.1.o+|+p.n o n % J.8 R y.^+,+,+,+,+y.} Y > > p . + o o + `+V )@b+&@C+]@o @ @ @ @ @ n <.<.% & 8 [. .} ~.> > > > > > > ",
"R.$.E +.X+D | 2+l@4+7@7 % h A.n.J.m q y.,+^+^+^+/+y., a > > - 8   + + * f+4+X.i@4+7@7 % @ *.d.d.$ q q+Q /   . /.] , a > > > > > > > ",
"3 3 1 1 1 i+6.T.  m 7 Q * q J.Q . n n y./+,+,+,+/+y.x ( ( x H G / m m q+/ . p.q.0+c.P 5@$+9+9+j % n.- - p J.q 7 - 0 > - G !.9 x ( : ",
"Z Z Z Z Z 6.r H p q+& . 7 q+J.m 9.$ % y.;+-+;+-+/+y.8 * 7 : : J.& 7 7 & . J./.H.&@}. .c+<+<+a.e@8 : - l & * q+R H > > p   7 ( :   m ",
", Y < > - !.x 9 !.8 R+q 7 0.  % &+J+5@y.>+;+>+;+y.> 0.m g !+_@_.* j.!+* . s.~+R.E 8.2 ..k.1.Y+Z+y > H q+m 7 !.> > > 9 l m . Q / m &.",
"C c Y ( 7   p ( / &   7 * . ~@q+m@.+u.y.,+,+,+/+y.r ( l %.b.G.L n@4.b.c.L Z+j+{.X+E+E o@4.H.!@c.> 0 > : Q R > 0 > > > ( Q J.. . 7 _ ",
"#.S 6.G & . s.w+6 m /.w+6 m 7@|@7.'@*@2 y.y.y.y.d F : G ] a+j+p@6.C i+U.6.R.*@8.#.E S E.A 6 M 7 : ( ( G : : ( 9 < < > > x 8 J K !+L.",
"E+3 [ - = q@r@b.%./.p+{ <@/.w.| l.8.@.8.3 4 I.s@4+* . * e@P.E ;@| } } | j+{.E+E+E i+Z Y x p _ * . . . . . . * (+t@*+r > > P >./@u@].",
"u }.{+( : P D+k.' B 7.v@' [.7.D 8.8.*@l.7.L.l M + O.@ O.B+o+k@1 :.).0@:.1 t t '@S Z a > > - p   <.n O.n + n w@C+n+{ L.> r E.S k+2 2 ",
"P+C+K & & e.x@E 3 3.` } 7.].l.4@@.#.S 4 D.y : _ q o *.@ j y@e z@] =+f+d+G.e 6@>@p@Y > > - Q &     % o z.& q O.q.C+m@A , } ;@#.+@@.E+",
"<.G+n o $ 9+7+u ..v@S.L.A@k.'@k@s 1 } Y > > H G 7 <.o @ @ n (.t+8 . m l B@* (.t+y V+> a A 7@(.q+G J.%   R n.<.G+q.8@A p@N+u u C@C@C@",
"J.. n d.d.{@B+D@[@G.5.7@<@b.h+D@h+E.D.y > H p 7 ~@  i n d.# h q &     & & & _ : H ; a 6.{ /@c@K+> R / p H : q+5@6@/@2.d f.N N N S+S+",
"G / q n @ @ O.p.f+G   5+q+_@6 (.7@A a > a y /.(.g _@l % n n n + m 8 8 . m Q o.y < < , | ..s E@S.9 ( ( - 9 H 9 ~+U+-@|..+0+G+G+G+<.j "};
