/* XPM */
static char * p_move_up_left_0_xpm[] = {
"66 66 343 2",
"  	c #A27A3A",
". 	c #A47D3F",
"+ 	c #A88247",
"@ 	c #AB854C",
"# 	c #AC864C",
"$ 	c #AB854B",
"% 	c #AA844A",
"& 	c #AA834A",
"* 	c #A9824A",
"= 	c #A98348",
"- 	c #A57D41",
"; 	c #A17738",
"> 	c #A07636",
", 	c #A07635",
"' 	c #9F7534",
") 	c #A07737",
"! 	c #A47B3F",
"~ 	c #A88147",
"{ 	c #AD8A4D",
"] 	c #B1924F",
"^ 	c #B0904F",
"/ 	c #AD884D",
"( 	c #AB844C",
"_ 	c #AA834B",
": 	c #A47C3F",
"< 	c #A27939",
"[ 	c #A17839",
"} 	c #A17739",
"| 	c #A1783A",
"1 	c #A67E42",
"2 	c #AB854A",
"3 	c #AF8E4F",
"4 	c #B39451",
"5 	c #B49652",
"6 	c #B49752",
"7 	c #B59753",
"8 	c #B59853",
"9 	c #B49552",
"0 	c #B09050",
"a 	c #AC874C",
"b 	c #A88146",
"c 	c #A47D3E",
"d 	c #A27B3A",
"e 	c #A37B3B",
"f 	c #A57E40",
"g 	c #A78043",
"h 	c #AC894B",
"i 	c #B08E4F",
"j 	c #AD8A4C",
"k 	c #A88246",
"l 	c #A57C41",
"m 	c #A47B40",
"n 	c #A47B41",
"o 	c #A47C41",
"p 	c #A1773A",
"q 	c #9F7434",
"r 	c #9E7432",
"s 	c #9E7433",
"t 	c #A67E45",
"u 	c #AF8C4F",
"v 	c #B19050",
"w 	c #AE8B4E",
"x 	c #AA8449",
"y 	c #AA8646",
"z 	c #A88443",
"A 	c #A67F41",
"B 	c #A47C40",
"C 	c #AB8649",
"D 	c #AF8D4F",
"E 	c #B08F50",
"F 	c #B08F4F",
"G 	c #B69954",
"H 	c #B39552",
"I 	c #AD8B4B",
"J 	c #AB8846",
"K 	c #AA8744",
"L 	c #A98249",
"M 	c #AB864B",
"N 	c #B0904E",
"O 	c #A88343",
"P 	c #A2793A",
"Q 	c #A17838",
"R 	c #A17837",
"S 	c #A07836",
"T 	c #A07736",
"U 	c #AA844B",
"V 	c #AD894D",
"W 	c #B08F4E",
"X 	c #AC874B",
"Y 	c #AA8349",
"Z 	c #A98349",
"` 	c #B29351",
" .	c #AC884D",
"..	c #B39551",
"+.	c #B49651",
"@.	c #B29450",
"#.	c #B29350",
"$.	c #AF8C4E",
"%.	c #AE8C4D",
"&.	c #A88345",
"*.	c #A78241",
"=.	c #A98643",
"-.	c #A98644",
";.	c #A98543",
">.	c #A68041",
",.	c #A98347",
"'.	c #AC874D",
").	c #AB864C",
"!.	c #AE8A4E",
"~.	c #B39452",
"{.	c #B49753",
"].	c #AB844B",
"^.	c #AC8948",
"/.	c #AC8A47",
"(.	c #AB8A47",
"_.	c #AD8C4A",
":.	c #B08E4E",
"<.	c #AA854A",
"[.	c #AE8D4D",
"}.	c #B2934F",
"|.	c #B39450",
"1.	c #AB864A",
"2.	c #AE8B4D",
"3.	c #B29251",
"4.	c #B1914F",
"5.	c #AE8A4D",
"6.	c #B29250",
"7.	c #A27A39",
"8.	c #A27B39",
"9.	c #A37C3C",
"0.	c #A78143",
"a.	c #AA824B",
"b.	c #A88148",
"c.	c #A67E44",
"d.	c #A57D42",
"e.	c #A57D43",
"f.	c #A78144",
"g.	c #AB8847",
"h.	c #AC8949",
"i.	c #AE8C4E",
"j.	c #AF8E4C",
"k.	c #AC8A48",
"l.	c #A98446",
"m.	c #A2793B",
"n.	c #9E7332",
"o.	c #A37B3A",
"p.	c #A78341",
"q.	c #AB8848",
"r.	c #AA824A",
"s.	c #AC884C",
"t.	c #080808",
"u.	c #A2793C",
"v.	c #A57F40",
"w.	c #A98247",
"x.	c #A68042",
"y.	c #A17939",
"z.	c #A07637",
"A.	c #A88442",
"B.	c #B0904C",
"C.	c #A67E43",
"D.	c #AC884B",
"E.	c #A78045",
"F.	c #AB874A",
"G.	c #B19150",
"H.	c #B19151",
"I.	c #EF7B00",
"J.	c #CE3900",
"K.	c #AD8A4B",
"L.	c #A77F46",
"M.	c #A67D43",
"N.	c #A37B3D",
"O.	c #AC8A49",
"P.	c #B69953",
"Q.	c #A67F40",
"R.	c #AE8D4B",
"S.	c #A98645",
"T.	c #A47C3E",
"U.	c #A78044",
"V.	c #EFEF00",
"W.	c #9F7634",
"X.	c #AF8E4E",
"Y.	c #A37A3D",
"Z.	c #AB8748",
"`.	c #A88047",
" +	c #A78340",
".+	c #A88342",
"++	c #A98346",
"@+	c #B59953",
"#+	c #8C1800",
"$+	c #BD6B39",
"%+	c #DEAD7B",
"&+	c #292929",
"*+	c #B29451",
"=+	c #B2924F",
"-+	c #B1924E",
";+	c #AD8B4D",
">+	c #EFDEBD",
",+	c #4A4A4A",
"'+	c #181818",
")+	c #A98149",
"!+	c #A78046",
"~+	c #AC8B49",
"{+	c #AE8E4A",
"]+	c #6B7B7B",
"^+	c #A37B3E",
"/+	c #A27A3B",
"(+	c #A47D3C",
"_+	c #A47E3D",
":+	c #A77F45",
"<+	c #A2783A",
"[+	c #9F7533",
"}+	c #9F7535",
"|+	c #A88046",
"1+	c #9F7433",
"2+	c #A57F3D",
"3+	c #A6803F",
"4+	c #A17938",
"5+	c #AF8F4C",
"6+	c #B1914E",
"7+	c #AC894A",
"8+	c #9F7635",
"9+	c #A68140",
"0+	c #AD8B49",
"a+	c #0018EF",
"b+	c #A47B3E",
"c+	c #A98148",
"d+	c #A37A3C",
"e+	c #A88145",
"f+	c #B49653",
"g+	c #A78240",
"h+	c #AD8A4E",
"i+	c #AA8549",
"j+	c #AD894B",
"k+	c #AE8C4C",
"l+	c #A88149",
"m+	c #A47D3D",
"n+	c #B08E50",
"o+	c #AB8849",
"p+	c #A57E3F",
"q+	c #A68040",
"r+	c #AF8D4E",
"s+	c #A37C3B",
"t+	c #B19250",
"u+	c #AF8E4D",
"v+	c #A98248",
"w+	c #AD894E",
"x+	c #AC894C",
"y+	c #A88144",
"z+	c #A67F42",
"A+	c #A88245",
"B+	c #A57E41",
"C+	c #AA8548",
"D+	c #A98447",
"E+	c #AC8947",
"F+	c #AB8749",
"G+	c #A67E41",
"H+	c #A98545",
"I+	c #A78242",
"J+	c #A57D3F",
"K+	c #A37A3E",
"L+	c #A27A3C",
"M+	c #AF8F4B",
"N+	c #B39652",
"O+	c #A57E3E",
"P+	c #A37B3F",
"Q+	c #AE8D4A",
"R+	c #B39351",
"S+	c #A2783B",
"T+	c #A88543",
"U+	c #A57E42",
"V+	c #A67F44",
"W+	c #A37C3D",
"X+	c #A27938",
"Y+	c #B39651",
"Z+	c #AA8746",
"`+	c #A78042",
" @	c #AC884A",
".@	c #A88344",
"+@	c #B29151",
"@@	c #AA8745",
"#@	c #AB8946",
"$@	c #AB8947",
"%@	c #AF8F4D",
"&@	c #AA834C",
"*@	c #AA8645",
"=@	c #AD8B4A",
"-@	c #B1904F",
";@	c #AB8747",
">@	c #A07738",
",@	c #A98544",
"'@	c #A98444",
")@	c #AA8747",
"!@	c #A67F43",
"~@	c #A98546",
"{@	c #AB874B",
"]@	c #A57C40",
"^@	c #AE8B4F",
"/@	c #6B0000",
"(@	c #B0914E",
"_@	c #A77F44",
":@	c #AE8E4B",
"<@	c #A88341",
"[@	c #AA8448",
"}@	c #B1934F",
"|@	c #AE8B4C",
"1@	c #A6813F",
"2@	c #B59854",
"3@	c #A07837",
"4@	c #A68240",
"5@	c #AA8647",
"6@	c #B0914D",
"7@	c #A57F3F",
"8@	c #B0904D",
"9@	c #AD894C",
"0@	c #A67F45",
"a@	c #A78243",
"b@	c #A57F3E",
"c@	c #A37A3B",
"d@	c #AA8547",
"e@	c #A47C3D",
"f@	c #AF8D4D",
"g@	c #AE8D4C",
"h@	c #AA8649",
"i@	c #A88244",
"j@	c #A88048",
"k@	c #A37D3B",
"l@	c #A57D3E",
"m@	c #AD8C49",
"n@	c #AD8D49",
"o@	c #B59752",
"p@	c #B08F4D",
"q@	c #AD8B48",
"r@	c #AC8B48",
"s@	c #A57E3D",
"t@	c #AC864D",
"u@	c #A78142",
"v@	c #A57D40",
"w@	c #A37B3C",
"x@	c #AE8C4F",
"y@	c #AE8C4B",
"z@	c #A9824B",
"A@	c #A9834A",
"B@	c #AA8845",
"  . + @ # # $ % % % & * & = - ; > > , ' ' ) ! ~ { ] ^ / @ @ ( _ ~ : < [ [ } ; ) > > | 1 2 3 4 5 6 7 8 7 5 6 9 0 a b c d     e f ~ _ ",
"! g h 3 i j k l m n o o o ! p q r s s ' [ ! t & u 9 9 v i 3 w @ x y z A B ! ! m m ! 1 C D E F i 0 4 8 G G G 8 H F I J K K K K y x _ ",
"L M F H 9 N O P [ < < < < < Q R S T T ) : ~ & U w 4 5 H H H v V V ^ W X L L Y Y Y Z M F ` i  .@ a i ..5 +.+.+.5 H 4 @.#.#.@.#.W a _ ",
"_ # $.v v %.&.f *.=.-.=.=.=.-.-.-.;.>.- ,.{ V @ '.D v v v v E i i E D '.).!.D 3 D D E ~.{.` D '.].C ^././.(./._.:.E E E E v v u # _ ",
"_ U @ ).# $ & <.[.}.#.}.}.}.@.@.|.}.%.1.2.3.E a @ ).).$ $ $ { 4.v 5.@ U '.E ~.H H H H 5 6 5 6.w Y 1 e 7.7.8.9.0.1.'.'.'.'.a # @ U _ ",
"_ _ a.a.a.a.a.@ w v v v v 3.9 8 G 8 ` E 3.{.~.i V ( b.c.d.e.f.g.h.<.a.a.).i.v v v v v v ^ j.k.l.1 m.' n.' o.p.q.2.$.i.$.i.V ( a.a._ ",
"r._ _ U U U U ( # '.'.a # s.F 5 8 7 5 H 5 {.5 4 i t.c.u.; ; t.t.v.w.U ].@ # a a # ).).).<.x.e y.; z., ' R A.B.4 ..H H H ~.E  .U U U ",
"C.b D.i.$.i.i.i.i.w w V = E.F.F G.v G.G.G.G.H.v t.I.t.t.t.s t.J.t.K.i.$.i.w V @ * L.M.e.o | q n.' } N.v.z O.^ ~.8 P.8 5 3.E D w w w ",
"[ Q.R.4 H ~.~.4 4 ~.H 4.S.T.U.M '.a a a a # a t.t.V.t.t.J.t.V.I.t.t.4 ~.~.t.t.t.L - P [ [ ) , W.) ! ~ K.N X.{ i 9 8 7 3.w w 3.H H H ",
"Y.x.I G.3.G.G.G.G.3.t.t.t.t.Z.V '._ `.c.M.M.t.I.t.V.t.t.J.I.V.I.t.J.t.t.t.I.J.t.j y p. +p.p.p.p..+++U !.v E $.D v G.G.$.# !.~.G G @+",
"`.L $ '. .'.'.t.t.t.#+$+%+$+t.t.t.t.t.t.t.t.J.V.I.V.I.I.I.V.V.I.J.I.I.V.V.I.&+&+*+=+-+-+-+-+-+-+N ;+$ @  .D 3.E V '.'.@ U { ` 8 8 8 ",
"_ _ _ _ _ _ t.#+$+%+>+>+$+t.&+,+&+&+&+&+'+'+t.I.V.I.V.V.I.V.V.V.I.V.V.V.I.J.t.3.3.3.3.3.3.3.3.3.H.w ( a.U !.E $.@ _ _ )+!+l.~+{+{+{+",
"_ _ _ _ _ _ t.t.t.#+%+%+#+t.,+]+]+,+'+'+&+'+I.&+I.I.V.V.I.V.V.V.I.V.V.I.I.J.&+ . . . . . . . ./  .)._ _ _ @ '.# U _ _ L.^+/+(+_+_+_+",
"_ _ _ _ _ _ _ _ t.$+%+#+t.&+,+&+&+'+t.t.'+&+t.I.t.I.V.V.I.V.V.I.V.I.I.V.V.I.'+,+:+:+:+:+:+:+:+:+L.b.& _ _ _ _ _ _ _ _ !+! m.m.u.u.u.",
"_ _ _ _ _ _ _ _ _ t.t.t.t.t.t.t.t.'+t.t.t.t.I.V.I.J.I.I.V.I.V.I.I.V.'+'+I.V.I.&+<+<+<+<+<+<+<+| u.C.* _ _ _ _ _ _ _ _ L `.!+L.L.L.L.",
"_ _ _ _ _ _ _ _ _ _ _ _ _ _ _ _ _ t.t.t.t.t.J.t.J.'+'+'+'+'+'+'+J.V.'+,+'+J.'+[+' ' ' ' ' ' ' [+z.l L _ _ _ _ _ _ _ _ _ _ _ _ _ _ _ ",
"_ _ _ _ _ `.Y.}+[+' ' ' [+) - * _ _ _ _ t.t.t.I.'+,+]+>+>+]+]+,+'+I.'+,+'+'+I.'+_ _ _ _ _ _ _ _ _ _ _ _ _ _ _ _ _ _ _ _ _ _ _ _ _ _ ",
"_ * b.|+!+C.m.' 1+, d _+2+3+l.a # _ _ _ _ _ t.V.'+,+]+>+>+]+]+,+'+'+'+'+#+'+J.'+,+2 / V / / / / / V V V / # _ )+`.b.r._ _ _ _ _ _ _ ",
"_ b.l u.u.P z.' 1+4+;.{+5+5+6+G.w ( _ _ _ r.t.I.'+'+'+'+'+'+'+'+$+#+J.&+$+'+&+'+&+7+G.` 3.3.3.3.3.3.3.` G.u ].:+! d.)+_ _ _ _ _ _ _ ",
"`.C.<+' ' 8+; P e 9+0+#.5 {.5 ` 3 V  ./ / a k t.[ t.a+]+$+$+a+]+$+$+I.&+#+'+,+'+'+'+*+{.8 8 8 8 8 5 4 4 ` E V b b+l c+_ _ _ _ _ _ _ ",
"d+<+> [+1+) ! e+h.R.%.D ` f+H.$.3 G.3.3.3.G.j k c.t.a+>+%+%+a+>+#+#+J.'+'+'+'+'+&+'+'+` 8 P.@+@+7 3.i.!.w i v j k `.* _ _ _ _ _ _ _ ",
"| | [ [ [ Y.:+M i G.D !.F 3.3 !.v 5 5 H 5 5 v # a.t.$+%+%+%+%+%+$+#+#+'+t.&+'+&+,+&+t.t.6+-+-+@.` $.@ @ / 3 3.D @ a._ @ a ).U ].# '.",
"c.c.c.c.c.:+)+( / i.E v D i.3 G.9 7 ` i 3.5 G.'._ '+#+$+%+%+$+#+#+#+t.t.t.'+&+,+]+]+]+&+t.g+.+Z.V '.@ { E F i. .( _ _ / i D # '.i G.",
"`.b.L _ @ ).].U ).V 0 3.D h+i ` |.] I i+j+N k+x l+_ t.#+$+$+$+$+#+t.&+t.&+,+]+]+]+,+,+,+t.e m+f.& _ ( i.G.D )._ _ _ U { G.v !.w G.~.",
"^+d.b.# D i / # w E i D F v n+i.o+z v.T.p+*.q+: e.)+# t.t.t.t.t.t.&+t.t.'+&+,+,+,+,+]+]+&+t.O.F._ a._ '.!. ._ a._ _ _ # !.3 v v D u ",
"}+m.:+a E v s.2 r+G.j 2 r+G.%.= B Q 8+, ) [   s+x.<.'.a t.t.t.&+t.t.t.&+,+,+,+]+]+]+]+]+,+t.t+D '.# # a '.'.# U L L _ _ ].V N u+1.v+",
"s | t @ w+x+y+z+C j A+B+C+j D+! } ' r ' | - &.E+R.F v F Z.t.t.t.t.t.t.t.&+&+&+&+,+,+,+]+]+t.u F v v v v v v F F+G+M.)+_ _ x H+I+J+K+",
"7.c ,.# '.x T.P 1 |+B L+1 b B ) ' ' 8+} B v+{ t+H 6 8 6 M+t.#+&+&+#+#+t.t.t.t.t.&+&+,+]+]+t./ i 4 5 6 5 H 5 N+_.3+B+v+_ )+C.m.T , , ",
"/._.u+E E K.O+> | P+o l B K+} q r }+m.- !+& '.u 3.{.P.8 @.Q+t.#+&+&+J.J.#+t.t.&+&+,+]+]+,+t.'+i i ` {.R+E 3.6 }._.o+% `.l S+}+n.r s ",
"4 ..5 {.7 -+T+7.; L+U.v+U+P Q 4+R [ l b._ _ ( a D 4 {.8 8 5 t.#+&+&+#+#+#+#+t.t.t.&+,+,+,+t.#+'+'+3 ` i  .$.4 ..}.[.% V+W+7.7.X+X+X+",
"3 v 5 @+@+Y+M+Z+`+g  @%.C+z+.@Z+.@C.!+& _ ( / D n+i +@5 @+t.#+t.#+&+#+J.J.J.#+t.t.&+&+,+&+t.#+J.#+'+'+/ ( '.i.I J I+f x.@@#@#@#@$@$@",
"a w 3.5 8 8 6 #.2.a i 6.i.X r+4.%.% * _ * & j 4.X.X { ` t.#+#+t.&+&+&+#+#+#+#+t.t.&+,+&+'+t.#+#+J.J.#+'+'+( U E.N.y.d z %@......4 @.",
"i i i v H 8 G 7 ` E i i F E E i w+@ &@_ `.1 0.-.O B+k t.#+J.#+#+t.t.t.&+&+&+t.t.&+&+&+t.t.t.J.J.J.J.J.J.#+t.* L.d.x.*@=@X.` 7 f++@E ",
"@.-@{ V G.5 {.5 5 ` w / i 3.D # _ * * )+d.| R < 7.  t.J.#+J.#+#+#+#+#+t.t.t.#+t.&+&+t.t.&+t.J.I.I.I.I.I.J.J.t._ & h N u+D.{ t+G.V @ ",
"#@;@x @ !.i F F E D  .@ !.D w+_ L.d.- l m.> >@^+>.,@t.J.#+I.J.J.#+#+J.J.J.J.#+t.t.&+&+,+t.t.#+J.I.I.I.I.I.I.J.t.@ i+g.'@1 x.H+)@% _ ",
"  . + @ # a # ).).@ _ & % U U c+- [ z.) > ) K+~ j t.I.I.J.I.J.J.J.J.#+#+#+#+t.t.&+&+,+,+t.t.t.#+J.J.I.I.I.I.I.J.t.b c d     e f ~ _ ",
"P+!@ @r+D !.).a.a.* :+d.l l d.B m.' r ' ; ^+c.& t.#+I.I.I.I.J.J.J.J.J.J.#+t.t.&+&+,+,+&+t.#+#+#+#+#+J.J.I.I.I.J.t.K.@@;.=.=.=.~@Y _ ",
"c+{@-@9 5 3.w ( _ L - P [ [ [ } ) > }+) : ~ & U t.J.I.I.I.J.J.#+#+#+#+t.t.t.t.,+,+,+&+&+t.t.t.#+J.J.J.I.I.I.J.J.t.4 #.#.@.@.}.W s.].",
"_ V ` 8 @+5 G.w # & l..+v.b+K+^+! ! ! ]@D+5.w+t.#+I.I.I.I.I.I.J.#+t.t.H.^@t.&+&+&+&+&+t.t.&.d.t.#+#+J.J.J.J.J./@t.v G.~.7 f+3.E D u ",
"_ / 3.7 8 8 5 3.!.a r+(@j Z b.b.b.~ `.v+j G.r+t.#+I.I.I.I.J.J.#+t.6 6 H G.t.&+t.t.&+,+t.t.  P t.t.t.t.#+#+#+/@t.# # a D 4 3.w w G.~.",
"_ '.D 3.5 8 @+6 G.i 4 {.3.u '.U b._@C._@~@^.t./@#+J.I.I.I.J.#+t.G.G.^ :@^.t.t.&+,+,+&+t.t.A.<@p.t.t./@/@/@/@t.a.a.a._ / i u # '.D G.",
"& _ $ 5.3.7 8 {.9 H 5 {.5 ` w & d.m.; [   s+t./@#+#+J.J.J.#+t.'.a a [@A s+  t.&+,+,+,+t.t.}.}@}@t.,+t.t.t.t.t.U U _ _ U ).$ _ U ).a ",
"C.M.M.k |@v H.H.+@+@H.H.3.^ D.V+u., s ' 8.1@t./@/@#+#+#+#+t.a.a.)+L.d.! T.t.'+&+,+,+&+t.3.f+2@G t.&+t.&+t.t.&+t.w 1.E.M.M.M.c.L.)+a.",
"P <+<+: ,.a  .a a a a a '.M !@P > ' [+3@p.t.#+/@/@/@#+#+/@t._ _ `.! Y.C.x t.t.t.t.t.t.t.5.v 6 8 t.&+t.t.&+,+t.,+t.t.p+| | | P B ~ _ ",
"g+4@g+z  @s.= V+c.c.c.c.c.e.u.}+s 8+8.g+^.t.J./@/@/@#+J.t.3 w !.C G+B `.'.t.#+$+$+$+t.t.e+5@R.N G.t.'+&+t.t.,+,+'+$+t.4@4@4@g+'@D.w ",
"6@6@6@-+#.%@O m.| | | | <+[ ) }+1+R .+:@t./@J./@/@#+J./@t.H 4 R+F 1.b.* t.#+$+%+%+%+#+t.m.e 7@++a  .t.'+&+,+'+'+$+'+t.6@6@6@6@-+#.4 ",
"3.3.3.` ` X..@Y.u.u.u.u.u.u.u.u.m.b+5@F t./@J.#+/@#+/@t.` ` ` 3.E  .* t.#+%+>+%+>+%+$+t.3+3+9+A+* a.U t.'+'+%+'+'+t.v ` 3.3.3.3.3.3.",
"V V V V V a Z !+L.!+!+!+!+!+!+!+!+~ % a t./@#+J.J./@t.t.V V V V '.@ t.#+$+%+>+%+>+%+#+t.8@6@5+9@U a._ ). .t.'+'+t.@  .V V V V V V V ",
"_ _ _ * `.:+:+:+:+!+L _ _ _ _ _ _ _ _ _ L t.t.t.t.t.t.:+:+:+:+:+L.:+t.$+t.>+$+%+$+%+t.f+8 @+{.v !.V V ).U )./ a U _ _ _ _ _ _ _ _ _ ",
"_ _ _ b.o m.m.m.m.^+:+_ _ _ _ _ _ _ _ * 0@t.&+,+,+&+t.m.m.m.m.m.S+m.t.t.t.%+#+%+#+$+t.` 8 @+8 9 ` ` 3.w ).!.v D @ _ _ _ _ _ _ _ _ _ ",
"_ ( '.1.a@b@2+_+e Y.t & # / V s.% ~ !+:+! t.t.t.t.t.2+2+2+2+m+c@/+m+z j.t.%+#+%+#+t.).D ` R+4 5 8 8 {.G.w D G.E !./ / / / V V '.@ _ ",
"_ a i G.8@M+M+_.d@!+b.$ $.G.` -@5@T.m.m.t.&+,+,+&+t.5+M+M+M+O.++,.=@j.%.t.$+t.$+t._ U a V V w 3.7 @+8 5 ` i w D G.3.3.3.3.3.3.i '._ ",
"_ '.F 4 6 6 H t+$./  .h+F R+{...^.e@| P t.t.t.t.t.t.4 4 4 ` F a a f@g@h@~ t.t.t.`.|+`.L _ _ @ $.` 4 4 4 ` F !.D 3.9 7 8 8 +.] k+[@`.",
"_ @ / 3 ~.5 v u E 3.3.G.3 D ` 9 g@b c.t.,+&+&+&+&+t.w w w w V @ Z i@q+e@u.u.u.u.u.u.! :+* _ _ a { !.!.!.w i v F $.v 5 G 8 -+@@7@W+Y.",
"_ ].# w G.3.D { X.6+-+8@ @[@K.%@K.v+j@t.&+,+,+,+'+t._ _ U _ & b.C.P 8+' T   (+(+(+(+7@++).@ _ _ _ _ _ _ @ w G.E !.D 3.4 -+/.k@' ' ' ",
"_ '.D 0 D u E W $@A.p.g+l@N.p+9+p+! c.t.'+&+&+&+'+t._ _ _ _ `.l m.> s s 7.;.m@Q+Q+n@R.N F V U a.a.a.a.a._ # w i v E i. @z _+S 1+1+[+",
"b.1.F -@D.2 g@:@g+T ' T 7.s+(+(+s+m+f.t.$+#+$+#+'+t.b.b.b.~ M.| ' ' , 7.*.5+6 8 6 6 o@8 5 i  .a a a a @ _ L L h p@g@x d.[ W.' , >@[ ",
"^+!@F.D.U.. 9+9+8.' n.T g+k.m@0+q@m@j.t.%+$+%+$+t.Y.Y.Y.Y.Y.S+> s 1+8.-.M+..8 G G G G P.8 4 G.v G.G.0 !.U t ! p+*.q+b+| }+s [+[ B C.",
"8+m.C.:+d+> , , ' 8+R 2+m@..o@6 6 6 7 t.&+&+&+'+t.o.s+s+s+e   [ Q 7.g+R...{.7 5 H H H H 9 5 {.5 H 5 5 v s.e+m+s+s+o.y.} ; ; ; ^+!+r.",
"1+> S+S+z.s n.n.n.R g+m@}.8 G G G G G 8 t.t.t.t.i@$@r@r@r@r@Z+f.f.g.=@%.E H 5 G.u u u u i ~.{.` E ` {.H G.u+m@r@k.y g d.d.d.e.:+)+_ ",
">@Q   d 7.7.7.7.7.s@k.#.6 7 {.5 9 5 5 9 9 4 i s.2.t+..5 6 5 t+{ { -@G.w w G.3.w ].& Z L <.f@4.|@1.i.4 9 H 4 4 4 ` X.M & $ $ $ $ ).).",
"d.g y /./././././.O.k+F ~.5 3.3 u D D D D D E v E n+3.{.G G f+3.E i i F F 3 w t@L c.m P+B u@A.Q.v@,.2.D D D D 3 D w+@ '.D v v 0 0 0 ",
"$ 9@^ 4 Y++.+.+.5 *+i./ v H i # ].].U & Z % j 4.f@{@{ 3.5 5 5 H v V V v G.!.].* !+K+z.8+> Q < 7.w@f.M # @ ( ( ( ( @ ).w 3.5 5 5 H H ",
"v E n+G.5 G G G G 5 $.a E H i @ a.r.L.l ! B u@,@I+- e+j 3 D 3 3 w ).).w x@'.L c.b+; ' r }+S+]@O g.y@r+V _ z@a.z@_  .D E E 3.{.5 G.3 ",
"@.^ V V G.5 6 5 6 4 w a i ` $.& L b.l } > > ; < <   B+Z @ @ @ @ U & L & & A@!+K+> ' ' 8+[ 1 2 X...6 H F '.@ @ U U { 4.X.X j 4.4.V @ ",
"B@)@x @ !.D i i n+D  .@ h+i.C+1 o B m.8+s ' ; b+`+-.5@& a.a.a.a.b.M.m m B B ^+; [+s , m.1 F.F H 8 G 8 4 E i D V ].i+y O B+A ,@5@x _ "};
