/* XPM */
static char * p_move_up_right_2_xpm[] = {
"66 66 340 2",
"  	c #B08E4F",
". 	c #B19050",
"+ 	c #B39552",
"@ 	c #B59853",
"# 	c #B69954",
"$ 	c #B59753",
"% 	c #B29351",
"& 	c #B08F50",
"* 	c #B08F4F",
"= 	c #AD894E",
"- 	c #AB854C",
"; 	c #AA834C",
"> 	c #AA834B",
", 	c #A88047",
"' 	c #A67E42",
") 	c #A78143",
"! 	c #A98644",
"~ 	c #A88343",
"{ 	c #A57E41",
"] 	c #A88246",
"^ 	c #AD8B4C",
"/ 	c #AE8B4E",
"( 	c #AC864C",
"_ 	c #AF8C4F",
": 	c #AC874D",
"< 	c #A98249",
"[ 	c #A67E45",
"} 	c #A57C41",
"| 	c #A47B3F",
"1 	c #A17839",
"2 	c #A07635",
"3 	c #A1783A",
"4 	c #A57D41",
"5 	c #AA8649",
"6 	c #AF8D4E",
"7 	c #AF8D4F",
"8 	c #AD894D",
"9 	c #AA844B",
"0 	c #AA824B",
"a 	c #A9824A",
"b 	c #A77F46",
"c 	c #A57D42",
"d 	c #A68042",
"e 	c #AA8645",
"f 	c #AD8B4A",
"g 	c #AF8E4E",
"h 	c #B49653",
"i 	c #B29151",
"j 	c #B29450",
"k 	c #B1904F",
"l 	c #AD8A4D",
"m 	c #B19150",
"n 	c #B49652",
"o 	c #B49753",
"p 	c #AD884D",
"q 	c #B29251",
"r 	c #A98149",
"s 	c #A17837",
"t 	c #A27939",
"u 	c #A27A39",
"v 	c #A27A3A",
"w 	c #A98349",
"x 	c #AB844B",
"y 	c #AA834A",
"z 	c #A9834A",
"A 	c #AA844A",
"B 	c #A88046",
"C 	c #A37B3E",
"D 	c #A07737",
"E 	c #A07636",
"F 	c #AA854A",
"G 	c #AC874C",
"H 	c #AB844C",
"I 	c #AC894B",
"J 	c #B0904E",
"K 	c #AF8E4D",
"L 	c #AC884B",
"M 	c #B19250",
"N 	c #AB8946",
"O 	c #AB8747",
"P 	c #AA8449",
"Q 	c #AE8A4E",
"R 	c #AC884D",
"S 	c #A2793B",
"T 	c #A07738",
"U 	c #A68041",
"V 	c #A98544",
"W 	c #AA8547",
"X 	c #AA8349",
"Y 	c #A88148",
"Z 	c #A67E44",
"` 	c #A47C41",
" .	c #4A4A4A",
"..	c #A17738",
"+.	c #9F7533",
"@.	c #9E7432",
"#.	c #9F7535",
"$.	c #A2783A",
"%.	c #AB8649",
"&.	c #B39452",
"*.	c #B69953",
"=.	c #AA8549",
"-.	c #AB8847",
";.	c #A98444",
">.	c #A98545",
",.	c #AA8747",
"'.	c #A47D3F",
").	c #A88247",
"!.	c #AB864C",
"~.	c #A98148",
"{.	c #A07637",
"].	c #A37A3E",
"^.	c #A88147",
"/.	c #AD8A4C",
"(.	c #B1914F",
"_.	c #B0904F",
":.	c #A47C3F",
"<.	c #B39451",
"[.	c #A88146",
"}.	c #A47D3E",
"|.	c #A27B3A",
"1.	c #A37B3B",
"2.	c #A57E40",
"3.	c #A37B3F",
"4.	c #A67F43",
"5.	c #AC884A",
"6.	c #A77F45",
"7.	c #A47C40",
"8.	c #9F7534",
"9.	c #B49552",
"0.	c #AD8A4E",
"a.	c #A88342",
"b.	c #292929",
"c.	c #A67F42",
"d.	c #AB874A",
"e.	c #B59953",
"f.	c #AD8A4B",
"g.	c #AA8745",
"h.	c #A98543",
"i.	c #A98643",
"j.	c #A98546",
"k.	c #AB874B",
"l.	c #A2793A",
"m.	c #A17739",
"n.	c #AF8D4D",
"o.	c #AF8C4E",
"p.	c #AB854B",
"q.	c #B29350",
"r.	c #B2934F",
"s.	c #B08F4E",
"t.	c #AC884C",
"u.	c #A98446",
"v.	c #A57F40",
"w.	c #A47B3E",
"x.	c #A57C40",
"y.	c #A98447",
"z.	c #AE8A4D",
"A.	c #B39351",
"B.	c #B19151",
"C.	c #A78046",
"D.	c #A67E43",
"E.	c #A57D43",
"F.	c #A78043",
"G.	c #AA8646",
"H.	c #A88345",
"I.	c #AF8E4F",
"J.	c #B0914E",
"K.	c #A98248",
"L.	c #AB864B",
"M.	c #B49752",
"N.	c #A37B3A",
"O.	c #A37C3B",
"P.	c #A37A3C",
"Q.	c #A78044",
"R.	c #A77F44",
"S.	c #AC8948",
"T.	c #A67D43",
"U.	c #A88245",
"V.	c #AB8948",
"W.	c #AE8D4B",
"X.	c #AE8E4B",
"Y.	c #080808",
"Z.	c #A68040",
"`.	c #A78341",
" +	c #A88442",
".+	c #A88443",
"++	c #AB8848",
"@+	c #A37C3C",
"#+	c #AA8448",
"$+	c #A67F41",
"%+	c #CE3900",
"&+	c #A98448",
"*+	c #B39450",
"=+	c #AE8B4C",
"-+	c #A67F44",
";+	c #A2793C",
">+	c #9E7433",
",+	c #A27B39",
"'+	c #A6813F",
")+	c #A78340",
"!+	c #A78241",
"~+	c #A88244",
"{+	c #EFEF00",
"]+	c #EF7B00",
"^+	c #AB864A",
"/+	c #A78045",
"(+	c #A98347",
"_+	c #A07837",
":+	c #AF8E4B",
"<+	c #B1924E",
"[+	c #AD8A4A",
"}+	c #A57E3F",
"|+	c #A78240",
"1+	c #A68240",
"2+	c #A98348",
"3+	c #9F7635",
"4+	c #B29250",
"5+	c #AD8C4B",
"6+	c #A88543",
"7+	c #B0914D",
"8+	c #AF8F4D",
"9+	c #9F7433",
"0+	c #B19251",
"a+	c #AE8B4D",
"b+	c #B0904D",
"c+	c #A88344",
"d+	c #A37A3D",
"e+	c #AA8647",
"f+	c #B09050",
"g+	c #AE8C4E",
"h+	c #181818",
"i+	c #A67F45",
"j+	c #A2783B",
"k+	c #A78243",
"l+	c #A57F3E",
"m+	c #A57F3D",
"n+	c #A47E3D",
"o+	c #A17938",
"p+	c #A47D3C",
"q+	c #A47D3D",
"r+	c #A37A3B",
"s+	c #A27A3B",
"t+	c #6B7B7B",
"u+	c #EFDEBD",
"v+	c #AF8F4B",
"w+	c #AD8C4A",
"x+	c #A47C3E",
"y+	c #9F7634",
"z+	c #AC8B48",
"A+	c #AF8F4C",
"B+	c #AC8A49",
"C+	c #A98346",
"D+	c #8C1800",
"E+	c #B39551",
"F+	c #A47C3D",
"G+	c #BD6B39",
"H+	c #B49651",
"I+	c #B1924F",
"J+	c #AE8C4C",
"K+	c #AE8D4C",
"L+	c #0018EF",
"M+	c #A57F3F",
"N+	c #A37C3D",
"O+	c #B1914E",
"P+	c #DEAD7B",
"Q+	c #AC8A47",
"R+	c #A37D3B",
"S+	c #AB8947",
"T+	c #A07836",
"U+	c #AB854A",
"V+	c #A07736",
"W+	c #B08F4D",
"X+	c #A68140",
"Y+	c #A88145",
"Z+	c #A17939",
"`+	c #AA824A",
" @	c #9E7332",
".@	c #AD8C49",
"+@	c #AC8A48",
"@@	c #A17838",
"#@	c #6B0000",
"$@	c #B08E50",
"%@	c #AD894C",
"&@	c #B39651",
"*@	c #A78142",
"=@	c #A78242",
"-@	c #A9824B",
";@	c #AC874B",
">@	c #AA8845",
",@	c #AA8548",
"'@	c #A47B40",
")@	c #A47B41",
"!@	c #A1773A",
"~@	c #9F7434",
"{@	c #AD8B4B",
"]@	c #AB8846",
"^@	c #AA8744",
"/@	c #AE8C4D",
"(@	c #AB8A47",
"_@	c #B08E4E",
":@	c #AE8D4D",
"<@	c #AF8E4C",
"[@	c #B0904C",
"}@	c #A37B3D",
"|@	c #A67F40",
"1@	c #A98645",
"2@	c #AE8D49",
"3@	c #AB8748",
"4@	c #AA8846",
"5@	c #B39550",
"6@	c #AD8B4D",
"7@	c #AC8B49",
"8@	c #AE8E4A",
"9@	c #A88149",
"0@	c #A6803F",
"a@	c #AC894A",
"b@	c #AD8B49",
"c@	c #B29451",
"d@	c #AC8949",
"e@	c #A78144",
"f@	c #AB8849",
"g@	c #AC874A",
"h@	c #A3793D",
"i@	c #AC894C",
"j@	c #A88144",
"k@	c #AB8749",
"l@	c #A67E41",
"m@	c #A57D3F",
"n@	c #A27A3C",
"o@	c #A98247",
"p@	c #B39652",
"q@	c #A57E3E",
"r@	c #AE8D4A",
"s@	c #A68043",
"t@	c #A57E42",
"u@	c #AD884C",
"v@	c #A27938",
"w@	c #AA8746",
"x@	c #A78042",
"y@	c #A37B3C",
"      . + @ # $ % &     * & &   = - ; > , ' ) ! ~ { ] ^         / ( ( / _ : < [ } } | 1 2 3 4 5 6   7 8 9 0 a b c d e f g % $ h i & ",
"j k l 8 m n o n n % / p   q 7 ( > a a r c 3 s t u v { w - - - - x y z y A y B C D E E E 1 c F   + o +   G H - > y I J K L l M m 8 - ",
"N O P - Q   * * & 7 R - Q 7 = > b c 4 } S E T C U V W X 0 0 0 0 Y Z } ` } }  ...+.@.#.$.{ %.  &.@ *.@ % * 7 7 8 - =.-.;.' d >.,.A > ",
"v '.).- ( G ( !.!.- > y A 9 9 ~.4 1 {.D E D ].^./.(._.R x x H > , :.t 1 1  . .{.E 2 1 c F 7 <.n o $ @ o n n + & G [.}.|.v v 1.2.^.> ",
"3.4.5.6 7 Q !.0 0 a 6.c } } c 7.S 8.@.8...C Z y _ 9.+ & 7 7 0.-  . .a.2.b. . .| 7.| c.d.7 & . . . &.@ e.e.*.@ &.* f.g.h.i.i.i.j.X > ",
"~.k.k 9.n q / H > < 4 l.1 1 1 m.D E #.D :.^.y 9 / <.o n n 9.m b. . .J L b. .~.Y Y , P n.m o.!.p.G * n $ o $ o n + <.q.q.j j r.s.t.x ",
"> 8 % @ e.n m / ( y u.a.v.w.].C | | | x.y.z.= - p   A.$ # e.+ b. . .h B.b. .y C.D.E.F.G.-.H.c } D.%.I.. . . . . . . m &.$ h q & 7 _ ",
"> p q $ @ @ n q Q G 6 J./.w Y Y Y ^., K./.m 6 p.> L.o.<.M.$ n b. . .M.+ b. .^.| 1 ..1 N.O.v l.1 P.Q.L.: ( ( ( ( ( ( G 7 <.q / / m &.",
"> : 7 q n @ e.M.m   <.o q _ : 9 Y R.D.R.j.S.G.Q.c T.U.V.W._.m b. . ._.X.b. .7.m.Y.Y.C Z.`. +Y.Y..+++l : > 0 0 0 0 0 > p   _ ( : 7 m ",
"y > p.z.q $ @ o 9.+ n o n % / y c S ..1 v O.1.l.3 l.v @+d =.: : b. .#+$+b. .1 Y.%+Y.&+Y.Y.r.%+Y.r.*+% 7 !.> 9 9 9 > > 9 !.p.> 9 !.G ",
"D.T.T.] =+. B.B.i i B.B.q _.L -+;+2 >+8.,+'+`.`.`.`.)+!+~+< 0 0 b. .c Y.Y.Y.Y.Y.%+{+Y.]+Y.]+{+Y.e.*.@ q _ / / / / ^+/+T.T.T.Z b r 0 ",
"l.$.$.:.(+G R G G G G G : L.4.l.E 8.+._+`.:+<+<+<+<+<+<+n.G > > b. .Y.]+Y.]+]+Y.]+{+]+{+Y.]+{+Y.Y.Y.$ n + &.&.+ % [+}+3 3 3 l.7.^.> ",
"|+1+|+.+5.t.2+-+Z Z Z Z Z E.;+#.>+3+,+|+S.k 9.$ n A.&.$ &.I./ Q b. .Y.{+%+]+{+{+]+]+]+{+]+{+{+]+{+Y.q + @ e.@ n 4+5+6+1+1+1+|+;.L / ",
"7+7+7+<+q.8+~ S 3 3 3 3 $.1 D #.9+s a.X.6 z.& + q /   + o + <.A.* Y.]+{+]+%+%+%+]+]+]+]+{+{+]+{+Y.R 8 . n e.$ 0+/ a+b+7+7+7+7+<+q.<.",
"q q q % % g c+d+;+;+;+;+;+;+;+;+S w.e+* _ ( 0.. 7 ( p f+% % % q & b.Y.]+%+%+%+]+{+{+]+]+{+{+{+Y.a 0 9 Q m % m g+!.8 . % q q q q q q ",
"8 8 8 8 8 G w C.b C.C.C.C.C.C.C.C.^.A G ( 9 - : ( 9 - : 8 8 8 8 : h+%+]+%+]+]+{+]+]+%+]+{+]+]+]+Y.0 > !.R 8 p ( 9 - R 8 8 8 8 8 8 8 ",
"> > > a , 6.6.6.6.C.< > > > > > > > > > < B b b b 6.6.6.6.6.6.6.b h+]+ .h+h+{+]+%+]+%+]+]+%+]+{+Y.Y.Y.!.9 !.p G 9 > > > > > > > > > ",
"> > > Y ` S S S S C 6.> > > > > > > > a i+d+S S S S S S S S S S j+h+%+h+ .h+{+]+h+h+h+h+h+h+h+]+Y.{+Y./ !.Q . 7 - > > > > > > > > > ",
"> H : ^+k+l+m+n+1.d+[ y ( p 8 t.A ^.C.6.| E 9+8.o+p+m+m+m+m+q+r+s+h+h+h+ .h+]+h+ .t+t+u+u+t+ .h+]+Y.o m / 7 m & Q p p p p 8 8 : - > ",
"> G   m b+v+v+w+W C.Y p.o.m % k e+x+S S ..8.>+y+l+z+A+v+v+v+B+C+(+h+h+D+h+h+h+h+ .t+t+u+u+t+ .h+Y.e.@ n %   / 7 m q q q q q q   : > ",
"> : * <.M.M.+ M o.p R 0.* A.o E+S.F+3 l.1.p+h+h+h+h+h+h+h+h+h+h+h+h+h+G+b.%+D+G+h+h+h+h+h+h+h+h+% <.<.<.% * Q 7 q 9.$ @ @ H+I+J+#+, ",
"> - p I.&.n . _ & q q m I.7 % 9.K+[.Z h+h+h+b.b. .t+t+t+ .h+b.b.h+b.h+D+b.]+G+G+t+L+G+G+t+L+Y.G l Q Q Q /   . * o.. n # @ <+g.M+N+d+",
"> x ( / m q 7 l g O+<+b+5.#+f.8+h+h+b.t+ . .b.b.b. . . . .b.b. .h+h+h+h+h+%+D+D+u+L+P+P+u+L+Y.> > > > > - / m & Q 7 q <.<+Q+R+8.8.8.",
"> : 7 f+7 _ & s.S+ +`.|+h+h+b.b.h+b.b.b.h+h+h+b.b.b.b.b.b.h+b. .b.h+b.Y.h+D+D+G+P+P+P+P+P+G+Y.0 0 0 0 0 > ( /   . & g+5..+n+T+9+9++.",
"Y ^+* k L U+K+X.|+V+8.h+t+t+ . .h+h+h+h+b.b.h+h+h+h+h+b.h+b. . . .b.h+Y.Y.Y.D+D+D+G+P+P+G+D+h+G G G G - > < < I W+K+P c 1 y+8.2 T 1 ",
"C 4.d.L Q.'.X+X+,+8.h+ . .Y.h+h+b.h+h+h+h+h+h+h+h+h+h+h+h+b.b.b. . . .b.Y.h+Y.D+G+G+G+G+D+Y.m . m m f+Q 9 [ | }+!+Z.w.3 #.>++.1 7.D.",
"3+S D.6.P.E 2 2 8.3+Y.Y.Y.P+D+D+h+h+h+Y.. t./+P.h+h+h+h+h+h+h+b.b.b.b.h+Y.h+b.Y.Y.Y.Y.Y.h+Y.o n + n n . t.Y+q+O.O.N.Z+m.......C C.`+",
"9+E j+j+{.>+ @ @ @Y.u+P+G+Y.Y.Y.h+h+# @ 9.. 5./+~+h+h+h+h+Y.Y.Y.Y.Y.h+b. . .b.Y.b.Y.Y.h+b.Y.Y.Y.& % o + m K .@z++@G.F.c c c E.6.r > ",
"T @@v |.u u u u Y.P+G+D+Y.G+P+P+h+n n 9.9.<.  t.a+M Y.Y.#@#@#@#@#@#@h+ .b.b.Y.b.Y.Y.Y.b. .b. .h+Y.Y.Y.Y.+ <.<.<.% g L.y p.p.p.p.!.!.",
"c F.G.Q+Q+Q+Q+Q+Y.G+D+Y.Y.D+Y.Y._ 7 7 7 7 7 & . & $@Y.#@#@D+D+D+D+D+h+t+b.%+#@Y.Y.h+h+h+b.h+b.Y.b.b.b.b.Y.Y.7 I.7 = - : 7 . . f+f+f+",
"p.%@_.<.&@H+H+H+Y.Y.Y.p Y.Y.  ( x x 9 y w A /.(.n.k.Y.#@#@D+%+D+D+h+ . .b.%+D+#@Y.Y.Y.Y.Y.h+h+h+h+ .t+ .b.Y.H H H - !./ q n n n + + ",
". & $@m n # # # # n o.G & +   - 0 `+b } | 7.*@V =@h+D+%+D+D+%+]+]+h+t+b.]+%+#@Y.w...8.@.Y.Y.h+h+b.b.b.Y.Y.Y.0 -@> R 7 & & q o n m I.",
"j _.8 8 m n M.n M.<./ G   % o.y < Y } m.E E ..t t h+D+D+%+%+%+%+%+h+ .b.%+#@Y.].E 8.8.3+1 ' Y.Y.h+Y.Y.D+D+Y.Y.Y.9 l (.g ;@/.(.(.8 - ",
">@,.P - Q 7     $@7 R - 0.g+,@' ` 7.S 3+>+8...w.h+%+D+D+D+D+%+%+h+ . .h+D+Y.C ..+.>+2 S ' d.* + Y.Y.G+P+P+G+D+Y.x =.G.~ { $+V e+P > ",
"v '.).- ( ( p.A A A y a y 2+4 ..E E 2 8.8.D | Y.b.#@%+%+D+#@#@D+h+t+h+D+Y.m...D E E 3 ' U+I.<.n M.Y.Y.P+D+P+Y.D+Y.[.}.|.v v 1.2.^.> ",
"| F.I I.  /.] } '@)@` ` ` | !@~@@.>+>+8.1 | [ Y.Y.b.b.#@#@#@#@h+ .b.h+#@Y.| | '@'@| ' %.7 & *   f+<.Y.G+Y.Y.P+Y.Y.{@]@^@^@^@^@G.P > ",
"< L.* + 9.J ~ l.1 t t t t t @@s T+V+V+D :.^.y Y.Y.Y.b.b.Y.Y.Y.b.Y.b.Y.Y.< < X X X w L.* %   R - G   E+Y.H+H+Y.D+Y.<.j q.q.j q.s.G > ",
"> ( o.. . /@H.2.!+i.! i.i.i.! ! ! h.U 4 (+l 8 Y.D+D+Y.Y.Y.Y.b.Y.Y.Y.D+D+Y.Y.7 I.7 7 & &.o % 7 : x %.S.Q+Q+(@Q+Y._@& & & & . . _ ( > ",
"> 9 - !.( p.y F :@r.q.r.r.r.j j *+r./@^+a+q Y.D+D+D+D+D+D+D+%+D+D+%+%+D+D+Y.Y.Y.+ + + n M.n 4+/ X ' 1.u u ,+@+) ^+: : : : G ( - 9 > ",
"> > 0 0 0 0 0 - / . . . . q 9.@ # @ % & q o Y.%+%+%+D+D+D+%+%+Y.%+%+D+D+%+%+]+%+Y.Y.. . _.<@+@u.' S 8. @8.N.`.++a+o.g+o.g+8 H 0 0 > ",
"`+> > 9 9 9 9 H ( : : G ( t.* n @ $ n + n o Y.D+D+%+%+D+%+D+%+Y.%+D+D+%+%+%+%+]+%+D+Y.!.F d 1.Z+..{.2 8.s  +[@<.E++ + + &.& R 9 9 9 ",
"D.[.L g+o.g+g+g+g+/ / 8 2+/+d.* m . m m m Y.D+%+%+%+D+D+D+#@Y.D+D+D+D+D+D+%+]+]+]+%+D+Y.` 3 ~@ @8.m.}@v..+B+_.&.@ *.@ n q & 7 / / / ",
"1 |@W.<.+ &.&.<.<.&.+ (.1@x+Q.L.: G G G Y.D+%+]+]+%+D+D+D+#@Y.Y.D+D+%+%+%+%+%+]+]+%+D+Y.1 D 2 y+D | ^.f.J g l   9.@ $ q / / q + + + ",
"d+d {@m q m m m m q n &@2@V 3@8 : > , Z Y.D+%+]+]+%+%+D+D+Y.4@K Y.Y.D+D+%+%+%+]+]+]+D+Y.`.`.`.`.a.C+9 Q . & o.7 . m m o.( Q &.# # e.",
", < p.: R : : : : Q B.n 5@I+q.% _ A T.;+Y.%+]+]+]+]+%+D+Y.Y.s.l : : Y.Y.D+D+%+%+%+%+D+Y.<+<+<+<+J 6@p.- R 7 q & 8 : : - 9 l % @ @ @ ",
"> > > > > > > > 0 - g+m q % n n & x Z w.b.%+]+]+]+]+%+D+Y.&   G > Y.#@#@Y.Y.#@%+%+D+Y.q q q q q B./ H 0 9 Q & o.- > > r C.u.7@8@8@8@",
"> > > > > > > > > 9 !.R R Q m +   p.9@h+#@%+]+]+]+]+%+D+Y.: G x > Y.D+#@D+D+%+%+D+Y.R R R R R p R !.> > > - : ( 9 > > b C s+p+n+n+n+",
"> > > > > > > > > > > > > - g+. / H 0 h+D+D+%+]+]+%+#@Y.> > > > > Y.Y.%+D+D+D+Y.Y.6.6.6.6.6.6.6.b Y y > > > > > > > > C.| S S ;+;+;+",
"> > > > > > > > > > > > > > !.R !.9 > h+D+#@D+%+%+%+#@Y.> > > > Y.Y.b.Y.%+D+D+Y.$.$.$.$.$.$.$.3 ;+D.a > > > > > > > > < , C.b b b b ",
"> > > > > > > > > > > > > > > > > > > h+D+D+#@D+D+#@Y.> > > > > Y.Y.Y.b.Y.Y.Y.+.8.8.8.8.8.8.8.+.{.} < > > > > > > > > > > > > > > > ",
"> > > > > , d+#.+.8.8.8.+.D 4 a > > > h+%+%+D+#@D+#@Y.> > > > > Y.Y.Y.Y.b.Y.> > > > > > > > > > > > > > > > > > > > > > > > > > > > ",
"> a Y B C.D.S 8.9+2 |.n+m+0@u.G ( > > h+D+%+D+#@#@#@Y.a > > - : 8 b.Y.b.Y.Y.C.b ^.U+p 8 p p p p p 8 8 8 p ( > r , Y `+> > > > > > > ",
"> Y } ;+;+l.{.8.9+o+h.8@A+A+O+m / H h+%+D+D+%+D+#@#@Y.~.> > R * q Y.b.Y.b.b.Y.j+2.a@m % q q q q q q q % m _ x 6.| c r > > > > > > > ",
", D.$.8.8.3+..l.1.X+b@q.n o n % I.8 h+D+D+%+D+D+#@#@Y.Y > > p . + Y.Y.Y.b.b.b.Y.!+w+c@o @ @ @ @ @ n <.<.% & 8 [.w.} ~.> > > > > > > ",
"P.$.E +.9+D | Y+d@W./@7 % h B.o.I.m Y.Y.%+D+D+D+Y.Y., a > > - 8   + Y.Y.G+b.G+Y.W./@7 % @ *.e.e.$ q g+Q /   . /.] , a > > > > > > > ",
"3 3 1 1 1 d+6.L.  m 7 Q * q I.Q . n n Y.Y.Y.Y.Y.Y.> x ( ( x H G / m m Y.Y.Y.Y.r.8+d.P {@O+<+<+j % o.- - p I.q 7 - 0 > - G !.9 x ( : ",
"Z Z Z Z Z 6.r H p g+& . 7 g+I.m 9.$ % Y.b. .b.b.Y.9 8 * 7 : : I.& 7 7 & . I./.G.!+}.w.M+|+|+a.3@8 : - l & * g+R H > > p   7 ( :   m ",
", Y < > - !.x 9 !.8 f+q 7 0.  % *+I+{@Y.Y.b.b.Y.Y.> 0.m g ^+;@_.* k.^+* . t./+P.E 8.2 ..l.1.q+e@y > H g+m 7 !.> > > 9 l m . Q / m &.",
"C c Y ( 7   p ( / &   7 * . $@g+f@.+Y.b.Y.Y.Y.b.Y.r ( l %.c.F.L g@4.c.d.L e@;+{.9+>+E h@4.G.B+d.> 0 > : Q R > 0 > > > ( Q I.. . 7 _ ",
"#.S 6.G & . t.U+6 m /.U+6 m /@2+7.@@Y.Y.b.b.Y.b.Y.F : G ] s+;+-+6.C d+R.6.P.3+8.#.E S D.A 6 M 7 : ( ( G : : ( 9 < < > > x 8 J K ^+K.",
">+3 [ - = i@j@c.%./.U.{ ,@/.y.| m.8.Y.Y.Y.Y.Y.b.Y.* . * 3@N.E j+| } } | ;+{.>+>+E d+Z Y x p _ * . . . . . . * k@l@T.r > > P >.=@m@].",
"u }.(+( : P x+l.' B 7.n@' [.7.D 8.8.Y.b.Y.Y.b.b.Y.M.@ M.v+X+o+1 :.).o@:.1 t t @@S Z a > > - p   <.n M.n + n p@w+0@{ K.> r D.S V+2 2 ",
"Q+w+K & & f.q@E 3 3.` } 7.].m.~@@.#.Y.Y.b.b.b.Y.Y.o *.@ j r@e s@] =+a+C+F.e ]@~+-+Y > > - Q &     % o A.& q M.r.w+f@A , } j+#. @@.>+",
"<.E+n o $ <+6+u ..n@Q.K.t@l.@@o+s 1 Y.G+Y.Y.Y.D+Y.<.o @ @ n (.%@8 . m l u@* (.%@y `+> a A /@(.g+G I.%   R o.<.E+r.:@A -+N+u u v@v@v@",
"I.. n e.e.&@v+w@x@F.5./@,@c.c+w@c+D.Y.Y.G+P+Y.G+Y.  i n e.# h q &     & & & _ : H ; a 6.{ =@1@#+> R / p H : g+{@]@=@2.d g.N N N S+S+",
"G / q n @ @ M.q.a+G   4+g+;@6 (./@A a Y.Y.Y.Y.Y.g ;@l % n n n + m 8 8 . m Q p.y < < , | ..s y@Q.9 ( ( - 9 H 9 /+}@Z+|..+8+E+E+E+<.j "};
