/* XPM */
static char * p_mov_right_0_xpm[] = {
"66 66 343 2",
"  	c #AA834B",
". 	c #A88047",
"+ 	c #A37A3D",
"@ 	c #9F7535",
"# 	c #9F7533",
"$ 	c #9F7534",
"% 	c #A07737",
"& 	c #A57D41",
"* 	c #A9824A",
"= 	c #A88148",
"- 	c #A88046",
"; 	c #A78046",
"> 	c #A67E43",
", 	c #A2793B",
"' 	c #9F7433",
") 	c #A07635",
"! 	c #A27B3A",
"~ 	c #A47E3D",
"{ 	c #A57F3D",
"] 	c #A6803F",
"^ 	c #A98446",
"/ 	c #AC874C",
"( 	c #AC864C",
"_ 	c #A98249",
": 	c #AB854C",
"< 	c #AC874D",
"[ 	c #AD894D",
"} 	c #A98348",
"| 	c #A77F46",
"1 	c #A88147",
"2 	c #AB854A",
"3 	c #AD884D",
"4 	c #A98149",
"5 	c #AA824A",
"6 	c #A57C41",
"7 	c #A2793C",
"8 	c #A2793A",
"9 	c #A07637",
"0 	c #A17938",
"a 	c #A98543",
"b 	c #AE8E4A",
"c 	c #AF8F4C",
"d 	c #B1914E",
"e 	c #B19150",
"f 	c #AE8B4E",
"g 	c #AB844C",
"h 	c #A77F45",
"i 	c #A37B3E",
"j 	c #A57D42",
"k 	c #A98148",
"l 	c #AC884D",
"m 	c #B08F4F",
"n 	c #B29251",
"o 	c #AF8D4D",
"p 	c #A78243",
"q 	c #A2783B",
"r 	c #A57E40",
"s 	c #AC894A",
"t 	c #B29351",
"u 	c #AF8C4F",
"v 	c #AB844B",
"w 	c #A47B3F",
"x 	c #A2783A",
"y 	c #9F7635",
"z 	c #A17738",
"A 	c #A37B3B",
"B 	c #A68140",
"C 	c #AD8B49",
"D 	c #B29350",
"E 	c #B49652",
"F 	c #B49753",
"G 	c #AF8E4F",
"H 	c #A88246",
"I 	c #A37B3D",
"J 	c #A17839",
"K 	c #B19050",
"L 	c #B39552",
"M 	c #B08F4D",
"N 	c #A98544",
"O 	c #A57E3D",
"P 	c #A47D3C",
"Q 	c #A78241",
"R 	c #AD8C4A",
"S 	c #B29451",
"T 	c #B59853",
"U 	c #B39451",
"V 	c #B08F50",
"W 	c #A88146",
"X 	c #A47B3E",
"Y 	c #A37A3C",
"Z 	c #A07636",
"` 	c #A88145",
" .	c #AC8949",
"..	c #AE8D4B",
"+.	c #AE8C4D",
"@.	c #AF8D4F",
"#.	c #B49653",
"$.	c #B19151",
"%.	c #AF8C4E",
"&.	c #AD8A4C",
"*.	c #A67E44",
"=.	c #A67F44",
"-.	c #B08E4F",
";.	c #AE8B4D",
">.	c #AE8E4B",
",.	c #B69953",
"'.	c #B59953",
").	c #B59753",
"!.	c #AE8C4E",
"~.	c #AE8A4E",
"{.	c #A1783A",
"].	c #AB864B",
"^.	c #AA824B",
"/.	c #B2934F",
"(.	c #AF8F4D",
"_.	c #AB874A",
":.	c #AA8449",
"<.	c #AD8B4B",
"[.	c #B1924E",
"}.	c #B29450",
"|.	c #AB864C",
"1.	c #AA844B",
"2.	c #B49552",
"3.	c #AA8646",
"4.	c #A47D3E",
"5.	c #A57F3F",
"6.	c #A78240",
"7.	c #A88342",
"8.	c #AB8748",
"9.	c #AD8A4D",
"0.	c #B09050",
"a.	c #AD8A4E",
"b.	c #B39450",
"c.	c #B1924F",
"d.	c #AA8549",
"e.	c #AD894B",
"f.	c #B0904E",
"g.	c #AE8C4C",
"h.	c #A88149",
"i.	c #AF8E4E",
"j.	c #AB864A",
"k.	c #AC874B",
"l.	c #B0904F",
"m.	c #AB874B",
"n.	c #AC884C",
"o.	c #A78045",
"p.	c #A47D3D",
"q.	c #A78144",
"r.	c #AA834A",
"s.	c #B39452",
"t.	c #B08E50",
"u.	c #AB8849",
"v.	c #A88443",
"w.	c #A57F40",
"x.	c #A47C3E",
"y.	c #A57E3F",
"z.	c #A68040",
"A.	c #A47C3F",
"B.	c #A57D43",
"C.	c #AB8649",
"D.	c #A67F42",
"E.	c #A78043",
"F.	c #AC884B",
"G.	c #AC874A",
"H.	c #A67F43",
"I.	c #9E7433",
"J.	c #A3793D",
"K.	c #AC8A49",
"L.	c #AF8D4E",
"M.	c #A47C40",
"N.	c #A17838",
"O.	c #A27A3A",
"P.	c #A37C3B",
"Q.	c #A68042",
"R.	c #AA854A",
"S.	c #A27A3B",
"T.	c #A77F44",
"U.	c #AA844A",
"V.	c #B19250",
"W.	c #AF8E4D",
"X.	c #A98248",
"Y.	c #A67E45",
"Z.	c #AD894E",
"`.	c #AC894C",
" +	c #A88144",
".+	c #A88245",
"++	c #A57E41",
"@+	c #AA8548",
"#+	c #A98447",
"$+	c #A17739",
"%+	c #9E7432",
"&+	c #A88345",
"*+	c #AC8947",
"=+	c #A37B3A",
"-+	c #AB8749",
";+	c #A67E41",
">+	c #A67D43",
",+	c #A98545",
"'+	c #A78242",
")+	c #A57D3F",
"!+	c #A37A3E",
"~+	c #A27A39",
"{+	c #A98347",
"]+	c #A67E42",
"^+	c #A27A3C",
"/+	c #B49752",
"(+	c #AF8F4B",
"_+	c #A88247",
":+	c #A98247",
"<+	c #A27939",
"[+	c #B39652",
"}+	c #A07736",
"|+	c #AC8A47",
"1+	c #AD8A4B",
"2+	c #A57E3E",
"3+	c #A37B3F",
"4+	c #A47C41",
"5+	c #9F7434",
"6+	c #AE8D4A",
"7+	c #AA8645",
"8+	c #A68043",
"9+	c #AE8B4C",
"0+	c #A98346",
"a+	c #AB8846",
"b+	c #A88244",
"c+	c #B39351",
"d+	c #9E7332",
"e+	c #B39551",
"f+	c #A88543",
"g+	c #A78044",
"h+	c #A57E42",
"i+	c #A17837",
"j+	c #B1914F",
"k+	c #AD894C",
"l+	c #AD884C",
"m+	c #AE8D4D",
"n+	c #A37C3D",
"o+	c #A27938",
"p+	c #B39651",
"q+	c #AA8746",
"r+	c #A78042",
"s+	c #AC884A",
"t+	c #A88344",
"u+	c #B29151",
"v+	c #B69954",
"w+	c #080808",
"x+	c #AA834C",
"y+	c #AA8448",
"z+	c #AA8745",
"A+	c #AB8946",
"B+	c #AB8947",
"C+	c #B29250",
"D+	c #AB854B",
"E+	c #A17939",
"F+	c #A78143",
"G+	c #A98644",
"H+	c #A88343",
"I+	c #AD8B4C",
"J+	c #CE3900",
"K+	c #EF7B00",
"L+	c #AD8B4A",
"M+	c #B1904F",
"N+	c #A98349",
"O+	c #6B7B7B",
"P+	c #EFEF00",
"Q+	c #AC894B",
"R+	c #AB8747",
"S+	c #A07738",
"T+	c #292929",
"U+	c #4A4A4A",
"V+	c #AB8847",
"W+	c #A98444",
"X+	c #AA8747",
"Y+	c #A47D3F",
"Z+	c #A98643",
"`+	c #A98546",
" @	c #AA8349",
".@	c #B08F4E",
"+@	c #A57C40",
"@@	c #AE8A4D",
"#@	c #B0914E",
"$@	c #AC8948",
"%@	c #AB8948",
"&@	c #A67F41",
"*@	c #DEAD7B",
"=@	c #8C1800",
"-@	c #181818",
";@	c #BD6B39",
">@	c #EFDEBD",
",@	c #AD8A4A",
"'@	c #A68240",
")@	c #AD8C4B",
"!@	c #B0914D",
"~@	c #0018EF",
"{@	c #B19251",
"]@	c #B0904D",
"^@	c #AA8647",
"/@	c #A57F3E",
"(@	c #AA8547",
"_@	c #6B0000",
":@	c #B49651",
"<@	c #A37D3B",
"[@	c #A88442",
"}@	c #A78341",
"|@	c #A57D3E",
"1@	c #AD8D49",
"2@	c #A07836",
"3@	c #AE8D4C",
"4@	c #B59752",
"5@	c #9F7634",
"6@	c #A27B39",
"7@	c #AC8A48",
"8@	c #AD8C49",
"9@	c #AD8B48",
"0@	c #AF8E4C",
"a@	c #AC8B48",
"b@	c #A78142",
"c@	c #A67F40",
"d@	c #A57D40",
"e@	c #A37B3C",
"f@	c #AE8C4B",
"g@	c #A9824B",
"h@	c #AA8845",
"i@	c #A47B40",
"j@	c #A47B41",
"k@	c #A1773A",
"l@	c #AA8744",
"m@	c #AB8A47",
"n@	c #B08E4E",
"o@	c #A37C3C",
"p@	c #AB8848",
"q@	c #B0904C",
"r@	c #A17937",
"s@	c #A5803E",
"t@	c #A98645",
"u@	c #AE8D49",
"v@	c #A78140",
"w@	c #AA8846",
"x@	c #A78340",
"y@	c #B39550",
"z@	c #B2924F",
"A@	c #AD8B4D",
"B@	c #AC8B49",
"          . + @ # $ $ $ # % & *                                                                                                     ",
"  * = - ; > , $ ' ) ! ~ { ] ^ / (           _ . ; ; = *     : < [ [ [ [ / } ; | 1 2 3 [ 3 3 3 3 3 [ [ [ 3 (   4 . = 5               ",
"  = 6 7 7 8 9 $ ' 0 a b c c d e f g       5 h i , 7 j k     l m n n n n o p 7 q r s e t n n n n n n n t e u v h w j 4               ",
". > x $ $ y z 8 A B C D E F E t G [ l 3 3 / H I J , 6 =     3 K L F F L M N O P Q R S F T T T T T E U U t V [ W X 6 k               ",
"Y x Z # ' % w `  ...+.@.t #.$.%.G e n n n e &.H *.=.. *     : [ -.L L m ;...>.b ..+.@.t T ,.'.'.).n !.~.f -.K &.H . *               ",
"{.{.J J J + h ].-.e @.~.m n G ~.K E E L E E K ( ^.  v ( ( v g / f e e !.f K D /.(._.:.<.d [.[.}.t %.: : 3 G n @.: ^.  : / |.1.v ( < ",
"*.*.*.*.*.h 4 g 3 !.V K @.!.G e 2.).t -.n E e <   1.[ m @.< < G V @.@.V K G &.3.Q 4.X 5.6.6.7.8.[ < : 9.V m !.l g     3 -.@.( < -.e ",
". = _   : |.v 1.|.[ 0.n @.a.-.t b.c.<.d.e.f.g.:.h.  a.e i.j.k.l.m m.j.m K n.o.Y Z $ ) z 8 A p.q.r.  g !.e @.|.      1.9.e K ~.f e s.",
"i j = ( @.-.3 ( f V -.@.m K t.!.u.v.w.x.y.Q z.A.B.4 ( 9.C.D.E.F.G.H.D._.F.q.7 9 ' I.Z J.H.3.K._.  ^.  < ~.l   ^.      ( ~.G K K @.u ",
"@ , h / V K n.2 L.e &.2 L.e +.} M.N.y ) % J O.P.Q.R.< / H S.7 =.h i + T.h Y y $ @ Z , > U.L.V.@.< ( ( / < < ( 1._ _     v [ f.W.j.X.",
"I.{.Y.: Z.`. +D.C.&..+++@+&.#+w $+$ %+$ {.& &+*+..m K m 8.=+Z q w 6 6 w 7 9 I.I.Z + *.= v 3 u m K K K K K K m -+;+>+4     :.,+'+)+!+",
"~+4.{+( < :.x.8 ]+- M.^+]+W M.% $ $ y $+M.X.9.V.L /+T /+(+B 0 J A._+:+A.J <+<+N., *.*     : 3 -.U E /+E L E [+R ] ++X.  4 > , }+) ) ",
"|+R W.V V 1+2+Z {.3+4+6 M.!+$+5+%+@ , & ; r.< u n F ,.T }.6+7+8+H 9+;.0+E.7+a+b+=.=     : ~.V -.-.t F c+V n /+/.R u.U.. 6 q @ d+%+I.",
"U e+E F ).[.f+~+z ^+g+X.h+8 N.0 i+J 6 =     g / @.U F T T E j+k+[ K e 9.l+m j+k+r.5   * U.+.j+!./ G t -.l %.U e+/.m+U.=.n+~+~+o+o+o+",
"G K E '.'.p+(+q+r+E.s++.@+D.t+q+t+> ; r.  g 3 @.t.-.u+E '.v+#.n V -.-.V V V u < w+x+* h ++'+w+y+  l f 3 g < !.<.a+'+r Q.z+A+A+A+B+B+",
"/ f n E T T /+D ;./ -.C+!.k.L.j++.U.*   * r.&.j+i.k.9.t E E E L e [ [ K e ~.D+r.w+w+. w z w+w+g+1.w+( : 1.g 1.o.I E+! v.(.e+e+e+U }.",
"-.-.-.K L T v+).t V -.-.m V V -.Z.: x+  . ]+F+G+H+++H I+-.-.-.-.f ( ( f u < _ Y.w+J+w+J w+w+K+w+w+w+w+[ 1.^.* | j Q.7+L+i.t ).#.u+V ",
"}.M+9.[ e E F E E t f 3 -.n @.(   * * 4 j {.i+<+~+O.++N+: : w+w+w+w+O+O+U.r.- i w+J+w+w+J+P+K+w+w+P+w+-./ g :   r.Q+f.W.F.9.V.e [ : ",
"A+R+:.: ~.-.m m V @.l : ~.@.Z.  | j & 6 , Z S+i T+T+T+T+w+w+w+w+w+w+w+T+U+6 X w+w+J+J+J+K+P+K+J+P+K+w+t m @.@.[ : d.V+W+]+Q.,+X+U.  ",
"O.Y+_+: ( / ( |.|.:   r.U.1.1.k & J 9 % Z % !+1 &.T+T+T+T+T+w+T+. A.<+w+w+T+T+w+w+J+J+K+P+K+K+P+P+w+w+w+w+E L V / W 4.! O.O.A r 1   ",
"3+H.s+L.@.~.|.^.^.* h j 6 6 j M., $ %+$ z i *.r.u 2.L V @.@.a.w+O+O+O+O+w+T+T+w+w+J+K+K+P+K+P+P+K+K+P+K+w+w+T s.m 1+z+a Z+Z+Z+`+ @  ",
"k m.M+2.E n f g   _ & 8 J J J $+% Z @ % A.1 r.1.f U F E E 2.U+w+w+w+w+w+w+w+w+w+w+J+P+P+K+K+P+K+K+P+P+K+K+w+w+E L U D D }.}./..@n.v ",
"  [ t T '.E e f ( r.^ 7.w.X !+i w w w +@#+@@Z.: 3 -.c+).U+w+w+w+K E #.w+w+w+w+w+K+K+J+K+K+K+K+K+P+K+K+K+w+w+K K K K e s.).#.n V @.u ",
"  3 n ).T T E n ~./ L.#@&.N+= = = 1 . X.&.e L.D+  ].w+w+w+w+E L L /+/+L e [ w+J+T+T+w+K+J+K+K+K+K+K+P+K+K+K+w+w+( ( / @.U n f f e s.",
"  < @.n E T './+e -.U F n u < 1.= T.> T.`+$@3.g+j >+.+%@..l.e e e e l.>.$@w+w+w+T+T+w+w+w+K+P+K+P+P+K+J+w+w+w+^.^.^.  3 -.u ( < @.e ",
"r.  D+@@n ).T F 2.L E F E t f r.j , z w+w+w+w+w+w+w+w+w+Q.d.< < / / y+&@P.w+K+w+w+w+w+K+P+P+T+T+T+T+K+w+w+  1.1.1.    1.|.D+  1.|./ ",
"> >+>+H 9+K $.$.u+u+$.$.n l.F.=.7 ) w+*@=@=@w+-@-@-@-@-@w+w+w+w+w+w+j w -@J+w+w+;@w+w+w+K+T+T+O+>@>@T+J+w+w+f f f j.o.>+>+>+*.| 4 ^.",
"8 x x A.{+/ l / / / / / < ].H.8 Z $ w+=@=@=@w+-@w+w+-@-@-@-@-@-@w+w+w+w+w+w+w+K+;@w+K+K+w+w+w+O+O+>@O+w+w+w+w+L t ,@y.{.{.{.8 M.1   ",
"6.'@6.v.s+n.} =.*.*.*.*.*.B.7 @ I.w+*@;@=@w+w+w+w+-@w+-@-@w+w+w+-@-@w+w+J+w+w+K+w+;@;@w+=@O+w+w+T+O+T+w+T '.T E C+)@f+'@'@'@6.W+F.f ",
"!@!@!@[.D (.H+, {.{.{.{.x J % @ ' i+w+w+w+;@=@w+w+w+w+w+w+w+-@-@U+O+U+w+-@w+w+w+=@=@=@*@*@>@~@=@w+w+w+K E '.).{@f ;.]@!@!@!@!@[.D U ",
"n n n t t i.t++ 7 7 7 7 7 7 7 7 , X ^@m w+w+w+K @.( 3 w+w+T+T+T+T+U+O+O+-@-@w+w+=@=@;@=@;@>@~@;@=@w+1.~.e t e !.|.[ K t n n n n n n ",
"[ [ [ [ [ / N+; | ; ; ; ; ; ; ; ; 1 U./ ( 1.: < w+w+w+-@-@-@T+T+T+U+U+O+T+-@T+w+w+=@=@=@*@*@>@;@w+w+  |.l [ 3 ( 1.: l [ [ [ [ [ [ [ ",
"      * . h h h h ; _                   _ w+w+w+-@T+T+T+-@-@T+T+T+U+U+w+T+-@w+w+w+w+w+;@;@*@*@w+w+[ [ |.1.|.3 / 1.                  ",
"      = 4+, , , , i h                 w+w+w+-@T+T+T+T+T+T+-@T+T+T+U+w+w+T+T+-@w+w+w+-@w+w+w+w+w+t t n f |.~.K @.:                   ",
"  g < j.p /@{ ~ A + Y.r.( 3 [ w+w+w+w+-@T+T+-@T+T+T+T+-@-@T+T+T+w+w+w+T+T+T+-@-@w+w+w+@.t c+U E T T F e f @.e V ~.3 3 3 3 [ [ < :   ",
"  / -.e ]@(+(+R (@; = D+%.w+w+w+;@;@w+U+T+T+-@T+T+T+-@-@-@T+w+w+w+w+w+w+-@T+-@T+T+w+1./ [ [ f n ).'.T E t -.f @.e n n n n n n -.<   ",
"  < m U /+/+L V.%.3 l a.w+>@*@*@;@;@=@w+U+T+T+T+T+-@T+w+w+w+_@=@_@_@_@_@w+w+w+O+w+- . _     : %.t U U U t m ~.@.n 2.).T T :@c.g.y+. ",
"  : 3 G s.E K u V n n e w+w+=@=@*@;@=@w+U+T+-@T+-@-@w+-@w+_@_@=@=@_@_@_@_@w+O+w+w+7 w h *     / 9.~.~.~.f -.K m %.K E v+T [.z+5.n++ ",
"  v ( f e n @.9.i.d [.]@w+;@>@>@*@;@w+w+U+w+w+w+w+w+-@-@w+_@_@_@=@=@=@J+w+*@J+w+P P 5.0+|.:             : f e V ~.@.n U [.|+<@$ $ $ ",
"  < @.0.@.u V .@B+[@}@6.|@w+=@;@*@-@w+U+w+w+u f w+_@w+-@-@w+_@_@_@=@=@w+T+=@w+6+6+1@..f.m [ 1.^.^.^.^.^.  ( f -.K V !.s+v.~ 2@' ' # ",
"= j.m M+F.2 3@>.6.}+$ }+~+P.w+w+-@w+q.w+w+1.r.w+_@_@_@w+-@-@-@w+w+w+w+T+_@w+/+T /+/+4@T E -.l / / / / :   _ _ Q+M 3@:.j J 5@$ ) S+J ",
"i H._.F.g+Y+B B 6@$ d+}+6.7@8@C 9@8@0@m f 1.h w+_@_@_@_@w+-@-@-@-@-@w+w+w+w+w+-@-@-@v+,.T U e K e e 0.~.1.Y.w y.Q z.X {.@ I.# J M.> ",
"y , > h Y Z ) ) $ y i+{ 8@e+4@/+/+/+).E K n.w+_@_@=@=@=@_@w+w+w+w+w+_@=@=@J+J+J+J+J+w+L 2.E F E L E E K n.` p.P.P.=+E+$+z z z i ; 5 ",
"' Z q q 9 I.d+d+d+i+6.8@/.T v+v+v+v+v+T 2.K w+_@=@J+=@=@_@_@_@w+=@_@_@=@J+J+J+J+J+J+J+w+-.s.F t V t F L e W.8@a@7@3.E.j j j B.h 4   ",
"S+N.O.! ~+~+~+~+~+O 7@D /+).F E 2.E E 2.2.U w+_@J+K+J+=@=@_@_@w+_@=@=@J+J+J+J+J+J+K+J+J+-@o j+9+j.!.U 2.L U U U t i.].r.D+D+D+D+|.|.",
"j E.3.|+|+|+|+|+|+K.g.m s.E n G u @.@.@.@.w+_@=@J+K+K+J+=@_@w+_@_@_@=@=@=@J+J+J+J+K+K+K+-@b@[@c@d@{+;.@.@.@.@.G @.Z.: < @.K K 0.0.0.",
"D+k+l.U p+:@:@:@E S !.3 K L -.( v v 1.r.N+w+_@J+K+K+K+K+=@w+w+w+w+_@=@_@J+=@J+J+J+J+K+K+w+N.<+~+e@q.].( : g g g g : |.f n E E E L L ",
"K V t.e E v+v+v+v+E %./ V L -.: ^.5 | w+w+w+=@J+K+K+K+J+_@w+_@=@w+w+w+w+w+J+=@=@J+J+J+w+@ q +@H+V+f@L.[   g@^.g@  l @.V V n F E e G ",
"}.l.[ [ e E /+E /+U f / -.t %.r._ = w+w+_@w+J+J+K+K+J+=@w+_@_@=@=@_@_@J+w+_@J+J+J+J+w+y J ]+2 i.e+/+L m < : : 1.1.9.j+i.k.&.j+j+[ : ",
"h@X+:.: ~.@.-.-.t.@.l : a.!.@+]+4+w+_@=@=@J+J+J+J+=@=@_@w+w+w+w+w+w+w+_@J+=@_@w+w+w+) , ]+_.m L T v+T U V -.@.[ v d.3.H+++&@N ^@:.  ",
"O.Y+_+: ( ( D+U.U.U.r.* r.} & z Z w+_@_@_@_@=@J+J+=@w+w+: : g   1 A.<+w+w+w+w+% Z Z {.]+2 G U E /+).T ).E /+2.0./ W 4.! O.O.A r 1   ",
"w E.Q+G -.&.H 6 i@j@4+4+4+w k@5+%+w+_@_@_@_@_@_@_@w+2.K -.G f : :.3.v.&@M.w w i@i@w ]+C.@.V m -.0.U T v+v+v+T L m <.a+l@l@l@l@3.:.  ",
"_ ].m L 2.f.H+8 J <+<+<+<+<+N.i+2@w+w+_@_@_@_@_@=@w+E L L L K [ [ l..@k._ _  @ @ @N+].m t -.l : / -.e+E :@:@:@E L U }.D D }.D .@/   ",
"  ( %.K K +.&+r Q Z+G+Z+Z+Z+G+G+w+T+=@w+_@_@=@=@w+@.K K K K V -.-.V @.< |.~.@.G @.@.V s.F t @.< v C.$@|+|+m@|+R n@V V V V K K u (   ",
"  1.: |.( D+r.R.m+/.D /././.}.w+w+T+;@=@w+w+w+w+: |.|.D+D+D+9.j+K @@: 1.< V s.L L L L E /+E C+f  @]+A ~+~+6@o@F+j.< < < < / ( : 1.  ",
"    ^.^.^.^.^.: f K K K K n w+w+T+w+w+;@w+w+s.-.[ g = *.j B.q.V+ .R.^.^.|.!.K K K K K K l.0@7@^ ]+, $ d+$ =+}@p@;.%.!.%.!.[ g ^.^.  ",
"5     1.1.1.1.g ( < < / ( n.w+w+T+w+w+w+w+F E U -.D+*.7 z z E+A w.:+1.v : ( / / ( |.|.|.R.Q.A E+z 9 ) $ i+[@q@U e+L L L s.V l 1.1.1.",
"> W F.!.%.!.!.!.!.f f [ } o.w+w+T+w+w+w+w+e $.K &.` !+Z %+I.r@s@7+1+!.%.!.f [ : * | >+B.4+{.5+d+$ $+I w.v.K.l.s.T ,.T E n V @.f f f ",
"J c@..U L s.s.U U s.L j+t@x.g+w+T+T+T+w+w+w+/ ].` Y % ) $ ) /@8@/.U U s.s.L n ~._ & 8 J J % ) 5@% w 1 1+f.i.9.-.2.T ).n f f n L L L ",
"+ Q.<.e n e e e e n E p+u@N 8.w+w+U+U+T+T+T+w+>+!+9 9 , 4.v@w@W.u+n e e t E E K &.3.}@x@}@}@}@}@7.0+1.~.K V %.@.K e e %.( ~.s.v+v+'.",
". _ D+< l < < < < ~.$.E y@c.D t w+w+;@*@T+;@w+{.% Z 7 =._.W..@9.< < < < f t F E S z@[.[.[.[.[.[.f.A@D+: l @.n V [ < < : 1.9.t T T T ",
"                ^.: !.e n t E E V w+w+w+w+w+w+I 7 + j _ 3 V -./         ( @.n n n n n n n n n n $.f g ^.1.~.V %.:     4 ; ^ B@b b b ",
"                  1.|.l l ~.e L -.D+h.= s+0@<.} ; . k r.: < / v         1.( l l l l l l l l l 3 l |.      : < ( 1.    | i S.P ~ ~ ~ ",
"                          : !.K f g ^.v ~.K @.|.                        * . h h h h h h h h h h | = r.                ; w , , 7 7 7 ",
"                            |.l |.1.    |.l / v                         = M., {.x x x x x x x {.7 > *                 _ . ; | | | | ",
"                                                                        . Y @ # $ $ $ $ $ $ $ # 9 6 _                               "};
