/* XPM */
static char * p_mov_up_left_2_xpm[] = {
"66 66 354 2",
"  	c #AA834B",
". 	c #A9824A",
"+ 	c #A57D41",
"@ 	c #A07737",
"# 	c #9F7533",
"$ 	c #9F7534",
"% 	c #9F7535",
"& 	c #A37A3D",
"* 	c #A88047",
"= 	c #AA824A",
"- 	c #A88148",
"; 	c #A98149",
"> 	c #AC864C",
", 	c #AD884D",
"' 	c #AD894D",
") 	c #AB854A",
"! 	c #A88147",
"~ 	c #A77F46",
"{ 	c #A78046",
"] 	c #A98348",
"^ 	c #AC874C",
"/ 	c #AC874D",
"( 	c #AB854C",
"_ 	c #A98249",
": 	c #A98446",
"< 	c #A6803F",
"[ 	c #A57F3D",
"} 	c #A47E3D",
"| 	c #A27B3A",
"1 	c #A07635",
"2 	c #9F7433",
"3 	c #A2793B",
"4 	c #A67E43",
"5 	c #A88046",
"6 	c #A57D42",
"7 	c #A47B3F",
"8 	c #A77F45",
"9 	c #AB844B",
"0 	c #AF8C4F",
"a 	c #B19150",
"b 	c #B29351",
"c 	c #B29251",
"d 	c #AC894A",
"e 	c #A57E40",
"f 	c #A2783B",
"g 	c #A2793C",
"h 	c #A78243",
"i 	c #AF8D4D",
"j 	c #B08F4F",
"k 	c #AC884D",
"l 	c #A98148",
"m 	c #A37B3E",
"n 	c #AB844C",
"o 	c #AE8B4E",
"p 	c #B1914E",
"q 	c #AF8F4C",
"r 	c #AE8E4A",
"s 	c #A98543",
"t 	c #A17938",
"u 	c #A07637",
"v 	c #A2793A",
"w 	c #A57C41",
"x 	c #A47B3E",
"y 	c #A88146",
"z 	c #B08F50",
"A 	c #B39451",
"B 	c #B49652",
"C 	c #B59853",
"D 	c #B49753",
"E 	c #B29451",
"F 	c #AD8C4A",
"G 	c #A78241",
"H 	c #A47D3C",
"I 	c #A57E3D",
"J 	c #A98544",
"K 	c #B08F4D",
"L 	c #B39552",
"M 	c #B19050",
"N 	c #A17839",
"O 	c #A37B3D",
"P 	c #A88246",
"Q 	c #AF8E4F",
"R 	c #B29350",
"S 	c #AD8B49",
"T 	c #A68140",
"U 	c #A37B3B",
"V 	c #A17738",
"W 	c #9F7635",
"X 	c #A2783A",
"Y 	c #AD8A4C",
"Z 	c #B08E4F",
"` 	c #AE8A4E",
" .	c #AE8C4E",
"..	c #B59753",
"+.	c #B59953",
"@.	c #B69953",
"#.	c #AF8D4F",
"$.	c #AE8C4D",
"%.	c #AE8D4B",
"&.	c #AE8E4B",
"*.	c #AE8B4D",
"=.	c #A67F44",
"-.	c #A67E44",
";.	c #AF8C4E",
">.	c #B19151",
",.	c #B49653",
"'.	c #AC8949",
").	c #A88145",
"!.	c #A07636",
"~.	c #A37A3C",
"{.	c #AA844B",
"].	c #AB864C",
"^.	c #AA824B",
"/.	c #B29450",
"(.	c #B1924E",
"_.	c #AD8B4B",
":.	c #AA8449",
"<.	c #AB874A",
"[.	c #AF8F4D",
"}.	c #B2934F",
"|.	c #AB864B",
"1.	c #A1783A",
"2.	c #AD8A4D",
"3.	c #AB8748",
"4.	c #A88342",
"5.	c #A78240",
"6.	c #A57F3F",
"7.	c #A47D3E",
"8.	c #AA8646",
"9.	c #B49552",
"0.	c #B39452",
"a.	c #AA834A",
"b.	c #A78144",
"c.	c #A47D3D",
"d.	c #A78045",
"e.	c #AC884C",
"f.	c #AB864A",
"g.	c #AB874B",
"h.	c #B0904F",
"i.	c #AC874B",
"j.	c #AF8E4E",
"k.	c #AD8A4E",
"l.	c #A88149",
"m.	c #AE8C4C",
"n.	c #B0904E",
"o.	c #AD894B",
"p.	c #AA8549",
"q.	c #B1924F",
"r.	c #B39450",
"s.	c #B09050",
"t.	c #AC8A49",
"u.	c #A67F43",
"v.	c #A3793D",
"w.	c #9E7433",
"x.	c #AC884B",
"y.	c #A67F42",
"z.	c #AC874A",
"A.	c #A78043",
"B.	c #AB8649",
"C.	c #A57D43",
"D.	c #A47C3F",
"E.	c #A68040",
"F.	c #A57E3F",
"G.	c #A47C3E",
"H.	c #A57F40",
"I.	c #A88443",
"J.	c #AB8849",
"K.	c #B08E50",
"L.	c #A98248",
"M.	c #AF8E4D",
"N.	c #B19250",
"O.	c #AF8D4E",
"P.	c #AA844A",
"Q.	c #A77F44",
"R.	c #A27A3B",
"S.	c #AA854A",
"T.	c #A68042",
"U.	c #A37C3B",
"V.	c #A27A3A",
"W.	c #A17838",
"X.	c #A47C40",
"Y.	c #A37A3E",
"Z.	c #A57D3F",
"`.	c #A78242",
" +	c #A98545",
".+	c #A67D43",
"++	c #A67E41",
"@+	c #AB8749",
"#+	c #A37B3A",
"$+	c #AC8947",
"%+	c #A88345",
"&+	c #9E7432",
"*+	c #A17739",
"=+	c #A98447",
"-+	c #AA8548",
";+	c #A57E41",
">+	c #A88245",
",+	c #A88144",
"'+	c #AC894C",
")+	c #AD894E",
"!+	c #A67E45",
"~+	c #A07736",
"{+	c #B39652",
"]+	c #B49752",
"^+	c #A27939",
"/+	c #A98247",
"(+	c #A88247",
"_+	c #AF8F4B",
":+	c #A67E42",
"<+	c #A27A3C",
"[+	c #A98347",
"}+	c #A27A39",
"|+	c #9E7332",
"1+	c #B39351",
"2+	c #080808",
"3+	c #A88244",
"4+	c #AB8846",
"5+	c #AA8645",
"6+	c #A98346",
"7+	c #AE8B4C",
"8+	c #A68043",
"9+	c #AE8D4A",
"0+	c #9F7434",
"a+	c #A47C41",
"b+	c #A37B3F",
"c+	c #A57E3E",
"d+	c #AD8A4B",
"e+	c #AC8A47",
"f+	c #A27938",
"g+	c #A37C3D",
"h+	c #AE8D4D",
"i+	c #B39551",
"j+	c #B1914F",
"k+	c #EF7B00",
"l+	c #AD884C",
"m+	c #AD894C",
"n+	c #A17837",
"o+	c #A57E42",
"p+	c #A78044",
"q+	c #A88543",
"r+	c #AB8947",
"s+	c #AB8946",
"t+	c #AA8745",
"u+	c #AA8448",
"v+	c #A98645",
"w+	c #EFEF00",
"x+	c #B29151",
"y+	c #A88344",
"z+	c #AA8746",
"A+	c #AC884A",
"B+	c #A78042",
"C+	c #B39651",
"D+	c #A17939",
"E+	c #A37B3C",
"F+	c #B29250",
"G+	c #AD8B4A",
"H+	c #AA8649",
"I+	c #AD8B4C",
"J+	c #A88343",
"K+	c #A98644",
"L+	c #A78143",
"M+	c #AA834C",
"N+	c #B69954",
"O+	c #AC894B",
"P+	c #B1904F",
"Q+	c #AA8747",
"R+	c #A98444",
"S+	c #AB8847",
"T+	c #292929",
"U+	c #AA8547",
"V+	c #A68041",
"W+	c #A07738",
"X+	c #AB8747",
"Y+	c #CE3900",
"Z+	c #181818",
"`+	c #A47D3F",
" @	c #AA8349",
".@	c #A98546",
"+@	c #A98643",
"@@	c #4A4A4A",
"#@	c #B08F4E",
"$@	c #AB854B",
"%@	c #6B7B7B",
"&@	c #EFDEBD",
"*@	c #AE8A4D",
"=@	c #A57C40",
"-@	c #8C1800",
";@	c #A98349",
">@	c #B0914E",
",@	c #AB8848",
"'@	c #A78341",
")@	c #A88341",
"!@	c #A88442",
"~@	c #BD6B39",
"{@	c #AC8948",
"]@	c #B1934F",
"^@	c #A98448",
"/@	c #0018EF",
"(@	c #B59854",
"_@	c #B18F50",
":@	c #DEAD7B",
"<@	c #A6813F",
"[@	c #A27B39",
"}@	c #AD8A4A",
"|@	c #AF8E4B",
"1@	c #A07837",
"2@	c #A68240",
"3@	c #AD8C4B",
"4@	c #AA8647",
"5@	c #A98547",
"6@	c #B0914D",
"7@	c #B0904D",
"8@	c #B19251",
"9@	c #B0904C",
"0@	c #A67F45",
"a@	c #A57F3E",
"b@	c #B49651",
"c@	c #6B0000",
"d@	c #A47C3D",
"e@	c #AE8D4C",
"f@	c #A37D3B",
"g@	c #A88048",
"h@	c #A07836",
"i@	c #AD8C49",
"j@	c #A57D3E",
"k@	c #9F7634",
"l@	c #B59752",
"m@	c #AF8E4C",
"n@	c #AD8B48",
"o@	c #AC8A48",
"p@	c #AC8B48",
"q@	c #A57D40",
"r@	c #A67F40",
"s@	c #A78142",
"t@	c #A9824B",
"u@	c #AE8C4B",
"v@	c #A67F41",
"w@	c #A47B40",
"x@	c #AA8845",
"y@	c #AA8744",
"z@	c #A1773A",
"A@	c #A47B41",
"B@	c #B08E4E",
"C@	c #AB8A47",
"D@	c #A37C3C",
"E@	c #A5803E",
"F@	c #A17937",
"G@	c #AA8846",
"H@	c #A78140",
"I@	c #AE8D49",
"J@	c #AD8B4D",
"K@	c #B2924F",
"L@	c #B39550",
"M@	c #AC8B49",
"                                                                                                    . + @ # $ $ $ # % & *           ",
"              = - * ;   > , ' ' ' , , , , , ' , ) ! ~ { ] ^ ' ' ' ' / (     . - { { * _           > ^ : < [ } | 1 2 $ 3 4 { 5 - .   ",
"              ; 6 7 8 9 0 a b c c c c c c c b a d e f g h i c c c c j k     l 6 g 3 m 8 =       n o a p q q r s t 2 $ u v g g w -   ",
"              l w x y ' z b A A B C C C C C D E F G H I J K L D D L M ,     - w 3 N O P ^ , , k ' Q b B D B R S T U v V W $ $ X 4 * ",
"              . * P Y M Z o `  .c ..+.+.@.C b #.$.%.r &.%.*.j L L Z ' (     . * =.-.P Y a c c c a Q ;.>.,.b #.$.%.'.).7 @ 2 # !.X ~.",
"/ > 9 {.].^ (   ^.( #.c Q , ( ( ;.b /.(.(.p _.:.<.[.}.R M o  .a a o ^ n 9 > > 9   ^.> M B B L B B M ` Q c j ` #.a Z |.8 & N N N 1.1.",
"a Z / > #.Z ,     n k  .j z 2.( / ' 3.4.5.5.6.x 7.G 8.Y Q M z #.#.z Q / / #.j ' {.  / a B c Z b ..9.a Q  .#.M z  ., n ; 8 -.-.-.-.-.",
"0.a o ` M a 2.{.      ].#.a  .n   a.b.c.U v V 1 $ !.~.d.e.M j f.g.j h.i.f.j.a k.  l.:.m.n.o.p._.q.r.b Z k.#.c s.' ].{.9 ].(   _ - * ",
"0 #.M M Q ` >       ^.  k ` /   ^.  <.t.8.u.v.!.w.2 u g b.x.<.y.u.z.x.A.y.B.2.> ; C.D.E.G F.G.H.I.J. .K.M j #.Z z o > , Z #.> - 6 m ",
"L.f.M.n.' 9     _ _ {.> / / ^ > > / #.N.O.P.4 3 !.% $ W ~.8 Q.& m 8 =.g R.P ^ / S.T.U.V.N @ 1 W W.X.] $.a O.) Y a O.) e.M z ^ 8 3 % ",
"Y.Z.`. +:.    ; .+++@+j M M M M M M j 0 , 9 - -.& !.w.w.u g 7 w w 7 f !.#+3.j M j %.$+%++ 1.$ &+$ *+7 =+Y -+;+>+Y B.y.,+'+)+( !+1.w.",
"1 1 ~+3 4 ;   L.;+< F {+B L B ]+B A Z , (     . -.3 W.^+^+N D./+(+D.N t T _+]+C ]+L N.2.L.X.*+W $ $ @ X.y :+<+X.5 :+v G.:./ > [+7.}+",
"w.&+|+% f w * P.J.F }.]+c z 1+D b Z Z z ` (     - 2+3+4+5+A.6+2+7+P 8+5+9+/.C @.D c 0 / a.{ + 3 % &+0+*+Y.X.w a+b+1.!.c+d+z z M.F e+",
"f+f+f+}+}+g+=.P.h+}.i+A ;.k Z b Q ^  .j+$.P..   2+k+2+j+2+l+2+k+2+' m+j+B C C D A #.^ n     - w N n+t W.v o+L.p+<+V }+q+(...D B i+A ",
"r+r+s+s+s+t+T.e `.4+_. ./ n , o k   u+v+`.;+8 . 2+k+2+2+k+2+w+k+k+2+c ,.2++.B x+Z K.#., n   a.{ 4 y+z+y+y.-+$.A+A.B+z+_+C++.+.B M Q ",
"/.A i+i+i+[.I.| D+O d.{.n {.( > > {.p+E+n+V 2+2+2+w+k+2+k+w+w+k+2+k+2+2+k+2+b 2.i.j.j+Y a..   . P.$.j+O.i. .F+Z ^ *.R ]+C C B c o ^ ",
"z x+,...b j.G+5+T.6 ~ . ^.{.' #.Z O.H++ 1.1 2+w+k+w+w+w+w+w+w+k+w+w+k+k+w+2+I+P ;+J+K+L+:+*   M+( )+Z z z j Z Z z b ..N+C L M Z Z Z ",
"( ' a N.2.x.M.n.O+a.  ( n ^ Z L D L Z S.6 N !.2+w+k+w+w+w+w+w+w+w+w+w+w+w+w+2+;+V.}+^+n+1.6 ; . .   > #.c Z , o b B B D B a ' 2.P+/.",
"  P.Q+ +T.:+R+S+p.( ' #.#.j b C @.C 0.Z B.;+X % 2+w+w+w+w+k+w+w+k+w+w+w+w+2+T+U+J V+m W+!.3 w + 6 ~   )+#.` ( k #.z j j Z ` ( :.X+s+",
"  ! e U V.V.| 7.y ^ z L B B D C ..D B A #.S.6 2+k+k+k+k+k+k+k+k+w+w+w+w+k+Y+Z+h.j+Y ! Y.@ !.@ u N + l {.{.P.a.  ( ].].> ^ > ( (+`+V.",
"   @.@+@+@+@s t+d+j 0.C @.+.+.C 0.M M M z 2+2+2+w+k+k+k+k+k+k+k+k+w+k+w+@@k+Z+L 9.0 a.-.m V $ &+$ 3 X.6 w w 6 8 . ^.^.].` #.O.A+u.b+",
"9 e.#@}././.R R A L B D ..D ..B j ^ $@].;.2+w+2+k+Z+Z+Z+Z+Z+Z+Z+k+w+Y+k+Z+Y+Z+@@A o {.a.! D.@ % !.@ *+N N N v + _   n o c B 9.P+g.l ",
"0 #.z c ,...0.a M M M M M M M Q B.4 w 6 %+S+2+k+Z+@@%@&@&@%@%@@@Z+k+Z+Y+Z+Z+Z+Z+@@, ( )+*@=+=@7 7 7 m Y.x H.4.: a.> o a B +.C b '   ",
"0.a o o c A #.^ > > > > > > / |.p+~.N v V.U.#+2+Z+@@%@&@&@%@%@@@Z+Z+Z+Z+-@Z+Z+;.Z+@@$@O.a Y L.* ! - - - ;@Y >@O.^ ` c B C C ..c ,   ",
"a #./ > 0 Z ,   ^.^.^.^.^.  / 2.,@I.'@)@!@'@E.m Z+Z+Z+Z+Z+Z+Z+Z+~@-@Y+T+~@Z+Z+>+Z+@@p+8.{@.@Q.4 Q.- {./ 0 c D A Z a ]++.C B c #./   ",
"^ ].{.  $@].{.    {.{.{.  ].#.b r.}.]@]@}.p m.^@+ 2+/@%@~@~@/@%@~@~@k+T+-@Z+2+V.v Z+@@U U.V.N V 3 6 a.o b B D B L 9.D C ..c *@$@  a.",
"^.; ~ -..+.+.+d.f.o o o o 0 c C @.+.N+(@,.c _@;.p.2+/@&@:@:@/@&@-@-@Y+Z+Z+2+2+2+'@Z+@@'@<@[@$ w.1 g =.x.h.c >.>.x+x+>.>.M 7+P .+.+4 ",
"  ! X.v 1.1.1.F.}@b L 0.0.L B ..C C C ]+M *@O.a 2+2+~@:@:@:@:@:@~@-@-@Z+2+2+T+T+2+Z+@@(.|@'@1@# $ !.v u.|./ ^ ^ ^ ^ ^ k ^ [+D.X X v ",
"o x.R+5.2@2@2@q+3@F+B C +.C L c c a n.%.4@).5@S 2+Z+-@~@:@:@~@-@-@-@2+2+T+2+T+%@T+2+Z+@@P+{@5.[@W w.% g C.-.-.-.-.-.=.] e.A+I.5.2@5.",
"A R (.6@6@6@6@7@*.o 8@..+.B M ' k ^ 6+6.U 3 U H 2+T+2+-@~@~@~@~@2+2+2+2+2+T+@@%@%@@@2+@@*@O.&.4.n+2 % @ N X 1.1.1.1.3 J+[.R (.6@6@6@",
"c c c c c c b M ' ]. .a b a ` {.^.. >+T < < <@2+T+T+T+2+2+2+2+2+2+2+2+2+T+@@@@@@%@%@@@2+> 0 j 4@x 3 g g g g g g g g & y+j.b b c c c ",
"' ' ' ' ' ' ' k ( {.> , ' k ].  ^.{.m+q 6@7@6@2+T+@@T+2+2+2+2+2+Z+2+Z+T+T+T+@@@@@@%@@@T+2+> ^ P.! { { { { { { { { ~ { ;@^ ' ' ' ' ' ",
"                  {.^ , ].{.].' ' ` M D +.C ,.2+2+T+T+2+2+2+T+2+T+2+T+@@T+T+T+T+@@@@@@@@2+_                   _ { 8 8 8 8 * .       ",
"                  ( #.M ` ].o c b b 9.C +.C 2+T+@@T+2+2+9@2+T+2+T+2+T+@@@@T+T+T+T+@@@@T+2+0@.                 8 m 3 3 3 3 a+-       ",
"  ( / ' ' , , , , ` z a #.o a D C C B A 1+b 2+2+2+T+2+M 0.2+2+2+2+@@2+2+T+@@T+T+Z+T+T+Z+@@2+8 { ! P.e.' , > a.!+& U } [ a@h f./ n   ",
"  / Z c c c c c c a #.o Z b B C +...c o ' 2+2+-@-@2+2+' ` ` 2+-@2+T+Z+2+2+2+2+T+Z+Z+Z+@@T+2+3 3 G.4@P+b a ;.$@- { U+F _+_+7@a Z ^   ",
"* u+m.q.b@C C ..9.c #.` j b A A A b ;.( 2+-@~@:@:@~@2+* * ! 2+c@-@Z+T+Z+Y+Y+-@2+Z+Z+T+T+@@T+2+1.d@{@i+D 1+j k.k , ;.N.L ]+]+A j /   ",
"& g+6.t+(.C N+B M ;.j M Z o ` ` ` 2.^ 2+-@2+:@-@:@2+g g g g 2+c@Y+Z+@@Z+-@-@-@2+Z+T+T+@@T+@@2+-.y e@9.b #.Q a c c z 0 M B 0.Q , (   ",
"$ $ $ f@e+(.A c #.` z a o (           2+2+:@2+2+~@2+H H V.~+$ 2+c@-@Z+T+2+c@c@c@2+T+@@@@@@%@2+g@L.d+[.d+u+A+7@(.p j.2.#.c a o > 9   ",
"# 2 2 h@} I.A+ .z M Z o >   ^.^.^.^.^.2+~@2+n.%.2+9+9+i@s }+w.2+2+c@Z+T+Z+c@c@c@2+T+@@@@%@T+2+-.7 F.T F.O j@5.'@!@r+#@z 0 #.s.#./   ",
"N W+1 $ k@N 6 :.e@K O+_ _   ( ^ ^ ^ ^ k 2+B C l@]+]+C ]+q G 2+c@c@2+2+2+2+2+2+2+Z+T+@@@@@@T+2+b.c.U.H H U.}+~+$ ~+5.&.e@) x.P+j f.- ",
"4 X.N # w.% 1.x E.G F.7 !+{.` s.a a M a A C @.N+N+N+N+C 2+2+-@c@c@2+c@c@c@c@c@2+2+2+T+@@T+2+j m@i@n@S i@o@5.~+|+$ [@T T `+p+x.<.u.m ",
"= { m V V V *+D+#+U.U.c.).e.M B B L B D B 9.L L L L 2+2+Y+Y+Y+-@-@2+-@Y+Y+-@2+T+@@%@@@T+2+T+2+..]+]+]+l@i+i@[ n+W $ 1 1 !.~.8 4 3 W ",
"  ; 8 C.6 6 6 A.8.o@p@i@M.a L D b z b D 0.Z 0 0 2+2+-@Y+k+k+Y+Y+Y+-@2+c@-@2+2+T+@@%@%@@@2+Y+c@2+N+N+N+N+C }.i@5.n+|+|+|+w.u f f !.2 ",
"].].$@$@$@$@a.|.j.b A A A L 9.A  .f.7+j+i S._ 2+Y+k+k+k+k+k+k+Y+Y+-@2+-@2+-@:@2+2+2+@@2+-@k+Y+2+B 9.B D ..]+R o@I }+}+}+}+}+| V.W.W+",
"s.s.s.M M #./ ( )+#.Q #.#.#.#.*.[+q@r@!@s@X.2+Y+k+k+k+k+k+k+Y+-@-@-@2+-@2+2+2+~@:@&@2+2+-@k+Y+c@2+0 Q c B 0.j m.t.e+e+e+e+e+e+8.A.6 ",
"L L B B B c o ].( n n n n ( > |.b.E+}+^+W.!.2+Y+Y+k+Y+Y+Y+Y+Y+-@c@2+2+2+2+:@~@2+-@~@:@2+Y+Y+Y+c@2+9 > Z L M ,  .E B b@b@b@C+A h.m+$@",
"Q a B D c z z #.k   t@^.t@  ' O.u@S+J+=@f % 2+-@-@Y+Y+Y+Y+-@-@2+2+o Q Q #.2+2+2+2+-@~@2+-@Y+-@c@2+^.( Z L z ^ ;.B N+N+N+N+B a K.z M ",
"( ' j+j+Y i.j.j+2.{.{.( ( / j L ]+i+j.) :+N 2+-@-@-@-@c@c@-@2+_ a.{.( ( ( ( ;@;+2+2+2+-@-@c@c@c@2+_ a.;.b Z ^ o A ]+B ]+B a ' ' h./.",
"  :.4@J v@;+J+8.p.9 ' #.Z z A C N+C L j <.:+2+-@c@c@c@c@c@c@2+w@.+- ^.^.^.^.a.4@2+c@c@c@c@c@-@-@2+a+:+-+ .k.( k #.K.Z Z #.` ( :.Q+x@",
"  ! e U V.V.| 7.y ^ s.9.]+B ..C ..]+B A Q ) 2+-@c@c@-@-@-@-@2+^+D.!   n ( ( , h.2+c@c@c@c@c@Y+-@2+!.V + ] a.. a.P.P.P.$@> > ( (+`+V.",
"  :.8.y@y@y@y@4+_.j L C N+N+N+C A s.Z j z #.2+-@c@c@c@c@c@-@2+I.8.:.( o Q Z M 9.2+-@c@c@-@Y+-@c@2+&+0+z@7 a+a+a+A@w@w P Y Z Q O+A.7 ",
"  ^ #@R /.R R /.A L B b@b@b@B i+Z ^ ( k Z b 2+-@c@c@-@c@c@2+i.#@h.' ' M L L L B 2+c@-@-@Y+-@-@c@2+h@n+W.^+^+^+^+^+N v J+n.9.L j |._ ",
"  > 0 M M z z z z B@F e+C@e+e+{@B.9 / #.b D 2+-@Y+Y+-@c@2+2+2+#.z Z Z z M M M M 2+-@-@Y+-@c@2+2+2+K+K+K++@+@+@K++@G e %+$.M M ;.>   ",
"  {.( > ^ / / / / f.L+D@[@}+}+U :+ @o F+B ]+B 2+2+2+2+2+2+T+2+( *@M j+2.$@$@$@].].2+2+2+2+2+2+$.}.r././.}.}.}.R }.h+S.a.$@> ].( {.  ",
"  ^.^.n '  .;. .;.*.,@'@#+$ |+$ 3 :+: o@m@h.2+@@T+T+@@2+2+2+2+^.S.'.S+b.C.6 -.- n 2+2+2+Z+T+T+2+C N+C 9.c M M M M o ( ^.^.^.^.^.    ",
"{.{.{.k z 0.L L L i+A 9@!@n+$ 1 u V D+U T.2+2+2+2+2+2+T+T+2+2+{./+H.U D+V V g -.$@2+T+2+2+2+2+2+2+C B j e.> ^ / / > n {.{.{.{.    = ",
"o o o #.z c B C @.C 0.h.t.I.H.O *+$ |+0+2+T+T+T+T+T+T+2+2+2+;. .d+5+E@F@w.&+!.Y.).2+2+Z+@@%@%@@@2+2+j <.d.] ' o o  . . . .;. .x.y 4 ",
"L L L c o o c ..C 9.Z 2.j.n.d+! 7 @ k@2+~@T+:@~@@@T+2+2+L 0.0.A A }.i@a@1 $ 1 @ ~.2+~@:@2+:@~@-@T+T+2+p+G.v+j+L 0.A A 0.0.L A %.r@N ",
"+.N+N+0.` > ;.a a M #.;.z M ` {.6+4.'@2+2+2+2+2+2+2+M B B b a a c x+M.G@H@7.3 u u 2+@@@@@@@@@@@@%@@@2+3.J I@C+B c a a a a c a _.T.& ",
"C C C b 2.{.( / / ' z c #.k ( $@J@n.(.(.(.(.(.(.K@E B D b o / / / / 2.#@M.<.=.g !.@ 2+2+2+2+2+2+2+2+2+R q.L@B >.` / / / / k / $@_ * ",
"r r r M@: { ;     ( ;.z ` {.^.n o >.c c c c c c c c c c #.>         ^ Z z , _ 6 & g O a@< 7.x -.9 z B B b c a  .( ^.                ",
"} } } H R.m ~     {.> / (       ].k , k k k k k k k k k > {.        9 ^ / ( a.l * { ] _.m@A+- l.$@Z L a ` k k ].{.                  ",
"g g g 3 3 7 {                 a.- ~ 8 8 8 8 8 8 8 8 8 8 * .                         ].#.M ` 9 ^.n o M  .(                           ",
"~ ~ ~ ~ { * _                 . 4 g 1.X X X X X X X 1.3 X.-                         9 ^ k ].    {.].k ].                            ",
"                              _ w u # $ $ $ $ $ $ $ # % ~.*                                                                         "};
