/* XPM */
static char * p_mov_right_2_xpm[] = {
"66 66 349 2",
"  	c #AA834B",
". 	c #A88047",
"+ 	c #A37A3D",
"@ 	c #9F7535",
"# 	c #9F7533",
"$ 	c #9F7534",
"% 	c #A07737",
"& 	c #A57D41",
"* 	c #A9824A",
"= 	c #AD894D",
"- 	c #AD884D",
"; 	c #AC864C",
"> 	c #A98149",
", 	c #A88148",
"' 	c #AA824A",
") 	c #A88046",
"! 	c #A78046",
"~ 	c #A67E43",
"{ 	c #A2793B",
"] 	c #9F7433",
"^ 	c #A07635",
"/ 	c #A27B3A",
"( 	c #A47E3D",
"_ 	c #A57F3D",
": 	c #A6803F",
"< 	c #A98446",
"[ 	c #AC874C",
"} 	c #A98249",
"| 	c #AB854C",
"1 	c #AC874D",
"2 	c #A98348",
"3 	c #A77F46",
"4 	c #A88147",
"5 	c #AB854A",
"6 	c #B29251",
"7 	c #B29351",
"8 	c #B19150",
"9 	c #AF8C4F",
"0 	c #AB844B",
"a 	c #A77F45",
"b 	c #A47B3F",
"c 	c #A57D42",
"d 	c #A57C41",
"e 	c #A2793C",
"f 	c #A2793A",
"g 	c #A07637",
"h 	c #A17938",
"i 	c #A98543",
"j 	c #AE8E4A",
"k 	c #AF8F4C",
"l 	c #B1914E",
"m 	c #AE8B4E",
"n 	c #AB844C",
"o 	c #A37B3E",
"p 	c #A98148",
"q 	c #AC884D",
"r 	c #B08F4F",
"s 	c #AF8D4D",
"t 	c #A78243",
"u 	c #A2783B",
"v 	c #A57E40",
"w 	c #AC894A",
"x 	c #B39451",
"y 	c #B08F50",
"z 	c #A88146",
"A 	c #A47B3E",
"B 	c #A2783A",
"C 	c #9F7635",
"D 	c #A17738",
"E 	c #A37B3B",
"F 	c #A68140",
"G 	c #AD8B49",
"H 	c #B29350",
"I 	c #B49652",
"J 	c #B49753",
"K 	c #AF8E4F",
"L 	c #A88246",
"M 	c #A37B3D",
"N 	c #A17839",
"O 	c #B19050",
"P 	c #B39552",
"Q 	c #B08F4D",
"R 	c #A98544",
"S 	c #A57E3D",
"T 	c #A47D3C",
"U 	c #A78241",
"V 	c #AD8C4A",
"W 	c #B29451",
"X 	c #B59853",
"Y 	c #AE8C4E",
"Z 	c #AE8A4E",
"` 	c #B08E4F",
" .	c #AD8A4C",
"..	c #A37A3C",
"+.	c #A07636",
"@.	c #A88145",
"#.	c #AC8949",
"$.	c #AE8D4B",
"%.	c #AE8C4D",
"&.	c #AF8D4F",
"*.	c #B49653",
"=.	c #B19151",
"-.	c #AF8C4E",
";.	c #A67E44",
">.	c #A67F44",
",.	c #AE8B4D",
"'.	c #AE8E4B",
").	c #B69953",
"!.	c #B59953",
"~.	c #B59753",
"{.	c #AA824B",
"].	c #AB864C",
"^.	c #AA844B",
"/.	c #A1783A",
"(.	c #AB864B",
"_.	c #B2934F",
":.	c #AF8F4D",
"<.	c #AB874A",
"[.	c #AA8449",
"}.	c #AD8B4B",
"|.	c #B1924E",
"1.	c #B29450",
"2.	c #AD8A4D",
"3.	c #B49552",
"4.	c #AA8646",
"5.	c #A47D3E",
"6.	c #A57F3F",
"7.	c #A78240",
"8.	c #A88342",
"9.	c #AB8748",
"0.	c #B09050",
"a.	c #AD8A4E",
"b.	c #B39450",
"c.	c #B1924F",
"d.	c #AA8549",
"e.	c #AD894B",
"f.	c #B0904E",
"g.	c #AE8C4C",
"h.	c #A88149",
"i.	c #AF8E4E",
"j.	c #AB864A",
"k.	c #AC874B",
"l.	c #B0904F",
"m.	c #AB874B",
"n.	c #AC884C",
"o.	c #A78045",
"p.	c #A47D3D",
"q.	c #A78144",
"r.	c #AA834A",
"s.	c #B08E50",
"t.	c #AB8849",
"u.	c #A88443",
"v.	c #A57F40",
"w.	c #A47C3E",
"x.	c #A57E3F",
"y.	c #A68040",
"z.	c #A47C3F",
"A.	c #A57D43",
"B.	c #AB8649",
"C.	c #A67F42",
"D.	c #A78043",
"E.	c #AC884B",
"F.	c #AC874A",
"G.	c #A67F43",
"H.	c #9E7433",
"I.	c #A3793D",
"J.	c #AC8A49",
"K.	c #AF8E4D",
"L.	c #AF8D4E",
"M.	c #A47C40",
"N.	c #A17838",
"O.	c #A27A3A",
"P.	c #A37C3B",
"Q.	c #A68042",
"R.	c #AA854A",
"S.	c #A27A3B",
"T.	c #A77F44",
"U.	c #AA844A",
"V.	c #B19250",
"W.	c #AB8749",
"X.	c #A67E41",
"Y.	c #A67D43",
"Z.	c #A98545",
"`.	c #A78242",
" +	c #A57D3F",
".+	c #A67E45",
"++	c #AD894E",
"@+	c #AC894C",
"#+	c #A88144",
"$+	c #A88245",
"%+	c #A57E41",
"&+	c #AA8548",
"*+	c #A98447",
"=+	c #A17739",
"-+	c #9E7432",
";+	c #A88345",
">+	c #AC8947",
",+	c #A37B3A",
"'+	c #B49752",
")+	c #B39652",
"!+	c #A98248",
"~+	c #A07736",
"{+	c #A27A39",
"]+	c #A98347",
"^+	c #A67E42",
"/+	c #A27A3C",
"(+	c #AF8F4B",
"_+	c #A88247",
":+	c #A98247",
"<+	c #A27939",
"[+	c #B39351",
"}+	c #9E7332",
"|+	c #AC8A47",
"1+	c #AD8A4B",
"2+	c #A57E3E",
"3+	c #A37B3F",
"4+	c #A47C41",
"5+	c #A37A3E",
"6+	c #9F7434",
"7+	c #AE8D4A",
"8+	c #080808",
"9+	c #A68043",
"0+	c #AE8B4C",
"a+	c #A98346",
"b+	c #AA8645",
"c+	c #AB8846",
"d+	c #A88244",
"e+	c #B39551",
"f+	c #AE8D4D",
"g+	c #A37C3D",
"h+	c #A27938",
"i+	c #A88543",
"j+	c #A78044",
"k+	c #A57E42",
"l+	c #A17837",
"m+	c #B1914F",
"n+	c #AD894C",
"o+	c #AA8745",
"p+	c #AB8946",
"q+	c #AB8947",
"r+	c #B39651",
"s+	c #AA8746",
"t+	c #A78042",
"u+	c #AC884A",
"v+	c #A88344",
"w+	c #B69954",
"x+	c #EF7B00",
"y+	c #AA834C",
"z+	c #A98645",
"A+	c #AA8448",
"B+	c #A17939",
"C+	c #B29250",
"D+	c #CE3900",
"E+	c #EFEF00",
"F+	c #AB854B",
"G+	c #A37B3C",
"H+	c #AD8B4A",
"I+	c #B29151",
"J+	c #A78143",
"K+	c #A98644",
"L+	c #A88343",
"M+	c #AA8649",
"N+	c #AC894B",
"O+	c #B1904F",
"P+	c #6B7B7B",
"Q+	c #AB8847",
"R+	c #A98444",
"S+	c #AA8747",
"T+	c #AB8747",
"U+	c #292929",
"V+	c #A07738",
"W+	c #4A4A4A",
"X+	c #B39452",
"Y+	c #A47D3F",
"Z+	c #A98643",
"`+	c #A98546",
" @	c #AA8349",
".@	c #B08F4E",
"+@	c #B0914E",
"@@	c #A98349",
"#@	c #EFDEBD",
"$@	c #A78341",
"%@	c #A88442",
"&@	c #A88341",
"*@	c #AB8848",
"=@	c #AE8A4D",
"-@	c #181818",
";@	c #8C1800",
">@	c #BD6B39",
",@	c #A98448",
"'@	c #B1934F",
")@	c #DEAD7B",
"!@	c #B18F50",
"~@	c #B59854",
"{@	c #AD8A4A",
"]@	c #AF8E4C",
"^@	c #AD8C4B",
"/@	c #A68240",
"(@	c #0018EF",
"_@	c #A98547",
":@	c #AA8647",
"<@	c #B19251",
"[@	c #B0904D",
"}@	c #B0914D",
"|@	c #A6803E",
"1@	c #A6813F",
"2@	c #AA8744",
"3@	c #A5803E",
"4@	c #B0904C",
"5@	c #A37A3B",
"6@	c #6B0000",
"7@	c #B49651",
"8@	c #AE8D4C",
"9@	c #A47C3D",
"0@	c #A37D3B",
"a@	c #AD8C49",
"b@	c #AD8D49",
"c@	c #B59752",
"d@	c #A27B39",
"e@	c #AC8B48",
"f@	c #AC8A48",
"g@	c #AC864D",
"h@	c #A47B40",
"i@	c #A78142",
"j@	c #A67F40",
"k@	c #A57D40",
"l@	c #A9824B",
"m@	c #AE8C4F",
"n@	c #A57C40",
"o@	c #AE8C4B",
"p@	c #A9834A",
"q@	c #A67F41",
"r@	c #AA8845",
"s@	c #A47B41",
"t@	c #A1773A",
"u@	c #A07836",
"v@	c #AC8948",
"w@	c #AB8A47",
"x@	c #B08E4E",
"y@	c #A68041",
"z@	c #A37C3C",
"A@	c #9F7634",
"B@	c #AE8D49",
"C@	c #A78340",
"D@	c #B39550",
"E@	c #B2924F",
"F@	c #AD8B4D",
"G@	c #AC8B49",
"H@	c #A57F3E",
"                                        . + @ # $ $ $ # % & *                                                                       ",
"= = - ;   > . , '               * , ) ! ~ { $ ] ^ / ( _ : < [ ;           } . ! ! , *     | 1 = = = = [ 2 ! 3 4 5 - = - - - - - = = ",
"6 7 8 9 0 a b c >               , d e e f g $ ] h i j k k l 8 m n       ' a o { e c p     q r 6 6 6 6 s t e u v w 8 7 6 6 6 6 6 6 6 ",
"x x 7 y = z A d p             . ~ B $ $ C D f E F G H I J I 7 K = q - - [ L M N { d ,     - O P J J P Q R S T U V W J X X X X X I x ",
"Y Z m ` O  .L . *             ..B +.# ] % b @.#.$.%.&.7 *.=.-.K 8 6 6 6 8  .L ;.>.. *     | = ` P P r ,.$.'.j $.%.&.7 X ).!.!.~.6 Y ",
"| | - K 6 &.| {.  | [ ].^.0 ; /./.N N N + a (.` 8 &.Z r 6 K Z O I I P I I O ; {.  0 ; ; 0 n [ m 8 8 Y m O H _.:.<.[.}.l |.|.1.7 -.| ",
"| 2.y r Y q n     - ` &.; 1 ` ;.;.;.;.;.a > n - Y y O &.Y K 8 3.~.7 ` 6 I 8 1   ^.= r &.1 1 K y &.&.y O K  .4.U 5.A 6.7.7.8.9.= 1 | ",
"n Y 8 &.].      ^.2.8 O Z m 8 . , }   | ].0 ^.].= 0.6 &.a.` 7 b.c.}.d.e.f.g.[.h.  a.8 i.j.k.l.r m.j.r O n.o...+.$ ^ D f E p.q.r.  n ",
"  1 Z q   {.      ; Z K O O &.o c , ; &.` - ; m y ` &.r O s.Y t.u.v.w.x.U y.z.A.> ; 2.B.C.D.E.F.G.C.<.E.q.e g ] H.+.I.G.4.J.<.  {.  ",
"; [ 1 1 ; ^.} }     0 = f.K.j.@ { a [ y O n.5 L.8  .5 L.8 %.2 M.N.C ^ % N O.P.Q.R.1 [ L S.e >.a o + T.a ..C $ @ +.{ ~ U.L.V.&.1 ; ; ",
"O O O O r W.X.Y.>     [.Z.`. +H./..+| ++@+#+C.B. .$+%+&+ .*+b =+$ -+$ /.& ;+>+$.r O r 9.,++.u b d d b e g H.H.+.+ ;., 0 - 9 r O O O ",
"'+I P I )+V : %+!+  > ~ { ~+^ {+5.]+; 1 [.w.f ^+) M./+^+z M.% $ $ C =+M.!+2.V.P '+X '+(+F h N z._+:+z.N <+<+N.{ ;.*     | - ` x I '+",
"J [+y 6 '+_.V t.U.. d u @ }+-+|+V K.y y 1+2++./.3+4+d M.5+=+6+-+@ { & ! r.1 9 6 J ).X 1.7+8+9+L 0+,.a+D.b+c+d+>.,     | Z y ` ` 7 J ",
"7 ` q -.x e+_.f+U.>.g+{+{+h+h+x e+I J ~.|.i+{+D /+j+!+k+f N.h l+N d ,     n [ &.x J X X I 8+8+8+O 8+2.8+r m+n+r.'   * U.%.m+Y [ K 7 ",
"m - n 1 Y }.c+`.v Q.o+p+p+p+q+K O I !.!.r+(+s+t+D.u+%.&+C.v+s+v+~ ! r.  n - &.8+8+8+I !.w+8+x+8+8+8+y 8+y 9 1 n y+* a %+`.z+A+  q m ",
"; | ^.n ^.o.M B+/ u.:.e+e+e+x [ m 6 I X X '+H ,.[ ` C+Y k.L.m+%.U.*   * r. .m+i.8+D+8+8+8+D+E+8+x+E+8+x+8+F+8+} } . b D l+G+j+^.; ; ",
"&.= ^.{.* 3 c Q.b+H+i.7 ~.*.I+` ` ` O P X w+~.7 y ` ` r y y ` ++| y+  . ^+J+K+L+%+8+D+D+D+x+E+D+E+x+8+x+8+8+8+d d b N ^ /.& M+L.` &.",
"P ` [ n |   r.N+f.K.E.2.V.8 = 1.O+2.= 8 I J I I 7 m - ` 6 &.P+P+* * > c /.l+<+{+8+8+8+x+x+x+x+D+E+8+x+x+8+E+8+% +.+.+.N c R.` P J P ",
"X 7 r &.&.= | d.Q+R+^+Q.Z.S+U.p+T+[.| Z ` r r y &.q | Z &.++U+U+P+& d { +.V+o W+U+8+8+D+x+x+D+x+E+x+E+x+D+E+8+# -+@ B %+B.` X+X ).X ",
"X J I I P y [ z 5./ O.O.E v 4 O.Y+_+| ; [ ; ].].| 8+8+8+8+^.p & U+P+W+W+W+W+W+8+8+D+x+E+E+x+x+x+E+E+E+D+E+x+8++.^ N c R.&.x I J ~.X ",
"X !.!.).X X+r 1+o+i Z+Z+Z+`+ @3+G.u+L.&.Z ].{.{.* 8+8+8+8+8+8+8+$ U+U+U+U+W+8+8+D+8+8+8+D+x+x+x+x+E+E+x+E+8+D+8+8+C.<.&.y O O O X+X ",
"I ~.J ~.J I P x H H 1.1._..@n.p m.O+3.I 6 m n   } & f N 8+8+8+8+8+8+W+W+8+8+8+8+8+U+U+U+8+D+D+x+x+x+E+x+x+D+8+E+8+[.s 8 -.].F+[ r I ",
"K O O O O O O O 8 X+~.*.6 y &.  = 7 X !.I 8 m ; r.< 8.v.A 5+o 8+8+8+8+8+8+++| 8+8+8+U+U+8+8+8+x+x+x+E+E+x+D+E+8+A.D.4.Q+;+c d ~ B.K ",
"(.1 ; ; ; ; ; ; [ &.x 6 m m 8   - 6 ~.X X I 6 Z [ L.+@ .@@, , , 4 . !+ .8 L.8+8+8+D+8+U+8+8+8+8+x+E+U+U+U+D+8+N D N ,+P.O.f N ..j+(.",
"2.1   {.{.{.{.{.  - ` 9 ; 1 &.  1 &.6 I X !.'+8 ` x J 6 8+8+8+8+8+8+8+8+8+8+j+8+x+x+D+8+8+8+8+x+E+U+U+P+#@8+=+^ N o y.$@%@&@$@u.*@2.",
"7 &.].  ^.^.^.    ^.].F+  ^.].r.  F+=@6 ~.8+8+8+8+8+-@-@-@-@-@-@-@-@-@8+8+8+8+-@8+x+8+;@>@8+8+x+8+U+U+P+P+8++.N & ,@g.l _.'@'@_.b.7 ",
"X 6 9 m m m m j.o.Y.Y.Y.;.3 > ~ Y.Y.L 0+8+)@)@;@8+8+-@-@-@8+8+8+8+8+8+8+-@8+8+8+8+8+8+;@8+x+;@8+;@8+8+U+P+8+Y+%+d.-.!@6 *.~@w+!.).X ",
"~.I P X+X+P 7 {@x./././.f M.4 f B B z.8+8+>@;@;@8+8+-@8+8+8+8+8+8+8+;@;@;@8+8+8+8+8+8+;@8+x+;@>@;@P+8+8+8+]@W.[.s 8 L.=@O '+X X X ~.",
"6 P X !.X I C+^@i+/@/@/@7.R+E.7./@7.u.8+)@>@;@;@8+8+8+8+8+-@8+8+8+8+8+8+8+8+W+W+W+8+8+8+8+>@>@)@)@P+(@8+s.` B.L *@G _@@.:@$.f.8 6 6 ",
"= O I !.~.<@m ,.[@}@}@}@}@|.H }@}@}@|.H 8+8+;@>@8+-@-@-@N % 8+8+8+U+U+U+U+U+U+W+W+P+8+8+8+;@;@>@)@#@)@8+[ R.%+S.P.T E { E 6.a+[ q = ",
"^.Z 8 7 8 Y ].= O 7 6 6 6 6 6 6 6 6 7 7 i.v+8+8+e e e e 8+8+-@U+W+W+U+U+U+U+U+W+W+P+8+8+8+8+>@>@>@)@8+a a c /.~+P.|@1@: : F $+* {.^.",
"  ].q = - ; ^.| q = = = = = = = = = = = [ @@! 3 ! ! ! 8+-@-@-@-@-@U+W+W+U+U+U+U+U+U+8+8+= = -@-@-@-@M.{ B N +.{+2@k }@[@}@k n+^.{.  ",
"= ].^.].- [ ^.                      * . a a a a ! 8+-@-@-@U+U+U+U+W+U+U+8+U+U+U+U+8+8+8+a a a 3 a T.y.3@3@S G+v w 7 *.X !.J O Z = = ",
"6 m ].Z O &.|                       , 4+{ 8+8+8+8+8+8+W+U+U+U+U+U+U+8+8+8+8+8+8+8+8+W+{ { { { u { v.>+k 4@$.&+_+5 m 7 X !.X 3.7 7 6 ",
"J 8 m &.8 y Z - - - - = = 1 |   n 1 j.8+8+>@)@>@;@8+8+8+W+U+U+U+U+8+8+8+8+-@U+U+U+8+8+_ _ p.5@S.p.u.]@7 X+O = ^.  ].&.7 [+x I X X J ",
"X I 7 ` m &.8 6 6 6 6 6 6 ` 1   [ ` 8+>@#@#@)@)@>@;@8+8+W+U+U+8+8+6@6@6@6@8+U+U+8+8+(+(+(+J.a+]+H+]@%.Z Z = ].    ^.[ = = m 6 ~.!.X ",
"x x 7 r Z &.6 3.~.X X 7@c.g.A+  1 r 8+8+8+8+;@)@>@;@8+8+W+8+8+6@6@6@6@;@;@6@8+8+8+x x x 7 r [ [ s 8@M+4 . . . . ) . }     | -.7 x x ",
"Z Z m ` O r -.O I w+X |.o+6.g+  | - K X+8+>@#@)@)@8+8+8+8+-@U+8+6@;@D+D+D+8+P+8+m m m m m = | @@d+y.9@e e e e e e b a *     [ 2.Z Z ",
"    | m 8 y Z &.6 x |.|+0@$ $   0 ; m 8 8+8+8+8+-@U+8+8+8+-@-@W+W+8+6@;@8+P+8+` ;     ^.  r., ~ f C $ ~+O.T T T T 6.a+].|           ",
"{.{.  ; m ` O y Y u+u.8+8+8+]   1 &.0.&.9 y .@q+8+6@6@6@6@8+-@-@W+W+8+8+W+W+8+- n         . d { +.H.H.{+i a@7+7+b@$.f.r = ^.{.{.{.{.",
"[ |   } } N+Q 8@[.c 8+U+U+U+8+8+j.r O+E.5 8@'.7.8+6@6@;@;@6@8+8+U+U+U+8+8+8+8+, , , , , 4 Y./.$ $ ^ {+U k '+X '+'+c@X I ` q [ [ [ [ ",
"0.Z ^..+b x.U y.A /.8+U+U+-@-@8+8+8+8+8+Y+F F d@8+6@;@;@;@;@6@6@8+8+8+8+;@;@6@8++ + + + + u +.H.] d@K+(+e+X w+w+w+w+).X x 8 O 8 8 0.",
"I O n.@.p.P.P.,+B+8+W+U+8+U+U+8+U+8+6@;@8+8+^ 8+6@6@;@D+D+D+6@6@6@8+;@;@;@D+D+;@8+8+P.P.E O.N N.{+7.$.e+J ~.I P P P P 3.I J I P I I ",
"J P 8 K.a@e@f@4.8+U+W+U+8+U+8+U+8+6@;@D+;@6@8+6@6@;@D+D+x+x+;@6@8+6@6@6@;@;@D+D+D+D+8+8+e@s+q.q.Q+H+%.y P I 8 9 9 9 9 ` X+J 7 y 7 J ",
"x 3.P x x x 7 i.8+U+U+U+-@8+8+-@8+D+;@D+D+;@8+8+;@D+D+x+x+x+;@6@8+;@;@;@;@;@;@D+D+D+D+D+8+V.2.2.O+8 m m 8 6 m 0 r.@@} R.s m+0+j.Y x ",
",.&.&.&.&.K &.8+U+U+-@-@8+8+8+8+8+D+;@;@D+D+;@;@;@D+x+x+x+D+6@8+6@6@6@6@6@6@6@6@D+D+D+D+D+8+6 y ` ` r r K m g@} ;.h@3+M.i@%@j@k@]+,.",
"(.; | n n n n 8+U+;@-@-@8+I P F+8+6@D+;@;@D+D+D+;@D+x+x+D+;@8+8+8+8+8+6@6@6@;@D+;@D+D+D+;@8+P O = = O 8 Z 0 * ! 5+g C +.N.<+{+G+q.(.",
"L.=   l@{.l@  8+U+>@-@8+J I 8 O 8+6@6@6@;@;@;@D+D+D+D+D+;@8+| {.' 3 d 8+8+6@6@;@D+;@;@;@6@8+K m ].].m m@1 } ;.A D $ -+@ u n@L+Q+o@L.",
"P r 1 | | ^.^.8+U+U+>@8+m+m+= 1.l.8+8+6@6@6@6@;@D+;@;@6@8+-.r.} , d =++.+.8+8+8+;@D+D+D+;@6@8+^.r.} r.r.p@! 5++.$ $ C N ^+5 i.e+'+P ",
"X x y ` &.= 0 d.8+8+8+q@R :@[.r@S+[.| 8+8+6@6@6@6@6@8+8+Y &+^+4+M.{ C H.$ D 8+6@;@;@;@;@D+;@8+, Y.h@h@M.M.o D # H.^ { ^+<.r P X w+X ",
"X ~.I '+3.0.[ z 5./ O.O.E v 4 O.Y+_+| ; ; 8+8+8+8+8+* r.2 & D +.+.^ $ $ % b 8+6@D+;@;@;@;@6@8+4 z.<+N N =+D % +.+./.^+5 K x I '+~.X ",
"X w+w+w+X P r }.c+2@2@2@2@4.[.b D.N+K `  .L d h@s@4+4+4+b t@6+-+H.H.$ N b .+8+8+6@D+D+D+6@6@8+[.4.u.q@M.b b h@h@b ^+B.&.y r ` 0.x X ",
"e+I 7@7@7@I P x 1.H H 1.H .@[ } (.r P 3.f.L+f N <+<+<+<+<+N.l+u@~+~+% z.4 r.^.8+8+8+8+8+8+8+= = l..@k.} }  @ @ @@@(.r 7 ` q | [ ` e+",
"v@|+|+w@|+V x@y y y y O O 9 ;   ; -.O O %.;+v U Z+K+Z+Z+Z+K+K+K+i y@& ]+2.= | 1 8+U+-@-@U+8+` ` y &.1 ].Z &.K &.&.y X+J 7 &.1 0 B.v@",
"E {+{+d@z@J+j.1 1 1 1 [ ; | ^.  ^.| ].; F+r.R.f+_.H _._._.1.1.b._.%.j.,.6 y [ | 8+8+8+8+8+W+8+O =@| ^.1 y X+P P P P I '+I C+m  @^+E ",
"$ }+$ ,+$@*@,.-.Y -.Y = n {.{.    {.{.{.{.{.| m O O O O 6 3.X w+X 7 y 6 J X+` = 8+W+U+U+W+U+U+8+R.{.{.].Y O O O O O O l.]@f@< ^+{ $ ",
"^ $ l+%@4@x e+P P P X+y q ^.^.'     ^.^.^.^.n ; 1 1 [ ; n.r I X ~.I P I J I x ` 8+8+8+8+8+U+U+8+8+8+0 | ; [ [ ; ].].].R.Q.E B+D g ^ ",
"M v.u.J.l.X+X ).X I 6 y &.m m ~ z E.Y -.Y Y Y Y m m = 2 o.<.r 8 O 8 8 8 8 =.O  .8+U+U+U+U+W+W+U+U+U+8+Y m = | * 3 Y.A.4+/.6+}+$ =+M ",
"4 1+f.i.2.` 3.X ~.6 m m 6 P P N j@$.x P X+X+x x X+P m+z+w.j+(.1 [ [ [ [ ; [ (.@.8+8+8+W+U+W+W+>@)@U+>@8+P 6 Z } & f N N % ^ A@% b 4 ",
"^.Z O y -.&.O 8 8 -.; Z X+w+w++ Q.}.8 6 8 8 8 8 6 I r+B@R 9.= 1   . ;.Y.Y.;.Y.5+g g 8+8+8+8+8+8+8+8+8+8+I I O  .4.$@C@$@$@$@$@8.a+^.",
"F+| q &.6 y = 1 1 | ^.2.7 X X . } F+1 q 1 1 1 1 Z =.I D@c.H 7 9 U.Y.e N B B /.% +.e >.<.K..@2.1 1 1 1 m 7 J I W E@|.|.|.|.|.|.f.F@F+",
"n {.^.Z y -.|     > ! < G@j j                 {.| Y 8 6 7 I I y 0 ;.A 5.: H@M e + c } - y ` [         ; &.6 6 6 6 6 6 6 6 6 6 =.m n ",
"      | 1 ; ^.    3 o S.T ( (                   ^.].q q Z 8 P ` F+h., u+]@}.2 ! . p r.| 1 [ 0         ^.; q q q q q q q q q - q ].  ",
"r.                ! b { { e e                           | Y O m n {.0 Z O &.].                        * . a a a a a a a a a a 3 , r.",
"*                 } . ! 3 3 3                             ].q ].^.    ].q [ 0                         , M.{ /.B B B B B B B /.e ~ * ",
"}                                                                                                     . ..@ # $ $ $ $ $ $ $ # g d } "};
