/* XPM */
static char * p_mov_up_0_xpm[] = {
"66 66 341 2",
"  	c #AA834B",
". 	c #A88047",
"+ 	c #A37A3D",
"@ 	c #9F7535",
"# 	c #9F7533",
"$ 	c #9F7534",
"% 	c #A07737",
"& 	c #A57D41",
"* 	c #A9824A",
"= 	c #A88148",
"- 	c #A88046",
"; 	c #A78046",
"> 	c #A67E43",
", 	c #A2793B",
"' 	c #9F7433",
") 	c #A07635",
"! 	c #A27B3A",
"~ 	c #A47E3D",
"{ 	c #A57F3D",
"] 	c #A6803F",
"^ 	c #A98446",
"/ 	c #AC874C",
"( 	c #AC864C",
"_ 	c #A98249",
": 	c #AB854C",
"< 	c #AC874D",
"[ 	c #AD894D",
"} 	c #A98348",
"| 	c #A77F46",
"1 	c #A88147",
"2 	c #AB854A",
"3 	c #AD884D",
"4 	c #A98149",
"5 	c #AA824A",
"6 	c #A57C41",
"7 	c #A2793C",
"8 	c #A2793A",
"9 	c #A07637",
"0 	c #A17938",
"a 	c #A98543",
"b 	c #AE8E4A",
"c 	c #AF8F4C",
"d 	c #B1914E",
"e 	c #B19150",
"f 	c #AE8B4E",
"g 	c #AB844C",
"h 	c #A77F45",
"i 	c #A37B3E",
"j 	c #A57D42",
"k 	c #A98148",
"l 	c #AC884D",
"m 	c #B08F4F",
"n 	c #B29251",
"o 	c #AF8D4D",
"p 	c #A78243",
"q 	c #A2783B",
"r 	c #A57E40",
"s 	c #AC894A",
"t 	c #B29351",
"u 	c #AF8C4F",
"v 	c #AB844B",
"w 	c #A47B3F",
"x 	c #A2783A",
"y 	c #9F7635",
"z 	c #A17738",
"A 	c #A37B3B",
"B 	c #A68140",
"C 	c #AD8B49",
"D 	c #B29350",
"E 	c #B49652",
"F 	c #B49753",
"G 	c #AF8E4F",
"H 	c #A88246",
"I 	c #A37B3D",
"J 	c #A17839",
"K 	c #B19050",
"L 	c #B39552",
"M 	c #B08F4D",
"N 	c #A98544",
"O 	c #A57E3D",
"P 	c #A47D3C",
"Q 	c #A78241",
"R 	c #AD8C4A",
"S 	c #B29451",
"T 	c #B59853",
"U 	c #B39451",
"V 	c #B08F50",
"W 	c #A88146",
"X 	c #A47B3E",
"Y 	c #A37A3C",
"Z 	c #A07636",
"` 	c #A88145",
" .	c #AC8949",
"..	c #AE8D4B",
"+.	c #AE8C4D",
"@.	c #AF8D4F",
"#.	c #B49653",
"$.	c #B19151",
"%.	c #AF8C4E",
"&.	c #AD8A4C",
"*.	c #A67E44",
"=.	c #A67F44",
"-.	c #B08E4F",
";.	c #AE8B4D",
">.	c #AE8E4B",
",.	c #B69953",
"'.	c #B59953",
").	c #B59753",
"!.	c #AE8C4E",
"~.	c #AE8A4E",
"{.	c #A1783A",
"].	c #AB864B",
"^.	c #AA824B",
"/.	c #B2934F",
"(.	c #AF8F4D",
"_.	c #AB874A",
":.	c #AA8449",
"<.	c #AD8B4B",
"[.	c #B1924E",
"}.	c #B29450",
"|.	c #AB864C",
"1.	c #AA844B",
"2.	c #B49552",
"3.	c #080808",
"4.	c #AA8646",
"5.	c #A47D3E",
"6.	c #A57F3F",
"7.	c #A78240",
"8.	c #A88342",
"9.	c #AB8748",
"0.	c #AD8A4D",
"a.	c #B09050",
"b.	c #AD8A4E",
"c.	c #B39450",
"d.	c #B1924F",
"e.	c #AA8549",
"f.	c #AD894B",
"g.	c #B0904E",
"h.	c #AE8C4C",
"i.	c #A88149",
"j.	c #AF8E4E",
"k.	c #AB864A",
"l.	c #AC874B",
"m.	c #B0904F",
"n.	c #CE3900",
"o.	c #EF7B00",
"p.	c #A47D3D",
"q.	c #A78144",
"r.	c #AA834A",
"s.	c #B39452",
"t.	c #B08E50",
"u.	c #AB8849",
"v.	c #A88443",
"w.	c #A57F40",
"x.	c #A47C3E",
"y.	c #A57E3F",
"z.	c #A68040",
"A.	c #A47C3F",
"B.	c #A57D43",
"C.	c #A67F42",
"D.	c #A78043",
"E.	c #AC884B",
"F.	c #EFEF00",
"G.	c #A3793D",
"H.	c #A67F43",
"I.	c #AC8A49",
"J.	c #AC884C",
"K.	c #AF8D4E",
"L.	c #A47C40",
"M.	c #A17838",
"N.	c #A27A3A",
"O.	c #A37C3B",
"P.	c #A68042",
"Q.	c #AA854A",
"R.	c #AA844A",
"S.	c #B19250",
"T.	c #AF8E4D",
"U.	c #A98248",
"V.	c #9E7433",
"W.	c #A67E45",
"X.	c #AD894E",
"Y.	c #AC894C",
"Z.	c #A88144",
"`.	c #AB8649",
" +	c #A88245",
".+	c #A57E41",
"++	c #AA8548",
"@+	c #A98447",
"#+	c #A17739",
"$+	c #9E7432",
"%+	c #A88345",
"&+	c #AC8947",
"*+	c #292929",
"=+	c #BD6B39",
"-+	c #DEAD7B",
";+	c #8C1800",
">+	c #A98545",
",+	c #A78242",
"'+	c #A57D3F",
")+	c #A37A3E",
"!+	c #A27A39",
"~+	c #A98347",
"{+	c #A67E42",
"]+	c #A27A3C",
"^+	c #B49752",
"/+	c #181818",
"(+	c #4A4A4A",
"_+	c #EFDEBD",
":+	c #A07736",
"<+	c #AC8A47",
"[+	c #AD8A4B",
"}+	c #A57E3E",
"|+	c #A37B3F",
"1+	c #A47C41",
"2+	c #9F7434",
"3+	c #6B7B7B",
"4+	c #9E7332",
"5+	c #B39551",
"6+	c #A88543",
"7+	c #A78044",
"8+	c #A57E42",
"9+	c #A17837",
"0+	c #A37C3D",
"a+	c #A27938",
"b+	c #B39651",
"c+	c #AF8F4B",
"d+	c #AA8746",
"e+	c #A78042",
"f+	c #AC884A",
"g+	c #A88344",
"h+	c #AA8745",
"i+	c #AB8946",
"j+	c #AB8947",
"k+	c #B29250",
"l+	c #B1914F",
"m+	c #A78045",
"n+	c #A17939",
"o+	c #B69954",
"p+	c #AA834C",
"q+	c #A78143",
"r+	c #A98644",
"s+	c #A88343",
"t+	c #AA8649",
"u+	c #AA8645",
"v+	c #AD8B4A",
"w+	c #B29151",
"x+	c #B1904F",
"y+	c #A27939",
"z+	c #AC894B",
"A+	c #AB8747",
"B+	c #A07738",
"C+	c #A68041",
"D+	c #AB8847",
"E+	c #A98444",
"F+	c #AA8747",
"G+	c #A47D3F",
"H+	c #A88247",
"I+	c #0018EF",
"J+	c #A98643",
"K+	c #A98546",
"L+	c #AA8349",
"M+	c #AB874B",
"N+	c #AB854B",
"O+	c #B08F4E",
"P+	c #A57C40",
"Q+	c #B0914E",
"R+	c #A98349",
"S+	c #A37B3A",
"T+	c #A77F44",
"U+	c #A78341",
"V+	c #A88442",
"W+	c #A88341",
"X+	c #AB8848",
"Y+	c #AE8A4D",
"Z+	c #A98448",
"`+	c #B1934F",
" @	c #A67D43",
".@	c #AE8B4C",
"+@	c #B18F50",
"@@	c #B59854",
"#@	c #A07837",
"$@	c #AE8D4C",
"%@	c #AF8E4C",
"&@	c #AB8749",
"*@	c #AD8A4A",
"=@	c #A68240",
"-@	c #A27B39",
";@	c #A98547",
">@	c #AA8647",
",@	c #AD8C4B",
"'@	c #B0914D",
")@	c #A27A3B",
"!@	c #A98346",
"~@	c #B19251",
"{@	c #B0904D",
"]@	c #A6803E",
"^@	c #A6813F",
"/@	c #AA8744",
"(@	c #AD894C",
"_@	c #A37B3C",
":@	c #A57F3E",
"<@	c #B39351",
"[@	c #AA8547",
"}@	c #B49651",
"|@	c #AA8448",
"1@	c #6B0000",
"2@	c #A37D3B",
"3@	c #A07836",
"4@	c #9F7634",
"5@	c #AC8B48",
"6@	c #AD8C49",
"7@	c #AC8A48",
"8@	c #A67F40",
"9@	c #A57D40",
"0@	c #AE8C4F",
"a@	c #AE8C4B",
"b@	c #A9824B",
"c@	c #A9834A",
"d@	c #AA8845",
"e@	c #A47B40",
"f@	c #A67F41",
"g@	c #A47B41",
"h@	c #A1773A",
"i@	c #AB8846",
"j@	c #AC8948",
"k@	c #AB8A47",
"l@	c #B08E4E",
"m@	c #AE8D4D",
"n@	c #A37C3C",
"o@	c #A98247",
"p@	c #B0904C",
"q@	c #A17937",
"r@	c #A5803E",
"s@	c #A98645",
"t@	c #AE8D49",
"u@	c #A78140",
"v@	c #AA8846",
"w@	c #B39550",
"x@	c #B2924F",
"y@	c #AD8B4D",
"z@	c #AC8B49",
"          . + @ # $ $ $ # % & *                                                                                                     ",
"  * = - ; > , $ ' ) ! ~ { ] ^ / (           _ . ; ; = *     : < [ [ [ [ / } ; | 1 2 3 [ 3 3 3 3 3 [ [ [ 3 (   4 . = 5               ",
"  = 6 7 7 8 9 $ ' 0 a b c c d e f g       5 h i , 7 j k     l m n n n n o p 7 q r s e t n n n n n n n t e u v h w j 4               ",
". > x $ $ y z 8 A B C D E F E t G [ l 3 3 / H I J , 6 =     3 K L F F L M N O P Q R S F T T T T T E U U t V [ W X 6 k               ",
"Y x Z # ' % w `  ...+.@.t #.$.%.G e n n n e &.H *.=.. *     : [ -.L L m ;...>.b ..+.@.t T ,.'.'.).n !.~.f -.K &.H . *               ",
"{.{.J J J + h ].-.e @.~.m n G ~.K E E L E E K ( ^.  v ( ( v g / f e e !.f K D /.(._.:.<.d [.[.}.t %.: : 3 G n @.: ^.  : / |.1.v ( < ",
"*.*.*.*.*.h 4 g 3 !.V K @.!.G e 2.).t -.n E e <   1.[ m @.< < G V @.3.3.K G &.4.3.5.X 6.7.7.8.9.[ < : 0.V m !.l g     3 -.@.( < -.e ",
". = _   : |.v 1.|.[ a.n @.b.-.t c.d.<.e.f.g.h.:.i.  b.e j.k.l.m.m 3.n.3.K 3.3.3.o.3.) z 8 A p.q.r.  g !.e @.|.      1.0.e K ~.f e s.",
"i j = ( @.-.3 ( f V -.@.m K t.!.u.v.w.x.y.Q z.A.B.4 3.3.3.C.D.E.3.3.o.F.3.n.3.3.F.3.3.G.H.4.I._.  ^.  < ~.l   ^.      ( ~.G K K @.u ",
"@ , h / V K J.2 K.e &.2 K.e +.} L.M.y ) % J N.O.P.Q.3.n.o.3.3.3.n.3.o.F.o.n.3.3.F.3.o.3.R.K.S.@.< ( ( / 3.3.3.3._ _     v [ g.T.k.U.",
"V.{.W.: X.Y.Z.C.`.&. +.+++&.@+w #+$ $+$ {.& %+&+..m *+*+o.F.F.o.o.n.o.F.F.o.o.o.F.o.F.n.3.3.3.3.3.3.3.3.=+-+=+;+3.3.3.    :.>+,+'+)+",
"!+5.~+( < :.x.8 {+- L.]+{+W L.% $ $ y #+L.U.0.S.L ^+T 3.n.o.F.F.F.o.F.F.F.o.F.F.o.F.o.3./+/+*+*+*+*+(+*+3.=+_+_+-+=+;+3.4 > , :+) ) ",
"<+R T.V V [+}+Z {.|+1+6 L.)+#+2+$+@ , & ; r.< u n F ,.*+n.o.o.F.F.o.F.F.F.o.F.F.o.o.*+o./+*+/+/+(+3+3+(+3.;+-+-+;+3.3.3.6 q @ 4+$+V.",
"U 5+E F ).[.6+!+z ]+7+U.8+8 M.0 9+J 6 =     g / @.U (+/+o.F.F.o.o.F.o.F.F.o.F.F.o.3.o.3.*+/+3.3./+*+*+(+*+3.;+-+=+3.R.=.0+!+!+a+a+a+",
"G K E '.'.b+c+d+e+D.f++.++C.g+d+g+> ; r.  g 3 @.t.-.*+o.F.o./+/+F.o.o.F.o.F.o.o.n.o.F.o.3.3.3.3./+3.3.3.3.3.3.3.3.,+r P.h+i+i+i+j+j+",
"/ f n E T T ^+D ;./ -.k+!.l.K.l++.R.*   * r.&.l+j.l.0./+n./+(+/+F.n./+/+/+/+/+/+/+n.3.n.3.3.3.3.3.( ( : 1.g 1.m+I n+! v.(.5+5+5+U }.",
"-.-.-.K L T o+).t V -.-.m V V -.X.: p+  . {+q+r+s+.+/+o./+/+(+/+o./+(+3+3+_+_+3+(+/+o.3.3.3.& t+K.-.@.[ 1.^.* | j P.u+v+j.t ).#.w+V ",
"}.x+0.[ e E F E E t f 3 -.n @.(   * * 4 j {.9+y+!+(+/+n./+;+/+/+/+/+(+3+3+_+_+3+(+/+F.3.J j Q.-.L F L -./ g :   r.z+g.T.E.0.S.e [ : ",
"i+A+:.: ~.-.m m V @.l : ~.@.X.  | j & 6 , Z B+i C+*+/+*+/+=+*+n.;+=+/+/+/+/+/+/+/+/+o.3..+`.-.s.T ,.T t m @.@.[ : e.D+E+{+P.>+F+R.  ",
"N.G+H+: ( / ( |.|.:   r.R.1.1.k & J 9 % Z % )+1 /+/+/+(+/+;+*+o.=+=+3+I+=+=+3+I+3.) 3.j Q.@.U E F ).T F E E L V / W 5.! N.N.A r 1   ",
"|+H.f+K.@.~.|.^.^.* h j 6 6 j L., $ $+$ z i *./+/+*+/+/+/+/+/+n.;+;+_+I+-+-+_+I+3.w C._.@.V K K K s.T '.'.,.T s.m [+h+a J+J+J+K+L+  ",
"k M+x+2.E n f g   _ & 8 J J J #+% Z @ % A.1 3.3.*+(+*+/+*+3./+;+;+=+-+-+-+-+-+=+3.. :.o e %.|.N+/ m E ).F ).F E L U D D }.}./.O+J.v ",
"  [ t T '.E e f ( r.^ 8.w.X )+i w w w P+@+3.*+3+3+3+(+*+/+3.3.3.;+;+;+=+-+-+=+;+/+B.D.4.D+%+j 6 > `.G K K K K K K K e s.).#.n V @.u ",
"  3 n ).T T E n ~./ K.Q+&.R+= = = 1 . U.&.3.(+(+(+3+3+3+(+*+3.*+3.;+=+=+=+=+;+3.J z J S+O.N.8 J Y 7+].< ( ( ( ( ( ( / @.U n f f e s.",
"  < @.n E T '.^+e -.U F n u < 1.= T+> T+3.*+3+3+(+(+(+(+*+/+3.3.*+3.3.3.3.3.3.#+) J i z.U+V+W+U+v.X+0.<   ^.^.^.^.^.  3 -.u ( < @.e ",
"r.  N+Y+n ).T F 2.L E F E t f r.j , z J 3.(+3+3+3+3+3+(+(+(+*+3.3.3.*+3.3.3.J Z J & Z+h.d /.`+`+/.c.t @.|.  1.1.1.    1.|.N+  1.|./ ",
">  @ @H .@K $.$.w+w+$.$.n m.E.=.7 ) V.$ 3.3+3+(+(+(+*+*+*+*+3.3.3.3.3.3.3.] B G+.+e.%.+@n #.@@o+'.,.T n u f f f f k.m+ @ @ @*.| 4 ^.",
"8 x x A.~+/ l / / / / / < ].H.8 Z $ # #@3.3+3+(+*+*+3.3.3.3.3.;+;+*+*+;+3.$@%@&@:.o e K.Y+K ^+T T T ).E L s.s.L t *@y.{.{.{.8 L.1   ",
"7.=@7.v.f+J.} =.*.*.*.*.*.B.7 @ V.y -@/+3.(+3+3+(+*+*+3.3.;+n.n.*+*+;+3.< t.-.`.H X+C ;@` >@..g.e n n L T '.T E k+,@6+=@=@=@7.E+E.f ",
"'@'@'@[.D (.s+, {.{.{.{.x J % @ ' /+/+;+3.(+(+(+*+3.3.3.;+;+;+;+*+*+;+3.v / Q..+)@O.P A , A 6.!@/ l [ K E '.).~@f ;.{@'@'@'@'@[.D U ",
"n n n t t j.g++ 7 7 7 7 7 7 7 /+/+;+n.;+3.*+(+*+*+3.3.;+n.n.n.;+*+;+3.;+3.h j {.:+O.]@^@] ] B  +* ^.1.~.e t e !.|.[ K t n n n n n n ",
"[ [ [ [ [ / R+; | ; ; ; ; /+/+;+n.n.;+;+3./+*+(+*+3.3.;+;+;+;+*+*+*+3.;+;+3.J Z !+/@c '@{@'@c (@1.^.  |.l [ 3 ( 1.: l [ [ [ [ [ [ [ ",
"      * . h h h h ; _   3.;+n.n.n.n.n.n.3.3.3.*+*+*+3.3.*+*+*+3.3.3.;+;+n.;+3._@r s t #.T '.F K ~.[ [ |.1.|.3 / 1.                  ",
"      = 1+, , , , i h 3.n.n.o.o.o.o.o.n.3.*+3.3.*+*+3.;+3.3.3.;+;+;+;+;+n.;+n.3.H+2 f t T '.T 2.t t n f |.~.K @.:                   ",
"  g < k.p :@{ ~ A + 3.n.o.o.o.o.o.o.n.;+3.3.(+*+*+3.3.;+n.n.n.n.;+;+n.n.o.;+n.3.1.  |.@.t <@U E T T F e f @.e V ~.3 3 3 3 [ [ < :   ",
"  / -.e {@c+c+R [@3.n.o.o.o.o.o.n.n.;+3.3.3.(+(+*+*+3.3.;+;+;+;+n.n.n.n.o.n.o.o.3.  1./ [ [ f n ).'.T E t -.f @.e n n n n n n -.<   ",
"  < m U ^+^+L S.%.3.n.o.o.o.n.n.;+;+;+;+;+3.*+(+(+*+*+3.3.;+n.n.n.n.n.n.o.o.o.o.;+3.. _     : %.t U U U t m ~.@.n 2.).T T }@d.h.|@. ",
"  : 3 G s.E K u V 3.n.n.o.o.o.n.n.n.;+3.3.3.*+*+(+(+(+3.3.3.3.;+;+;+;+n.n.o.o.o.n.3.w h *     / 0.~.~.~.f -.K m %.K E o+T [.h+6.0++ ",
"  v ( f e n @.0.j.3.1@n.n.n.n.n.;+;+3.  ~.3.3.*+*+*+*+*+3.  r.3.3.;+n.o.o.o.o.o.o.;+3.!@|.:             : f e V ~.@.n U [.<+2@$ $ $ ",
"  < @.a.@.u V O+j+V+3.1@;+;+;+3.3.3.3.5 < 3.3.(+*+3.3.*+3.  . 6 , 3.;+n.n.o.o.o.o.;+3.g.m [ 1.^.^.^.^.^.  ( f -.K V !.f+v.~ 3@' ' # ",
"= k.m x+E.2 $@>.7.:+$ 3.1@1@1@1@3.3.q.].|.3.3.*+(+(+*+3.3.1  @{.$ $ 3.;+n.o.o.o.n.;+1@3.E -.l / / / / :   _ _ z+M $@:.j J 4@$ ) B+J ",
"i H._.E.7+G+B B -@$ 4+3.3.3.3.3.(+3.%@m f 3.3.(+(+(+*+3.+ + q Z V.' -@3.;+n.n.n.;+;+1@3.T U e K e e a.~.1.W.w y.Q z.X {.@ V.# J L.> ",
"y , > h Y Z ) ) $ y 3.*+3.3.*+3.*+3.).E K J.3.*+(+(+*+/+3.A N.J M.!+7...3.;+;+;+;+1@1@3.2.E F E L E E K J.` p.O.O.S+n+#+z z z i ; 5 ",
"' Z q q 9 V.4+4+3.3.(+3.(+*+3.3.*+3.o+T 2.K 3.3.3.3.3.3.3.5@d+q.q.D+v++.3.1@;+;+1@1@1@;+3.s.F t V t F L e T.6@5@7@4.D.j j j B.h 4   ",
"B+M.N.! !+!+!+3.=+/+(+(+3.3.*+/+3.E E 2.2.U 3.3.=+=+=+;+3.E S.0.0.x+e f f 3.n.;+1@1@1@n.3.o l+.@k.!.U 2.L U U U t j.].r.N+N+N+N+|.|.",
"j D.4.<+<+<+<+3./+=+/+/+(+*+/+3.u @.@.@.@.@.3.;+-+-+-+=+;+3.#.n V -.-.m m 3.1@n.;+1@1@n.1@3.V+8@9@~+;.@.@.@.@.G @.X.: < @.K K a.a.a.",
"N+(@m.U b+}@}@}@3./+/+-+/+/+3.( v v 1.r.R+R.3.=+-+_+-+_+-+;+3.L K [ [ K e ~.3.1@;+1@;+n.1@3.y+!+_@q.].( : g g g g : |.f n E E E L L ",
"K V t.e E o+o+o+o+3./+/+3.L -.: ^.5 | 6 w L.3.;+-+_+-+_+-+=+;+3.f |.|.f 0@< 3.3.1@n.n.;+1@3.P+s+D+a@K.[   b@^.b@  l @.V V n F E e G ",
"}.m.[ [ e E ^+E ^+U f / -.t %.r._ = 6 #+Z Z z 3.-+=+-+=+_+3.=+3.1.r._ r.r.c@; 3.3.3.3.3.3.{+2 j.5+^+L m < : : 1.1.0.l+j.l.&.l+l+[ : ",
"d@F+:.: ~.@.-.-.t.@.l : b.!.++{+1+L., y V.$ z 3.=+;+-+;+-+3.3.3.=  @e@e@L.L.i 3.*+(+(+*+3._.m L T o+T U V -.@.[ v e.4.s+.+f@N >@:.  ",
"N.G+H+: ( ( N+R.R.R.r.* r.} & z Z Z ) $ $ % w 1 3.;+-+;+-+3.g   1 A.y+J J #+z % 3.3.3.3.3.G U E ^+).T ).E ^+2.a./ W 5.! N.N.A r 1   ",
"w D.z+G -.&.H 6 e@g@1+1+1+w h@2+$+V.V.$ J w W.r.u 3.=+3.=+3.f : :.4.v.f@L.w w e@3.*+(+(+*+3.m -.a.U T o+o+o+T L m <.i@/@/@/@/@4.:.  ",
"_ ].m L 2.g.s+8 J y+y+y+y+y+M.9+3@:+:+% A.1 r.1.f U 3.3.3.L K [ [ m.O+l._ _ L+L+3.3.3.3.3.3.l : / -.5+E }@}@}@E L U }.D D }.D O+/   ",
"  ( %.K K +.%+r Q J+r+J+J+J+r+r+r+a C+& ~+0.[ : < @.K K K K V -.-.V @.< |.~.@.G 3.*+*+*+*+(+3.< v `.j@<+<+k@<+R l@V V V V K K u (   ",
"  1.: |.( N+r.Q.m@/.D /././.}.}.c./.+.k.;.n V / : |.|.N+N+N+0.l+K Y+: 1.< V s.L 3./+(+(+(+*+3.f L+{+A !+!+-@n@q+k.< < < < / ( : 1.  ",
"    ^.^.^.^.^.: f K K K K n 2.T o+T t V n F s.-.[ g = *.j B.q.D+ .Q.^.^.|.!.K K 3./+*+*+*+/+3.^ {+, $ 4+$ S+U+X+;.%.!.%.!.[ g ^.^.  ",
"5     1.1.1.1.g ( < < / ( J.m E T ).E L E F E U -.N+*.7 z z n+A w.o@1.v : ( / / 3./+;+=+;+=+3.n+z 9 ) $ 9+V+p@U 5+L L L s.V l 1.1.1.",
"> W E.!.%.!.!.!.!.f f [ } m+_.m e K e e e e $.K &.` )+Z $+V.q@r@u+[+!.%.!.f [ : * 3.=+-+=+-+3.4+$ #+I w.v.I.m.s.T ,.T E n V @.f f f ",
"J 8@..U L s.s.U U s.L l+s@x.7+].< / / / / ( / ].` Y % ) $ ) :@6@/.U U s.s.L n ~._ 3./+*+*+*+3.4@% w 1 [+g.j.0.-.2.T ).n f f n L L L ",
"+ P.<.e n e e e e n E b+t@N 9.[ <   . *. @ @*. @)+9 9 , 5.u@v@T.w+n e e t E E K &.4.3.3.3.3.U+U+8.!@1.~.K V %.@.K e e %.( ~.s.o+o+'.",
". _ N+< l < < < < ~.$.E w@d.D t u R. @7 J x x {.% Z 7 =._.T.O+0.< < < < f t F E S x@[.[.[.[.[.[.g.y@N+: l @.n V [ < < : 1.0.t T T T ",
"                ^.: !.e n t E E V v *.X 5.] :@I 7 + j _ 3 V -./         ( @.n n n n n n n n n n $.f g ^.1.~.V %.:     4 ; ^ z@b b b ",
"                  1.|.l l ~.e L -.N+i.= f+%@<.} ; . k r.: < / v         1.( l l l l l l l l l 3 l |.      : < ( 1.    | i )@P ~ ~ ~ ",
"                          : !.K f g ^.v ~.K @.|.                        * . h h h h h h h h h h | = r.                ; w , , 7 7 7 ",
"                            |.l |.1.    |.l / v                         = L., {.x x x x x x x {.7 > *                 _ . ; | | | | ",
"                                                                        . Y @ # $ $ $ $ $ $ $ # 9 6 _                               "};
