/* XPM */
static char * p_mov_right_1_xpm[] = {
"66 66 344 2",
"  	c #AA834B",
". 	c #A88047",
"+ 	c #A37A3D",
"@ 	c #9F7535",
"# 	c #9F7533",
"$ 	c #9F7534",
"% 	c #A07737",
"& 	c #A57D41",
"* 	c #A9824A",
"= 	c #A88148",
"- 	c #A88046",
"; 	c #A78046",
"> 	c #A67E43",
", 	c #A2793B",
"' 	c #9F7433",
") 	c #A07635",
"! 	c #A27B3A",
"~ 	c #A47E3D",
"{ 	c #A57F3D",
"] 	c #A6803F",
"^ 	c #A98446",
"/ 	c #AC874C",
"( 	c #AC864C",
"_ 	c #A98249",
": 	c #AB854C",
"< 	c #AC874D",
"[ 	c #AD894D",
"} 	c #A98348",
"| 	c #A77F46",
"1 	c #A88147",
"2 	c #AB854A",
"3 	c #AD884D",
"4 	c #A98149",
"5 	c #AA824A",
"6 	c #A57C41",
"7 	c #A2793C",
"8 	c #A2793A",
"9 	c #A07637",
"0 	c #A17938",
"a 	c #A98543",
"b 	c #AE8E4A",
"c 	c #AF8F4C",
"d 	c #B1914E",
"e 	c #B19150",
"f 	c #AE8B4E",
"g 	c #AB844C",
"h 	c #A77F45",
"i 	c #A37B3E",
"j 	c #A57D42",
"k 	c #A98148",
"l 	c #AC884D",
"m 	c #B08F4F",
"n 	c #B29251",
"o 	c #AF8D4D",
"p 	c #A78243",
"q 	c #A2783B",
"r 	c #A57E40",
"s 	c #AC894A",
"t 	c #B29351",
"u 	c #AF8C4F",
"v 	c #AB844B",
"w 	c #A47B3F",
"x 	c #A2783A",
"y 	c #9F7635",
"z 	c #A17738",
"A 	c #A37B3B",
"B 	c #A68140",
"C 	c #AD8B49",
"D 	c #B29350",
"E 	c #B49652",
"F 	c #B49753",
"G 	c #AF8E4F",
"H 	c #A88246",
"I 	c #A37B3D",
"J 	c #A17839",
"K 	c #B19050",
"L 	c #B39552",
"M 	c #B08F4D",
"N 	c #A98544",
"O 	c #A57E3D",
"P 	c #A47D3C",
"Q 	c #A78241",
"R 	c #AD8C4A",
"S 	c #B29451",
"T 	c #B59853",
"U 	c #B39451",
"V 	c #B08F50",
"W 	c #A88146",
"X 	c #A47B3E",
"Y 	c #A37A3C",
"Z 	c #A07636",
"` 	c #A88145",
" .	c #AC8949",
"..	c #AE8D4B",
"+.	c #AE8C4D",
"@.	c #AF8D4F",
"#.	c #B49653",
"$.	c #B19151",
"%.	c #AF8C4E",
"&.	c #AD8A4C",
"*.	c #A67E44",
"=.	c #A67F44",
"-.	c #B08E4F",
";.	c #AE8B4D",
">.	c #AE8E4B",
",.	c #B69953",
"'.	c #B59953",
").	c #B59753",
"!.	c #AE8C4E",
"~.	c #AE8A4E",
"{.	c #A1783A",
"].	c #AB864B",
"^.	c #AA824B",
"/.	c #B2934F",
"(.	c #AF8F4D",
"_.	c #AB874A",
":.	c #AA8449",
"<.	c #AD8B4B",
"[.	c #B1924E",
"}.	c #B29450",
"|.	c #AB864C",
"1.	c #AA844B",
"2.	c #B49552",
"3.	c #AA8646",
"4.	c #A47D3E",
"5.	c #A57F3F",
"6.	c #A78240",
"7.	c #A88342",
"8.	c #AB8748",
"9.	c #AD8A4D",
"0.	c #B09050",
"a.	c #AD8A4E",
"b.	c #B39450",
"c.	c #B1924F",
"d.	c #AA8549",
"e.	c #AD894B",
"f.	c #B0904E",
"g.	c #AE8C4C",
"h.	c #A88149",
"i.	c #AF8E4E",
"j.	c #AB864A",
"k.	c #AC874B",
"l.	c #B0904F",
"m.	c #AB874B",
"n.	c #AC884C",
"o.	c #A78045",
"p.	c #A47D3D",
"q.	c #A78144",
"r.	c #AA834A",
"s.	c #B39452",
"t.	c #B08E50",
"u.	c #AB8849",
"v.	c #A88443",
"w.	c #A57F40",
"x.	c #A47C3E",
"y.	c #A57E3F",
"z.	c #A68040",
"A.	c #A47C3F",
"B.	c #A57D43",
"C.	c #AB8649",
"D.	c #A67F42",
"E.	c #A78043",
"F.	c #AC884B",
"G.	c #AC874A",
"H.	c #A67F43",
"I.	c #9E7433",
"J.	c #A3793D",
"K.	c #AC8A49",
"L.	c #AF8D4E",
"M.	c #A47C40",
"N.	c #A17838",
"O.	c #A27A3A",
"P.	c #A37C3B",
"Q.	c #A68042",
"R.	c #AA854A",
"S.	c #A27A3B",
"T.	c #A77F44",
"U.	c #AA844A",
"V.	c #B19250",
"W.	c #AF8E4D",
"X.	c #A98248",
"Y.	c #A67E45",
"Z.	c #AD894E",
"`.	c #AC894C",
" +	c #A88144",
".+	c #A88245",
"++	c #A57E41",
"@+	c #AA8548",
"#+	c #A98447",
"$+	c #A17739",
"%+	c #9E7432",
"&+	c #A88345",
"*+	c #AC8947",
"=+	c #A37B3A",
"-+	c #AB8749",
";+	c #A67E41",
">+	c #A67D43",
",+	c #A98545",
"'+	c #A78242",
")+	c #A57D3F",
"!+	c #A37A3E",
"~+	c #A27A39",
"{+	c #A98347",
"]+	c #A67E42",
"^+	c #A27A3C",
"/+	c #B49752",
"(+	c #AF8F4B",
"_+	c #A88247",
":+	c #A98247",
"<+	c #A27939",
"[+	c #B39652",
"}+	c #A07736",
"|+	c #AC8A47",
"1+	c #AD8A4B",
"2+	c #A57E3E",
"3+	c #A37B3F",
"4+	c #A47C41",
"5+	c #9F7434",
"6+	c #AE8D4A",
"7+	c #AA8645",
"8+	c #A68043",
"9+	c #AE8B4C",
"0+	c #A98346",
"a+	c #AB8846",
"b+	c #A88244",
"c+	c #B39351",
"d+	c #9E7332",
"e+	c #B39551",
"f+	c #A88543",
"g+	c #A78044",
"h+	c #A57E42",
"i+	c #A17837",
"j+	c #B1914F",
"k+	c #AD894C",
"l+	c #AD884C",
"m+	c #080808",
"n+	c #AE8D4D",
"o+	c #A37C3D",
"p+	c #A27938",
"q+	c #B39651",
"r+	c #AA8746",
"s+	c #A78042",
"t+	c #AC884A",
"u+	c #A88344",
"v+	c #B29151",
"w+	c #B69954",
"x+	c #AA834C",
"y+	c #EF7B00",
"z+	c #CE3900",
"A+	c #AA8745",
"B+	c #AB8946",
"C+	c #AB8947",
"D+	c #B29250",
"E+	c #AB854B",
"F+	c #EFEF00",
"G+	c #A17939",
"H+	c #A78143",
"I+	c #A98644",
"J+	c #A88343",
"K+	c #AD8B4C",
"L+	c #AD8B4A",
"M+	c #B1904F",
"N+	c #A98349",
"O+	c #6B7B7B",
"P+	c #AC894B",
"Q+	c #AB8747",
"R+	c #A07738",
"S+	c #A68041",
"T+	c #AA8547",
"U+	c #AA8349",
"V+	c #4A4A4A",
"W+	c #292929",
"X+	c #AB8847",
"Y+	c #A98444",
"Z+	c #AA8747",
"`+	c #A47D3F",
" @	c #A98643",
".@	c #A98546",
"+@	c #181818",
"@@	c #B08F4E",
"#@	c #A57C40",
"$@	c #AE8A4D",
"%@	c #B0914E",
"&@	c #AC8948",
"*@	c #AB8948",
"=@	c #BD6B39",
"-@	c #EFDEBD",
";@	c #A37C3C",
">@	c #8C1800",
",@	c #A27B39",
"'@	c #A6813F",
")@	c #A78341",
"!@	c #A78340",
"~@	c #A07837",
"{@	c #AF8E4B",
"]@	c #AD8A4A",
"^@	c #A68240",
"/@	c #DEAD7B",
"(@	c #0018EF",
"_@	c #AD8C4B",
":@	c #B0914D",
"<@	c #6B0000",
"[@	c #B19251",
"}@	c #B0904D",
"|@	c #AA8647",
"1@	c #A67F45",
"2@	c #A57F3E",
"3@	c #A47C3D",
"4@	c #B49651",
"5@	c #AA8448",
"6@	c #AE8D4C",
"7@	c #A88048",
"8@	c #A37D3B",
"9@	c #A88442",
"0@	c #AD8D49",
"a@	c #A07836",
"b@	c #9F7634",
"c@	c #AD8C49",
"d@	c #AC8B48",
"e@	c #AC8A48",
"f@	c #AE8C4F",
"g@	c #A9824B",
"h@	c #A9834A",
"i@	c #AA8845",
"j@	c #A47B40",
"k@	c #A67F41",
"l@	c #A47B41",
"m@	c #A1773A",
"n@	c #AA8744",
"o@	c #B08E4E",
"p@	c #AF8E4C",
"q@	c #AB8848",
"r@	c #B0904C",
"s@	c #A17937",
"t@	c #A5803E",
"u@	c #A67F40",
"v@	c #A98645",
"w@	c #AE8D49",
"x@	c #A78140",
"y@	c #AA8846",
"z@	c #B39550",
"A@	c #B2924F",
"B@	c #AD8B4D",
"C@	c #AC8B49",
"          . + @ # $ $ $ # % & *                                                                                                     ",
"  * = - ; > , $ ' ) ! ~ { ] ^ / (           _ . ; ; = *     : < [ [ [ [ / } ; | 1 2 3 [ 3 3 3 3 3 [ [ [ 3 (   4 . = 5               ",
"  = 6 7 7 8 9 $ ' 0 a b c c d e f g       5 h i , 7 j k     l m n n n n o p 7 q r s e t n n n n n n n t e u v h w j 4               ",
". > x $ $ y z 8 A B C D E F E t G [ l 3 3 / H I J , 6 =     3 K L F F L M N O P Q R S F T T T T T E U U t V [ W X 6 k               ",
"Y x Z # ' % w `  ...+.@.t #.$.%.G e n n n e &.H *.=.. *     : [ -.L L m ;...>.b ..+.@.t T ,.'.'.).n !.~.f -.K &.H . *               ",
"{.{.J J J + h ].-.e @.~.m n G ~.K E E L E E K ( ^.  v ( ( v g / f e e !.f K D /.(._.:.<.d [.[.}.t %.: : 3 G n @.: ^.  : / |.1.v ( < ",
"*.*.*.*.*.h 4 g 3 !.V K @.!.G e 2.).t -.n E e <   1.[ m @.< < G V @.@.V K G &.3.Q 4.X 5.6.6.7.8.[ < : 9.V m !.l g     3 -.@.( < -.e ",
". = _   : |.v 1.|.[ 0.n @.a.-.t b.c.<.d.e.f.g.:.h.  a.e i.j.k.l.m m.j.m K n.o.Y Z $ ) z 8 A p.q.r.  g !.e @.|.      1.9.e K ~.f e s.",
"i j = ( @.-.3 ( f V -.@.m K t.!.u.v.w.x.y.Q z.A.B.4 ( 9.C.D.E.F.G.H.D._.F.q.7 9 ' I.Z J.H.3.K._.  ^.  < ~.l   ^.      ( ~.G K K @.u ",
"@ , h / V K n.2 L.e &.2 L.e +.} M.N.y ) % J O.P.Q.R.< / H S.7 =.h i + T.h Y y $ @ Z , > U.L.V.@.< ( ( / < < ( 1._ _     v [ f.W.j.X.",
"I.{.Y.: Z.`. +D.C.&..+++@+&.#+w $+$ %+$ {.& &+*+..m K m 8.=+Z q w 6 6 w 7 9 I.I.Z + *.= v 3 u m K K K K K K m -+;+>+4     :.,+'+)+!+",
"~+4.{+( < :.x.8 ]+- M.^+]+W M.% $ $ y $+M.X.9.V.L /+T /+(+B 0 J A._+:+A.J <+<+N., *.*     : 3 -.U E /+E L E [+R ] ++X.  4 > , }+) ) ",
"|+R W.V V 1+2+Z {.3+4+6 M.!+$+5+%+@ , & ; r.< u n F ,.T }.6+7+8+H 9+;.0+E.7+a+b+=.=     : ~.V -.-.t F c+V n /+/.R u.U.. 6 q @ d+%+I.",
"U e+E F ).[.f+~+z ^+g+X.h+8 N.0 i+J 6 =     g / @.U F T T E j+k+[ K e 9.l+m j+k+r.5   * U.m+m+!.m+G t -.l %.U e+/.n+U.=.o+~+~+p+p+p+",
"G K E '.'.q+(+r+s+E.t++.@+D.u+r+u+> ; r.  g 3 @.t.-.v+E '.w+#.n V -.-.V V V u < g x+m+h ++m+y+m+z+m+f 3 g < !.<.a+'+r Q.A+B+B+B+C+C+",
"/ f n E T T /+D ;./ -.D+!.k.L.j++.U.*   * r.&.j+i.k.9.t E E E L e [ [ K e ~.E+r._ _ m+m+m+z+F+m+y+F+m+m+m+g m+o.I G+! v.(.e+e+e+U }.",
"-.-.-.K L T w+).t V -.-.m V V -.Z.: x+  . ]+H+I+J+++H K+-.-.-.-.f ( ( f u < _ Y.6 6 m+z+z+y+F+z+F+y+m+y+m+m+F+m+j Q.7+L+i.t ).#.v+V ",
"}.M+9.[ e E F E E t f 3 -.n @.(   * * 4 j {.i+<+~+O.++N+: : : : v r.O+O+U.r.- i % Z m+y+y+y+y+z+F+m+y+F+m+z+F+m+r.P+f.W.F.9.V.e [ : ",
"B+Q+:.: ~.-.m m V @.l : ~.@.Z.  | j & 6 , Z R+i S+N T+U+^.^.^.V+V+m+m+W+O+O+V+V+W+W+m+m+z+y+y+z+y+F+y+F+y+z+F+m+: d.X+Y+]+Q.,+Z+U.  ",
"O.`+_+: ( / ( |.|.:   r.U.1.1.k & J 9 % Z % !+1 &.j+l.l v v g W+m+m+m+m+m+m+m+W+m+z+z+y+F+F+y+y+y+F+F+F+z+F+y+m+/ W 4.! O.O.A r 1   ",
"3+H.t+L.@.~.|.^.^.* h j 6 6 j M., $ %+$ z i *.r.u 2.L m+m+m+m+m+U+,+7.r w m+m+W+m+m+m+m+m+z+y+y+y+y+F+y+y+F+m+z+m+1+A+a  @ @ @.@U+  ",
"k m.M+2.E n f g   _ & 8 J J J $+% Z @ % A.1 r.1.f U F E m+m++@[ [ m+m+m+m+m+m+m+W+m+m+m+m+m+z+y+y+y+y+y+y+y+z+F+m+U D D }.}./.@@n.v ",
"  [ t T '.E e f ( r.^ 7.w.X !+i w w w #@#+$@Z.: 3 -.c+).w+'.L m+m+m+m+m+m+W+r.; W+m+m+W+m+W+m+m+m+y+y+F+F+y+F+y+m+K e s.).#.n V @.u ",
"  3 n ).T T E n ~./ L.%@&.N+= = = 1 . X.&.e L.E+  ].%.U /+).E L L /+/+L e [ 1 w m+m+m+m+m+m+m+m+m+y+F+O+W+W+y+z+m+( / @.U n f f e s.",
"  < @.n E T './+e -.U F n u < 1.= T.> T..@&@3.g+j >+.+*@..l.e e e e l.>.&@.+M.m+m+y+z+m+m+=@m+m+y+F+W+O+-@-@W+m+^.^.  3 -.u ( < @.e ",
"r.  E+$@n ).T F 2.L E F E t f r.j , z J O.P.A 8 {.8 O.;@Q.d.< < / m+m+m+m+O.m++@y+z+z+m+=@>@=@m+m+m+W+O+O+-@m+1.1.    1.|.E+  1.|./ ",
"> >+>+H 9+K $.$.v+v+$.$.n l.F.=.7 ) I.$ ,@'@)@)@)@)@!@Q b+_ ^.^.m+m+m+m+m++@m+W+m+z+m+m+=@>@>@>@>@O+m+m+W+W+m+f f j.o.>+>+>+*.| 4 ^.",
"8 x x A.{+/ l / / / / / < ].H.8 Z $ # ~@)@{@[.[.[.[.[.m+m+m+m+m+m+m++@+@+@+@+@m++@m+m+m+>@>@>@>@=@-@m+>@m+m+s.L t ]@y.{.{.{.8 M.1   ",
"6.^@6.v.t+n.} =.*.*.*.*.*.B.7 @ I.y ,@6.&@M+m+m+m+m+m+m+m+m+m+m+m++@+@+@+@V+V+O+O+m+m+m+>@>@=@=@/@/@(@>@m+'.T E D+_@f+^@^@^@6.Y+F.f ",
":@:@:@[.D (.J+, {.{.{.{.x J % @ ' i+7.>.L.m+/@/@>@m+m+m+m+m+m+<@<@+@m+m+W+W+V+V+O+O++@+@m+>@>@>@=@/@-@>@m+'.).[@f ;.}@:@:@:@:@[.D U ",
"n n n t t i.u++ 7 7 7 7 7 7 7 7 , X |@m m+m+m+>@>@>@m+m+m+<@<@m+m+m++@W+W+W+V+V+O+O++@+@m+m+m+=@=@/@>@m+e t e !.|.[ K t n n n n n n ",
"[ [ [ [ [ / N+; | ; ; ; ; ; ; ; ; 1 U./ m+/@=@>@>@>@m+m+m+m+m++@+@+@+@+@+@V+W+V+V+O+m++@m+:@m+m+m+m+m+|.l [ 3 ( 1.: l [ [ [ [ [ [ [ ",
"      * . h h h h ; _                   _ m+m+>@=@m++@+@+@+@+@W+W+V+V+V+V+W+W+V+V+m+m+m+T '.F K ~.[ [ |.1.|.3 / 1.                  ",
"      = 4+, , , , i h                 * 1@+ m+m+m+m+m+V+W+W+W+V+V+V+V+W+W+W+W+m+m+m+m+t T '.T 2.t t n f |.~.K @.:                   ",
"  g < j.p 2@{ ~ A + Y.r.( 3 [ n.U.1 ; h w m+m+m+=@>@m+m+V++@+@+@+@+@+@m+m+m+m+m+W+W+m+@.t c+U E T T F e f @.e V ~.3 3 3 3 [ [ < :   ",
"  / -.e }@(+(+R T+; = E+%.e t M+|@x., , m+-@-@/@=@=@>@m+m+V+V++@+@+@+@m+<@m+m++@W+m+1./ [ [ f n ).'.T E t -.f @.e n n n n n n -.<   ",
"  < m U /+/+L V.%.3 l a.m c+F e+&@3@{.8 m+m+>@>@/@=@>@m+m+V+m+m+m+m+>@<@<@<@<@W+m+- . _     : %.t U U U t m ~.@.n 2.).T T 4@c.g.5@. ",
"  : 3 G s.E K u V n n e G @.t 2.6@W *.o.m+=@-@/@/@=@m+m+m+V++@m+>@>@>@>@z+<@+@m+7 7 w h *     / 9.~.~.~.f -.K m %.K E w+T [.A+5.o++ ",
"  v ( f e n @.9.i.d [.}@t+5@1+(.1+X.7@  ~.m+>@=@=@+@m+m+m++@W+W+W+>@z+>@W+O+m+P P P 5.0+|.:             : f e V ~.@.n U [.|+8@$ $ $ ",
"  < @.0.@.u V @@C+9@)@6.m+m+m+m+y.w *.5 < ~.m+m++@m+m+m++@+@+@+@W+V+V+V+O+m+m+m+6+0@..f.m [ 1.^.^.^.^.^.  ( f -.K V !.t+v.~ a@' ' # ",
"= j.m M+F.2 6@>.6.}+$ m+>@z+z+>@m+m+m+m+m+m+m+m+>@>@>@>@m+m+m+m++@+@+@+@m+m+<@<@m+m+m+T E -.l / / / / :   _ _ P+M 6@:.j J b@$ ) R+J ",
"i H._.F.g+`+m+m+m+m+m+m+m+y+z+z+y+y+y+z+m+m+<@>@>@>@>@>@>@>@>@>@m+m+m+m+<@z+z+z+z+<@<@m+m+U e K e e 0.~.1.Y.w y.Q z.X {.@ I.# J M.> ",
"y , > h Y m+W+W++@m++@=@m+z+z+y+y+y+y+y+y+m+<@>@>@>@>@>@z+z+>@>@<@<@<@m+<@<@<@<@<@<@<@<@m+m+F E L E E K n.` p.P.P.=+G+$+z z z i ; 5 ",
"' Z q q m++@W+m+W+m+W+/@m+z+y+z+z+z+z+z+z+z+z+z+z+z+z+z+>@>@<@<@<@m+>@>@>@>@>@>@>@>@>@>@<@m+m+t V t F L e W.c@d@e@3.E.j j j B.h 4   ",
"R+N.O.! m+W++@m++@m++@m+m+>@z+>@>@>@z+z+z+z+z+z+z+z+>@<@<@<@<@<@m+m+<@<@<@<@z+z+z+z+z+z+z+>@m+m+m+!.U 2.L U U U t i.].r.E+E+E+E+|.|.",
"j E.3.|+m+W+m+m+m++@m+m+m+<@>@>@>@>@>@z+z+z+z+>@>@<@<@<@<@m+m+m+m+<@<@<@<@>@>@>@>@<@z+z+z+z+z+>@>@m+m+@.@.@.@.G @.Z.: < @.K K 0.0.0.",
"E+k+l.m+W+m++@+@m+m+m+m+m+m+m+m+m+>@>@>@z+z+z+z+z+z+<@<@m+m+m+m+m+m+m+m+m+m+m+<@<@<@<@z+z+z+z+z+z+z+>@m+m+g g g g : |.f n E E E L L ",
"K V t.m+W+m++@W+W+m+%./ V L -.: m+m+m+m+>@z+z+z+<@<@<@m+m+@.G G f |.|.f f@< _ m+m+m+<@>@z+z+z+z+z+z+z+z+>@m+^.g@  l m+m+V n F E e G ",
"}.l.[ m+m+>@+@W+m+U f / -.t %.r._ = 6 m+m+m+m+m+m+m+m+N+: : : : 1.r._ r.r.h@; !+Z m+m+>@>@>@z+z+z+z+>@m+m+m+m+m+m+m+m+/@m+&.j+j+[ : ",
"i@Z+:.m+m+=@m+m+m+@.l : a.!.@+]+4+M., y I.$ z X s+I+|@r.^.^.^.^.= >+j@j@M.M.i z # I.m+m+>@>@>@z+>@>@m+=@m+W+m+V++@W+=@m+m+k@N |@:.  ",
"O.`+_+m+m+W+m+=@m+U.r.* r.} & z Z Z ) $ $ % w 1 9.c.l.3 : : g   1 A.<+J J $+z % Z Z {.m+m+m+>@>@>@m+=@+@W++@V++@W+W+m+m+O.O.A r 1   ",
"w E.P+G m+m+m+m+j@l@4+4+4+w m@5+%+I.I.$ J w Y.r.u 2.2.K -.G f : :.3.v.k@M.w w j@j@w ]+C.@.m+m+>@m+m++@W++@V++@W+m+m+m+n@n@n@n@3.:.  ",
"_ ].m L 2.f.J+8 J <+<+<+<+<+N.i+a@}+}+% A.1 r.1.f U E L L L K [ [ l.@@k._ _ U+U+U+N+].m t -.l m+m+m+m++@W++@+@+@m+m+}.D D }.D @@/   ",
"  ( %.K K +.&+r Q  @I+ @ @ @I+I+I+a S+& {+9.[ : < @.K K K K V -.-.V @.< |.~.@.G @.@.V s.F t @.< v C.m+W++@+@m+m+o@V V V V K K u (   ",
"  1.: |.( E+r.R.n+/.D /././.}.}.b./.+.j.;.n V / : |.|.E+E+E+9.j+K $@: 1.< V s.L L L L E /+E D+f U+]+m+m+m+m+m+H+j.< < < < / ( : 1.  ",
"    ^.^.^.^.^.: f K K K K n 2.T w+T t V n F s.-.[ g = *.j B.q.X+ .R.^.^.|.!.K K K K K K l.p@e@^ ]+, $ m+m+m+)@q@;.%.!.%.!.[ g ^.^.  ",
"5     1.1.1.1.g ( < < / ( n.m E T ).E L E F E U -.E+*.7 z z G+A w.:+1.v : ( / / ( |.|.|.R.Q.A G+z 9 ) $ i+9@r@U e+L L L s.V l 1.1.1.",
"> W F.!.%.!.!.!.!.f f [ } o._.m e K e e e e $.K &.` !+Z %+I.s@t@7+1+!.%.!.f [ : * | >+B.4+{.5+d+$ $+I w.v.K.l.s.T ,.T E n V @.f f f ",
"J u@..U L s.s.U U s.L j+v@x.g+].< / / / / ( / ].` Y % ) $ ) 2@c@/.U U s.s.L n ~._ & 8 J J % ) b@% w 1 1+f.i.9.-.2.T ).n f f n L L L ",
"+ Q.<.e n e e e e n E q+w@N 8.[ <   . *.>+>+*.>+!+9 9 , 4.x@y@W.v+n e e t E E K &.3.)@!@)@)@)@)@7.0+1.~.K V %.@.K e e %.( ~.s.w+w+'.",
". _ E+< l < < < < ~.$.E z@c.D t u U.>+7 J x x {.% Z 7 =._.W.@@9.< < < < f t F E S A@[.[.[.[.[.[.f.B@E+: l @.n V [ < < : 1.9.t T T T ",
"                ^.: !.e n t E E V v *.X 4.] 2@I 7 + j _ 3 V -./         ( @.n n n n n n n n n n $.f g ^.1.~.V %.:     4 ; ^ C@b b b ",
"                  1.|.l l ~.e L -.E+h.= t+p@<.} ; . k r.: < / v         1.( l l l l l l l l l 3 l |.      : < ( 1.    | i S.P ~ ~ ~ ",
"                          : !.K f g ^.v ~.K @.|.                        * . h h h h h h h h h h | = r.                ; w , , 7 7 7 ",
"                            |.l |.1.    |.l / v                         = M., {.x x x x x x x {.7 > *                 _ . ; | | | | ",
"                                                                        . Y @ # $ $ $ $ $ $ $ # 9 6 _                               "};
