/* XPM */
static char * p_mov_right_0_xpm[] = {
"66 66 347 2",
"  	c #AA834B",
". 	c #A88047",
"+ 	c #A37A3D",
"@ 	c #9F7535",
"# 	c #9F7533",
"$ 	c #9F7534",
"% 	c #A07737",
"& 	c #A57D41",
"* 	c #A9824A",
"= 	c #AC864C",
"- 	c #A98249",
"; 	c #A78046",
"> 	c #A88148",
", 	c #AB854C",
"' 	c #AC874D",
") 	c #AD894D",
"! 	c #AC874C",
"~ 	c #A98348",
"{ 	c #A77F46",
"] 	c #A88147",
"^ 	c #AB854A",
"/ 	c #AD884D",
"( 	c #A98149",
"_ 	c #AA824A",
": 	c #A88046",
"< 	c #A67E43",
"[ 	c #A2793B",
"} 	c #9F7433",
"| 	c #A07635",
"1 	c #A27B3A",
"2 	c #A47E3D",
"3 	c #A57F3D",
"4 	c #A6803F",
"5 	c #A98446",
"6 	c #AE8B4E",
"7 	c #AB844C",
"8 	c #A77F45",
"9 	c #A37B3E",
"0 	c #A2793C",
"a 	c #A57D42",
"b 	c #A98148",
"c 	c #AC884D",
"d 	c #B08F4F",
"e 	c #B29251",
"f 	c #AF8D4D",
"g 	c #A78243",
"h 	c #A2783B",
"i 	c #A57E40",
"j 	c #AC894A",
"k 	c #B19150",
"l 	c #B29351",
"m 	c #AF8C4F",
"n 	c #AB844B",
"o 	c #A47B3F",
"p 	c #A57C41",
"q 	c #A2793A",
"r 	c #A07637",
"s 	c #A17938",
"t 	c #A98543",
"u 	c #AE8E4A",
"v 	c #AF8F4C",
"w 	c #B1914E",
"x 	c #AF8E4F",
"y 	c #A88246",
"z 	c #A37B3D",
"A 	c #A17839",
"B 	c #B19050",
"C 	c #B39552",
"D 	c #B49753",
"E 	c #B08F4D",
"F 	c #A98544",
"G 	c #A57E3D",
"H 	c #A47D3C",
"I 	c #A78241",
"J 	c #AD8C4A",
"K 	c #B29451",
"L 	c #B59853",
"M 	c #B49652",
"N 	c #B39451",
"O 	c #B08F50",
"P 	c #A88146",
"Q 	c #A47B3E",
"R 	c #A2783A",
"S 	c #9F7635",
"T 	c #A17738",
"U 	c #A37B3B",
"V 	c #A68140",
"W 	c #AD8B49",
"X 	c #B29350",
"Y 	c #AD8A4C",
"Z 	c #A67E44",
"` 	c #A67F44",
" .	c #B08E4F",
"..	c #AE8B4D",
"+.	c #AE8D4B",
"@.	c #AE8E4B",
"#.	c #AE8C4D",
"$.	c #AF8D4F",
"%.	c #B69953",
"&.	c #B59953",
"*.	c #B59753",
"=.	c #AE8C4E",
"-.	c #AE8A4E",
";.	c #A37A3C",
">.	c #A07636",
",.	c #A88145",
"'.	c #AC8949",
").	c #B49653",
"!.	c #B19151",
"~.	c #AF8C4E",
"{.	c #AA824B",
"].	c #B2934F",
"^.	c #AF8F4D",
"/.	c #AB874A",
"(.	c #AA8449",
"_.	c #AD8B4B",
":.	c #B1924E",
"<.	c #B29450",
"[.	c #AB864C",
"}.	c #AA844B",
"|.	c #A1783A",
"1.	c #AB864B",
"2.	c #B49552",
"3.	c #AA8646",
"4.	c #A47D3E",
"5.	c #A57F3F",
"6.	c #A78240",
"7.	c #A88342",
"8.	c #AB8748",
"9.	c #AD8A4D",
"0.	c #B39450",
"a.	c #B1924F",
"b.	c #AA8549",
"c.	c #AD894B",
"d.	c #B0904E",
"e.	c #AE8C4C",
"f.	c #A88149",
"g.	c #AD8A4E",
"h.	c #AF8E4E",
"i.	c #AB864A",
"j.	c #AC874B",
"k.	c #B0904F",
"l.	c #AB874B",
"m.	c #AC884C",
"n.	c #A78045",
"o.	c #A47D3D",
"p.	c #A78144",
"q.	c #AA834A",
"r.	c #B39452",
"s.	c #B09050",
"t.	c #AB8849",
"u.	c #A88443",
"v.	c #A57F40",
"w.	c #A47C3E",
"x.	c #A57E3F",
"y.	c #A68040",
"z.	c #A47C3F",
"A.	c #A57D43",
"B.	c #AB8649",
"C.	c #A67F42",
"D.	c #A78043",
"E.	c #AC884B",
"F.	c #AC874A",
"G.	c #A67F43",
"H.	c #9E7433",
"I.	c #A3793D",
"J.	c #AC8A49",
"K.	c #B08E50",
"L.	c #A47C40",
"M.	c #A17838",
"N.	c #A27A3A",
"O.	c #A37C3B",
"P.	c #A68042",
"Q.	c #AA854A",
"R.	c #A27A3B",
"S.	c #A77F44",
"T.	c #AA844A",
"U.	c #AF8D4E",
"V.	c #B19250",
"W.	c #AF8E4D",
"X.	c #A98248",
"Y.	c #A17739",
"Z.	c #9E7432",
"`.	c #A88345",
" +	c #AC8947",
".+	c #A37B3A",
"++	c #AB8749",
"@+	c #A67E41",
"#+	c #A67D43",
"$+	c #A98545",
"%+	c #A78242",
"&+	c #A57D3F",
"*+	c #A37A3E",
"=+	c #A67E45",
"-+	c #AD894E",
";+	c #AC894C",
">+	c #A88144",
",+	c #A88245",
"'+	c #A57E41",
")+	c #AA8548",
"!+	c #A98447",
"~+	c #B49752",
"{+	c #AF8F4B",
"]+	c #A88247",
"^+	c #A98247",
"/+	c #A27939",
"(+	c #B39652",
"_+	c #A07736",
":+	c #A27A39",
"<+	c #A98347",
"[+	c #A67E42",
"}+	c #A27A3C",
"|+	c #AE8D4A",
"1+	c #AA8645",
"2+	c #A68043",
"3+	c #AE8B4C",
"4+	c #A98346",
"5+	c #AB8846",
"6+	c #A88244",
"7+	c #B39351",
"8+	c #9E7332",
"9+	c #AC8A47",
"0+	c #AD8A4B",
"a+	c #A57E3E",
"b+	c #A37B3F",
"c+	c #A47C41",
"d+	c #9F7434",
"e+	c #A17837",
"f+	c #B1914F",
"g+	c #AD894C",
"h+	c #AD884C",
"i+	c #B39551",
"j+	c #AE8D4D",
"k+	c #A37C3D",
"l+	c #A27938",
"m+	c #A88543",
"n+	c #A78044",
"o+	c #A57E42",
"p+	c #A88344",
"q+	c #B29151",
"r+	c #B69954",
"s+	c #AA834C",
"t+	c #A98645",
"u+	c #AA8448",
"v+	c #080808",
"w+	c #AA8745",
"x+	c #AB8946",
"y+	c #AB8947",
"z+	c #B39651",
"A+	c #AA8746",
"B+	c #A78042",
"C+	c #AC884A",
"D+	c #AB854B",
"E+	c #A37B3C",
"F+	c #B29250",
"G+	c #A78143",
"H+	c #A98644",
"I+	c #A88343",
"J+	c #AD8B4C",
"K+	c #AA8649",
"L+	c #CE3900",
"M+	c #AD8B4A",
"N+	c #EF7B00",
"O+	c #A98349",
"P+	c #A9834A",
"Q+	c #6B7B7B",
"R+	c #EFEF00",
"S+	c #B1904F",
"T+	c #A07738",
"U+	c #A68041",
"V+	c #AA8547",
"W+	c #AA8349",
"X+	c #292929",
"Y+	c #4A4A4A",
"Z+	c #AB8747",
"`+	c #A57C40",
" @	c #AE8A4D",
".@	c #AE8B4F",
"+@	c #AC864D",
"@@	c #B0914E",
"#@	c #A98546",
"$@	c #AC8948",
"%@	c #AB8948",
"&@	c #A78341",
"*@	c #A88442",
"=@	c #A88341",
"-@	c #AB8848",
";@	c #A37C3C",
">@	c #B1934F",
",@	c #A27B39",
"'@	c #A6813F",
")@	c #A78340",
"!@	c #DEAD7B",
"~@	c #8C1800",
"{@	c #181818",
"]@	c #BD6B39",
"^@	c #EFDEBD",
"/@	c #A07837",
"(@	c #AF8E4B",
"_@	c #0018EF",
":@	c #B0914D",
"<@	c #AA8647",
"[@	c #A6803E",
"}@	c #A5803E",
"|@	c #A67F45",
"1@	c #A57F3E",
"2@	c #9F7634",
"3@	c #AC8B48",
"4@	c #B0904D",
"5@	c #A47C3D",
"6@	c #6B0000",
"7@	c #B49651",
"8@	c #AE8D4C",
"9@	c #A88048",
"0@	c #A37D3B",
"a@	c #AD8C49",
"b@	c #A07836",
"c@	c #B08F4E",
"d@	c #A57D3E",
"e@	c #AC894B",
"f@	c #AD8B48",
"g@	c #AF8E4C",
"h@	c #A47D3F",
"i@	c #AC8A48",
"j@	c #B59752",
"k@	c #AB8847",
"l@	c #A78142",
"m@	c #A67F41",
"n@	c #AA8845",
"o@	c #AA8747",
"p@	c #AA8744",
"q@	c #A47B40",
"r@	c #A47B41",
"s@	c #A1773A",
"t@	c #AB8A47",
"u@	c #B08E4E",
"v@	c #A98643",
"w@	c #A17939",
"x@	c #B0904C",
"y@	c #A67F40",
"z@	c #A78140",
"A@	c #AA8846",
"B@	c #AE8D49",
"C@	c #B2924F",
"D@	c #AD8B4D",
"E@	c #B39550",
"F@	c #AC8B49",
"                                                                                                              . + @ # $ $ $ # % & * ",
"=           - . ; ; > *     , ' ) ) ) ) ! ~ ; { ] ^ / ) / / / / / ) ) ) / =   ( . > _                 * > : ; < [ $ } | 1 2 3 4 5 ! ",
"6 7       _ 8 9 [ 0 a b     c d e e e e f g 0 h i j k l e e e e e e e l k m n 8 o a (                 > p 0 0 q r $ } s t u v v w k ",
"x ) c / / ! y z A [ p >     / B C D D C E F G H I J K D L L L L L M N N l O ) P Q p b               . < R $ $ S T q U V W X M D M l ",
"x k e e e k Y y Z ` . *     , )  .C C d ..+.@.u +.#.$.l L %.&.&.*.e =.-.6  .B Y y . *               ;.R >.# } % o ,.'.+.#.$.l ).!.~.",
"B M M C M M B = {.  n = = n 7 ! 6 k k =.6 B X ].^./.(._.w :.:.<.l ~., , / x e $., {.  , ! [.}.n = ' |.|.A A A + 8 1. .k $.-.d e x -.",
"2.*.l  .e M k '   }.) d $.' ' x O $.$.O B x Y 3.I 4.Q 5.6.6.7.8.) ' , 9.O d =.c 7     /  .$.= '  .k Z Z Z Z Z 8 ( 7 / =.O B $.=.x k ",
"0.a._.b.c.d.e.(.f.  g.k h.i.j.k.d l.i.d B m.n.;.>.$ | T q U o.p.q.  7 =.k $.[.      }.9.k B -.6 k r.. > -   , [.n }.[.) s.e $.g. .l ",
"t.u.v.w.x.I y.z.A.( = 9.B.C.D.E.F.G.C./.E.p.0 r } H.>.I.G.3.J./.  {.  ' -.c   {.      = -.x B B $.m 9 a > = $. ./ = 6 O  .$.d B K.=.",
"L.M.S | % A N.O.P.Q.' ! y R.0 ` 8 9 + S.8 ;.S $ @ >.[ < T.U.V.$.' = = ! ' ' = }.- -     n ) d.W.i.X.@ [ 8 ! O B m.^ U.k Y ^ U.k #.~ ",
"Y.$ Z.$ |.& `. ++.d B d 8..+>.h o p p o 0 r H.H.>.+ Z > n / m d B B B B B B d ++@+#+(     (.$+%+&+*+H.|.=+, -+;+>+C.B.Y ,+'+)+Y !+o ",
"$ $ S Y.L.X.9.V.C ~+L ~+{+V s A z.]+^+z.A /+/+M.[ Z *     , /  .N M ~+M C M (+J 4 '+X.  ( < [ _+| | :+4.<+= ' (.w.q [+: L.}+[+P L.% ",
"Z.@ [ & ; q.' m e D %.L <.|+1+2+y 3+..4+D.1+5+6+` >     , -.O  . .l D 7+O e ~+].J t.T.. p h @ 8+Z.H.9+J W.O O 0+a+>.|.b+c+p L.*+Y.d+",
"e+A p >     7 ! $.N D L L M f+g+) B k 9.h+d f+g+q._   * T.#.f+=.! x l  .c ~.N i+].j+T.` k+:+:+l+l+l+N i+M D *.:.m+:+T }+n+X.o+q M.s ",
"p+< ; q.  7 / $.K. .q+M &.r+).e O  . .O O O m ' 7 s+* 8 '+%+t+u+  c 6 / 7 ' =._.v+%+i P.w+x+v+x+y+y+x B M &.&.z+{+A+B+D.C+#.)+C.p+A+",
"#.T.*   * q.Y f+h.j.9.l M M M C k ) ) B k -.D+q.- - . o T e+E+n+}.= = , }.7 }.n.v+v+1 u.^.v+v+i+N v+! 6 e M L L ~+X ..!  .F+=.j.U.f+",
"-+, s+  . [+G+H+I+'+y J+ . . . .6 = = 6 m ' - =+p p o A | |.& K+U. .$.) }.{.* { v+L+v+M+v+v+N+v+v+v+v+ . .B C L r+*.l O  . .d O O  .",
"  * * ( a |.e+/+:+N.'+O+, , , , n q.P+q.T.q.: 9 % >.>.>.A a v+v+v+v+Q+Q+! 7 ,   v+L+v+v+L+R+N+v+v+R+v+S+9.) k M D M M l 6 /  .e $.= ",
"{ a & p [ >.T+9 U+F V+W+{.{.{.{.> Z p c+p p Q T X+X+X+X+v+v+v+v+v+v+v+X+Y+$.$.v+v+L+L+L+N+R+N+L+R+N+v+Z+(., -. .d d O $.c , -.$.-+  ",
"& A r % >.% *+] Y f+k.c n n 7   . z./+A A A T r >.X+X+X+X+X+v+X+D *.L v+v+X+X+v+v+L+L+N+R+N+N+R+R+v+v+v+v+, = ! = [.[.,   q.T.}.}.b ",
"[ $ Z.$ T 9 Z q.m 2.C O $.$.g., W+$+7.i o o o o L.o C./.$.O B v+Q+Q+Q+Q+v+X+X+v+v+L+N+N+R+N+R+R+N+N+R+N+v+v+$.-.[.{.{.* 8 a p p a L.",
"% >.@ % z.] q.}.6 N D M M 2.k ) ) k.d.E.- ( b > > . (.f k ~.Y+v+v+v+v+v+v+v+v+v+v+L+R+R+N+N+R+N+N+R+R+N+N+v+v+e 6 7   - & q A A A Y.",
"o o o `+!+ @-+, /  .7+*.r+&.C s.B M ).!..@+@q.; < A.D.3.Y+v+v+v+< B.x v+v+v+v+v+N+N+L+N+N+N+N+N+R+N+N+N+v+v+&.M k 6 = q.5 7.v.Q *+9 ",
"> ] . X.Y k U.D+  1.~.N ~+*.M C C ~+~+C k ) ] o A T v+v+v+v+q A ;.n+1.' = = v+L+X+X+v+N+L+N+N+N+N+N+R+N+N+N+v+v+M e -.! U.@@Y O+> > ",
"> S.< S.#@$@3.n+a #+,+%@+.k.k k k k k.@.$@,+L.Y.| A 9 y.&@*@=@&@u.-@9.'   v+v+v+X+X+v+v+v+N+R+N+R+R+N+L+v+v+v+L &.~+k  .N D e m ' }.",
"a [ T A N.O.U q |.q N.;@P.b.' ' ! ! u+v+v+v+v+v+v+v+v+v+w ].>@>@].0.l $.[.v+N+v+v+v+v+N+R+R+X+X+X+X+N+v+v+ @e *.L D 2.C M D M l 6 q.",
"0 | H.$ ,@'@&@&@&@&@)@I 6+- {.{.( { v+!@~@~@v+{@{@{@{@{@v+v+v+v+v+v+L e {@L+v+v+]@v+v+v+N+X+X+Q+^@^@X+L+v+v+3+B !.!.q+q+!.!.e k.E.` ",
">.$ # /@&@(@:.:.:.:.:.:.f !     . o v+~@~@~@v+{@v+v+{@{@{@{@{@{@v+v+v+v+v+v+v+N+]@v+N+N+v+v+v+Q+Q+^@Q+v+v+v+v+! c ! ! ! ! ! ' 1.G.q ",
"H.S ,@6.$@S+2.*.M 7+r.*.r.x 6 -.B.v+!@]@~@v+v+v+v+{@v+{@{@v+v+v+{@{@v+v+L+v+v+N+v+]@]@v+~@Q+v+v+X+Q+X+v+6.u.C+m.~ ` Z Z Z Z Z A.0 @ ",
"} e+7.@.U. @O C e 6  .C D C N 7+d i.v+v+v+]@~@v+v+v+v+v+v+v+{@{@Y+Q+Y+v+{@v+v+v+~@~@~@!@!@^@_@~@v+v+v+:@:@:.X ^.I+[ |.|.|.|.R A % @ ",
"[ Q <@d m = g.B $.= / s.l l l e O c * . v+v+v+|._+O.[@v+v+X+X+X+X+Y+Q+Q+{@{@v+v+~@~@]@~@]@^@_@]@~@v+e e e l l h.p++ 0 0 0 0 0 0 0 0 ",
"; ] T.! = }., ' = }., ' ) ) ) ) ' , > L.[ R A >.v+v+v+{@{@{@X+X+X+Y+Y+Q+X+{@X+v+v+~@~@~@!@!@^@]@v+v+) ) ) ) ) ! O+; { ; ; ; ; ; ; ; ",
"        - : { { { 8 8 8 8 8 8 8 { 8 S.y.}@v+v+v+{@X+X+X+{@{@X+X+X+Y+Y+v+X+{@v+v+v+v+v+]@]@!@!@v+v+        * . 8 8 8 8 ; -           ",
"      * |@+ [ [ [ [ [ [ [ [ [ [ h [ v.v+v+v+{@X+X+X+X+X+X+{@X+X+X+Y+v+v+X+X+{@v+v+v+{@v+v+v+v+v+          > c+[ [ [ [ 9 8           ",
"T.] ; 8 o >.} $ s H 3 3 3 3 o.v+v+v+v+{@X+X+{@X+X+X+X+{@{@X+X+X+v+v+v+X+X+X+{@{@v+v+v+/ / ) ) ' ,     7 ' i.g 1@3 2 U + =+q.= / ) m.",
"<@w.[ [ T $ H.2@1@3@v {+{+v+v+v+]@]@v+Y+X+X+{@X+X+X+{@{@{@X+v+v+v+v+v+v+{@X+{@X+X+v+e e e e e  .'     !  .k 4@{+{+J V+; > D+~.k l S+",
"$@5@|.q U H H 3 w+d.N N v+^@!@!@]@]@~@v+Y+X+X+X+X+{@X+v+v+v+6@~@6@6@6@6@v+v+v+Q+v+2.*.L L 7@a.e.u+.   ' d N ~+~+C V.~./ c g.d 7+D i+",
"8@P Z n.<@J (@@.8@6 6 6 v+v+~@~@!@]@~@v+Y+X+{@X+{@{@v+{@v+6@6@~@~@6@6@6@6@v+Q+v+v+B M r+L :.w+5.k++   , / x r.M B m O e e k x $.l 2.",
"0+X.9@  -.V.N l  .=     v+]@^@^@!@]@v+v+Y+v+v+v+v+v+{@{@v+6@6@6@~@~@~@L+v+!@L+v+-.$.e N :.9+0@$ $ $   n = 6 k e $.9.h.w :.4@C+u+0+^.",
"x.o Z _ ' -.m 6 / 7       v+~@]@!@{@v+Y+v+v+a@|+v+6@v+{@{@v+6@6@6@~@~@v+X+~@v+ .B O =.C+u.2 b@} } #   ' $.s.$.m O c@y+*@&@6.d@z x.V ",
"O.o.p.1.[.}.q.X.> > > > > ] v+v+{@v+| v+v+v ~+v+6@6@6@v+{@{@{@v+v+v+v+X+6@v+- e@E 8@(.a A 2@$ | T+A > i.d S+E.^ 8@@.6._+$ _+:+O.H H ",
"f@a@g@d 6 }.8 o + + + + + + h >.H.} ,@H+{+i+L v+6@6@6@6@v+{@{@{@{@{@v+v+v+v+v+{@{@{@Q |.@ H.# A L.< 9 G./.E.n+h@V V ,@$ 8+_+6.i@a@W ",
"~+~+*.M B m.n.;./+.+O.O.O.U N.A M.:+6.+.i+D v+6@6@~@~@~@6@v+v+v+v+v+6@~@~@L+L+L+L+L+v+Y.T T T 9 ; _ S [ < 8 ;.>.| | $ S e+3 a@i+j@~+",
"r+r+r+L 2.B C+n.6+y+3@3@3@3@A+p.p.k@M+#.O C v+6@~@L+~@~@6@6@6@v+~@6@6@~@L+L+L+L+L+L+L+v+a a A.8 (   } >.h h r H.8+8+8+e+6.a@].L r+r+",
"2.M M 2.2.N  .m...V.i+M ~+M V.9.9.S+k 6 6 k v+6@L+N+L+~@~@6@6@v+6@~@~@L+L+L+L+L+L+N+L+L+{@D+D+D+[.[.T+M.N.1 :+:+:+:+:+G i@X ~+*.D M ",
"m $.$.$.$.$.O B O K.e D r+r+).e O  . .d d v+6@~@L+N+N+L+~@6@v+6@6@6@~@~@~@L+L+L+L+N+N+N+{@B B s.s.s.a D.3.9+9+9+9+9+9+J.e.d r.M e x ",
"n n }.q.O+T.Y f+f l.9.e M M M C B ) ) B k v+6@L+N+N+N+N+~@v+v+v+v+6@~@6@L+~@L+L+L+L+N+N+v+M M M C C D+g+k.N z+7@7@7@M K =./ B C  .= ",
"{._ { p o L.l@F %+& ,.Y x $.x x 6 [.[.v+v+v+~@L+N+N+N+L+6@v+6@~@v+v+v+v+v+L+~@~@L+L+L+v+O e D M k x B O K.k M r+r+r+r+M ~.! O C  ., ",
"- > p Y.>.>.T /+/+N.'+O+, , , , }.q.v+v+6@v+L+L+N+N+L+~@v+6@6@~@~@6@6@L+v+6@L+L+L+L+v+h.j.Y f+f+) , <.k.) ) k M ~+M ~+N 6 !  .l ~.q.",
"c+L.[ S H.$ T Q B+H+<@q.{.{.{.{.> v+6@~@~@L+L+L+L+~@~@6@v+v+v+v+v+v+v+6@L+~@6@v+v+v+3.I+'+m@F <@(.  n@o@(., -.$. . .K.$.c , g.=.)+[+",
">.>.| $ $ % o ] 9.a.k./ , , 7   ] v+6@6@6@6@~@L+L+~@v+v+^ x N M ~+*.L v+v+v+v+s.! P 4.1 N.N.U i ]   N.h@]+, = = D+T.T.T.q.* q.~ & T ",
"Z.H.H.$ A o =+q.m 2.2.B  .x 6 , (.v+6@6@6@6@6@6@6@v+[+B.$.O d  .s.N L r+r+r+L C d _.5+p@p@p@p@3.(.  o D.e@x  .Y y p q@r@c+c+c+o s@d+",
"b@_+_+% z.] q.}.6 N M C C C B ) ) v+v+6@6@6@6@6@~@v+1.d l  .c , !  .i+M 7@7@7@M C N <.X X <.X c@!   - 1.d C 2.d.I+q A /+/+/+/+/+M.e+",
"H+t U+& <+9.) , ' $.B B B B O  .v+X+~@v+6@6@~@~@v+$.O r.D l $.' n B.$@9+9+t@9+J u@O O O O B B m =     = ~.B B #.`.i I v@H+v@v@v@H+H+",
"0.].#.i...e O ! , [.[.D+D+D+9.v+v+X+]@~@v+v+v+v+C C C M ~+M F+6 W+[+U :+:+,@;@G+i.' ' ' ' ! = , }.    }., [.= D+q.Q.j+].X ].].].<.<.",
"r+L l O e D r. .) 7 > Z a A.v+v+X+v+v+]@v+v+B B B B B B k.g@i@5 [+[ $ 8+$ .+&@-@..~.=.~.=.) 7 {.{.      {.{.{.{.{., 6 B B B B e 2.L ",
"L *.M C M D M N  .D+Z 0 T T v+v+X+v+v+v+v+= ! ! = [.[.[.Q.P.U w@T r | $ e+*@x@N i+C C C r.O c }.}.}._     }.}.}.}.7 = ' ' ! = m.d M ",
"k B k k k k !.B Y ,.*+>.Z.H.v+v+X+v+v+v+v+6 ) , * { #+A.c+|.d+8+$ Y.z v.u.J.k.r.L %.L M e O $.6 6 6 < P E.=.~.=.=.=.=.6 6 ) ~ n./.d ",
"' ! ! ! ! = ! 1.,.;.% | $ | 1@v+X+X+X+v+v+v+e -.- & q A A % | 2@% o ] 0+d.h.9. .2.L *.e 6 6 e C C C A y@+.N C r.r.N N r.C f+t+w.n+1.",
"'   . Z #+#+Z #+*+r r [ 4.z@A@v+v+Y+Y+X+X+X+v+B Y 3.&@)@&@&@&@&@7.4+}.-.B O ~.$.B k k ~.= -.r.r+r+&.+ P._.k e k k k k e M z+B@F 8.) ",
"m T.#+0 A R R |.% >.0 ` /.W.c@9.v+v+]@!@X+]@v+M K C@:.:.:.:.:.:.d.D@D+, c $.e O ) ' ' , }.9.l L L L . - D+' c ' ' ' ' -.!.M E@a.X l ",
"O n Z Q 4.4 1@z 0 + a - / O  .!   v+v+v+v+v+v+e e e e e e e e e !.6 7 {.}.-.O ~.,     ( ; 5 F@u u u                 {., =.k e l M M ",
" .D+f.> C+g@_.~ ; . b q., ' ! n         }.= c c c c c c c c c / c [.      , ' = }.    { 9 R.H 2 2 2                   }.[.c c -.k C ",
"6 7 {.n -.B $.[.                        * . 8 8 8 8 8 8 8 8 8 8 { > q.                ; o [ [ 0 0 0                           , =.B ",
"[.}.    [.c ! n                         > L.[ |.R R R R R R R |.0 < *                 - . ; { { { {                             [.c ",
"                                        . ;.@ # $ $ $ $ $ $ $ # r p -                                                               "};
