/* XPM */
static char * p_mov_down_right_2_xpm[] = {
"66 66 347 2",
"  	c #A27A3A",
". 	c #A47D3F",
"+ 	c #A88247",
"@ 	c #AB854C",
"# 	c #AC864C",
"$ 	c #AB854B",
"% 	c #AA844A",
"& 	c #AA834A",
"* 	c #A9824A",
"= 	c #A98348",
"- 	c #A57D41",
"; 	c #A17738",
"> 	c #A07636",
", 	c #A07635",
"' 	c #9F7534",
") 	c #A07737",
"! 	c #A47B3F",
"~ 	c #A88147",
"{ 	c #AD8A4D",
"] 	c #B1924F",
"^ 	c #B0904F",
"/ 	c #AD884D",
"( 	c #AB844C",
"_ 	c #AA834B",
": 	c #A47C3F",
"< 	c #A27939",
"[ 	c #A17839",
"} 	c #A17739",
"| 	c #A1783A",
"1 	c #A67E42",
"2 	c #AB854A",
"3 	c #AF8E4F",
"4 	c #B39451",
"5 	c #B49652",
"6 	c #B49752",
"7 	c #B59753",
"8 	c #B59853",
"9 	c #B49552",
"0 	c #B09050",
"a 	c #AC874C",
"b 	c #A88146",
"c 	c #A47D3E",
"d 	c #A27B3A",
"e 	c #A37B3B",
"f 	c #A57E40",
"g 	c #A78043",
"h 	c #AC894B",
"i 	c #B08E4F",
"j 	c #AD8A4C",
"k 	c #A88246",
"l 	c #A57C41",
"m 	c #A47B40",
"n 	c #A47B41",
"o 	c #A47C41",
"p 	c #A1773A",
"q 	c #9F7434",
"r 	c #9E7432",
"s 	c #9E7433",
"t 	c #A67E45",
"u 	c #AF8C4F",
"v 	c #B19050",
"w 	c #AE8B4E",
"x 	c #AA8449",
"y 	c #AA8646",
"z 	c #A88443",
"A 	c #A67F41",
"B 	c #A47C40",
"C 	c #AB8649",
"D 	c #AF8D4F",
"E 	c #B08F50",
"F 	c #B08F4F",
"G 	c #B69954",
"H 	c #B39552",
"I 	c #AD8B4B",
"J 	c #AB8846",
"K 	c #AA8744",
"L 	c #A98249",
"M 	c #AB864B",
"N 	c #B0904E",
"O 	c #A88343",
"P 	c #A2793A",
"Q 	c #A17838",
"R 	c #A17837",
"S 	c #A07836",
"T 	c #A07736",
"U 	c #AA844B",
"V 	c #AD894D",
"W 	c #B08F4E",
"X 	c #AC874B",
"Y 	c #AA8349",
"Z 	c #A98349",
"` 	c #B29351",
" .	c #AC884D",
"..	c #B39551",
"+.	c #B49651",
"@.	c #B29450",
"#.	c #B29350",
"$.	c #AF8C4E",
"%.	c #AE8C4D",
"&.	c #A88345",
"*.	c #A78241",
"=.	c #A98643",
"-.	c #A98644",
";.	c #A98543",
">.	c #A68041",
",.	c #A98347",
"'.	c #AC874D",
").	c #AB864C",
"!.	c #AE8A4E",
"~.	c #B39452",
"{.	c #B49753",
"].	c #AB844B",
"^.	c #AC8948",
"/.	c #AC8A47",
"(.	c #AB8A47",
"_.	c #AD8C4A",
":.	c #B08E4E",
"<.	c #AA854A",
"[.	c #AE8D4D",
"}.	c #B2934F",
"|.	c #B39450",
"1.	c #AB864A",
"2.	c #AE8B4D",
"3.	c #B29251",
"4.	c #B1914F",
"5.	c #AE8A4D",
"6.	c #B29250",
"7.	c #A27A39",
"8.	c #A27B39",
"9.	c #A37C3C",
"0.	c #A78143",
"a.	c #AA824B",
"b.	c #A88148",
"c.	c #A67E44",
"d.	c #A57D42",
"e.	c #A57D43",
"f.	c #A78144",
"g.	c #AB8847",
"h.	c #AC8949",
"i.	c #AE8C4E",
"j.	c #AF8E4C",
"k.	c #AC8A48",
"l.	c #A98446",
"m.	c #A2793B",
"n.	c #9E7332",
"o.	c #A37B3A",
"p.	c #A78341",
"q.	c #AB8848",
"r.	c #AA824A",
"s.	c #AC884C",
"t.	c #A2793C",
"u.	c #A17939",
"v.	c #A57F40",
"w.	c #A98247",
"x.	c #A68042",
"y.	c #A07637",
"z.	c #A88442",
"A.	c #B0904C",
"B.	c #A67E43",
"C.	c #AC884B",
"D.	c #A78045",
"E.	c #AB874A",
"F.	c #B19150",
"G.	c #B19151",
"H.	c #A88145",
"I.	c #A37A3E",
"J.	c #A17937",
"K.	c #A5803E",
"L.	c #AA8645",
"M.	c #AD8A4B",
"N.	c #A77F46",
"O.	c #A67D43",
"P.	c #A37B3D",
"Q.	c #AC8A49",
"R.	c #B69953",
"S.	c #A67F40",
"T.	c #AE8D4B",
"U.	c #A98645",
"V.	c #A47C3E",
"W.	c #A78044",
"X.	c #A37A3C",
"Y.	c #A57F3E",
"Z.	c #AD8C49",
"`.	c #9F7634",
" +	c #AF8E4E",
".+	c #A37A3D",
"++	c #B39651",
"@+	c #AE8D49",
"#+	c #A98544",
"$+	c #AB8748",
"%+	c #A88047",
"&+	c #A78140",
"*+	c #AA8846",
"=+	c #AF8E4D",
"-+	c #B29151",
";+	c #A78340",
">+	c #A88342",
",+	c #A98346",
"'+	c #B59953",
")+	c #B39550",
"!+	c #A2783A",
"~+	c #A67F44",
"{+	c #B29451",
"]+	c #B2924F",
"^+	c #B1924E",
"/+	c #AD8B4D",
"(+	c #A47B3E",
"_+	c #A6803F",
":+	c #A98149",
"<+	c #A78046",
"[+	c #AC8B49",
"}+	c #AE8E4A",
"|+	c #A88149",
"1+	c #AC884A",
"2+	c #A98148",
"3+	c #080808",
"4+	c #A37B3E",
"5+	c #A27A3B",
"6+	c #A47D3C",
"7+	c #A47E3D",
"8+	c #EF7B00",
"9+	c #A77F45",
"0+	c #EFEF00",
"a+	c #9F7533",
"b+	c #9F7535",
"c+	c #A88046",
"d+	c #9F7433",
"e+	c #A57F3D",
"f+	c #A17938",
"g+	c #AF8F4C",
"h+	c #B1914E",
"i+	c #292929",
"j+	c #9F7635",
"k+	c #A68140",
"l+	c #AD8B49",
"m+	c #181818",
"n+	c #CE3900",
"o+	c #B49653",
"p+	c #4A4A4A",
"q+	c #6B7B7B",
"r+	c #EFDEBD",
"s+	c #A78240",
"t+	c #AD8A4E",
"u+	c #AA8549",
"v+	c #AD894B",
"w+	c #AE8C4C",
"x+	c #8C1800",
"y+	c #A47D3D",
"z+	c #B08E50",
"A+	c #AB8849",
"B+	c #A57E3F",
"C+	c #A68040",
"D+	c #BD6B39",
"E+	c #A3793D",
"F+	c #A67F43",
"G+	c #AF8D4E",
"H+	c #0018EF",
"I+	c #B19250",
"J+	c #A98248",
"K+	c #AD894E",
"L+	c #AC894C",
"M+	c #A88144",
"N+	c #A67F42",
"O+	c #A88245",
"P+	c #A57E41",
"Q+	c #AA8548",
"R+	c #A98447",
"S+	c #DEAD7B",
"T+	c #AB8749",
"U+	c #A67E41",
"V+	c #A98545",
"W+	c #A78242",
"X+	c #A57D3F",
"Y+	c #A27A3C",
"Z+	c #B39652",
"`+	c #A57E3E",
" @	c #A37B3F",
".@	c #B39351",
"+@	c #A2783B",
"@@	c #A88543",
"#@	c #A57E42",
"$@	c #A37C3D",
"%@	c #A27938",
"&@	c #AF8F4B",
"*@	c #AA8746",
"=@	c #A78042",
"-@	c #A88344",
";@	c #AA8448",
">@	c #AA8745",
",@	c #AB8946",
"'@	c #AB8947",
")@	c #A37B3C",
"!@	c #AF8F4D",
"~@	c #AA834C",
"{@	c #AA8649",
"]@	c #AD8B4A",
"^@	c #B1904F",
"/@	c #AB8747",
"(@	c #A98444",
"_@	c #AA8747",
":@	c #6B0000",
"<@	c #A98546",
"[@	c #AB874B",
"}@	c #AE8B4F",
"|@	c #AC864D",
"1@	c #B0914E",
"2@	c #A77F44",
"3@	c #A88341",
"4@	c #A98448",
"5@	c #B1934F",
"6@	c #AE8B4C",
"7@	c #B18F50",
"8@	c #B59854",
"9@	c #AD8A4A",
"0@	c #A68240",
"a@	c #A98547",
"b@	c #AA8647",
"c@	c #AD8C4B",
"d@	c #B0914D",
"e@	c #A57F3F",
"f@	c #B19251",
"g@	c #B0904D",
"h@	c #AD894C",
"i@	c #A78243",
"j@	c #A37A3B",
"k@	c #AA8547",
"l@	c #AF8D4D",
"m@	c #AE8D4C",
"n@	c #A88244",
"o@	c #A88048",
"p@	c #A37D3B",
"q@	c #A57D3E",
"r@	c #AE8E4B",
"s@	c #A37C3B",
"t@	c #B08F4D",
"u@	c #A07738",
"v@	c #B59752",
"w@	c #AC8B48",
"x@	c #A57E3D",
"y@	c #A78142",
"z@	c #A57D40",
"A@	c #AE8C4F",
"B@	c #A57C40",
"C@	c #AE8C4B",
"D@	c #A9824B",
"E@	c #A9834A",
"F@	c #AA8845",
"  . + @ # # $ % % % & * & = - ; > > , ' ' ) ! ~ { ] ^ / @ @ ( _ ~ : < [ [ } ; ) > > | 1 2 3 4 5 6 7 8 7 5 6 9 0 a b c d     e f ~ _ ",
"! g h 3 i j k l m n o o o ! p q r s s ' [ ! t & u 9 9 v i 3 w @ x y z A B ! ! m m ! 1 C D E F i 0 4 8 G G G 8 H F I J K K K K y x _ ",
"L M F H 9 N O P [ < < < < < Q R S T T ) : ~ & U w 4 5 H H H v V V ^ W X L L Y Y Y Z M F ` i  .@ a i ..5 +.+.+.5 H 4 @.#.#.@.#.W a _ ",
"_ # $.v v %.&.f *.=.-.=.=.=.-.-.-.;.>.- ,.{ V @ '.D v v v v E i i E D '.).!.D 3 D D E ~.{.` D '.].C ^././.(./._.:.E E E E v v u # _ ",
"_ U @ ).# $ & <.[.}.#.}.}.}.@.@.|.}.%.1.2.3.E a @ ).).$ $ $ { 4.v 5.@ U '.E ~.H H H H 5 6 5 6.w Y 1 e 7.7.8.9.0.1.'.'.'.'.a # @ U _ ",
"_ _ a.a.a.a.a.@ w v v v v 3.9 8 G 8 ` E 3.{.~.i V ( b.c.d.e.f.g.h.<.a.a.).i.v v v v v v ^ j.k.l.1 m.' n.' o.p.q.2.$.i.$.i.V ( a.a._ ",
"r._ _ U U U U ( # '.'.a # s.F 5 8 7 5 H 5 {.5 4 i $ c.t.; ; u.e v.w.U ].@ # a a # ).).).<.x.e u.; y., ' R z.A.4 ..H H H ~.E  .U U U ",
"B.b C.i.$.i.i.i.i.w w V = D.E.F F.v F.F.F.F.G.v j H.I.> r s J.K.L.M.i.$.i.w V @ * N.O.e.o | q n.' } P.v.z Q.^ ~.8 R.8 5 3.E D w w w ",
"[ S.T.4 H ~.~.4 4 ~.H 4.U.V.W.M '.a a a a # a M H.X.) , ' , Y.Z.}.4 4 ~.~.H 3.!.L - P [ [ ) , `.) ! ~ M.N  +{ i 9 8 7 3.w w 3.H H H ",
".+x.I F.3.F.F.F.F.3.5 ++@+#+$+V '._ %+c.O.O.c.O.I.y.y.m.c &+*+=+-+3.F.F.` 5 5 v j y p.;+p.p.p.p.>+,+U !.v E $.D v F.F.$.# !.~.G G '+",
"%+L $ '. .'.'.'.'.!.G.5 )+] #.` u % O.t.[ !+!+| ) > t.~+E.=+W { '.'.'.'.w ` {.5 {+]+^+^+^+^+^+^+N /+$ @  .D 3.E V '.'.@ U { ` 8 8 8 ",
"_ _ _ _ _ _ _ _ a.@ i.F.3.` 5 5 E ].c.(+c _+Y.P.t..+d.L / E i a _ _ _ _ # D 3.3.3.3.3.3.3.3.3.3.G.w ( a.U !.E $.@ _ _ :+<+l.[+}+}+}+",
"_ _ _ _ _ _ _ _ _ U ). . .!.F.H i $ |+b.1+j.I = <+%+2+& @ '.a ]._ _ 3+_ U #  . .3+ . . . . . ./  .)._ _ _ @ '.# U _ _ N.4+5+6+7+7+7+",
"_ _ _ _ _ _ _ _ _ _ _ _ _ @ i.v w ( a.].!.v D )._ _ _ _ _ _ _ _ _ 3+8+3+* 3+9+3+8+3+9+9+9+9+9+9+N.b.& _ _ _ _ _ _ _ _ <+! m.m.t.t.t.",
"_ _ _ _ _ _ _ _ _ _ _ _ _ _ ). .).U _ _ ). .a ]._ _ _ _ _ 3+_ _ 3+8+8+0+3+8+3+3+8+3+!+!+!+!+!+| t.B.* _ _ _ _ _ _ _ _ L %+<+N.N.N.N.",
"_ _ _ _ _ _ _ _ _ _ _ _ _ _ _ _ _ _ _ _ _ _ _ _ _ _ _ _ 3+8+3+3+8+3+8+0+0+8+3+8+0+3+3+3+' ' ' a+y.l L _ _ _ _ _ _ _ _ _ _ _ _ _ _ _ ",
"_ _ _ _ _ %+.+b+a+' ' ' a+) - * _ _ _ _ _ _ _ _ _ _ _ _ 3+0+8+8+0+0+8+0+0+0+0+0+0+8+0+3+_ _ _ _ _ _ _ _ _ _ _ _ _ _ _ _ _ _ _ _ _ _ ",
"_ * b.c+<+B.m.' d+, d 7+e+_+l.a # _ _ _ _ _ L %+<+<+b.3+0+0+0+0+0+0+0+0+0+0+0+0+8+0+3+V / / / / / V V V / # _ :+%+b.r._ _ _ _ _ _ _ ",
"_ b.l t.t.P y.' d+f+;.}+g+g+h+F.w ( _ _ _ r.9+4+m.t.d.i+3+0+0+0+0+8+0+0+8+0+0+0+0+3+F.` 3.3.3.3.3.3.3.` F.u ].9+! d.:+_ _ _ _ _ _ _ ",
"%+B.!+' ' j+; P e k+l+#.5 {.5 ` 3 V  ./ / a k P.[ m.l m+n+8+0+0+0+0+8+8+8+8+8+8+8+8+3+{.8 8 8 8 8 5 4 4 ` E V b (+l 2+_ _ _ _ _ _ _ ",
"X.!+> a+d+) ! H.h.T.%.D ` o+G.$.3 F.3.3.3.F.j k c.~+%+m+8+p+0+8+0+8+8+8+8+8+8+8+8+0+3+3+3+R.'+'+7 3.i.!.w i v j k %+* _ _ _ _ _ _ _ ",
"| | [ [ [ .+9+M i F.D !.F 3.3 !.v 5 5 H 5 5 v # a._ p+m+n+m+8+n+0+8+m+m+m+m+m+m+m+8+3+0+3+^+^+@.` $.@ @ / 3 3.D @ a._ @ a ).U ].# '.",
"c.c.c.c.c.9+:+( / i.E v D i.3 F.9 7 ` i 3.5 F.'._ p+m+m+m+m+n+m+8+m+p+q+q+r+r+q+p+m+8+3+s+s+>+$+V '.@ { E F i. .( _ _ / i D # '.i F.",
"%+b.L _ @ ).].U ).V 0 3.D t+i ` |.] I u+v+N w+x p+m+t+m+m+x+m+m+m+m+p+q+q+r+r+q+p+m+3+; P e y+f.& _ ( i.F.D )._ _ _ U { F.v !.w F.~.",
"4+d.b.# D i / # w E i D F v z+i.A+z v.V.B+*.C+: p+m+# m+m+D+i+n+x+D+m+m+m+m+m+m+m+m+> E+F+y Q.E._ a._ '.!. ._ a._ _ _ # !.3 v v D u ",
"b+m.9+a E v s.2 G+F.j 2 G+F.%.= B Q j+, ) [   p+m+<.'.3+m+x+i+8+D+D+q+H+D+D+q+H+3+> m.B.% G+I+D '.# # a '.'.# U L L _ _ ].V N =+1.J+",
"s | t @ K+L+M+N+C j O+P+Q+j R+! } ' r ' | - &.p+m+F 3+3+3+m+m+n+x+x+r+H+S+S+r+H+3+.+c.b.]./ u F v v v v v v F T+U+O.:+_ _ x V+W+X+I.",
"7.c ,.# '.x V.P 1 c+B Y+1 b B ) ' ' j+} B J+{ p+m+3+i+i+3+3+m+x+x+D+S+S+S+S+S+D+3+3+* _ _ @ / i 4 5 6 5 H 5 Z+_._+P+J+_ :+B.m.T , , ",
"/._.=+E E M.`+> |  @o l B I.} q r b+m.- <+& p+m+3+i+q+i+3+i+3+3+x+x+x+D+S+S+D+x+m+3+_ _ @ !.E i i ` {..@E 3.6 }._.A+% %+l +@b+n.r s ",
"4 ..5 {.7 ^+@@7.; Y+W.J+#@P Q f+R [ l b._ _ p+3+p+q+q+p+i+3+3+3+3+3+D+D+D+D+x+3+i+3+_ * % %.4.i.a 3 ` i  .$.4 ..}.[.% ~+$@7.7.%@%@%@",
"3 v 5 '+'+++&@*@=@g 1+%.Q+N+-@*@-@B.<+& _ ( 3+p+q+q+p+p+p+i+3+3+3+3+3+3+3+3+3+i+i+i+3+9+P+W+U.;@_  .w / ( '.i.I J W+f x.>@,@,@,@'@'@",
"a w 3.5 8 8 6 #.2.a i 6.i.X G+4.%.% * _ * 3+i+p+q+p+p+p+i+i+i+m+3+m+3+3+3+3+3+i+p+i+3+! ; R )@W.U # # @ U ( U D.P.u.d z !@......4 @.",
"i i i v H 8 G 7 ` E i i F E E i K+@ ~@_ %+3+p+p+p+p+i+i+i+i+p+i+3+i+3+i+3+3+3+i+i+3+3+[ , | - {@G+i D V U a.* N.d.x.L.]@ +` 7 o+-+E ",
"@.^@{ V F.5 {.5 5 ` w / i 3.D # _ * * :+d.3+i+p+p+i+i+i+i+p+p+i+3+i+3+i+3+& 3+3+i+p+i+3+[ d.<.i H {.H i a ( @ _ & h N =+C.{ I+F.V @ ",
",@/@x @ !.i F F E D  .@ !.D K+_ N.d.- l 3+p+m+i+i+m+i+i+p+i+3+3+p+3+3+3+3+l (+3+i+3+3+3+P+C i ~.8 R.8 ` F D D V @ u+g.(@1 x.V+_@% _ ",
"  . + @ # a # ).).@ _ & % U U 2+- [ y.) 3+i+p+m+m+m+i+3+3+3+3+m+i+3+x+3+[ [ ; 3+3+x+x+3+3+D 4 5 {.7 8 {.5 5 H E a b c d     e f ~ _ ",
" @F+1+G+D !.).a.a.* 9+d.l l d.B m.' r 3+i+p+i+i+m+m+3+x+n+n+m+i+m+x+:@3+! ! ! 3+D+S+S+D+x+3+v v v ~.8 '+'+R.8 ~.F M.>@;.=.=.=.<@Y _ ",
"2+[@^@9 5 3.w ( _ L - P [ [ [ } ) > b+3+p+i+p+i+i+m+3+x+x+x+m+p+m+n+:@3+L :+2+b.3+S+x+S+3+x+3+$ a F 5 7 {.7 {.5 H 4 #.#.@.@.}.W s.].",
"_ V ` 8 '+5 F.w # & l.>+v.(+I.4+! ! ! 3+q+p+p+p+i+3+:@:@:@3+i+m+x+:@3+G.}@|@& <+3+D+3+3+S+3+3+l B.C 3 v v v v v v v F.~.7 o+3.E D u ",
"_ / 3.7 8 8 5 3.!.a G+1@j Z b.b.b.~ %+3+i+q+p+p+i+3+:@:@:@m+i+m+:@3+3+H F.V ~ ! [ 3+[ o.3+D+3+[ X.W.M '.# # # # # # a D 4 3.w w F.~.",
"_ '.D 3.5 8 '+6 F.i 4 {.3.u '.U b.2@B.3+i+p+p+p+i+m+3+3+3+3+3+3+3+:@:@3+^.O+B } , [ 4+C+p.3+3@p.z q.{ '._ a.a.a.a.a._ / i u # '.D F.",
"& _ $ 5.3.7 8 {.9 H 5 {.5 ` w & d.m.; [ 3+i+p+i+3+3+3+:@:@:@:@:@3+:@:@x+3+3+[ > [ - 4@w+h+}.5@5@}.|.` D )._ U U U _ _ U ).$ _ U ).a ",
"B.O.O.k 6@v G.G.-+-+G.G.3.^ C.~+t., s 3+i+3+i+p+q+p+i+3+x+n+n+x+3+x+x+n+n+n+3+3+P+u+$.7@3.o+8@G '+R.8 3.u w w w w 1.D.O.O.O.c.N.:+a.",
"P !+!+: ,.a  .a a a a a '.M F+P > ' 3+:@n+3+p+q+q+p+i+3+3+x+:@3+x+n+n+n+8+8+n+x+3+3+F.G+5.v 6 8 8 8 7 5 H ~.~.H ` 9@B+| | | P B ~ _ ",
"s+0@s+z 1+s.= ~+c.c.c.c.c.e.t.b+s j+3+n+8+x+3+p+3+3+3+S+x+3+x+3+x+n+n+8+8+8+8+8+8+n+3+a@H.b@T.N F.3.3.H 8 '+8 5 6.c@@@0@0@0@s+(@C.w ",
"d@d@d@^+#.!@O m.| | | | !+[ ) b+d+3+:@n+8+x+3+3+r+S+D+3+3+3+x+3+x+x+x+n+8+8+8+8+8+8+n+3+m.e e@,+a  .V v 5 '+7 f@w 2.g@d@d@d@d@^+#.4 ",
"3.3.3.` `  +-@.+t.t.t.t.t.t.t.t.m.3+:@n+n+n+3+S+D+x+3+D+S+3+3+3+3+:@x+n+n+n+n+n+8+n+n+3+_+_+k+O+* a.U !.F.` F.i.).V v ` 3.3.3.3.3.3.",
"V V V V V a Z <+N.<+<+<+<+<+<+<+<+3+:@x+n+x+3+D+x+3+3+3+3+V V V '.3+3+x+x+n+n+n+n+x+x+3+g@d@g+h@U a._ ). .V / # U @  .V V V V V V V ",
"_ _ _ * %+9+9+9+9+<+L _ _ _ _ _ _ 3+:@:@:@x+x+3+3+3+9+9+9+9+9+9+N.9+2@3+x+:@:@x+x+x+x+3+8 '+{.v !.V V ).U )./ a U _ _ _ _ _ _ _ _ _ ",
"_ _ _ b.o m.m.m.m.4+9+_ _ _ _ _ _ 3+x+x+:@:@:@:@:@3+m.m.m.m.m.m.+@m.v.3+:@:@:@:@:@:@x+3+8 '+8 9 ` ` 3.w ).!.v D @ _ _ _ _ _ _ _ _ _ ",
"_ ( '.1.i@Y.e+7+e .+t & # / V s.% 3+x+n+:@:@:@:@:@3+e+e+e+e+y+j@5+y+z 3+x+x+x+x+:@:@x+3+` .@4 5 8 8 {.F.w D F.E !./ / / / V V '.@ _ ",
"_ a i F.g@&@&@_.k@<+b.$ $.F.` ^@b@3+:@x+n+x+:@:@x+3+g+&@&@&@Q.,+,.]@j.3+x+:@:@:@:@:@x+3+V V w 3.7 '+8 5 ` i w D F.3.3.3.3.3.3.i '._ ",
"_ '.F 4 6 6 H I+$./  .t+F .@{...^.3+:@x+x+n+x+x+:@3+4 4 4 ` F a a l@m@{@3+:@:@x+:@:@x+3+_ _ @ $.` 4 4 4 ` F !.D 3.9 7 8 8 +.] w+;@%+",
"_ @ / 3 ~.5 v u E 3.3.F.3 D ` 9 m@3+3+3+:@x+n+x+x+3+w w w w V @ Z n@C+3+3+3+:@x+n+n+x+3+* _ _ a { !.!.!.w i v F $.v 5 G 8 ^+>@e@$@.+",
"_ ].# w F.3.D {  +h+^+g@1+;@M.!@M.J+o@3+3+3+3+3+3+# _ _ U _ & b.B.P j+3+i+3+3+3+3+3+3+,+).@ _ _ _ _ _ _ @ w F.E !.D 3.4 ^+/.p@' ' ' ",
"_ '.D 0 D u E W '@z.p.s+q@P.B+k+B+! 3+i+i+m+3+3+3+( _ _ _ _ %+l m.> s 3+3+3+3+p+i+i+p+3+F V U a.a.a.a.a._ # w i v E i.1+z 7+S d+d+a+",
"b.1.F ^@C.2 m@r@s+T ' T 7.s@6+6+s@3+3+3+3+3+3+i+3+b.b.b.b.~ O.| ' ' , 3+3+i+i+3+3+3+3+3+3+i  .a a a a @ _ L L h t@m@x d.[ `.' , u@[ ",
"4+F+E.C.W.. k+k+8.' n.T s+k.Z.l+3+3+p+q+q+p+m+3+3+.+.+.+.+.++@> s d+8.-.3+3+3+i+i+i+i+i+i+3+F.v F.F.0 !.U t ! B+*.C+(+| b+s a+[ B B.",
"j+m.B.9+X.> , , ' j+R e+Z...v@3+i+i+x+D+S+3+S+D+3+o.s@s@s@e   [ Q 7.s+T...{.3+3+i+p+D+S+i+D+3+5 H 5 5 v s.H.y+s@s@o.u.} ; ; ; 4+<+r.",
"d+> +@+@y.s n.n.n.R s+Z.}.8 G 3+p+q+p+p+p+p+p+p+3+'@w@w@w@w@*@f.f.g.]@%.E H 5 F.3+3+3+3+3+3+3+` E ` {.H F.=+Z.w@k.y g d.d.d.e.9+:+_ ",
"u@Q   d 7.7.7.7.7.x@k.#.6 7 {.3+3+3+3+3+3+3+3+3+2.I+..5 6 5 I+{ { ^@F.w w F.3.w ].& Z L <.l@4.6@1.i.4 9 H 4 4 4 `  +M & $ $ $ $ ).).",
"d.g y /./././././.Q.w+F ~.5 3.3 u D D D D D E v E z+3.{.G G o+3.E i i F F 3 w |@L c.m  @B y@z.S.z@,.2.D D D D 3 D K+@ '.D v v 0 0 0 ",
"$ h@^ 4 +++.+.+.5 {+i./ v H i # ].].U & Z % j 4.l@[@{ 3.5 5 5 H v V V v F.!.].* <+I.y.j+> Q < 7.)@f.M # @ ( ( ( ( @ ).w 3.5 5 5 H H ",
"v E z+F.5 G G G G 5 $.a E H i @ a.r.N.l ! B y@#+W+- H.j 3 D 3 3 w ).).w A@'.L c.(+; ' r b++@B@O g.C@G+V _ D@a.D@_  .D E E 3.{.5 F.3 ",
"@.^ V V F.5 6 5 6 4 w a i ` $.& L b.l } > > ; < <   P+Z @ @ @ @ U & L & & E@<+I.> ' ' j+[ 1 2  +..6 H F '.@ @ U U { 4. +X j 4.4.V @ ",
"F@_@x @ !.D i i z+D  .@ t+i.Q+1 o B m.j+s ' ; (+=@-.b@& a.a.a.a.b.O.m m B B 4+; a+s , m.1 E.F H 8 G 8 4 E i D V ].u+y O P+A #+b@x _ "};
