/* XPM */
static char * p_mov_left_5_xpm[] = {
"66 66 351 2",
"  	c #AA834B",
". 	c #A88047",
"+ 	c #A37A3D",
"@ 	c #9F7535",
"# 	c #9F7533",
"$ 	c #9F7534",
"% 	c #A07737",
"& 	c #A57D41",
"* 	c #A9824A",
"= 	c #A88148",
"- 	c #A88046",
"; 	c #A78046",
"> 	c #A67E43",
", 	c #A2793B",
"' 	c #9F7433",
") 	c #A07635",
"! 	c #A27B3A",
"~ 	c #A47E3D",
"{ 	c #A57F3D",
"] 	c #A6803F",
"^ 	c #A98446",
"/ 	c #AC874C",
"( 	c #AC864C",
"_ 	c #A98249",
": 	c #AB854C",
"< 	c #AC874D",
"[ 	c #AD894D",
"} 	c #A98348",
"| 	c #A77F46",
"1 	c #A88147",
"2 	c #AB854A",
"3 	c #AD884D",
"4 	c #A98149",
"5 	c #AA824A",
"6 	c #A57C41",
"7 	c #A2793C",
"8 	c #A2793A",
"9 	c #A07637",
"0 	c #A17938",
"a 	c #A98543",
"b 	c #AE8E4A",
"c 	c #AF8F4C",
"d 	c #B1914E",
"e 	c #B19150",
"f 	c #AE8B4E",
"g 	c #AB844C",
"h 	c #A77F45",
"i 	c #A37B3E",
"j 	c #A57D42",
"k 	c #A98148",
"l 	c #AC884D",
"m 	c #B08F4F",
"n 	c #B29251",
"o 	c #AF8D4D",
"p 	c #A78243",
"q 	c #A2783B",
"r 	c #A57E40",
"s 	c #AC894A",
"t 	c #B29351",
"u 	c #AF8C4F",
"v 	c #AB844B",
"w 	c #A47B3F",
"x 	c #A2783A",
"y 	c #9F7635",
"z 	c #A17738",
"A 	c #A37B3B",
"B 	c #A68140",
"C 	c #AD8B49",
"D 	c #B29350",
"E 	c #B49652",
"F 	c #B49753",
"G 	c #AF8E4F",
"H 	c #A88246",
"I 	c #A37B3D",
"J 	c #A17839",
"K 	c #B19050",
"L 	c #B39552",
"M 	c #B08F4D",
"N 	c #A98544",
"O 	c #A57E3D",
"P 	c #A47D3C",
"Q 	c #A78241",
"R 	c #AD8C4A",
"S 	c #B29451",
"T 	c #B59853",
"U 	c #B39451",
"V 	c #B08F50",
"W 	c #A88146",
"X 	c #A47B3E",
"Y 	c #A37A3C",
"Z 	c #A07636",
"` 	c #A88145",
" .	c #AC8949",
"..	c #AE8D4B",
"+.	c #AE8C4D",
"@.	c #AF8D4F",
"#.	c #B49653",
"$.	c #B19151",
"%.	c #AF8C4E",
"&.	c #AD8A4C",
"*.	c #A67E44",
"=.	c #A67F44",
"-.	c #B08E4F",
";.	c #AE8B4D",
">.	c #AE8E4B",
",.	c #B69953",
"'.	c #B59953",
").	c #B59753",
"!.	c #AE8C4E",
"~.	c #AE8A4E",
"{.	c #A1783A",
"].	c #AB864B",
"^.	c #AA824B",
"/.	c #B2934F",
"(.	c #AF8F4D",
"_.	c #AB874A",
":.	c #AA8449",
"<.	c #AD8B4B",
"[.	c #B1924E",
"}.	c #B29450",
"|.	c #AB864C",
"1.	c #AA844B",
"2.	c #B49552",
"3.	c #AA8646",
"4.	c #A47D3E",
"5.	c #A57F3F",
"6.	c #A78240",
"7.	c #A88342",
"8.	c #AB8748",
"9.	c #AD8A4D",
"0.	c #B09050",
"a.	c #AD8A4E",
"b.	c #B39450",
"c.	c #B1924F",
"d.	c #AA8549",
"e.	c #AD894B",
"f.	c #B0904E",
"g.	c #AE8C4C",
"h.	c #A88149",
"i.	c #AF8E4E",
"j.	c #AB864A",
"k.	c #AC874B",
"l.	c #B0904F",
"m.	c #AB874B",
"n.	c #AC884C",
"o.	c #A78045",
"p.	c #A47D3D",
"q.	c #A78144",
"r.	c #AA834A",
"s.	c #B39452",
"t.	c #B08E50",
"u.	c #AB8849",
"v.	c #A88443",
"w.	c #A57F40",
"x.	c #A47C3E",
"y.	c #A57E3F",
"z.	c #A68040",
"A.	c #A47C3F",
"B.	c #A57D43",
"C.	c #AB8649",
"D.	c #A67F42",
"E.	c #A78043",
"F.	c #AC884B",
"G.	c #AC874A",
"H.	c #A67F43",
"I.	c #9E7433",
"J.	c #A3793D",
"K.	c #AC8A49",
"L.	c #AF8D4E",
"M.	c #A47C40",
"N.	c #A17838",
"O.	c #A27A3A",
"P.	c #A37C3B",
"Q.	c #A68042",
"R.	c #AA854A",
"S.	c #A27A3B",
"T.	c #A77F44",
"U.	c #AA844A",
"V.	c #B19250",
"W.	c #AF8E4D",
"X.	c #A98248",
"Y.	c #A67E45",
"Z.	c #AD894E",
"`.	c #AC894C",
" +	c #A88144",
".+	c #A88245",
"++	c #A57E41",
"@+	c #AA8548",
"#+	c #A98447",
"$+	c #A17739",
"%+	c #9E7432",
"&+	c #A88345",
"*+	c #AC8947",
"=+	c #A37B3A",
"-+	c #AB8749",
";+	c #A67E41",
">+	c #A67D43",
",+	c #A98545",
"'+	c #A78242",
")+	c #A57D3F",
"!+	c #A37A3E",
"~+	c #A27A39",
"{+	c #A98347",
"]+	c #A67E42",
"^+	c #A27A3C",
"/+	c #B49752",
"(+	c #AF8F4B",
"_+	c #A88247",
":+	c #A98247",
"<+	c #A27939",
"[+	c #B39652",
"}+	c #A07736",
"|+	c #AC8A47",
"1+	c #AD8A4B",
"2+	c #A57E3E",
"3+	c #A37B3F",
"4+	c #A47C41",
"5+	c #9F7434",
"6+	c #AE8D4A",
"7+	c #AA8645",
"8+	c #A68043",
"9+	c #AE8B4C",
"0+	c #A98346",
"a+	c #AB8846",
"b+	c #A88244",
"c+	c #B39351",
"d+	c #9E7332",
"e+	c #B39551",
"f+	c #A88543",
"g+	c #A78044",
"h+	c #A57E42",
"i+	c #080808",
"j+	c #B1914F",
"k+	c #AD894C",
"l+	c #AD884C",
"m+	c #AE8D4D",
"n+	c #A37C3D",
"o+	c #A27938",
"p+	c #B39651",
"q+	c #AA8746",
"r+	c #A78042",
"s+	c #AC884A",
"t+	c #B29151",
"u+	c #B69954",
"v+	c #AA834C",
"w+	c #A98645",
"x+	c #AA8448",
"y+	c #AA8745",
"z+	c #AB8946",
"A+	c #AB8947",
"B+	c #CE3900",
"C+	c #EF7B00",
"D+	c #AB854B",
"E+	c #A17837",
"F+	c #A37B3C",
"G+	c #A17939",
"H+	c #EFEF00",
"I+	c #A78143",
"J+	c #A98644",
"K+	c #A88343",
"L+	c #AD8B4C",
"M+	c #AA8649",
"N+	c #AD8B4A",
"O+	c #B1904F",
"P+	c #A98349",
"Q+	c #A9834A",
"R+	c #AC894B",
"S+	c #AB8747",
"T+	c #A68041",
"U+	c #AA8547",
"V+	c #AA8349",
"W+	c #AB8847",
"X+	c #A98444",
"Y+	c #AA8747",
"Z+	c #A47D3F",
"`+	c #292929",
" @	c #6B7B7B",
".@	c #4A4A4A",
"+@	c #A98643",
"@@	c #A98546",
"#@	c #B08F4E",
"$@	c #AE8B4F",
"%@	c #AC864D",
"&@	c #EFDEBD",
"*@	c #AB8948",
"=@	c #AC8948",
"-@	c #A78341",
";@	c #A88442",
">@	c #A88341",
",@	c #AB8848",
"'@	c #AE8A4D",
")@	c #BD6B39",
"!@	c #A37C3C",
"~@	c #A67F41",
"{@	c #A98448",
"]@	c #B1934F",
"^@	c #8C1800",
"/@	c #B18F50",
"(@	c #B59854",
"_@	c #0018EF",
":@	c #181818",
"<@	c #AE8D4C",
"[@	c #AF8E4C",
"}@	c #AD8A4A",
"|@	c #A68240",
"1@	c #DEAD7B",
"2@	c #A98547",
"3@	c #AA8647",
"4@	c #B29250",
"5@	c #AD8C4B",
"6@	c #B0914D",
"7@	c #B19251",
"8@	c #B0904D",
"9@	c #A88344",
"0@	c #A6803E",
"a@	c #A6813F",
"b@	c #6B0000",
"c@	c #A57F3E",
"d@	c #A47C3D",
"e@	c #B49651",
"f@	c #A88048",
"g@	c #A37D3B",
"h@	c #A57D3E",
"i@	c #AD8D49",
"j@	c #A07836",
"k@	c #B59752",
"l@	c #9F7634",
"m@	c #A07738",
"n@	c #A27B39",
"o@	c #AC8A48",
"p@	c #AD8C49",
"q@	c #AD8B48",
"r@	c #AA8845",
"s@	c #A47B40",
"t@	c #A47B41",
"u@	c #A1773A",
"v@	c #AA8744",
"w@	c #AB8A47",
"x@	c #B08E4E",
"y@	c #B0904C",
"z@	c #A17937",
"A@	c #A5803E",
"B@	c #A67F40",
"C@	c #AE8D49",
"D@	c #A78140",
"E@	c #AA8846",
"F@	c #A78340",
"G@	c #B39550",
"H@	c #B2924F",
"I@	c #AD8B4D",
"J@	c #AC8B49",
"          . + @ # $ $ $ # % & *                                                                                                     ",
"  * = - ; > , $ ' ) ! ~ { ] ^ / (           _ . ; ; = *     : < [ [ [ [ / } ; | 1 2 3 [ 3 3 3 3 3 [ [ [ 3 (   4 . = 5               ",
"  = 6 7 7 8 9 $ ' 0 a b c c d e f g       5 h i , 7 j k     l m n n n n o p 7 q r s e t n n n n n n n t e u v h w j 4               ",
". > x $ $ y z 8 A B C D E F E t G [ l 3 3 / H I J , 6 =     3 K L F F L M N O P Q R S F T T T T T E U U t V [ W X 6 k               ",
"Y x Z # ' % w `  ...+.@.t #.$.%.G e n n n e &.H *.=.. *     : [ -.L L m ;...>.b ..+.@.t T ,.'.'.).n !.~.f -.K &.H . *               ",
"{.{.J J J + h ].-.e @.~.m n G ~.K E E L E E K ( ^.  v ( ( v g / f e e !.f K D /.(._.:.<.d [.[.}.t %.: : 3 G n @.: ^.  : / |.1.v ( < ",
"*.*.*.*.*.h 4 g 3 !.V K @.!.G e 2.).t -.n E e <   1.[ m @.< < G V @.@.V K G &.3.Q 4.X 5.6.6.7.8.[ < : 9.V m !.l g     3 -.@.( < -.e ",
". = _   : |.v 1.|.[ 0.n @.a.-.t b.c.<.d.e.f.g.:.h.  a.e i.j.k.l.m m.j.m K n.o.Y Z $ ) z 8 A p.q.r.  g !.e @.|.      1.9.e K ~.f e s.",
"i j = ( @.-.3 ( f V -.@.m K t.!.u.v.w.x.y.Q z.A.B.4 ( 9.C.D.E.F.G.H.D._.F.q.7 9 ' I.Z J.H.3.K._.  ^.  < ~.l   ^.      ( ~.G K K @.u ",
"@ , h / V K n.2 L.e &.2 L.e +.} M.N.y ) % J O.P.Q.R.< / H S.7 =.h i + T.h Y y $ @ Z , > U.L.V.@.< ( ( / < < ( 1._ _     v [ f.W.j.X.",
"I.{.Y.: Z.`. +D.C.&..+++@+&.#+w $+$ %+$ {.& &+*+..m K m 8.=+Z q w 6 6 w 7 9 I.I.Z + *.= v 3 u m K K K K K K m -+;+>+4     :.,+'+)+!+",
"~+4.{+( < :.x.8 ]+- M.^+]+W M.% $ $ y $+M.X.9.V.L /+T /+(+B 0 J A._+:+A.J <+<+N., *.*     : 3 -.U E /+E L E [+R ] ++X.  4 > , }+) ) ",
"|+R W.V V 1+2+Z {.3+4+6 M.!+$+5+%+@ , & ; r.< u n F ,.T }.6+7+8+H 9+;.0+E.7+a+b+=.=     : ~.V -.-.t F c+V n /+/.R u.U.. 6 q @ d+%+I.",
"U e+E F ).[.f+~+z ^+g+X.h+8 N.0 i+J 6 =     g / @.U F T T E j+k+[ K e 9.l+m j+k+r.5   * U.+.j+!./ G t -.l %.U e+/.m+U.=.n+~+~+o+o+o+",
"G K E '.'.p+(+q+r+E.s++.@+D.i+q+i+i+; r.  g 3 @.t.-.t+E '.u+#.n V -.-.V V V u < g v+* h ++'+w+x+  l f 3 g < !.<.a+'+r Q.y+z+z+z+A+A+",
"/ f n E T T /+D ;./ -.i+!.i+B+i+C+i+*   i+i+i+j+i.k.9.t E E E L e [ [ K e ~.D+r._ _ . w z E+F+g+1.( ( : 1.g 1.o.I G+! v.(.e+e+e+U }.",
"-.-.-.K L T u+).t V i+C+i+H+C+i+H+B+i+i+i+i+I+J+K+++H L+-.-.-.-.f ( ( f u < _ Y.6 6 w J ) {.& M+L.-.@.[ 1.^.* | j Q.7+N+i.t ).#.t+V ",
"}.O+9.[ e E F E E t i+H+H+C+H+B+H+C+i+B+C+i+i+i+~+O.++P+: : : : v r.Q+r.U.r.- i % Z Z Z J j R.-.L F L -./ g :   r.R+f.W.F.9.V.e [ : ",
"z+S+:.: ~.-.m m V @.i+H+C+i+H+B+C+C+C+C+B+i+i+i T+N U+V+^.^.^.^.= *.6 4+6 6 X z # %+@ x ++C.-.s.T ,.T t m @.@.[ : d.W+X+]+Q.,+Y+U.  ",
"O.Z+_+: ( / ( i+|.i+B+C+H+C+H+C+B+C+C+B+i+i+`+i+i+ @ @ @.@.@g   . A.<+J J J z 9 Z ) J j R.@.U E F ).T F E E L V / W 4.! O.O.A r 1   ",
"3+H.s+L.@.~.|.i+i+i+H+B+H+H+H+C+C+C+H+H+C+B+i+i+i+i+i+i+`+`+.@i+i+i+i+i+w w w w M.w D._.@.V K K K s.T '.'.,.T s.m 1+y+a +@+@+@@@V+  ",
"k m.O+2.E n f i+C+i+H+C+H+H+C+C+C+C+B+i+i+i+B+i+`+`+`+ @i+i+i+i+i+i+i+i+_ 4 k = = . :.o e %.|.D+/ m E ).F ).F E L U D D }.}./.#@n.v ",
"  [ t T '.E e i+C+B+C+C+H+C+H+C+C+B+i+`+`+`+i+`+3 i+i+i+`+.@.@.@.@E #.$.$@%@r.; > B.E.3.W+&+j 6 > C.G K K K K K K K e s.).#.n V @.u ",
"  3 n ).T T E i+C+B+C+`+`+`+i+H+H+i+i+`+`+i+i+i+  ].%.U /+`+`+`+L /+/+L e [ 1 w J z J =+P.O.8 J Y g+].< ( ( ( ( ( ( / @.U n f f e s.",
"  < @.n E T './+i+C+`+&@&@`+i+C+H+C+i+i+i+i+B+B+i+>+.+*@..l.e e e e l.>.=@.+M.$+) J i z.-@;@>@-@v.,@9.<   ^.^.^.^.^.  3 -.u ( < @.e ",
"r.  D+'@n ).T F i+`+&@&@ @`+i+i+i+C+i+)@)@i+i+B+i+i+O.!@Q.d.< < / / x+~@P.O.J Z J & {@g.d /.]@]@/.b.t @.|.  1.1.1.    1.|.D+  1.|./ ",
"> >+>+H 9+K $.$.i+`+ @ @ @i+i+ @^@i+C+^@^@)@i+i+i+i+i+i+i+i+i+^.4 | j w x.] B Z+++d.%./@n #.(@u+'.,.T n u f f f f j.o.>+>+>+*.| 4 ^.",
"8 x x A.{+/ l / / i+`+i+i+^@_@&@)@^@C+^@^@)@i+i+:@i+i+ @.@`+:@i+i+i++ > :.<@[@-+:.o e L.'@K /+T T T ).E L s.s.L t }@y.{.{.{.8 M.1   ",
"6.|@6.v.s+n.} =.*.i+i+i+^@)@_@&@1@1@^@i+)@i+i+:@:@`+ @.@.@.@`+:@:@:@i+i+i+t.-.C.H ,@C 2@` 3@..f.e n n L T '.T E 4@5@f+|@|@|@6.X+F.f ",
"6@6@6@[.D (.K+, {.{.{.i+^@)@1@1@)@^@)@^@i+i+:@:@:@ @ @.@.@`+`+`+`+`+`+:@:@i+i+++S.P.P A , A 5.0+/ l [ K E '.).7@f ;.8@6@6@6@6@[.D U ",
"n n n t t i.9@+ 7 7 7 i+^@&@&@1@^@^@^@i+i+i+i+:@i+ @.@.@`+`+`+`+`+:@:@:@:@:@:@i+i+i+0@a@] ] B .+* ^.1.~.e t e !.|.[ K t n n n n n n ",
"[ [ [ [ [ / P+; | ; ; ; i+i+1@)@)@)@i+i+i+`+:@i+i+i+i+`+`+`+`+`+`+`+.@.@.@`+:@:@:@:@i+i+8@6@c k+1.^.  |.l [ 3 ( 1.: l [ [ [ [ [ [ [ ",
"      * . h h h h ; _     i+i+i+i+i+i+i+i+i+:@.@.@.@`+:@:@:@i+i+:@:@`+`+`+`+`+`+i+.@i+i+i+i+i+i+~.[ [ |.1.|.3 / 1.                  ",
"      = 4+, , , , i h                 i+i+ @.@`+`+:@i+i+i+i+b@b@i+i+i+:@:@:@:@:@.@i+i+^@)@1@)@i+i+t n f |.~.K @.:                   ",
"  g < j.p c@{ ~ A + Y.r.( 3 [ n.U.1 ; h i+.@`+.@`+:@i+i+b@^@^@b@b@b@b@i+i+:@`+`+.@i+^@)@1@1@1@1@)@i+F e f @.e V ~.3 3 3 3 [ [ < :   ",
"  / -.e 8@(+(+R U+; = D+%.e t O+3@x., , z i+ @ @.@i+^@^@^@^@^@^@b@b@i+i+i+i+i+`+.@i+^@)@1@^@i+i+i+i+T E t -.f @.e n n n n n n -.<   ",
"  < m U /+/+L V.%.3 l a.m c+F e+=@d@{.8 A i+b@^@ @i+^@^@^@i+:@:@:@:@:@:@:@:@i+i+i+i+i+1@1@&@&@)@i+U U U t m ~.@.n 2.).T T e@c.g.x+. ",
"  : 3 G s.E K u V n n e G @.t 2.<@W *.o.3@R i+b@^@.@i+`+:@:@:@i+i+i+i+i+:@:@i+7 i+i+i+:@^@^@^@i+9.~.~.~.f -.K m %.K E u+T [.y+5.n++ ",
"  v ( f e n @.9.i.d [.8@s+x+1+(.1+X.f@  ~.V.i+i+i+ @`+`+i+i+i+b@b@b@b@b@i+i+i+P P P 5.i+:@i+i+          : f e V ~.@.n U [.|+g@$ $ $ ",
"  < @.0.@.u V #@A+;@-@6.h@I y.B y.w *.5 < ~.u f i+i+i+i+^@^@B+B+B+B+^@b@b@b@i+6+6+i@..f.m [ 1.^.^.^.^.^.  ( f -.K V !.s+v.~ j@' ' # ",
"= j.m O+F.2 <@>.6.}+$ }+~+P.P P P.p.q.].|.1.r.X.i+^@^@B+C+C+C+C+B+^@^@b@b@b@i+i+/+/+k@T E -.l / / / / i+i+i+i+R+M <@:.j J l@$ ) m@J ",
"i H._.F.g+Z+B B n@$ d+}+6.o@p@C q@p@[@m f 1.i+i+^@B+B+B+B+B+^@^@^@^@b@b@b@i+i+i+u+u+u+,.T U e i+i+e i+`+.@.@:@i+Q z.X {.@ I.# J M.> ",
"y , > h Y Z ) ) $ y E+{ p@e+k@/+/+/+).E K i+^@B+C+C+C+C+C+B+B+^@^@b@b@b@i+i+b@b@i+L L L 2.i+i+b@b@i+:@:@`+`+.@i+P.=+G+$+z z z i ; 5 ",
"' Z q q 9 I.d+d+d+E+6.p@/.T u+u+u+u+u+T i+^@C+C+C+C+C+B+B+^@^@b@b@b@b@i+i+b@b@b@b@i+u i+i+i+B+b@^@i+`+`+i+`+`+`+i+3.E.j j j B.h 4   ",
"m@N.O.! ~+~+~+~+~+O o@D /+).F E 2.E E i+b@B+C+C+C+B+B+^@^@^@b@b@b@i+i+b@b@b@b@B+^@^@i+i+^@i+B+^@B+B+i+`+i+:@`+`+:@i+].r.D+D+D+D+|.|.",
"j E.3.|+|+|+|+|+|+K.g.m s.E n G u @.@.i+b@^@B+B+B+^@^@b@b@b@i+i+i+i+b@b@b@b@^@^@B+^@i+b@B+^@B+B+B+B+i+i+:@:@`+`+`+i+: < @.K K 0.0.0.",
"D+k+l.U p+e@e@e@E S !.3 K L -.( v v 1.i+b@B+^@^@^@^@B+^@i+i+E L K i+i+b@b@b@b@^@B+B+i+^@B+B+B+B+^@B+i+i+i+:@`+:@`+`+i+f n E E E L L ",
"K V t.e E u+u+u+u+E %./ V L -.: ^.5 | i+^@B+B+^@i+i+^@i+G @.G G f |.i+i+b@b@b@b@^@^@B+^@B+^@^@^@b@^@i+[ i+:@:@:@^@.@i+V V n F E e G ",
"}.l.[ [ e E /+E /+U f / -.t %.r._ = 6 i+^@^@B+B+b@i+i+P+: : : : 1.r._ r.i+b@b@b@b@^@^@b@b@^@b@i+i+i+L m < i+i+:@)@`+i+i.k.&.j+j+[ : ",
"r@Y+:.: ~.@.-.-.t.@.l : a.!.@+]+4+M., i+^@^@^@B+B+b@i+r.^.^.^.^.= >+s@s@M.i+i+b@b@b@b@b@b@i+i+L T u+T U V -.i+)@`+`+i+K+++~@N 3@:.  ",
"O.Z+_+: ( ( D+U.U.U.r.* r.} & z Z Z ) i+^@B+^@^@^@b@i+3 : : g   1 A.<+J J $+z i+i+i+i+i+i+G U E /+).T ).E /+2.i+i+i+4.! O.O.A r 1   ",
"w E.R+G -.&.H 6 s@t@4+4+4+w u@5+%+I.I.i+B+C+B+^@^@b@i+K -.G f : :.3.v.~@M.w w s@s@w ]+C.@.V m -.0.U T u+u+u+T L m <.a+v@v@v@v@3.:.  ",
"_ ].m L 2.f.K+8 J <+<+<+<+<+N.E+j@}+i+^@B+C+C+B+B+b@i+L L L K [ [ l.#@k._ _ V+V+V+P+].m t -.l : / -.e+E e@e@e@E L U }.D D }.D #@/   ",
"  ( %.K K +.&+r Q +@J++@+@+@J+J+J+a i+^@^@B+B+C+C+b@i+K K K V -.-.V @.< |.~.@.G @.@.V s.F t @.< v C.=@|+|+w@|+R x@V V V V K K u (   ",
"  1.: |.( D+r.R.m+/.D /././.}.}.b./.+.i+b@b@^@^@^@b@i+D+D+D+9.j+K '@: 1.< V s.L L L L E /+E 4@f V+]+A ~+~+n@!@I+j.< < < < / ( : 1.  ",
"    ^.^.^.^.^.: f K K K K n 2.T u+T t V i+i+i+i+i+i+i+*.j B.q.W+ .R.^.^.|.!.K K K K K K l.[@o@^ ]+, $ d+$ =+-@,@;.%.!.%.!.[ g ^.^.  ",
"5     1.1.1.1.g ( < < / ( n.m E T ).E i+i+`+`+i+`+i+*.7 z z G+A w.:+1.v : ( / / ( |.|.|.R.Q.A G+z 9 ) $ E+;@y@U e+L L L s.V l 1.1.1.",
"> W F.!.%.!.!.!.!.f f [ } o._.m i+i+i+`+`+i+i+i+i+i+!+Z %+I.z@A@7+1+!.%.!.f [ : * | >+B.4+{.5+d+$ $+I w.v.K.l.s.T ,.T E n V @.f f f ",
"J B@..U L s.s.U U s.L j+w+x.i+i+`+.@`+i+i+`+`+i+i+i+% ) $ ) c@p@/.U U s.s.L n ~._ & 8 J J % ) l@% w 1 1+f.i.9.-.2.T ).n f f n L L L ",
"+ Q.<.e n e e e e n E p+C@i+1@i+1@)@i+`+`+`+`+`+i+i+9 , 4.D@E@W.t+n e e t E E K &.3.-@F@-@-@-@-@7.0+1.~.K V %.@.K e e %.( ~.s.u+u+'.",
". _ D+< l < < < < ~.$.E G@i+`+`+`+`+`+:@:@:@:@:@i+i+7 =._.W.#@9.< < < < f t F E S H@[.[.[.[.[.[.f.I@D+: l @.n V [ < < : 1.9.t T T T ",
"                ^.: !.e n i+i+i+i+i+i+i+i+i+i+i+i++ j _ 3 V -./         ( @.n n n n n n n n n n $.f g ^.1.~.V %.:     4 ; ^ J@b b b ",
"                  1.|.l l ~.e L -.D+h.= s+[@<.} ; . k r.: < / v         1.( l l l l l l l l l 3 l |.      : < ( 1.    | i S.P ~ ~ ~ ",
"                          : !.K f g ^.v ~.K @.|.                        * . h h h h h h h h h h | = r.                ; w , , 7 7 7 ",
"                            |.l |.1.    |.l / v                         = M., {.x x x x x x x {.7 > *                 _ . ; | | | | ",
"                                                                        . Y @ # $ $ $ $ $ $ $ # 9 6 _                               "};
