/* XPM */
static char * p_mov_left_3_xpm[] = {
"66 66 352 2",
"  	c #AA834B",
". 	c #A88047",
"+ 	c #A37A3D",
"@ 	c #9F7535",
"# 	c #9F7533",
"$ 	c #9F7534",
"% 	c #A07737",
"& 	c #A57D41",
"* 	c #A9824A",
"= 	c #A88148",
"- 	c #A88046",
"; 	c #A78046",
"> 	c #A67E43",
", 	c #A2793B",
"' 	c #9F7433",
") 	c #A07635",
"! 	c #A27B3A",
"~ 	c #A47E3D",
"{ 	c #A57F3D",
"] 	c #A6803F",
"^ 	c #A98446",
"/ 	c #AC874C",
"( 	c #AC864C",
"_ 	c #A98249",
": 	c #AB854C",
"< 	c #AC874D",
"[ 	c #AD894D",
"} 	c #A98348",
"| 	c #A77F46",
"1 	c #A88147",
"2 	c #AB854A",
"3 	c #AD884D",
"4 	c #A98149",
"5 	c #AA824A",
"6 	c #A57C41",
"7 	c #A2793C",
"8 	c #A2793A",
"9 	c #A07637",
"0 	c #A17938",
"a 	c #A98543",
"b 	c #AE8E4A",
"c 	c #AF8F4C",
"d 	c #B1914E",
"e 	c #B19150",
"f 	c #AE8B4E",
"g 	c #AB844C",
"h 	c #A77F45",
"i 	c #A37B3E",
"j 	c #A57D42",
"k 	c #A98148",
"l 	c #AC884D",
"m 	c #B08F4F",
"n 	c #B29251",
"o 	c #AF8D4D",
"p 	c #A78243",
"q 	c #A2783B",
"r 	c #A57E40",
"s 	c #AC894A",
"t 	c #B29351",
"u 	c #AF8C4F",
"v 	c #AB844B",
"w 	c #A47B3F",
"x 	c #A2783A",
"y 	c #9F7635",
"z 	c #A17738",
"A 	c #A37B3B",
"B 	c #A68140",
"C 	c #AD8B49",
"D 	c #B29350",
"E 	c #B49652",
"F 	c #B49753",
"G 	c #AF8E4F",
"H 	c #A88246",
"I 	c #A37B3D",
"J 	c #A17839",
"K 	c #B19050",
"L 	c #B39552",
"M 	c #B08F4D",
"N 	c #A98544",
"O 	c #A57E3D",
"P 	c #A47D3C",
"Q 	c #A78241",
"R 	c #AD8C4A",
"S 	c #B29451",
"T 	c #B59853",
"U 	c #B39451",
"V 	c #B08F50",
"W 	c #A88146",
"X 	c #A47B3E",
"Y 	c #A37A3C",
"Z 	c #A07636",
"` 	c #A88145",
" .	c #AC8949",
"..	c #AE8D4B",
"+.	c #AE8C4D",
"@.	c #AF8D4F",
"#.	c #B49653",
"$.	c #B19151",
"%.	c #AF8C4E",
"&.	c #AD8A4C",
"*.	c #A67E44",
"=.	c #A67F44",
"-.	c #B08E4F",
";.	c #AE8B4D",
">.	c #AE8E4B",
",.	c #B69953",
"'.	c #B59953",
").	c #B59753",
"!.	c #AE8C4E",
"~.	c #AE8A4E",
"{.	c #A1783A",
"].	c #AB864B",
"^.	c #AA824B",
"/.	c #B2934F",
"(.	c #AF8F4D",
"_.	c #AB874A",
":.	c #AA8449",
"<.	c #AD8B4B",
"[.	c #B1924E",
"}.	c #B29450",
"|.	c #AB864C",
"1.	c #AA844B",
"2.	c #B49552",
"3.	c #AA8646",
"4.	c #A47D3E",
"5.	c #A57F3F",
"6.	c #A78240",
"7.	c #A88342",
"8.	c #AB8748",
"9.	c #AD8A4D",
"0.	c #B09050",
"a.	c #AD8A4E",
"b.	c #B39450",
"c.	c #B1924F",
"d.	c #AA8549",
"e.	c #AD894B",
"f.	c #B0904E",
"g.	c #AE8C4C",
"h.	c #A88149",
"i.	c #AF8E4E",
"j.	c #AB864A",
"k.	c #AC874B",
"l.	c #B0904F",
"m.	c #AB874B",
"n.	c #AC884C",
"o.	c #A78045",
"p.	c #A47D3D",
"q.	c #A78144",
"r.	c #AA834A",
"s.	c #B39452",
"t.	c #B08E50",
"u.	c #AB8849",
"v.	c #A88443",
"w.	c #A57F40",
"x.	c #A47C3E",
"y.	c #A57E3F",
"z.	c #A68040",
"A.	c #A47C3F",
"B.	c #A57D43",
"C.	c #AB8649",
"D.	c #A67F42",
"E.	c #A78043",
"F.	c #AC884B",
"G.	c #AC874A",
"H.	c #A67F43",
"I.	c #9E7433",
"J.	c #A3793D",
"K.	c #AC8A49",
"L.	c #AF8D4E",
"M.	c #A47C40",
"N.	c #A17838",
"O.	c #A27A3A",
"P.	c #A37C3B",
"Q.	c #A68042",
"R.	c #AA854A",
"S.	c #A27A3B",
"T.	c #A77F44",
"U.	c #AA844A",
"V.	c #B19250",
"W.	c #AF8E4D",
"X.	c #A98248",
"Y.	c #A67E45",
"Z.	c #AD894E",
"`.	c #AC894C",
" +	c #A88144",
".+	c #A88245",
"++	c #A57E41",
"@+	c #AA8548",
"#+	c #A98447",
"$+	c #A17739",
"%+	c #9E7432",
"&+	c #A88345",
"*+	c #AC8947",
"=+	c #A37B3A",
"-+	c #AB8749",
";+	c #A67E41",
">+	c #A67D43",
",+	c #A98545",
"'+	c #A78242",
")+	c #A57D3F",
"!+	c #A37A3E",
"~+	c #A27A39",
"{+	c #A98347",
"]+	c #A67E42",
"^+	c #A27A3C",
"/+	c #B49752",
"(+	c #AF8F4B",
"_+	c #A88247",
":+	c #A98247",
"<+	c #A27939",
"[+	c #B39652",
"}+	c #A07736",
"|+	c #AC8A47",
"1+	c #AD8A4B",
"2+	c #A57E3E",
"3+	c #A37B3F",
"4+	c #A47C41",
"5+	c #9F7434",
"6+	c #AE8D4A",
"7+	c #AA8645",
"8+	c #A68043",
"9+	c #AE8B4C",
"0+	c #A98346",
"a+	c #AB8846",
"b+	c #A88244",
"c+	c #B39351",
"d+	c #9E7332",
"e+	c #B39551",
"f+	c #A88543",
"g+	c #A78044",
"h+	c #A57E42",
"i+	c #A17837",
"j+	c #B1914F",
"k+	c #AD894C",
"l+	c #AD884C",
"m+	c #AE8D4D",
"n+	c #A37C3D",
"o+	c #A27938",
"p+	c #B39651",
"q+	c #AA8746",
"r+	c #A78042",
"s+	c #AC884A",
"t+	c #A88344",
"u+	c #080808",
"v+	c #B29151",
"w+	c #B69954",
"x+	c #AA834C",
"y+	c #A98645",
"z+	c #AA8448",
"A+	c #AA8745",
"B+	c #AB8946",
"C+	c #AB8947",
"D+	c #B29250",
"E+	c #AB854B",
"F+	c #A37B3C",
"G+	c #A17939",
"H+	c #EF7B00",
"I+	c #A78143",
"J+	c #A98644",
"K+	c #AD8B4C",
"L+	c #AA8649",
"M+	c #AD8B4A",
"N+	c #B1904F",
"O+	c #EFEF00",
"P+	c #CE3900",
"Q+	c #A9834A",
"R+	c #AC894B",
"S+	c #AB8747",
"T+	c #4A4A4A",
"U+	c #AB8847",
"V+	c #A98444",
"W+	c #AA8747",
"X+	c #A47D3F",
"Y+	c #6B7B7B",
"Z+	c #292929",
"`+	c #A98643",
" @	c #A98546",
".@	c #AA8349",
"+@	c #B08F4E",
"@@	c #AE8B4F",
"#@	c #AC864D",
"$@	c #B0914E",
"%@	c #A78341",
"&@	c #A88442",
"*@	c #A88341",
"=@	c #AB8848",
"-@	c #AE8A4D",
";@	c #A67F41",
">@	c #A98448",
",@	c #B1934F",
"'@	c #EFDEBD",
")@	c #BD6B39",
"!@	c #B18F50",
"~@	c #B59854",
"{@	c #AF8E4C",
"]@	c #AD8A4A",
"^@	c #A68240",
"/@	c #8C1800",
"(@	c #A98547",
"_@	c #AA8647",
":@	c #AD8C4B",
"<@	c #B0914D",
"[@	c #A88343",
"}@	c #DEAD7B",
"|@	c #181818",
"1@	c #B19251",
"2@	c #B0904D",
"3@	c #0018EF",
"4@	c #A98349",
"5@	c #A57F3E",
"6@	c #6B0000",
"7@	c #AA8547",
"8@	c #9F7634",
"9@	c #AC8948",
"0@	c #A47C3D",
"a@	c #B49651",
"b@	c #AE8D4C",
"c@	c #AF8E4B",
"d@	c #A88048",
"e@	c #A37D3B",
"f@	c #A57D3E",
"g@	c #A07836",
"h@	c #A07738",
"i@	c #A27B39",
"j@	c #AC8A48",
"k@	c #AD8C49",
"l@	c #AD8B48",
"m@	c #B59752",
"n@	c #AC8B48",
"o@	c #A78142",
"p@	c #A9824B",
"q@	c #AA8845",
"r@	c #A47B40",
"s@	c #A47B41",
"t@	c #A1773A",
"u@	c #AA8744",
"v@	c #A68041",
"w@	c #AB8A47",
"x@	c #B08E4E",
"y@	c #A37C3C",
"z@	c #B0904C",
"A@	c #A17937",
"B@	c #A5803E",
"C@	c #A67F40",
"D@	c #AE8D49",
"E@	c #A78140",
"F@	c #AA8846",
"G@	c #A78340",
"H@	c #B39550",
"I@	c #B2924F",
"J@	c #AD8B4D",
"K@	c #AC8B49",
"          . + @ # $ $ $ # % & *                                                                                                     ",
"  * = - ; > , $ ' ) ! ~ { ] ^ / (           _ . ; ; = *     : < [ [ [ [ / } ; | 1 2 3 [ 3 3 3 3 3 [ [ [ 3 (   4 . = 5               ",
"  = 6 7 7 8 9 $ ' 0 a b c c d e f g       5 h i , 7 j k     l m n n n n o p 7 q r s e t n n n n n n n t e u v h w j 4               ",
". > x $ $ y z 8 A B C D E F E t G [ l 3 3 / H I J , 6 =     3 K L F F L M N O P Q R S F T T T T T E U U t V [ W X 6 k               ",
"Y x Z # ' % w `  ...+.@.t #.$.%.G e n n n e &.H *.=.. *     : [ -.L L m ;...>.b ..+.@.t T ,.'.'.).n !.~.f -.K &.H . *               ",
"{.{.J J J + h ].-.e @.~.m n G ~.K E E L E E K ( ^.  v ( ( v g / f e e !.f K D /.(._.:.<.d [.[.}.t %.: : 3 G n @.: ^.  : / |.1.v ( < ",
"*.*.*.*.*.h 4 g 3 !.V K @.!.G e 2.).t -.n E e <   1.[ m @.< < G V @.@.V K G &.3.Q 4.X 5.6.6.7.8.[ < : 9.V m !.l g     3 -.@.( < -.e ",
". = _   : |.v 1.|.[ 0.n @.a.-.t b.c.<.d.e.f.g.:.h.  a.e i.j.k.l.m m.j.m K n.o.Y Z $ ) z 8 A p.q.r.  g !.e @.|.      1.9.e K ~.f e s.",
"i j = ( @.-.3 ( f V -.@.m K t.!.u.v.w.x.y.Q z.A.B.4 ( 9.C.D.E.F.G.H.D._.F.q.7 9 ' I.Z J.H.3.K._.  ^.  < ~.l   ^.      ( ~.G K K @.u ",
"@ , h / V K n.2 L.e &.2 L.e +.} M.N.y ) % J O.P.Q.R.< / H S.7 =.h i + T.h Y y $ @ Z , > U.L.V.@.< ( ( / < < ( 1._ _     v [ f.W.j.X.",
"I.{.Y.: Z.`. +D.C.&..+++@+&.#+w $+$ %+$ {.& &+*+..m K m 8.=+Z q w 6 6 w 7 9 I.I.Z + *.= v 3 u m K K K K K K m -+;+>+4     :.,+'+)+!+",
"~+4.{+( < :.x.8 ]+- M.^+]+W M.% $ $ y $+M.X.9.V.L /+T /+(+B 0 J A._+:+A.J <+<+N., *.*     : 3 -.U E /+E L E [+R ] ++X.  4 > , }+) ) ",
"|+R W.V V 1+2+Z {.3+4+6 M.!+$+5+%+@ , & ; r.< u n F ,.T }.6+7+8+H 9+;.0+E.7+a+b+=.=     : ~.V -.-.t F c+V n /+/.R u.U.. 6 q @ d+%+I.",
"U e+E F ).[.f+~+z ^+g+X.h+8 N.0 i+J 6 =     g / @.U F T T E j+k+[ K e 9.l+m j+k+r.5   * U.+.j+!./ G t -.l %.U e+/.m+U.=.n+~+~+o+o+o+",
"G K E '.'.p+(+q+r+E.s++.@+D.t+q+t+> ; u+  g 3 @.t.-.v+E '.w+#.n V -.-.V V V u < g x+* h ++'+y+z+  l f 3 g < !.<.a+'+r Q.A+B+B+B+C+C+",
"/ f n E T T /+D ;./ -.D+!.k.L.j++.U.* u+u+r.&.j+i.u+u+t E E E L e [ [ K e ~.E+r._ _ . w z i+F+g+1.( ( : 1.g 1.o.I G+! v.(.e+e+e+U }.",
"-.-.-.K L T w+).t V -.-.m V V u+u+u+u+H+u+u+I+J+u+u+H K+-.-.-.-.f ( ( f u < _ Y.6 6 w J ) {.& L+L.-.@.[ 1.^.* | j Q.7+M+i.t ).#.v+V ",
"}.N+9.[ e E F E E t f 3 -.n u+H+O+H+u+H+O+P+u+u+H+u+u+u+u+: : : v r.Q+r.U.r.- i % Z Z Z J j R.-.L F L -./ g :   r.R+f.W.F.9.V.e [ : ",
"B+S+:.: ~.-.m m V @.l : ~.@.Z.u+H+O+P+H+O+H+P+P+H+P+u+u+u+T+^.^.= *.6 4+6 6 X z # %+@ x ++C.-.s.T ,.T t m @.@.[ : d.U+V+]+Q.,+W+U.  ",
"O.X+_+: ( / ( |.|.:   r.u+u+u+H+u+O+O+H+H+O+H+P+P+u+u+u+u+u+Y+Y+Y+A.<+J J J z 9 Z ) J j R.@.U E F ).T F E E L V / W 4.! O.O.A r 1   ",
"3+H.s+L.@.~.|.^.^.* h j 6 u+H+O+H+H+O+O+H+O+H+H+P+u+u+Z+@.u+u+u+u+Y+Y+Y+u+u+u+u+M.w D._.@.V K K K s.T '.'.,.T s.m 1+A+a `+`+`+ @.@  ",
"k m.N+2.E n f g   _ & u+u+H+O+O+O+H+H+O+H+H+O+O+P+u+P+u+u+T+T+T+[ u+u+u+u+u+u+= = . :.o e %.|.E+/ m E ).F ).F E L U D D }.}./.+@n.v ",
"  [ t T '.E e f ( r.^ 7.u+u+O+H+H+O+H+H+H+H+H+P+H+H+u+P+u+u+u+u+u+T+T+T+@@#@r.; > B.E.3.U+&+j 6 > C.G K K K K K K K e s.).#.n V @.u ",
"  3 n ).T T E n ~./ L.$@&.u+H+O+H+H+H+H+H+P+H+u+Z+Z+Z+u+u+u+E L u+u+u+u+u+T+T+w J z J =+P.O.8 J Y g+].< ( ( ( ( ( ( / @.U n f f e s.",
"  < @.n E T './+e -.U u+u+O+P+H+O+O+H+O+H+u+u+u+Z+Z+u+u+u+l.e e e e l.>.u+u+u+u+) J i z.%@&@*@%@v.=@9.<   ^.^.^.^.^.  3 -.u ( < @.e ",
"r.  E+-@n ).T F 2.L E F u+P+O+H+Z+Z+Z+Z+O+O+H+u+u+u+u+u+u+u+u+< / / z+;@P.O.J Z J & >@g.d /.,@,@/.b.t @.|.  1.1.1.    1.|.E+  1.|./ ",
"> >+>+H 9+K $.$.v+v+$.$.n u+P+Z+'@'@Y+Z+Z+H+u+u+u+)@H+u+u+u+u+u+u+| j w x.] B X+++d.%.!@n #.~@w+'.,.T n u f f f f j.o.>+>+>+*.| 4 ^.",
"8 x x A.{+/ l / / / / / < ].u+Y+'@Y+Y+u+u+u+H+H+u+)@)@u+Z+u+Y+T+T+u+u+u+u+u+{@-+:.o e L.-@K /+T T T ).E L s.s.L t ]@y.{.{.{.8 M.1   ",
"6.^@6.v.s+n.} =.*.*.*.*.*.B.u+Z+Y+Z+u+u+Y+/@u+)@)@u+)@u+u+Y+T+T+Z+Z+Z+u+u+u+u+u+u+u+C (@` _@..f.e n n L T '.T E D+:@f+^@^@^@6.V+F.f ",
"<@<@<@[.D (.[@, {.{.{.{.x J % u+u+)@/@u+'@}@}@/@/@/@u+|@|@Y+T+Z+Z+Z+Z+Z+Z+Z+Z+T+T+u+u+u+u+u+5.0+/ l [ K E '.).1@f ;.2@<@<@<@<@[.D U ",
"n n n t t i.t++ 7 7 7 7 7 7 7 7 u+/@)@3@'@)@/@)@/@u+|@|@|@T+T+Z+Z+|@|@|@|@|@T+u+u+u+/@)@}@/@u+.+* ^.1.~.e t e !.|.[ K t n n n n n n ",
"[ [ [ [ [ / 4@; | ; ; ; ; ; ; ; ; u+'@'@}@/@/@/@u+u+|@|@u+u+T+Z+|@u+|@Z+Z+T+u+u+u+/@}@'@'@}@/@u+1.^.  |.l [ 3 ( 1.: l [ [ [ [ [ [ [ ",
"      * . h h h h ; _             u+u+}@)@)@)@u+u+u+u+|@|@u+u+Z+|@u+|@Z+Z+T+u+/@/@/@)@/@/@u+u+u+~.[ [ |.1.|.3 / 1.                  ",
"      = 4+, , , , i h               |@|@|@|@|@, u+u+u+u+u+Z+Z+u+u+u+u+u+Z+T+u+|@u+u+'@'@)@u+T 2.t t n f |.~.K @.:                   ",
"  g < j.p 5@{ ~ A + Y.r.( 3 [ n.U.1 ; h w Z ' $ 0 u+Z+Y+Z+Z+|@u+6@6@6@u+u+u+u+u+u+Z+|@u+u+c+U E T T F e f @.e V ~.3 3 3 3 [ [ < :   ",
"  / -.e 2@(+(+R 7@; = E+%.e t N+_@x., , z $ I.8@5@u+u+Z+Y+Z+u+u+6@6@6@6@6@6@/@u+u+u+1./ [ [ f n ).'.T E t -.f @.e n n n n n n -.<   ",
"  < m U /+/+L V.%.3 l a.m c+F e+9@0@{.8 A P P { A+f.u+u+Z+Y+Z+/@/@6@6@6@6@6@6@/@/@|@|@_     : %.t U U U t m ~.@.n 2.).T T a@c.g.z+. ",
"  : 3 G s.E K u V n n e G @.t 2.b@W *.o._@R c@>.b@f f u+u+/@Y+/@/@/@u+u+u+u+u+u+u+|@u+u+*     / 9.~.~.~.f -.K m %.K E w+T [.A+5.n++ ",
"  v ( f e n @.9.i.d [.2@s+z+1+(.1+X.d@  ~.V.U t -.(     1.u+Y+6@/@u+Z+|@|@|@|@|@|@u+u+u+|.:             : f e V ~.@.n U [.|+e@$ $ $ ",
"  < @.0.@.u V +@C+&@%@6.f@I y.B y.w *.5 < ~.u f 3 g       u+u+Y+u+Z+Z+u+u+/@/@6@6@6@6@6@u+[ 1.^.^.^.^.^.  ( f -.K V !.s+v.~ g@' ' # ",
"= j.m N+F.2 b@>.6.}+$ }+~+P.P P P.p.q.].|.1.r.X.= = = = = 1 u+u+u+u+P+H+H+P+P+6@6@6@6@6@u+-.l / / / / :   _ _ R+M b@:.j J 8@$ ) h@J ",
"i H._.F.g+X+B B i@$ d+}+6.j@k@C l@k@{@m f 1.h w + + + + + u+u+P+P+H+H+H+H+P+P+/@6@6@6@6@u+U e K e e 0.~.1.Y.w y.Q z.X {.@ I.# J M.> ",
"y , > h Y Z ) ) $ y i+{ k@e+m@/+/+/+).E K n.o.Y <+=+P.P.|@P+P+H+H+H+H+H+P+P+/@/@6@6@6@u+2.E F u+u+u+u+K n.` p.P.P.=+G+$+z z z i ; 5 ",
"' Z q q 9 I.d+d+d+i+6.k@/.T w+w+w+w+w+T 2.K s+o.b+C+n@|@P+P+P+H+H+H+H+P+/@/@/@6@6@6@u+u+-.u+u+u+u+u+u+L e W.k@n@j@3.E.j j j B.h 4   ",
"h@N.O.! ~+~+~+~+~+O j@D /+).F E 2.E E 2.2.U -.n.;.V.e+|@P+P+P+P+P+P+/@/@/@/@6@6@u+u+u+u+u+u+u+u+Z+u+u+2.L U U U t i.].r.E+E+E+E+|.|.",
"j E.3.|+|+|+|+|+|+K.g.m s.E n G u @.@.@.@.@.V K V t.n |@P+P+P+/@P+/@/@/@/@u+u+u+6@6@6@6@u+Z+Z+u+Z+Z+u+u+@.@.@.G @.Z.: < @.K K 0.0.0.",
"E+k+l.U p+a@a@a@E S !.3 K L -.( v v 1.r.4@U.&.j+o m.9.|@/@P+P+/@/@/@/@u+u+P+6@/@6@6@6@6@u+)@Z+u+u+Z+u+u+: g g g g : |.f n E E E L L ",
"K V t.e E w+w+w+w+E %./ V L -.: ^.5 | 6 w M.o@N '+& ` &.u+u+/@/@/@/@/@P+P+/@/@6@6@6@6@6@u+)@u+u+Z+Z+u+u+  p@^.p@  l @.V V n F E e G ",
"}.l.[ [ e E /+E /+U f / -.t %.r._ = 6 $+Z Z z <+<+O.++4@: : u+u+u+u+P+P+/@/@/@6@6@6@6@u+u+u+u+Z+Z+u+u+u+< : : 1.1.9.j+i.k.&.j+j+[ : ",
"q@W+:.: ~.@.-.-.t.@.l : a.!.@+]+4+M., y I.$ z X r+J+_@r.^.^.^.u+6@6@u+u+u+u+u+u+u+u+u+u+u+_.u+Z+u+u+u+u+V -.@.[ v d.3.[@++;@N _@:.  ",
"O.X+_+: ( ( E+U.U.U.r.* r.} & z Z Z ) $ $ % w 1 9.c.l.3 : : g   u+/@6@6@6@6@6@6@u+Z {.]+2 G u+Z+Z+Z+u+u+E /+2.0./ W 4.! O.O.A r 1   ",
"w E.R+G -.&.H 6 r@s@4+4+4+w t@5+%+I.I.$ J w Y.r.u 2.2.K -.G f : :.u+/@/@6@6@6@6@6@u+]+C.@.V u+/@)@/@u+u+w+w+T L m <.a+u@u@u@u@3.:.  ",
"_ ].m L 2.f.[@8 J <+<+<+<+<+N.i+g@}+}+% A.1 r.1.f U E L L L K [ [ l.u+u+/@6@6@6@u+u+u+m t -.l u+u+u+u+E a@a@a@E L U }.D D }.D +@/   ",
"  ( %.K K +.&+r Q `+J+`+`+`+J+J+J+a v@& {+9.[ : < @.K K K K V -.-.V @.< u+/@/@u+u+)@u+u+F t @.< v C.9@|+|+w@|+R x@V V V V K K u (   ",
"  1.: |.( E+r.R.m+/.D /././.}.}.b./.+.j.;.n V / : |.|.E+E+E+9.j+K -@: 1.< u+u+)@)@u+u+u+u+E D+f .@]+A ~+~+i@y@I+j.< < < < / ( : 1.  ",
"    ^.^.^.^.^.: f K K K K n 2.T w+T t V n F s.-.[ g = *.j B.q.U+ .R.^.^.u+T+Z+Z+T+u+u+u+u+{@j@^ ]+, $ d+$ =+%@=@;.%.!.%.!.[ g ^.^.  ",
"5     1.1.1.1.g ( < < / ( n.m E T ).E L E F E U -.E+*.7 z z G+A w.:+1.u+u+u+Z+Z+u+u+u+u+R.Q.A G+z 9 ) $ i+&@z@U e+L L L s.V l 1.1.1.",
"> W F.!.%.!.!.!.!.f f [ } o._.m e K e e e e $.K &.` !+Z %+I.A@B@7+1+u+Z+Z+Z+T+T+Z+Z+u+B.4+{.5+d+$ $+I w.v.K.l.s.T ,.T E n V @.f f f ",
"J C@..U L s.s.U U s.L j+y+x.g+].< / / / / ( / ].` Y % ) $ ) 5@k@/.u+)@Z+}@)@T+T+Z+u+8 J J % ) 8@% w 1 1+f.i.9.-.2.T ).n f f n L L L ",
"+ Q.<.e n e e e e n E p+D@N 8.[ <   . *.>+>+*.>+!+9 9 , 4.E@F@W.v+u+u+u+u+u+u+u+u+3.%@G@%@%@%@%@7.0+1.~.K V %.@.K e e %.( ~.s.w+w+'.",
". _ E+< l < < < < ~.$.E H@c.D t u U.>+7 J x x {.% Z 7 =._.W.+@9.< < < < f t F E S I@[.[.[.[.[.[.f.J@E+: l @.n V [ < < : 1.9.t T T T ",
"                ^.: !.e n t E E V v *.X 4.] 5@I 7 + j _ 3 V -./         ( @.n n n n n n n n n n $.f g ^.1.~.V %.:     4 ; ^ K@b b b ",
"                  1.|.l l ~.e L -.E+h.= s+{@<.} ; . k r.: < / v         1.( l l l l l l l l l 3 l |.      : < ( 1.    | i S.P ~ ~ ~ ",
"                          : !.K f g ^.v ~.K @.|.                        * . h h h h h h h h h h | = r.                ; w , , 7 7 7 ",
"                            |.l |.1.    |.l / v                         = M., {.x x x x x x x {.7 > *                 _ . ; | | | | ",
"                                                                        . Y @ # $ $ $ $ $ $ $ # 9 6 _                               "};
