/* XPM */
static char * p_mov_right_2_xpm[] = {
"66 66 345 2",
"  	c #AA834B",
". 	c #A88047",
"+ 	c #A37A3D",
"@ 	c #9F7535",
"# 	c #9F7533",
"$ 	c #9F7534",
"% 	c #A07737",
"& 	c #A57D41",
"* 	c #A9824A",
"= 	c #A88148",
"- 	c #A88046",
"; 	c #A78046",
"> 	c #A67E43",
", 	c #A2793B",
"' 	c #9F7433",
") 	c #A07635",
"! 	c #A27B3A",
"~ 	c #A47E3D",
"{ 	c #A57F3D",
"] 	c #A6803F",
"^ 	c #A98446",
"/ 	c #AC874C",
"( 	c #AC864C",
"_ 	c #A98249",
": 	c #AB854C",
"< 	c #AC874D",
"[ 	c #AD894D",
"} 	c #A98348",
"| 	c #A77F46",
"1 	c #A88147",
"2 	c #AB854A",
"3 	c #AD884D",
"4 	c #A98149",
"5 	c #AA824A",
"6 	c #A57C41",
"7 	c #A2793C",
"8 	c #A2793A",
"9 	c #A07637",
"0 	c #A17938",
"a 	c #A98543",
"b 	c #AE8E4A",
"c 	c #AF8F4C",
"d 	c #B1914E",
"e 	c #B19150",
"f 	c #AE8B4E",
"g 	c #AB844C",
"h 	c #A77F45",
"i 	c #A37B3E",
"j 	c #A57D42",
"k 	c #A98148",
"l 	c #AC884D",
"m 	c #B08F4F",
"n 	c #B29251",
"o 	c #AF8D4D",
"p 	c #A78243",
"q 	c #A2783B",
"r 	c #A57E40",
"s 	c #AC894A",
"t 	c #B29351",
"u 	c #AF8C4F",
"v 	c #AB844B",
"w 	c #A47B3F",
"x 	c #A2783A",
"y 	c #9F7635",
"z 	c #A17738",
"A 	c #A37B3B",
"B 	c #A68140",
"C 	c #AD8B49",
"D 	c #B29350",
"E 	c #B49652",
"F 	c #B49753",
"G 	c #AF8E4F",
"H 	c #A88246",
"I 	c #A37B3D",
"J 	c #A17839",
"K 	c #B19050",
"L 	c #B39552",
"M 	c #B08F4D",
"N 	c #A98544",
"O 	c #A57E3D",
"P 	c #A47D3C",
"Q 	c #A78241",
"R 	c #AD8C4A",
"S 	c #B29451",
"T 	c #B59853",
"U 	c #B39451",
"V 	c #B08F50",
"W 	c #A88146",
"X 	c #A47B3E",
"Y 	c #A37A3C",
"Z 	c #A07636",
"` 	c #A88145",
" .	c #AC8949",
"..	c #AE8D4B",
"+.	c #AE8C4D",
"@.	c #AF8D4F",
"#.	c #B49653",
"$.	c #B19151",
"%.	c #AF8C4E",
"&.	c #AD8A4C",
"*.	c #A67E44",
"=.	c #A67F44",
"-.	c #B08E4F",
";.	c #AE8B4D",
">.	c #AE8E4B",
",.	c #B69953",
"'.	c #B59953",
").	c #B59753",
"!.	c #AE8C4E",
"~.	c #AE8A4E",
"{.	c #A1783A",
"].	c #AB864B",
"^.	c #AA824B",
"/.	c #B2934F",
"(.	c #AF8F4D",
"_.	c #AB874A",
":.	c #AA8449",
"<.	c #AD8B4B",
"[.	c #B1924E",
"}.	c #B29450",
"|.	c #AB864C",
"1.	c #AA844B",
"2.	c #B49552",
"3.	c #AA8646",
"4.	c #A47D3E",
"5.	c #A57F3F",
"6.	c #A78240",
"7.	c #A88342",
"8.	c #AB8748",
"9.	c #AD8A4D",
"0.	c #B09050",
"a.	c #AD8A4E",
"b.	c #B39450",
"c.	c #B1924F",
"d.	c #AA8549",
"e.	c #AD894B",
"f.	c #B0904E",
"g.	c #AE8C4C",
"h.	c #A88149",
"i.	c #AF8E4E",
"j.	c #AB864A",
"k.	c #AC874B",
"l.	c #B0904F",
"m.	c #AB874B",
"n.	c #AC884C",
"o.	c #A78045",
"p.	c #A47D3D",
"q.	c #A78144",
"r.	c #AA834A",
"s.	c #B39452",
"t.	c #B08E50",
"u.	c #AB8849",
"v.	c #A88443",
"w.	c #A57F40",
"x.	c #A47C3E",
"y.	c #A57E3F",
"z.	c #A68040",
"A.	c #A47C3F",
"B.	c #A57D43",
"C.	c #AB8649",
"D.	c #A67F42",
"E.	c #A78043",
"F.	c #AC884B",
"G.	c #AC874A",
"H.	c #A67F43",
"I.	c #9E7433",
"J.	c #A3793D",
"K.	c #AC8A49",
"L.	c #AF8D4E",
"M.	c #A47C40",
"N.	c #A17838",
"O.	c #A27A3A",
"P.	c #A37C3B",
"Q.	c #A68042",
"R.	c #AA854A",
"S.	c #A27A3B",
"T.	c #A77F44",
"U.	c #AA844A",
"V.	c #B19250",
"W.	c #AF8E4D",
"X.	c #A98248",
"Y.	c #A67E45",
"Z.	c #AD894E",
"`.	c #AC894C",
" +	c #A88144",
".+	c #A88245",
"++	c #A57E41",
"@+	c #AA8548",
"#+	c #A98447",
"$+	c #A17739",
"%+	c #9E7432",
"&+	c #A88345",
"*+	c #AC8947",
"=+	c #A37B3A",
"-+	c #AB8749",
";+	c #A67E41",
">+	c #A67D43",
",+	c #A98545",
"'+	c #A78242",
")+	c #A57D3F",
"!+	c #A37A3E",
"~+	c #A27A39",
"{+	c #A98347",
"]+	c #A67E42",
"^+	c #A27A3C",
"/+	c #B49752",
"(+	c #AF8F4B",
"_+	c #A88247",
":+	c #A98247",
"<+	c #A27939",
"[+	c #B39652",
"}+	c #A07736",
"|+	c #AC8A47",
"1+	c #AD8A4B",
"2+	c #A57E3E",
"3+	c #A37B3F",
"4+	c #A47C41",
"5+	c #9F7434",
"6+	c #AE8D4A",
"7+	c #AA8645",
"8+	c #A68043",
"9+	c #AE8B4C",
"0+	c #A98346",
"a+	c #AB8846",
"b+	c #A88244",
"c+	c #080808",
"d+	c #B39351",
"e+	c #9E7332",
"f+	c #B39551",
"g+	c #A88543",
"h+	c #A78044",
"i+	c #A57E42",
"j+	c #A17837",
"k+	c #B1914F",
"l+	c #AD894C",
"m+	c #AD884C",
"n+	c #AE8D4D",
"o+	c #A37C3D",
"p+	c #A27938",
"q+	c #B39651",
"r+	c #AA8746",
"s+	c #A78042",
"t+	c #AC884A",
"u+	c #A88344",
"v+	c #B29151",
"w+	c #B69954",
"x+	c #EF7B00",
"y+	c #AA8745",
"z+	c #AB8946",
"A+	c #AB8947",
"B+	c #B29250",
"C+	c #AB854B",
"D+	c #CE3900",
"E+	c #EFEF00",
"F+	c #A17939",
"G+	c #AA834C",
"H+	c #A78143",
"I+	c #A98644",
"J+	c #A88343",
"K+	c #AD8B4C",
"L+	c #AD8B4A",
"M+	c #B1904F",
"N+	c #A98349",
"O+	c #6B7B7B",
"P+	c #A9834A",
"Q+	c #AC894B",
"R+	c #AB8747",
"S+	c #A07738",
"T+	c #A68041",
"U+	c #AA8547",
"V+	c #AA8349",
"W+	c #292929",
"X+	c #4A4A4A",
"Y+	c #AB8847",
"Z+	c #A98444",
"`+	c #AA8747",
" @	c #A47D3F",
".@	c #A98643",
"+@	c #A98546",
"@@	c #B08F4E",
"#@	c #A57C40",
"$@	c #AE8A4D",
"%@	c #AC864D",
"&@	c #B0914E",
"*@	c #AC8948",
"=@	c #AB8948",
"-@	c #EFDEBD",
";@	c #181818",
">@	c #8C1800",
",@	c #BD6B39",
"'@	c #DEAD7B",
")@	c #AD8A4A",
"!@	c #A68240",
"~@	c #A27B39",
"{@	c #0018EF",
"]@	c #AD8C4B",
"^@	c #B0914D",
"/@	c #B19251",
"(@	c #B0904D",
"_@	c #AA8647",
":@	c #A67F45",
"<@	c #A57F3E",
"[@	c #6B0000",
"}@	c #A47C3D",
"|@	c #B49651",
"1@	c #AA8448",
"2@	c #AE8D4C",
"3@	c #A88048",
"4@	c #A37D3B",
"5@	c #A88442",
"6@	c #A78341",
"7@	c #AD8D49",
"8@	c #A07836",
"9@	c #B59752",
"0@	c #9F7634",
"a@	c #AD8C49",
"b@	c #AC8B48",
"c@	c #AC8A48",
"d@	c #A67F40",
"e@	c #A57D40",
"f@	c #A37B3C",
"g@	c #AE8C4B",
"h@	c #A9824B",
"i@	c #AA8845",
"j@	c #A47B40",
"k@	c #A67F41",
"l@	c #A47B41",
"m@	c #A1773A",
"n@	c #AA8744",
"o@	c #AB8A47",
"p@	c #B08E4E",
"q@	c #A37C3C",
"r@	c #AB8848",
"s@	c #B0904C",
"t@	c #A17937",
"u@	c #A5803E",
"v@	c #A98645",
"w@	c #AE8D49",
"x@	c #A78140",
"y@	c #AA8846",
"z@	c #B39550",
"A@	c #B2924F",
"B@	c #AD8B4D",
"C@	c #AC8B49",
"D@	c #AF8E4C",
"          . + @ # $ $ $ # % & *                                                                                                     ",
"  * = - ; > , $ ' ) ! ~ { ] ^ / (           _ . ; ; = *     : < [ [ [ [ / } ; | 1 2 3 [ 3 3 3 3 3 [ [ [ 3 (   4 . = 5               ",
"  = 6 7 7 8 9 $ ' 0 a b c c d e f g       5 h i , 7 j k     l m n n n n o p 7 q r s e t n n n n n n n t e u v h w j 4               ",
". > x $ $ y z 8 A B C D E F E t G [ l 3 3 / H I J , 6 =     3 K L F F L M N O P Q R S F T T T T T E U U t V [ W X 6 k               ",
"Y x Z # ' % w `  ...+.@.t #.$.%.G e n n n e &.H *.=.. *     : [ -.L L m ;...>.b ..+.@.t T ,.'.'.).n !.~.f -.K &.H . *               ",
"{.{.J J J + h ].-.e @.~.m n G ~.K E E L E E K ( ^.  v ( ( v g / f e e !.f K D /.(._.:.<.d [.[.}.t %.: : 3 G n @.: ^.  : / |.1.v ( < ",
"*.*.*.*.*.h 4 g 3 !.V K @.!.G e 2.).t -.n E e <   1.[ m @.< < G V @.@.V K G &.3.Q 4.X 5.6.6.7.8.[ < : 9.V m !.l g     3 -.@.( < -.e ",
". = _   : |.v 1.|.[ 0.n @.a.-.t b.c.<.d.e.f.g.:.h.  a.e i.j.k.l.m m.j.m K n.o.Y Z $ ) z 8 A p.q.r.  g !.e @.|.      1.9.e K ~.f e s.",
"i j = ( @.-.3 ( f V -.@.m K t.!.u.v.w.x.y.Q z.A.B.4 ( 9.C.D.E.F.G.H.D._.F.q.7 9 ' I.Z J.H.3.K._.  ^.  < ~.l   ^.      ( ~.G K K @.u ",
"@ , h / V K n.2 L.e &.2 L.e +.} M.N.y ) % J O.P.Q.R.< / H S.7 =.h i + T.h Y y $ @ Z , > U.L.V.@.< ( ( / < < ( 1._ _     v [ f.W.j.X.",
"I.{.Y.: Z.`. +D.C.&..+++@+&.#+w $+$ %+$ {.& &+*+..m K m 8.=+Z q w 6 6 w 7 9 I.I.Z + *.= v 3 u m K K K K K K m -+;+>+4     :.,+'+)+!+",
"~+4.{+( < :.x.8 ]+- M.^+]+W M.% $ $ y $+M.X.9.V.L /+T /+(+B 0 J A._+:+A.J <+<+N., *.*     : 3 -.U E /+E L E [+R ] ++X.  4 > , }+) ) ",
"|+R W.V V 1+2+Z {.3+4+6 M.!+$+5+%+@ , & ; r.< u n F ,.T }.6+7+8+H 9+;.0+E.7+a+b+=.=     : c+V -.-.t F d+V n /+/.R u.U.. 6 q @ e+%+I.",
"U f+E F ).[.g+~+z ^+h+X.i+8 N.0 j+J 6 =     g / @.U F T T E k+l+[ K e 9.m+m k+l+r.5   * U.c+c+c+/ c+t c+l %.U f+/.n+U.=.o+~+~+p+p+p+",
"G K E '.'.q+(+r+s+E.t++.@+D.u+r+u+> ; r.  g 3 @.t.-.v+E '.w+#.n V -.-.V V V u c+c+c+* h ++c+x+c+c+c+f c+g < !.<.a+'+r Q.y+z+z+z+A+A+",
"/ f n E T T /+D ;./ -.B+!.k.L.k++.U.*   * r.&.k+i.k.9.t E E E L e [ [ K e ~.C+r.c+D+c+c+c+D+E+c+x+E+c+x+c+g c+o.I F+! v.(.f+f+f+U }.",
"-.-.-.K L T w+).t V -.-.m V V -.Z.: G+  . ]+H+I+J+++H K+-.-.-.-.f ( ( f u < _ Y.6 c+D+D+D+x+E+D+E+x+c+x+c+c+c+| j Q.7+L+i.t ).#.v+V ",
"}.M+9.[ e E F E E t f 3 -.n @.(   * * 4 j {.j+<+~+O.++N+: : O+O+v r.P+r.U.r.- i c+c+c+x+x+x+x+D+E+c+x+x+c+E+c+  r.Q+f.W.F.9.V.e [ : ",
"z+R+:.: ~.-.m m V @.l : ~.@.Z.  | j & 6 , Z S+i T+N U+V+^.^.W+W+O+*.6 4+6 6 X X+W+c+c+D+x+x+D+x+E+x+E+x+D+E+c+[ : d.Y+Z+]+Q.,+`+U.  ",
"O. @_+: ( / ( |.|.:   r.U.1.1.k & J 9 % Z % !+1 &.c+c+c+c+v g   W+O+X+X+X+X+X+c+c+D+x+E+E+x+x+x+E+E+E+D+E+x+c+V / W 4.! O.O.A r 1   ",
"3+H.t+L.@.~.|.^.^.* h j 6 6 j M., $ %+$ z i *.r.u c+c+c+c+c+c+c+V+W+W+W+W+X+c+c+D+c+c+c+D+x+x+x+x+E+E+x+E+c+D+c+c+1+y+a .@.@.@+@V+  ",
"k m.M+2.E n f g   _ & 8 J J J $+% Z @ % A.1 r.1.f U F E c+c+c+c+c+c+X+X+c+c+c+c+c+W+W+W+c+D+D+x+x+x+E+x+x+D+c+E+c+U D D }.}./.@@n.v ",
"  [ t T '.E e f ( r.^ 7.w.X !+i w w w #@#+$@Z.: 3 -.d+).w+'.L c+c+c+c+c+c+%@r.c+c+c+W+W+c+c+c+x+x+x+E+E+x+D+E+c+K K e s.).#.n V @.u ",
"  3 n ).T T E n ~./ L.&@&.N+= = = 1 . X.&.e L.C+  ].%.U /+).E L L /+/+L e [ c+c+c+D+c+W+c+c+c+c+x+E+W+W+W+D+c+( ( ( / @.U n f f e s.",
"  < @.n E T './+e -.U F n u < 1.= T.> T.+@*@3.h+j >+.+=@c+c+c+c+c+c+c+c+c+c+M.c+x+x+D+c+c+c+c+x+E+W+W+O+-@c+^.^.^.^.  3 -.u ( < @.e ",
"r.  C+$@n ).T F 2.L E F E t f r.j , z J O.c+c+c+c+c+;@;@;@;@;@;@;@;@;@c+c+c+c+;@c+x+c+>@,@c+c+x+c+W+W+O+O+c+1.1.1.    1.|.C+  1.|./ ",
"> >+>+H 9+K $.$.v+v+$.$.n l.F.=.7 ) I.$ c+'@'@>@c+c+;@;@;@c+c+c+c+c+c+c+;@c+c+c+c+c+c+>@c+x+>@c+>@c+c+W+O+c+f f f j.o.>+>+>+*.| 4 ^.",
"8 x x A.{+/ l / / / / / < ].H.8 Z $ # c+c+,@>@>@c+c+;@c+c+c+c+c+c+c+>@>@>@c+c+c+c+c+c+>@c+x+>@,@>@O+c+c+c+s.s.L t )@y.{.{.{.8 M.1   ",
"6.!@6.v.t+n.} =.*.*.*.*.*.B.7 @ I.y ~@c+'@,@>@>@c+c+c+c+c+;@c+c+c+c+c+c+c+c+X+X+X+c+c+c+c+,@,@'@'@O+{@c+T '.T E B+]@g+!@!@!@6.Z+F.f ",
"^@^@^@[.D (.J+, {.{.{.{.x J % @ ' j+7.>.c+c+>@,@c+;@;@;@F L c+c+c+W+W+W+W+W+W+X+X+O+c+c+c+>@>@,@'@-@'@c+E '.)./@f ;.(@^@^@^@^@[.D U ",
"n n n t t i.u++ 7 7 7 7 7 7 7 7 , X _@m u ( c+c+@.( 3 0.c+c+;@W+X+X+W+W+W+W+W+X+X+O+c+c+c+c+,@,@,@'@c+~.e t e !.|.[ K t n n n n n n ",
"[ [ [ [ [ / N+; | ; ; ; ; ; ; ; ; 1 U./ ( 1.: < ( 1.: c+;@;@;@;@;@W+X+X+W+W+W+W+W+W+c+c+(@^@;@;@;@;@  |.l [ 3 ( 1.: l [ [ [ [ [ [ [ ",
"      * . h h h h ; _                   _ - | | | c+;@;@;@W+W+W+W+X+W+W+c+W+W+W+W+c+c+c+T '.F K ~.[ [ |.1.|.3 / 1.                  ",
"      = 4+, , , , i h                 * :@c+c+c+c+c+c+X+W+W+W+W+W+W+c+c+c+c+c+c+c+c+X+t T '.T 2.t t n f |.~.K @.:                   ",
"  g < j.p <@{ ~ A + Y.r.( 3 [ n.U.1 ; c+c+,@'@,@>@c+c+c+X+W+W+W+W+c+c+c+c+;@W+W+W+c+c+@.t d+U E T T F e f @.e V ~.3 3 3 3 [ [ < :   ",
"  / -.e (@(+(+R U+; = C+%.e t M+_@x.c+,@-@-@'@'@,@>@c+c+X+W+W+c+c+[@[@[@[@c+W+W+c+c+1./ [ [ f n ).'.T E t -.f @.e n n n n n n -.<   ",
"  < m U /+/+L V.%.3 l a.m d+F f+*@}@c+c+c+c+>@'@,@>@c+c+X+c+c+[@[@[@[@>@>@[@c+c+c+- . _     : %.t U U U t m ~.@.n 2.).T T |@c.g.1@. ",
"  : 3 G s.E K u V n n e G @.t 2.2@W *.o.c+,@-@'@'@c+c+c+c+;@W+c+[@>@D+D+D+c+O+c+7 7 w h *     / 9.~.~.~.f -.K m %.K E w+T [.y+5.o++ ",
"  v ( f e n @.9.i.d [.(@t+1@1+(.1+X.3@  c+c+c+c+;@W+c+c+c+;@;@X+X+c+[@>@c+O+c+P P P 5.0+|.:             : f e V ~.@.n U [.|+4@$ $ $ ",
"  < @.0.@.u V @@A+5@6@c+c+c+y.B y.w *.5 < ~.u f c+[@[@[@[@c+;@;@X+X+c+c+X+X+c+6+6+7@..f.m [ 1.^.^.^.^.^.  ( f -.K V !.t+v.~ 8@' ' # ",
"= j.m M+F.2 2@>.6.}+c+W+W+W+c+c+P.p.q.].|.1.r.X.c+[@[@>@>@[@c+c+W+W+W+c+c+c+c+T /+/+9@T E -.l / / / / :   _ _ Q+M 2@:.j J 0@$ ) S+J ",
"i H._.F.h+ @B B ~@$ c+W+W+;@;@c+c+c+c+c+f 1.h w c+[@>@>@>@>@[@[@c+c+c+c+>@>@[@c+w+w+w+,.T U e K e e 0.~.1.Y.w y.Q z.X {.@ I.# J M.> ",
"y , > h Y Z ) ) $ c+X+W+c+W+W+c+W+c+[@>@c+c+o.c+[@[@>@D+D+D+[@[@[@c+>@>@>@D+D+>@c+c+L L 2.E F E L E E K n.` p.P.P.=+F+$+z z z i ; 5 ",
"' Z q q 9 I.e+e+c+W+X+W+c+W+c+W+c+[@>@D+>@[@c+[@[@>@D+D+x+x+>@[@c+[@[@[@>@>@D+D+D+D+c+c+-.s.F t V t F L e W.a@b@c@3.E.j j j B.h 4   ",
"S+N.O.! ~+~+~+~+c+W+W+W+;@c+c+;@c+D+>@D+D+>@c+c+>@D+D+x+x+x+>@[@c+>@>@>@>@>@>@D+D+D+D+D+c+o k+9+j.!.U 2.L U U U t i.].r.C+C+C+C+|.|.",
"j E.3.|+|+|+|+c+W+W+;@;@c+c+c+c+c+D+>@>@D+D+>@>@>@D+x+x+x+D+[@c+[@[@[@[@[@[@[@[@D+D+D+D+D+c+5@d@e@{+;.@.@.@.@.G @.Z.: < @.K K 0.0.0.",
"C+l+l.U q+|@|@c+W+>@;@;@c+L -.( c+[@D+>@>@D+D+D+>@D+x+x+D+>@c+c+c+c+c+[@[@[@>@D+>@D+D+D+>@c+<+~+f@q.].( : g g g g : |.f n E E E L L ",
"K V t.e E w+w+c+W+,@;@c+V L -.: c+[@[@[@>@>@>@D+D+D+D+D+>@c+G G f |.|.c+c+[@[@>@D+>@>@>@[@c+#@J+Y+g@L.[   h@^.h@  l @.V V n F E e G ",
"}.l.[ [ e E /+c+W+W+,@c+-.t %.r._ c+c+[@[@[@[@>@D+>@>@[@c+: : : 1.r._ r.r.c+c+c+>@D+D+D+>@[@c+i.f+/+L m < : : 1.1.9.k+i.k.&.k+k+[ : ",
"i@`+:.: ~.@.-.-.c+c+c+: a.!.@+]+4+M., c+c+[@[@[@[@[@c+c+^.^.^.^.= >+j@j@M.M.c+[@>@>@>@>@D+>@c+L T w+T U V -.@.[ v d.3.J+++k@N _@:.  ",
"O. @_+: ( ( C+U.U.U.r.* r.} & z Z Z ) $ $ c+c+c+c+c+l.3 : : g   1 A.<+J J $+c+[@D+>@>@>@>@[@c+E /+).T ).E /+2.0./ W 4.! O.O.A r 1   ",
"w E.Q+G -.&.H 6 j@l@4+4+4+w m@5+%+I.I.$ J w Y.r.u 2.2.K -.G f : :.3.v.k@M.w c+c+[@D+D+D+[@[@c+-.0.U T w+w+w+T L m <.a+n@n@n@n@3.:.  ",
"_ ].m L 2.f.J+8 J <+<+<+<+<+N.j+8@}+}+% A.1 r.1.f U E L L L K [ [ l.@@k._ _ V+c+c+c+c+c+c+c+l : / -.f+E |@|@|@E L U }.D D }.D @@/   ",
"  ( %.K K +.&+r Q .@I+.@.@.@I+I+I+a T+& {+9.[ : < @.K K K K V -.-.V @.< |.~.@.G c+W+;@;@W+c+@.< v C.*@|+|+o@|+R p@V V V V K K u (   ",
"  1.: |.( C+r.R.n+/.D /././.}.}.b./.+.j.;.n V / : |.|.C+C+C+9.k+K $@: 1.< V s.L c+c+c+c+c+X+c+f V+]+A ~+~+~@q@H+j.< < < < / ( : 1.  ",
"    ^.^.^.^.^.: f K K K K n 2.T w+T t V n F s.-.[ g = *.j B.q.Y+ .R.^.^.|.!.K K c+X+W+W+X+W+W+c+]+, $ e+$ =+6@r@;.%.!.%.!.[ g ^.^.  ",
"5     1.1.1.1.g ( < < / ( n.m E T ).E L E F E U -.C+*.7 z z F+A w.:+1.v : ( / / c+c+c+c+c+W+W+c+c+c+) $ j+5@s@U f+L L L s.V l 1.1.1.",
"> W F.!.%.!.!.!.!.f f [ } o._.m e K e e e e $.K &.` !+Z %+I.t@u@7+1+!.%.!.f [ : c+W+W+W+W+X+X+W+W+W+c+w.v.K.l.s.T ,.T E n V @.f f f ",
"J d@..U L s.s.U U s.L k+v@x.h+].< / / / / ( / ].` Y % ) $ ) <@a@/.U U s.s.L n ~.c+c+c+X+W+X+X+,@'@W+,@c+f.i.9.-.2.T ).n f f n L L L ",
"+ Q.<.e n e e e e n E q+w@N 8.[ <   . *.>+>+*.>+!+9 9 , 4.x@y@W.v+n e e t E E K &.3.c+c+c+c+c+c+c+c+c+c+K V %.@.K e e %.( ~.s.w+w+'.",
". _ C+< l < < < < ~.$.E z@c.D t u U.>+7 J x x {.% Z 7 =._.W.@@9.< < < < f t F E S A@[.[.[.[.[.[.f.B@C+: l @.n V [ < < : 1.9.t T T T ",
"                ^.: !.e n t E E V v *.X 4.] <@I 7 + j _ 3 V -./         ( @.n n n n n n n n n n $.f g ^.1.~.V %.:     4 ; ^ C@b b b ",
"                  1.|.l l ~.e L -.C+h.= t+D@<.} ; . k r.: < / v         1.( l l l l l l l l l 3 l |.      : < ( 1.    | i S.P ~ ~ ~ ",
"                          : !.K f g ^.v ~.K @.|.                        * . h h h h h h h h h h | = r.                ; w , , 7 7 7 ",
"                            |.l |.1.    |.l / v                         = M., {.x x x x x x x {.7 > *                 _ . ; | | | | ",
"                                                                        . Y @ # $ $ $ $ $ $ $ # 9 6 _                               "};
