/* XPM */
static char * p_mov_up_left_0_xpm[] = {
"66 66 341 2",
"  	c #AA834B",
". 	c #A9824A",
"+ 	c #A57D41",
"@ 	c #A07737",
"# 	c #9F7533",
"$ 	c #9F7534",
"% 	c #9F7535",
"& 	c #A37A3D",
"* 	c #A88047",
"= 	c #AA824A",
"- 	c #A88148",
"; 	c #A98149",
"> 	c #AC864C",
", 	c #AD884D",
"' 	c #AD894D",
") 	c #AB854A",
"! 	c #A88147",
"~ 	c #A77F46",
"{ 	c #A78046",
"] 	c #A98348",
"^ 	c #AC874C",
"/ 	c #AC874D",
"( 	c #AB854C",
"_ 	c #A98249",
": 	c #A98446",
"< 	c #A6803F",
"[ 	c #A57F3D",
"} 	c #A47E3D",
"| 	c #A27B3A",
"1 	c #A07635",
"2 	c #9F7433",
"3 	c #A2793B",
"4 	c #A67E43",
"5 	c #A88046",
"6 	c #A57D42",
"7 	c #A47B3F",
"8 	c #A77F45",
"9 	c #AB844B",
"0 	c #AF8C4F",
"a 	c #B19150",
"b 	c #B29351",
"c 	c #B29251",
"d 	c #AC894A",
"e 	c #A57E40",
"f 	c #A2783B",
"g 	c #A2793C",
"h 	c #A78243",
"i 	c #AF8D4D",
"j 	c #B08F4F",
"k 	c #AC884D",
"l 	c #A98148",
"m 	c #A37B3E",
"n 	c #AB844C",
"o 	c #AE8B4E",
"p 	c #B1914E",
"q 	c #AF8F4C",
"r 	c #AE8E4A",
"s 	c #A98543",
"t 	c #A17938",
"u 	c #A07637",
"v 	c #A2793A",
"w 	c #A57C41",
"x 	c #A47B3E",
"y 	c #A88146",
"z 	c #B08F50",
"A 	c #B39451",
"B 	c #B49652",
"C 	c #B59853",
"D 	c #B49753",
"E 	c #B29451",
"F 	c #AD8C4A",
"G 	c #A78241",
"H 	c #A47D3C",
"I 	c #A57E3D",
"J 	c #A98544",
"K 	c #B08F4D",
"L 	c #B39552",
"M 	c #B19050",
"N 	c #A17839",
"O 	c #A37B3D",
"P 	c #A88246",
"Q 	c #AF8E4F",
"R 	c #B29350",
"S 	c #AD8B49",
"T 	c #A68140",
"U 	c #A37B3B",
"V 	c #A17738",
"W 	c #9F7635",
"X 	c #A2783A",
"Y 	c #AD8A4C",
"Z 	c #B08E4F",
"` 	c #AE8A4E",
" .	c #AE8C4E",
"..	c #B59753",
"+.	c #B59953",
"@.	c #B69953",
"#.	c #AF8D4F",
"$.	c #AE8C4D",
"%.	c #AE8D4B",
"&.	c #AE8E4B",
"*.	c #AE8B4D",
"=.	c #A67F44",
"-.	c #A67E44",
";.	c #AF8C4E",
">.	c #B19151",
",.	c #B49653",
"'.	c #AC8949",
").	c #A88145",
"!.	c #A07636",
"~.	c #A37A3C",
"{.	c #AA844B",
"].	c #AB864C",
"^.	c #AA824B",
"/.	c #B29450",
"(.	c #B1924E",
"_.	c #AD8B4B",
":.	c #AA8449",
"<.	c #AB874A",
"[.	c #AF8F4D",
"}.	c #B2934F",
"|.	c #AB864B",
"1.	c #A1783A",
"2.	c #AD8A4D",
"3.	c #AB8748",
"4.	c #A88342",
"5.	c #A78240",
"6.	c #A57F3F",
"7.	c #A47D3E",
"8.	c #080808",
"9.	c #AA8646",
"0.	c #B49552",
"a.	c #B39452",
"b.	c #AA834A",
"c.	c #A78144",
"d.	c #A47D3D",
"e.	c #EF7B00",
"f.	c #CE3900",
"g.	c #B0904F",
"h.	c #AC874B",
"i.	c #AB864A",
"j.	c #AF8E4E",
"k.	c #AD8A4E",
"l.	c #A88149",
"m.	c #AE8C4C",
"n.	c #B0904E",
"o.	c #AD894B",
"p.	c #AA8549",
"q.	c #B1924F",
"r.	c #B39450",
"s.	c #B09050",
"t.	c #AC8A49",
"u.	c #A67F43",
"v.	c #A3793D",
"w.	c #EFEF00",
"x.	c #AC884B",
"y.	c #A78043",
"z.	c #A67F42",
"A.	c #A57D43",
"B.	c #A47C3F",
"C.	c #A68040",
"D.	c #A57E3F",
"E.	c #A47C3E",
"F.	c #A57F40",
"G.	c #A88443",
"H.	c #AB8849",
"I.	c #B08E50",
"J.	c #A98248",
"K.	c #AF8E4D",
"L.	c #B19250",
"M.	c #AF8D4E",
"N.	c #AA844A",
"O.	c #AA854A",
"P.	c #A68042",
"Q.	c #A37C3B",
"R.	c #A27A3A",
"S.	c #A17838",
"T.	c #A47C40",
"U.	c #AC884C",
"V.	c #A37A3E",
"W.	c #A57D3F",
"X.	c #A78242",
"Y.	c #A98545",
"Z.	c #8C1800",
"`.	c #BD6B39",
" +	c #DEAD7B",
".+	c #292929",
"++	c #AC8947",
"@+	c #A88345",
"#+	c #9E7432",
"$+	c #A17739",
"%+	c #A98447",
"&+	c #AA8548",
"*+	c #A57E41",
"=+	c #A88245",
"-+	c #AB8649",
";+	c #A88144",
">+	c #AC894C",
",+	c #AD894E",
"'+	c #A67E45",
")+	c #9E7433",
"!+	c #A07736",
"~+	c #EFDEBD",
"{+	c #4A4A4A",
"]+	c #181818",
"^+	c #B49752",
"/+	c #A67E42",
"(+	c #A27A3C",
"_+	c #A98347",
":+	c #A27A39",
"<+	c #9E7332",
"[+	c #6B7B7B",
"}+	c #9F7434",
"|+	c #A47C41",
"1+	c #A37B3F",
"2+	c #A57E3E",
"3+	c #AD8A4B",
"4+	c #AC8A47",
"5+	c #A27938",
"6+	c #A37C3D",
"7+	c #A17837",
"8+	c #A57E42",
"9+	c #A78044",
"0+	c #A88543",
"a+	c #B39551",
"b+	c #AB8947",
"c+	c #AB8946",
"d+	c #AA8745",
"e+	c #A88344",
"f+	c #AA8746",
"g+	c #AC884A",
"h+	c #A78042",
"i+	c #AF8F4B",
"j+	c #B39651",
"k+	c #A17939",
"l+	c #A78045",
"m+	c #B1914F",
"n+	c #B29250",
"o+	c #B29151",
"p+	c #AD8B4A",
"q+	c #AA8645",
"r+	c #AA8649",
"s+	c #A88343",
"t+	c #A98644",
"u+	c #A78143",
"v+	c #AA834C",
"w+	c #B69954",
"x+	c #AC894B",
"y+	c #A27939",
"z+	c #B1904F",
"A+	c #AA8747",
"B+	c #A98444",
"C+	c #AB8847",
"D+	c #A68041",
"E+	c #A07738",
"F+	c #AB8747",
"G+	c #0018EF",
"H+	c #A88247",
"I+	c #A47D3F",
"J+	c #AA8349",
"K+	c #A98546",
"L+	c #A98643",
"M+	c #B08F4E",
"N+	c #AB854B",
"O+	c #AB874B",
"P+	c #A57C40",
"Q+	c #A37B3A",
"R+	c #A98349",
"S+	c #B0914E",
"T+	c #AB8848",
"U+	c #A78341",
"V+	c #A88341",
"W+	c #A88442",
"X+	c #A77F44",
"Y+	c #B1934F",
"Z+	c #A98448",
"`+	c #AE8A4D",
" @	c #A67D43",
".@	c #B59854",
"+@	c #B18F50",
"@@	c #AE8B4C",
"#@	c #AD8A4A",
"$@	c #AB8749",
"%@	c #AF8E4C",
"&@	c #AE8D4C",
"*@	c #A07837",
"=@	c #A68240",
"-@	c #AD8C4B",
";@	c #AA8647",
">@	c #A98547",
",@	c #A27B39",
"'@	c #B0914D",
")@	c #B0904D",
"!@	c #B19251",
"~@	c #A98346",
"{@	c #A27A3B",
"]@	c #A6813F",
"^@	c #A6803E",
"/@	c #AD894C",
"(@	c #AA8744",
"_@	c #A37B3C",
":@	c #B39351",
"<@	c #A57F3E",
"[@	c #AA8547",
"}@	c #AA8448",
"|@	c #B49651",
"1@	c #A37D3B",
"2@	c #6B0000",
"3@	c #A07836",
"4@	c #9F7634",
"5@	c #AC8A48",
"6@	c #AC8B48",
"7@	c #AD8C49",
"8@	c #A57D40",
"9@	c #A67F40",
"0@	c #A9824B",
"a@	c #AE8C4B",
"b@	c #AE8C4F",
"c@	c #A9834A",
"d@	c #A67F41",
"e@	c #A47B40",
"f@	c #AA8845",
"g@	c #AB8846",
"h@	c #A1773A",
"i@	c #A47B41",
"j@	c #B08E4E",
"k@	c #AB8A47",
"l@	c #AC8948",
"m@	c #A37C3C",
"n@	c #AE8D4D",
"o@	c #B0904C",
"p@	c #A98247",
"q@	c #A5803E",
"r@	c #A17937",
"s@	c #A98645",
"t@	c #AA8846",
"u@	c #A78140",
"v@	c #AE8D49",
"w@	c #AD8B4D",
"x@	c #B2924F",
"y@	c #B39550",
"z@	c #AC8B49",
"                                                                                                    . + @ # $ $ $ # % & *           ",
"              = - * ;   > , ' ' ' , , , , , ' , ) ! ~ { ] ^ ' ' ' ' / (     . - { { * _           > ^ : < [ } | 1 2 $ 3 4 { 5 - .   ",
"              ; 6 7 8 9 0 a b c c c c c c c b a d e f g h i c c c c j k     l 6 g 3 m 8 =       n o a p q q r s t 2 $ u v g g w -   ",
"              l w x y ' z b A A B C C C C C D E F G H I J K L D D L M ,     - w 3 N O P ^ , , k ' Q b B D B R S T U v V W $ $ X 4 * ",
"              . * P Y M Z o `  .c ..+.+.@.C b #.$.%.r &.%.*.j L L Z ' (     . * =.-.P Y a c c c a Q ;.>.,.b #.$.%.'.).7 @ 2 # !.X ~.",
"/ > 9 {.].^ (   ^.( #.c Q , ( ( ;.b /.(.(.p _.:.<.[.}.R M o  .a a o ^ n 9 > > 9   ^.> M B B L B B M ` Q c j ` #.a Z |.8 & N N N 1.1.",
"a Z / > #.Z ,     n k  .j z 2.( / ' 3.4.5.5.6.x 7.8.9.Y Q M 8.8.#.z Q / / #.j ' {.  / a B c Z b ..0.a Q  .#.M z  ., n ; 8 -.-.-.-.-.",
"a.a o ` M a 2.{.      ].#.a  .n   b.c.d.U v V 1 8.e.8.8.8.M 8.f.8.j g.h.i.j.a k.  l.:.m.n.o.p._.q.r.b Z k.#.c s.' ].{.9 ].(   _ - * ",
"0 #.M M Q ` >       ^.  k ` /   ^.  <.t.9.u.v.8.8.w.8.8.f.8.w.e.8.8.x.y.z.8.8.8.; A.B.C.G D.E.F.G.H. .I.M j #.Z z o > , Z #.> - 6 m ",
"J.i.K.n.' 9     _ _ 8.8.8.8.^ > > / #.L.M.N.8.e.8.w.8.8.f.e.w.e.8.f.8.8.8.e.f.8.O.P.Q.R.N @ 1 W S.T.] $.a M.) Y a M.) U.M z ^ 8 3 % ",
"V.W.X.Y.:.    8.8.8.Z.`. +`.8.8.8.8.8.8.8.8.f.w.e.w.e.e.e.w.w.e.f.e.e.w.w.e..+.+j %.++@++ 1.$ #+$ $+7 %+Y &+*+=+Y -+z.;+>+,+( '+1.)+",
"1 1 !+3 4 ; 8.Z.`. +~+~+`.8..+{+.+.+.+.+]+]+8.e.w.e.w.w.e.w.w.w.e.w.w.w.e.f.8.C ^+L L.2.J.T.$+W $ $ @ T.y /+(+T.5 /+v E.:./ > _+7.:+",
")+#+<+% f w 8.8.8.Z. + +Z.8.{+[+[+{+]+]+.+]+e..+e.e.w.w.e.w.w.w.e.w.w.e.e.f..+@.D c 0 / b.{ + 3 % #+}+$+V.T.w |+1+1.!.2+3+z z K.F 4+",
"5+5+5+:+:+6+=.N.8.`. +Z.8..+{+.+.+]+8.8.]+.+8.e.8.e.w.w.e.w.w.e.w.e.e.w.w.e.]+{+A #.^ n     - w N 7+t S.v 8+J.9+(+V :+0+(...D B a+A ",
"b+b+c+c+c+d+P.e X.8.8.8.8.8.8.8.8.]+8.8.8.8.e.w.e.f.e.e.w.e.w.e.e.w.]+]+e.w.e..+Z I.#., n   b.{ 4 e+f+e+z.&+$.g+y.h+f+i+j++.+.B M Q ",
"/.A a+a+a+[.G.| k+O l+{.n {.( > > 8.8.8.8.8.f.8.f.]+]+]+]+]+]+]+f.w.]+{+]+f.]+2.h.j.m+Y b..   . N.$.m+M.h. .n+Z ^ *.R ^+C C B c o ^ ",
"z o+,...b j.p+q+P.6 ~ . ^.{.' #.Z M.r++ 8.8.8.e.]+{+[+~+~+[+[+{+]+e.]+{+]+]+e.]+*+s+t+u+/+*   v+( ,+Z z z j Z Z z b ..w+C L M Z Z Z ",
"( ' a L.2.x.K.n.x+b.  ( n ^ Z L D L Z O.6 N 8.w.]+{+[+~+~+[+[+{+]+]+]+]+Z.]+f.]+{+:+y+7+1.6 ; . .   > #.c Z , o b B B D B a ' 2.z+/.",
"  N.A+Y.P./+B+C+p.( ' #.#.j b C @.C a.Z -+*+8.e.]+]+]+]+]+]+]+]+`.Z.f..+`.]+.+]+.+D+m E+!.3 w + 6 ~   ,+#.` ( k #.z j j Z ` ( :.F+c+",
"  ! e U R.R.| 7.y ^ z L B B D C ..D B A #.O.6 8.1 8.G+[+`.`.G+[+`.`.e..+Z.]+{+]+]+]+! V.@ !.@ u N + l {.{.N.b.  ( ].].> ^ > ( H+I+R.",
"  J+K+L+L+L+s d+3+j a.C @.+.+.C a.M M M z #.<.z.7 8.G+~+ + +G+~+Z.Z.f.]+]+]+]+]+.+]+]+-.m V $ #+$ 3 T.6 w w 6 8 . ^.^.].` #.M.g+u.1+",
"9 U.M+}././.R R A L B D ..D ..B j ^ N+].;.a i :.* 8.`. + + + + +`.Z.Z.]+8..+]+.+{+.+8.8.! B.@ % !.@ $+N N N v + _   n o c B 0.z+O+l ",
"0 #.z c ,...a.a M M M M M M M Q -+4 w 6 @+C+9.y.A.]+Z.`. + +`.Z.Z.Z.8.8.8.]+.+{+[+[+[+.+8.%+P+7 7 7 m V.x F.4.: b.> o a B +.C b '   ",
"a.a o o c A #.^ > > > > > > / |.9+~.N v R.Q.Q+N V N 8.Z.`.`.`.`.Z.8..+8..+{+[+[+[+{+{+{+8.Y J.* ! - - - R+Y S+M.^ ` c B C C ..c ,   ",
"a #./ > 0 Z ,   ^.^.^.^.^.  / 2.T+G.U+V+W+U+C.m N 1 $+8.8.8.8.8.8..+8.8.]+.+{+{+{+{+[+[+.+8.X+4 X+- {./ 0 c D A Z a ^++.C B c #./   ",
"^ ].{.  N+].{.    {.{.{.  ].#.b r.}.Y+Y+}.p m.Z++ N !.N 8.8.8..+8.8.8..+{+{+{+[+[+[+[+[+{+8.N V 3 6 b.o b B D B L 0.D C ..c `+N+  b.",
"^.; ~ -. @ @ @l+i.o o o o 0 c C @.+.w+.@,.c +@;.p.*+I+T < 8.8.8.8.8.8.8..+.+.+.+{+{+{+[+[+8.$ )+1 g =.x.g.c >.>.o+o+>.>.M @@P  @ @4 ",
"  ! T.v 1.1.1.D.#@b L a.a.L B ..C C C ^+M `+M.a i :.$@%@&@8.Z..+.+Z.Z.8.8.8.8.8..+.+{+[+[+8.*@# $ !.v u.|./ ^ ^ ^ ^ ^ k ^ _+B.X X v ",
"o x.B+5.=@=@=@0+-@n+B C +.C L c c a n.%.;@).>@S T+P -+Z I./ 8.Z..+.+f.f.Z.8.8..+.+{+[+[+{+8.]+,@W )+% g A.-.-.-.-.-.=.] U.g+G.5.=@5.",
"A R (.'@'@'@'@)@*.o !@..+.B M ' k ^ ~@6.U 3 U H Q.{@*+O.^ 9 8.Z..+.+Z.Z.Z.Z.8.8.8..+{+{+{+8.Z.]+]+2 % @ N X 1.1.1.1.3 s+[.R (.'@'@'@",
"c c c c c c b M ' ]. .a b a ` {.^.. =+T < < ]@^@Q.!+1.6 8 8.Z.8.Z..+Z.f.f.f.Z.8.8..+.+{+.+8.Z.f.Z.]+]+g g g g g g g & e+j.b b c c c ",
"' ' ' ' ' ' ' k ( {.> , ' k ].  ^.{./@q '@)@'@q (@:+!.N 8.Z.Z.8..+.+.+Z.Z.Z.Z.8.8..+{+.+]+8.Z.Z.f.f.Z.]+]+{ { { { ~ { R+^ ' ' ' ' ' ",
"                  {.^ , ].{.].' ' ` M D +.C ,.b d e _@8.Z.f.Z.Z.8.8.8..+.+.+8.8..+.+.+8.8.8.f.f.f.f.f.f.Z.8.  _ { 8 8 8 8 * .       ",
"                  ( #.M ` ].o c b b 0.C +.C b o ) H+8.f.Z.f.Z.Z.Z.Z.Z.8.8.8.Z.8..+.+8.8..+8.f.e.e.e.e.e.f.f.8.8 m 3 3 3 3 |+-       ",
"  ( / ' ' , , , , ` z a #.o a D C C B A :@b #.].  {.8.f.Z.e.f.f.Z.Z.f.f.f.f.Z.8.8..+.+{+8.8.Z.f.e.e.e.e.e.e.f.8.& U } [ <@h i./ n   ",
"  / Z c c c c c c a #.o Z b B C +...c o ' ' ^ {.  8.e.e.f.e.f.f.f.f.Z.Z.Z.Z.8.8..+.+{+{+8.8.8.Z.f.f.e.e.e.e.e.f.8.[@F i+i+)@a Z ^   ",
"* }@m.q.|@C C ..0.c #.` j b A A A b ;.(     _ * 8.Z.e.e.e.e.f.f.f.f.f.f.Z.8.8..+.+{+{+.+8.Z.Z.Z.Z.Z.f.f.e.e.e.f.8.;.L.L ^+^+A j /   ",
"& 6+6.d+(.C w+B M ;.j M Z o ` ` ` 2.^     . 8 7 8.f.e.e.e.f.f.Z.Z.Z.Z.8.8.8.8.{+{+{+.+.+8.8.8.Z.f.f.f.e.e.e.f.f.8.z 0 M B a.Q , (   ",
"$ $ $ 1@4+(.A c #.` z a o (             ( ].~@8.Z.e.e.e.e.e.e.f.Z.8.8.b.  8..+.+.+.+.+8.8.`   8.Z.Z.f.f.f.f.f.2@8.j.2.#.c a o > 9   ",
"# 2 2 3@} G.g+ .z M Z o >   ^.^.^.^.^.{.' j n.8.Z.e.e.e.e.f.f.Z.8.3 w *   8..+8.8..+{+8.8./ = 8.8.8.8.Z.Z.Z.2@8.W+b+M+z 0 #.s.#./   ",
"N E+1 $ 4@N 6 :.&@K x+_ _   ( ^ ^ ^ ^ k Z B 8.2@Z.f.e.e.e.f.Z.8.$ $ 1. @! 8.8..+{+{+.+8.8.].|.c.8.8.2@2@2@2@8.$ !+5.&.&@) x.z+j i.- ",
"4 T.N # )+% 1.x C.G D.7 '+{.` s.a a M a A C 8.2@Z.Z.f.f.f.Z.8.,@2 )+!.f & & 8..+{+{+{+8.8.o j %@8.{+8.8.8.8.8.<+$ ,@T T I+9+x.<.u.m ",
"= { m V V V $+k+Q+Q.Q.d.).U.M B B L B D B 0.8.2@2@Z.Z.Z.Z.8.%.5.:+S.N R.U 8.]+.+{+{+.+8.U.M B ..8..+8..+8.8..+8.W $ 1 1 !.~.8 4 3 W ",
"  ; 8 A.6 6 6 y.9.5@6@7@K.a L D b z b D a.8.Z.2@2@2@Z.Z.2@8.$.p+C+c.c.f+6@8.8.8.8.8.8.8.M 0.C w+8..+8.8..+{+8.{+8.8.<+<+)+u f f !.2 ",
"].].N+N+N+N+b.|.j.b A A A L 0.A  .i.@@m+i 8.f.2@2@2@Z.f.8.o o a z+2.2.L.B 8.Z.`.`.`.8.8.A 0.0.B B 8.]+.+8.8.{+{+]+`.8.:+:+:+| R.S.E+",
"s.s.s.M M #./ ( ,+#.Q #.#.#.#.*._+8@9@W+8.2@f.2@2@Z.f.2@8.j j Z Z z c ,.8.Z.`. + + +Z.8.#.#.#.#.#.0 8.]+.+{+]+]+`.]+8.4+4+4+4+9.y.6 ",
"L L B B B c o ].( n n n n ( > |.c._@:+y+8.2@f.Z.2@Z.2@8.` a M ' ' M L 8.Z. +~+ +~+ +`.8.N.R+b.{.9 9 > 8.]+]+ +]+]+8.|@|@|@j+A g./@N+",
"Q a B D c z z #.k   0@^.0@  ' M.a@C+s+P+8.2@Z.f.f.2@8.8./ b@o ].].o 8.Z.`. +~+ +~+ +Z.8.T.7 w ~ = ^.( Z L 8.]+]+8.w+w+w+w+B a I.z M ",
"( ' m+m+Y h.j.m+2.{.{.( ( / j L ^+a+j.) /+8.8.8.8.8.8.{ c@b.b._ b.{.8.`.8.~+`. +`. +8.V !.!.$+w - _ b.;.b Z ^ o A ^+B ^+B a ' ' g./.",
"  :.;@J d@*+s+9.p.9 ' #.Z z A C w+C L j <.8..+{+{+.+8.m T.T.e@e@ @- 8.8.8. +Z. +Z.`.8.V $ )+W 3 T.|+/+&+ .k.( k #.I.Z Z #.` ( :.A+f@",
"  ! e U R.R.| 7.y ^ s.0.^+B ..C ..^+B A Q 8.8.8.8.8.@ V $+N N y+B.!   n 8. +Z. +Z.8.! 7 @ $ $ 1 !.!.V + ] b.. b.N.N.N.N+> > ( H+I+R.",
"  :.9.(@(@(@(@g@_.j L C w+w+w+C A s.Z j 8..+{+{+.+8.e@7 7 T.d@G.9.:.( o 8.`.8.`.8.0 b.'+7 N $ )+)+#+}+h@7 |+|+|+i@e@w P Y Z Q x+y.7 ",
"  ^ M+R /.R R /.A L B |@|@|@B a+Z ^ ( k 8.8.8.8.8.8.J+J+_ _ h.M+g.' ' M L 8.8.8.A o {.b.! B.@ !+!+3@7+S.y+y+y+y+y+N v s+n.0.L j |._ ",
"  > 0 M M z z z z j@F 4+k@4+4+l@-+9 / 8.{+.+.+.+.+8.Q #.` ]./ #.z Z Z z M M M M #./ ( ' 2._++ D+s t+t+t+L+L+L+t+L+G e @+$.M M ;.>   ",
"  {.( > ^ / / / / i.u+m@,@:+:+U /+J+o 8..+{+{+{+]+8.L a.z / {.( `+M m+2.N+N+N+].].( ^ z c *.i.$.}.r././.}.}.}.R }.n@O.b.N+> ].( {.  ",
"  ^.^.n '  .;. .;.*.T+U+Q+$ <+$ 3 /+: 8.]+.+.+.+]+8.M M  .].^.^.O.'.C+c.A.6 -.- n ' Z a.D c z b C w+C 0.c M M M M o ( ^.^.^.^.^.    ",
"{.{.{.k z a.L L L a+A o@W+7+$ 1 u V k+8.`.Z.`.Z.]+8.^ ^ > ( 9 {.p@F.U k+V V g -.N+Z A B D B L B ..C B j U.> ^ / / > n {.{.{.{.    = ",
"o o o #.z c B C @.C a.g.t.G.F.O $+$ <+8. +`. +`.8.. ( ' o  .;. .3+q+q@r@)+#+!.V.).Y M >.a a a a M a j <.l+] ' o o  . . . .;. .x.y 4 ",
"L L L c o o c ..C 0.Z 2.j.n.3+! 7 @ 4@8..+.+.+]+8._ ` c L a.a.A A }.7@<@1 $ 1 @ ~.).|.^ > ^ ^ ^ ^ / |.9+E.s@m+L a.A A a.a.L A %.9@N ",
"+.w+w+a.` > ;.a a M #.;.z M ` {.~@4.U+U+8.8.8.8.9.Y M B B b a a c o+K.t@u@7.3 u u V. @-. @ @-.*   / ' 3.J v@j+B c a a a a c a _.P.& ",
"C C C b 2.{.( / / ' z c #.k ( N+w@n.(.(.(.(.(.(.x@E B D b o / / / / 2.M+K.<.=.g !.@ 1.X X N g  @N.0 b R q.y@B >.` / / / / k / N+_ * ",
"r r r z@: { ;     ( ;.z ` {.^.n o >.c c c c c c c c c c #.>         ^ Z z , _ 6 & g O <@< 7.x -.9 z B B b c a  .( ^.                ",
"} } } H {@m ~     {.> / (       ].k , k k k k k k k k k > {.        9 ^ / ( b.l * { ] _.%@g+- l.N+Z L a ` k k ].{.                  ",
"g g g 3 3 7 {                 b.- ~ 8 8 8 8 8 8 8 8 8 8 * .                         ].#.M ` 9 ^.n o M  .(                           ",
"~ ~ ~ ~ { * _                 . 4 g 1.X X X X X X X 1.3 T.-                         9 ^ k ].    {.].k ].                            ",
"                              _ w u # $ $ $ $ $ $ $ # % ~.*                                                                         "};
