/* XPM */
static char * p_mov_down_right_0_xpm[] = {
"66 66 344 2",
"  	c #B08E4F",
". 	c #B19050",
"+ 	c #B39552",
"@ 	c #B59853",
"# 	c #B69954",
"$ 	c #B59753",
"% 	c #B29351",
"& 	c #B08F50",
"* 	c #B08F4F",
"= 	c #AD894E",
"- 	c #AB854C",
"; 	c #AA834C",
"> 	c #AA834B",
", 	c #A88047",
"' 	c #A67E42",
") 	c #A78143",
"! 	c #A98644",
"~ 	c #A88343",
"{ 	c #A57E41",
"] 	c #A88246",
"^ 	c #AD8B4C",
"/ 	c #AE8B4E",
"( 	c #AC864C",
"_ 	c #AF8C4F",
": 	c #AC874D",
"< 	c #A98249",
"[ 	c #A67E45",
"} 	c #A57C41",
"| 	c #A47B3F",
"1 	c #A17839",
"2 	c #A07635",
"3 	c #A1783A",
"4 	c #A57D41",
"5 	c #AA8649",
"6 	c #AF8D4E",
"7 	c #AF8D4F",
"8 	c #AD894D",
"9 	c #AA844B",
"0 	c #AA824B",
"a 	c #A9824A",
"b 	c #A77F46",
"c 	c #A57D42",
"d 	c #A68042",
"e 	c #AA8645",
"f 	c #AD8B4A",
"g 	c #AF8E4E",
"h 	c #B49653",
"i 	c #B29151",
"j 	c #B29450",
"k 	c #B1904F",
"l 	c #AD8A4D",
"m 	c #B19150",
"n 	c #B49652",
"o 	c #B49753",
"p 	c #AD884D",
"q 	c #B29251",
"r 	c #A98149",
"s 	c #A17837",
"t 	c #A27939",
"u 	c #A27A39",
"v 	c #A27A3A",
"w 	c #A98349",
"x 	c #AB844B",
"y 	c #AA834A",
"z 	c #A9834A",
"A 	c #AA844A",
"B 	c #A88046",
"C 	c #A37B3E",
"D 	c #A07737",
"E 	c #A07636",
"F 	c #AA854A",
"G 	c #AC874C",
"H 	c #AB844C",
"I 	c #AC894B",
"J 	c #B0904E",
"K 	c #AF8E4D",
"L 	c #AC884B",
"M 	c #B19250",
"N 	c #AB8946",
"O 	c #AB8747",
"P 	c #AA8449",
"Q 	c #AE8A4E",
"R 	c #AC884D",
"S 	c #A2793B",
"T 	c #A07738",
"U 	c #A68041",
"V 	c #A98544",
"W 	c #AA8547",
"X 	c #AA8349",
"Y 	c #A88148",
"Z 	c #A67E44",
"` 	c #A47C41",
" .	c #A47B3E",
"..	c #A17738",
"+.	c #9F7533",
"@.	c #9E7432",
"#.	c #9F7535",
"$.	c #A2783A",
"%.	c #AB8649",
"&.	c #B39452",
"*.	c #B69953",
"=.	c #AA8549",
"-.	c #AB8847",
";.	c #A98444",
">.	c #A98545",
",.	c #AA8747",
"'.	c #A47D3F",
").	c #A88247",
"!.	c #AB864C",
"~.	c #A98148",
"{.	c #A07637",
"].	c #A37A3E",
"^.	c #A88147",
"/.	c #AD8A4C",
"(.	c #B1914F",
"_.	c #B0904F",
":.	c #A47C3F",
"<.	c #B39451",
"[.	c #A88146",
"}.	c #A47D3E",
"|.	c #A27B3A",
"1.	c #A37B3B",
"2.	c #A57E40",
"3.	c #A37B3F",
"4.	c #A67F43",
"5.	c #AC884A",
"6.	c #A77F45",
"7.	c #A47C40",
"8.	c #9F7534",
"9.	c #B49552",
"0.	c #AD8A4E",
"a.	c #A88342",
"b.	c #A67F42",
"c.	c #AB874A",
"d.	c #B59953",
"e.	c #AD8A4B",
"f.	c #AA8745",
"g.	c #A98543",
"h.	c #A98643",
"i.	c #A98546",
"j.	c #AB874B",
"k.	c #A2793A",
"l.	c #A17739",
"m.	c #AF8D4D",
"n.	c #AF8C4E",
"o.	c #AB854B",
"p.	c #B29350",
"q.	c #B2934F",
"r.	c #B08F4E",
"s.	c #AC884C",
"t.	c #A98446",
"u.	c #A57F40",
"v.	c #A57C40",
"w.	c #A98447",
"x.	c #AE8A4D",
"y.	c #B39351",
"z.	c #B09050",
"A.	c #080808",
"B.	c #AE8B4F",
"C.	c #AC864D",
"D.	c #A78046",
"E.	c #A57D43",
"F.	c #A78043",
"G.	c #AA8646",
"H.	c #A88345",
"I.	c #A67E43",
"J.	c #AF8E4F",
"K.	c #B0914E",
"L.	c #A98248",
"M.	c #AB864B",
"N.	c #B49752",
"O.	c #CE3900",
"P.	c #EF7B00",
"Q.	c #A37B3A",
"R.	c #A37C3B",
"S.	c #A37A3C",
"T.	c #A78044",
"U.	c #A77F44",
"V.	c #AC8948",
"W.	c #A67D43",
"X.	c #EFEF00",
"Y.	c #A68040",
"Z.	c #A78341",
"`.	c #A88442",
" +	c #A88341",
".+	c #A88443",
"++	c #AB8848",
"@+	c #B1914E",
"#+	c #B1934F",
"$+	c #B39450",
"%+	c #AE8B4C",
"&+	c #B19151",
"*+	c #A67F44",
"=+	c #A2793C",
"-+	c #9E7433",
";+	c #A27B39",
">+	c #A6813F",
",+	c #292929",
"'+	c #BD6B39",
")+	c #DEAD7B",
"!+	c #8C1800",
"~+	c #A98347",
"{+	c #A07837",
"]+	c #AF8E4B",
"^+	c #B1924E",
"/+	c #181818",
"(+	c #4A4A4A",
"_+	c #EFDEBD",
":+	c #A78240",
"<+	c #A68240",
"[+	c #A98348",
"}+	c #9F7635",
"|+	c #6B7B7B",
"1+	c #B0914D",
"2+	c #AF8F4D",
"3+	c #9F7433",
"4+	c #AE8E4B",
"5+	c #B0904D",
"6+	c #A88344",
"7+	c #A37A3D",
"8+	c #AA8647",
"9+	c #A67F45",
"0+	c #AB864A",
"a+	c #A78243",
"b+	c #A57F3E",
"c+	c #A57F3D",
"d+	c #A47E3D",
"e+	c #A17938",
"f+	c #AF8F4B",
"g+	c #AD8C4A",
"h+	c #A47C3E",
"i+	c #9F7634",
"j+	c #0018EF",
"k+	c #B39551",
"l+	c #A47C3D",
"m+	c #A47D3C",
"n+	c #B49651",
"o+	c #B1924F",
"p+	c #AE8C4C",
"q+	c #AA8448",
"r+	c #AE8D4C",
"s+	c #A78045",
"t+	c #A57F3F",
"u+	c #A37C3D",
"v+	c #A88048",
"w+	c #A98346",
"x+	c #AC8A47",
"y+	c #A37D3B",
"z+	c #AB8947",
"A+	c #A57D3E",
"B+	c #A37B3D",
"C+	c #A57E3F",
"D+	c #A68140",
"E+	c #AA824A",
"F+	c #AE8D4A",
"G+	c #AD8D49",
"H+	c #AE8D4B",
"I+	c #AE8C4E",
"J+	c #A07836",
"K+	c #AB854A",
"L+	c #A07736",
"M+	c #A47D3D",
"N+	c #A78144",
"O+	c #B59752",
"P+	c #B08F4D",
"Q+	c #9E7332",
"R+	c #AC8A48",
"S+	c #AD8C49",
"T+	c #AD8B49",
"U+	c #AD8B48",
"V+	c #AF8E4C",
"W+	c #A78241",
"X+	c #A88145",
"Y+	c #A17939",
"Z+	c #A2783B",
"`+	c #AC8B48",
" @	c #A17838",
".@	c #A57E3D",
"+@	c #AC8A49",
"@@	c #A47B40",
"#@	c #A78142",
"$@	c #A67F40",
"%@	c #A57D40",
"&@	c #AE8B4D",
"*@	c #AD894C",
"=@	c #B39651",
"-@	c #B29451",
";@	c #A37B3C",
">@	c #B08E50",
",@	c #AE8C4B",
"'@	c #A9824B",
")@	c #AC874B",
"!@	c #AA8845",
"~@	c #A67F41",
"{@	c #AD8B4B",
"]@	c #AB8846",
"^@	c #AA8744",
"/@	c #AE8C4D",
"(@	c #AB8A47",
"_@	c #B08E4E",
":@	c #AE8D4D",
"<@	c #6B0000",
"[@	c #B29250",
"}@	c #A37C3C",
"|@	c #AC8949",
"1@	c #A98247",
"2@	c #B0904C",
"3@	c #A17937",
"4@	c #A5803E",
"5@	c #9F7434",
"6@	c #A78140",
"7@	c #AA8846",
"8@	c #AD8B4D",
"9@	c #A6803F",
"0@	c #AC8B49",
"a@	c #AE8E4A",
"b@	c #A88149",
"c@	c #A27A3B",
"d@	c #AF8F4C",
"e@	c #AB8748",
"f@	c #AD894B",
"g@	c #AB8849",
"h@	c #AC874A",
"i@	c #AC894C",
"j@	c #A88144",
"k@	c #A88245",
"l@	c #AA8548",
"m@	c #AC8947",
"n@	c #AB8749",
"o@	c #A67E41",
"p@	c #A78242",
"q@	c #A57D3F",
"r@	c #A27A3C",
"s@	c #B39652",
"t@	c #A57E3E",
"u@	c #A68043",
"v@	c #A88244",
"w@	c #A88543",
"x@	c #A57E42",
"y@	c #AD884C",
"z@	c #A27938",
"A@	c #AA8746",
"B@	c #A78042",
"C@	c #A98645",
"      . + @ # $ % &     * & &   = - ; > , ' ) ! ~ { ] ^         / ( ( / _ : < [ } } | 1 2 3 4 5 6   7 8 9 0 a b c d e f g % $ h i & ",
"j k l 8 m n o n n % / p   q 7 ( > a a r c 3 s t u v { w - - - - x y z y A y B C D E E E 1 c F   + o +   G H - > y I J K L l M m 8 - ",
"N O P - Q   * * & 7 R - Q 7 = > b c 4 } S E T C U V W X 0 0 0 0 Y Z } ` } }  ...+.@.#.$.{ %.  &.@ *.@ % * 7 7 8 - =.-.;.' d >.,.A > ",
"v '.).- ( G ( !.!.- > y A 9 9 ~.4 1 {.D E D ].^./.(._.R x x H > , :.t 1 1 1 ..{.E 2 1 c F 7 <.n o $ @ o n n + & G [.}.|.v v 1.2.^.> ",
"3.4.5.6 7 Q !.0 0 a 6.c } } c 7.S 8.@.8...C Z y _ 9.+ & 7 7 0.- X >.a.2.| | | | 7.| b.c.7 & . . . &.@ d.d.*.@ &.* e.f.g.h.h.h.i.X > ",
"~.j.k 9.n q / H > < 4 k.1 1 1 l.D E #.D :.^.y 9 / <.o n n 9.m 8 8 _.J L < r ~.Y Y , P m.m n.!.o.G * n $ o $ o n + <.p.p.j j q.r.s.x ",
"> 8 % @ d.n m / ( y t.a.u. .].C | | | v.w.x.= - p   y.$ # d.+ z.. n A.A.B.C.y D.A.E.F.G.-.H.c } I.%.J.. . . . . . . m &.$ h q & 7 _ ",
"> p q $ @ @ n q Q G 6 K./.w Y Y Y ^., L./.m 6 o.> M.n.<.N.$ n + + A.O.A.m A.A.A.P.A.1 Q.R.v k.1 S.T.M.: ( ( ( ( ( ( G 7 <.q / / m &.",
"> : 7 q n @ d.N.m   <.o q _ : 9 Y U.I.U.i.V.G.T.c W.A.A.A._.m m A.A.P.X.A.O.A.A.X.A.A.Y.Z.`. +Z..+++l : > 0 0 0 0 0 > p   _ ( : 7 m ",
"y > o.x.q $ @ o 9.+ n o n % / y c S ..1 v R.1.k.3 k.A.O.P.A.A.A.O.A.P.X.P.O.A.A.X.A.P.A.@+q.#+#+q.$+% 7 A.A.A.A.9 > > 9 !.o.> 9 !.G ",
"I.W.W.] %+. &+&+i i &+&+q _.L *+=+2 -+8.;+>+Z.Z.Z.Z.,+,+P.X.X.P.P.O.P.X.X.P.P.P.X.P.X.O.A.A.A.A.A.A.A.A.'+)+'+!+A.A.A.W.W.W.Z b r 0 ",
"k.$.$.:.~+G R G G G G G : M.4.k.E 8.+.{+Z.]+^+^+^+^+^+A.O.P.X.X.X.P.X.X.X.P.X.X.P.X.P.A./+/+,+,+,+,+(+,+A.'+_+_+)+'+!+A.3 3 k.7.^.> ",
":+<+:+.+5.s.[+*+Z Z Z Z Z E.=+#.-+}+;+:+V.k 9.$ n y.&.,+O.P.P.X.X.P.X.X.X.P.X.X.P.P.,+P./+,+/+/+(+|+|+(+A.!+)+)+!+A.A.A.<+<+:+;.L / ",
"1+1+1+^+p.2+~ S 3 3 3 3 $.1 D #.3+s a.4+6 x.& + q / (+/+P.X.X.P.P.X.P.X.X.P.X.X.P.A.P.A.,+/+A.A./+,+,+(+,+A.!+)+'+A.5+1+1+1+1+^+p.<.",
"q q q % % g 6+7+=+=+=+=+=+=+=+=+S  .8+* _ ( 0.. 7 ( ,+P.X.P./+/+X.P.P.X.P.X.P.P.O.P.X.P.A.A.A.A./+A.A.A.A.A.A.A.A.8 . % q q q q q q ",
"8 8 8 8 8 G w D.b D.D.D.D.D.D.D.D.^.A G ( 9 - : ( 9 - /+O./+(+/+X.O./+/+/+/+/+/+/+O.A.O.A.A.A.A.A.0 > !.R 8 p ( 9 - R 8 8 8 8 8 8 8 ",
"> > > a , 6.6.6.6.D.< > > > > > > > > > < B b b b 6./+P./+/+(+/+P./+(+|+|+_+_+|+(+/+P.A.A.A.o . Q 8 8 !.9 !.p G 9 > > > > > > > > > ",
"> > > Y ` S S S S C 6.> > > > > > > > a 9+7+S S S (+/+O./+!+/+/+/+/+(+|+|+_+_+|+(+/+X.A.@ d.@ 9.% % q / !.Q . 7 - > > > > > > > > > ",
"> H : 0+a+b+c+d+1.7+[ y ( p 8 s.A ^.D.6.| E 3+8.e+,+/+,+/+'+,+O.!+'+/+/+/+/+/+/+/+/+P.A.% y.<.n @ @ o m / 7 m & Q p p p p 8 8 : - > ",
"> G   m 5+f+f+g+W D.Y o.n.m % k 8+h+S S ..8.-+i+/+/+/+(+/+!+,+P.'+'+|+j+'+'+|+j+A.> A.G 8 8 / q $ d.@ n %   / 7 m q q q q q q   : > ",
"> : * <.N.N.+ M n.p R 0.* y.o k+V.l+3 k.1.m+m+/+/+,+/+/+/+/+/+O.!+!+_+j+)+)+_+j+A.B , < > > - n.% <.<.<.% * Q 7 q 9.$ @ @ n+o+p+q+, ",
"> - p J.&.n . _ & q q m J.7 % 9.r+[.Z s+8+g+A.A.,+(+,+/+,+A./+!+!+'+)+)+)+)+)+'+A.=+| 6.a > > G l Q Q Q /   . * n.. n # @ ^+f.t+u+7+",
"> x ( / m q 7 l g @+^+5+5.q+e.2+e.L.v+> Q A.,+|+|+|+(+,+/+A.A.A.!+!+!+'+)+)+'+!+/+m+t+w+!.- > > > > > > - / m & Q 7 q <.^+x+y+8.8.8.",
"> : 7 z.7 _ & r.z+`.Z.:+A+B+C+D+C+| Z E+: A.(+(+(+|+|+|+(+,+A.,+A.!+'+'+'+'+!+A.F+G+H+J * 8 9 0 0 0 0 0 > ( /   . & I+5..+d+J+3+3++.",
"Y 0+* k L K+r+4+:+L+8.L+u R.m+m+R.M+N+M.A.,+|+|+(+(+(+(+,+/+A.A.,+A.A.A.A.A.A.@ N.N.O+@ n   R G G G G - > < < I P+r+P c 1 i+8.2 T 1 ",
"C 4.c.L T.'.D+D+;+8.Q+L+:+R+S+T+U+S+V+* A.(+|+|+|+|+|+(+(+(+,+A.A.A.,+A.A.A.@ # # # # *.@ <.m . m m z.Q 9 [ | C+W+Y. .3 #.-++.1 7.I.",
"}+S I.6.S.E 2 2 8.}+s c+S+k+O+N.N.N.$ n A.|+|+(+(+(+,+,+,+,+A.A.A.A.A.A.A.o $ n + + + + 9.n o n + n n . s.X+M+R.R.Q.Y+l.......C D.E+",
"3+E Z+Z+{.-+Q+Q+Q+s :+S+q.@ # # # # # @ A.|+|+(+,+,+A.A.A.A.A.!+!+,+,+!+A.+ n m _ _ _ _   &.o % & % o + m K S+`+R+G.F.c c c E.6.r > ",
"T  @v |.u u u u u .@R+p.N.$ o n 9.n n /+A.(+|+|+(+,+,+A.A.!+O.O.,+,+!+A./ m q / x y w < F m.(.%+0+I+<.9.+ <.<.<.% g M.y o.o.o.o.!.!.",
"c F.G.x+x+x+x+x+x++@p+* &.n q J._ /+/+!+A.(+(+(+,+A.A.A.!+!+!+!+,+,+!+A.* J./ C.< Z @@3.7.#@`.$@%@~+&@7 7 7 7 J.7 = - : 7 . . z.z.z.",
"o.*@_.<.=@n+n+n+n -@I+p . +   /+/+!+O.!+A.,+(+,+,+A.A.!+O.O.O.!+,+!+A.!+A.Q x a D.].{.}+E  @t u ;@N+M.( - H H H H - !./ q n n n + + ",
". & >@m n # # # # n n.G & /+/+!+O.O.!+!+A./+,+(+,+A.A.!+!+!+!+,+,+,+A.!+!+A.< Z  ...8.@.#.Z+v.~ -.,@6 8 > '@0 '@> R 7 & & q o n m J.",
"j _.8 8 m n N.n N.<./ G A.!+O.O.O.O.O.O.A.A.A.,+,+,+A.A.,+,+,+A.A.A.!+!+O.!+A.].E 8.8.}+1 ' K+g k+N.+ * : - - 9 9 l (.g )@/.(.(.8 - ",
"!@,.P - Q 7     >@7 R A.O.O.P.P.P.P.P.O.A.,+A.A.,+,+A.!+A.A.A.!+!+!+!+!+O.!+O.A.+.-+2 S ' c.* + @ # @ <.&   7 8 x =.G.~ { ~@V 8+P > ",
"v '.).- ( ( o.A A A A.O.P.P.P.P.P.P.O.!+A.A.(+,+,+A.A.!+O.O.O.O.!+!+O.O.P.!+O.A.E E 3 ' K+J.<.n N.$ @ $ n N.9.z.G [.}.|.v v 1.2.^.> ",
"| F.I J.  /.] } @@A.O.P.P.P.P.P.O.O.!+A.A.A.(+(+,+,+A.A.!+!+!+!+O.O.O.O.P.O.P.P.A.| ' %.7 & *   z.<.@ # # # @ + * {@]@^@^@^@^@G.P > ",
"< M.* + 9.J ~ k.1 A.O.P.P.P.O.O.!+!+!+!+!+A.,+(+(+,+,+A.A.!+O.O.O.O.O.O.P.P.P.P.!+A.M.* %   R - G   k+n n+n+n+n + <.j p.p.j p.r.G > ",
"> ( n.. . /@H.2.W+A.O.O.P.P.P.O.O.O.!+A.A.A.,+,+(+(+(+A.A.A.A.!+!+!+!+O.O.P.P.P.O.A.& &.o % 7 : x %.V.x+x+(@x+g+_@& & & & . . _ ( > ",
"> 9 - !.( o.y F :@A.<@O.O.O.O.O.!+!+A.0+&@A.A.,+,+,+,+,+A.o.l A.A.!+O.P.P.P.P.P.P.!+A.n N.n [@/ X ' 1.u u ;+}@) 0+: : : : G ( - 9 > ",
"> > 0 0 0 0 0 - / . A.<@!+!+!+A.A.A.A.& q A.A.(+,+A.A.,+A.E.N+-.|@A.!+O.O.P.P.P.P.!+A.. _.V+R+t.' S 8.Q+8.Q.Z.++&@n.I+n.I+8 H 0 0 > ",
"E+> > 9 9 9 9 H ( : : A.<@<@<@<@A.A.n + n A.A.,+(+(+,+A.A...Y+1.u.1@A.!+O.P.P.P.O.!+<@A.F d 1.Y+..{.2 8.s `.2@<.k++ + + &.& R 9 9 9 ",
"I.[.L I+n.I+I+I+I+/ / A.A.A.A.A.(+A.m m m A.A.(+(+(+,+A.@.-+3@4@e e.I+A.!+O.O.O.!+!+<@A.` 3 5@Q+8.l.B+u..++@_.&.@ *.@ n q & 7 / / / ",
"1 $@H+<.+ &.&.<.<.&.A.,+A.A.,+A.,+A.G G G ( A.,+(+(+,+/+A.2 b+S+q.<.<.&.A.!+!+!+!+<@<@A.1 D 2 i+D | ^.e.J g l   9.@ $ q / / q + + + ",
"7+d {@m q m m m A.A.(+A.(+,+A.A.,+A., Z W.W.A.A.A.A.A.A.A.6@7@K i q m m A.<@!+!+<@<@<@!+A.Z.Z.Z.a.w+9 Q . & n.7 . m m n.( Q &.# # d.",
", < o.: R : : A.'+/+(+(+A.A.,+/+A.A W.=+1 $.A.A.'+'+'+!+A.K r.l : : : : / A.O.!+<@<@<@O.A.^+^+^+J 8@o.- R 7 q & 8 : : - 9 l % @ @ @ ",
"> > > > > > > A./+'+/+/+(+,+/+A.& x Z  .}.9@A.!+)+)+)+'+!+A.  G > > > > ( A.<@O.!+<@<@O.<@A.q q &+/ H 0 9 Q & n.- > > r D.t.0@a@a@a@",
"> > > > > > > > A./+/+)+/+/+A.+   o.b@Y 5.V+A.'+)+_+)+_+)+!+A.x > > > > 9 ( A.<@!+<@!+O.<@A.R p R !.> > > - : ( 9 > > b C c@m+d+d+d+",
"> > > > > > > > > A./+/+A.- I+. / H 0 x Q . A.!+)+_+)+_+)+'+!+A.> > > > a , A.A.<@O.O.!+<@A.6.6.b Y y > > > > > > > > D.| S S =+=+=+",
"> > > > > > > > > > > > > > !.R !.9 > > !.R G A.)+'+)+'+_+A.'+A.> > > > Y 7.S A.A.A.A.A.A.$.$.3 =+I.a > > > > > > > > < , D.b b b b ",
"> > > > > > > > > > > > > > > > > > > > > > > A.'+!+)+!+)+A.A.A.> > > > , S.#.A.,+(+(+,+A.8.8.+.{.} < > > > > > > > > > > > > > > > ",
"> > > > > , 7+#.+.8.8.8.+.D 4 a > > > > > > > > A.!+)+!+)+A.> > > > > > > > > > A.A.A.A.A.> > > > > > > > > > > > > > > > > > > > > ",
"> a Y B D.I.S 8.3+2 |.d+c+9@t.G ( > > > > > < , D.A.'+A.'+A.- : 8 8 8 8 G [+D.b A.,+(+(+,+A.p p p 8 8 8 p ( > r , Y E+> > > > > > > ",
"> Y } =+=+k.{.8.3+e+g.a@d@d@@+m / H > > > E+6.C S =+A.A.A.> R * q q q q m.a+=+Z+A.A.A.A.A.A.q q q q q % m _ x 6.| c r > > > > > > > ",
", I.$.8.8.}+..k.1.D+T+p.n o n % J.8 R p p G ] B+1 S } Y > > p . + o o + P+V .@m+A.,+,+,+,+(+A.@ @ n <.<.% & 8 [. .} ~.> > > > > > > ",
"S.$.E +.3+D | X+|@H+/@7 % h &+n.J.m q q q m /.] Z *+, a > > - 8   + + * &@H+4+a@A./+(+(+(+,+A.d.$ q I+Q /   . /.] , a > > > > > > > ",
"3 3 1 1 1 7+6.M.  m 7 Q * q J.Q . n n + n n . ( 0 > x ( ( x H G / m m I+/ . p.q.A./+,+,+,+/+A.j % n.- - p J.q 7 - 0 > - G !.9 x ( : ",
"Z Z Z Z Z 6.r H p I+& . 7 I+J.m 9.$ %   q n m : > 9 8 * 7 : : J.& 7 7 & . J./.G.A./+!+'+!+'+A.e@8 : - l & * I+R H > > p   7 ( :   m ",
", Y < > - !.x 9 !.8 z.q 7 0.  % $+o+{@=.f@J p+P b@> 0.m g 0+)@_.* j.0+* . s.s+S.E A.'+)+'+)+A.N+y > H I+m 7 !.> > > 9 l m . Q / m &.",
"C c Y ( 7   p ( / &   7 * . >@I+g@.+u.h+C+W+Y.:.E.r ( l %.b.F.L h@4.b.c.L N+=+{.3+A./+,+,+,+A.c.> 0 > : Q R > 0 > > > ( Q J.. . 7 _ ",
"#.S 6.G & . s.K+6 m /.K+6 m /@[+7. @}+2 D 1 v R.d F : G ] c@=+*+6.C 7+U.6.S.}+8.#.E A.A.A.A.M 7 : ( ( G : : ( 9 < < > > x 8 J K 0+L.",
"-+3 [ - = i@j@b.%./.k@{ l@/.w.| l.8.@.8.3 4 H.m@H+* . * e@Q.E Z+| } } | =+{.-+-+E 7+Z Y x p _ * . . . . . . * n@o@W.r > > P >.p@q@].",
"u }.~+( : P h+k.' B 7.r@' [.7.D 8.8.}+l.7.L.l M + N.@ N.f+D+e+1 :.).1@:.1 t t  @S Z a > > - p   <.n N.n + n s@g+9@{ L.> r I.S L+2 2 ",
"x+g+K & & e.t@E 3 3.` } 7.].l.5@@.#.S 4 D.y : _ q o *.@ j F+e u@] %+&@w+F.e ]@v@*+Y > > - Q &     % o y.& q N.q.g+g@A , } Z+#.Q+@.-+",
"<.k+n o $ ^+w@u ..r@T.L.x@k. @e+s 1 } Y > > H G 7 <.o @ @ n (.*@8 . m l y@* (.*@y E+> a A /@(.I+G J.%   R n.<.k+q.:@A *+u+u u z@z@z@",
"J.. n d.d.=@f+A@B@F.5./@l@b.6+A@6+I.D.y > H p 7 >@  i n d.# h q &     & & & _ : H ; a 6.{ p@C@q+> R / p H : I+{@]@p@2.d f.N N N z+z+",
"G / q n @ @ N.p.&@G   [@I+)@6 (./@A a > a y /.(.g )@l % n n n + m 8 8 . m Q o.y < < , | ..s ;@T.9 ( ( - 9 H 9 s+B+Y+|..+2+k+k+k+<.j "};
