/* XPM */
static char * p_mov_up_2_xpm[] = {
"66 66 354 2",
"  	c #AA834B",
". 	c #A88047",
"+ 	c #A37A3D",
"@ 	c #9F7535",
"# 	c #9F7533",
"$ 	c #9F7534",
"% 	c #A07737",
"& 	c #A57D41",
"* 	c #A9824A",
"= 	c #A88148",
"- 	c #A88046",
"; 	c #A78046",
"> 	c #A67E43",
", 	c #A2793B",
"' 	c #9F7433",
") 	c #A07635",
"! 	c #A27B3A",
"~ 	c #A47E3D",
"{ 	c #A57F3D",
"] 	c #A6803F",
"^ 	c #A98446",
"/ 	c #AC874C",
"( 	c #AC864C",
"_ 	c #A98249",
": 	c #AB854C",
"< 	c #AC874D",
"[ 	c #AD894D",
"} 	c #A98348",
"| 	c #A77F46",
"1 	c #A88147",
"2 	c #AB854A",
"3 	c #AD884D",
"4 	c #A98149",
"5 	c #AA824A",
"6 	c #A57C41",
"7 	c #A2793C",
"8 	c #A2793A",
"9 	c #A07637",
"0 	c #A17938",
"a 	c #A98543",
"b 	c #AE8E4A",
"c 	c #AF8F4C",
"d 	c #B1914E",
"e 	c #B19150",
"f 	c #AE8B4E",
"g 	c #AB844C",
"h 	c #A77F45",
"i 	c #A37B3E",
"j 	c #A57D42",
"k 	c #A98148",
"l 	c #AC884D",
"m 	c #B08F4F",
"n 	c #B29251",
"o 	c #AF8D4D",
"p 	c #A78243",
"q 	c #A2783B",
"r 	c #A57E40",
"s 	c #AC894A",
"t 	c #B29351",
"u 	c #AF8C4F",
"v 	c #AB844B",
"w 	c #A47B3F",
"x 	c #A2783A",
"y 	c #9F7635",
"z 	c #A17738",
"A 	c #A37B3B",
"B 	c #A68140",
"C 	c #AD8B49",
"D 	c #B29350",
"E 	c #B49652",
"F 	c #B49753",
"G 	c #AF8E4F",
"H 	c #A88246",
"I 	c #A37B3D",
"J 	c #A17839",
"K 	c #B19050",
"L 	c #B39552",
"M 	c #B08F4D",
"N 	c #A98544",
"O 	c #A57E3D",
"P 	c #A47D3C",
"Q 	c #A78241",
"R 	c #AD8C4A",
"S 	c #B29451",
"T 	c #B59853",
"U 	c #B39451",
"V 	c #B08F50",
"W 	c #A88146",
"X 	c #A47B3E",
"Y 	c #A37A3C",
"Z 	c #A07636",
"` 	c #A88145",
" .	c #AC8949",
"..	c #AE8D4B",
"+.	c #AE8C4D",
"@.	c #AF8D4F",
"#.	c #B49653",
"$.	c #B19151",
"%.	c #AF8C4E",
"&.	c #AD8A4C",
"*.	c #A67E44",
"=.	c #A67F44",
"-.	c #B08E4F",
";.	c #AE8B4D",
">.	c #AE8E4B",
",.	c #B69953",
"'.	c #B59953",
").	c #B59753",
"!.	c #AE8C4E",
"~.	c #AE8A4E",
"{.	c #A1783A",
"].	c #AB864B",
"^.	c #AA824B",
"/.	c #B2934F",
"(.	c #AF8F4D",
"_.	c #AB874A",
":.	c #AA8449",
"<.	c #AD8B4B",
"[.	c #B1924E",
"}.	c #B29450",
"|.	c #AB864C",
"1.	c #AA844B",
"2.	c #B49552",
"3.	c #AA8646",
"4.	c #A47D3E",
"5.	c #A57F3F",
"6.	c #A78240",
"7.	c #A88342",
"8.	c #AB8748",
"9.	c #AD8A4D",
"0.	c #B09050",
"a.	c #AD8A4E",
"b.	c #B39450",
"c.	c #B1924F",
"d.	c #AA8549",
"e.	c #AD894B",
"f.	c #B0904E",
"g.	c #AE8C4C",
"h.	c #A88149",
"i.	c #AF8E4E",
"j.	c #AB864A",
"k.	c #AC874B",
"l.	c #B0904F",
"m.	c #AB874B",
"n.	c #AC884C",
"o.	c #A78045",
"p.	c #A47D3D",
"q.	c #A78144",
"r.	c #AA834A",
"s.	c #B39452",
"t.	c #B08E50",
"u.	c #AB8849",
"v.	c #A88443",
"w.	c #A57F40",
"x.	c #A47C3E",
"y.	c #A57E3F",
"z.	c #A68040",
"A.	c #A47C3F",
"B.	c #A57D43",
"C.	c #AB8649",
"D.	c #A67F42",
"E.	c #A78043",
"F.	c #AC884B",
"G.	c #AC874A",
"H.	c #A67F43",
"I.	c #9E7433",
"J.	c #A3793D",
"K.	c #AC8A49",
"L.	c #AF8D4E",
"M.	c #A47C40",
"N.	c #A17838",
"O.	c #A27A3A",
"P.	c #A37C3B",
"Q.	c #A68042",
"R.	c #AA854A",
"S.	c #A27A3B",
"T.	c #A77F44",
"U.	c #AA844A",
"V.	c #B19250",
"W.	c #AF8E4D",
"X.	c #A98248",
"Y.	c #A67E45",
"Z.	c #AD894E",
"`.	c #AC894C",
" +	c #A88144",
".+	c #A88245",
"++	c #A57E41",
"@+	c #AA8548",
"#+	c #A98447",
"$+	c #A17739",
"%+	c #9E7432",
"&+	c #A88345",
"*+	c #AC8947",
"=+	c #A37B3A",
"-+	c #AB8749",
";+	c #A67E41",
">+	c #A67D43",
",+	c #A98545",
"'+	c #A78242",
")+	c #A57D3F",
"!+	c #A37A3E",
"~+	c #A27A39",
"{+	c #A98347",
"]+	c #A67E42",
"^+	c #A27A3C",
"/+	c #B49752",
"(+	c #AF8F4B",
"_+	c #A88247",
":+	c #A98247",
"<+	c #A27939",
"[+	c #B39652",
"}+	c #A07736",
"|+	c #AC8A47",
"1+	c #AD8A4B",
"2+	c #A57E3E",
"3+	c #A37B3F",
"4+	c #A47C41",
"5+	c #9F7434",
"6+	c #AE8D4A",
"7+	c #AA8645",
"8+	c #A68043",
"9+	c #AE8B4C",
"0+	c #080808",
"a+	c #A98346",
"b+	c #AB8846",
"c+	c #A88244",
"d+	c #B39351",
"e+	c #9E7332",
"f+	c #B39551",
"g+	c #A88543",
"h+	c #A78044",
"i+	c #A57E42",
"j+	c #A17837",
"k+	c #B1914F",
"l+	c #AD894C",
"m+	c #EF7B00",
"n+	c #AD884C",
"o+	c #AE8D4D",
"p+	c #A37C3D",
"q+	c #A27938",
"r+	c #B39651",
"s+	c #AA8746",
"t+	c #A78042",
"u+	c #AC884A",
"v+	c #A88344",
"w+	c #B29151",
"x+	c #EFEF00",
"y+	c #A98645",
"z+	c #AA8448",
"A+	c #AA8745",
"B+	c #AB8946",
"C+	c #AB8947",
"D+	c #B29250",
"E+	c #A37B3C",
"F+	c #A17939",
"G+	c #B69954",
"H+	c #AA834C",
"I+	c #A78143",
"J+	c #A98644",
"K+	c #A88343",
"L+	c #AD8B4C",
"M+	c #AA8649",
"N+	c #AD8B4A",
"O+	c #B1904F",
"P+	c #AC894B",
"Q+	c #AB8747",
"R+	c #A07738",
"S+	c #A68041",
"T+	c #AA8547",
"U+	c #292929",
"V+	c #AB8847",
"W+	c #A98444",
"X+	c #AA8747",
"Y+	c #A47D3F",
"Z+	c #181818",
"`+	c #CE3900",
" @	c #4A4A4A",
".@	c #A98643",
"+@	c #A98546",
"@@	c #AA8349",
"#@	c #AB854B",
"$@	c #B08F4E",
"%@	c #A57C40",
"&@	c #AE8A4D",
"*@	c #6B7B7B",
"=@	c #EFDEBD",
"-@	c #B0914E",
";@	c #A98349",
">@	c #8C1800",
",@	c #AC8948",
"'@	c #BD6B39",
")@	c #A78341",
"!@	c #A88442",
"~@	c #A88341",
"{@	c #AB8848",
"]@	c #0018EF",
"^@	c #A98448",
"/@	c #B1934F",
"(@	c #A27B39",
"_@	c #A6813F",
":@	c #DEAD7B",
"<@	c #B18F50",
"[@	c #B59854",
"}@	c #A07837",
"|@	c #AF8E4B",
"1@	c #AD8A4A",
"2@	c #A68240",
"3@	c #A98547",
"4@	c #AA8647",
"5@	c #AD8C4B",
"6@	c #B0914D",
"7@	c #B19251",
"8@	c #B0904D",
"9@	c #A67F45",
"0@	c #B0904C",
"a@	c #A57F3E",
"b@	c #A47C3D",
"c@	c #6B0000",
"d@	c #B49651",
"e@	c #AE8D4C",
"f@	c #A88048",
"g@	c #A37D3B",
"h@	c #A57D3E",
"i@	c #AD8C49",
"j@	c #A07836",
"k@	c #B59752",
"l@	c #9F7634",
"m@	c #AC8A48",
"n@	c #AD8B48",
"o@	c #AF8E4C",
"p@	c #AC8B48",
"q@	c #A78142",
"r@	c #A67F40",
"s@	c #A57D40",
"t@	c #AE8C4B",
"u@	c #A9824B",
"v@	c #AA8845",
"w@	c #A47B40",
"x@	c #A67F41",
"y@	c #A47B41",
"z@	c #A1773A",
"A@	c #AA8744",
"B@	c #AB8A47",
"C@	c #B08E4E",
"D@	c #A37C3C",
"E@	c #A17937",
"F@	c #A5803E",
"G@	c #AE8D49",
"H@	c #A78140",
"I@	c #AA8846",
"J@	c #B39550",
"K@	c #B2924F",
"L@	c #AD8B4D",
"M@	c #AC8B49",
"          . + @ # $ $ $ # % & *                                                                                                     ",
"  * = - ; > , $ ' ) ! ~ { ] ^ / (           _ . ; ; = *     : < [ [ [ [ / } ; | 1 2 3 [ 3 3 3 3 3 [ [ [ 3 (   4 . = 5               ",
"  = 6 7 7 8 9 $ ' 0 a b c c d e f g       5 h i , 7 j k     l m n n n n o p 7 q r s e t n n n n n n n t e u v h w j 4               ",
". > x $ $ y z 8 A B C D E F E t G [ l 3 3 / H I J , 6 =     3 K L F F L M N O P Q R S F T T T T T E U U t V [ W X 6 k               ",
"Y x Z # ' % w `  ...+.@.t #.$.%.G e n n n e &.H *.=.. *     : [ -.L L m ;...>.b ..+.@.t T ,.'.'.).n !.~.f -.K &.H . *               ",
"{.{.J J J + h ].-.e @.~.m n G ~.K E E L E E K ( ^.  v ( ( v g / f e e !.f K D /.(._.:.<.d [.[.}.t %.: : 3 G n @.: ^.  : / |.1.v ( < ",
"*.*.*.*.*.h 4 g 3 !.V K @.!.G e 2.).t -.n E e <   1.[ m @.< < G V @.@.V K G &.3.Q 4.X 5.6.6.7.8.[ < : 9.V m !.l g     3 -.@.( < -.e ",
". = _   : |.v 1.|.[ 0.n @.a.-.t b.c.<.d.e.f.g.:.h.  a.e i.j.k.l.m m.j.m K n.o.Y Z $ ) z 8 A p.q.r.  g !.e @.|.      1.9.e K ~.f e s.",
"i j = ( @.-.3 ( f V -.@.m K t.!.u.v.w.x.y.Q z.A.B.4 ( 9.C.D.E.F.G.H.D._.F.q.7 9 ' I.Z J.H.3.K._.  ^.  < ~.l   ^.      ( ~.G K K @.u ",
"@ , h / V K n.2 L.e &.2 L.e +.} M.N.y ) % J O.P.Q.R.< / H S.7 =.h i + T.h Y y $ @ Z , > U.L.V.@.< ( ( / < < ( 1._ _     v [ f.W.j.X.",
"I.{.Y.: Z.`. +D.C.&..+++@+&.#+w $+$ %+$ {.& &+*+..m K m 8.=+Z q w 6 6 w 7 9 I.I.Z + *.= v 3 u m K K K K K K m -+;+>+4     :.,+'+)+!+",
"~+4.{+( < :.x.8 ]+- M.^+]+W M.% $ $ y $+M.X.9.V.L /+T /+(+B 0 J A._+:+A.J <+<+N., *.*     : 3 -.U E /+E L E [+R ] ++X.  4 > , }+) ) ",
"|+R W.V V 1+2+Z {.3+4+6 M.!+$+5+%+@ , & ; r.< u n F ,.T }.6+7+8+H 9+0+a+E.7+b+c+0+=     : ~.V -.-.t F d+V n /+/.R u.U.. 6 q @ e+%+I.",
"U f+E F ).[.g+~+z ^+h+X.i+8 N.0 j+J 6 =     g / @.U F T T E k+l+[ 0+m+0+n+0+k+0+m+0+  * U.+.k+!./ G t -.l %.U f+/.o+U.=.p+~+~+q+q+q+",
"G K E '.'.r+(+s+t+E.u++.@+D.v+s+v+> ; r.  g 3 @.t.-.w+E '.0+#.n 0+m+m+x+0+m+0+0+m+0+* h ++'+y+z+  l f 3 g < !.<.b+'+r Q.A+B+B+B+C+C+",
"/ f n E T T /+D ;./ -.D+!.k.L.k++.U.*   * r.&.k+i.k.9.t 0+m+0+0+m+0+m+x+x+m+0+m+x+0+0+0+z j+E+h+1.( ( : 1.g 1.o.I F+! v.(.f+f+f+U }.",
"-.-.-.K L T G+).t V -.-.m V V -.Z.: H+  . ]+I+J+K+++H L+0+x+m+m+x+x+m+x+x+x+x+x+x+m+x+0+) {.& M+L.-.@.[ 1.^.* | j Q.7+N+i.t ).#.w+V ",
"}.O+9.[ e E F E E t f 3 -.n @.(   * * 4 j {.j+<+~+O.++0+x+x+x+x+x+x+x+x+x+x+x+x+m+x+0+Z J j R.-.L F L -./ g :   r.P+f.W.F.9.V.e [ : ",
"B+Q+:.: ~.-.m m V @.l : ~.@.Z.  | j & 6 , Z R+i S+N T+U+0+x+x+x+x+m+x+x+m+x+x+x+x+0+@ x ++C.-.s.T ,.T t m @.@.[ : d.V+W+]+Q.,+X+U.  ",
"O.Y+_+: ( / ( |.|.:   r.U.1.1.k & J 9 % Z % !+1 &.k+l.Z+`+m+x+x+x+x+m+m+m+m+m+m+m+m+0+j R.@.U E F ).T F E E L V / W 4.! O.O.A r 1   ",
"3+H.u+L.@.~.|.^.^.* h j 6 6 j M., $ %+$ z i *.r.u 2.L Z+m+ @x+m+x+m+m+m+m+m+m+m+m+x+0+0+0+V K K K s.T '.'.,.T s.m 1+A+a .@.@.@+@@@  ",
"k m.O+2.E n f g   _ & 8 J J J $+% Z @ % A.1 r.1.f U  @Z+`+Z+m+`+x+m+Z+Z+Z+Z+Z+Z+Z+m+0+x+0+%.|.#@/ m E ).F ).F E L U D D }.}./.$@n.v ",
"  [ t T '.E e f ( r.^ 7.w.X !+i w w w %@#+&@Z.: 3  @Z+Z+Z+Z+`+Z+m+Z+ @*@*@=@=@*@ @Z+m+0+V+&+j 6 > C.G K K K K K K K e s.).#.n V @.u ",
"  3 n ).T T E n ~./ L.-@&.;@= = = 1 . X.&.e L.#@ @Z+%.Z+Z+>@Z+Z+Z+Z+ @*@*@=@=@*@ @Z+0+=+P.O.8 J Y h+].< ( ( ( ( ( ( / @.U n f f e s.",
"  < @.n E T './+e -.U F n u < 1.= T.> T.+@,@3.h+ @Z+.+Z+Z+'@U+`+>@'@Z+Z+Z+Z+Z+Z+Z+Z+i z.)@!@~@)@v.{@9.<   ^.^.^.^.^.  3 -.u ( < @.e ",
"r.  #@&@n ).T F 2.L E F E t f r.j , z J O.P.A  @Z+8 O.0+Z+>@U+m+'@'@*@]@'@'@*@]@0+& ^@g.d /./@/@/.b.t @.|.  1.1.1.    1.|.#@  1.|./ ",
"> >+>+H 9+K $.$.w+w+$.$.n l.F.=.7 ) I.$ (@_@)@ @Z+)@0+0+0+Z+Z+`+>@>@=@]@:@:@=@]@0+d.%.<@n #.[@G+'.,.T n u f f f f j.o.>+>+>+*.| 4 ^.",
"8 x x A.{+/ l / / / / / < ].H.8 Z $ # }@)@|@[. @Z+0+U+U+0+0+Z+>@>@'@:@:@:@:@:@'@0+0+e L.&@K /+T T T ).E L s.s.L t 1@y.{.{.{.8 M.1   ",
"6.2@6.v.u+n.} =.*.*.*.*.*.B.7 @ I.y (@6.,@O+ @Z+0+U+*@U+0+U+0+0+>@>@>@'@:@:@'@>@Z+0+C 3@` 4@..f.e n n L T '.T E D+5@g+2@2@2@6.W+F.f ",
"6@6@6@[.D (.K+, {.{.{.{.x J % @ ' j+7.>.L.&@ @0+ @*@*@ @U+0+0+0+0+0+'@'@'@'@>@0+U+0+P A , A 5.a+/ l [ K E '.).7@f ;.8@6@6@6@6@[.D U ",
"n n n t t i.v++ 7 7 7 7 7 7 7 7 , X 4@m u ( 0+ @*@*@ @ @ @U+0+0+0+0+0+0+0+0+0+U+U+U+0+_@] ] B .+* ^.1.~.e t e !.|.[ K t n n n n n n ",
"[ [ [ [ [ / ;@; | ; ; ; ; ; ; ; ; 1 U./ ( 0+U+ @*@ @ @ @U+U+U+Z+0+Z+0+0+0+0+0+U+ @U+0+6@8@6@c l+1.^.  |.l [ 3 ( 1.: l [ [ [ [ [ [ [ ",
"      * . h h h h ; _                   _ 0+ @ @ @ @U+U+U+U+ @U+0+U+0+U+0+0+0+U+U+0+0+#.T '.F K ~.[ [ |.1.|.3 / 1.                  ",
"      = 4+, , , , i h                 * 9@0+U+ @ @U+U+U+U+ @ @U+0+U+0+U+0+0@0+0+U+ @U+0+T '.T 2.t t n f |.~.K @.:                   ",
"  g < j.p a@{ ~ A + Y.r.( 3 [ n.U.1 ; h 0+ @Z+U+U+Z+U+U+ @U+0+0+ @0+0+0+0+s.K 0+U+0+0+0+t d+U E T T F e f @.e V ~.3 3 3 3 [ [ < :   ",
"  / -.e 8@(+(+R T+; = #@%.e t O+4@x., , 0+U+ @Z+Z+Z+U+0+0+0+0+Z+U+0+>@0+~.~.[ 0+0+>@>@0+0+[ f n ).'.T E t -.f @.e n n n n n n -.<   ",
"  < m U /+/+L V.%.3 l a.m d+F f+,@b@{.0+U+ @U+U+Z+Z+0+>@`+`+Z+U+Z+>@c@0+1 . . 0+'@:@:@'@>@0+: %.t U U U t m ~.@.n 2.).T T d@c.g.z+. ",
"  : 3 G s.E K u V n n e G @.t 2.e@W *.0+ @U+ @U+U+Z+0+>@>@>@Z+ @Z+`+c@0+7 7 7 7 0+:@>@:@0+>@0+/ 9.~.~.~.f -.K m %.K E G+T [.A+5.p++ ",
"  v ( f e n @.9.i.d [.8@u+z+1+(.1+X.f@0+*@ @ @ @U+0+c@c@c@0+U+Z+>@c@0+$ }+O.P P 0+'@0+0+:@0+0+          : f e V ~.@.n U [.|+g@$ $ $ ",
"  < @.0.@.u V $@C+!@)@6.h@I y.B y.w *.0+U+*@ @ @U+0+c@c@c@Z+U+Z+c@0+0+I.~+a i@6+6+0+..f.0+'@0+^.^.^.^.^.  ( f -.K V !.u+v.~ j@' ' # ",
"= j.m O+F.2 e@>.6.}+$ }+~+P.P P P.p.q.0+U+ @ @ @U+Z+0+0+0+0+0+0+0+c@c@0+Q c /+T /+/+k@T E 0+l / / / / :   _ _ P+M e@:.j J l@$ ) R+J ",
"i H._.F.h+Y+B B (@$ e+}+6.m@i@C n@i@o@m 0+U+ @U+0+0+0+c@c@c@c@c@0+c@c@>@0+0+T G+G+G+G+,.T U e K e e 0.~.1.Y.w y.Q z.X {.@ I.# J M.> ",
"y , > h Y Z ) ) $ y j+{ i@f+k@/+/+/+).0+U+0+U+ @*@ @U+0+>@`+`+>@0+>@>@`+`+`+0+0+L L L L 2.E F E L E E K n.` p.P.P.=+F+$+z z z i ; 5 ",
"' Z q q 9 I.e+e+e+j+6.i@/.T G+G+G+G+0+c@`+0+ @*@*@ @U+0+0+>@c@0+>@`+`+`+m+m+`+>@0+0+u u -.s.F t V t F L e W.i@p@m@3.E.j j j B.h 4   ",
"R+N.O.! ~+~+~+~+~+O m@D /+).F E 2.E 0+`+m+>@0+ @0+0+0+:@>@0+>@0+>@`+`+m+m+m+m+m+m+`+0+_ R.o k+9+j.!.U 2.L U U U t i.].r.#@#@#@#@|.|.",
"j E.3.|+|+|+|+|+|+K.g.m s.E n G u 0+c@`+m+>@0+0+=@:@'@0+0+0+>@0+>@>@>@`+m+m+m+m+m+m+`+0+M.q@!@r@s@{+;.@.@.@.@.G @.Z.: < @.K K 0.0.0.",
"#@l+l.U r+d@d@d@E S !.3 K L -.( v 0+c@`+`+`+0+:@'@>@0+'@:@0+0+0+0+c@>@`+`+`+`+`+m+`+`+0+Z N.<+~+E+q.].( : g g g g : |.f n E E E L L ",
"K V t.e E G+G+G+G+E %./ V L -.: ^.0+c@>@`+>@0+'@>@0+0+0+0+@.G G f 0+0+>@>@`+`+`+`+>@>@0+@ q %@K+V+t@L.[   u@^.u@  l @.V V n F E e G ",
"}.l.[ [ e E /+E /+U f / -.t %.r._ 0+c@c@c@>@>@0+0+0+++;@: : : : 1.r._ 0+>@c@c@>@>@>@>@0+J ]+2 i.f+/+L m < : : 1.1.9.k+i.k.&.k+k+[ : ",
"v@X+:.: ~.@.-.-.t.@.l : a.!.@+]+4+0+>@>@c@c@c@c@c@0+4@r.^.^.^.^.= >+w@0+c@c@c@c@c@c@>@0+]+_.m L T G+T U V -.@.[ v d.3.K+++x@N 4@:.  ",
"O.Y+_+: ( ( #@U.U.U.r.* r.} & z Z 0+>@`+c@c@c@c@c@0+l.3 : : g   1 A.<+0+>@>@>@>@c@c@>@0+2 G U E /+).T ).E /+2.0./ W 4.! O.O.A r 1   ",
"w E.P+G -.&.H 6 w@y@4+4+4+w z@5+%+0+c@>@`+>@c@c@>@0+2.K -.G f : :.3.v.0+>@c@c@c@c@c@>@0+@.V m -.0.U T G+G+G+T L m <.b+A@A@A@A@3.:.  ",
"_ ].m L 2.f.K+8 J <+<+<+<+<+N.j+j@0+c@>@>@`+>@>@c@0+E L L L K [ [ l.$@k.0+c@c@>@c@c@>@0+t -.l : / -.f+E d@d@d@E L U }.D D }.D $@/   ",
"  ( %.K K +.&+r Q .@J+.@.@.@J+J+J+0+0+0+c@>@`+>@>@0+K K K K V -.-.V @.0+0+0+c@>@`+`+>@0+F t @.< v C.,@|+|+B@|+R C@V V V V K K u (   ",
"  1.: |.( #@r.R.o+/.D /././.}.}.b./.+.0+0+0+0+0+0+|.|.#@#@#@9.k+K &@: 0+U+0+0+0+0+0+0+E /+E D+f @@]+A ~+~+(@D@I+j.< < < < / ( : 1.  ",
"    ^.^.^.^.^.: f K K K K n 2.T G+T 0+U+U+Z+0+0+0+g = *.j B.q.V+ .R.^.0+0+0+0+ @U+U+ @0+l.o@m@^ ]+, $ e+$ =+)@{@;.%.!.%.!.[ g ^.^.  ",
"5     1.1.1.1.g ( < < / ( n.m E T 0+0+0+0+0+0+U+0+#@*.7 z z F+A w.:+1.0+0+U+U+0+0+0+0+0+0+Q.A F+z 9 ) $ j+!@0@U f+L L L s.V l 1.1.1.",
"> W F.!.%.!.!.!.!.f f [ } o._.m 0+0+ @*@*@ @Z+0+0+` !+Z %+I.E@F@7+1+!.%.0+0+0+U+U+U+U+U+U+0+5+e+$ $+I w.v.K.l.s.T ,.T E n V @.f f f ",
"J r@..U L s.s.U U s.L k+y+x.h+0+U+U+>@'@:@0+:@'@0+Y % ) $ ) a@i@/.U U s.s.L 0+0+U+ @'@:@U+'@0+l@% w 1 1+f.i.9.-.2.T ).n f f n L L L ",
"+ Q.<.e n e e e e n E r+G@N 8.0+ @*@ @ @ @ @ @ @0+9 9 , 4.H@I@W.w+n e e t E E K 0+0+0+0+0+0+0+)@7.a+1.~.K V %.@.K e e %.( ~.s.G+G+'.",
". _ #@< l < < < < ~.$.E J@c.D 0+0+0+0+0+0+0+0+0+% Z 7 =._.W.$@9.< < < < f t F E S K@[.[.[.[.[.[.f.L@#@: l @.n V [ < < : 1.9.t T T T ",
"                ^.: !.e n t E E V v *.X 4.] a@I 7 + j _ 3 V -./         ( @.n n n n n n n n n n $.f g ^.1.~.V %.:     4 ; ^ M@b b b ",
"                  1.|.l l ~.e L -.#@h.= u+o@<.} ; . k r.: < / v         1.( l l l l l l l l l 3 l |.      : < ( 1.    | i S.P ~ ~ ~ ",
"                          : !.K f g ^.v ~.K @.|.                        * . h h h h h h h h h h | = r.                ; w , , 7 7 7 ",
"                            |.l |.1.    |.l / v                         = M., {.x x x x x x x {.7 > *                 _ . ; | | | | ",
"                                                                        . Y @ # $ $ $ $ $ $ $ # 9 6 _                               "};
