/* XPM */
static char * p_mov_right_4_xpm[] = {
"66 66 342 2",
"  	c #AA834B",
". 	c #A88047",
"+ 	c #A37A3D",
"@ 	c #9F7535",
"# 	c #9F7533",
"$ 	c #9F7534",
"% 	c #A07737",
"& 	c #A57D41",
"* 	c #A9824A",
"= 	c #A88148",
"- 	c #A88046",
"; 	c #A78046",
"> 	c #A67E43",
", 	c #A2793B",
"' 	c #9F7433",
") 	c #A07635",
"! 	c #A27B3A",
"~ 	c #A47E3D",
"{ 	c #A57F3D",
"] 	c #A6803F",
"^ 	c #A98446",
"/ 	c #AC874C",
"( 	c #AC864C",
"_ 	c #A98249",
": 	c #AB854C",
"< 	c #AC874D",
"[ 	c #AD894D",
"} 	c #A98348",
"| 	c #A77F46",
"1 	c #A88147",
"2 	c #AB854A",
"3 	c #AD884D",
"4 	c #A98149",
"5 	c #AA824A",
"6 	c #A57C41",
"7 	c #A2793C",
"8 	c #A2793A",
"9 	c #A07637",
"0 	c #A17938",
"a 	c #A98543",
"b 	c #AE8E4A",
"c 	c #AF8F4C",
"d 	c #B1914E",
"e 	c #B19150",
"f 	c #AE8B4E",
"g 	c #AB844C",
"h 	c #A77F45",
"i 	c #A37B3E",
"j 	c #A57D42",
"k 	c #A98148",
"l 	c #AC884D",
"m 	c #B08F4F",
"n 	c #B29251",
"o 	c #AF8D4D",
"p 	c #A78243",
"q 	c #A2783B",
"r 	c #A57E40",
"s 	c #AC894A",
"t 	c #B29351",
"u 	c #AF8C4F",
"v 	c #AB844B",
"w 	c #A47B3F",
"x 	c #A2783A",
"y 	c #9F7635",
"z 	c #A17738",
"A 	c #A37B3B",
"B 	c #A68140",
"C 	c #AD8B49",
"D 	c #B29350",
"E 	c #B49652",
"F 	c #B49753",
"G 	c #AF8E4F",
"H 	c #A88246",
"I 	c #A37B3D",
"J 	c #A17839",
"K 	c #B19050",
"L 	c #B39552",
"M 	c #B08F4D",
"N 	c #A98544",
"O 	c #A57E3D",
"P 	c #A47D3C",
"Q 	c #A78241",
"R 	c #AD8C4A",
"S 	c #B29451",
"T 	c #B59853",
"U 	c #B39451",
"V 	c #B08F50",
"W 	c #A88146",
"X 	c #A47B3E",
"Y 	c #A37A3C",
"Z 	c #A07636",
"` 	c #A88145",
" .	c #AC8949",
"..	c #AE8D4B",
"+.	c #AE8C4D",
"@.	c #AF8D4F",
"#.	c #B49653",
"$.	c #B19151",
"%.	c #AF8C4E",
"&.	c #AD8A4C",
"*.	c #A67E44",
"=.	c #A67F44",
"-.	c #B08E4F",
";.	c #AE8B4D",
">.	c #AE8E4B",
",.	c #B69953",
"'.	c #B59953",
").	c #B59753",
"!.	c #AE8C4E",
"~.	c #AE8A4E",
"{.	c #A1783A",
"].	c #AB864B",
"^.	c #AA824B",
"/.	c #B2934F",
"(.	c #AF8F4D",
"_.	c #AB874A",
":.	c #AA8449",
"<.	c #AD8B4B",
"[.	c #B1924E",
"}.	c #B29450",
"|.	c #AB864C",
"1.	c #AA844B",
"2.	c #B49552",
"3.	c #AA8646",
"4.	c #A47D3E",
"5.	c #A57F3F",
"6.	c #A78240",
"7.	c #A88342",
"8.	c #AB8748",
"9.	c #AD8A4D",
"0.	c #B09050",
"a.	c #AD8A4E",
"b.	c #B39450",
"c.	c #B1924F",
"d.	c #AA8549",
"e.	c #AD894B",
"f.	c #B0904E",
"g.	c #AE8C4C",
"h.	c #A88149",
"i.	c #AF8E4E",
"j.	c #AB864A",
"k.	c #AC874B",
"l.	c #B0904F",
"m.	c #AB874B",
"n.	c #AC884C",
"o.	c #A78045",
"p.	c #A47D3D",
"q.	c #A78144",
"r.	c #AA834A",
"s.	c #B39452",
"t.	c #B08E50",
"u.	c #AB8849",
"v.	c #A88443",
"w.	c #A57F40",
"x.	c #A47C3E",
"y.	c #A57E3F",
"z.	c #A68040",
"A.	c #A47C3F",
"B.	c #A57D43",
"C.	c #AB8649",
"D.	c #A67F42",
"E.	c #A78043",
"F.	c #AC884B",
"G.	c #AC874A",
"H.	c #A67F43",
"I.	c #9E7433",
"J.	c #A3793D",
"K.	c #AC8A49",
"L.	c #AF8D4E",
"M.	c #A47C40",
"N.	c #A17838",
"O.	c #A27A3A",
"P.	c #A37C3B",
"Q.	c #A68042",
"R.	c #AA854A",
"S.	c #A27A3B",
"T.	c #A77F44",
"U.	c #AA844A",
"V.	c #B19250",
"W.	c #AF8E4D",
"X.	c #A98248",
"Y.	c #A67E45",
"Z.	c #AD894E",
"`.	c #AC894C",
" +	c #A88144",
".+	c #A88245",
"++	c #A57E41",
"@+	c #AA8548",
"#+	c #A98447",
"$+	c #A17739",
"%+	c #9E7432",
"&+	c #A88345",
"*+	c #AC8947",
"=+	c #A37B3A",
"-+	c #AB8749",
";+	c #A67E41",
">+	c #A67D43",
",+	c #A98545",
"'+	c #A78242",
")+	c #A57D3F",
"!+	c #A37A3E",
"~+	c #A27A39",
"{+	c #A98347",
"]+	c #A67E42",
"^+	c #A27A3C",
"/+	c #B49752",
"(+	c #AF8F4B",
"_+	c #A88247",
":+	c #A98247",
"<+	c #A27939",
"[+	c #080808",
"}+	c #B39652",
"|+	c #A07736",
"1+	c #AC8A47",
"2+	c #AD8A4B",
"3+	c #A57E3E",
"4+	c #A37B3F",
"5+	c #A47C41",
"6+	c #9F7434",
"7+	c #AE8D4A",
"8+	c #AA8645",
"9+	c #A68043",
"0+	c #AE8B4C",
"a+	c #A98346",
"b+	c #AB8846",
"c+	c #A88244",
"d+	c #B39351",
"e+	c #9E7332",
"f+	c #B39551",
"g+	c #A88543",
"h+	c #A78044",
"i+	c #A57E42",
"j+	c #A17837",
"k+	c #B1914F",
"l+	c #AD894C",
"m+	c #AD884C",
"n+	c #EFEF00",
"o+	c #AE8D4D",
"p+	c #A37C3D",
"q+	c #A27938",
"r+	c #B39651",
"s+	c #AA8746",
"t+	c #A78042",
"u+	c #AC884A",
"v+	c #A88344",
"w+	c #B29151",
"x+	c #B69954",
"y+	c #AA834C",
"z+	c #A98645",
"A+	c #EF7B00",
"B+	c #CE3900",
"C+	c #AA8745",
"D+	c #AB8946",
"E+	c #AB8947",
"F+	c #B29250",
"G+	c #AB854B",
"H+	c #A17939",
"I+	c #A78143",
"J+	c #A98644",
"K+	c #A88343",
"L+	c #AD8B4C",
"M+	c #AD8B4A",
"N+	c #B1904F",
"O+	c #A98349",
"P+	c #A9834A",
"Q+	c #AB8747",
"R+	c #A07738",
"S+	c #A68041",
"T+	c #AA8547",
"U+	c #AA8349",
"V+	c #4A4A4A",
"W+	c #292929",
"X+	c #AB8847",
"Y+	c #A98444",
"Z+	c #AA8747",
"`+	c #A47D3F",
" @	c #A98643",
".@	c #A98546",
"+@	c #B08F4E",
"@@	c #A57C40",
"#@	c #AE8A4D",
"$@	c #6B7B7B",
"%@	c #B0914E",
"&@	c #EFDEBD",
"*@	c #AC8948",
"=@	c #AB8948",
"-@	c #BD6B39",
";@	c #A37C3C",
">@	c #181818",
",@	c #8C1800",
"'@	c #A27B39",
")@	c #A6813F",
"!@	c #A78341",
"~@	c #0018EF",
"{@	c #DEAD7B",
"]@	c #A07837",
"^@	c #AD8A4A",
"/@	c #A68240",
"(@	c #AD8C4B",
"_@	c #B0914D",
":@	c #B19251",
"<@	c #B0904D",
"[@	c #6B0000",
"}@	c #A57F3E",
"|@	c #AA8647",
"1@	c #9F7634",
"2@	c #AC8B48",
"3@	c #A47C3D",
"4@	c #B49651",
"5@	c #AA8448",
"6@	c #AE8D4C",
"7@	c #AF8E4B",
"8@	c #A88048",
"9@	c #A37D3B",
"0@	c #A88442",
"a@	c #A57D3E",
"b@	c #A07836",
"c@	c #AC894B",
"d@	c #AC8A48",
"e@	c #AD8C49",
"f@	c #AE8C4F",
"g@	c #A9824B",
"h@	c #AA8845",
"i@	c #A47B40",
"j@	c #A67F41",
"k@	c #A1773A",
"l@	c #AA8744",
"m@	c #B08E4E",
"n@	c #AF8E4C",
"o@	c #AB8848",
"p@	c #B0904C",
"q@	c #A17937",
"r@	c #A5803E",
"s@	c #A67F40",
"t@	c #AE8D49",
"u@	c #A78140",
"v@	c #AA8846",
"w@	c #A78340",
"x@	c #B39550",
"y@	c #B2924F",
"z@	c #AD8B4D",
"A@	c #AC8B49",
"          . + @ # $ $ $ # % & *                                                                                                     ",
"  * = - ; > , $ ' ) ! ~ { ] ^ / (           _ . ; ; = *     : < [ [ [ [ / } ; | 1 2 3 [ 3 3 3 3 3 [ [ [ 3 (   4 . = 5               ",
"  = 6 7 7 8 9 $ ' 0 a b c c d e f g       5 h i , 7 j k     l m n n n n o p 7 q r s e t n n n n n n n t e u v h w j 4               ",
". > x $ $ y z 8 A B C D E F E t G [ l 3 3 / H I J , 6 =     3 K L F F L M N O P Q R S F T T T T T E U U t V [ W X 6 k               ",
"Y x Z # ' % w `  ...+.@.t #.$.%.G e n n n e &.H *.=.. *     : [ -.L L m ;...>.b ..+.@.t T ,.'.'.).n !.~.f -.K &.H . *               ",
"{.{.J J J + h ].-.e @.~.m n G ~.K E E L E E K ( ^.  v ( ( v g / f e e !.f K D /.(._.:.<.d [.[.}.t %.: : 3 G n @.: ^.  : / |.1.v ( < ",
"*.*.*.*.*.h 4 g 3 !.V K @.!.G e 2.).t -.n E e <   1.[ m @.< < G V @.@.V K G &.3.Q 4.X 5.6.6.7.8.[ < : 9.V m !.l g     3 -.@.( < -.e ",
". = _   : |.v 1.|.[ 0.n @.a.-.t b.c.<.d.e.f.g.:.h.  a.e i.j.k.l.m m.j.m K n.o.Y Z $ ) z 8 A p.q.r.  g !.e @.|.      1.9.e K ~.f e s.",
"i j = ( @.-.3 ( f V -.@.m K t.!.u.v.w.x.y.Q z.A.B.4 ( 9.C.D.E.F.G.H.D._.F.q.7 9 ' I.Z J.H.3.K._.  ^.  < ~.l   ^.      ( ~.G K K @.u ",
"@ , h / V K n.2 L.e &.2 L.e +.} M.N.y ) % J O.P.Q.R.< / H S.7 =.h i + T.h Y y $ @ Z , > U.L.V.@.< ( ( / < < ( 1._ _     v [ f.W.j.X.",
"I.{.Y.: Z.`. +D.C.&..+++@+&.#+w $+$ %+$ {.& &+*+..m K m 8.=+Z q w 6 6 w 7 9 I.I.Z + *.= v 3 u m K K K K K K m -+;+>+4     :.,+'+)+!+",
"~+4.{+( < :.x.8 ]+- M.^+]+W M.% $ $ y $+M.X.9.V.L /+T /+(+B 0 J A._+:+A.J <+<+N., *.*     : 3 -.U [+/+E L E }+R ] ++X.  4 > , |+) ) ",
"1+R W.V V 2+3+Z {.4+5+6 M.!+$+6+%+@ , & ; r.< u n F ,.T }.7+8+9+H 0+;.a+E.8+b+c+=.=     : ~.V -.-.[+[+d+V n /+/.R u.U.. 6 q @ e+%+I.",
"U f+E F ).[.g+~+z ^+h+X.i+8 N.0 j+J 6 =     g / @.U F T T E k+l+[ K e 9.m+m k+l+r.5   * U.+.k+[+[+[+n+[+l [+U f+/.o+U.=.p+~+~+q+q+q+",
"G K E '.'.r+(+s+t+E.u++.@+D.v+s+v+> ; r.  g 3 @.t.-.w+E '.x+#.n V -.-.V V V u < g y+* [+++'+z+[+A+[+B+[+[+[+!.<.b+'+r Q.C+D+D+D+E+E+",
"/ f n E T T /+D ;./ -.F+!.k.L.k++.U.*   * r.&.k+i.k.9.t E E E L e [ [ K e ~.G+r._ _ . [+[+[+[+B+n+[+A+n+[+[+[+o.[+H+! v.(.f+f+f+U }.",
"-.-.-.K L T x+).t V -.-.m V V -.Z.: y+  . ]+I+J+K+++H L+-.-.-.-.f ( ( f u < _ Y.6 6 w [+A+B+B+A+n+B+n+A+[+A+[+[+n+[+8+M+i.t ).#.w+V ",
"}.N+9.[ e E F E E t f 3 -.n @.(   * * 4 j {.j+<+~+O.++O+: : : : v r.P+r.U.r.- i % Z Z [+[+A+A+A+A+B+n+[+A+n+[+B+n+[+f.W.F.9.V.e [ : ",
"D+Q+:.: ~.-.m m V @.l : ~.@.Z.  | j & 6 , Z R+i S+N T+U+^.^.^.^.= *.6 5+[+[+[+[+V+V+V+W+[+[+B+A+A+B+A+n+A+n+A+B+n+[+X+Y+]+Q.,+Z+U.  ",
"O.`+_+: ( / ( |.|.:   r.U.1.1.k & J 9 % Z % !+1 &.k+l.l v v g   . A.V+V+V+W+W+W+W+W+[+B+B+W+n+n+n+[+A+n+n+n+B+n+A+[+4.! O.O.A r 1   ",
"4+H.u+L.@.~.|.^.^.* h j 6 6 j M., $ %+$ z i *.r.u 2.L V @.@.a.: U+,+W+W+W+V+W+W+W+[+[+[+[+[+[+B+[+A+A+n+n+A+A+n+[+B+[+a  @ @ @.@U+  ",
"k m.N+2.E n f g   _ & 8 J J J $+% Z @ % A.1 r.1.f U F E E 2.[+[+[+[+V+V+V+W+k = = . [+[+W+W+W+[+[+A+n+[+A+A+A+A+B+n+[+D }.}./.+@n.v ",
"  [ t T '.E e f ( r.^ 7.w.X !+i w w w @@#+#@Z.: 3 -.d+).[+[+[+[+[+[+W+W+[+[+r.; > B.[+B+[+[+[+[+[+n+[+W+W+$@n+A+n+A+[+s.).#.n V @.u ",
"  3 n ).T T E n ~./ L.%@&.O+= = = 1 . X.&.e L.G+  ].%.U /+).E L L /+/+L [+[+[+[+J [+B+B+[+[+[+[+[+[+[+W+$@&@&@$@A+[+[+@.U n f f e s.",
"  < @.n E T './+e -.U F n u < 1.= T.> T..@*@3.h+j >+.+=@..l.e e e e l.[+[+[+[+[+[+[+B+[+[+-@A+[+[+[+[+[+$@$@$@&@W+[+  3 -.u ( < @.e ",
"r.  G+#@n ).T F 2.L E F E t f r.j , z J O.P.A 8 {.8 O.;@Q.d.< [+[+[+[+W+V+V+V+W+[+>@W+[+-@,@A+A+,@$@[+,@[+[+$@&@[+    1.|.G+  1.|./ ",
"> >+>+H 0+K $.$.w+w+$.$.n l.F.=.7 ) I.$ '@)@!@!@!@!@[+[+[+[+[+>@>@W+W+W+W+W+V+V+V+>@[+[+-@,@A+,@-@&@~@{@,@W+[+W+[+j.o.>+>+>+*.| 4 ^.",
"8 x x A.{+/ l / / / / / < ].H.8 Z $ # ]@!@[+[+[+[+[+W+W+W+>@>@>@>@W+W+W+>@>@V+V+V+>@>@[+[+-@,@-@{@&@~@&@{@W+[+[+t ^@y.{.{.{.8 M.1   ",
"6./@6.v.u+n.} =.*.*.*.*.*.B.7 @ I.y '@[+[+[+>@>@W+W+W+W+W+W+>@>@W+W+W+>@>@>@V+V+V+>@>@[+[+[+,@,@,@,@{@&@&@,@[+E F+(@g+/@/@/@6.Y+F.f ",
"_@_@_@[.D (.K+, {.{.{.{.x J % @ ' [+[+[+[+V+W+W+W+W+W+W+W+>@>@>@>@>@>@>@>@>@>@V+W+>@>@>@[+[+[+,@-@-@{@{@{@[+).:@f ;.<@_@_@_@_@[.D U ",
"n n n t t i.v++ 7 7 7 7 7 7 7 7 [+[+-@,@[+[+V+>@>@>@>@>@>@>@>@>@[+[+[+[+[+[+>@>@>@>@>@>@>@[+[+[+,@-@-@-@[+t e !.|.[ K t n n n n n n ",
"[ [ [ [ [ / O+; | ; ; ; ; ; ; [+-@&@{@{@,@,@[+V+W+W+>@>@>@[+[+[+[+[@[@[@[+[+[+[+W+W+>@>@$@W+V+[+>@>@>@>@l [ 3 ( 1.: l [ [ [ [ [ [ [ ",
"      * . h h h h ; _         [+[+[+[+-@-@,@[+V+[+[+[+h h h [+[+,@[@[@[@[@[+>@[+W+[+>@$@W+W+V+[+~.[ [ |.1.|.3 / 1.                  ",
"      = 5+, , , , i h           [+-@&@{@-@[+[+[+[+, , , , [+[+,@[@[@[@[@[@[@[+[+>@>@$@>@W+>@>@[+t t n f |.~.K @.:                   ",
"  g < j.p }@{ ~ A + Y.r.( 3 [ n.U.[+[+[+[+Z ' $ 0 P { { [+>@>@>@>@>@W+W+>@B+B+B+[+W+,@,@>@>@[+E T T F e f @.e V ~.3 3 3 3 [ [ < :   ",
"  / -.e <@(+(+R T+; = G+%.e t N+|@x., , z $ I.1@}@2@c [+[+[+[+[+[+[+>@>@W+W+B+A+V+,@[+W+[+[ f n ).'.T E t -.f @.e n n n n n n -.<   ",
"  < m U /+/+L V.%.3 l a.m d+F f+*@3@{.8 A P P { C+f.[+[+[+[@B+,@,@,@,@[+[+[+W+[+W+[+>@[+    : %.t U U U t m ~.@.n 2.).T T 4@c.g.5@. ",
"  : 3 G s.E K u V n n e G @.t 2.6@W *.o.|@R 7@>.6@[+[+[+,@[@[@B+B+B+B+B+B+[+[+[+[+>@[+h *     / 9.~.~.~.f -.K m %.K E x+T [.C+5.p++ ",
"  v ( f e n @.9.i.d [.<@u+5@2+(.2+X.8@  ~.V.U t [+[+[@[+,@[@[@[@,@B+B+B+B+B+A+A+[+[+[+[+|.:             : f e V ~.@.n U [.1+9@$ $ $ ",
"  < @.0.@.u V +@E+0@!@6.a@I y.B y.w *.5 < ~.u [+[@[@[@[+,@[@[@[@,@,@B+B+B+B+A+B+B+A+A+[+[+[ 1.^.^.^.^.^.  ( f -.K V !.u+v.~ b@' ' # ",
"= j.m N+F.2 6@>.6.|+$ |+~+P.P P P.p.q.].|.1.[+[+[@[@[@[+[+[@[@[@[@,@,@,@B+B+B+A+A+A+A+A+A+[+l / / / / :   _ _ c@M 6@:.j J 1@$ ) R+J ",
"i H._.F.h+`+B B '@$ e+|+6.d@e@[+[+[+[+m f [+[+[@,@[@[@[@[+,@[@[@[@[@[@,@,@,@B+B+B+A+A+A+A+[+[+K e e 0.~.1.Y.w y.Q z.X {.@ I.# J M.> ",
"y , > h Y Z ) ) $ y j+{ e@f+[+[@[@[@[@[+[+[+[@[@B+,@[@[@[@[+[@[@[@[@[@[@[@[@,@B+,@B+B+B+B+B+[+E L E E K n.` p.P.P.=+H+$+z z z i ; 5 ",
"' Z q q 9 I.e+e+e+j+6.e@/.[+[+,@B+,@[@B+,@[+[@B+,@,@[@[@[@[@[+[+[+[@[@[@[@[@[@,@,@,@B+B+B+B+,@[+V t F L e W.e@2@d@3.E.j j j B.h 4   ",
"R+N.O.! ~+~+~+~+~+O [+[+[+[+[+B+[@[@B+,@,@[@B+,@,@[@[@[@[+[+V.9.9.[+[+[+[+[+[@,@[+,@B+B+B+B+A+,@[+!.U 2.L U U U t i.].r.G+G+G+G+|.|.",
"j E.3.1+1+1+1+[+[+[+W+-@-@[+B+,@[@B+,@,@[@,@[@[@[@[@[+[+x+x+#.n V -.-.m m G [+[+[+,@,@B+B+B+B+B+[+[+;.@.@.@.@.G @.Z.: < @.K K 0.0.0.",
"G+l+l.U r+4@[+[+W+[+>@[+-@[+B+[@,@,@[@[@[@[@[@[@[+[+9.n E E E L K [ [ K e ~.v * [+[+[@,@,@B+B+[+[+[+[+( : g g g g : |.f n E E E L L ",
"K V t.e E [+[+[+>@[+>@[+-@[+[+[@[@[@[@[+[+[+[+[+'+& ` &.G @.G G f |.|.f f@< _ *.X [+[+,@,@B+A+[+[+-@[@[+  g@^.[+[+[+[+V V n F E e G ",
"}.l.[ [ e [+W+[+[+>@[+>@[+B+[+[+[+[+[+$+Z Z z <+<+O.++O+: : : : 1.r._ r.r.P+; !+Z $ [+[@,@,@[+[+-@-@[+[+< [+[+-@{@[+-@[+k.&.k+k+[ : ",
"h@Z+:.: ~.[+W+>@[+[+>@[+[+[+[+[+5+M., y I.$ z X t+J+|@r.^.^.^.^.= >+i@i@M.M.i z # I.[+[+[@,@[+[+-@W+>@[+[+V+W+[+[+>@[+[+++j@N |@:.  ",
"O.`+_+: ( [+W+>@>@[+[+[+r.} & z Z Z ) $ $ % w 1 9.c.l.3 : : g   1 A.<+J J $+z % Z Z {.[+,@[+[+[+>@[+[+W+W+>@[+[+>@>@[+! O.O.A r 1   ",
"w E.c@G -.[+W+>@>@>@>@[+5+w k@6+%+I.I.$ J w Y.r.u 2.2.K -.G f : :.3.v.j@M.w w i@i@w ]+C.[+[+[+[+[+[+W+W+>@[+>@>@>@[+b+l@l@l@l@3.:.  ",
"_ ].m L 2.[+W+W+[+[+[+[+<+<+N.j+b@|+|+% A.1 r.1.f U E L L L K [ [ l.+@k._ _ U+U+U+O+].m t -.l [+V+V+[+>@[+[+[+[+[+U }.D D }.D +@/   ",
"  ( %.K K [+[+V+W+W+W+[+ @ @J+J+J+a S+& {+9.[ : < @.K K K K V -.-.V @.< |.~.@.G @.@.V s.F t @.< >@V+[+[+[+[+[+[+m@V V V V K K u (   ",
"  1.: |.( G+[+-@{@W+-@[+/./.}.}.b./.+.j.;.n V / : |.|.G+G+G+9.k+K #@: 1.< V s.L L L L E /+E F+f U+[+>@[+[+[+;@I+j.< < < < / ( : 1.  ",
"    ^.^.^.^.^.[+[+[+[+K K n 2.T x+T t V n F s.-.[ g = *.j B.q.X+ .R.^.^.|.!.K K K K K K l.n@d@^ ]+, [+[+[+=+!@o@;.%.!.%.!.[ g ^.^.  ",
"5     1.1.1.1.g ( < < / ( n.m E T ).E L E F E U -.G+*.7 z z H+A w.:+1.v : ( / / ( |.|.|.R.Q.A H+z 9 ) $ j+0@p@U f+L L L s.V l 1.1.1.",
"> W F.!.%.!.!.!.!.f f [ } o._.m e K e e e e $.K &.` !+Z %+I.q@r@8+2+!.%.!.f [ : * | >+B.5+{.6+e+$ $+I w.v.K.l.s.T ,.T E n V @.f f f ",
"J s@..U L s.s.U U s.L k+z+x.h+].< / / / / ( / ].` Y % ) $ ) }@e@/.U U s.s.L n ~._ & 8 J J % ) 1@% w 1 2+f.i.9.-.2.T ).n f f n L L L ",
"+ Q.<.e n e e e e n E r+t@N 8.[ <   . *.>+>+*.>+!+9 9 , 4.u@v@W.w+n e e t E E K &.3.!@w@!@!@!@!@7.a+1.~.K V %.@.K e e %.( ~.s.x+x+'.",
". _ G+< l < < < < ~.$.E x@c.D t u U.>+7 J x x {.% Z 7 =._.W.+@9.< < < < f t F E S y@[.[.[.[.[.[.f.z@G+: l @.n V [ < < : 1.9.t T T T ",
"                ^.: !.e n t E E V v *.X 4.] }@I 7 + j _ 3 V -./         ( @.n n n n n n n n n n $.f g ^.1.~.V %.:     4 ; ^ A@b b b ",
"                  1.|.l l ~.e L -.G+h.= u+n@<.} ; . k r.: < / v         1.( l l l l l l l l l 3 l |.      : < ( 1.    | i S.P ~ ~ ~ ",
"                          : !.K f g ^.v ~.K @.|.                        * . h h h h h h h h h h | = r.                ; w , , 7 7 7 ",
"                            |.l |.1.    |.l / v                         = M., {.x x x x x x x {.7 > *                 _ . ; | | | | ",
"                                                                        . Y @ # $ $ $ $ $ $ $ # 9 6 _                               "};
