/* XPM */
static char * p_mov_left_0_xpm[] = {
"66 66 348 2",
"  	c #AA834B",
". 	c #A88047",
"+ 	c #A37A3D",
"@ 	c #9F7535",
"# 	c #9F7533",
"$ 	c #9F7534",
"% 	c #A07737",
"& 	c #A57D41",
"* 	c #A9824A",
"= 	c #A88148",
"- 	c #A88046",
"; 	c #A78046",
"> 	c #A67E43",
", 	c #A2793B",
"' 	c #9F7433",
") 	c #A07635",
"! 	c #A27B3A",
"~ 	c #A47E3D",
"{ 	c #A57F3D",
"] 	c #A6803F",
"^ 	c #A98446",
"/ 	c #AC874C",
"( 	c #AC864C",
"_ 	c #A98249",
": 	c #AB854C",
"< 	c #AC874D",
"[ 	c #AD894D",
"} 	c #A98348",
"| 	c #A77F46",
"1 	c #A88147",
"2 	c #AB854A",
"3 	c #AD884D",
"4 	c #A98149",
"5 	c #AA824A",
"6 	c #A57C41",
"7 	c #A2793C",
"8 	c #A2793A",
"9 	c #A07637",
"0 	c #A17938",
"a 	c #A98543",
"b 	c #AE8E4A",
"c 	c #AF8F4C",
"d 	c #B1914E",
"e 	c #B19150",
"f 	c #AE8B4E",
"g 	c #AB844C",
"h 	c #A77F45",
"i 	c #A37B3E",
"j 	c #A57D42",
"k 	c #A98148",
"l 	c #AC884D",
"m 	c #B08F4F",
"n 	c #B29251",
"o 	c #AF8D4D",
"p 	c #A78243",
"q 	c #A2783B",
"r 	c #A57E40",
"s 	c #AC894A",
"t 	c #B29351",
"u 	c #AF8C4F",
"v 	c #AB844B",
"w 	c #A47B3F",
"x 	c #A2783A",
"y 	c #9F7635",
"z 	c #A17738",
"A 	c #A37B3B",
"B 	c #A68140",
"C 	c #AD8B49",
"D 	c #B29350",
"E 	c #B49652",
"F 	c #B49753",
"G 	c #AF8E4F",
"H 	c #A88246",
"I 	c #A37B3D",
"J 	c #A17839",
"K 	c #B19050",
"L 	c #B39552",
"M 	c #B08F4D",
"N 	c #A98544",
"O 	c #A57E3D",
"P 	c #A47D3C",
"Q 	c #A78241",
"R 	c #AD8C4A",
"S 	c #B29451",
"T 	c #B59853",
"U 	c #B39451",
"V 	c #B08F50",
"W 	c #A88146",
"X 	c #A47B3E",
"Y 	c #A37A3C",
"Z 	c #A07636",
"` 	c #A88145",
" .	c #AC8949",
"..	c #AE8D4B",
"+.	c #AE8C4D",
"@.	c #AF8D4F",
"#.	c #B49653",
"$.	c #B19151",
"%.	c #AF8C4E",
"&.	c #AD8A4C",
"*.	c #A67E44",
"=.	c #A67F44",
"-.	c #B08E4F",
";.	c #AE8B4D",
">.	c #AE8E4B",
",.	c #B69953",
"'.	c #B59953",
").	c #B59753",
"!.	c #AE8C4E",
"~.	c #AE8A4E",
"{.	c #A1783A",
"].	c #AB864B",
"^.	c #AA824B",
"/.	c #B2934F",
"(.	c #AF8F4D",
"_.	c #AB874A",
":.	c #AA8449",
"<.	c #AD8B4B",
"[.	c #B1924E",
"}.	c #B29450",
"|.	c #AB864C",
"1.	c #AA844B",
"2.	c #B49552",
"3.	c #AA8646",
"4.	c #A47D3E",
"5.	c #A57F3F",
"6.	c #A78240",
"7.	c #A88342",
"8.	c #AB8748",
"9.	c #AD8A4D",
"0.	c #B09050",
"a.	c #AD8A4E",
"b.	c #B39450",
"c.	c #B1924F",
"d.	c #AA8549",
"e.	c #AD894B",
"f.	c #B0904E",
"g.	c #AE8C4C",
"h.	c #A88149",
"i.	c #AF8E4E",
"j.	c #AB864A",
"k.	c #AC874B",
"l.	c #B0904F",
"m.	c #AB874B",
"n.	c #AC884C",
"o.	c #A78045",
"p.	c #A47D3D",
"q.	c #A78144",
"r.	c #AA834A",
"s.	c #B39452",
"t.	c #B08E50",
"u.	c #AB8849",
"v.	c #A88443",
"w.	c #A57F40",
"x.	c #A47C3E",
"y.	c #A57E3F",
"z.	c #A68040",
"A.	c #A47C3F",
"B.	c #A57D43",
"C.	c #AB8649",
"D.	c #A67F42",
"E.	c #A78043",
"F.	c #AC884B",
"G.	c #AC874A",
"H.	c #A67F43",
"I.	c #9E7433",
"J.	c #A3793D",
"K.	c #AC8A49",
"L.	c #AF8D4E",
"M.	c #A47C40",
"N.	c #A17838",
"O.	c #A27A3A",
"P.	c #A37C3B",
"Q.	c #A68042",
"R.	c #AA854A",
"S.	c #A27A3B",
"T.	c #A77F44",
"U.	c #AA844A",
"V.	c #B19250",
"W.	c #AF8E4D",
"X.	c #A98248",
"Y.	c #A67E45",
"Z.	c #AD894E",
"`.	c #AC894C",
" +	c #A88144",
".+	c #A88245",
"++	c #A57E41",
"@+	c #AA8548",
"#+	c #A98447",
"$+	c #A17739",
"%+	c #9E7432",
"&+	c #A88345",
"*+	c #AC8947",
"=+	c #A37B3A",
"-+	c #AB8749",
";+	c #A67E41",
">+	c #A67D43",
",+	c #A98545",
"'+	c #A78242",
")+	c #A57D3F",
"!+	c #A37A3E",
"~+	c #A27A39",
"{+	c #A98347",
"]+	c #A67E42",
"^+	c #A27A3C",
"/+	c #B49752",
"(+	c #AF8F4B",
"_+	c #A88247",
":+	c #A98247",
"<+	c #A27939",
"[+	c #B39652",
"}+	c #A07736",
"|+	c #AC8A47",
"1+	c #AD8A4B",
"2+	c #A57E3E",
"3+	c #A37B3F",
"4+	c #A47C41",
"5+	c #9F7434",
"6+	c #AE8D4A",
"7+	c #AA8645",
"8+	c #A68043",
"9+	c #AE8B4C",
"0+	c #A98346",
"a+	c #AB8846",
"b+	c #A88244",
"c+	c #B39351",
"d+	c #9E7332",
"e+	c #B39551",
"f+	c #A88543",
"g+	c #A78044",
"h+	c #A57E42",
"i+	c #A17837",
"j+	c #B1914F",
"k+	c #AD894C",
"l+	c #AD884C",
"m+	c #AE8D4D",
"n+	c #A37C3D",
"o+	c #A27938",
"p+	c #B39651",
"q+	c #AA8746",
"r+	c #A78042",
"s+	c #AC884A",
"t+	c #A88344",
"u+	c #080808",
"v+	c #B29151",
"w+	c #B69954",
"x+	c #AA834C",
"y+	c #A98645",
"z+	c #AA8448",
"A+	c #AA8745",
"B+	c #AB8946",
"C+	c #AB8947",
"D+	c #B29250",
"E+	c #AB854B",
"F+	c #A37B3C",
"G+	c #A17939",
"H+	c #EF7B00",
"I+	c #CE3900",
"J+	c #AD8B4C",
"K+	c #AA8649",
"L+	c #AD8B4A",
"M+	c #B1904F",
"N+	c #EFEF00",
"O+	c #A98349",
"P+	c #6B7B7B",
"Q+	c #AC894B",
"R+	c #AB8747",
"S+	c #AA8547",
"T+	c #AA8349",
"U+	c #4A4A4A",
"V+	c #292929",
"W+	c #AB8847",
"X+	c #A98444",
"Y+	c #AA8747",
"Z+	c #A47D3F",
"`+	c #A98643",
" @	c #A98546",
".@	c #B08F4E",
"+@	c #AC864D",
"@@	c #AC8948",
"#@	c #A78341",
"$@	c #A88442",
"%@	c #A88341",
"&@	c #AB8848",
"*@	c #AE8A4D",
"=@	c #A67F41",
"-@	c #B1934F",
";@	c #EFDEBD",
">@	c #BD6B39",
",@	c #181818",
"'@	c #8C1800",
")@	c #DEAD7B",
"!@	c #AD8A4A",
"~@	c #A68240",
"{@	c #AD8C4B",
"]@	c #B0914D",
"^@	c #A88343",
"/@	c #0018EF",
"(@	c #B19251",
"_@	c #B0904D",
":@	c #AA8744",
"<@	c #A57F3E",
"[@	c #AA8647",
"}@	c #A47C3D",
"|@	c #6B0000",
"1@	c #B49651",
"2@	c #AE8D4C",
"3@	c #AF8E4B",
"4@	c #A88048",
"5@	c #A37D3B",
"6@	c #A57D3E",
"7@	c #AD8D49",
"8@	c #A07836",
"9@	c #B59752",
"0@	c #9F7634",
"a@	c #A07738",
"b@	c #A27B39",
"c@	c #AC8A48",
"d@	c #AD8C49",
"e@	c #AD8B48",
"f@	c #AF8E4C",
"g@	c #AC8B48",
"h@	c #A78142",
"i@	c #A67F40",
"j@	c #A57D40",
"k@	c #A57C40",
"l@	c #AE8C4B",
"m@	c #A9824B",
"n@	c #AA8845",
"o@	c #A47B40",
"p@	c #A47B41",
"q@	c #A1773A",
"r@	c #A98644",
"s@	c #A68041",
"t@	c #AB8A47",
"u@	c #B08E4E",
"v@	c #A37C3C",
"w@	c #A78143",
"x@	c #B0904C",
"y@	c #A17937",
"z@	c #A5803E",
"A@	c #AE8D49",
"B@	c #A78140",
"C@	c #AA8846",
"D@	c #B39550",
"E@	c #B2924F",
"F@	c #AD8B4D",
"G@	c #AC8B49",
"          . + @ # $ $ $ # % & *                                                                                                     ",
"  * = - ; > , $ ' ) ! ~ { ] ^ / (           _ . ; ; = *     : < [ [ [ [ / } ; | 1 2 3 [ 3 3 3 3 3 [ [ [ 3 (   4 . = 5               ",
"  = 6 7 7 8 9 $ ' 0 a b c c d e f g       5 h i , 7 j k     l m n n n n o p 7 q r s e t n n n n n n n t e u v h w j 4               ",
". > x $ $ y z 8 A B C D E F E t G [ l 3 3 / H I J , 6 =     3 K L F F L M N O P Q R S F T T T T T E U U t V [ W X 6 k               ",
"Y x Z # ' % w `  ...+.@.t #.$.%.G e n n n e &.H *.=.. *     : [ -.L L m ;...>.b ..+.@.t T ,.'.'.).n !.~.f -.K &.H . *               ",
"{.{.J J J + h ].-.e @.~.m n G ~.K E E L E E K ( ^.  v ( ( v g / f e e !.f K D /.(._.:.<.d [.[.}.t %.: : 3 G n @.: ^.  : / |.1.v ( < ",
"*.*.*.*.*.h 4 g 3 !.V K @.!.G e 2.).t -.n E e <   1.[ m @.< < G V @.@.V K G &.3.Q 4.X 5.6.6.7.8.[ < : 9.V m !.l g     3 -.@.( < -.e ",
". = _   : |.v 1.|.[ 0.n @.a.-.t b.c.<.d.e.f.g.:.h.  a.e i.j.k.l.m m.j.m K n.o.Y Z $ ) z 8 A p.q.r.  g !.e @.|.      1.9.e K ~.f e s.",
"i j = ( @.-.3 ( f V -.@.m K t.!.u.v.w.x.y.Q z.A.B.4 ( 9.C.D.E.F.G.H.D._.F.q.7 9 ' I.Z J.H.3.K._.  ^.  < ~.l   ^.      ( ~.G K K @.u ",
"@ , h / V K n.2 L.e &.2 L.e +.} M.N.y ) % J O.P.Q.R.< / H S.7 =.h i + T.h Y y $ @ Z , > U.L.V.@.< ( ( / < < ( 1._ _     v [ f.W.j.X.",
"I.{.Y.: Z.`. +D.C.&..+++@+&.#+w $+$ %+$ {.& &+*+..m K m 8.=+Z q w 6 6 w 7 9 I.I.Z + *.= v 3 u m K K K K K K m -+;+>+4     :.,+'+)+!+",
"~+4.{+( < :.x.8 ]+- M.^+]+W M.% $ $ y $+M.X.9.V.L /+T /+(+B 0 J A._+:+A.J <+<+N., *.*     : 3 -.U E /+E L E [+R ] ++X.  4 > , }+) ) ",
"|+R W.V V 1+2+Z {.3+4+6 M.!+$+5+%+@ , & ; r.< u n F ,.T }.6+7+8+H 9+;.0+E.7+a+b+=.=     : ~.V -.-.t F c+V n /+/.R u.U.. 6 q @ d+%+I.",
"U e+E F ).[.f+~+z ^+g+X.h+8 N.0 i+J 6 =     g / @.U F T T E j+k+[ K e 9.l+m j+k+r.5   * U.+.j+!./ G t -.l %.U e+/.m+U.=.n+~+~+o+o+o+",
"G K E '.'.p+(+q+r+E.s++.@+D.t+q+t+> u+r.  g 3 @.u+-.v+E '.w+#.n V -.-.V V V u < g x+* h ++'+y+z+  l f 3 g < !.<.a+'+r Q.A+B+B+B+C+C+",
"/ f n E T T /+D ;./ -.D+!.k.L.u++.U.u+u+* r.&.u+u+k.9.t E E E L e [ [ K e ~.E+r._ _ . w z i+F+g+1.( ( : 1.g 1.o.I G+! v.(.e+e+e+U }.",
"-.-.-.K L T w+).t V -.-.m V u+u+u+u+H+u+u+]+u+I+u+++H J+-.-.-.-.f ( ( f u < _ Y.6 6 w J ) {.& K+L.-.@.[ 1.^.* | j Q.7+L+i.t ).#.v+V ",
"}.M+9.[ e E F E E t f 3 -.n u+N+u+u+H+N+I+u+u+I+u+O.++O+: P+P+u+u+u+u+r.U.r.- i % Z Z Z J j R.-.L F L -./ g :   r.Q+f.W.F.9.V.e [ : ",
"B+R+:.: ~.-.m m V @.l : ~.@.u+H+N+I+H+N+H+I+I+I+u+u+S+T+U+V+u+u+u+u+u+u+u+V+V+V+V+%+@ x ++C.-.s.T ,.T t m @.@.[ : d.W+X+]+Q.,+Y+U.  ",
"O.Z+_+: ( / ( |.|.:   r.u+u+u+u+N+N+H+H+N+H+I+I+u+u+V+V+u+u+g   . V+u+V+V+V+V+V+Z ) J j R.@.U E F ).T F E E L V / W 4.! O.O.A r 1   ",
"3+H.s+L.@.~.|.^.^.* h u+u+H+N+H+H+N+N+H+N+H+H+I+u+u+V+V+u+P+P+P+P+u+7.r w w w w M.w D._.@.V K K K s.T '.'.,.T s.m 1+A+a `+`+`+ @T+  ",
"k m.M+2.E n f g   _ u+u+H+H+N+N+H+H+N+H+H+N+N+I+u+u+u+u+u+u+u+u+u+u+U+F._ 4 k = = . :.o e %.|.E+/ m E ).F ).F E L U D D }.}./..@n.v ",
"  [ t T '.E e f ( r.^ u+u+H+H+H+N+H+H+H+H+H+I+H+H+u+u+u+u+u+L 0.K u+u+u+U++@r.; > B.E.3.W+&+j 6 > C.G K K K K K K K e s.).#.n V @.u ",
"  3 n ).T T E n ~.u+u+H+H+H+N+H+H+H+H+H+I+H+u+V+V+I+u+U /+).E L L /+/+u+u+u+u+w J z J =+P.O.8 J Y g+].< ( ( ( ( ( ( / @.U n f f e s.",
"  < @.n E T './+e -.u+u+u+I+H+N+N+H+N+H+u+u+u+V+V+u+u+u+..l.e e e e l.>.@@.+M.$+) J i z.#@$@%@#@v.&@9.<   ^.^.^.^.^.  3 -.u ( < @.e ",
"r.  E+*@n ).T F 2.L E F u+u+H+V+V+V+V+N+N+H+u+u+u+u+H+u+Q.d.< < / / z+=@P.u+u+u+u+u+u+u+u+u+-@-@/.b.t @.|.  1.1.1.    1.|.E+  1.|./ ",
"> >+>+H 9+K $.$.v+v+$.u+u+I+V+;@;@P+V+V+H+u+u+u+>@u+u+I+,@_ ^.u+u+u+u+u+u+,@,@,@,@,@u+'@'@)@u+w+'.,.T n u f f f f j.o.>+>+>+*.| 4 ^.",
"8 x x A.{+/ l / / / u+u+u+u+P+;@P+P+u+u+u+H+H+u+>@H+u+u+u+u+u+u+u+,@,@,@,@,@,@u+u+,@u+'@'@'@u+T T T ).E L s.s.L t !@y.{.{.{.8 M.1   ",
"6.~@6.v.s+n.} =.*.*.*.*.*.u+V+P+V+u+u+P+'@u+>@>@u+H+u+u+I+u+u+,@,@u+u+u+,@,@u+,@u+u+u+u+'@>@)@u+e n n L T '.T E D+{@f+~@~@~@6.X+F.f ",
"]@]@]@[.D (.^@, {.{.{.{.x J u+u+u+'@/@;@)@)@'@'@'@u+u+u+,@u+U+P+U+,@,@u+u+u+u+u+u+u+'@>@u+u+u+0+/ l [ K E '.).(@f ;._@]@]@]@]@[.D U ",
"n n n t t i.t++ 7 7 7 7 7 7 7 u+'@>@/@;@>@'@>@'@'@u+u+,@,@P+P+U+V+V+V+V+u+u+j {.}+P.u+u+u+] B .+* ^.1.~.e t e !.|.[ K t n n n n n n ",
"[ [ [ [ [ / O+; | ; ; ; ; ; ; u+u+>@;@)@)@'@'@'@u+u+V+,@V+P+U+U+V+V+V+,@,@,@u+u+u+:@c ]@_@]@c k+1.^.  |.l [ 3 ( 1.: l [ [ [ [ [ [ [ ",
"      * . h h h h ; _           u+u+)@)@>@>@u+u+u+u+u+,@V+u+U+U+V+V+V+,@,@V+V+V+,@u+u+u+T '.F K ~.[ [ |.1.|.3 / 1.                  ",
"      = 4+, , , , i h             u+u+u+u+u+,@u+u+u+,@V+V+u+u+U+V+V+V+,@V+V+V+V+V+V+,@u+u+u+T 2.t t n f |.~.K @.:                   ",
"  g < j.p <@{ ~ A + Y.r.( 3 [ n.U.1 ; h w Z u+u+u+,@,@V+V+V+u+u+u+V+V+V+,@,@V+V+V+V+,@V+V+,@u+u+u+u+F e f @.e V ~.3 3 3 3 [ [ < :   ",
"  / -.e _@(+(+R S+; = E+%.e t M+[@x., , z $ I.u+V+V+,@V+,@u+u+u+u+u+u+V+,@,@,@V+V+V+,@V+V+U+u+>@>@u+u+u+t -.f @.e n n n n n n -.<   ",
"  < m U /+/+L V.%.3 l a.m c+F e+@@}@{.8 A P P { u+P+u+u+u+|@|@|@|@'@|@u+u+u+V+,@V+V+V+V+U+u+'@>@>@)@)@;@u+m ~.@.n 2.).T T 1@c.g.z+. ",
"  : 3 G s.E K u V n n e G @.t 2.2@W *.o.[@R 3@>.u+u+P+u+|@|@|@|@'@'@|@|@u+,@u+,@,@V+,@V+U+u+'@>@)@'@'@u+u+-.K m %.K E w+T [.A+5.n++ ",
"  v ( f e n @.9.i.d [._@s+z+1+(.1+X.4@  ~.V.U t -.u+I+)@u+I+'@'@'@|@|@|@u+,@,@u+u+u+u+u+U+u+u+>@)@;@;@>@u+f e V ~.@.n U [.|+5@$ $ $ ",
"  < @.0.@.u V .@C+$@#@6.6@I y.B y.w *.5 < ~.u f 3 g u+'@V+u+'@'@|@|@|@u+,@,@u+|@u+7@..u+u+U+u+,@)@>@'@u+  ( f -.K V !.s+v.~ 8@' ' # ",
"= j.m M+F.2 2@>.6.}+$ }+~+P.P P P.p.q.].|.1.r.X.= = = u+|@V+u+u+u+u+,@,@,@u+|@|@|@u+9@T u+u+l u+,@u+u+:   _ _ Q+M 2@:.j J 0@$ ) a@J ",
"i H._.F.g+Z+B B b@$ d+}+6.c@d@C e@d@f@m f 1.h ,@,@,@u+u+u+u+u+,@,@,@,@,@u+|@|@|@|@u+w+,.T U e K e e 0.~.1.Y.w y.Q z.X {.@ I.# J M.> ",
"y , > h Y Z ) ) $ y i+{ d@e+9@/+/+/+).E K n.u+I+I+I+I+I+'@'@|@u+u+u+u+u+|@'@'@'@|@|@u+L 2.E F E L E E K n.` p.P.P.=+G+$+z z z i ; 5 ",
"' Z q q 9 I.d+d+d+i+6.d@/.T w+w+w+w+w+T 2.u+I+I+I+I+I+I+I+'@|@|@'@u+|@|@|@'@'@I+'@|@u+u -.s.F t V t F L e W.d@g@c@3.E.j j j B.h 4   ",
"a@N.O.! ~+~+~+~+~+O c@D /+).F E 2.E E 2.,@I+I+H+I+I+I+I+I+I+'@'@|@u+|@|@'@'@I+H+I+|@u+_ R.o j+9+j.!.U 2.L U U U t i.].r.E+E+E+E+|.|.",
"j E.3.|+|+|+|+|+|+K.g.m s.E n G u @.@.@.,@H+H+H+I+I+I+I+'@'@'@|@|@|@u+|@'@I+H+H+I+'@|@u+M.h@$@i@j@{+;.@.@.@.@.G @.Z.: < @.K K 0.0.0.",
"E+k+l.U p+1@1@1@E S !.3 K L -.( v v 1.r.u+H+H+I+I+I+I+'@I+|@'@|@u+u+u+u+'@H+H+H+H+I+|@u+Z N.<+~+F+q.].( : g g g g : |.f n E E E L L ",
"K V t.e E w+w+w+w+E %./ V L -.: ^.5 | 6 w u+I+I+I+'@'@I+u+u+u+u+u+'@|@u+|@I+H+H+H+I+'@u+u+u+k@^@W+l@L.[   m@^.m@  l @.V V n F E e G ",
"}.l.[ [ e E /+E /+U f / -.t %.r._ = 6 $+Z Z u+I+I+I+I+|@u+I+|@|@'@'@|@|@u+'@I+H+H+I+I+u+|@u+u+i.e+/+L m < : : 1.1.9.j+i.k.&.j+j+[ : ",
"n@Y+:.: ~.@.-.-.t.@.l : a.!.@+]+4+M., y I.$ z u+u+u+|@'@I+|@u+u+u+u+u+u+u+|@'@'@I+I+I+I+'@'@|@u+T w+T U V -.@.[ v d.3.^@++=@N [@:.  ",
"O.Z+_+: ( ( E+U.U.U.r.* r.} & z Z Z ) $ $ % w 1 9.c.u+u+u+u+g   1 A.<+J J u+u+'@I+I+'@|@|@|@|@u+/+).T ).E /+2.0./ W 4.! O.O.A r 1   ",
"w E.Q+G -.&.H 6 o@p@4+4+4+w q@5+%+I.I.$ J w Y.r.u 2.2.K -.G f : :.3.v.=@M.w w u+|@|@|@|@|@|@|@u+0.U T w+w+w+T L m <.a+:@:@:@:@3.:.  ",
"_ ].m L 2.f.^@8 J <+<+<+<+<+N.i+8@}+}+% A.1 r.1.f U E L L L K [ [ l..@k._ _ T+u+'@|@|@|@|@|@u+u+/ -.e+E 1@1@1@E L U }.D D }.D .@/   ",
"  ( %.K K +.&+r Q `+r@`+`+`+r@r@r@a s@& {+9.[ : < @.K K K K V -.-.V @.< |.~.@.G u+'@'@|@|@u+'@V+u+C.@@|+|+t@|+R u@V V V V K K u (   ",
"  1.: |.( E+r.R.m+/.D /././.}.}.b./.+.j.;.n V / : |.|.E+E+E+9.j+K *@: 1.< V s.L L u+u+u+u+'@>@V+u+u+A ~+~+b@v@w@j.< < < < / ( : 1.  ",
"    ^.^.^.^.^.: f K K K K n 2.T w+T t V n F s.-.[ g = *.j B.q.W+ .R.^.^.|.!.K K K K K u+u+>@u+u+V+u+u+d+$ =+#@&@;.%.!.%.!.[ g ^.^.  ",
"5     1.1.1.1.g ( < < / ( n.m E T ).E L E F E U -.E+*.7 z z G+A w.:+1.v : ( / / ( |.|.|.u+u+u+u+V+u+u+$ i+$@x@U e+L L L s.V l 1.1.1.",
"> W F.!.%.!.!.!.!.f f [ } o._.m e K e e e e $.K &.` !+Z %+I.y@z@7+1+!.%.!.f [ : * | >+B.u+u+u+u+V+u+u+w.v.K.l.s.T ,.T E n V @.f f f ",
"J i@..U L s.s.U U s.L j+y+x.g+].< / / / / ( / ].` Y % ) $ ) <@d@/.U U s.s.L n ~._ & 8 u+u+u+V+V+V+u+1 1+f.i.9.-.2.T ).n f f n L L L ",
"+ Q.<.e n e e e e n E p+A@N 8.[ <   . *.>+>+*.>+!+9 9 , 4.B@C@W.v+n e e t E E K &.3.u+V+V+V+U+U+u+u+1.~.K V %.@.K e e %.( ~.s.w+w+'.",
". _ E+< l < < < < ~.$.E D@c.D t u U.>+7 J x x {.% Z 7 =._.W..@9.< < < < f t F E S E@u+>@V+)@>@u+u+F@E+: l @.n V [ < < : 1.9.t T T T ",
"                ^.: !.e n t E E V v *.X 4.] <@I 7 + j _ 3 V -./         ( @.n n n n u+u+u+u+u+u+$.f g ^.1.~.V %.:     4 ; ^ G@b b b ",
"                  1.|.l l ~.e L -.E+h.= s+f@<.} ; . k r.: < / v         1.( l l l l l l l l l 3 l |.      : < ( 1.    | i S.P ~ ~ ~ ",
"                          : !.K f g ^.v ~.K @.|.                        * . h h h h h h h h h h | = r.                ; w , , 7 7 7 ",
"                            |.l |.1.    |.l / v                         = M., {.x x x x x x x {.7 > *                 _ . ; | | | | ",
"                                                                        . Y @ # $ $ $ $ $ $ $ # 9 6 _                               "};
