/* XPM */
static char * p_mov_down_left_3_xpm[] = {
"66 66 346 2",
"  	c #AA834B",
". 	c #A88047",
"+ 	c #A37A3D",
"@ 	c #9F7535",
"# 	c #9F7533",
"$ 	c #9F7534",
"% 	c #A07737",
"& 	c #A57D41",
"* 	c #A9824A",
"= 	c #A88148",
"- 	c #A88046",
"; 	c #A78046",
"> 	c #A67E43",
", 	c #A2793B",
"' 	c #9F7433",
") 	c #A07635",
"! 	c #A27B3A",
"~ 	c #A47E3D",
"{ 	c #A57F3D",
"] 	c #A6803F",
"^ 	c #A98446",
"/ 	c #AC874C",
"( 	c #AC864C",
"_ 	c #A98249",
": 	c #AB854C",
"< 	c #AC874D",
"[ 	c #AD894D",
"} 	c #A98348",
"| 	c #A77F46",
"1 	c #A88147",
"2 	c #AB854A",
"3 	c #AD884D",
"4 	c #A98149",
"5 	c #AA824A",
"6 	c #A57C41",
"7 	c #A2793C",
"8 	c #A2793A",
"9 	c #A07637",
"0 	c #A17938",
"a 	c #A98543",
"b 	c #AE8E4A",
"c 	c #AF8F4C",
"d 	c #B1914E",
"e 	c #B19150",
"f 	c #AE8B4E",
"g 	c #AB844C",
"h 	c #A77F45",
"i 	c #A37B3E",
"j 	c #A57D42",
"k 	c #A98148",
"l 	c #AC884D",
"m 	c #B08F4F",
"n 	c #B29251",
"o 	c #AF8D4D",
"p 	c #A78243",
"q 	c #A2783B",
"r 	c #A57E40",
"s 	c #AC894A",
"t 	c #B29351",
"u 	c #AF8C4F",
"v 	c #AB844B",
"w 	c #A47B3F",
"x 	c #A2783A",
"y 	c #9F7635",
"z 	c #A17738",
"A 	c #A37B3B",
"B 	c #A68140",
"C 	c #AD8B49",
"D 	c #B29350",
"E 	c #B49652",
"F 	c #B49753",
"G 	c #AF8E4F",
"H 	c #A88246",
"I 	c #A37B3D",
"J 	c #A17839",
"K 	c #B19050",
"L 	c #B39552",
"M 	c #B08F4D",
"N 	c #A98544",
"O 	c #A57E3D",
"P 	c #A47D3C",
"Q 	c #A78241",
"R 	c #AD8C4A",
"S 	c #B29451",
"T 	c #B59853",
"U 	c #B39451",
"V 	c #B08F50",
"W 	c #A88146",
"X 	c #A47B3E",
"Y 	c #A37A3C",
"Z 	c #A07636",
"` 	c #A88145",
" .	c #AC8949",
"..	c #AE8D4B",
"+.	c #AE8C4D",
"@.	c #AF8D4F",
"#.	c #B49653",
"$.	c #B19151",
"%.	c #AF8C4E",
"&.	c #AD8A4C",
"*.	c #A67E44",
"=.	c #A67F44",
"-.	c #B08E4F",
";.	c #AE8B4D",
">.	c #AE8E4B",
",.	c #B69953",
"'.	c #B59953",
").	c #B59753",
"!.	c #AE8C4E",
"~.	c #AE8A4E",
"{.	c #A1783A",
"].	c #AB864B",
"^.	c #AA824B",
"/.	c #B2934F",
"(.	c #AF8F4D",
"_.	c #AB874A",
":.	c #AA8449",
"<.	c #AD8B4B",
"[.	c #B1924E",
"}.	c #B29450",
"|.	c #AB864C",
"1.	c #AA844B",
"2.	c #B49552",
"3.	c #080808",
"4.	c #AA8646",
"5.	c #A47D3E",
"6.	c #A57F3F",
"7.	c #A78240",
"8.	c #A88342",
"9.	c #AB8748",
"0.	c #AD8A4D",
"a.	c #B09050",
"b.	c #AD8A4E",
"c.	c #B39450",
"d.	c #B1924F",
"e.	c #AA8549",
"f.	c #AD894B",
"g.	c #B0904E",
"h.	c #AE8C4C",
"i.	c #A88149",
"j.	c #AF8E4E",
"k.	c #EF7B00",
"l.	c #EFEF00",
"m.	c #AC884C",
"n.	c #A78045",
"o.	c #A47D3D",
"p.	c #A78144",
"q.	c #AA834A",
"r.	c #B39452",
"s.	c #B08E50",
"t.	c #AB8849",
"u.	c #A88443",
"v.	c #A57F40",
"w.	c #A47C3E",
"x.	c #A57E3F",
"y.	c #A68040",
"z.	c #A47C3F",
"A.	c #A57D43",
"B.	c #CE3900",
"C.	c #AC884B",
"D.	c #9E7433",
"E.	c #A3793D",
"F.	c #A67F43",
"G.	c #AC8A49",
"H.	c #AF8D4E",
"I.	c #A47C40",
"J.	c #A17838",
"K.	c #A27A3A",
"L.	c #AA844A",
"M.	c #B19250",
"N.	c #AF8E4D",
"O.	c #AB864A",
"P.	c #A98248",
"Q.	c #A67E45",
"R.	c #AD894E",
"S.	c #AC894C",
"T.	c #A88144",
"U.	c #A67F42",
"V.	c #AB8649",
"W.	c #A88245",
"X.	c #A57E41",
"Y.	c #AA8548",
"Z.	c #A98447",
"`.	c #A17739",
" +	c #9E7432",
".+	c #A88345",
"++	c #AB8749",
"@+	c #A67E41",
"#+	c #A67D43",
"$+	c #A98545",
"%+	c #A78242",
"&+	c #A57D3F",
"*+	c #A37A3E",
"=+	c #A27A39",
"-+	c #A98347",
";+	c #A67E42",
">+	c #A27A3C",
",+	c #B49752",
"'+	c #B39652",
")+	c #A07736",
"!+	c #AC8A47",
"~+	c #AD8A4B",
"{+	c #A57E3E",
"]+	c #A37B3F",
"^+	c #A47C41",
"/+	c #9F7434",
"(+	c #A88244",
"_+	c #B39351",
":+	c #9E7332",
"<+	c #B39551",
"[+	c #A88543",
"}+	c #A78044",
"|+	c #A57E42",
"1+	c #A17837",
"2+	c #6B7B7B",
"3+	c #292929",
"4+	c #B1914F",
"5+	c #AD894C",
"6+	c #AE8D4D",
"7+	c #A37C3D",
"8+	c #A27938",
"9+	c #B39651",
"0+	c #AF8F4B",
"a+	c #AA8746",
"b+	c #A78042",
"c+	c #A78043",
"d+	c #AC884A",
"e+	c #A88344",
"f+	c #EFDEBD",
"g+	c #4A4A4A",
"h+	c #AA834C",
"i+	c #A98645",
"j+	c #AA8448",
"k+	c #AB8846",
"l+	c #A68042",
"m+	c #AA8745",
"n+	c #AB8946",
"o+	c #AB8947",
"p+	c #B29250",
"q+	c #AC874B",
"r+	c #DEAD7B",
"s+	c #A37B3C",
"t+	c #A17939",
"u+	c #B69954",
"v+	c #A78143",
"w+	c #A98644",
"x+	c #AA8649",
"y+	c #AA8645",
"z+	c #AD8B4A",
"A+	c #B29151",
"B+	c #B1904F",
"C+	c #A27939",
"D+	c #0018EF",
"E+	c #8C1800",
"F+	c #BD6B39",
"G+	c #AA854A",
"H+	c #AC894B",
"I+	c #AB8747",
"J+	c #A07738",
"K+	c #A68041",
"L+	c #AB8847",
"M+	c #A98444",
"N+	c #AA8747",
"O+	c #A47D3F",
"P+	c #A88247",
"Q+	c #A98643",
"R+	c #A98546",
"S+	c #AA8349",
"T+	c #AB874B",
"U+	c #AB854B",
"V+	c #B08F4E",
"W+	c #A57C40",
"X+	c #AE8A4D",
"Y+	c #181818",
"Z+	c #B0914E",
"`+	c #A98349",
" @	c #A37B3A",
".@	c #A37C3B",
"+@	c #A77F44",
"@@	c #AB8948",
"#@	c #A78341",
"$@	c #A88442",
"%@	c #A88341",
"&@	c #AB8848",
"*@	c #B1934F",
"=@	c #AE8B4C",
"-@	c #B0904F",
";@	c #B59854",
">@	c #AD8A4A",
",@	c #A68240",
"'@	c #AD8C4B",
")@	c #B0914D",
"!@	c #A88343",
"~@	c #B19251",
"{@	c #B0904D",
"]@	c #6B0000",
"^@	c #A67F45",
"/@	c #A57F3E",
"(@	c #AA8547",
"_@	c #AA8647",
":@	c #9F7634",
"<@	c #AC8B48",
"[@	c #AC8948",
"}@	c #A47C3D",
"|@	c #B49651",
"1@	c #AE8D4C",
"2@	c #AF8E4B",
"3@	c #A88048",
"4@	c #A98346",
"5@	c #A37D3B",
"6@	c #A57D3E",
"7@	c #AE8D4A",
"8@	c #AD8D49",
"9@	c #A07836",
"0@	c #B59752",
"a@	c #A27B39",
"b@	c #AC8A48",
"c@	c #AD8C49",
"d@	c #AD8B48",
"e@	c #AF8E4C",
"f@	c #A47B40",
"g@	c #A78142",
"h@	c #A67F40",
"i@	c #A57D40",
"j@	c #AE8C4B",
"k@	c #A9824B",
"l@	c #AA8845",
"m@	c #A67F41",
"n@	c #A47B41",
"o@	c #A1773A",
"p@	c #AA8744",
"q@	c #AB8A47",
"r@	c #B08E4E",
"s@	c #A37C3C",
"t@	c #A98247",
"u@	c #B0904C",
"v@	c #A17937",
"w@	c #A5803E",
"x@	c #AE8D49",
"y@	c #A78140",
"z@	c #AA8846",
"A@	c #A78340",
"B@	c #B39550",
"C@	c #B2924F",
"D@	c #AC8B49",
"E@	c #A27A3B",
"          . + @ # $ $ $ # % & *                                                                                                     ",
"  * = - ; > , $ ' ) ! ~ { ] ^ / (           _ . ; ; = *     : < [ [ [ [ / } ; | 1 2 3 [ 3 3 3 3 3 [ [ [ 3 (   4 . = 5               ",
"  = 6 7 7 8 9 $ ' 0 a b c c d e f g       5 h i , 7 j k     l m n n n n o p 7 q r s e t n n n n n n n t e u v h w j 4               ",
". > x $ $ y z 8 A B C D E F E t G [ l 3 3 / H I J , 6 =     3 K L F F L M N O P Q R S F T T T T T E U U t V [ W X 6 k               ",
"Y x Z # ' % w `  ...+.@.t #.$.%.G e n n n e &.H *.=.. *     : [ -.L L m ;...>.b ..+.@.t T ,.'.'.).n !.~.f -.K &.H . *               ",
"{.{.J J J + h ].-.e @.~.m n G ~.K E E L E E K ( ^.  v ( ( v g / f e e !.f K D /.(._.:.<.d [.[.}.t %.: : 3 G n @.: ^.  : / |.1.v ( < ",
"*.*.*.*.*.h 4 g 3 !.V K @.!.G e 2.).t -.n E e <   1.[ m @.< 3.3.V 3.@.V K G &.4.Q 5.X 6.7.7.8.9.[ < : 0.V m !.l g     3 -.@.( < -.e ",
". = _   : |.v 1.|.[ a.n @.b.-.t c.d.<.e.f.g.h.:.i.3.3.3.j.3.k.3.3.l.3.m K m.n.Y Z $ ) z 8 A o.p.q.  g !.e @.|.      1.0.e K ~.f e r.",
"i j = ( @.-.3 ( f V -.@.m K s.!.t.u.v.w.x.Q y.z.A.3.l.k.3.k.l.B.l.k.3.3.C.p.7 9 ' D.Z E.F.4.G._.  ^.  < ~.l   ^.      ( ~.G K K @.u ",
"@ , h / V K m.2 H.e &.2 H.e +.} I.J.y ) % J K.3.3.3.k.l.k.k.l.k.k.B.3.B.3.3.y $ @ Z , > L.H.M.@.< ( ( / < < ( 1._ _     v [ g.N.O.P.",
"D.{.Q.: R.S.T.U.V.&.W.X.Y.&.Z.w `.$  +$ {.& .+3.k.l.k.k.l.k.k.k.B.B.B.k.k.B.3.D.Z + *.= v 3 u m K K K K K K m ++@+#+4     :.$+%+&+*+",
"=+5.-+( < :.w.8 ;+- I.>+;+W I.% $ $ y `.I.P.0.M.3.k.l.l.k.k.B.k.l.l.k.B.B.k.B.3., *.*     : 3 -.U E ,+E L E '+R ] X.P.  4 > , )+) ) ",
"!+R N.V V ~+{+Z {.]+^+6 I.*+`./+ +@ , & ; q.< 3.k.l.k.l.k.k.B.B.k.B.l.k.B.B.3.(+=.=     : ~.V -.-.t F _+V n ,+/.R t.L.. 6 q @ :+ +D.",
"U <+E F ).[.[+=+z >+}+P.|+8 J.0 1+J 6 =     3.k.l.2+k.l.l.k.B.3+3+3+B.l.B.3.4+5+q.5   * L.+.4+!./ G t -.l %.U <+/.6+L.=.7+=+=+8+8+8+",
"G K E '.'.9+0+a+b+c+d++.Y.U.e+a+e+> ; q.  g 3.3.3.f+k.l.3+B.3+3+3+3.3.B.3.3.g+< g h+* h X.%+i+j+  l f 3 g < !.<.k+%+r l+m+n+n+n+o+o+",
"/ f n E T T ,+D ;./ -.p+!.q+H.4++.L.*   * q.&.4+3.f+r+k.3+3+g+3+3+3+3+3.3.3.3+g+_ _ . w z 1+s+}+1.( ( : 1.g 1.n.I t+! u.(.<+<+<+U }.",
"-.-.-.K L T u+).t V -.-.m V V -.R.: h+  . ;+v+w+3.2+2+3.3.3.3.3.3.3.3.3.3.3._ 3+6 6 w J ) {.& x+H.-.@.[ 1.^.* | j l+y+z+j.t ).#.A+V ",
"}.B+0.[ e E F E E t f 3 -.n @.(   * * 4 j {.1+C+=+3.3+3.D+2+E+F+B.B.k.3+3.3.3+3.% Z Z Z J j G+-.L F L -./ g :   q.H+g.N.C.0.M.e [ : ",
"n+I+:.: ~.-.m m V @.l : ~.@.R.  | j & 6 , Z J+i K+3.F+E+D+f+r+r+F+l.r+3+B.3.3.3.3+ +@ x X.V.-.r.T ,.T t m @.@.[ : e.L+M+;+l+$+N+L.  ",
"K.O+P+: ( / ( |.|.:   q.L.1.1.k & J 9 % Z % *+1 &.3.E+F+D+f+r+E+E+k.r+E+k.3.3.3.3.) J j G+@.U E F ).T F E E L V / W 5.! K.K.A r 1   ",
"]+F.d+H.@.~.|.^.^.* h j 6 6 j I., $  +$ z i *.q.u 2.E+f+f+r+E+r+F+E+3.3.3.w 3.3.3.3.U._.g+g+K K K r.T '.'.,.T r.m ~+m+a Q+Q+Q+R+S+  ",
"k T+B+2.E n f g   _ & 8 J J J `.% Z @ % z.1 q.1.f U 3.r+f+f+r+F+E+3.F+3.3.3.3.3.= 3.3.3+3+%.|.U+/ m E ).F ).F E L U D D }.}./.V+m.v ",
"  [ t T '.E e f ( q.^ 8.v.X *+i w w w W+Z.X+R.: 3 -._+3.F+F+F+E+3.E+3.3+Y+Y+3.3.> 3.3.3.L+.+j 6 > V.G K K K K K K K e r.).#.n V @.u ",
"  3 n ).T T E n ~./ H.Z+&.`+= = = 1 . P.&.e 3.3.  ].%.U 3.3.3.3.3.3.3+Y+3.3+3+3+Y+3.Y+ @.@K.8 J Y }+].< ( ( ( ( ( ( / @.U n f f e r.",
"  < @.n E T '.,+e -.U F n u < 1.= +@> +@3.3.f+3.j #+W.@@..3.3.3.Y+Y+Y+3.3+3+g+g+g+3+g+3.#@$@%@#@u.&@0.<   ^.^.^.^.^.  3 -.u ( < @.e ",
"q.  U+X+n ).T F 2.L E F E t f q.j , 3.3.3.r+3.3.{.8 K.3.3.3.3+3+3.Y+3+3+3+g+2+g+Y+Y+g+2+3./.*@*@/.c.t @.|.  1.1.1.    1.|.U+  1.|./ ",
"> #+#+H =@K $.$.A+A+$.$.n -@C.=.7 3.f+r+F+3.3.#@#@3.3.3+3+g+g+g+2+Y+g+g+g+2+3+3+Y+Y+3+g+2+Y+;@u+'.,.T n u f f f f O.n.#+#+#+*.| 4 ^.",
"8 x x z.-+/ l / / / / / < ].F.8 3.r+F+E+3.F+r+3.3.3+g+g+3+g+g+g+2+Y+2+2+g+3+3.Y+Y+3+g+3+3+3+3.T T T ).E L r.r.L t >@x.{.{.{.8 I.1   ",
"7.,@7.u.d+m.} =.*.*.*.*.*.A.7 3.3.F+E+3.3.3.3.3+g+g+3+3.3+3+g+g+2+Y+2+2+g+3+3.Y+Y+3+3+g+g+3+3+3.e n n L T '.T E p+'@[+,@,@,@7.M+C.f ",
")@)@)@[.D (.!@, {.{.{.{.x J % 3.3.3.3.3.3.g+g+3+g+3.3+3.3.3+3+3+2+Y+Y+Y+2+g+3+3.Y+Y+Y+Y+Y+Y+3+3.3.l [ K E '.).~@f ;.{@)@)@)@)@[.D U ",
"n n n t t j.e++ 7 7 7 7 7 7 7 3.3+3.3.3.3+g+3+3.3+3.3.3.E+E+E+3+g+Y+3+3+Y+Y+Y+]@]@3.3.3+g+g+g+3+3.^.1.~.e t e !.|.[ K t n n n n n n ",
"[ [ [ [ [ / `+; | ; ; ; ; ; ; ; 3.3+3+3+3+3+3.3.3.3.3.3.B.k.3+g+Y+E+3+E+3.3.k.B.]@3.3+g+2+g+3+3+3.^.  |.l [ 3 ( 1.: l [ [ [ [ [ [ [ ",
"      * . h h h h ; _             3.3.3.3.3.3.3.| h h 3.E+B.3+g+Y+B.k.k.3.f+3.3.3.3.3.3+g+3+3+3+3.[ [ |.1.|.3 / 1.                  ",
"      = ^+, , , , i h                 * ^@+ , , , , , 3.E+E+3+g+Y+B.B.B.E+3.r+3.3.F+3.3.3.3+3+3.t t n f |.~.K @.:                   ",
"  g < O.p /@{ ~ A + Q.q.( 3 [ m.L.1 ; h w Z ' $ 0 P { 3.E+E+3+g+Y+E+E+B.E+3.3.F+r+f+3.r+3.3.3.E T T F e f @.e V ~.3 3 3 3 [ [ < :   ",
"  / -.e {@0+0+R (@; = U+%.e t B+_@w., , z $ D.:@/@<@c 3.E+B.3+2+E+B.k.k.3.r+F+3.E+F+r+3.3.[ f n ).'.T E t -.f @.e n n n n n n -.<   ",
"  < m U ,+,+L M.%.3 l b.m _+F <+[@}@{.8 A P P { m+g.U 3.E+E+3+2+E+E+E+E+E+3.3.3.3.E+F+3.    : %.t U U U t m ~.@.n 2.).T T |@d.h.j+. ",
"  : 3 G r.E K u V n n e G @.t 2.1@W *.n._@R 2@>.1@f f 3.3.3+3+Y+Y+3+3+3+E+E+E+E+3.3.3.h *     / 0.~.~.~.f -.K m %.K E u+T [.m+6.7++ ",
"  v ( f e n @.0.j.d [.{@d+j+~+(.~+P.3@  ~.M.U t -.(   3.3.3.3.3.3.3.3.3.3.3.3.3.P P 6.4@|.:             : f e V ~.@.n U [.!+5@$ $ $ ",
"  < @.a.@.u V V+o+$@#@7.6@I x.B x.w *.5 < ~.u f 3 g 3.E+E+E+E+E+3.E+E+E+E+E+E+Y+7@8@..g.m [ 1.^.^.^.^.^.  ( f -.K V !.d+u.~ 9@' ' # ",
"= O.m B+C.2 1@>.7.)+$ )+=+.@P P .@o.p.].|.1.q.P.= 3.E+E+E+E+B.E+3.E+E+E+E+E+E+E+3.,+0@T E -.l / / / / :   _ _ H+M 1@:.j J :@$ ) J+J ",
"i F._.C.}+O+B B a@$ :+)+7.b@c@C d@c@e@m f 1.h w 3.E+B.B.E+E+B.E+3.E+B.E+B.B.B.E+3.u+u+,.T U e K e e a.~.1.Q.w x.Q y.X {.@ D.# J I.> ",
"y , > h Y Z ) ) $ y 1+{ c@<+0@,+,+,+).E K m.n.3.E+B.B.B.B.B.E+E+3.E+E+B.k.k.B.E+3.L L L 2.E F E L E E K m.` o..@.@ @t+`.z z z i ; 5 ",
"' Z q q 9 D.:+:+:+1+7.c@/.T u+u+u+u+u+T 2.K 3.E+B.k.k.k.B.E+B.E+3.E+k.k.k.k.k.B.E+Y+u u -.r.F t V t F L e N.c@<@b@4.c+j j j A.h 4   ",
"J+J.K.! =+=+=+=+=+O b@D ,+).F E 2.E E 2.2.U 3.B.B.B.B.B.B.B.E+3.3.E+B.k.k.k.k.B.E+Y+`+_ G+o 4+=@O.!.U 2.L U U U t j.].q.U+U+U+U+|.|.",
"j c+4.!+!+!+!+!+!+G.h.m r.E n G u @.@.@.@.Y+E+B.k.k.k.k.B.E+3.n V 3.B.B.k.k.k.B.E+Y+f@]+I.g@$@h@i@-+;.@.@.@.@.G @.R.: < @.K K a.a.a.",
"U+5+-@U 9+|@|@|@E S !.3 K L -.( v v 1.q.`+Y+E+B.k.k.k.B.E+3.E L K 3.E+B.k.k.k.B.E+E+3.y Z J.C+=+s+p.].( : g g g g : |.f n E E E L L ",
"K V s.e E u+u+u+u+E %./ V L -.: ^.5 | 6 w 3.B.E+B.B.B.E+3.@.G G f |.3.E+B.B.B.B.E+E+3. +@ q W+!@L+j@H.[   k@^.k@  l @.V V n F E e G ",
"}.-@[ [ e E ,+E ,+U f / -.t %.q._ = 6 `.3.]@B.E+E+]@]@3.: : : : 1.q.3.]@E+B.B.E+E+E+]@3.J ;+2 j.<+,+L m < : : 1.1.0.4+j.q+&.4+4+[ : ",
"l@N+:.: ~.@.-.-.s.@.l : b.!.Y.;+^+I., y 3.B.E+E+E+]@]@3.^.^.^.^.= #+f@3.]@E+E+E+B.B.E+]@3._.m L T u+T U V -.@.[ v e.4.!@X.m@N _@:.  ",
"K.O+P+: ( ( U+L.L.L.q.* q.} & z Z Z ) $ 3.E+]@E+E+]@]@3.: : g   1 z.C+J 3.]@E+E+E+E+E+E+]@3.3.E ,+).T ).E ,+2.a./ W 5.! K.K.A r 1   ",
"w c+H+G -.&.H 6 f@n@^+^+^+w o@/+ +D.D.$ 3.]@]@]@]@]@3.K -.G f : :.4.u.m@I.3.]@E+B.B.B.B.B.]@3.Y+a.U T u+u+u+T L m <.k+p@p@p@p@4.:.  ",
"_ ].m L 2.g.!@8 J C+C+C+C+C+J.1+9@)+)+3.F+]@]@]@]@3.3.L L L K [ [ -@V+q+_ _ 3.]@]@E+E+B.E+E+Y+Y+Y+-.<+E |@|@|@E L U }.D D }.D V+/   ",
"  ( %.K K +..+r Q Q+w+Q+Q+Q+w+w+w+a K+3.3.3.3.3.3.3+3.K K K V -.-.V @.< |.~.@.3.]@]@E+E+E+Y+F+r+Y+3.[@!+!+q@!+R r@V V V V K K u (   ",
"  1.: |.( U+q.G+6+/.D /././.}.}.c./.+.3.3+3+g+3+3+g+3.U+U+U+0.4+K X+: 1.< V r.L 3.3.E+E+Y+3.3.3.Y+3+3.=+=+a@s@v+O.< < < < / ( : 1.  ",
"    ^.^.^.^.^.: f K K K K n 2.T u+3.3.3.3+3+3+3.3.3.3.*.j A.p.L+ .G+^.^.|.!.K K K 3.3.3.Y+3.g+2+3+3.3.3.$  @#@&@;.%.!.%.!.[ g ^.^.  ",
"5     1.1.1.1.g ( < < / ( m.m E 3.3.3.3.3.3.3.3+3+3.3.7 z z t+A v.t@1.v : ( / / ( |.|.3.3.g+3.3.3.3+3+3+3.$@u@U <+L L L r.V l 1.1.1.",
"> W C.!.%.!.!.!.!.f f [ } n._.3.F+3+r+F+g+g+3+g+3.3.*+Z  +D.v@w@y+~+!.%.!.f [ : * | #+A.3.3.3.g+2+2+g+3.3.3.-@r.T ,.T E n V @.f f f ",
"J h@..U L r.r.U U r.L 4+i+w.}+3.3.3.3.3.3.3.3.3.` Y % ) $ ) /@c@/.U U r.r.L n ~._ & 8 J 3.F+r+3+r+r+F+E+3.3.0.-.2.T ).n f f n L L L ",
"+ l+<.e n e e e e n E 9+x@N 9.[ <   . *.#+#+*.#+*+9 9 , 5.y@z@N.A+n e e t E E K &.4.#@A@#@3.g+2+g+2+2+g+g+3.%.@.K e e %.( ~.r.u+u+'.",
". _ U+< l < < < < ~.$.E B@d.D t u L.#+7 J x x {.% Z 7 =._.N.V+0.< < < < f t F E S C@[.[.[.3.3.3.3.3.3.3.3.@.n V [ < < : 1.0.t T T T ",
"                ^.: !.e n t E E V v *.X 5.] /@I 7 + j _ 3 V -./         ( @.n n n n n n n n n n $.f g ^.1.~.V %.:     4 ; ^ D@b b b ",
"                  1.|.l l ~.e L -.U+i.= d+e@<.} ; . k q.: < / v         1.( l l l l l l l l l 3 l |.      : < ( 1.    | i E@P ~ ~ ~ ",
"                          : !.K f g ^.v ~.K @.|.                        * . h h h h h h h h h h | = q.                ; w , , 7 7 7 ",
"                            |.l |.1.    |.l / v                         = I., {.x x x x x x x {.7 > *                 _ . ; | | | | ",
"                                                                        . Y @ # $ $ $ $ $ $ $ # 9 6 _                               "};
