/* XPM */
static char * p_mov_down_right_3_xpm[] = {
"66 66 345 2",
"  	c #AA834B",
". 	c #A88047",
"+ 	c #A37A3D",
"@ 	c #9F7535",
"# 	c #9F7533",
"$ 	c #9F7534",
"% 	c #A07737",
"& 	c #A57D41",
"* 	c #A9824A",
"= 	c #A88148",
"- 	c #A88046",
"; 	c #A78046",
"> 	c #A67E43",
", 	c #A2793B",
"' 	c #9F7433",
") 	c #A07635",
"! 	c #A27B3A",
"~ 	c #A47E3D",
"{ 	c #A57F3D",
"] 	c #A6803F",
"^ 	c #A98446",
"/ 	c #AC874C",
"( 	c #AC864C",
"_ 	c #A98249",
": 	c #AB854C",
"< 	c #AC874D",
"[ 	c #AD894D",
"} 	c #A98348",
"| 	c #A77F46",
"1 	c #A88147",
"2 	c #AB854A",
"3 	c #AD884D",
"4 	c #A98149",
"5 	c #AA824A",
"6 	c #A57C41",
"7 	c #A2793C",
"8 	c #A2793A",
"9 	c #A07637",
"0 	c #A17938",
"a 	c #A98543",
"b 	c #AE8E4A",
"c 	c #AF8F4C",
"d 	c #B1914E",
"e 	c #B19150",
"f 	c #AE8B4E",
"g 	c #AB844C",
"h 	c #A77F45",
"i 	c #A37B3E",
"j 	c #A57D42",
"k 	c #A98148",
"l 	c #AC884D",
"m 	c #B08F4F",
"n 	c #B29251",
"o 	c #AF8D4D",
"p 	c #A78243",
"q 	c #A2783B",
"r 	c #A57E40",
"s 	c #AC894A",
"t 	c #B29351",
"u 	c #AF8C4F",
"v 	c #AB844B",
"w 	c #A47B3F",
"x 	c #A2783A",
"y 	c #9F7635",
"z 	c #A17738",
"A 	c #A37B3B",
"B 	c #A68140",
"C 	c #AD8B49",
"D 	c #B29350",
"E 	c #B49652",
"F 	c #B49753",
"G 	c #AF8E4F",
"H 	c #A88246",
"I 	c #A37B3D",
"J 	c #A17839",
"K 	c #B19050",
"L 	c #B39552",
"M 	c #B08F4D",
"N 	c #A98544",
"O 	c #A57E3D",
"P 	c #A47D3C",
"Q 	c #A78241",
"R 	c #AD8C4A",
"S 	c #B29451",
"T 	c #B59853",
"U 	c #B39451",
"V 	c #B08F50",
"W 	c #A88146",
"X 	c #A47B3E",
"Y 	c #A37A3C",
"Z 	c #A07636",
"` 	c #A88145",
" .	c #AC8949",
"..	c #AE8D4B",
"+.	c #AE8C4D",
"@.	c #AF8D4F",
"#.	c #B49653",
"$.	c #B19151",
"%.	c #AF8C4E",
"&.	c #AD8A4C",
"*.	c #A67E44",
"=.	c #A67F44",
"-.	c #B08E4F",
";.	c #AE8B4D",
">.	c #AE8E4B",
",.	c #B69953",
"'.	c #B59953",
").	c #B59753",
"!.	c #AE8C4E",
"~.	c #AE8A4E",
"{.	c #A1783A",
"].	c #AB864B",
"^.	c #AA824B",
"/.	c #B2934F",
"(.	c #AF8F4D",
"_.	c #AB874A",
":.	c #AA8449",
"<.	c #AD8B4B",
"[.	c #B1924E",
"}.	c #B29450",
"|.	c #AB864C",
"1.	c #AA844B",
"2.	c #B49552",
"3.	c #080808",
"4.	c #AA8646",
"5.	c #A47D3E",
"6.	c #A57F3F",
"7.	c #A78240",
"8.	c #A88342",
"9.	c #AB8748",
"0.	c #AD8A4D",
"a.	c #B09050",
"b.	c #AD8A4E",
"c.	c #B39450",
"d.	c #B1924F",
"e.	c #AA8549",
"f.	c #AD894B",
"g.	c #B0904E",
"h.	c #AE8C4C",
"i.	c #A88149",
"j.	c #AF8E4E",
"k.	c #AB864A",
"l.	c #AC874B",
"m.	c #EFEF00",
"n.	c #EF7B00",
"o.	c #AC884C",
"p.	c #A47D3D",
"q.	c #A78144",
"r.	c #AA834A",
"s.	c #B39452",
"t.	c #B08E50",
"u.	c #AB8849",
"v.	c #A88443",
"w.	c #A57F40",
"x.	c #A47C3E",
"y.	c #A57E3F",
"z.	c #A68040",
"A.	c #A47C3F",
"B.	c #A57D43",
"C.	c #AB8649",
"D.	c #A67F42",
"E.	c #CE3900",
"F.	c #9E7433",
"G.	c #A3793D",
"H.	c #A67F43",
"I.	c #AC8A49",
"J.	c #AF8D4E",
"K.	c #A47C40",
"L.	c #A17838",
"M.	c #A27A3A",
"N.	c #A37C3B",
"O.	c #A68042",
"P.	c #AA854A",
"Q.	c #AA844A",
"R.	c #B19250",
"S.	c #AF8E4D",
"T.	c #A98248",
"U.	c #A67E45",
"V.	c #AD894E",
"W.	c #AC894C",
"X.	c #A88144",
"Y.	c #A88245",
"Z.	c #A57E41",
"`.	c #AA8548",
" +	c #A98447",
".+	c #A17739",
"++	c #9E7432",
"@+	c #A88345",
"#+	c #AC8947",
"$+	c #AB8749",
"%+	c #A67E41",
"&+	c #A67D43",
"*+	c #A98545",
"=+	c #A78242",
"-+	c #A57D3F",
";+	c #A37A3E",
">+	c #A27A39",
",+	c #A98347",
"'+	c #A67E42",
")+	c #A27A3C",
"!+	c #B49752",
"~+	c #B39652",
"{+	c #A07736",
"]+	c #AC8A47",
"^+	c #AD8A4B",
"/+	c #A57E3E",
"(+	c #A37B3F",
"_+	c #A47C41",
":+	c #9F7434",
"<+	c #B39351",
"[+	c #9E7332",
"}+	c #B39551",
"|+	c #A88543",
"1+	c #A78044",
"2+	c #A57E42",
"3+	c #A17837",
"4+	c #292929",
"5+	c #6B7B7B",
"6+	c #B1914F",
"7+	c #AE8D4D",
"8+	c #A37C3D",
"9+	c #A27938",
"0+	c #B39651",
"a+	c #AF8F4B",
"b+	c #AA8746",
"c+	c #A78042",
"d+	c #A78043",
"e+	c #AC884A",
"f+	c #A88344",
"g+	c #B29151",
"h+	c #4A4A4A",
"i+	c #EFDEBD",
"j+	c #A98645",
"k+	c #AA8448",
"l+	c #AB8846",
"m+	c #AA8745",
"n+	c #AB8946",
"o+	c #AB8947",
"p+	c #B29250",
"q+	c #DEAD7B",
"r+	c #A37B3C",
"s+	c #A78045",
"t+	c #A17939",
"u+	c #B69954",
"v+	c #AA834C",
"w+	c #A78143",
"x+	c #A98644",
"y+	c #A88343",
"z+	c #AD8B4C",
"A+	c #AA8649",
"B+	c #AA8645",
"C+	c #AD8B4A",
"D+	c #B1904F",
"E+	c #A27939",
"F+	c #BD6B39",
"G+	c #8C1800",
"H+	c #0018EF",
"I+	c #AC894B",
"J+	c #AC884B",
"K+	c #AB8747",
"L+	c #A07738",
"M+	c #A68041",
"N+	c #AB8847",
"O+	c #A98444",
"P+	c #AA8747",
"Q+	c #A47D3F",
"R+	c #A88247",
"S+	c #A98643",
"T+	c #A98546",
"U+	c #AA8349",
"V+	c #AB874B",
"W+	c #AB854B",
"X+	c #B08F4E",
"Y+	c #A57C40",
"Z+	c #AE8A4D",
"`+	c #181818",
" @	c #B0914E",
".@	c #A98349",
"+@	c #A77F44",
"@@	c #AC8948",
"#@	c #A88341",
"$@	c #A78341",
"%@	c #AB8848",
"&@	c #AE8B4C",
"*@	c #B0904F",
"=@	c #AD8A4A",
"-@	c #A68240",
";@	c #AD8C4B",
">@	c #B0914D",
",@	c #B19251",
"'@	c #B0904D",
")@	c #6B0000",
"!@	c #A57F3E",
"~@	c #AA8547",
"{@	c #AA8647",
"]@	c #A47C3D",
"^@	c #B49651",
"/@	c #AE8D4C",
"(@	c #AF8E4B",
"_@	c #A88048",
":@	c #A98346",
"<@	c #A37D3B",
"[@	c #A88442",
"}@	c #A57D3E",
"|@	c #AE8D4A",
"1@	c #AD8D49",
"2@	c #A07836",
"3@	c #B59752",
"4@	c #9F7634",
"5@	c #A27B39",
"6@	c #AC8A48",
"7@	c #AD8C49",
"8@	c #AD8B48",
"9@	c #AF8E4C",
"0@	c #A37B3A",
"a@	c #AC8B48",
"b@	c #A78142",
"c@	c #A67F40",
"d@	c #A57D40",
"e@	c #AD894C",
"f@	c #AE8C4F",
"g@	c #AE8C4B",
"h@	c #A9824B",
"i@	c #A9834A",
"j@	c #AA8845",
"k@	c #A47B40",
"l@	c #A67F41",
"m@	c #A47B41",
"n@	c #A1773A",
"o@	c #AA8744",
"p@	c #AB8A47",
"q@	c #B08E4E",
"r@	c #A37C3C",
"s@	c #A98247",
"t@	c #B0904C",
"u@	c #A17937",
"v@	c #A5803E",
"w@	c #A78140",
"x@	c #AA8846",
"y@	c #A78340",
"z@	c #B39550",
"A@	c #B2924F",
"B@	c #AD8B4D",
"C@	c #AC8B49",
"D@	c #A27A3B",
"          . + @ # $ $ $ # % & *                                                                                                     ",
"  * = - ; > , $ ' ) ! ~ { ] ^ / (           _ . ; ; = *     : < [ [ [ [ / } ; | 1 2 3 [ 3 3 3 3 3 [ [ [ 3 (   4 . = 5               ",
"  = 6 7 7 8 9 $ ' 0 a b c c d e f g       5 h i , 7 j k     l m n n n n o p 7 q r s e t n n n n n n n t e u v h w j 4               ",
". > x $ $ y z 8 A B C D E F E t G [ l 3 3 / H I J , 6 =     3 K L F F L M N O P Q R S F T T T T T E U U t V [ W X 6 k               ",
"Y x Z # ' % w `  ...+.@.t #.$.%.G e n n n e &.H *.=.. *     : [ -.L L m ;...>.b ..+.@.t T ,.'.'.).n !.~.f -.K &.H . *               ",
"{.{.J J J + h ].-.e @.~.m n G ~.K E E L E E K ( ^.  v ( ( v g / f e e !.f K D /.(._.:.<.d [.[.}.t %.: : 3 G n @.: ^.  : / |.1.v ( < ",
"*.*.*.*.*.h 4 g 3 !.V K @.!.G e 2.).t -.n E e <   1.[ m @.< < G 3.@.3.3.K G &.4.Q 5.X 6.7.7.8.9.[ < : 0.V m !.l g     3 -.@.( < -.e ",
". = _   : |.v 1.|.[ a.n @.b.-.t c.d.<.e.f.g.h.:.i.  b.e j.k.l.3.m.3.3.n.3.o.3.3.3.$ ) z 8 A p.q.r.  g !.e @.|.      1.0.e K ~.f e s.",
"i j = ( @.-.3 ( f V -.@.m K t.!.u.v.w.x.y.Q z.A.B.4 ( 0.C.D.3.3.n.m.E.m.n.3.n.m.3.F.Z G.H.4.I._.  ^.  < ~.l   ^.      ( ~.G K K @.u ",
"@ , h / V K o.2 J.e &.2 J.e +.} K.L.y ) % J M.N.O.P.< / 3.3.E.3.E.n.n.m.n.n.m.n.3.3.3.> Q.J.R.@.< ( ( / < < ( 1._ _     v [ g.S.k.T.",
"F.{.U.: V.W.X.D.C.&.Y.Z.`.&. +w .+$ ++$ {.& @+#+..m K 3.E.n.n.E.E.E.n.n.n.m.n.n.m.n.3.= v 3 u m K K K K K K m $+%+&+4     :.*+=+-+;+",
">+5.,+( < :.x.8 '+- K.)+'+W K.% $ $ y .+K.T.0.R.L !+3.E.n.E.E.n.m.m.n.E.n.n.m.m.n.3.*     : 3 -.U E !+E L E ~+R ] Z.T.  4 > , {+) ) ",
"]+R S.V V ^+/+Z {.(+_+6 K.;+.+:+++@ , & ; r.< u n F ,.3.E.E.n.m.E.n.E.E.n.n.m.n.m.n.3.  : ~.V -.-.t F <+V n !+/.R u.Q.. 6 q @ [+++F.",
"U }+E F ).[.|+>+z )+1+T.2+8 L.0 3+J 6 =     g / @.U F T 3.E.m.E.4+4+4+E.n.m.m.n.5+m.n.3.Q.+.6+!./ G t -.l %.U }+/.7+Q.=.8+>+>+9+9+9+",
"G K E '.'.0+a+b+c+d+e++.`.D.f+b+f+> ; r.  g 3 @.t.-.g+h+3.3.E.3.3.4+4+4+E.4+m.n.i+3.3.3.Z.=+j+k+  l f 3 g < !.<.l+=+r O.m+n+n+n+o+o+",
"/ f n E T T !+D ;./ -.p+!.l.J.6++.Q.*   * r.&.6+j.l.h+4+3.3.3.4+4+4+4+h+4+4+n.q+i+3.. w z 3+r+1+1.( ( : 1.g 1.s+I t+! v.(.}+}+}+U }.",
"-.-.-.K L T u+).t V -.-.m V V -.V.: v+  . '+w+x+y+Z.4+z+3.3.3.3.3.3.3.3.3.3.3.5+5+3.w J ) {.& A+J.-.@.[ 1.^.* | j O.B+C+j.t ).#.g+V ",
"}.D+0.[ e E F E E t f 3 -.n @.(   * * 4 j {.3+E+>+M.3.4+3.3.4+n.E.E.F+G+5+H+3.4+3.Z Z Z J j P.-.L F L -./ g :   r.I+g.S.J+0.R.e [ : ",
"n+K+:.: ~.-.m m V @.l : ~.@.V.  | j & 6 , Z L+i M+4+3.3.3.E.4+q+m.F+q+q+i+H+G+F+3.++@ x Z.C.-.s.T ,.T t m @.@.[ : e.N+O+'+O.*+P+Q.  ",
"M.Q+R+: ( / ( |.|.:   r.Q.1.1.k & J 9 % Z % ;+1 &.3.3.3.3.n.G+q+n.G+G+q+i+H+F+G+3.) J j P.@.U E F ).T F E E L V / W 5.! M.M.A r 1   ",
"(+H.e+J.@.~.|.^.^.* h j 6 6 j K., $ ++$ h+h+*.r.3.3.3.3.@.3.3.3.G+F+q+G+q+i+i+G+K.w D._.@.V K K K s.T '.'.,.T s.m ^+m+a S+S+S+T+U+  ",
"k V+D+2.E n f g   _ & 8 J J J .+% Z @ % A.4+4+3.3.U 3.3.3.3.3.F+3.G+F+q+i+i+q+3.= . :.o e %.|.W+/ m E ).F ).F E L U D D }.}./.X+o.v ",
"  [ t T '.E e f ( r.^ 8.w.X ;+i w w w Y+ +Z+3.3.3.-.3.3.`+`+4+3.G+3.G+F+F+F+3.; > B.d+4.N+@+j 6 > C.G K K K K K K K e s.).#.n V @.u ",
"  3 n ).T T E n ~./ J. @&..@= = = 1 . T.&.e J.`+3.`+4+4+4+3.`+4+3.3.3.3.3.3.1 w J z 3.3.N.M.8 J Y 1+].< ( ( ( ( ( ( / @.U n f f e s.",
"  < @.n E T '.!+e -.U F n u < 1.= +@> +@T+@@3.h+4+h+h+h+4+4+3.`+`+`+3.3.3.Y.K..+) J 3.i+3.3.#@$@v.%@0.<   ^.^.^.^.^.  3 -.u ( < @.e ",
"r.  W+Z+n ).T F 2.L E F E t f r.j , z J M.3.5+h+`+`+h+5+h+4+4+4+`+3.4+4+3.3.3.Z J & 3.3.q+3.3.3./.c.t @.|.  1.1.1.    1.|.W+  1.|./ ",
"> &+&+H &@K $.$.g+g+$.$.n *@J+=.7 ) F.$ `+5+h+4+`+`+4+4+5+h+h+h+`+5+h+h+h+4+4+3.3.e.%.3.3.F+q+i+3.,.T n u f f f f k.s+&+&+&+*.| 4 ^.",
"8 x x A.,+/ l / / / / / < ].H.8 Z $ # 3.4+4+4+h+4+`+`+3.4+h+5+5+`+5+h+h+h+4+h+h+4+3.3.q+F+3.G+F+q+3.).E L s.s.L t =@y.{.{.{.8 K.1   ",
"7.-@7.v.e+o.} =.*.*.*.*.*.B.7 @ F.y 3.4+4+h+h+4+4+`+`+3.4+h+5+5+`+5+h+h+4+4+3.4+h+h+4+3.3.3.3.G+F+3.3.L T '.T E p+;@|+-@-@-@7.O+J+f ",
">@>@>@[.D (.y+, {.{.{.{.x J % @ ' 3.3.4+`+`+`+`+`+`+3.4+h+5+`+`+`+5+4+4+4+3.3.4+3.h+4+h+h+3.3.3.3.3.3.K E '.).,@f ;.'@>@>@>@>@[.D U ",
"n n n t t j.f++ 7 7 7 7 7 7 7 7 , 3.4+h+h+h+4+3.3.)@)@`+`+`+4+4+`+h+4+G+G+G+3.3.3.4+3.4+h+4+3.3.3.4+3.~.e t e !.|.[ K t n n n n n n ",
"[ [ [ [ [ / .@; | ; ; ; ; ; ; ; ; 3.4+4+h+5+h+4+3.)@E.n.3.3.G+4+G+`+h+4+n.E.3.3.3.3.3.3.4+4+4+4+4+3.  |.l [ 3 ( 1.: l [ [ [ [ [ [ [ ",
"      * . h h h h ; _             3.4+4+4+h+4+3.3.3.3.3.i+3.n.n.E.`+h+4+E.G+3.r+r s 3.3.3.3.3.3.3.[ [ |.1.|.3 / 1.                  ",
"      = _+, , , , i h               3.4+4+3.3.3.F+3.3.q+3.G+E.E.E.`+h+4+G+G+3.`.R+2 f t T '.T 2.t t n f |.~.K @.:                   ",
"  g < k.p !@{ ~ A + U.r.( 3 [ o.Q.1 ; 3.3.3.q+3.i+q+F+3.3.G+E.G+G+`+h+4+G+G+3.[ 1.  |.@.t <+U E T T F e f @.e V ~.3 3 3 3 [ [ < :   ",
"  / -.e '@a+a+R ~@; = W+%.e t D+{@x., , z 3.3.q+F+G+3.F+q+3.n.n.E.G+5+4+E.G+3.|.    1./ [ [ f n ).'.T E t -.f @.e n n n n n n -.<   ",
"  < m U !+!+L R.%.3 l b.m <+F }+@@]@{.8 A P 3.F+G+3.3.3.3.G+G+G+G+G+5+4+G+G+3.. . - . _     : %.t U U U t m ~.@.n 2.).T T ^@d.h.k+. ",
"  : 3 G s.E K u V n n e G @.t 2./@W *.s+{@R (@3.3.3.G+G+G+G+4+4+4+`+`+4+4+3.3.7 7 7 w h *     / 0.~.~.~.f -.K m %.K E u+T [.m+6.8++ ",
"  v ( f e n @.0.j.d [.'@e+k+^+(.^+T._@  ~.R.U t -.( 3.3.3.3.3.3.3.3.3.3.3.3.3.P P P 6.:@|.:             : f e V ~.@.n U [.]+<@$ $ $ ",
"  < @.a.@.u V X+o+[@$@7.}@I y.B y.w *.5 < ~.u f 3 g `+G+G+G+G+G+G+3.G+G+G+G+G+3.|@1@..g.m [ 1.^.^.^.^.^.  ( f -.K V !.e+v.~ 2@' ' # ",
"= k.m D+J+2 /@>.7.{+$ {+>+N.P P N.p.q.].|.1.r.T.= 3.G+G+G+G+G+G+G+3.G+E.G+G+G+G+3.!+3@T E -.l / / / / :   _ _ I+M /@:.j J 4@$ ) L+J ",
"i H._.J+1+Q+B B 5@$ [+{+7.6@7@C 8@7@9@m f 1.h w + 3.G+E.E.E.G+E.G+3.G+E.G+G+E.E.G+3.u+,.T U e K e e a.~.1.U.w y.Q z.X {.@ F.# J K.> ",
"y , > h Y Z ) ) $ y 3+{ 7@}+3@!+!+!+).E K o.s+Y E+3.G+E.n.n.E.G+G+3.G+G+E.E.E.E.E.G+3.L 2.E F E L E E K o.` p.N.N.0@t+.+z z z i ; 5 ",
"' Z q q 9 F.[+[+[+3+7.7@/.T u+u+u+u+u+T 2.K e+s+`+G+E.n.n.n.n.n.G+3.G+E.G+E.n.n.n.E.G+3.-.s.F t V t F L e S.7@a@6@4.d+j j j B.h 4   ",
"L+L.M.! >+>+>+>+>+O 6@D !+).F E 2.E E 2.2.U -.o.`+G+E.n.n.n.n.E.G+3.3.G+E.E.E.E.E.E.E.3.P.o 6+&@k.!.U 2.L U U U t j.].r.W+W+W+W+|.|.",
"j d+4.]+]+]+]+]+]+I.h.m s.E n G u @.@.@.@.@.V K `+G+E.n.n.n.E.E.3.-.-.3.G+E.n.n.n.n.E.G+`+b@[@c@d@,+;.@.@.@.@.G @.V.: < @.K K a.a.a.",
"W+e@*@U 0+^@^@^@E S !.3 K L -.( v v 1.r..@Q.&.3.G+G+E.n.n.n.E.G+3.[ [ K 3.G+E.n.n.n.E.G+`+L.E+>+r+q.].( : g g g g : |.f n E E E L L ",
"K V t.e E u+u+u+u+E %./ V L -.: ^.5 | 6 w K.b@3.G+G+E.E.E.E.G+3.f |.|.f f@3.G+E.E.E.G+E.3.q Y+y+N+g@J.[   h@^.h@  l @.V V n F E e G ",
"}.*@[ [ e E !+E !+U f / -.t %.r._ = 6 .+Z Z 3.)@G+G+G+E.E.G+)@3.1.r._ r.r.i@3.)@)@G+G+E.)@3.2 j.}+!+L m < : : 1.1.0.6+j.l.&.6+6+[ : ",
"j@P+:.: ~.@.-.-.t.@.l : b.!.`.'+_+K., y F.3.)@G+E.E.G+G+G+)@3.^.= &+k@k@K.K.3.)@)@G+G+G+E.3.m L T u+T U V -.@.[ v e.4.y+Z.l@N {@:.  ",
"M.Q+R+: ( ( W+Q.Q.Q.r.* r.} & z Z Z ) 3.3.)@G+G+G+G+G+G+)@3.g   1 A.E+J J .+3.)@)@G+G+)@G+3.U E !+).T ).E !+2.a./ W 5.! M.M.A r 1   ",
"w d+I+G -.&.H 6 k@m@_+_+_+w n@:+++F.`+3.)@E.E.E.E.E.G+)@3.G f : :.4.v.l@K.w w 3.)@)@)@)@)@3.m -.a.U T u+u+u+T L m <.l+o@o@o@o@4.:.  ",
"_ ].m L 2.g.y+8 J E+E+E+E+E+L.3+2@`+`+`+G+G+E.G+G+)@)@3.L L K [ [ *@X+l._ _ U+3.3.)@)@)@)@F+3.: / -.}+E ^@^@^@E L U }.D D }.D X+/   ",
"  ( %.K K +.@+r Q S+x+S+S+S+x+x+3.`+q+F+`+G+G+G+)@)@3.K K K V -.-.V @.< |.~.@.3.4+3.3.3.3.3.3.< v C.@@]+]+p@]+R q@V V V V K K u (   ",
"  1.: |.( W+r.P.7+/.D /././.}.3.4+`+3.3.3.`+G+G+3.3.|.W+W+W+0.6+K Z+: 1.< V s.3.h+4+4+h+4+4+3.f U+'+A >+>+5@r@w+k.< < < < / ( : 1.  ",
"    ^.^.^.^.^.: f K K K K n 3.3.3.4+5+h+3.`+3.3.3.g = *.j B.q.N+ .P.^.^.|.!.K 3.3.3.3.4+4+4+3.3.3., $ [+$ 0@$@%@;.%.!.%.!.[ g ^.^.  ",
"5     1.1.1.1.g ( < < / ( 3.4+4+4+3.3.3.h+3.3.U -.W+*.7 z z t+A w.s@1.v : ( / 3.3.4+4+3.3.3.3.3.3.3.) $ 3+[@t@U }+L L L s.V l 1.1.1.",
"> W J+!.%.!.!.!.!.f f [ 3.3.3.h+5+5+h+3.3.3.$.K &.` ;+Z ++F.u@v@B+^+!.%.!.f [ : 3.3.h+4+h+h+F+q+4+F+3.w.v.I.*@s.T ,.T E n V @.f f f ",
"J c@..U L s.s.U U s.L 6+3.3.G+F+q+q+4+q+F+3./ ].` Y % ) $ ) !@7@/.U U s.s.L n ~._ & 3.3.3.3.3.3.3.3.3.^+g.j.0.-.2.T ).n f f n L L L ",
"+ O.<.e n e e e e n E 0+3.h+h+5+5+h+5+h+3.&+*.&+;+9 9 , 5.w@x@S.g+n e e t E E K &.4.$@y@$@$@$@$@8.:@1.~.K V %.@.K e e %.( ~.s.u+u+'.",
". _ W+< l < < < < ~.$.E z@3.3.3.3.3.3.3.3.x x {.% Z 7 =._.S.X+0.< < < < f t F E S A@[.[.[.[.[.[.g.B@W+: l @.n V [ < < : 1.0.t T T T ",
"                ^.: !.e n t E E V v *.X 5.] !@I 7 + j _ 3 V -./         ( @.n n n n n n n n n n $.f g ^.1.~.V %.:     4 ; ^ C@b b b ",
"                  1.|.l l ~.e L -.W+i.= e+9@<.} ; . k r.: < / v         1.( l l l l l l l l l 3 l |.      : < ( 1.    | i D@P ~ ~ ~ ",
"                          : !.K f g ^.v ~.K @.|.                        * . h h h h h h h h h h | = r.                ; w , , 7 7 7 ",
"                            |.l |.1.    |.l / v                         = K., {.x x x x x x x {.7 > *                 _ . ; | | | | ",
"                                                                        . Y @ # $ $ $ $ $ $ $ # 9 6 _                               "};
