/* XPM */
static char * p_mov_up_left_1_xpm[] = {
"66 66 347 2",
"  	c #AA834B",
". 	c #A9824A",
"+ 	c #A57D41",
"@ 	c #A07737",
"# 	c #9F7533",
"$ 	c #9F7534",
"% 	c #9F7535",
"& 	c #A37A3D",
"* 	c #A88047",
"= 	c #AA824A",
"- 	c #A88148",
"; 	c #A98149",
"> 	c #AC864C",
", 	c #AD884D",
"' 	c #AD894D",
") 	c #AB854A",
"! 	c #A88147",
"~ 	c #A77F46",
"{ 	c #A78046",
"] 	c #A98348",
"^ 	c #AC874C",
"/ 	c #AC874D",
"( 	c #AB854C",
"_ 	c #A98249",
": 	c #A98446",
"< 	c #A6803F",
"[ 	c #A57F3D",
"} 	c #A47E3D",
"| 	c #A27B3A",
"1 	c #A07635",
"2 	c #9F7433",
"3 	c #A2793B",
"4 	c #A67E43",
"5 	c #A88046",
"6 	c #A57D42",
"7 	c #A47B3F",
"8 	c #A77F45",
"9 	c #AB844B",
"0 	c #AF8C4F",
"a 	c #B19150",
"b 	c #B29351",
"c 	c #B29251",
"d 	c #AC894A",
"e 	c #A57E40",
"f 	c #A2783B",
"g 	c #4A4A4A",
"h 	c #A78243",
"i 	c #AF8D4D",
"j 	c #B08F4F",
"k 	c #AC884D",
"l 	c #A98148",
"m 	c #A2793C",
"n 	c #A37B3E",
"o 	c #AB844C",
"p 	c #AE8B4E",
"q 	c #B1914E",
"r 	c #AF8F4C",
"s 	c #AE8E4A",
"t 	c #A98543",
"u 	c #A17938",
"v 	c #A07637",
"w 	c #A2793A",
"x 	c #A57C41",
"y 	c #A47B3E",
"z 	c #A88146",
"A 	c #B08F50",
"B 	c #B39451",
"C 	c #B49652",
"D 	c #B59853",
"E 	c #B49753",
"F 	c #B29451",
"G 	c #AD8C4A",
"H 	c #A78241",
"I 	c #A47D3C",
"J 	c #B08F4D",
"K 	c #B39552",
"L 	c #B19050",
"M 	c #A17839",
"N 	c #A37B3D",
"O 	c #A88246",
"P 	c #AF8E4F",
"Q 	c #B29350",
"R 	c #AD8B49",
"S 	c #A68140",
"T 	c #A37B3B",
"U 	c #A17738",
"V 	c #9F7635",
"W 	c #A2783A",
"X 	c #AD8A4C",
"Y 	c #B08E4F",
"Z 	c #AE8A4E",
"` 	c #AE8C4E",
" .	c #B59753",
"..	c #B59953",
"+.	c #B69953",
"@.	c #AF8D4F",
"#.	c #AE8C4D",
"$.	c #AE8D4B",
"%.	c #292929",
"&.	c #A67F44",
"*.	c #A67E44",
"=.	c #AF8C4E",
"-.	c #B19151",
";.	c #B49653",
">.	c #AC8949",
",.	c #A88145",
"'.	c #A07636",
").	c #A37A3C",
"!.	c #AA844B",
"~.	c #AB864C",
"{.	c #AA824B",
"].	c #B29450",
"^.	c #B1924E",
"/.	c #AD8B4B",
"(.	c #AA8449",
"_.	c #AB874A",
":.	c #AF8F4D",
"<.	c #B2934F",
"[.	c #AB864B",
"}.	c #A1783A",
"|.	c #AD8A4D",
"1.	c #AB8748",
"2.	c #A88342",
"3.	c #A78240",
"4.	c #A57F3F",
"5.	c #A47D3E",
"6.	c #AA8646",
"7.	c #B49552",
"8.	c #B39452",
"9.	c #AA834A",
"0.	c #A78144",
"a.	c #A47D3D",
"b.	c #A78045",
"c.	c #AB864A",
"d.	c #AC874B",
"e.	c #AF8E4E",
"f.	c #AD8A4E",
"g.	c #A88149",
"h.	c #AE8C4C",
"i.	c #B0904E",
"j.	c #AD894B",
"k.	c #AA8549",
"l.	c #B1924F",
"m.	c #B39450",
"n.	c #B09050",
"o.	c #080808",
"p.	c #A67F43",
"q.	c #A3793D",
"r.	c #A67F42",
"s.	c #A78043",
"t.	c #AB8649",
"u.	c #A57D43",
"v.	c #A47C3F",
"w.	c #A68040",
"x.	c #A57E3F",
"y.	c #A47C3E",
"z.	c #A57F40",
"A.	c #A88443",
"B.	c #AB8849",
"C.	c #B08E50",
"D.	c #A98248",
"E.	c #AF8E4D",
"F.	c #CE3900",
"G.	c #AF8D4E",
"H.	c #A77F44",
"I.	c #A27A3B",
"J.	c #AA854A",
"K.	c #A68042",
"L.	c #A37C3B",
"M.	c #A27A3A",
"N.	c #A17838",
"O.	c #A47C40",
"P.	c #AC884C",
"Q.	c #A37A3E",
"R.	c #A57D3F",
"S.	c #A78242",
"T.	c #A98545",
"U.	c #A67D43",
"V.	c #A67E41",
"W.	c #AB8749",
"X.	c #EFEF00",
"Y.	c #EF7B00",
"Z.	c #A37B3A",
"`.	c #AC8947",
" +	c #A88345",
".+	c #9E7432",
"++	c #A17739",
"@+	c #A98447",
"#+	c #AA8548",
"$+	c #A57E41",
"%+	c #A88245",
"&+	c #A88144",
"*+	c #AC894C",
"=+	c #AD894E",
"-+	c #A67E45",
";+	c #9E7433",
">+	c #A07736",
",+	c #B39652",
"'+	c #B49752",
")+	c #AF8F4B",
"!+	c #B19250",
"~+	c #A67E42",
"{+	c #A27A3C",
"]+	c #A98347",
"^+	c #A27A39",
"/+	c #9E7332",
"(+	c #AA844A",
"_+	c #B39351",
":+	c #A68043",
"<+	c #AA8645",
"[+	c #AE8D4A",
"}+	c #9F7434",
"|+	c #A47C41",
"1+	c #A37B3F",
"2+	c #A57E3E",
"3+	c #AD8A4B",
"4+	c #AC8A47",
"5+	c #A27938",
"6+	c #A37C3D",
"7+	c #AE8D4D",
"8+	c #B39551",
"9+	c #AD894C",
"0+	c #B1914F",
"a+	c #A17837",
"b+	c #A57E42",
"c+	c #A78044",
"d+	c #A88543",
"e+	c #AB8947",
"f+	c #AB8946",
"g+	c #AA8745",
"h+	c #AB8846",
"i+	c #B69954",
"j+	c #B29151",
"k+	c #A88344",
"l+	c #AA8746",
"m+	c #AC884A",
"n+	c #A78042",
"o+	c #B39651",
"p+	c #A17939",
"q+	c #181818",
"r+	c #B29250",
"s+	c #AE8B4D",
"t+	c #AD8B4A",
"u+	c #AD8B4C",
"v+	c #A88343",
"w+	c #A98644",
"x+	c #A78143",
"y+	c #AA834C",
"z+	c #AC884B",
"A+	c #AC894B",
"B+	c #A98349",
"C+	c #A27939",
"D+	c #B1904F",
"E+	c #AA8747",
"F+	c #A98444",
"G+	c #AB8847",
"H+	c #6B7B7B",
"I+	c #EFDEBD",
"J+	c #AA8349",
"K+	c #AA8547",
"L+	c #A98544",
"M+	c #A68041",
"N+	c #A07738",
"O+	c #AB8747",
"P+	c #8C1800",
"Q+	c #B0904F",
"R+	c #A88247",
"S+	c #A47D3F",
"T+	c #A98546",
"U+	c #A98643",
"V+	c #BD6B39",
"W+	c #B08F4E",
"X+	c #AB854B",
"Y+	c #0018EF",
"Z+	c #AB874B",
"`+	c #DEAD7B",
" @	c #B0914E",
".@	c #AB8848",
"+@	c #A78341",
"@@	c #B1934F",
"#@	c #AE8A4D",
"$@	c #B59854",
"%@	c #A6813F",
"&@	c #A27B39",
"*@	c #AE8B4C",
"=@	c #AD8A4A",
"-@	c #AF8E4B",
";@	c #A07837",
">@	c #A68240",
",@	c #AD8C4B",
"'@	c #6B0000",
")@	c #AC8948",
"!@	c #B0914D",
"~@	c #B0904D",
"{@	c #B19251",
"]@	c #AE8E4B",
"^@	c #AA8647",
"/@	c #AA8744",
"(@	c #A37B3C",
"_@	c #A67F45",
":@	c #A57F3E",
"<@	c #AA8448",
"[@	c #B49651",
"}@	c #A47C3D",
"|@	c #AE8D4C",
"1@	c #A37D3B",
"2@	c #A98346",
"3@	c #A88048",
"4@	c #A07836",
"5@	c #A57D3E",
"6@	c #A88442",
"7@	c #9F7634",
"8@	c #AF8E4C",
"9@	c #AD8C49",
"0@	c #AD8B48",
"a@	c #AC8A48",
"b@	c #B59752",
"c@	c #AC8B48",
"d@	c #A57E3D",
"e@	c #A57D40",
"f@	c #A67F40",
"g@	c #A78142",
"h@	c #AC8A49",
"i@	c #A9824B",
"j@	c #AE8C4B",
"k@	c #A57C40",
"l@	c #A67F41",
"m@	c #AA8845",
"n@	c #A47B40",
"o@	c #A1773A",
"p@	c #A47B41",
"q@	c #B08E4E",
"r@	c #AB8A47",
"s@	c #A37C3C",
"t@	c #B0904C",
"u@	c #A98247",
"v@	c #A5803E",
"w@	c #A17937",
"x@	c #A98645",
"y@	c #A78340",
"z@	c #AA8846",
"A@	c #A78140",
"B@	c #AE8D49",
"C@	c #AD8B4D",
"D@	c #B2924F",
"E@	c #B39550",
"F@	c #AC8B49",
"                                                                                                    . + @ # $ $ $ # % & *           ",
"              = - * ;   > , ' ' ' , , , , , ' , ) ! ~ { ] ^ ' ' ' ' / (     . - { { * _           > ^ : < [ } | 1 2 $ 3 4 { 5 - .   ",
"              ; 6 7 8 9 0 a b c c c c c c c b a d e f g h i c c c c j k     l 6 m 3 n 8 =       o p a q r r s t u 2 $ v w m m x -   ",
"              l x y z ' A b B B C D D D D D E F G H I g g J K E E K L ,     - x 3 M N O ^ , , k ' P b C E C Q R S T w U V $ $ W 4 * ",
"              . * O X L Y p Z ` c  .....+.D b @.#.$.s g g %.j K g g ' (     . * &.*.O X a c c c a P =.-.;.b @.#.$.>.,.7 @ 2 # '.W ).",
"/ > 9 !.~.^ (   {.( @.c P , ( ( =.b ].^.^.q /.(._.:.<.Q g %.` a g g %.o 9 > > 9   {.> L C C K C C L Z P c j Z @.a Y [.8 & M M M }.}.",
"a Y / > @.Y ,     o k ` j A |.( / ' 1.2.3.3.4.y 5.H 6.X g %.A @.g g %./ / @.j ' !.  / a C c Y b  .7.a P ` @.L A ` , o ; 8 *.*.*.*.*.",
"8.a p Z L a |.!.      ~.@.a ` o   9.0.a.T w U 1 $ '.).b.g %.j c.g g %.d.c.e.a f.  g.(.h.i.j.k./.l.m.b Y f.@.c n.' ~.!.9 ~.(   _ - * ",
"0 @.L L P Z >       {.  k Z /   {.  o.o.6.p.q.'.o.o.v m g %._.r.g g %.s.r.t.|.> ; u.v.w.H x.y.z.A.B.` C.L j @.Y A p > , Y @.> - 6 n ",
"D.c.E.i.' 9     _ _ !.> / / ^ > > / o.F.G.o.o.3 o.F.o.V g %.H.& g %.&.m I.O ^ / J.K.L.M.M @ 1 V N.O.] #.a G.) X a G.) P.L A ^ 8 3 % ",
"Q.R.S.T.(.    ; U.V.W.j L L L L L L o.X.Y.o.Y.o.X.F.o.o.o.o.o.x g %.f '.Z.1.j L j $.`. ++ }.$ .+$ ++7 @+X #+$+%+X t.r.&+*+=+( -+}.;+",
"1 1 >+3 4 ;   D.$+< G ,+C K C '+o.o.o.X.Y.o.X.Y.X.Y.o.Y.Y.o.Y.o.g %.M u S )+'+D '+K !+|.D.O.++V $ $ @ O.z ~+{+O.5 ~+w y.(./ > ]+5.^+",
";+.+/+% f x * (+B.G <.'+c A _+E o.X.Y.X.X.Y.X.Y.Y.Y.X.X.Y.F.X.o.g %.:+<+[+].D +.E c 0 / 9.{ + 3 % .+}+++Q.O.x |+1+}.'.2+3+A A E.G 4+",
"5+5+5+^+^+6+&.(+7+<.8+B =.k Y b P o.X.Y.X.X.Y.Y.Y.Y.F.F.F.Y.X.Y.o.' 9+0+C D D E B @.^ o     - x M a+u N.w b+D.c+{+U ^+d+^. .E C 8+B ",
"e+e+f+f+f+g+K.e S.h+/.` / o , p k   o.X.X.X.Y.Y.X.X.Y.F.F.F.Y.o.%.A c ;.i+..C j+Y C.@., o   9.{ 4 k+l+k+r.#+#.m+s.n+l+)+o+....C L P ",
"].B 8+8+8+:.A.| p+N b.!.o !.( > > o.Y.Y.Y.X.Y.F.Y.Y.X.Y.Y.F.Y.F.q+a K C C C b |.d.e.0+X 9..   . (+#.0+G.d.` r+Y ^ s+Q '+D D C c p ^ ",
"A j+;. .b e.t+<+K.6 ~ . {.!.' o.o.o.X.Y.F.Y.Y.F.Y.F.Y.X.q+q+g Y.q+p Y Y Y Y u+O $+v+w+x+~+*   y+( =+Y A A j Y Y A b  .i+D K L Y Y Y ",
"( ' a !+|.z+E.i.A+9.  ( o ^ Y o.X.o.Y.q+q+q+q+q+q+q+Y.X.q+g q+F.q+9 ( ( ( ( B+$+M.^+C+a+}.6 ; . .   > @.c Y , p b C C E C a ' |.D+].",
"  (+E+T.K.~+F+G+k.( ' @.@.j b D o.Y.q+g H+I+I+H+H+g q+Y.q+g q+q+q+- {.{.{.{.J+K+L+M+n N+'.3 x + 6 ~   =+@.Z ( k @.A j j Y Z ( (.O+f+",
"  ! e T M.M.| 5.z ^ A K C C E D  .o.q+g H+I+I+H+H+g q+q+q+q+P+q+q+*   o 9 9 k Q+0+X ! Q.@ '.@ v M + l !.!.(+9.  ( ~.~.> ^ > ( R+S+M.",
"  J+T+U+U+U+t g+3+j 8.D +.....D 8.L q+q+q+q+q+q+q+q+V+P+F.%.V+q+q+q+q+q+q+q+q+q+q+q+q+q+n U $ .+$ 3 O.6 x x 6 8 . {.{.~.Z @.G.m+p.1+",
"9 P.W+<.].].Q Q B K C E  .E  .C j ^ X+o.Y+H+V+V+Y+H+V+V+Y.%.P+q+%.q+%.%.q+g H+H+H+g %.%.q+q+q+% '.@ ++M M M w + _   o p c C 7.D+Z+l ",
"0 @.A c ;. .8.a L L L L L L L P t.4 x o.Y+I+`+`+Y+I+P+P+F.q+q+q+q+q+g %.%.g g g g %.%.%.g g H+%.q+q+n Q.y z.2.: 9.> p a C ..D b '   ",
"8.a p p c B @.^ > > > > > > / [.c+).M o.V+`+`+`+`+`+V+P+P+q+o.%.q+%.g %.q+%.%.%.%.%.%.q+q+q+%.%.%.q+%.%.q+q+ @G.^ Z c C D D  .c ,   ",
"a @./ > 0 Y ,   {.{.{.{.{.  / |..@A.+@q+P+V+`+`+V+P+P+P+o.o.o.q+%.g g g %.q+%.q+q+q+q+q+%.%.q+q+q+q+g g H+H+q+B Y a '+..D C c @./   ",
"^ ~.!.  X+~.!.    !.!.!.  ~.@.b m.<.@@@@o.P+V+V+V+V+P+o.q+o.%.g g g %.%.%.q+q+q+q+q+q+q+q+q+q+q+q+%.q+q+o.g g q+K 7.E D  .c #@X+  9.",
"{.; ~ *.U.U.U.b.c.p p p p 0 c D +...i+$@o.q+o.o.o.o.o.%.q+o.q+%.%.%.%.q+q+q+q+q+q+q++@+@%@&@o.q+q+q+P+P+`+o.o.o.j+j+-.-.L *@O U.U.4 ",
"  ! O.w }.}.}.x.=@b K 8.8.K C  .D D o.o.o.%.q+o.o.%.o.%.g g %.q+o.o.o.o.o.q+q+q+q+^.^.^.-@+@;@# q+q+o.o.o.V+`+I+o.^ ^ k ^ ]+v.W W w ",
"p z+F+3.>@>@>@d+,@r+C D ..D o.o.o.o.q+g %.g %.o.o.o.%.o.%.%.g q+'@'@'@'@'@'@o.o._+C  .7.D+)@3.&@V q+`+`+V+o.P+V+`+o.&.] P.m+A.3.>@3.",
"B Q ^.!@!@!@!@~@s+p {@ .o.o.%.%.%.%.o.%.q+%.q+q+q+o.o.'@F.%.H+q+P+P+P+P+P+'@'@o.p c K A #@G.]@2.a+2 o.o.P+o.o.P+V+o.3 v+:.Q ^.!@!@!@",
"c c c c c c b L ' ~.` a o.%.g H+g q+q+q+q+o.o.o.o.o.'@P+F.%.g g q+P+P+F.P+'@'@o.> @.L f.> 0 j ^@y 3 m m o.o.m o.o.o.& k+e.b b c c c ",
"' ' ' ' ' ' ' k ( !.> , o.o.o.%.%.%.q+q+o.o.!@r /@^+o.'@F.Y.%.H+q+Y.Y.F.P+P+F.P+q+> / ( !.> ^ (+! { { { { { { { { ~ { B+^ ' ' ' ' ' ",
"                  !.o.o.o.P+P+o.o.q+o.o...D ;.b d e (@o.'@F.%.g q+F.F.F.F.F.P+P+q+~ ~ ~ 5 _                   _ { 8 8 8 8 * .       ",
"                  ( o.P+V+`+`+V+o.o.7.D ..D b p ) R+#+$.o.P+q+g g q+F.F.P+P+P+P+F.q+3 3 & _@.                 8 n 3 3 3 3 |+-       ",
"  ( / ' ' , , , , o.P+o.`+P+`+o.o.D C B _+b @.~.  !.' L 8.o.P+q+H+q+P+'@'@P+F.F.'@%.o.2 '.7 8 { ! (+P.' , > 9.-+& T } [ :@h c./ o   ",
"  / Y c c c c c c o.o.`+o.o.V+o... .c p ' ' ^ !.    ~.' Z o.'@q+%.g q+'@'@'@'@%.%.o.o.;+$ U 3 3 y.^@D+b a =.X+- { K+G )+)+~@a Y ^   ",
"* <@h.l.[@D D  .7.o.P+o.j b o.B B b =.(     _ * 5 * * * * ! o.o.%.o.%.o.o.o.%.%.o.o.o.I I T w }.}@)@8+E _+j f.k , =.!+K '+'+B j /   ",
"& 6+4.g+^.D i+C L =.o.L Y p Z Z Z |.^     . 8 7 m m m m o.o.P+P+o.o.o.%.o.o.o.o.P+P+o.-@G ^@b.*.z |@7.b @.P a c c A 0 L C 8.P , (   ",
"$ $ $ 1@4+^.B c @.Z A a p (             ( ~.2@4.I I o.o.o.P+P+F.F.P+P+F.P+P+P+P+P+P+P+o.!+Z   3@D.3+:.3+<@m+~@^.q e.|.@.c a p > 9   ",
"# 2 2 4@} A.m+` A L Y p >   {.{.{.{.{.!.' j i.$.o.o.F.Y.F.F.P+P+F.F.o.F.F.P+P+P+F.F.F.o.Z / = *.7 x.S x.N 5@3.+@6@e+W+A 0 @.n.@./   ",
"M N+1 $ 7@M 6 (.|@J A+_ _   ( ^ ^ ^ ^ k Y C D o.P+F.Y.F.F.F.F.P+P+F.o.F.P+F.P+F.F.P+P+o.!.~.[.0.a.L.I I L.^+>+$ >+3.]@|@) z+D+j c.- ",
"4 O.M # ;+% }.y w.H x.7 -+!.Z n.a a L a B D o.P+F.Y.Y.Y.F.P+P+P+P+P+P+o.'@P+P+P+F.F.F.P+o.p j 8@9@0@R 9@a@3.>+/+$ &@S S S+c+z+_.p.n ",
"= { n U U U ++p+Z.L.L.a.,.P.L C C K C E C 7.o.P+F.Y.Y.F.F.F.F.F.P+P+o.o.'@P+P+P+F.Y.Y.F.P+o.C  .'+'+'+b@8+9@[ a+V $ 1 1 '.).8 4 3 V ",
"  ; 8 u.6 6 6 s.6.a@c@9@E.a K E b A b E 8.Y o.P+Y.Y.Y.F.F.F.P+P+o.o.0.l+o.P+P+F.F.Y.Y.F.P+o.D i+i+i+i+i+D <.9@3.a+/+/+/+;+v f f '.2 ",
"~.~.X+X+X+X+9.[.e.b B B B K 7.B ` c.*@0+i J.o.P+F.F.F.F.P+P+o.o.D+|.|.!+o.o.P+F.Y.Y.Y.Y.F.o.7.C C 7.C E  .'+Q a@d@^+^+^+^+^+| M.N.N+",
"n.n.n.L L @./ ( =+@.P @.@.@.@.s+]+e@f@6@g@O.1+o.P+F.F.'@o.o.'@'@o.A c ;.i+o.P+F.Y.Y.Y.Y.F.%.@.@.@.0 P c C 8.j h.h@4+4+4+4+4+4+6.s.6 ",
"K K C C C c p ~.( o o o o ( > [.0.(@^+C+N.'.V v o.P+F.F.P+P+'@P+o.L K C C o.P+F.Y.Y.Y.Y.F.'@q+!.9 9 > Y K L , ` F C [@[@[@o+B Q+9+X+",
"P a C E c A A @.k   i@{.i@  ' G.j@G+v+k@f % .+$ U o.o.P+P+P+F.o.o.p P P @.P o.'@F.Y.Y.F.P+P+q+~ = {.( Y K A ^ =.C i+i+i+i+C a C.A L ",
"( ' 0+0+X d.e.0+|.!.!.( ( / j K '+8+e.) ~+M V $ $ '.o.P+P+F.o.%.o.o.( ( ( ( o.'@F.F.F.P+'@P+q+x - _ 9.=.b Y ^ p B '+C '+C a ' ' Q+].",
"  (.^@L+l@$+v+6.k.9 ' @.Y A B D i+D K j _.~+3 1 ;+# U o.o.o.%.o.o.o.{.{.{.{.9.o.'@P+P+'@P+P+q+3 O.|+~+#+` f.( k @.C.Y Y @.Z ( (.E+m@",
"  ! e T M.M.| 5.z ^ n.7.'+C  .D  .'+C B P ) ~+}.'.'.@ U o.%.o.o.o.o.  o ( ( , o.'@P+'@P+F.F.q+1 '.'.U + ] 9.. 9.(+(+(+X+> > ( R+S+M.",
"  (.6./@/@/@/@h+/.j K D i+i+i+D B n.Y j A @.t.~+7 n@n@7 o.o.%.o.%.(.( p P Y L o.'@'@'@P+F.P+q+;+;+.+}+o@7 |+|+|+p@n@x O X Y P A+s.7 ",
"  ^ W+Q ].Q Q ].B K C [@[@[@C 8+Y ^ ( k Y b j [.B+J+J+o.%.%.o.%.o.' ' L K K K o.'@'@P+F.P+P+F.q+>+4@a+N.C+C+C+C+C+M w v+i.7.K j [._ ",
"  > 0 L L A A A A q@G 4+r@4+4+)@t.9 / @.b E 8.A @.@.o.%.%.%.o.o.o.Y Y A L L L o.'@'@P+P+F.P+P+q+t w+w+w+U+U+U+w+U+H e  +#.L L =.>   ",
"  !.( > ^ / / / / c.x+s@&@^+^+T ~+J+p r+C '+C K K K o.V+%.V+o.o.#@L 0+|.X+X+X+~.o.o.P+P+P+F.o.o.<.m.].].<.<.<.Q <.7+J.9.X+> ~.( !.  ",
"  {.{.o ' ` =.` =.s+.@+@Z.$ /+$ 3 ~+: a@8@Q+L L L L L o.o.o.o.{.J.>.G+0.u.6 *.- o o.o.o.o.o.o.b D i+D 7.c L L L L p ( {.{.{.{.{.    ",
"!.!.!.k A 8.K K K 8+B t@6@a+$ 1 v U p+T K.J.~.~.~.> ^ ^ > ( 9 !.u@z.T p+U U m *.X+o.%.%.g %.o.C  .D C j P.> ^ / / > o !.!.!.!.    = ",
"p p p @.A c C D +.D 8.Q+h@A.z.N ++$ /+}+}.|+u.U.~ . ( ' p ` =.` 3+<+v@w@;+.+'.Q.,.o.o.%.%.o.o.a L a j _.b.] ' p p ` ` ` ` =.` z+z 4 ",
"K K K c p p c  .D 7.Y |.e.i.3+! 7 @ 7@1 @ M M w + _ Z c K 8.8.B B <.9@:@1 $ 1 @ ).o.%.o.o.o.%.o.^ / [.c+y.x@0+K 8.B B 8.8.K B $.f@M ",
"..i+i+8.Z > =.a a L @.=.A L Z !.2@2.+@+@+@+@y@+@6.X L C C b a a c j+E.z@A@5.3 v v o.%.o.%.%.o.o.  / ' 1.L+B@o+C c a a a a c a /.K.& ",
"D D D b |.!.( / / ' A c @.k ( X+C@i.^.^.^.^.^.^.D@F C E b p / / / / |.W+E._.&.m '.o.%.o.o.o.o.o.(+0 b Q l.E@C -.Z / / / / k / X+_ * ",
"s s s F@: { ;     ( =.A Z !.{.o p -.c c c c c c c c c c @.>         ^ Y A , _ 6 & o.%.%.o.o.%.o.9 A C C b c a ` ( {.                ",
"} } } I I.n ~     !.> / (       ~.k , k k k k k k k k k > !.        9 ^ / ( 9.l * o.o.%.%.%.o.o.X+Y K a Z k k ~.!.                  ",
"m m m 3 3 7 {                 9.- ~ 8 8 8 8 8 8 8 8 8 8 * .                       o.P+o.o.o.V+o.o p L ` (                           ",
"~ ~ ~ ~ { * _                 . 4 m }.W W W W W W W }.3 O.-                       o.V+o.`+V+o.o.!.~.k ~.                            ",
"                              _ x v # $ $ $ $ $ $ $ # % ).*                         o.o.o.o.o.                                      "};
