/* XPM */
static char * p_mov_left_2_xpm[] = {
"66 66 348 2",
"  	c #AA834B",
". 	c #A88047",
"+ 	c #A37A3D",
"@ 	c #9F7535",
"# 	c #9F7533",
"$ 	c #9F7534",
"% 	c #A07737",
"& 	c #A57D41",
"* 	c #A9824A",
"= 	c #A88148",
"- 	c #A88046",
"; 	c #A78046",
"> 	c #A67E43",
", 	c #A2793B",
"' 	c #9F7433",
") 	c #A07635",
"! 	c #A27B3A",
"~ 	c #A47E3D",
"{ 	c #A57F3D",
"] 	c #A6803F",
"^ 	c #A98446",
"/ 	c #AC874C",
"( 	c #AC864C",
"_ 	c #A98249",
": 	c #AB854C",
"< 	c #AC874D",
"[ 	c #AD894D",
"} 	c #A98348",
"| 	c #A77F46",
"1 	c #A88147",
"2 	c #AB854A",
"3 	c #AD884D",
"4 	c #A98149",
"5 	c #AA824A",
"6 	c #A57C41",
"7 	c #A2793C",
"8 	c #A2793A",
"9 	c #A07637",
"0 	c #A17938",
"a 	c #A98543",
"b 	c #AE8E4A",
"c 	c #AF8F4C",
"d 	c #B1914E",
"e 	c #B19150",
"f 	c #AE8B4E",
"g 	c #AB844C",
"h 	c #A77F45",
"i 	c #A37B3E",
"j 	c #A57D42",
"k 	c #A98148",
"l 	c #AC884D",
"m 	c #B08F4F",
"n 	c #B29251",
"o 	c #AF8D4D",
"p 	c #A78243",
"q 	c #A2783B",
"r 	c #A57E40",
"s 	c #AC894A",
"t 	c #B29351",
"u 	c #AF8C4F",
"v 	c #AB844B",
"w 	c #A47B3F",
"x 	c #A2783A",
"y 	c #9F7635",
"z 	c #A17738",
"A 	c #A37B3B",
"B 	c #A68140",
"C 	c #AD8B49",
"D 	c #B29350",
"E 	c #B49652",
"F 	c #B49753",
"G 	c #AF8E4F",
"H 	c #A88246",
"I 	c #A37B3D",
"J 	c #A17839",
"K 	c #B19050",
"L 	c #B39552",
"M 	c #B08F4D",
"N 	c #A98544",
"O 	c #A57E3D",
"P 	c #A47D3C",
"Q 	c #A78241",
"R 	c #AD8C4A",
"S 	c #B29451",
"T 	c #B59853",
"U 	c #B39451",
"V 	c #B08F50",
"W 	c #A88146",
"X 	c #A47B3E",
"Y 	c #A37A3C",
"Z 	c #A07636",
"` 	c #A88145",
" .	c #AC8949",
"..	c #AE8D4B",
"+.	c #AE8C4D",
"@.	c #AF8D4F",
"#.	c #B49653",
"$.	c #B19151",
"%.	c #AF8C4E",
"&.	c #AD8A4C",
"*.	c #A67E44",
"=.	c #A67F44",
"-.	c #B08E4F",
";.	c #AE8B4D",
">.	c #AE8E4B",
",.	c #B69953",
"'.	c #B59953",
").	c #B59753",
"!.	c #AE8C4E",
"~.	c #AE8A4E",
"{.	c #A1783A",
"].	c #AB864B",
"^.	c #AA824B",
"/.	c #B2934F",
"(.	c #AF8F4D",
"_.	c #AB874A",
":.	c #AA8449",
"<.	c #AD8B4B",
"[.	c #B1924E",
"}.	c #B29450",
"|.	c #AB864C",
"1.	c #AA844B",
"2.	c #B49552",
"3.	c #AA8646",
"4.	c #A47D3E",
"5.	c #A57F3F",
"6.	c #A78240",
"7.	c #A88342",
"8.	c #AB8748",
"9.	c #AD8A4D",
"0.	c #B09050",
"a.	c #AD8A4E",
"b.	c #B39450",
"c.	c #B1924F",
"d.	c #AA8549",
"e.	c #AD894B",
"f.	c #B0904E",
"g.	c #AE8C4C",
"h.	c #A88149",
"i.	c #AF8E4E",
"j.	c #AB864A",
"k.	c #AC874B",
"l.	c #B0904F",
"m.	c #AB874B",
"n.	c #AC884C",
"o.	c #A78045",
"p.	c #A47D3D",
"q.	c #A78144",
"r.	c #AA834A",
"s.	c #B39452",
"t.	c #B08E50",
"u.	c #AB8849",
"v.	c #A88443",
"w.	c #A57F40",
"x.	c #A47C3E",
"y.	c #A57E3F",
"z.	c #A68040",
"A.	c #A47C3F",
"B.	c #A57D43",
"C.	c #AB8649",
"D.	c #A67F42",
"E.	c #A78043",
"F.	c #AC884B",
"G.	c #AC874A",
"H.	c #A67F43",
"I.	c #9E7433",
"J.	c #A3793D",
"K.	c #AC8A49",
"L.	c #AF8D4E",
"M.	c #A47C40",
"N.	c #A17838",
"O.	c #A27A3A",
"P.	c #A37C3B",
"Q.	c #A68042",
"R.	c #AA854A",
"S.	c #A27A3B",
"T.	c #A77F44",
"U.	c #AA844A",
"V.	c #B19250",
"W.	c #AF8E4D",
"X.	c #A98248",
"Y.	c #A67E45",
"Z.	c #AD894E",
"`.	c #AC894C",
" +	c #A88144",
".+	c #A88245",
"++	c #A57E41",
"@+	c #AA8548",
"#+	c #A98447",
"$+	c #A17739",
"%+	c #9E7432",
"&+	c #A88345",
"*+	c #AC8947",
"=+	c #A37B3A",
"-+	c #AB8749",
";+	c #A67E41",
">+	c #A67D43",
",+	c #A98545",
"'+	c #A78242",
")+	c #A57D3F",
"!+	c #A37A3E",
"~+	c #A27A39",
"{+	c #A98347",
"]+	c #A67E42",
"^+	c #A27A3C",
"/+	c #B49752",
"(+	c #AF8F4B",
"_+	c #A88247",
":+	c #A98247",
"<+	c #A27939",
"[+	c #B39652",
"}+	c #A07736",
"|+	c #AC8A47",
"1+	c #AD8A4B",
"2+	c #A57E3E",
"3+	c #A37B3F",
"4+	c #A47C41",
"5+	c #9F7434",
"6+	c #080808",
"7+	c #AE8D4A",
"8+	c #AA8645",
"9+	c #A68043",
"0+	c #AE8B4C",
"a+	c #A98346",
"b+	c #AB8846",
"c+	c #A88244",
"d+	c #B39351",
"e+	c #9E7332",
"f+	c #B39551",
"g+	c #A88543",
"h+	c #A78044",
"i+	c #A57E42",
"j+	c #A17837",
"k+	c #B1914F",
"l+	c #AD894C",
"m+	c #AD884C",
"n+	c #AE8D4D",
"o+	c #A37C3D",
"p+	c #A27938",
"q+	c #B39651",
"r+	c #AA8746",
"s+	c #A78042",
"t+	c #AC884A",
"u+	c #A88344",
"v+	c #EF7B00",
"w+	c #B29151",
"x+	c #B69954",
"y+	c #AA834C",
"z+	c #A98645",
"A+	c #AA8448",
"B+	c #AA8745",
"C+	c #AB8946",
"D+	c #AB8947",
"E+	c #B29250",
"F+	c #EFEF00",
"G+	c #CE3900",
"H+	c #AB854B",
"I+	c #A37B3C",
"J+	c #A17939",
"K+	c #A88343",
"L+	c #AD8B4C",
"M+	c #AA8649",
"N+	c #AD8B4A",
"O+	c #B1904F",
"P+	c #A98349",
"Q+	c #6B7B7B",
"R+	c #AC894B",
"S+	c #AB8747",
"T+	c #292929",
"U+	c #4A4A4A",
"V+	c #AA8547",
"W+	c #AA8349",
"X+	c #AB8847",
"Y+	c #A98444",
"Z+	c #AA8747",
"`+	c #A47D3F",
" @	c #A98643",
".@	c #A98546",
"+@	c #B08F4E",
"@@	c #AE8B4F",
"#@	c #AC864D",
"$@	c #EFDEBD",
"%@	c #A78341",
"&@	c #A88442",
"*@	c #A88341",
"=@	c #AB8848",
"-@	c #AE8A4D",
";@	c #BD6B39",
">@	c #8C1800",
",@	c #181818",
"'@	c #B1934F",
")@	c #DEAD7B",
"!@	c #B59854",
"~@	c #AD8A4A",
"{@	c #A68240",
"]@	c #0018EF",
"^@	c #AD8C4B",
"/@	c #B0914D",
"(@	c #B19251",
"_@	c #B0904D",
":@	c #A6813F",
"<@	c #AA8744",
"[@	c #A67F45",
"}@	c #A57F3E",
"|@	c #AA8647",
"1@	c #6B0000",
"2@	c #AC8948",
"3@	c #A47C3D",
"4@	c #B49651",
"5@	c #AE8D4C",
"6@	c #AF8E4B",
"7@	c #A88048",
"8@	c #A37D3B",
"9@	c #A57D3E",
"0@	c #AD8D49",
"a@	c #A07836",
"b@	c #B59752",
"c@	c #9F7634",
"d@	c #A07738",
"e@	c #A27B39",
"f@	c #AC8A48",
"g@	c #AD8C49",
"h@	c #AD8B48",
"i@	c #AF8E4C",
"j@	c #AE8C4B",
"k@	c #AA8845",
"l@	c #A47B40",
"m@	c #A67F41",
"n@	c #A47B41",
"o@	c #A1773A",
"p@	c #A98644",
"q@	c #A68041",
"r@	c #AB8A47",
"s@	c #B08E4E",
"t@	c #A37C3C",
"u@	c #A78143",
"v@	c #B0904C",
"w@	c #A17937",
"x@	c #A5803E",
"y@	c #A67F40",
"z@	c #AE8D49",
"A@	c #A78140",
"B@	c #AA8846",
"C@	c #A78340",
"D@	c #B39550",
"E@	c #B2924F",
"F@	c #AD8B4D",
"G@	c #AC8B49",
"          . + @ # $ $ $ # % & *                                                                                                     ",
"  * = - ; > , $ ' ) ! ~ { ] ^ / (           _ . ; ; = *     : < [ [ [ [ / } ; | 1 2 3 [ 3 3 3 3 3 [ [ [ 3 (   4 . = 5               ",
"  = 6 7 7 8 9 $ ' 0 a b c c d e f g       5 h i , 7 j k     l m n n n n o p 7 q r s e t n n n n n n n t e u v h w j 4               ",
". > x $ $ y z 8 A B C D E F E t G [ l 3 3 / H I J , 6 =     3 K L F F L M N O P Q R S F T T T T T E U U t V [ W X 6 k               ",
"Y x Z # ' % w `  ...+.@.t #.$.%.G e n n n e &.H *.=.. *     : [ -.L L m ;...>.b ..+.@.t T ,.'.'.).n !.~.f -.K &.H . *               ",
"{.{.J J J + h ].-.e @.~.m n G ~.K E E L E E K ( ^.  v ( ( v g / f e e !.f K D /.(._.:.<.d [.[.}.t %.: : 3 G n @.: ^.  : / |.1.v ( < ",
"*.*.*.*.*.h 4 g 3 !.V K @.!.G e 2.).t -.n E e <   1.[ m @.< < G V @.@.V K G &.3.Q 4.X 5.6.6.7.8.[ < : 9.V m !.l g     3 -.@.( < -.e ",
". = _   : |.v 1.|.[ 0.n @.a.-.t b.c.<.d.e.f.g.:.h.  a.e i.j.k.l.m m.j.m K n.o.Y Z $ ) z 8 A p.q.r.  g !.e @.|.      1.9.e K ~.f e s.",
"i j = ( @.-.3 ( f V -.@.m K t.!.u.v.w.x.y.Q z.A.B.4 ( 9.C.D.E.F.G.H.D._.F.q.7 9 ' I.Z J.H.3.K._.  ^.  < ~.l   ^.      ( ~.G K K @.u ",
"@ , h / V K n.2 L.e &.2 L.e +.} M.N.y ) % J O.P.Q.R.< / H S.7 =.h i + T.h Y y $ @ Z , > U.L.V.@.< ( ( / < < ( 1._ _     v [ f.W.j.X.",
"I.{.Y.: Z.`. +D.C.&..+++@+&.#+w $+$ %+$ {.& &+*+..m K m 8.=+Z q w 6 6 w 7 9 I.I.Z + *.= v 3 u m K K K K K K m -+;+>+4     :.,+'+)+!+",
"~+4.{+( < :.x.8 ]+- M.^+]+W M.% $ $ y $+M.X.9.V.L /+T /+(+B 0 J A._+:+A.J <+<+N., *.*     : 3 -.U E /+E L E [+R ] ++X.  4 > , }+) ) ",
"|+R W.V V 1+2+Z {.3+4+6 M.!+$+5+%+@ , 6+; r.< u n F ,.T }.7+8+9+H 0+;.a+E.8+b+c+=.=     : ~.V -.-.t F d+V n /+/.R u.U.. 6 q @ e+%+I.",
"U f+E F ).[.g+~+z ^+h+X.i+6+N.6+j+6+6+6+    g / @.U F T T E k+l+[ K e 9.m+m k+l+r.5   * U.+.k+!./ G t -.l %.U f+/.n+U.=.o+~+~+p+p+p+",
"G K E '.'.q+(+r+s+E.t++.@+6+u+6+6+6+v+6+  g 3 6+6+6+w+E '.x+#.n V -.-.V V V u < g y+* h ++'+z+A+  l f 3 g < !.<.b+'+r Q.B+C+C+C+D+D+",
"/ f n E T T /+D ;./ 6+E+6+v+6+F+v+6+F+G+6+6+6+G+6+k.9.t E E E L e [ [ K e ~.H+r._ _ . w z j+I+h+1.( ( : 1.g 1.o.I J+! v.(.f+f+f+U }.",
"-.-.-.K L T x+).t V 6+6+6+v+6+v+F+G+F+v+G+G+G+6+K+++H L+-.-.-.-.f ( ( f u < _ Y.6 6 w J ) {.& M+L.-.@.[ 1.^.* | j Q.8+N+i.t ).#.w+V ",
"}.O+9.[ e E F E E t 6+F+6+v+v+6+F+G+v+v+v+v+6+6+6+O.++P+: : : : v Q+Q+r.U.r.- i % Z Z Z J j R.-.L F L -./ g :   r.R+f.W.F.9.V.e [ : ",
"C+S+:.: ~.-.m m V @.6+F+G+v+F+v+F+v+G+v+v+G+6+6+T+U+V+W+^.^.^.^.Q+T+T+4+6 6 X z # %+@ x ++C.-.s.T ,.T t m @.@.[ : d.X+Y+]+Q.,+Z+U.  ",
"O.`+_+: ( / ( |.|.: 6+v+F+G+F+F+F+v+v+v+F+F+v+G+6+6+U+U+U+U+U+Q+T+A.<+J 6+6+6+6+Z ) J j R.@.U E F ).T F E E L V / W 4.! O.O.A r 1   ",
"3+H.t+L.@.~.|.^.6+6+G+6+F+v+F+F+v+v+v+v+G+6+6+6+G+6+6+U+T+T+T+T+W+6+6+6+6+6+6+6+M.w D._.@.V K K K s.T '.'.,.T s.m 1+B+a  @ @ @.@W+  ",
"k m.O+2.E n f g 6+F+6+G+v+v+F+v+v+v+G+G+6+T+T+T+6+6+6+6+6+U+U+6+6+6+6+6+6+4 k = = . :.o e %.|.H+/ m E ).F ).F E L U D D }.}./.+@n.v ",
"  [ t T '.E e f ( 6+F+G+v+F+F+v+v+v+6+6+6+T+T+6+6+6+d+).6+6+6+6+6+6+#.$.@@#@r.; > B.E.3.X+&+j 6 > C.G K K K K K K K e s.).#.n V @.u ",
"  3 n ).T T E n ~./ 6+G+T+T+T+F+v+6+6+6+6+T+6+G+6+6+6+U /+).E L L /+/+L e [ 1 w J z J =+P.O.8 J Y h+].< ( ( ( ( ( ( / @.U n f f e s.",
"  < @.n E T './+e -.U 6+$@Q+T+T+F+v+6+6+6+6+G+v+v+6+.+6+6+6+6+6+6+6+6+6+6+.+M.$+) J i z.%@&@*@%@v.=@9.<   ^.^.^.^.^.  3 -.u ( < @.e ",
"r.  H+-@n ).T F 2.L E 6+Q+Q+T+T+6+v+6+6+;@>@6+v+6+,@6+6+6+6+,@,@,@,@,@,@,@,@,@6+6+6+6+6+d /.'@'@/.b.t @.|.  1.1.1.    1.|.H+  1.|./ ",
"> >+>+H 0+K $.$.w+w+$.6+Q+T+6+6+>@6+>@v+6+>@6+6+6+6+6+6+,@6+6+6+6+6+6+6+,@,@,@6+6+>@)@)@6+#.!@x+'.,.T n u f f f f j.o.>+>+>+*.| 4 ^.",
"8 x x A.{+/ l / / / / / 6+6+6+Q+>@;@>@v+6+>@6+6+6+6+6+6+>@>@>@6+6+6+6+6+6+6+,@6+6+>@>@;@6+6+/+T T T ).E L s.s.L t ~@y.{.{.{.8 M.1   ",
"6.{@6.v.t+n.} =.*.*.*.*.*.6+]@Q+)@)@;@;@6+6+6+6+U+U+U+6+6+6+6+6+6+6+6+,@6+6+6+6+6+>@>@;@)@6+..f.e n n L T '.T E E+^@g+{@{@{@6.Y+F.f ",
"/@/@/@[.D (.K+, {.{.{.{.x 6+)@$@)@;@>@>@6+6+6+Q+U+U+T+T+T+T+T+T+6+6+6+* v ,@,@,@6+;@>@6+6+A 5.a+/ l [ K E '.).(@f ;._@/@/@/@/@[.D U ",
"n n n t t i.u++ 7 7 7 7 7 7 6+)@;@;@;@6+6+6+6+Q+U+U+T+T+T+T+T+U+U+T+,@6+6+h j {.}+6+6+:@] ] B .+* ^.1.~.e t e !.|.[ K t n n n n n n ",
"[ [ [ [ [ / P+; | ; ; ; ; ; ; ,@,@,@,@/ ( 6+6+T+T+T+T+T+T+U+U+T+,@,@,@,@,@6+J Z ~+<@c /@_@/@c l+1.^.  |.l [ 3 ( 1.: l [ [ [ [ [ [ [ ",
"      * . h h h h ; _                   _ 6+6+6+T+T+T+T+6+T+T+U+T+T+T+T+,@,@,@6+r s t #.T '.F K ~.[ [ |.1.|.3 / 1.                  ",
"      = 4+, , , , i h                 * [@+ U+6+6+6+6+6+6+6+6+T+T+T+T+T+T+U+6+6+6+6+6+6+T '.T 2.t t n f |.~.K @.:                   ",
"  g < j.p }@{ ~ A + Y.r.( 3 [ n.U.1 ; h w Z 6+6+T+T+T+,@6+6+6+6+T+T+T+T+U+6+6+6+>@;@)@;@6+6+U E T T F e f @.e V ~.3 3 3 3 [ [ < :   ",
"  / -.e _@(+(+R V+; = H+%.e t O+|@x., , z $ I.6+6+T+T+6+1@1@1@1@6+6+T+T+U+6+6+>@;@)@)@$@$@;@6+n ).'.T E t -.f @.e n n n n n n -.<   ",
"  < m U /+/+L V.%.3 l a.m d+F f+2@3@{.8 A P P { 6+6+6+1@>@>@1@1@1@1@6+6+U+6+6+>@;@)@>@6+6+6+6+%.t U U U t m ~.@.n 2.).T T 4@c.g.A+. ",
"  : 3 G s.E K u V n n e G @.t 2.5@W *.o.|@R 6@>.5@6+Q+6+G+G+G+>@1@6+T+,@6+6+6+6+)@)@$@;@6+    / 9.~.~.~.f -.K m %.K E x+T [.B+5.o++ ",
"  v ( f e n @.9.i.d [._@t+A+1+(.1+X.7@  ~.V.U t -.( 6+Q+6+>@1@6+U+U+,@,@6+6+6+T+,@6+6+6+6+:             : f e V ~.@.n U [.|+8@$ $ $ ",
"  < @.0.@.u V +@D+&@%@6.9@I y.B y.w *.5 < ~.u f 3 g 6+U+U+6+6+U+U+,@,@6+1@1@1@1@6+0@..f.m [ 1.^.^.^.^.6+6+6+f -.K V !.t+v.~ a@' ' # ",
"= j.m O+F.2 5@>.6.}+$ }+~+P.P P P.p.q.].|.1.r.X.= = 6+6+6+6+T+T+T+6+6+1@>@>@1@1@6+/+b@T E -.l / / 6+6+T+T+T+6+R+M 5@:.j J c@$ ) d@J ",
"i H._.F.h+`+B B e@$ e+}+6.f@g@C h@g@i@m f 1.h w + 6+1@>@>@6+6+6+6+1@1@>@>@>@>@1@6+x+x+,.T 6+6+6+6+6+,@,@T+T+6+y.Q z.X {.@ I.# J M.> ",
"y , > h Y Z ) ) $ y j+{ g@f+b@/+/+/+).E K n.o.6+6+>@G+G+>@>@>@6+1@1@1@G+G+G+>@1@1@6+L 6+6+>@1@6+T+6+T+T+6+T+U+6+P.=+J+$+z z z i ; 5 ",
"' Z q q 9 I.e+e+e+j+6.g@/.T x+x+x+x+x+T 2.6+6+G+G+G+G+>@>@1@1@1@6+1@>@v+v+G+G+>@1@1@6+1@>@G+>@1@6+T+6+T+6+T+U+T+6+3.E.j j j B.h 4   ",
"d@N.O.! ~+~+~+~+~+O f@D /+).F E 2.E E 2.6+G+G+G+G+G+>@>@>@>@>@>@6+1@>@v+v+v+G+G+>@6+6+>@G+G+>@G+6+,@6+6+,@T+T+T+6+i.].r.H+H+H+H+|.|.",
"j E.3.|+|+|+|+|+|+K.g.m s.E n G u @.@.6+G+G+G+G+G+1@1@1@1@1@1@1@1@6+1@G+v+v+v+G+>@>@>@G+G+>@>@G+6+6+6+6+6+,@,@T+T+6+: < @.K K 0.0.0.",
"H+l+l.U q+4@4@4@E S !.3 K L -.( v v 1.6+>@G+G+G+>@G+>@1@1@1@6+6+6+6+6+>@G+v+v+G+>@G+G+G+>@>@G+1@6+q.].( 6+,@,@>@T+6+|.f n E E E L L ",
"K V t.e E x+x+x+x+E %./ V L -.: ^.5 | 6+1@>@>@>@G+>@1@1@6+6+G G f |.|.6+>@G+G+G+G+G+>@>@>@1@1@1@6+j@L.[   6+,@;@T+6+@.V V n F E e G ",
"}.l.[ [ e E /+E /+U f / -.t %.r._ = 6+1@>@G+G+G+>@6+6+6+: : : : 1.r._ r.6+1@>@>@G+>@1@1@1@1@6+6+f+/+L m < 6+;@T+T+6+k+i.k.&.k+k+[ : ",
"k@Z+:.: ~.@.-.-.t.@.l : a.!.@+]+4+M.6+>@G+>@>@>@>@1@6+r.^.^.^.^.= >+l@l@M.6+6+1@1@1@1@1@6+6+m L T x+T U V -.6+6+6+d.3.K+++m@N |@:.  ",
"O.`+_+: ( ( H+U.U.U.r.* r.} & z Z Z 6+1@>@>@>@>@G+1@6+3 : : g   1 A.<+J J $+z 6+6+6+6+6+2 G U E /+).T ).E /+2.0./ W 4.! O.O.A r 1   ",
"w E.R+G -.&.H 6 l@n@4+4+4+w o@5+%+I.6+1@1@G+G+G+1@6+6+K -.G f : :.3.v.m@M.w w l@l@w ]+C.@.V m -.0.U T x+x+x+T L m <.b+<@<@<@<@3.:.  ",
"_ ].m L 2.f.K+8 J <+<+<+<+<+N.j+a@}+}+6+6+6+6+6+6+6+E L L L K [ [ l.+@k._ _ W+W+W+P+].m t -.l : / -.f+E 4@4@4@E L U }.D D }.D +@/   ",
"  ( %.K K +.&+r Q  @p@ @ @ @p@p@p@a q@6+T+,@,@T+6+@.K K K K V -.-.V @.< |.~.@.G @.@.V s.F t @.< v C.2@|+|+r@|+R s@V V V V K K u (   ",
"  1.: |.( H+r.R.n+/.D /././.}.}.b./.6+U+6+6+6+6+6+|.|.H+H+H+9.k+K -@: 1.< V s.L L L L E /+E E+f W+]+A ~+~+e@t@u@j.< < < < / ( : 1.  ",
"    ^.^.^.^.^.: f K K K K n 2.T x+6+T+T+U+T+T+U+6+g = *.j B.q.X+ .R.^.^.|.!.K K K K K K l.i@f@^ ]+, $ e+$ =+%@=@;.%.!.%.!.[ g ^.^.  ",
"5     1.1.1.1.g ( < < / ( n.m 6+6+6+T+T+6+6+6+6+6+H+*.7 z z J+A w.:+1.v : ( / / ( |.|.|.R.Q.A J+z 9 ) $ j+&@v@U f+L L L s.V l 1.1.1.",
"> W F.!.%.!.!.!.!.f f [ } o.6+T+T+T+U+U+T+T+T+T+6+` !+Z %+I.w@x@8+1+!.%.!.f [ : * | >+B.4+{.5+e+$ $+I w.v.K.l.s.T ,.T E n V @.f f f ",
"J y@..U L s.s.U U s.L k+z+6+;@T+)@;@U+U+T+U+6+6+6+Y % ) $ ) }@g@/.U U s.s.L n ~._ & 8 J J % ) c@% w 1 1+f.i.9.-.2.T ).n f f n L L L ",
"+ Q.<.e n e e e e n E q+z@6+6+6+6+6+6+6+6+6+6+>+!+9 9 , 4.A@B@W.w+n e e t E E K &.3.%@C@%@%@%@%@7.a+1.~.K V %.@.K e e %.( ~.s.x+x+'.",
". _ H+< l < < < < ~.$.E D@c.D t u U.>+7 J x x {.% Z 7 =._.W.+@9.< < < < f t F E S E@[.[.[.[.[.[.f.F@H+: l @.n V [ < < : 1.9.t T T T ",
"                ^.: !.e n t E E V v *.X 4.] }@I 7 + j _ 3 V -./         ( @.n n n n n n n n n n $.f g ^.1.~.V %.:     4 ; ^ G@b b b ",
"                  1.|.l l ~.e L -.H+h.= t+i@<.} ; . k r.: < / v         1.( l l l l l l l l l 3 l |.      : < ( 1.    | i S.P ~ ~ ~ ",
"                          : !.K f g ^.v ~.K @.|.                        * . h h h h h h h h h h | = r.                ; w , , 7 7 7 ",
"                            |.l |.1.    |.l / v                         = M., {.x x x x x x x {.7 > *                 _ . ; | | | | ",
"                                                                        . Y @ # $ $ $ $ $ $ $ # 9 6 _                               "};
