/* XPM */
static char * p_move_up_left_2_xpm[] = {
"66 66 348 2",
"  	c #B08E4F",
". 	c #B19050",
"+ 	c #B39552",
"@ 	c #B59853",
"# 	c #B69954",
"$ 	c #B59753",
"% 	c #B29351",
"& 	c #B08F50",
"* 	c #B08F4F",
"= 	c #AD894E",
"- 	c #AB854C",
"; 	c #AA834C",
"> 	c #AA834B",
", 	c #A88047",
"' 	c #A67E42",
") 	c #A78143",
"! 	c #A98644",
"~ 	c #A88343",
"{ 	c #A57E41",
"] 	c #A88246",
"^ 	c #AD8B4C",
"/ 	c #AE8B4E",
"( 	c #AC864C",
"_ 	c #AF8C4F",
": 	c #AC874D",
"< 	c #A98249",
"[ 	c #A67E45",
"} 	c #A57C41",
"| 	c #A47B3F",
"1 	c #A17839",
"2 	c #A07635",
"3 	c #A1783A",
"4 	c #A57D41",
"5 	c #AA8649",
"6 	c #AF8D4E",
"7 	c #AF8D4F",
"8 	c #AD894D",
"9 	c #AA844B",
"0 	c #AA824B",
"a 	c #A9824A",
"b 	c #A77F46",
"c 	c #A57D42",
"d 	c #A68042",
"e 	c #AA8645",
"f 	c #AD8B4A",
"g 	c #AF8E4E",
"h 	c #B49653",
"i 	c #B29151",
"j 	c #B29450",
"k 	c #B1904F",
"l 	c #AD8A4D",
"m 	c #B19150",
"n 	c #B49652",
"o 	c #B49753",
"p 	c #AD884D",
"q 	c #B29251",
"r 	c #A98149",
"s 	c #A17837",
"t 	c #A27939",
"u 	c #A27A39",
"v 	c #A27A3A",
"w 	c #A98349",
"x 	c #AB844B",
"y 	c #AA834A",
"z 	c #A9834A",
"A 	c #AA844A",
"B 	c #A88046",
"C 	c #A37B3E",
"D 	c #A07737",
"E 	c #A07636",
"F 	c #AA854A",
"G 	c #AC874C",
"H 	c #AB844C",
"I 	c #AC894B",
"J 	c #B0904E",
"K 	c #AF8E4D",
"L 	c #AC884B",
"M 	c #B19250",
"N 	c #AB8946",
"O 	c #AB8747",
"P 	c #AA8449",
"Q 	c #AE8A4E",
"R 	c #AC884D",
"S 	c #A2793B",
"T 	c #A07738",
"U 	c #A68041",
"V 	c #A98544",
"W 	c #AA8547",
"X 	c #4A4A4A",
"Y 	c #A88148",
"Z 	c #A67E44",
"` 	c #A47C41",
" .	c #A47B3E",
"..	c #A17738",
"+.	c #9F7533",
"@.	c #9E7432",
"#.	c #9F7535",
"$.	c #A2783A",
"%.	c #AB8649",
"&.	c #B39452",
"*.	c #B69953",
"=.	c #AA8549",
"-.	c #AB8847",
";.	c #A98444",
">.	c #A98545",
",.	c #AA8747",
"'.	c #A47D3F",
").	c #A88247",
"!.	c #AB864C",
"~.	c #A98148",
"{.	c #A07637",
"].	c #A37A3E",
"^.	c #A88147",
"/.	c #AD8A4C",
"(.	c #B1914F",
"_.	c #B0904F",
":.	c #A47C3F",
"<.	c #B39451",
"[.	c #A88146",
"}.	c #A47D3E",
"|.	c #A27B3A",
"1.	c #A37B3B",
"2.	c #A57E40",
"3.	c #A37B3F",
"4.	c #A67F43",
"5.	c #AC884A",
"6.	c #A77F45",
"7.	c #A47C40",
"8.	c #9F7534",
"9.	c #B49552",
"0.	c #292929",
"a.	c #AD8A4E",
"b.	c #A88342",
"c.	c #A67F42",
"d.	c #AB874A",
"e.	c #B59953",
"f.	c #AD8A4B",
"g.	c #AA8745",
"h.	c #A98543",
"i.	c #A98643",
"j.	c #A98546",
"k.	c #AA8349",
"l.	c #AB874B",
"m.	c #A2793A",
"n.	c #A17739",
"o.	c #AF8D4D",
"p.	c #AF8C4E",
"q.	c #AB854B",
"r.	c #B29350",
"s.	c #B2934F",
"t.	c #B08F4E",
"u.	c #AC884C",
"v.	c #A98446",
"w.	c #A57F40",
"x.	c #A57C40",
"y.	c #A98447",
"z.	c #AE8A4D",
"A.	c #B39351",
"B.	c #B09050",
"C.	c #B19151",
"D.	c #AE8B4F",
"E.	c #AC864D",
"F.	c #A78046",
"G.	c #A67E43",
"H.	c #A57D43",
"I.	c #A78043",
"J.	c #AA8646",
"K.	c #A88345",
"L.	c #AF8E4F",
"M.	c #B0914E",
"N.	c #A98248",
"O.	c #AB864B",
"P.	c #A37B3A",
"Q.	c #A37C3B",
"R.	c #A37A3C",
"S.	c #A78044",
"T.	c #B49752",
"U.	c #A77F44",
"V.	c #080808",
"W.	c #AC8948",
"X.	c #A88245",
"Y.	c #AB8948",
"Z.	c #AE8E4B",
"`.	c #A68040",
" +	c #A78341",
".+	c #A88442",
"++	c #A88341",
"@+	c #A88443",
"#+	c #AB8848",
"$+	c #CE3900",
"%+	c #A37C3C",
"&+	c #AA8448",
"*+	c #A67F41",
"=+	c #A98448",
"-+	c #AE8C4C",
";+	c #B1914E",
">+	c #B1934F",
",+	c #B39450",
"'+	c #A67D43",
")+	c #AE8B4C",
"!+	c #A67F44",
"~+	c #A2793C",
"{+	c #EFEF00",
"]+	c #EF7B00",
"^+	c #A47C3E",
"/+	c #A6803F",
"(+	c #A68140",
"_+	c #B18F50",
":+	c #B59854",
"<+	c #AB864A",
"[+	c #A78045",
"}+	c #A98347",
"|+	c #A37A3D",
"1+	c #AE8D4C",
"2+	c #AF8E4C",
"3+	c #AB8749",
"4+	c #AD8A4A",
"5+	c #A57E3F",
"6+	c #A78240",
"7+	c #A68240",
"8+	c #A98348",
"9+	c #B08E50",
"0+	c #AD8B49",
"a+	c #A98547",
"b+	c #A88145",
"c+	c #AA8647",
"d+	c #AE8D4B",
"e+	c #B29250",
"f+	c #AD8C4B",
"g+	c #A88543",
"h+	c #B0914D",
"i+	c #B1924E",
"j+	c #AF8F4D",
"k+	c #9F7433",
"l+	c #A27A3B",
"m+	c #A47D3C",
"n+	c #A57F3F",
"o+	c #A98346",
"p+	c #B19251",
"q+	c #AE8B4D",
"r+	c #B0904D",
"s+	c #A88344",
"t+	c #A07736",
"u+	c #A6803E",
"v+	c #A6813F",
"w+	c #AE8C4E",
"x+	c #181818",
"y+	c #AA8744",
"z+	c #AF8F4C",
"A+	c #AD894C",
"B+	c #A5803E",
"C+	c #A57E3D",
"D+	c #A37B3C",
"E+	c #AC894A",
"F+	c #AC8947",
"G+	c #B0904C",
"H+	c #AA8548",
"I+	c #AB854A",
"J+	c #A78243",
"K+	c #A57F3E",
"L+	c #A57F3D",
"M+	c #A47E3D",
"N+	c #6B7B7B",
"O+	c #EFDEBD",
"P+	c #A47D3D",
"Q+	c #AF8F4B",
"R+	c #AD8C4A",
"S+	c #8C1800",
"T+	c #AE8C4D",
"U+	c #B39551",
"V+	c #A47C3D",
"W+	c #BD6B39",
"X+	c #B49651",
"Y+	c #B1924F",
"Z+	c #0018EF",
"`+	c #A37C3D",
" @	c #A88048",
".@	c #DEAD7B",
"+@	c #AC8A47",
"@@	c #A37D3B",
"#@	c #AB8947",
"$@	c #A57D3E",
"%@	c #A37B3D",
"&@	c #A07836",
"*@	c #A78144",
"=@	c #B08F4D",
"-@	c #9F7634",
";@	c #A27B39",
">@	c #9E7332",
",@	c #AC8A48",
"'@	c #AD8C49",
")@	c #AD8B48",
"!@	c #A78241",
"~@	c #9E7433",
"{@	c #9F7635",
"]@	c #B59752",
"^@	c #A17939",
"/@	c #AA824A",
"(@	c #A2783B",
"_@	c #A17838",
":@	c #6B0000",
"<@	c #AC8A49",
"[@	c #A47B40",
"}@	c #A78142",
"|@	c #A67F40",
"1@	c #A57D40",
"2@	c #B39651",
"3@	c #B29451",
"4@	c #A78242",
"5@	c #AE8C4B",
"6@	c #A9824B",
"7@	c #AC874B",
"8@	c #AA8845",
"9@	c #A78042",
"0@	c #AD8B4B",
"a@	c #AB8846",
"b@	c #AB8A47",
"c@	c #B08E4E",
"d@	c #AE8D4D",
"e@	c #9F7434",
"f@	c #A98645",
"g@	c #AE8D49",
"h@	c #AB8748",
"i@	c #B39550",
"j@	c #AD8B4D",
"k@	c #AC8B49",
"l@	c #AE8E4A",
"m@	c #A88149",
"n@	c #A17938",
"o@	c #AC8949",
"p@	c #AD894B",
"q@	c #AB8849",
"r@	c #AC874A",
"s@	c #AC894C",
"t@	c #A88144",
"u@	c #A67E41",
"v@	c #A57D3F",
"w@	c #A27A3C",
"x@	c #A98247",
"y@	c #B39652",
"z@	c #A57E3E",
"A@	c #AE8D4A",
"B@	c #A68043",
"C@	c #A88244",
"D@	c #A57E42",
"E@	c #AD884C",
"F@	c #A27938",
"G@	c #AA8746",
"      . + @ # $ % &     * & &   = - ; > , ' ) ! ~ { ] ^         / ( ( / _ : < [ } } | 1 2 3 4 5 6   7 8 9 0 a b c d e f g % $ h i & ",
"j k l 8 m n o n n % / p   q 7 ( > a a r c 3 s t u v { w - - - - x y z y A y B C D E E E 1 c F   + o +   G H - > y I J K L l M m 8 - ",
"N O P - Q   * * & 7 R - Q 7 = > b c 4 } S E T C U V W X 0 0 0 0 Y Z } ` } }  ...+.@.#.$.{ %.  &.@ *.@ % * 7 7 8 - =.-.;.' d >.,.A > ",
"v '.).- ( G ( !.!.- > y A 9 9 ~.4 1 {.D E D ].^./.(._.X X x H > , :.t 1 1 1 ..{.E 2 1 c F 7 <.n o $ @ o n n + & G [.}.|.v v 1.2.^.> ",
"3.4.5.6 7 Q !.0 0 a 6.c } } c 7.S 8.@.8...C Z y _ 9.+ X X 0.a.- X X b.2.| | | | 7.| c.d.7 & . . . &.@ e.e.*.@ &.* f.g.h.i.i.i.j.k.> ",
"~.l.k 9.n q / H > < 4 m.1 1 1 n.D E #.D :.^.y 9 / <.o n X 0.m 8 X X 0.L < r ~.Y Y , P o.m p.!.q.G * n $ o $ o n + <.r.r.j j s.t.u.x ",
"> 8 % @ e.n m / ( y v.b.w. .].C | | | x.y.z.= - p   A.$ X 0.+ B.X X 0.C.D.E.y F.G.H.I.J.-.K.c } G.%.L.. . . . . . . m &.$ h q & 7 _ ",
"> p q $ @ @ n q Q G 6 M./.w Y Y Y ^., N./.m 6 q.> O.p.<.X 0.n + X X 0.+ m 8 ^.| 1 ..1 P.Q.v m.1 R.S.O.: ( ( ( ( ( ( G 7 <.q / / m &.",
"> : 7 q n @ e.T.m   <.o q _ : 9 Y U.V.V.j.W.J.S.V.V.X.Y.X 0.m m X X 0.Z.W.X.7.n.2 1 C `. +.+++ +@+#+l : > 0 0 0 0 0 > p   _ ( : 7 m ",
"y > q.z.q $ @ o 9.+ n o n % / y c S V.$+v V.V.m.V.$+V.%+X 0.: : X 0.&+*+Q.v 1 E 1 4 =+-+;+s.>+>+s.,+% 7 !.> 9 9 9 > > 9 !.q.> 9 !.G ",
"G.'+'+] )+. C.C.i i C.C.q _.L !+~+2 V.{+]+V.]+V.{+$+V.V.V.V.V.0 X 0.c | ^+/+(+'.{ =.p._+q h :+# e.*.@ q _ / / / / <+[+'+'+'+Z b r 0 ",
"m.$.$.:.}+G R G G G G G : O.4.m.V.V.V.{+]+V.{+]+{+]+V.]+]+V.]+V.X 0.|+G.P 1+2+3+P o.m 6 z.. T.@ @ @ $ n + &.&.+ % 4+5+3 3 3 m.7.^.> ",
"6+7+6+@+5.u.8+!+Z Z Z Z Z H.~+#.V.{+]+{+{+]+{+]+]+]+{+{+]+$+{+V.X 0.7., : 9+  %.] #+0+a+b+c+d+J m q q + @ e.@ n e+f+g+7+7+7+6+;.L / ",
"h+h+h+i+r.j+~ S 3 3 3 3 $.1 D #.k+V.{+]+{+{+]+]+]+]+$+$+$+]+{+]+V.<+Y a x G F { l+Q.m+1.S 1.n+o+G R 8 . n e.$ p+/ q+r+h+h+h+h+i+r.<.",
"q q q % % g s+|+~+~+~+~+~+~+~+~+S  .V.{+{+{+]+]+{+{+]+$+$+$+]+V.0.R a , 6.6.c 3 t+Q.u+v+/+/+(+X.a 0 9 Q m % m w+!.8 . % q q q q q q ",
"8 8 8 8 8 G w F.b F.F.F.F.F.F.F.F.V.]+]+]+{+]+$+]+]+{+]+]+$+]+$+x+- Y 7.S $.1 E u y+z+h+r+h+z+A+9 0 > !.R 8 p ( 9 - R 8 8 8 8 8 8 8 ",
"> > > a , 6.6.6.6.F.< > > > > V.V.V.{+]+$+]+]+$+]+$+]+{+x+x+X ]+x+6.U.`.B+B+C+D+2.E+% h @ e.o . Q 8 8 !.9 !.p G 9 > > > > > > > > > ",
"> > > Y ` S S S S C 6.> > > > V.{+V.]+x+x+x+x+x+x+x+]+{+x+X x+$+x+S w.F+z+G+d+H+).I+/ % @ e.@ 9.% % q / !.Q . 7 - > > > > > > > > > ",
"> H : <+J+K+L+M+1.|+[ y ( p 8 u.V.]+x+X N+O+O+N+N+X x+]+x+X x+x+x+P+@+2+% &.. 8 9 > !.7 % A.<.n @ @ o m / 7 m & Q p p p p 8 8 : - > ",
"> G   m r+Q+Q+R+W F.Y q.p.m % k c+V.x+X N+O+O+N+N+X x+x+x+x+S+x+x+f 2+T+Q Q 8 !.> > 9 G 8 8 / q $ e.@ n %   / 7 m q q q q q q   : > ",
"> : * <.T.T.+ M p.p R a.* A.o U+W.V+x+x+x+x+x+x+x+x+W+S+$+0.W+x+x+x+x+x+x+x+x+x+x+x+x+x+> > - p.% <.<.<.% * Q 7 q 9.$ @ @ X+Y+-+&+, ",
"> - p L.&.n . _ & q q m L.7 % 9.1+[.Z V.Z+N+W+W+Z+N+W+W+]+0.S+x+0.x+0.0.x+X N+N+N+X 0.0.x+x+x+G l Q Q Q /   . * p.. n # @ i+g.n+`+|+",
"> x ( / m q 7 l g ;+i+r+5.&+f.j+f.N. @V.Z+O+.@.@Z+O+S+S+$+x+x+x+x+x+X 0.0.X X X X 0.0.0.X X N+0.x+x+> > - / m & Q 7 q <.i++@@@8.8.8.",
"> : 7 B.7 _ & t.#@.+ +6+$@%@5+(+5+| Z V.W+.@.@.@.@.@W+S+S+x+V.0.x+0.X 0.x+0.0.0.0.0.0.x+x+x+0.0.0.x+0.0.x+x+/   . & w+5.@+M+&@k+k++.",
"Y <+* k L I+1+Z.6+t+8.t+u Q.m+m+Q.P+*@x+S+W+.@.@W+S+S+S+V.V.V.x+0.X X X 0.x+0.x+x+x+x+x+0.0.x+x+x+x+X X N+N+x+I =@1+P c 1 -@8.2 T 1 ",
"C 4.d.L S.'.(+(+;@8.>@t+6+,@'@0+)@'@2+* V.S+W+W+W+W+S+V.x+V.0.X X X 0.0.0.x+x+x+x+x+x+x+x+x+x+x+x+0.x+x+V.X X x+!@`. .3 #.~@+.1 7.G.",
"{@S G.6.R.E 2 2 8.{@s L+'@U+]@T.T.T.$ n V.x+V.V.V.V.V.0.x+V.x+0.0.0.0.x+x+x+x+x+x+x++ + 9.n V.x+x+x+S+S+.@V.V.V.Q.P.^@n.......C F./@",
"k+E (@(@{.~@>@>@>@s 6+'@s.@ # # # # V.V.V.0.x+V.V.0.V.0.X X 0.x+V.V.V.V.V.x+x+x+x+_ _ _   &.o % x+x+V.V.V.W+.@O+V.J.I.c c c H.6.r > ",
"T _@v |.u u u u u C+,@r.T.$ V.V.V.V.x+X 0.X 0.V.V.V.0.V.0.0.X x+:@:@:@:@:@:@V.V.x y w < F o.(.)+<+x+.@.@W+V.S+W+.@V.O.y q.q.q.q.!.!.",
"c I.J.+@+@+@+@+@+@<@-+* V.V.0.0.0.0.V.0.x+0.x+x+x+V.V.:@$+0.N+x+S+S+S+S+S+:@:@V.< Z [@3.7.}@.+|@1@}+V.V.S+V.V.S+W+V.- : 7 . . B.B.B.",
"q.A+_.<.2@X+X+X+n 3@w+p V.0.X N+X x+x+x+x+V.V.V.V.V.:@S+$+0.X X x+S+S+$+S+:@:@V.F.].{.{@E _@t u D+*@O.( V.V.H V.V.V.!./ q n n n + + ",
". & 9+m n # # # # n p.G V.V.V.0.0.0.x+x+V.V.}@V 4@4 V.:@$+]+0.N+x+]+]+$+S+S+$+S+x+..8.@.#.(@x.~ -.5@6 8 > 6@0 6@> R 7 & & q o n m L.",
"j _.8 8 m n T.n T.<.V.V.V.S+S+V.V.x+V.V.E E ..t t v { V.:@$+0.X x+$+$+$+$+$+S+S+x+8.8.{@1 ' I+g U+T.+ * : - - 9 9 l (.g 7@/.(.(.8 - ",
"8@,.P - Q 7     9+7 V.S+W+.@.@W+V.V.S {@~@8... .9@! c+y V.S+x+X X x+$+$+S+S+S+S+$+x+2 S ' d.* + @ # @ <.&   7 8 x =.J.~ { *+V c+P > ",
"v '.).- ( ( q.A A V.S+V..@S+.@V.V.E 2 8.8.D | ^.l Y+_.p - V.S+x+N+x+S+:@:@S+$+$+:@0.V.' I+L.<.n T.$ @ $ n T.9.B.G [.}.|.v v 1.2.^.> ",
"| I.I L.  /.] } [@V.V..@V.V.W+V.@.~@~@8.1 | [ y _ 9.9..   V.:@x+0.X x+:@:@:@:@0.0.V.V.%.7 & *   B.<.@ # # # @ + * 0@a@y+y+y+y+J.P > ",
"< O.* + 9.J ~ m.1 V.S+V.t t V.s &@t+t+D :.^.y 9 / <.n + + + V.V.0.V.0.V.V.V.0.0.V.V.V.* %   R - G   U+n X+X+X+n + <.j r.r.j r.t.G > ",
"> ( p.. . T+K.2.!@i.V.i.i.i.! ! ! h.U 4 }+l 8 - : 7 . . V.V.S+S+V.V.V.0.V.V.V.V.S+S+V.&.o % 7 : x %.W.+@+@b@+@R+c@& & & & . . _ ( > ",
"> 9 - !.( q.y F d@s.r.s.s.s.j j ,+s.T+<+q+q & G - !.V.V.V.S+S+$+$+S+S+$+S+S+S+S+S+S+S+V.T.n e+/ k.' 1.u u ;@%+) <+: : : : G ( - 9 > ",
"> > 0 0 0 0 0 - / . . . . q 9.@ # @ % & q o &.  V.V.$+]+$+$+S+S+$+$+V.$+$+S+S+S+$+$+$+V._.2+,@v.' S 8.>@8.P. +#+q+p.w+p.w+8 H 0 0 > ",
"/@> > 9 9 9 9 H ( : : G ( u.* n @ $ n + n o n V.S+$+]+$+$+$+$+S+S+$+V.$+S+$+S+$+$+S+S+V.F d 1.^@..{.2 8.s .+G+<.U++ + + &.& R 9 9 9 ",
"G.[.L w+p.w+w+w+w+/ / 8 8+[+d.* m . m m m m V.S+$+]+]+]+$+S+S+S+S+S+S+V.:@S+S+S+$+$+$+S+V.3 e@>@8.n.%@w.@+<@_.&.@ *.@ n q & 7 / / / ",
"1 |@d+<.+ &.&.<.<.&.+ (.f@^+S.O.: G G G G ( V.S+$+]+]+$+$+$+$+$+S+S+V.V.:@S+S+S+$+]+]+$+S+V.2 -@D | ^.f.J g l   9.@ $ q / / q + + + ",
"|+d 0@m q m m m m q n 2@g@V h@8 : > , Z '+'+V.S+]+]+]+$+$+$+S+S+V.V.m m V.S+S+$+$+]+]+$+S+V. + +b.o+9 Q . & p.7 . m m p.( Q &.# # e.",
", < q.: R : : : : Q C.n i@Y+r.% _ A '+~+1 $.V.S+$+$+$+$+S+S+V.V.: : : : V.V.S+$+]+]+]+]+$+V.i+i+J j@q.- R 7 q & 8 : : - 9 l % @ @ @ ",
"> > > > > > > > 0 - w+m q % n n & x Z  .}./+K+V.S+$+$+:@V.V.:@:@V.> > > ( V.S+$+]+]+]+]+$+0.q q C./ H 0 9 Q & p.- > > r F.v.k@l@l@l@",
"> > > > > > > > > 9 !.R R Q m +   q.m@Y 5.2+0@8+V.S+$+$+S+S+:@S+V.> > > 9 V.S+$+]+]+]+]+$+:@x+p R !.> > > - : ( 9 > > b C l+m+M+M+M+",
"> > > > > > > > > > > > > - w+. / H 0 x Q . 7 !.> V.V.S+S+S+$+V.V.> > > a , V.:@$+]+]+$+S+S+x+6.b Y y > > > > > > > > F.| S S ~+~+~+",
"> > > > > > > > > > > > > > !.R !.9 > > !.R G x > > V.S+S+$+V.0.V.V.> > Y 7.V.:@$+$+$+S+:@S+x+3 ~+G.a > > > > > > > > < , F.b b b b ",
"> > > > > > > > > > > > > > > > > > > > > > > > > > > V.V.V.0.V.V.V.> > , R.#.V.:@S+S+:@S+S+x++.{.} < > > > > > > > > > > > > > > > ",
"> > > > > , |+#.+.8.8.8.+.D 4 a > > > > > > > > > > > > V.0.V.V.V.V.> > > > > V.:@S+:@S+$+$+x+> > > > > > > > > > > > > > > > > > > ",
"> a Y B F.G.S 8.k+2 |.M+L+/+v.G ( > > > > > < , F.F.Y a V.V.0.V.0.8 8 8 G 8+F.V.:@:@:@S+$+S+x+p p 8 8 8 p ( > r , Y /@> > > > > > > ",
"> Y } ~+~+m.{.8.k+n@h.l@z+z+;+m / H > > > /@6.C S ~+c V.0.0.V.0.V.q q q o.J+~+V.:@:@S+$+S+S+$+x+q q q % m _ x 6.| c r > > > > > > > ",
", G.$.8.8.{@..m.1.(+0+r.n o n % L.8 R p p G ] %@1 S V.0.0.0.V.V.V.o o + =@V C+V.:@:@S+S+$+S+S+x+@ n <.<.% & 8 [. .} ~.> > > > > > > ",
"R.$.E +.k+D | b+o@d+T+7 % h C.p.L.m q q q m /.] Z !+V.W+0.W+V.V.  + + * q+d+Z.l@V.V.S+S+S+$+V.V.$ q w+Q /   . /.] , a > > > > > > > ",
"3 3 1 1 1 |+6.O.  m 7 Q * q L.Q . n n + n n . ( 0 > x V.V.V.V.G / m m w+/ . r.s.j+V.V.V.V.V.V.j % p.- - p L.q 7 - 0 > - G !.9 x ( : ",
"Z Z Z Z Z 6.r H p w+& . 7 w+L.m 9.$ %   q n m : > 9 8 * 7 : : L.& 7 7 & . L./.J.!@V.0.0.X 0.V.h@8 : - l & * w+R H > > p   7 ( :   m ",
", Y < > - !.x 9 !.8 B.q 7 a.  % ,+Y+0@=.p@J -+P m@> a.m g <+7@_.* l.<+* . u.[+R.E V.V.0.0.V.V.*@y > H w+m 7 !.> > > 9 l m . Q / m &.",
"C c Y ( 7   p ( / &   7 * . 9+w+q@@+w.^+5+!@`.:.H.r ( l %.c.I.L r@4.c.d.L *@~+{.k+V.0.V.V.V.0.V.> 0 > : Q R > 0 > > > ( Q L.. . 7 _ ",
"#.S 6.G & . u.I+6 m /.I+6 m T+8+7._@{@2 D 1 v Q.d F : G ] l+~+!+6.C |+U.6.R.{@8.#.V.0.V.0.0.V.V.: ( ( G : : ( 9 < < > > x 8 J K <+N.",
"~@3 [ - = s@t@c.%./.X.{ H+/.y.| n.8.@.8.3 4 K.F+d+* . * h@P.E (@| } } | ~+{.~@~@E V.0.V.V.V.V.V.. . . . . . * 3+u@'+r > > P >.4@v@].",
"u }.}+( : P ^+m.' B 7.w@' [.7.D 8.8.{@n.7.N.l M + T.@ T.Q+(+n@1 :.).x@:.1 t t _@S V.0.0.V.V.0.V.<.n T.n + n y@R+/+{ N.> r G.S t+2 2 ",
"+@R+K & & f.z@E 3 3.` } 7.].n.e@@.#.S 4 F.y : _ q o *.@ j A@e B@] )+q+o+I.e a@C@!+V.V.0.0.0.V.V.  % o A.& q T.s.R+q@A , } (@#.>@@.~@",
"<.U+n o $ i+g+u ..w@S.N.D@m._@n@s 1 } Y > > H G 7 <.o @ @ n (.A+8 . m l E@* (.A+y V.S+V.V.V.W+V.G L.%   R p.<.U+s.d@A !+`+u u F@F@F@",
"L.. n e.e.2@Q+G@9@I.5.T+H+c.s+G@s+G.F.y > H p 7 9+  i n e.# h q &     & & & _ : H V.W+V..@W+V.V.> R / p H : w+0@a@4@2.d g.N N N #@#@",
"G / q n @ @ T.r.q+G   e+w+7@6 (.T+A a > a y /.(.g 7@l % n n n + m 8 8 . m Q q.y < < V.V.V.V.V.S.9 ( ( - 9 H 9 [+%@^@|.@+j+U+U+U+<.j "};
