/* XPM */
static char * p_mov_left_4_xpm[] = {
"66 66 342 2",
"  	c #AA834B",
". 	c #A88047",
"+ 	c #A37A3D",
"@ 	c #9F7535",
"# 	c #9F7533",
"$ 	c #9F7534",
"% 	c #A07737",
"& 	c #A57D41",
"* 	c #A9824A",
"= 	c #A88148",
"- 	c #A88046",
"; 	c #A78046",
"> 	c #A67E43",
", 	c #A2793B",
"' 	c #9F7433",
") 	c #A07635",
"! 	c #A27B3A",
"~ 	c #A47E3D",
"{ 	c #A57F3D",
"] 	c #A6803F",
"^ 	c #A98446",
"/ 	c #AC874C",
"( 	c #AC864C",
"_ 	c #A98249",
": 	c #AB854C",
"< 	c #AC874D",
"[ 	c #AD894D",
"} 	c #A98348",
"| 	c #A77F46",
"1 	c #A88147",
"2 	c #AB854A",
"3 	c #AD884D",
"4 	c #A98149",
"5 	c #AA824A",
"6 	c #A57C41",
"7 	c #A2793C",
"8 	c #A2793A",
"9 	c #A07637",
"0 	c #A17938",
"a 	c #A98543",
"b 	c #AE8E4A",
"c 	c #AF8F4C",
"d 	c #B1914E",
"e 	c #B19150",
"f 	c #AE8B4E",
"g 	c #AB844C",
"h 	c #A77F45",
"i 	c #A37B3E",
"j 	c #A57D42",
"k 	c #A98148",
"l 	c #AC884D",
"m 	c #B08F4F",
"n 	c #B29251",
"o 	c #AF8D4D",
"p 	c #A78243",
"q 	c #A2783B",
"r 	c #A57E40",
"s 	c #AC894A",
"t 	c #B29351",
"u 	c #AF8C4F",
"v 	c #AB844B",
"w 	c #A47B3F",
"x 	c #A2783A",
"y 	c #9F7635",
"z 	c #A17738",
"A 	c #A37B3B",
"B 	c #A68140",
"C 	c #AD8B49",
"D 	c #B29350",
"E 	c #B49652",
"F 	c #B49753",
"G 	c #AF8E4F",
"H 	c #A88246",
"I 	c #A37B3D",
"J 	c #A17839",
"K 	c #B19050",
"L 	c #B39552",
"M 	c #B08F4D",
"N 	c #A98544",
"O 	c #A57E3D",
"P 	c #A47D3C",
"Q 	c #A78241",
"R 	c #AD8C4A",
"S 	c #B29451",
"T 	c #B59853",
"U 	c #B39451",
"V 	c #B08F50",
"W 	c #A88146",
"X 	c #A47B3E",
"Y 	c #A37A3C",
"Z 	c #A07636",
"` 	c #A88145",
" .	c #AC8949",
"..	c #AE8D4B",
"+.	c #AE8C4D",
"@.	c #AF8D4F",
"#.	c #B49653",
"$.	c #B19151",
"%.	c #AF8C4E",
"&.	c #AD8A4C",
"*.	c #A67E44",
"=.	c #A67F44",
"-.	c #B08E4F",
";.	c #AE8B4D",
">.	c #AE8E4B",
",.	c #B69953",
"'.	c #B59953",
").	c #B59753",
"!.	c #AE8C4E",
"~.	c #AE8A4E",
"{.	c #A1783A",
"].	c #AB864B",
"^.	c #AA824B",
"/.	c #B2934F",
"(.	c #AF8F4D",
"_.	c #AB874A",
":.	c #AA8449",
"<.	c #AD8B4B",
"[.	c #B1924E",
"}.	c #B29450",
"|.	c #AB864C",
"1.	c #AA844B",
"2.	c #B49552",
"3.	c #AA8646",
"4.	c #A47D3E",
"5.	c #A57F3F",
"6.	c #A78240",
"7.	c #A88342",
"8.	c #AB8748",
"9.	c #AD8A4D",
"0.	c #B09050",
"a.	c #AD8A4E",
"b.	c #B39450",
"c.	c #B1924F",
"d.	c #AA8549",
"e.	c #AD894B",
"f.	c #B0904E",
"g.	c #AE8C4C",
"h.	c #A88149",
"i.	c #AF8E4E",
"j.	c #AB864A",
"k.	c #AC874B",
"l.	c #B0904F",
"m.	c #AB874B",
"n.	c #AC884C",
"o.	c #A78045",
"p.	c #A47D3D",
"q.	c #A78144",
"r.	c #AA834A",
"s.	c #B39452",
"t.	c #B08E50",
"u.	c #AB8849",
"v.	c #A88443",
"w.	c #A57F40",
"x.	c #A47C3E",
"y.	c #A57E3F",
"z.	c #A68040",
"A.	c #A47C3F",
"B.	c #A57D43",
"C.	c #AB8649",
"D.	c #A67F42",
"E.	c #A78043",
"F.	c #AC884B",
"G.	c #AC874A",
"H.	c #A67F43",
"I.	c #9E7433",
"J.	c #A3793D",
"K.	c #AC8A49",
"L.	c #AF8D4E",
"M.	c #A47C40",
"N.	c #A17838",
"O.	c #A27A3A",
"P.	c #A37C3B",
"Q.	c #A68042",
"R.	c #AA854A",
"S.	c #A27A3B",
"T.	c #A77F44",
"U.	c #AA844A",
"V.	c #B19250",
"W.	c #AF8E4D",
"X.	c #A98248",
"Y.	c #A67E45",
"Z.	c #AD894E",
"`.	c #AC894C",
" +	c #A88144",
".+	c #A88245",
"++	c #A57E41",
"@+	c #AA8548",
"#+	c #A98447",
"$+	c #A17739",
"%+	c #9E7432",
"&+	c #A88345",
"*+	c #AC8947",
"=+	c #A37B3A",
"-+	c #AB8749",
";+	c #A67E41",
">+	c #A67D43",
",+	c #A98545",
"'+	c #A78242",
")+	c #A57D3F",
"!+	c #A37A3E",
"~+	c #A27A39",
"{+	c #A98347",
"]+	c #A67E42",
"^+	c #A27A3C",
"/+	c #080808",
"(+	c #B49752",
"_+	c #AF8F4B",
":+	c #A88247",
"<+	c #A98247",
"[+	c #A27939",
"}+	c #B39652",
"|+	c #A07736",
"1+	c #AC8A47",
"2+	c #AD8A4B",
"3+	c #A57E3E",
"4+	c #A37B3F",
"5+	c #A47C41",
"6+	c #AE8D4A",
"7+	c #AA8645",
"8+	c #A68043",
"9+	c #AE8B4C",
"0+	c #A98346",
"a+	c #AB8846",
"b+	c #A88244",
"c+	c #B39351",
"d+	c #9E7332",
"e+	c #B39551",
"f+	c #A88543",
"g+	c #A78044",
"h+	c #A57E42",
"i+	c #EFEF00",
"j+	c #B1914F",
"k+	c #AD894C",
"l+	c #AD884C",
"m+	c #AE8D4D",
"n+	c #A37C3D",
"o+	c #A27938",
"p+	c #B39651",
"q+	c #AA8746",
"r+	c #A78042",
"s+	c #AC884A",
"t+	c #CE3900",
"u+	c #EF7B00",
"v+	c #B29151",
"w+	c #B69954",
"x+	c #AA834C",
"y+	c #A98645",
"z+	c #AA8448",
"A+	c #AA8745",
"B+	c #AB8946",
"C+	c #AB8947",
"D+	c #AB854B",
"E+	c #A17837",
"F+	c #A37B3C",
"G+	c #A17939",
"H+	c #A78143",
"I+	c #A98644",
"J+	c #A88343",
"K+	c #AD8B4C",
"L+	c #AA8649",
"M+	c #AD8B4A",
"N+	c #B1904F",
"O+	c #A98349",
"P+	c #A9834A",
"Q+	c #AC894B",
"R+	c #AB8747",
"S+	c #292929",
"T+	c #4A4A4A",
"U+	c #AB8847",
"V+	c #A98444",
"W+	c #AA8747",
"X+	c #A47D3F",
"Y+	c #AA8349",
"Z+	c #A98643",
"`+	c #A98546",
" @	c #B08F4E",
".@	c #6B7B7B",
"+@	c #AC864D",
"@@	c #EFDEBD",
"#@	c #BD6B39",
"$@	c #AC8948",
"%@	c #A78341",
"&@	c #A88442",
"*@	c #A88341",
"=@	c #AB8848",
"-@	c #AE8A4D",
";@	c #8C1800",
">@	c #181818",
",@	c #A67F41",
"'@	c #A98448",
")@	c #B1934F",
"!@	c #DEAD7B",
"~@	c #0018EF",
"{@	c #B18F50",
"]@	c #B59854",
"^@	c #AD8A4A",
"/@	c #A68240",
"(@	c #B29250",
"_@	c #AD8C4B",
":@	c #B0914D",
"<@	c #B19251",
"[@	c #B0904D",
"}@	c #A88344",
"|@	c #6B0000",
"1@	c #A5803E",
"2@	c #B0904C",
"3@	c #A57F3E",
"4@	c #AA8547",
"5@	c #AA8647",
"6@	c #A47C3D",
"7@	c #B49651",
"8@	c #AE8D4C",
"9@	c #A88048",
"0@	c #A37D3B",
"a@	c #A57D3E",
"b@	c #A07836",
"c@	c #9F7634",
"d@	c #A07738",
"e@	c #A27B39",
"f@	c #AC8A48",
"g@	c #AD8C49",
"h@	c #AD8B48",
"i@	c #B59752",
"j@	c #AC8B48",
"k@	c #AE8C4F",
"l@	c #AA8845",
"m@	c #A47B40",
"n@	c #AA8744",
"o@	c #A68041",
"p@	c #AF8E4C",
"q@	c #A17937",
"r@	c #9F7434",
"s@	c #A67F40",
"t@	c #AE8D49",
"u@	c #A78140",
"v@	c #AA8846",
"w@	c #A78340",
"x@	c #B39550",
"y@	c #B2924F",
"z@	c #AD8B4D",
"A@	c #AC8B49",
"          . + @ # $ $ $ # % & *                                                                                                     ",
"  * = - ; > , $ ' ) ! ~ { ] ^ / (           _ . ; ; = *     : < [ [ [ [ / } ; | 1 2 3 [ 3 3 3 3 3 [ [ [ 3 (   4 . = 5               ",
"  = 6 7 7 8 9 $ ' 0 a b c c d e f g       5 h i , 7 j k     l m n n n n o p 7 q r s e t n n n n n n n t e u v h w j 4               ",
". > x $ $ y z 8 A B C D E F E t G [ l 3 3 / H I J , 6 =     3 K L F F L M N O P Q R S F T T T T T E U U t V [ W X 6 k               ",
"Y x Z # ' % w `  ...+.@.t #.$.%.G e n n n e &.H *.=.. *     : [ -.L L m ;...>.b ..+.@.t T ,.'.'.).n !.~.f -.K &.H . *               ",
"{.{.J J J + h ].-.e @.~.m n G ~.K E E L E E K ( ^.  v ( ( v g / f e e !.f K D /.(._.:.<.d [.[.}.t %.: : 3 G n @.: ^.  : / |.1.v ( < ",
"*.*.*.*.*.h 4 g 3 !.V K @.!.G e 2.).t -.n E e <   1.[ m @.< < G V @.@.V K G &.3.Q 4.X 5.6.6.7.8.[ < : 9.V m !.l g     3 -.@.( < -.e ",
". = _   : |.v 1.|.[ 0.n @.a.-.t b.c.<.d.e.f.g.:.h.  a.e i.j.k.l.m m.j.m K n.o.Y Z $ ) z 8 A p.q.r.  g !.e @.|.      1.9.e K ~.f e s.",
"i j = ( @.-.3 ( f V -.@.m K t.!.u.v.w.x.y.Q z.A.B.4 ( 9.C.D.E.F.G.H.D._.F.q.7 9 ' I.Z J.H.3.K._.  ^.  < ~.l   ^.      ( ~.G K K @.u ",
"@ , h / V K n.2 L.e &.2 L.e +.} M.N.y ) % J O.P.Q.R.< / H S.7 =.h i + T.h Y y $ @ Z , > U.L.V.@.< ( ( / < < ( 1._ _     v [ f.W.j.X.",
"I.{.Y.: Z.`. +D.C.&..+++@+&.#+w $+$ %+$ {.& &+*+..m K m 8.=+Z q w 6 6 w 7 9 I.I.Z + *.= v 3 u m K K K K K K m -+;+>+4     :.,+'+)+!+",
"~+4.{+( < :.x.8 ]+- M.^+]+W M./+$ $ y $+M.X.9.V.L (+T (+_+B 0 J A.:+<+A.J [+[+N., *.*     : 3 -.U E (+E L E }+R ] ++X.  4 > , |+) ) ",
"1+R W.V V 2+3+Z {.4+5+6 M.!+/+/+%+@ , & ; r.< u n F ,.T }.6+7+8+H 9+;.0+E.7+a+b+=.=     : ~.V -.-.t F c+V n (+/.R u.U.. 6 q @ d+%+I.",
"U e+E F ).[.f+~+z ^+g+/+h+/+i+/+/+/+6 =     g / @.U F T T E j+k+[ K e 9.l+m j+k+r.5   * U.+.j+!./ G t -.l %.U e+/.m+U.=.n+~+~+o+o+o+",
"G K E '.'.p+_+q+r+E.s+/+/+/+t+/+u+/+; r.  /+3 @.t.-.v+E '.w+#.n V -.-.V V V u < g x+* h ++'+y+z+  l f 3 g < !.<.a+'+r Q.A+B+B+B+C+C+",
"/ f n E T T (+D /+/ /+/+/+i+u+/+i+t+/+/+/+/+&.j+i.k.9.t E E E L e [ [ K e ~.D+r._ _ . w z E+F+g+1.( ( : 1.g 1.o.I G+! v.(.e+e+e+U }.",
"-.-.-.K L T w+/+i+/+/+u+/+u+i+t+i+u+t+t+u+/+H+I+J+++H K+-.-.-.-.f ( ( f u < _ Y.6 6 w J ) {.& L+L.-.@.[ 1.^.* | j Q.7+M+i.t ).#.v+V ",
"}.N+9.[ e E F /+i+t+/+i+u+/+i+t+u+u+u+u+/+/+E+[+~+O.++O+: : : : v r.P+r.U.r.- i % Z Z Z J j R.-.L F L -./ g :   r.Q+f.W.F.9.V.e [ : ",
"B+R+:.: ~.-.m /+i+t+u+i+u+i+u+t+u+u+t+/+/+S+T+T+T+/+/+/+/+^.^.^.= *.6 5+6 6 X z # %+@ x ++C.-.s.T ,.T t m @.@.[ : d.U+V+]+Q.,+W+U.  ",
"O.X+:+: ( / ( /+u+i+t+i+i+i+u+/+i+i+i+S+t+t+/+S+S+S+S+S+T+T+T+  . A.[+J J J z 9 Z ) J j R.@.U E F ).T F E E L V / W 4.! O.O.A r 1   ",
"4+H.s+L.@.~./+t+/+i+u+u+i+i+u+u+/+t+/+/+/+/+/+/+S+S+S+T+S+S+S+: Y+,+7.r w w w w M.w D._.@.V K K K s.T '.'.,.T s.m 2+A+a Z+Z+Z+`+Y+  ",
"k m.N+2.E n /+i+t+u+u+u+u+/+i+u+/+/+S+S+S+/+/+1.f U F S+T+T+T+/+/+/+/+F._ 4 k = = . :.o e %.|.D+/ m E ).F ).F E L U D D }.}./. @n.v ",
"  [ t T '.E /+u+i+u+i+.@S+S+/+i+/+/+/+/+/+t+/+: 3 -.c+/+/+S+S+/+/+/+/+/+/++@r.; > B.E.3.U+&+j 6 > C.G K K K K K K K e s.).#.n V @.u ",
"  3 n ).T T /+/+u+.@@@@@.@S+/+/+/+/+/+/+/+t+t+/+  /+/+/+/+).E L L (+(+L e [ 1 w J z J =+P.O.8 J Y g+].< ( ( ( ( ( ( / @.U n f f e s.",
"  < @.n E T './+S+@@.@.@.@/+/+/+/+/+u+#@/+/+t+/+/+/+/+/+/+/+e e e e l.>.$@.+M.$+) J i z.%@&@*@%@v.=@9.<   ^.^.^.^.^.  3 -.u ( < @.e ",
"r.  D+-@n ).T F /+@@.@/+/+;@/+.@;@u+u+;@#@/+S+>@/+S+T+T+T+S+/+/+/+/+z+,@P.O.J Z J & '@g.d /.)@)@/.b.t @.|.  1.1.1.    1.|.D+  1.|./ ",
"> >+>+H 9+K $.$./+S+/+S+;@!@~@@@#@;@u+;@#@/+/+>@T+T+T+S+S+S+S+S+>@>@/+/+/+/+/+X+++d.%.{@n #.]@w+'.,.T n u f f f f j.o.>+>+>+*.| 4 ^.",
"8 x x A.{+/ l / / /+/+S+!@@@~@@@!@#@;@#@/+/+>@>@T+T+T+>@>@S+S+S+>@>@>@>@S+S+S+/+/+/+/+/+-@K (+T T T ).E L s.s.L t ^@y.{.{.{.8 M.1   ",
"6./@6.v.s+n.} =.*.*./+;@@@@@!@;@;@;@;@/+/+/+>@>@T+T+T+>@>@>@S+S+S+>@>@S+S+S+S+S+S+>@>@/+/+/+..f.e n n L T '.T E (@_@f+/@/@/@6.V+F.f ",
":@:@:@[.D (.J+, {.{.{./+!@!@!@#@#@;@/+/+/+>@>@>@S+T+>@>@>@>@>@>@>@>@>@>@S+S+S+S+S+S+S+T+/+/+/+/+/ l [ K E '.).<@f ;.[@:@:@:@:@[.D U ",
"n n n t t i.}@+ 7 7 7 7 /+#@#@#@;@/+/+/+>@>@>@>@>@>@>@/+/+/+/+/+/+>@>@>@>@>@>@>@>@>@T+/+/+;@#@/+/+^.1.~.e t e !.|.[ K t n n n n n n ",
"[ [ [ [ [ / O+; | ; ; ; ; >@>@>@>@/+T+S+.@>@>@S+S+/+/+/+/+|@|@|@/+/+/+/+>@>@>@S+S+T+/+;@;@!@!@@@#@/+  |.l [ 3 ( 1.: l [ [ [ [ [ [ [ ",
"      * . h h h h ; _             /+T+S+S+.@>@/+S+/+>@/+|@|@|@|@;@/+/+z.1@1@/+/+/+T+/+;@#@#@/+/+/+/+[ |.1.|.3 / 1.                  ",
"      = 5+, , , , i h             /+>@>@S+>@.@>@>@/+/+|@|@|@|@|@|@;@/+/+c 2@..@+/+/+/+/+#@!@@@#@/+t n f |.~.K @.:                   ",
"  g < j.p 3@{ ~ A + Y.r.( 3 [ n.U.1 /+>@>@;@;@S+/+t+t+t+>@S+S+>@>@>@>@>@/+s.K [ 1.  |.@./+/+/+/+T T F e f @.e V ~.3 3 3 3 [ [ < :   ",
"  / -.e [@_+_+R 4@; = D+%.e t N+5@x., , /+S+/+;@T+u+t+S+S+>@>@/+/+/+/+/+/+/+[ |.    1./ [ [ f n ).'.T E t -.f @.e n n n n n n -.<   ",
"  < m U (+(+L V.%.3 l a.m c+F e+$@6@{.8 A /+>@/+S+/+S+/+/+/+;@;@;@;@t+|@/+/+/+. . - . _     : %.t U U U t m ~.@.n 2.).T T 7@c.g.z+. ",
"  : 3 G s.E K u V n n e G @.t 2.8@W *.o.5@R /+>@/+/+/+/+t+t+t+t+t+t+|@|@;@/+/+/+7 7 w h *     / 9.~.~.~.f -.K m %.K E w+T [.A+5.n++ ",
"  v ( f e n @.9.i.d [.[@s+z+2+(.2+X.9@  ~./+/+/+/+u+u+t+t+t+t+t+;@|@|@|@;@/+|@/+/+P 5.0+|.:             : f e V ~.@.n U [.1+0@$ $ $ ",
"  < @.0.@.u V  @C+&@%@6.a@I y.B y.w *.5 /+/+u+u+t+t+u+t+t+t+t+;@;@|@|@|@;@/+|@|@|@/+..f.m [ 1.^.^.^.^.^.  ( f -.K V !.s+v.~ b@' ' # ",
"= j.m N+F.2 8@>.6.|+$ |+~+P.P P P.p.q./+u+u+u+u+u+u+t+t+t+;@;@;@|@|@|@|@/+/+|@|@|@/+/+T E -.l / / / / :   _ _ Q+M 8@:.j J c@$ ) d@J ",
"i H._.F.g+X+B B e@$ d+|+6.f@g@C h@g@/+/+u+u+u+u+t+t+t+;@;@;@|@|@|@|@|@;@/+|@|@|@;@|@/+/+T U /+/+/+/+0.~.1.Y.w y.Q z.X {.@ I.# J M.> ",
"y , > h Y Z ) ) $ y E+{ g@e+i@(+(+(+/+t+t+t+t+t+;@t+;@|@|@|@|@|@|@|@|@/+|@|@|@;@t+|@|@/+/+/+|@|@|@|@/+K n.` p.P.P.=+G+$+z z z i ; 5 ",
"' Z q q 9 I.d+d+d+E+6.g@/.T w+w+w+/+;@t+t+t+t+;@;@;@|@|@|@|@|@|@/+/+/+|@|@|@|@;@;@t+|@/+;@t+|@;@t+;@/+/+e W.g@j@f@3.E.j j j B.h 4   ",
"d@N.O.! ~+~+~+~+~+O f@D (+).F E /+;@u+t+t+t+t+;@/+;@|@/+/+/+/+/+9.N+e /+/+|@|@|@;@;@t+|@;@;@t+|@|@t+/+/+/+/+/+U t i.].r.D+D+D+D+|.|.",
"j E.3.1+1+1+1+1+1+K.g.m s.E n /+/+t+t+t+t+t+;@;@/+/+/+F w+w+#.n V -.-.m m /+/+|@|@|@|@;@|@;@;@t+|@;@t+/+#@#@S+/+/+/+: < @.K K 0.0.0.",
"D+k+l.U p+7@7@7@E S !.3 K L /+/+/+/+t+t+;@;@|@/+/+m.9.n E E E L K [ [ K e ~.v /+/+|@|@|@|@|@|@;@;@|@t+/+#@/+>@/+S+/+/+f n E E E L L ",
"K V t.e E w+/+/+/+/+%./ V /+|@#@/+/+u+t+;@;@/+/+'+& ` &.G @.G G f |.|.f k@< _ *.X /+/+/+/+/+|@|@|@|@/+/+#@/+>@/+>@/+/+/+V n F E e G ",
"}.l.[ [ e /+#@/+!@#@/+/+-./+/+#@#@/+/+;@;@|@/+[+[+O.++O+: : : : 1.r._ r.r.P+; !+Z $ $ y J ]+/+/+/+/+/+t+/+>@/+>@/+/+S+/+k.&.j+j+[ : ",
"l@W+:.: ~./+/+>@/+/+S+T+/+/+>@S+#@/+/+;@|@/+/+X r+I+5@r.^.^.^.^.= >+m@m@M.M.i z # I.) , ]+_.m L T /+/+/+/+/+>@/+/+>@S+/+++,@N 5@:.  ",
"O.X+:+: ( ( /+>@>@/+/+>@S+S+/+/+>@/+/+/+;@/+w 1 9.c.l.3 : : g   1 A.[+J J $+z % Z Z {.]+2 G U E (+).T ).E /+/+/+>@>@S+/+O.O.A r 1   ",
"w E.Q+G -.&.H /+>@>@>@/+>@S+S+/+/+/+/+/+/+w Y.r.u 2.2.K -.G f : :.3.v.,@M.w w m@m@w ]+C.@.V m -.0.U T w+w+/+>@>@>@>@S+/+n@n@n@3.:.  ",
"_ ].m L 2.f.J+8 /+/+/+/+/+>@/+T+T+/+|+% A.1 r.1.f U E L L L K [ [ l. @k._ _ Y+Y+Y+O+].m t -.l : / -.e+E 7@/+/+/+/+S+S+/+D }.D  @/   ",
"  ( %.K K +.&+r Q /+/+/+/+/+/+T+>@a o@& {+9.[ : < @.K K K K V -.-.V @.< |.~.@.G @.@.V s.F t @.< v C.$@1+1+/+S+S+S+T+/+/+V K K u (   ",
"  1.: |.( D+r.R.m+/.D /+/+/+>@/+b./.+.j.;.n V / : |.|.D+D+D+9.j+K -@: 1.< V s.L L L L E (+E (@f Y+]+A ~+~+/+#@S+!@#@/+< < / ( : 1.  ",
"    ^.^.^.^.^.: f K K K /+/+/+T w+T t V n F s.-.[ g = *.j B.q.U+ .R.^.^.|.!.K K K K K K l.p@f@^ ]+, $ d+$ =+/+/+/+/+!.%.!.[ g ^.^.  ",
"5     1.1.1.1.g ( < < / ( n.m E T ).E L E F E U -.D+*.7 z z G+A w.<+1.v : ( / / ( |.|.|.R.Q.A G+z 9 ) $ E+&@2@U e+L L L s.V l 1.1.1.",
"> W F.!.%.!.!.!.!.f f [ } o._.m e K e e e e $.K &.` !+Z %+I.q@1@7+2+!.%.!.f [ : * | >+B.5+{.r@d+$ $+I w.v.K.l.s.T ,.T E n V @.f f f ",
"J s@..U L s.s.U U s.L j+y+x.g+].< / / / / ( / ].` Y % ) $ ) 3@g@/.U U s.s.L n ~._ & 8 J J % ) c@% w 1 2+f.i.9.-.2.T ).n f f n L L L ",
"+ Q.<.e n e e e e n E p+t@N 8.[ <   . *.>+>+*.>+!+9 9 , 4.u@v@W.v+n e e t E E K &.3.%@w@%@%@%@%@7.0+1.~.K V %.@.K e e %.( ~.s.w+w+'.",
". _ D+< l < < < < ~.$.E x@c.D t u U.>+7 J x x {.% Z 7 =._.W. @9.< < < < f t F E S y@[.[.[.[.[.[.f.z@D+: l @.n V [ < < : 1.9.t T T T ",
"                ^.: !.e n t E E V v *.X 4.] 3@I 7 + j _ 3 V -./         ( @.n n n n n n n n n n $.f g ^.1.~.V %.:     4 ; ^ A@b b b ",
"                  1.|.l l ~.e L -.D+h.= s+p@<.} ; . k r.: < / v         1.( l l l l l l l l l 3 l |.      : < ( 1.    | i S.P ~ ~ ~ ",
"                          : !.K f g ^.v ~.K @.|.                        * . h h h h h h h h h h | = r.                ; w , , 7 7 7 ",
"                            |.l |.1.    |.l / v                         = M., {.x x x x x x x {.7 > *                 _ . ; | | | | ",
"                                                                        . Y @ # $ $ $ $ $ $ $ # 9 6 _                               "};
