/* XPM */
static char * p_mov_up_1_xpm[] = {
"66 66 347 2",
"  	c #AA834B",
". 	c #A88047",
"+ 	c #A37A3D",
"@ 	c #9F7535",
"# 	c #9F7533",
"$ 	c #9F7534",
"% 	c #A07737",
"& 	c #A57D41",
"* 	c #A9824A",
"= 	c #A88148",
"- 	c #A88046",
"; 	c #A78046",
"> 	c #A67E43",
", 	c #A2793B",
"' 	c #9F7433",
") 	c #A07635",
"! 	c #A27B3A",
"~ 	c #A47E3D",
"{ 	c #A57F3D",
"] 	c #A6803F",
"^ 	c #A98446",
"/ 	c #AC874C",
"( 	c #AC864C",
"_ 	c #A98249",
": 	c #AB854C",
"< 	c #AC874D",
"[ 	c #AD894D",
"} 	c #A98348",
"| 	c #A77F46",
"1 	c #A88147",
"2 	c #AB854A",
"3 	c #AD884D",
"4 	c #A98149",
"5 	c #AA824A",
"6 	c #A57C41",
"7 	c #A2793C",
"8 	c #A2793A",
"9 	c #A07637",
"0 	c #A17938",
"a 	c #A98543",
"b 	c #AE8E4A",
"c 	c #AF8F4C",
"d 	c #B1914E",
"e 	c #B19150",
"f 	c #AE8B4E",
"g 	c #AB844C",
"h 	c #A77F45",
"i 	c #A37B3E",
"j 	c #A57D42",
"k 	c #A98148",
"l 	c #AC884D",
"m 	c #B08F4F",
"n 	c #B29251",
"o 	c #AF8D4D",
"p 	c #A78243",
"q 	c #4A4A4A",
"r 	c #A2783B",
"s 	c #A57E40",
"t 	c #AC894A",
"u 	c #B29351",
"v 	c #AF8C4F",
"w 	c #AB844B",
"x 	c #A47B3F",
"y 	c #A2783A",
"z 	c #9F7635",
"A 	c #A17738",
"B 	c #A37B3B",
"C 	c #A68140",
"D 	c #AD8B49",
"E 	c #B29350",
"F 	c #B49652",
"G 	c #B49753",
"H 	c #AF8E4F",
"I 	c #A88246",
"J 	c #A37B3D",
"K 	c #A17839",
"L 	c #B19050",
"M 	c #B39552",
"N 	c #B08F4D",
"O 	c #A47D3C",
"P 	c #A78241",
"Q 	c #AD8C4A",
"R 	c #B29451",
"S 	c #B59853",
"T 	c #B39451",
"U 	c #B08F50",
"V 	c #A88146",
"W 	c #A47B3E",
"X 	c #A37A3C",
"Y 	c #A07636",
"Z 	c #A88145",
"` 	c #AC8949",
" .	c #AE8D4B",
"..	c #AE8C4D",
"+.	c #AF8D4F",
"@.	c #B49653",
"#.	c #B19151",
"$.	c #AF8C4E",
"%.	c #AD8A4C",
"&.	c #A67E44",
"*.	c #A67F44",
"=.	c #292929",
"-.	c #B69953",
";.	c #B59953",
">.	c #B59753",
",.	c #AE8C4E",
"'.	c #AE8A4E",
").	c #B08E4F",
"!.	c #A1783A",
"~.	c #AB864B",
"{.	c #AA824B",
"].	c #B2934F",
"^.	c #AF8F4D",
"/.	c #AB874A",
"(.	c #AA8449",
"_.	c #AD8B4B",
":.	c #B1924E",
"<.	c #B29450",
"[.	c #AB864C",
"}.	c #AA844B",
"|.	c #B49552",
"1.	c #AA8646",
"2.	c #A47D3E",
"3.	c #A57F3F",
"4.	c #A78240",
"5.	c #A88342",
"6.	c #AB8748",
"7.	c #AD8A4D",
"8.	c #B09050",
"9.	c #AD8A4E",
"0.	c #B39450",
"a.	c #B1924F",
"b.	c #AA8549",
"c.	c #AD894B",
"d.	c #B0904E",
"e.	c #AE8C4C",
"f.	c #A88149",
"g.	c #AF8E4E",
"h.	c #AB864A",
"i.	c #AC874B",
"j.	c #A78045",
"k.	c #A47D3D",
"l.	c #A78144",
"m.	c #AA834A",
"n.	c #B39452",
"o.	c #B08E50",
"p.	c #AB8849",
"q.	c #A88443",
"r.	c #A57F40",
"s.	c #A47C3E",
"t.	c #A57E3F",
"u.	c #A68040",
"v.	c #A47C3F",
"w.	c #A57D43",
"x.	c #AB8649",
"y.	c #A67F42",
"z.	c #A78043",
"A.	c #080808",
"B.	c #A3793D",
"C.	c #A67F43",
"D.	c #AC884C",
"E.	c #AF8D4E",
"F.	c #A47C40",
"G.	c #A17838",
"H.	c #A27A3A",
"I.	c #A37C3B",
"J.	c #A68042",
"K.	c #AA854A",
"L.	c #A27A3B",
"M.	c #A77F44",
"N.	c #CE3900",
"O.	c #AF8E4D",
"P.	c #A98248",
"Q.	c #9E7433",
"R.	c #A67E45",
"S.	c #AD894E",
"T.	c #AC894C",
"U.	c #A88144",
"V.	c #A88245",
"W.	c #A57E41",
"X.	c #AA8548",
"Y.	c #A98447",
"Z.	c #A17739",
"`.	c #9E7432",
" +	c #A88345",
".+	c #AC8947",
"++	c #A37B3A",
"@+	c #EFEF00",
"#+	c #EF7B00",
"$+	c #AB8749",
"%+	c #A67E41",
"&+	c #A67D43",
"*+	c #A98545",
"=+	c #A78242",
"-+	c #A57D3F",
";+	c #A37A3E",
">+	c #A27A39",
",+	c #A98347",
"'+	c #A67E42",
")+	c #A27A3C",
"!+	c #B19250",
"~+	c #B49752",
"{+	c #AF8F4B",
"]+	c #B39652",
"^+	c #A07736",
"/+	c #AC8A47",
"(+	c #AD8A4B",
"_+	c #A57E3E",
":+	c #A37B3F",
"<+	c #A47C41",
"[+	c #9F7434",
"}+	c #AE8D4A",
"|+	c #AA8645",
"1+	c #A68043",
"2+	c #B39351",
"3+	c #AA844A",
"4+	c #9E7332",
"5+	c #B39551",
"6+	c #A88543",
"7+	c #A78044",
"8+	c #A57E42",
"9+	c #A17837",
"0+	c #B1914F",
"a+	c #AD894C",
"b+	c #AE8D4D",
"c+	c #A37C3D",
"d+	c #A27938",
"e+	c #B39651",
"f+	c #AA8746",
"g+	c #A78042",
"h+	c #AC884A",
"i+	c #A88344",
"j+	c #B29151",
"k+	c #B69954",
"l+	c #AB8846",
"m+	c #AA8745",
"n+	c #AB8946",
"o+	c #AB8947",
"p+	c #AE8B4D",
"q+	c #B29250",
"r+	c #181818",
"s+	c #A17939",
"t+	c #AA834C",
"u+	c #A78143",
"v+	c #A98644",
"w+	c #A88343",
"x+	c #AD8B4C",
"y+	c #AD8B4A",
"z+	c #B1904F",
"A+	c #A27939",
"B+	c #A98349",
"C+	c #AC894B",
"D+	c #AC884B",
"E+	c #AB8747",
"F+	c #A07738",
"G+	c #A68041",
"H+	c #A98544",
"I+	c #AA8547",
"J+	c #AA8349",
"K+	c #6B7B7B",
"L+	c #EFDEBD",
"M+	c #AB8847",
"N+	c #A98444",
"O+	c #AA8747",
"P+	c #A47D3F",
"Q+	c #A88247",
"R+	c #B0904F",
"S+	c #8C1800",
"T+	c #BD6B39",
"U+	c #A98643",
"V+	c #A98546",
"W+	c #AB874B",
"X+	c #0018EF",
"Y+	c #AB854B",
"Z+	c #B08F4E",
"`+	c #DEAD7B",
" @	c #B0914E",
".@	c #A78341",
"+@	c #AB8848",
"@@	c #AE8A4D",
"#@	c #B1934F",
"$@	c #AE8B4C",
"%@	c #A27B39",
"&@	c #A6813F",
"*@	c #B59854",
"=@	c #A07837",
"-@	c #AF8E4B",
";@	c #AD8A4A",
">@	c #A68240",
",@	c #AC8948",
"'@	c #6B0000",
")@	c #AD8C4B",
"!@	c #B0914D",
"~@	c #AE8E4B",
"{@	c #B19251",
"]@	c #B0904D",
"^@	c #AA8647",
"/@	c #AA8744",
"(@	c #A37B3C",
"_@	c #A67F45",
":@	c #A57F3E",
"<@	c #A47C3D",
"[@	c #B49651",
"}@	c #AA8448",
"|@	c #AE8D4C",
"1@	c #A88048",
"2@	c #A98346",
"3@	c #A37D3B",
"4@	c #A88442",
"5@	c #A57D3E",
"6@	c #A07836",
"7@	c #9F7634",
"8@	c #AC8A48",
"9@	c #AD8C49",
"0@	c #AD8B48",
"a@	c #AF8E4C",
"b@	c #B59752",
"c@	c #AC8B48",
"d@	c #A57E3D",
"e@	c #AC8A49",
"f@	c #A78142",
"g@	c #A67F40",
"h@	c #A57D40",
"i@	c #A57C40",
"j@	c #AE8C4B",
"k@	c #A9824B",
"l@	c #AA8845",
"m@	c #A67F41",
"n@	c #A47B40",
"o@	c #A47B41",
"p@	c #A1773A",
"q@	c #AB8A47",
"r@	c #B08E4E",
"s@	c #A37C3C",
"t@	c #A98247",
"u@	c #B0904C",
"v@	c #A17937",
"w@	c #A5803E",
"x@	c #A98645",
"y@	c #AE8D49",
"z@	c #A78140",
"A@	c #AA8846",
"B@	c #A78340",
"C@	c #B39550",
"D@	c #B2924F",
"E@	c #AD8B4D",
"F@	c #AC8B49",
"          . + @ # $ $ $ # % & *                                                                                                     ",
"  * = - ; > , $ ' ) ! ~ { ] ^ / (           _ . ; ; = *     : < [ [ [ [ / } ; | 1 2 3 [ 3 3 3 3 3 [ [ [ 3 (   4 . = 5               ",
"  = 6 7 7 8 9 $ ' 0 a b c c d e f g       5 h i , 7 j k     l m n n n n o p q r s t e u n n n n n n n u e v w h x j 4               ",
". > y $ $ z A 8 B C D E F G F u H [ l 3 3 / I J K , 6 =     3 L M G G M N q q O P Q R G S S S S S F T T u U [ V W 6 k               ",
"X y Y # ' % x Z `  ...+.u @.#.$.H e n n n e %.I &.*.. *     : [ q q M m =.q q b  ...+.u S -.;.;.>.n ,.'.f ).L %.I . *               ",
"!.!.K K K + h ~.).e +.'.m n H '.L F F M F F L ( {.  w ( ( w g =.q q e ,.=.q E ].^./.(._.d :.:.<.u $.: : 3 H n +.: {.  : / [.}.w ( < ",
"&.&.&.&.&.h 4 g 3 ,.U L +.,.H e |.>.u ).n F e <   }.[ m +.< < =.q q +.U =.q %.1.P 2.W 3.4.4.5.6.[ < : 7.U m ,.l g     3 ).+.( < ).e ",
". = _   : [.w }.[.[ 8.n +.9.).u 0.a._.b.c.d.e.(.f.  9.e g.h.i.=.q q h.m =.q j.X Y $ ) A 8 B k.l.m.  g ,.e +.[.      }.7.e L '.f e n.",
"i j = ( +.).3 ( f U ).+.m L o.,.p.q.r.s.t.P u.v.w.4 ( 7.x.y.z.=.q q y./.=.q 7 9 A.A.Y B.C.1.A.A.  {.  < '.l   {.      ( '.H L L +.v ",
"@ , h / U L D.2 E.e %.2 E.e ..} F.G.z ) % K H.I.J.K.< / I L.7 *.=.q + M.=.q z A.N.A., A.A.E.N.A.< ( ( / < < ( }._ _     w [ d.O.h.P.",
"Q.!.R.: S.T.U.y.x.%.V.W.X.%.Y.x Z.$ `.$ !.&  +.+ .m L m 6.++Y r =.q 6 A.A.A.A.A.N.@+A.#+A.#+@+A.L L L L L L m $+%+&+4     (.*+=+-+;+",
">+2.,+( < (.s.8 '+- F.)+'+V F.% $ $ z Z.F.P.7.!+M ~+S ~+{+C 0 K =.q A.#+A.#+#+A.#+@+#+@+A.#+@+A.A.A.~+F M F ]+Q ] W.P.  4 > , ^+) ) ",
"/+Q O.U U (+_+Y !.:+<+6 F.;+Z.[+`.@ , & ; m.< v n G -.S <.}+|+1+=.q A.@+N.#+@+@+#+#+#+@+#+@+@+#+@+A.G 2+U n ~+].Q p.3+. 6 r @ 4+`.Q.",
"T 5+F G >.:.6+>+A )+7+P.8+8 G.0 9+K 6 =     g / +.T G S S F 0+a+[ A.#+@+#+N.N.N.#+#+#+#+@+@+#+@+A.H u ).l $.T 5+].b+3+*.c+>+>+d+d+d+",
"H L F ;.;.e+{+f+g+z.h+..X.y.i+f+i+> ; m.  g 3 +.o.).j+F ;.k+@.n U =.A.#+N.N.N.#+@+@+#+#+@+@+@+A.  l f 3 g < ,._.l+=+s J.m+n+n+n+o+o+",
"/ f n F S S ~+E p+/ ).q+,.i.E.0+..3+*   * m.%.0+g.i.7.u F F F M e r+N.#+N.#+#+@+#+#+N.#+@+#+#+#+A.( ( : }.g }.j.J s+! q.^.5+5+5+T <.",
").).).L M S k+>.u U ).).m U U ).S.: t+  . '+u+v+w+W.I x+).).).).f r+#+q r+r+@+#+N.#+N.#+#+N.#+@+A.A.A.[ }.{.* | j J.|+y+g.u >.@.j+U ",
"<.z+7.[ e F G F F u f 3 ).n +.(   * * 4 j !.9+A+>+H.W.B+: : : : w r+N.r+q r+@+#+r+r+r+r+r+r+r+#+A.@+A.)./ g :   m.C+d.O.D+7.!+e [ : ",
"n+E+(.: '.).m m U +.l : '.+.S.  | j & 6 , Y F+i G+H+I+J+{.{.{.{.= r+r+r+q r+#+r+q K+K+L+L+K+q r+#+A.S u m +.+.[ : b.M+N+'+J.*+O+3+  ",
"H.P+Q+: ( / ( [.[.:   m.3+}.}.k & K 9 % Y % ;+1 %.0+R+l w w g   . r+r+S+r+r+r+r+q K+K+L+L+K+q r+A.>.S G F F M U / V 2.! H.H.B s 1   ",
":+C.h+E.+.'.[.{.{.* h j 6 6 j F., $ `.$ A i r+r+r+r+r+r+r+r+r+r+r+r+r+T+=.N.S+T+r+r+r+r+r+r+r+r+L n.S ;.;.-.S n.m (+m+a U+U+U+V+J+  ",
"k W+z+|.F n f g   _ & 8 K K K Z.% Y @ r+r+r+=.=.q K+K+K+q r+=.=.r+=.r+S+=.#+T+T+K+X+T+T+K+X+A.Y+/ m F >.G >.G F M T E E <.<.].Z+D.w ",
"  [ u S ;.F e f ( m.^ 5.r.W ;+i r+r+=.K+q q =.=.=.q q q q =.=.q r+r+r+r+r+N.S+S+L+X+`+`+L+X+A.6 > x.H L L L L L L L e n.>.@.n U +.v ",
"  3 n >.S S F n './ E. @r+r+=.=.r+=.=.=.r+r+r+=.=.=.=.=.=.r+=.q =.r+=.A.r+S+S+T+`+`+`+`+`+T+A.K X 7+~.< ( ( ( ( ( ( / +.T n f f e n.",
"  < +.n F S ;.~+e ).T r+K+K+q q r+r+r+r+=.=.r+r+r+r+r+=.r+=.q q q =.r+A.A.A.S+S+S+T+`+`+T+S+r+.@q.+@7.<   {.{.{.{.{.  3 ).v ( < +.e ",
"m.  Y+@@n >.S G |.M r+q q A.r+r+=.r+r+r+r+r+r+r+r+r+r+r+r+=.=.=.q q q =.A.r+A.S+T+T+T+T+S+A.#@#@].0.u +.[.  }.}.}.    }.[.Y+  }.[./ ",
"> &+&+I $@L #.#.j+j+A.A.A.`+S+S+r+r+r+A.%@&@.@.@r+r+r+r+r+r+r+=.=.=.=.r+A.r+=.A.A.A.A.A.r+A.*@k+;.-.S n v f f f f h.j.&+&+&+&.| 4 {.",
"8 y y v.,+/ l / / A.L+`+T+A.A.A.r+r+# =@.@-@:.:.:.r+r+r+r+A.A.A.A.A.r+=.q q =.A.=.A.A.r+=.A.A.A.S S >.F M n.n.M u ;@t.!.!.!.8 F.1   ",
"4.>@4.q.h+D.} *.A.`+T+S+A.T+`+`+r+z %@4.,@z+|.>.F 2+A.A.'@'@'@'@'@'@r+q =.=.A.=.A.A.A.=.q =.q r+A.A.A.A.S ;.S F q+)@6+>@>@>@4.N+D+f ",
"!@!@!@:.E ^.w+, A.T+S+A.A.S+A.A.' 9+5.~@E.@@U M n f A.'@'@S+S+S+S+S+r+K+=.N.'@A.A.r+r+r+=.r+=.A.=.=.=.=.A.A.>.{@f p+]@!@!@!@!@:.E T ",
"n n n u u g.i++ A.A.A.7 A.A.7 7 , W ^@m v ( 9.L +.( A.'@'@S+N.S+S+r+q q =.N.S+'@A.A.A.A.A.r+r+r+r+q K+q =.A.e ,.[.[ L u n n n n n n ",
"[ [ [ [ [ / B+; | ; ; ; ; ; ; ; ; 1 3+/ ( }.: < ( r+S+N.S+S+N.#+#+r+K+=.#+N.'@A.>+/@c !@A.A.r+r+=.=.=.A.A.A.3 ( }.: l [ [ [ [ [ [ [ ",
"      * . h h h h ; _                   _ - | | | r+S+S+N.N.N.N.N.r+q =.N.'@A.(@s t u @.S ;.A.A.r+A.A.S+S+A.A.A.}.                  ",
"      = <+, , , , i h                 * _@+ , , r+N.S+S+S+S+N.N.r+q q r+S+A. .X.Q+2 f u S ;.S |.A.A.T+`+`+T+S+A.:                   ",
"  g < h.p :@{ ~ B + R.m.( 3 [ D.3+1 ; h x Y ' A.=.'@N.N.S+'@'@S+r+K+r+S+A.n.L [ }.  [.+.u 2+T F S A.A.`+S+`+A.S+A.3 3 3 3 [ [ < :   ",
"  / ).e ]@{+{+Q I+; = Y+$.e u z+^@s., , A $ Q.A.A.=.=.'@'@'@'@r+q =.r+'@A.'.[ [.    }./ [ [ f n >.;.A.T+A.A.`+A.A.n n n n n n ).<   ",
"  < m T ~+~+M !+$.3 l 9.m 2+G 5+,@<@!.8 B O O A.A.A.=.=.A.A.A.=.A.=.A.A.1 . . . . - . _     : $.u T T A.u m A.S+A.|.>.S S [@a.e.}@. ",
"  : 3 H n.F L v U n n e H +.u |.|@V &.j.^@Q -@A.S+S+A.A.A.A.=.A.A.A.S+S+A.A.7 7 7 7 x h *     / 7.'.'.'.f ).L A.$.L F k+S :.m+3.c++ ",
"  w ( f e n +.7.g.d :.]@h+}@(+^.(+P.1@  '.!+A.S+S+S+S+S+S+S+N.S+S+N.N.S+S+A.A.A.O O 3.2@[.:             : f e U '.+.n T :./+3@$ $ $ ",
"  < +.8.+.v U Z+o+4@.@4.5@J t.C t.x &.5 < '.A.N.N.N.S+S+S+N.N.A.N.N.S+S+N.N.#+N.A.A. .d.m [ }.{.{.{.{.{.  ( f ).L U ,.h+q.~ 6@' ' # ",
"= h.m z+D+2 |@~@4.^+$ ^+>+I.O O I.k.l.~.[.}.A.S+S+N.N.S+N.S+N.A.N.S+S+N.N.N.N.#+N.S+A.S F ).l / / / / :   _ _ C+N |@(.j K 7@$ ) F+K ",
"i C./.D+7+P+C C %@$ 4+^+4.8@9@D 0@9@a@m f A.S+N.N.N.S+S+S+'@A.S+S+S+S+S+S+N.#+#+#+N.S+A.S T e L e e 8.'.}.R.x t.P u.W !.@ Q.# K F.> ",
"z , > h X Y ) ) $ z 9+{ 9@5+b@~+~+~+>.F A.S+N.#+#+N.S+S+S+'@A.A.S+S+N.N.N.N.N.#+#+N.S+A.|.F G F M F F L D.Z k.I.I.++s+Z.A A A i ; 5 ",
"' Y r r 9 Q.4+4+4+9+4.9@].S k+k+k+k+k+S A.S+N.#+#+N.N.S+S+A.f+l.A.A.S+S+N.N.N.#+#+#+S+A.).n.G u U u G M e O.9@c@8@1.z.j j j w.h 4   ",
"F+G.H.! >+>+>+>+>+d@8@E ~+>.G F |.F F |.A.N.#+#+#+#+N.S+A.A.!+7.7.z+A.A.S+S+N.N.N.N.S+A.K.o 0+$@h.,.T |.M T T T u g.~.m.Y+Y+Y+Y+[.[.",
"j z.1./+/+/+/+/+/+e@e.m n.F n H v +.+.+.=.N.#+#+#+#+N.S+A.k+@.n U A.'@'@A.A.'@N.N.S+A.:+F.f@4@g@h@,+p++.+.+.+.H +.S.: < +.L L 8.8.8.",
"Y+a+R+T e+[@[@[@F R ,.3 L M ).( w w }.r+'@N.#+#+#+#+N.S+A.F F M L A.S+'@S+S+N.N.S+A.9 z Y G.A+>+(@l.~.( : g g g g : [.f n F F F M M ",
"L U o.e F k+k+k+k+F $./ U M ).: {.5 | r+S+S+N.#+#+N.'@A.H +.H H f A.A.N.S+S+S+A.A.A $ `.@ r i@w+M+j@E.[   k@{.k@  l +.U U n G F e H ",
"<.R+[ [ e F ~+F ~+T f / ).u $.m._ = 6 r+S+'@S+N.N.N.'@A.: : : : A.A.=.A.N.S+S+A.Y $ $ z K '+2 g.5+~+M m < : : }.}.7.0+g.i.%.0+0+[ : ",
"l@O+(.: '.+.).).o.+.l : 9.,.X.'+<+F., r+S+S+'@S+S+'@A.m.{.{.{.{.A.A.A.=.A.A.A.A # Q.) , '+/.m M S k+S T U ).+.[ w b.1.w+W.m@H+^@(.  ",
"H.P+Q+: ( ( Y+3+3+3+m.* m.} & A Y Y ) r+N.N.S+'@S+'@A.3 : : g   A.A.A.A.=.A.A % Y Y !.'+2 H T F ~+>.S >.F ~+|.8./ V 2.! H.H.B s 1   ",
"x z.C+H ).%.I 6 n@o@<+<+<+x p@[+`.Q.Q.r+S+N.S+'@'@'@A.L ).H f : (.=.A.=.A.A.x n@n@x '+x.+.U m ).8.T S k+k+k+S M m _.l+/@/@/@/@1.(.  ",
"_ ~.m M |.d.w+8 K A+A+A+A+A+G.9+6@^+r+N.S+S+N.S+'@'@A.M M M L [ [ A.=.A.=.=.A.J+J+B+~.m u ).l : / ).5+F [@[@[@F M T <.E E <.E Z+/   ",
"  ( $.L L .. +s P U+v+U+U+U+v+v+v+a r+S+S+N.S+S+'@'@A.L L L U ).).A.A.A.=.=.=.A.+.+.U n.G u +.< w x.,@/+/+q@/+Q r@U U U U L L v (   ",
"  }.: [.( Y+m.K.b+].E ].].].<.<.0.].A.A.N.S+S+S+A.A.[.Y+Y+Y+7.0+L @@A.A.T+=.T+A.M M M F ~+F q+f J+'+B >+>+%@s@u+h.< < < < / ( : }.  ",
"    {.{.{.{.{.: f L L L L n |.S k+S u A.A.A.A.A.A.g = &.j w.l.M+` K.{.A.A.A.A.L L L L L R+a@8@^ '+, $ 4+$ ++.@+@p+$.,.$.,.[ g {.{.  ",
"5     }.}.}.}.g ( < < / ( D.m F S >.F A.=.q =.=.A.Y+&.7 A A s+B r.t@}.w : ( / / ( [.[.[.K.J.B s+A 9 ) $ 9+4@u@T 5+M M M n.U l }.}.}.",
"> V D+,.$.,.,.,.,.f f [ } j./.m e L e A.A.=.=.A.A.Z ;+Y `.Q.v@w@|+(+,.$.,.f [ : * | &+w.<+!.[+4+$ Z.J r.q.e@R+n.S -.S F n U +.f f f ",
"K g@ .T M n.n.T T n.M 0+x@s.7+~.< / A.=.A.A.A.=.A.X % ) $ ) :@9@].T T n.n.M n '._ & 8 K K % ) 7@% x 1 (+d.g.7.).|.S >.n f f n M M M ",
"+ J._.e n e e e e n F e+y@H+6.[ <   A.A.=.=.A.=.A.9 9 , 2.z@A@O.j+n e e u F F L %.1..@B@.@.@.@.@5.2@}.'.L U $.+.L e e $.( '.n.k+k+;.",
". _ Y+< l < < < < '.#.F C@a.E u v 3+A.A.A.A.A.=.A.Y 7 *./.O.Z+7.< < < < f u G F R D@:.:.:.:.:.:.d.E@Y+: l +.n U [ < < : }.7.u S S S ",
"                {.: ,.e n u F F U w A.=.A.A.=.=.A.+ j _ 3 U )./         ( +.n n n n n n n n n n #.f g {.}.'.U $.:     4 ; ^ F@b b b ",
"                  }.[.l l '.e M ).Y+A.A.=.=.=.A.A.. k m.: < / w         }.( l l l l l l l l l 3 l [.      : < ( }.    | i L.O ~ ~ ~ ",
"                          : ,.L f g A.T+A.A.A.S+A.                      * . h h h h h h h h h h | = m.                ; x , , 7 7 7 ",
"                            [.l [.}.A.A.T+`+A.T+A.                      = F., !.y y y y y y y !.7 > *                 _ . ; | | | | ",
"                                      A.A.A.A.A.                        . X @ # $ $ $ $ $ $ $ # 9 6 _                               "};
