/* XPM */
static char * p_mov_right_5_xpm[] = {
"66 66 345 2",
"  	c #AA834B",
". 	c #A88047",
"+ 	c #A37A3D",
"@ 	c #9F7535",
"# 	c #9F7533",
"$ 	c #9F7534",
"% 	c #A07737",
"& 	c #A57D41",
"* 	c #A9824A",
"= 	c #A88148",
"- 	c #A88046",
"; 	c #A78046",
"> 	c #A67E43",
", 	c #A2793B",
"' 	c #9F7433",
") 	c #A07635",
"! 	c #A27B3A",
"~ 	c #A47E3D",
"{ 	c #A57F3D",
"] 	c #A6803F",
"^ 	c #A98446",
"/ 	c #AC874C",
"( 	c #AC864C",
"_ 	c #A98249",
": 	c #AB854C",
"< 	c #AC874D",
"[ 	c #AD894D",
"} 	c #A98348",
"| 	c #A77F46",
"1 	c #A88147",
"2 	c #AB854A",
"3 	c #AD884D",
"4 	c #A98149",
"5 	c #AA824A",
"6 	c #A57C41",
"7 	c #A2793C",
"8 	c #A2793A",
"9 	c #A07637",
"0 	c #A17938",
"a 	c #A98543",
"b 	c #AE8E4A",
"c 	c #AF8F4C",
"d 	c #B1914E",
"e 	c #B19150",
"f 	c #AE8B4E",
"g 	c #AB844C",
"h 	c #A77F45",
"i 	c #A37B3E",
"j 	c #A57D42",
"k 	c #A98148",
"l 	c #AC884D",
"m 	c #B08F4F",
"n 	c #B29251",
"o 	c #AF8D4D",
"p 	c #A78243",
"q 	c #A2783B",
"r 	c #A57E40",
"s 	c #AC894A",
"t 	c #B29351",
"u 	c #AF8C4F",
"v 	c #AB844B",
"w 	c #A47B3F",
"x 	c #A2783A",
"y 	c #9F7635",
"z 	c #A17738",
"A 	c #A37B3B",
"B 	c #A68140",
"C 	c #AD8B49",
"D 	c #B29350",
"E 	c #B49652",
"F 	c #B49753",
"G 	c #AF8E4F",
"H 	c #A88246",
"I 	c #A37B3D",
"J 	c #A17839",
"K 	c #B19050",
"L 	c #B39552",
"M 	c #B08F4D",
"N 	c #A98544",
"O 	c #A57E3D",
"P 	c #A47D3C",
"Q 	c #A78241",
"R 	c #AD8C4A",
"S 	c #B29451",
"T 	c #B59853",
"U 	c #B39451",
"V 	c #B08F50",
"W 	c #A88146",
"X 	c #A47B3E",
"Y 	c #A37A3C",
"Z 	c #A07636",
"` 	c #A88145",
" .	c #AC8949",
"..	c #AE8D4B",
"+.	c #AE8C4D",
"@.	c #AF8D4F",
"#.	c #B49653",
"$.	c #B19151",
"%.	c #AF8C4E",
"&.	c #AD8A4C",
"*.	c #A67E44",
"=.	c #A67F44",
"-.	c #B08E4F",
";.	c #AE8B4D",
">.	c #AE8E4B",
",.	c #B69953",
"'.	c #B59953",
").	c #B59753",
"!.	c #AE8C4E",
"~.	c #AE8A4E",
"{.	c #A1783A",
"].	c #AB864B",
"^.	c #AA824B",
"/.	c #B2934F",
"(.	c #AF8F4D",
"_.	c #AB874A",
":.	c #AA8449",
"<.	c #AD8B4B",
"[.	c #B1924E",
"}.	c #B29450",
"|.	c #AB864C",
"1.	c #AA844B",
"2.	c #B49552",
"3.	c #AA8646",
"4.	c #A47D3E",
"5.	c #A57F3F",
"6.	c #A78240",
"7.	c #A88342",
"8.	c #AB8748",
"9.	c #AD8A4D",
"0.	c #B09050",
"a.	c #AD8A4E",
"b.	c #B39450",
"c.	c #B1924F",
"d.	c #AA8549",
"e.	c #AD894B",
"f.	c #B0904E",
"g.	c #AE8C4C",
"h.	c #A88149",
"i.	c #AF8E4E",
"j.	c #AB864A",
"k.	c #AC874B",
"l.	c #B0904F",
"m.	c #AB874B",
"n.	c #AC884C",
"o.	c #A78045",
"p.	c #A47D3D",
"q.	c #A78144",
"r.	c #AA834A",
"s.	c #B39452",
"t.	c #B08E50",
"u.	c #AB8849",
"v.	c #A88443",
"w.	c #A57F40",
"x.	c #A47C3E",
"y.	c #A57E3F",
"z.	c #A68040",
"A.	c #A47C3F",
"B.	c #A57D43",
"C.	c #AB8649",
"D.	c #A67F42",
"E.	c #A78043",
"F.	c #AC884B",
"G.	c #AC874A",
"H.	c #A67F43",
"I.	c #9E7433",
"J.	c #A3793D",
"K.	c #AC8A49",
"L.	c #AF8D4E",
"M.	c #A47C40",
"N.	c #A17838",
"O.	c #A27A3A",
"P.	c #A37C3B",
"Q.	c #A68042",
"R.	c #AA854A",
"S.	c #A27A3B",
"T.	c #A77F44",
"U.	c #AA844A",
"V.	c #B19250",
"W.	c #AF8E4D",
"X.	c #A98248",
"Y.	c #A67E45",
"Z.	c #AD894E",
"`.	c #AC894C",
" +	c #A88144",
".+	c #A88245",
"++	c #A57E41",
"@+	c #AA8548",
"#+	c #A98447",
"$+	c #A17739",
"%+	c #9E7432",
"&+	c #A88345",
"*+	c #AC8947",
"=+	c #A37B3A",
"-+	c #AB8749",
";+	c #A67E41",
">+	c #A67D43",
",+	c #A98545",
"'+	c #A78242",
")+	c #A57D3F",
"!+	c #A37A3E",
"~+	c #A27A39",
"{+	c #A98347",
"]+	c #A67E42",
"^+	c #A27A3C",
"/+	c #B49752",
"(+	c #AF8F4B",
"_+	c #A88247",
":+	c #A98247",
"<+	c #A27939",
"[+	c #B39652",
"}+	c #A07736",
"|+	c #AC8A47",
"1+	c #AD8A4B",
"2+	c #A57E3E",
"3+	c #A37B3F",
"4+	c #A47C41",
"5+	c #9F7434",
"6+	c #AE8D4A",
"7+	c #AA8645",
"8+	c #A68043",
"9+	c #AE8B4C",
"0+	c #A98346",
"a+	c #AB8846",
"b+	c #A88244",
"c+	c #B39351",
"d+	c #9E7332",
"e+	c #B39551",
"f+	c #A88543",
"g+	c #A78044",
"h+	c #A57E42",
"i+	c #A17837",
"j+	c #B1914F",
"k+	c #AD894C",
"l+	c #AD884C",
"m+	c #080808",
"n+	c #AE8D4D",
"o+	c #A37C3D",
"p+	c #A27938",
"q+	c #B39651",
"r+	c #AA8746",
"s+	c #A78042",
"t+	c #AC884A",
"u+	c #A88344",
"v+	c #B29151",
"w+	c #B69954",
"x+	c #AA834C",
"y+	c #A98645",
"z+	c #AA8745",
"A+	c #AB8946",
"B+	c #AB8947",
"C+	c #B29250",
"D+	c #AB854B",
"E+	c #A37B3C",
"F+	c #EF7B00",
"G+	c #CE3900",
"H+	c #A17939",
"I+	c #A78143",
"J+	c #A98644",
"K+	c #A88343",
"L+	c #AD8B4C",
"M+	c #EFEF00",
"N+	c #AD8B4A",
"O+	c #B1904F",
"P+	c #A98349",
"Q+	c #A9834A",
"R+	c #AC894B",
"S+	c #AB8747",
"T+	c #A07738",
"U+	c #A68041",
"V+	c #AA8547",
"W+	c #AA8349",
"X+	c #AB8847",
"Y+	c #A98444",
"Z+	c #AA8747",
"`+	c #A47D3F",
" @	c #4A4A4A",
".@	c #6B7B7B",
"+@	c #292929",
"@@	c #A98643",
"#@	c #A98546",
"$@	c #B08F4E",
"%@	c #A57C40",
"&@	c #AE8A4D",
"*@	c #B0914E",
"=@	c #AC8948",
"-@	c #AB8948",
";@	c #EFDEBD",
">@	c #A37C3C",
",@	c #AA8448",
"'@	c #A67F41",
")@	c #BD6B39",
"!@	c #A27B39",
"~@	c #A6813F",
"{@	c #A78341",
"]@	c #A78340",
"^@	c #8C1800",
"/@	c #A07837",
"(@	c #AF8E4B",
"_@	c #181818",
":@	c #0018EF",
"<@	c #AD8A4A",
"[@	c #A68240",
"}@	c #DEAD7B",
"|@	c #AD8C4B",
"1@	c #B0914D",
"2@	c #B19251",
"3@	c #B0904D",
"4@	c #AA8647",
"5@	c #6B0000",
"6@	c #A57F3E",
"7@	c #B49651",
"8@	c #AE8D4C",
"9@	c #A37D3B",
"0@	c #A88442",
"a@	c #A57D3E",
"b@	c #AD8D49",
"c@	c #A07836",
"d@	c #B59752",
"e@	c #9F7634",
"f@	c #AF8E4C",
"g@	c #AD8C49",
"h@	c #AC8B48",
"i@	c #AC8A48",
"j@	c #A67F40",
"k@	c #A57D40",
"l@	c #AE8C4F",
"m@	c #AE8C4B",
"n@	c #A9824B",
"o@	c #AA8845",
"p@	c #A47B40",
"q@	c #A47B41",
"r@	c #A1773A",
"s@	c #AA8744",
"t@	c #AB8A47",
"u@	c #B08E4E",
"v@	c #AB8848",
"w@	c #B0904C",
"x@	c #A17937",
"y@	c #A5803E",
"z@	c #AE8D49",
"A@	c #A78140",
"B@	c #AA8846",
"C@	c #B39550",
"D@	c #AC8B49",
"          . + @ # $ $ $ # % & *                                                                                                     ",
"  * = - ; > , $ ' ) ! ~ { ] ^ / (           _ . ; ; = *     : < [ [ [ [ / } ; | 1 2 3 [ 3 3 3 3 3 [ [ [ 3 (   4 . = 5               ",
"  = 6 7 7 8 9 $ ' 0 a b c c d e f g       5 h i , 7 j k     l m n n n n o p 7 q r s e t n n n n n n n t e u v h w j 4               ",
". > x $ $ y z 8 A B C D E F E t G [ l 3 3 / H I J , 6 =     3 K L F F L M N O P Q R S F T T T T T E U U t V [ W X 6 k               ",
"Y x Z # ' % w `  ...+.@.t #.$.%.G e n n n e &.H *.=.. *     : [ -.L L m ;...>.b ..+.@.t T ,.'.'.).n !.~.f -.K &.H . *               ",
"{.{.J J J + h ].-.e @.~.m n G ~.K E E L E E K ( ^.  v ( ( v g / f e e !.f K D /.(._.:.<.d [.[.}.t %.: : 3 G n @.: ^.  : / |.1.v ( < ",
"*.*.*.*.*.h 4 g 3 !.V K @.!.G e 2.).t -.n E e <   1.[ m @.< < G V @.@.V K G &.3.Q 4.X 5.6.6.7.8.[ < : 9.V m !.l g     3 -.@.( < -.e ",
". = _   : |.v 1.|.[ 0.n @.a.-.t b.c.<.d.e.f.g.:.h.  a.e i.j.k.l.m m.j.m K n.o.Y Z $ ) z 8 A p.q.r.  g !.e @.|.      1.9.e K ~.f e s.",
"i j = ( @.-.3 ( f V -.@.m K t.!.u.v.w.x.y.Q z.A.B.4 ( 9.C.D.E.F.G.H.D._.F.q.7 9 ' I.Z J.H.3.K._.  ^.  < ~.l   ^.      ( ~.G K K @.u ",
"@ , h / V K n.2 L.e &.2 L.e +.} M.N.y ) % J O.P.Q.R.< / H S.7 =.h i + T.h Y y $ @ Z , > U.L.V.@.< ( ( / < < ( 1._ _     v [ f.W.j.X.",
"I.{.Y.: Z.`. +D.C.&..+++@+&.#+w $+$ %+$ {.& &+*+..m K m 8.=+Z q w 6 6 w 7 9 I.I.Z + *.= v 3 u m K K K K K K m -+;+>+4     :.,+'+)+!+",
"~+4.{+( < :.x.8 ]+- M.^+]+W M.% $ $ y $+M.X.9.V.L /+T /+(+B 0 J A._+:+A.J <+<+N., *.*     : 3 -.U E /+E L E [+R ] ++X.  4 > , }+) ) ",
"|+R W.V V 1+2+Z {.3+4+6 M.!+$+5+%+@ , & ; r.< u n F ,.T }.6+7+8+H 9+;.0+E.7+a+b+=.=     : ~.V -.-.t F c+V n /+/.R u.U.. 6 q @ d+%+I.",
"U e+E F ).[.f+~+z ^+g+X.h+8 N.0 i+J 6 =     g / @.U F T T E j+k+[ K e 9.l+m j+k+r.5   * U.+.j+!.m+G t -.l %.U e+/.n+U.=.o+~+~+p+p+p+",
"G K E '.'.q+(+r+s+E.t++.@+D.u+r+u+> ; r.  g 3 @.t.-.v+E '.w+#.n V -.-.V V V u < g x+* h ++'+y+m+m+l m+3 g < !.<.a+'+r Q.z+A+A+A+B+B+",
"/ f n E T T /+D ;./ -.C+!.k.L.j++.U.*   * r.&.j+i.k.9.t E E E L e [ [ K e ~.D+r._ _ m+m+m+i+E+m+F+m+G+m+1.m+1.o.I H+! v.(.e+e+e+U }.",
"-.-.-.K L T w+).t V -.-.m V V -.Z.: x+  . ]+I+J+K+++H L+-.-.-.-.f ( ( f u < _ Y.6 6 w m+m+m+m+G+M+m+F+M+m+F+m+| j Q.7+N+i.t ).#.v+V ",
"}.O+9.[ e E F E E t f 3 -.n @.(   * * 4 j {.i+<+~+O.++P+: : : : v r.Q+r.U.r.- i % m+m+m+F+G+m+F+M+G+M+F+M+M+m+  r.R+f.W.F.9.V.e [ : ",
"A+S+:.: ~.-.m m V @.l : ~.@.Z.  | j & 6 , Z T+i U+N V+W+^.^.^.^.= *.6 4+6 6 X z # %+m+m+G+F+F+F+F+G+M+m+F+M+m+[ : d.X+Y+]+Q.,+Z+U.  ",
"O.`+_+: ( / ( |.|.:   r.U.1.1.k & J 9 % Z % !+1 &.j+l.l v v g   . A.<+ @ @.@.@.@m+m++@m+m+G+F+F+G+F+M+F+M+F+G+m+/ m+4.! O.O.A r 1   ",
"3+H.t+L.@.~.|.^.^.* h j 6 6 j M., $ %+$ z i *.r.u 2.L V @.m+m+m+m+m+ @+@+@m+m+m+m+m+m+G+F+M+M+F+F+F+M+M+M+G+M+m+m+m+z+a @@@@@@#@W+  ",
"k m.O+2.E n f g   _ & 8 J J J $+% Z @ % A.1 r.1.f U F E E m+m+m+m+m+m+m+m+.@+@+@+@m+G+m+m+m+G+F+F+F+F+M+M+F+M+m+F+m+D D }.}./.$@n.v ",
"  [ t T '.E e f ( r.^ 7.w.X !+i w w w %@#+&@Z.: 3 -.c+).w+'.L 0. @ @ @ @+@m+m+m+> +@m++@+@+@m+G+F+F+M+F+M+F+F+G+F+m+e s.).#.n V @.u ",
"  3 n ).T T E n ~./ L.*@&.P+= = = 1 . X.&.e L.D+  ].%.U /+).E L L +@+@+@e [ 1 w J m+m+m++@+@m+m+M+M+m++@+@+@F+G+F+m+/ @.U n f f e s.",
"  < @.n E T './+e -.U F n u < 1.= T.> T.#@=@3.g+j >+.+-@..l.e e e e l.>.=@.+M.$+m+G+G+m+m+m+m+F+M+F+m++@;@;@+@F+m+^.  3 -.u ( < @.e ",
"r.  D+&@n ).T F 2.L E F E t f r.j , z J O.P.A 8 {.8 O.>@Q.d.< < / / ,@'@P.O.J m+m+G+m+m+)@)@m+F+m+m+m++@.@;@;@+@m+    1.|.D+  1.|./ ",
"> >+>+H 9+K $.$.v+v+$.$.n l.F.=.7 ) I.$ !@~@{@{@{@{@]@Q b+_ ^.^.4 | m+m+m+m+m+m+m+m+m+)@^@^@F+m+^@.@m+m+.@.@.@+@m+j.o.>+>+>+*.| 4 ^.",
"8 x x A.{+/ l / / / / / < ].H.8 Z $ # /@{@(@[.[.[.[.[.[.o /   m+m+m+_@+@ @.@m+m+_@m+m+)@^@^@F+^@)@;@:@^@m+m++@m+t <@y.{.{.{.8 M.1   ",
"6.[@6.v.t+n.} =.*.*.*.*.*.B.7 @ I.y !@6.=@O+2.).E c+s.).m+m+m+_@_@_@+@ @ @ @.@+@_@_@m+m+)@m+^@}@}@;@:@)@^@m+m+m+C+|@f+[@[@[@6.Y+F.f ",
"1@1@1@[.D (.K+, {.{.{.{.x J % @ ' i+7.>.L.&@V L n f m+m+_@_@+@+@+@+@+@+@ @ @.@.@_@_@_@m+m+^@)@^@)@}@}@)@^@m+).2@f ;.3@1@1@1@1@[.D U ",
"n n n t t i.u++ 7 7 7 7 7 7 7 7 , X 4@m u ( a.m+m+m+_@_@_@_@_@_@+@+@+@+@+@ @ @.@m+_@m+m+m+m+^@^@^@}@;@;@^@m+e !.|.[ K t n n n n n n ",
"[ [ [ [ [ / P+; | ; ; ; ; ; ; ; ; 1 U./ ( m+m+_@_@_@_@+@ @ @ @+@+@+@+@+@+@+@m+m+m+m+_@+@m+m+m+)@)@)@}@m+m+[ 3 ( 1.: l [ [ [ [ [ [ [ ",
"      * . h h h h ; _             m+m+m+m+m+m+ @m++@+@+@+@+@+@_@_@m+m+_@_@_@+@ @ @ @_@m+m+m+m+m+m+m+m+m+1.|.3 / 1.                  ",
"      = 4+, , , , i h           m+m+)@}@)@^@m+m+ @_@_@_@_@_@m+m+m+5@5@m+m+m+m+_@+@+@ @.@m+m+T 2.t t n f |.~.K @.:                   ",
"  g < j.p 6@{ ~ A + Y.r.( 3 [ m+)@}@}@}@}@)@^@m+ @+@+@_@m+m+5@5@5@5@^@^@5@m+m+_@+@ @+@ @m+c+U E T T F e f @.e V ~.3 3 3 3 [ [ < :   ",
"  / -.e 3@(+(+R V+; = D+%.e t m+m+m+m+^@}@)@^@m+ @+@m+m+m+m+m+5@5@^@^@^@^@^@^@m+ @.@.@m+[ [ f n ).'.T E t -.f @.e n n n n n n -.<   ",
"  < m U /+/+L V.%.3 l a.m c+F e+m+)@;@;@}@}@m+m+m+m+m+_@_@_@_@_@_@_@_@m+^@^@^@m+.@^@5@m+    : %.t U U U t m ~.@.n 2.).T T 7@c.g.,@. ",
"  : 3 G s.E K u V n n e G @.t 2.8@m+^@^@^@_@m+m+m+f m+_@_@m+m+m+m+m+_@_@_@+@m+ @^@5@m+h *     / 9.~.~.~.f -.K m %.K E w+T [.z+5.o++ ",
"  v ( f e n @.9.i.d [.3@t+,@1+(.1+X.m+m+_@m+U t -.( m+m+m+5@5@5@5@5@m+m+m++@+@.@m+m+m+0+|.:             : f e V ~.@.n U [.|+9@$ $ $ ",
"  < @.0.@.u V $@B+0@{@6.a@I y.B y.w *.5 < ~.u f 3 g m+5@5@5@^@G+G+G+G+^@^@m+m+m+m+b@..f.m [ 1.^.^.^.^.^.  ( f -.K V !.t+v.~ c@' ' # ",
"= j.m O+F.2 8@>.6.}+m+m+m+m+P P P.p.q.].|.1.r.X.= m+m+5@5@5@^@^@G+F+F+F+F+G+^@^@m+/+d@T E -.l / / / / :   _ _ R+M 8@:.j J e@$ ) T+J ",
"i H._.F.g+`+B B !@m+_@ @ @+@m+C m+m+f@m f 1.h w + m+m+m+5@5@5@^@^@^@^@G+G+G+G+G+^@m+m+,.T U e K e e 0.~.1.Y.w y.Q z.X {.@ I.# J M.> ",
"y , > h Y Z ) ) $ m+ @+@+@_@_@m+5@5@m+m+K n.o.Y m+5@5@m+m+5@5@5@^@^@G+G+F+F+F+F+F+G+^@m+2.E F E L E E K n.` p.P.P.=+H+$+z z z i ; 5 ",
"' Z q q 9 I.d+d+m++@+@+@m++@+@m+^@5@G+m+m+m+t+m+5@5@5@5@m+m+5@5@5@5@^@^@G+G+F+F+F+F+F+^@m+s.F t V t F L e W.g@h@i@3.E.j j j B.h 4   ",
"T+N.O.! ~+~+~+m+_@+@+@_@m++@m+G+G+^@G+m+^@m+m+^@^@G+5@5@5@5@m+m+5@5@5@^@^@^@G+G+F+F+F+G+5@m+j+9+j.!.U 2.L U U U t i.].r.D+D+D+D+|.|.",
"j E.3.|+|+|+|+m++@+@+@_@_@m+m+G+G+G+G+^@G+5@m+^@G+^@^@5@5@5@5@m+m+m+m+5@5@5@^@^@G+G+G+^@5@m+0@j@k@{+;.@.@.@.@.G @.Z.: < @.K K 0.0.0.",
"D+k+l.U q+7@m++@+@_@+@_@m+m+m+G+^@G+G+G+G+^@m+G+G+^@5@5@5@5@m+m+K [ [ m+m+^@G+^@^@^@^@G+5@m+<+~+E+q.].( : g g g g : |.f n E E E L L ",
"K V t.e E w+m+ @^@_@_@_@m+L m+^@5@^@^@^@G+^@G+^@^@5@5@5@5@m+m+G f |.|.f l@m+^@m+m+^@G+G+^@m+%@K+X+m@L.[   n@^.n@  l @.V V n F E e G ",
"}.l.[ [ e E m++@)@_@m+m+-.t %.m+m+m+5@^@5@5@^@^@5@5@5@5@m+: : : 1.r._ r.r.Q+m+m+5@G+G+^@^@m+2 i.e+/+L m < : : 1.1.9.j+i.k.&.j+j+[ : ",
"o@Z+:.: ~.@.m++@+@)@m+: a.!.@+]+4+M.m+m+5@5@5@5@5@5@m+m+^.^.^.^.= >+p@p@M.M.m+5@G+G+^@^@^@m+m L T w+T U V -.@.[ v d.3.K+++'@N 4@:.  ",
"O.`+_+: ( ( D+m+m+m+r.* r.} & z Z Z ) $ m+m+m+m+m+m+l.3 : : g   1 A.<+J J $+m+5@^@^@^@G+^@m+U E /+).T ).E /+2.0./ W 4.! O.O.A r 1   ",
"w E.R+G -.&.H 6 p@q@4+4+4+w r@5+%+I.I.$ J w Y.r.u 2.2.K -.G f : :.3.v.'@M.w m+5@^@^@G+F+G+m+m -.0.U T w+w+w+T L m <.a+s@s@s@s@3.:.  ",
"_ ].m L 2.f.K+8 J <+<+<+<+<+N.i+c@}+}+% A.1 r.1.f U E L L L K [ [ l.$@k._ _ m+5@G+G+F+F+G+^@m+: / -.e+E 7@7@7@E L U }.D D }.D $@/   ",
"  ( %.K K +.&+r Q @@J+@@@@@@J+J+J+a U+& {+9.[ : < @.K K K K V -.-.V @.< |.~.m+5@F+F+G+G+^@^@m+< v C.=@|+|+t@|+R u@V V V V K K u (   ",
"  1.: |.( D+r.R.n+/.D /././.}.}.b./.+.j.;.n V / : |.|.D+D+D+9.j+K &@: 1.< V m+5@^@^@^@5@5@m+C+f W+]+A ~+~+!@>@I+j.< < < < / ( : 1.  ",
"    ^.^.^.^.^.: f K K K K n 2.T w+T t V n F s.-.[ g = *.j B.q.X+ .R.^.^.|.!.m+m+m+m+m+m+m+f@i@^ ]+, $ d+$ =+{@v@;.%.!.%.!.[ g ^.^.  ",
"5     1.1.1.1.g ( < < / ( n.m E T ).E L E F E U -.D+*.7 z z H+A w.:+1.v : ( / m++@m++@+@m+m+A H+z 9 ) $ i+0@w@U e+L L L s.V l 1.1.1.",
"> W F.!.%.!.!.!.!.f f [ } o._.m e K e e e e $.K &.` !+Z %+I.x@y@7+1+!.%.!.f [ m+m+m+m+m++@+@m+m+m+$+I w.v.K.l.s.T ,.T E n V @.f f f ",
"J j@..U L s.s.U U s.L j+y+x.g+].< / / / / ( / ].` Y % ) $ ) 6@g@/.U U s.s.L n m+m+m++@+@m+m++@ @+@m+m+1+f.i.9.-.2.T ).n f f n L L L ",
"+ Q.<.e n e e e e n E q+z@N 8.[ <   . *.>+>+*.>+!+9 9 , 4.A@B@W.v+n e e t E E m+m++@+@+@+@+@m+)@}@m+}@m+K V %.@.K e e %.( ~.s.w+w+'.",
". _ D+< l < < < < ~.$.E C@c.D t u U.>+7 J x x {.% Z 7 =._.W.$@9.< < < < f t F m+m+_@_@_@_@_@+@+@+@+@+@m+l @.n V [ < < : 1.9.t T T T ",
"                ^.: !.e n t E E V v *.X 4.] 6@I 7 + j _ 3 V -./         ( @.n n m+m+m+m+m+m+m+m+m+m+m+m+1.~.V %.:     4 ; ^ D@b b b ",
"                  1.|.l l ~.e L -.D+h.= t+f@<.} ; . k r.: < / v         1.( l l l l l l l l l 3 l |.      : < ( 1.    | i S.P ~ ~ ~ ",
"                          : !.K f g ^.v ~.K @.|.                        * . h h h h h h h h h h | = r.                ; w , , 7 7 7 ",
"                            |.l |.1.    |.l / v                         = M., {.x x x x x x x {.7 > *                 _ . ; | | | | ",
"                                                                        . Y @ # $ $ $ $ $ $ $ # 9 6 _                               "};
