/* XPM */
static char * p_mov_left_1_xpm[] = {
"66 66 350 2",
"  	c #AA834B",
". 	c #A88047",
"+ 	c #A37A3D",
"@ 	c #9F7535",
"# 	c #9F7533",
"$ 	c #9F7534",
"% 	c #A07737",
"& 	c #A57D41",
"* 	c #A9824A",
"= 	c #A88148",
"- 	c #A88046",
"; 	c #A78046",
"> 	c #A67E43",
", 	c #A2793B",
"' 	c #9F7433",
") 	c #A07635",
"! 	c #A27B3A",
"~ 	c #A47E3D",
"{ 	c #A57F3D",
"] 	c #A6803F",
"^ 	c #A98446",
"/ 	c #AC874C",
"( 	c #AC864C",
"_ 	c #A98249",
": 	c #AB854C",
"< 	c #AC874D",
"[ 	c #AD894D",
"} 	c #A98348",
"| 	c #A77F46",
"1 	c #A88147",
"2 	c #AB854A",
"3 	c #AD884D",
"4 	c #A98149",
"5 	c #AA824A",
"6 	c #A57C41",
"7 	c #A2793C",
"8 	c #A2793A",
"9 	c #A07637",
"0 	c #A17938",
"a 	c #A98543",
"b 	c #AE8E4A",
"c 	c #AF8F4C",
"d 	c #B1914E",
"e 	c #B19150",
"f 	c #AE8B4E",
"g 	c #AB844C",
"h 	c #A77F45",
"i 	c #A37B3E",
"j 	c #A57D42",
"k 	c #A98148",
"l 	c #AC884D",
"m 	c #B08F4F",
"n 	c #B29251",
"o 	c #AF8D4D",
"p 	c #A78243",
"q 	c #A2783B",
"r 	c #A57E40",
"s 	c #AC894A",
"t 	c #B29351",
"u 	c #AF8C4F",
"v 	c #AB844B",
"w 	c #A47B3F",
"x 	c #A2783A",
"y 	c #9F7635",
"z 	c #A17738",
"A 	c #A37B3B",
"B 	c #A68140",
"C 	c #AD8B49",
"D 	c #B29350",
"E 	c #B49652",
"F 	c #B49753",
"G 	c #AF8E4F",
"H 	c #A88246",
"I 	c #A37B3D",
"J 	c #A17839",
"K 	c #B19050",
"L 	c #B39552",
"M 	c #B08F4D",
"N 	c #A98544",
"O 	c #A57E3D",
"P 	c #A47D3C",
"Q 	c #A78241",
"R 	c #AD8C4A",
"S 	c #B29451",
"T 	c #B59853",
"U 	c #B39451",
"V 	c #B08F50",
"W 	c #A88146",
"X 	c #A47B3E",
"Y 	c #A37A3C",
"Z 	c #A07636",
"` 	c #A88145",
" .	c #AC8949",
"..	c #AE8D4B",
"+.	c #AE8C4D",
"@.	c #AF8D4F",
"#.	c #B49653",
"$.	c #B19151",
"%.	c #AF8C4E",
"&.	c #AD8A4C",
"*.	c #A67E44",
"=.	c #A67F44",
"-.	c #B08E4F",
";.	c #AE8B4D",
">.	c #AE8E4B",
",.	c #B69953",
"'.	c #B59953",
").	c #B59753",
"!.	c #AE8C4E",
"~.	c #AE8A4E",
"{.	c #A1783A",
"].	c #AB864B",
"^.	c #AA824B",
"/.	c #B2934F",
"(.	c #AF8F4D",
"_.	c #AB874A",
":.	c #AA8449",
"<.	c #AD8B4B",
"[.	c #B1924E",
"}.	c #B29450",
"|.	c #AB864C",
"1.	c #AA844B",
"2.	c #B49552",
"3.	c #AA8646",
"4.	c #A47D3E",
"5.	c #A57F3F",
"6.	c #A78240",
"7.	c #A88342",
"8.	c #AB8748",
"9.	c #AD8A4D",
"0.	c #B09050",
"a.	c #AD8A4E",
"b.	c #B39450",
"c.	c #B1924F",
"d.	c #AA8549",
"e.	c #AD894B",
"f.	c #B0904E",
"g.	c #AE8C4C",
"h.	c #A88149",
"i.	c #AF8E4E",
"j.	c #AB864A",
"k.	c #AC874B",
"l.	c #B0904F",
"m.	c #AB874B",
"n.	c #AC884C",
"o.	c #A78045",
"p.	c #A47D3D",
"q.	c #A78144",
"r.	c #AA834A",
"s.	c #B39452",
"t.	c #B08E50",
"u.	c #AB8849",
"v.	c #A88443",
"w.	c #A57F40",
"x.	c #A47C3E",
"y.	c #A57E3F",
"z.	c #A68040",
"A.	c #A47C3F",
"B.	c #A57D43",
"C.	c #AB8649",
"D.	c #A67F42",
"E.	c #A78043",
"F.	c #AC884B",
"G.	c #AC874A",
"H.	c #A67F43",
"I.	c #9E7433",
"J.	c #A3793D",
"K.	c #AC8A49",
"L.	c #AF8D4E",
"M.	c #A47C40",
"N.	c #A17838",
"O.	c #A27A3A",
"P.	c #A37C3B",
"Q.	c #A68042",
"R.	c #AA854A",
"S.	c #A27A3B",
"T.	c #A77F44",
"U.	c #AA844A",
"V.	c #B19250",
"W.	c #AF8E4D",
"X.	c #A98248",
"Y.	c #A67E45",
"Z.	c #AD894E",
"`.	c #AC894C",
" +	c #A88144",
".+	c #A88245",
"++	c #A57E41",
"@+	c #AA8548",
"#+	c #A98447",
"$+	c #A17739",
"%+	c #9E7432",
"&+	c #A88345",
"*+	c #AC8947",
"=+	c #A37B3A",
"-+	c #AB8749",
";+	c #A67E41",
">+	c #A67D43",
",+	c #A98545",
"'+	c #A78242",
")+	c #A57D3F",
"!+	c #A37A3E",
"~+	c #A27A39",
"{+	c #A98347",
"]+	c #A67E42",
"^+	c #A27A3C",
"/+	c #B49752",
"(+	c #AF8F4B",
"_+	c #A88247",
":+	c #A98247",
"<+	c #A27939",
"[+	c #B39652",
"}+	c #A07736",
"|+	c #AC8A47",
"1+	c #AD8A4B",
"2+	c #A57E3E",
"3+	c #A37B3F",
"4+	c #A47C41",
"5+	c #9F7434",
"6+	c #AE8D4A",
"7+	c #AA8645",
"8+	c #A68043",
"9+	c #AE8B4C",
"0+	c #A98346",
"a+	c #AB8846",
"b+	c #A88244",
"c+	c #B39351",
"d+	c #9E7332",
"e+	c #B39551",
"f+	c #A88543",
"g+	c #A78044",
"h+	c #A57E42",
"i+	c #080808",
"j+	c #B1914F",
"k+	c #AD894C",
"l+	c #AD884C",
"m+	c #AE8D4D",
"n+	c #A37C3D",
"o+	c #A27938",
"p+	c #B39651",
"q+	c #AA8746",
"r+	c #A78042",
"s+	c #AC884A",
"t+	c #A88344",
"u+	c #CE3900",
"v+	c #EF7B00",
"w+	c #B29151",
"x+	c #B69954",
"y+	c #AA834C",
"z+	c #A98645",
"A+	c #AA8448",
"B+	c #AA8745",
"C+	c #AB8946",
"D+	c #AB8947",
"E+	c #B29250",
"F+	c #EFEF00",
"G+	c #AB854B",
"H+	c #A17837",
"I+	c #A37B3C",
"J+	c #A17939",
"K+	c #A98644",
"L+	c #A88343",
"M+	c #AD8B4C",
"N+	c #AA8649",
"O+	c #AD8B4A",
"P+	c #B1904F",
"Q+	c #A98349",
"R+	c #6B7B7B",
"S+	c #A9834A",
"T+	c #AC894B",
"U+	c #AB8747",
"V+	c #292929",
"W+	c #4A4A4A",
"X+	c #AB8847",
"Y+	c #A98444",
"Z+	c #AA8747",
"`+	c #A47D3F",
" @	c #AA8349",
".@	c #A98643",
"+@	c #A98546",
"@@	c #181818",
"#@	c #B08F4E",
"$@	c #AE8B4F",
"%@	c #AC864D",
"&@	c #EFDEBD",
"*@	c #BD6B39",
"=@	c #AB8948",
"-@	c #AC8948",
";@	c #A78341",
">@	c #A88442",
",@	c #A88341",
"'@	c #AB8848",
")@	c #AE8A4D",
"!@	c #8C1800",
"~@	c #A37C3C",
"{@	c #A67F41",
"]@	c #A98448",
"^@	c #B1934F",
"/@	c #B18F50",
"(@	c #B59854",
"_@	c #AF8E4C",
":@	c #AD8A4A",
"<@	c #A68240",
"[@	c #0018EF",
"}@	c #DEAD7B",
"|@	c #A98547",
"1@	c #AA8647",
"2@	c #AD8C4B",
"3@	c #B0914D",
"4@	c #6B0000",
"5@	c #B19251",
"6@	c #B0904D",
"7@	c #A67F45",
"8@	c #A57F3E",
"9@	c #AA8547",
"0@	c #A47C3D",
"a@	c #B49651",
"b@	c #AE8D4C",
"c@	c #AF8E4B",
"d@	c #A88048",
"e@	c #A37D3B",
"f@	c #A57D3E",
"g@	c #A07836",
"h@	c #9F7634",
"i@	c #A07738",
"j@	c #A27B39",
"k@	c #AC8A48",
"l@	c #AD8C49",
"m@	c #AD8B48",
"n@	c #B59752",
"o@	c #AE8C4B",
"p@	c #A9824B",
"q@	c #AA8845",
"r@	c #A47B40",
"s@	c #AA8744",
"t@	c #A68041",
"u@	c #AB8A47",
"v@	c #B08E4E",
"w@	c #A78143",
"x@	c #B0904C",
"y@	c #A17937",
"z@	c #A5803E",
"A@	c #A67F40",
"B@	c #AE8D49",
"C@	c #A78140",
"D@	c #AA8846",
"E@	c #A78340",
"F@	c #B39550",
"G@	c #B2924F",
"H@	c #AD8B4D",
"I@	c #AC8B49",
"          . + @ # $ $ $ # % & *                                                                                                     ",
"  * = - ; > , $ ' ) ! ~ { ] ^ / (           _ . ; ; = *     : < [ [ [ [ / } ; | 1 2 3 [ 3 3 3 3 3 [ [ [ 3 (   4 . = 5               ",
"  = 6 7 7 8 9 $ ' 0 a b c c d e f g       5 h i , 7 j k     l m n n n n o p 7 q r s e t n n n n n n n t e u v h w j 4               ",
". > x $ $ y z 8 A B C D E F E t G [ l 3 3 / H I J , 6 =     3 K L F F L M N O P Q R S F T T T T T E U U t V [ W X 6 k               ",
"Y x Z # ' % w `  ...+.@.t #.$.%.G e n n n e &.H *.=.. *     : [ -.L L m ;...>.b ..+.@.t T ,.'.'.).n !.~.f -.K &.H . *               ",
"{.{.J J J + h ].-.e @.~.m n G ~.K E E L E E K ( ^.  v ( ( v g / f e e !.f K D /.(._.:.<.d [.[.}.t %.: : 3 G n @.: ^.  : / |.1.v ( < ",
"*.*.*.*.*.h 4 g 3 !.V K @.!.G e 2.).t -.n E e <   1.[ m @.< < G V @.@.V K G &.3.Q 4.X 5.6.6.7.8.[ < : 9.V m !.l g     3 -.@.( < -.e ",
". = _   : |.v 1.|.[ 0.n @.a.-.t b.c.<.d.e.f.g.:.h.  a.e i.j.k.l.m m.j.m K n.o.Y Z $ ) z 8 A p.q.r.  g !.e @.|.      1.9.e K ~.f e s.",
"i j = ( @.-.3 ( f V -.@.m K t.!.u.v.w.x.y.Q z.A.B.4 ( 9.C.D.E.F.G.H.D._.F.q.7 9 ' I.Z J.H.3.K._.  ^.  < ~.l   ^.      ( ~.G K K @.u ",
"@ , h / V K n.2 L.e &.2 L.e +.} M.N.y ) % J O.P.Q.R.< / H S.7 =.h i + T.h Y y $ @ Z , > U.L.V.@.< ( ( / < < ( 1._ _     v [ f.W.j.X.",
"I.{.Y.: Z.`. +D.C.&..+++@+&.#+w $+$ %+$ {.& &+*+..m K m 8.=+Z q w 6 6 w 7 9 I.I.Z + *.= v 3 u m K K K K K K m -+;+>+4     :.,+'+)+!+",
"~+4.{+( < :.x.8 ]+- M.^+]+W M.% $ $ y $+M.X.9.V.L /+T /+(+B 0 J A._+:+A.J <+<+N., *.*     : 3 -.U E /+E L E [+R ] ++X.  4 > , }+) ) ",
"|+R W.V V 1+2+Z {.3+4+6 M.!+$+5+%+@ , & ; r.< u n F ,.T }.6+7+8+H 9+;.0+E.7+a+b+=.=     : ~.V -.-.t F c+V n /+/.R u.U.. 6 q @ d+%+I.",
"U e+E F ).[.f+~+z ^+g+X.h+8 N.0 i+J i+i+    g / @.U F T T E j+k+[ K e 9.l+m j+k+r.5   * U.+.j+!./ G t -.l %.U e+/.m+U.=.n+~+~+o+o+o+",
"G K E '.'.p+(+q+r+E.s++.@+D.t+i+u+i+v+i+  g i+@.t.-.w+E '.x+#.n V -.-.V V V u < g y+* h ++'+z+A+  l f 3 g < !.<.a+'+r Q.B+C+C+C+D+D+",
"/ f n E T T /+D ;./ i+E+i+i+i+F+v+i+F+u+i+i+i+j+i.k.9.t E E E L e [ [ K e ~.G+r._ _ . w z H+I+g+1.( ( : 1.g 1.o.I J+! v.(.e+e+e+U }.",
"-.-.-.K L T x+).t i+F+i+i+v+i+v+F+u+F+v+u+u+i+K+L+++H M+-.-.-.-.f ( ( f u < _ Y.6 6 w J ) {.& N+L.-.@.[ 1.^.* | j Q.7+O+i.t ).#.w+V ",
"}.P+9.[ e E F E E i+F+u+i+F+v+i+F+u+v+v+v+v+i+<+~+O.++Q+: R+R+: v r.S+r.U.r.- i % Z Z Z J j R.-.L F L -./ g :   r.T+f.W.F.9.V.e [ : ",
"C+U+:.: ~.-.m m V i+F+u+v+F+v+F+v+u+v+v+u+i+i+V+V+W+W+R+R+V+i+i+W+W+6 4+6 6 X z # %+@ x ++C.-.s.T ,.T t m @.@.[ : d.X+Y+]+Q.,+Z+U.  ",
"O.`+_+: ( / ( |.|.i+v+F+u+F+F+F+v+v+v+F+F+v+u+u+i+V+i+i+i+i+i+i+i+V+<+J J J z 9 Z ) J j R.@.U E F ).T F E E L V / W 4.! O.O.A r 1   ",
"3+H.s+L.@.~.|.^.i+u+i+F+v+v+F+v+v+v+v+u+i+i+i+i+i+V+i+i+@.@.a.:  @i+i+i+i+i+w w M.w D._.@.V K K K s.T '.'.,.T s.m 1+B+a .@.@.@+@ @  ",
"k m.P+2.E n f g i+F+u+v+v+v+v+v+v+v+u+i+i+i+i+i+V+i+i+i+i+i+i+i+[ l.@@i+i+4 k = = . :.o e %.|.G+/ m E ).F ).F E L U D D }.}./.#@n.v ",
"  [ t T '.E e f i+v+F+v+F+F+v+v+i+i+i+V+i+V+i+i+V+-.c+V+i+i+i+i+i+i+#.$.$@%@r.; > B.E.3.X+&+j 6 > C.G K K K K K K K e s.).#.n V @.u ",
"  3 n ).T T E n i+u+v+V+V+R+F+v+i+i+i+i+i+i+i+i+i+].%.U /+).E L L /+/+L e [ 1 w J z J =+P.O.8 J Y g+].< ( ( ( ( ( ( / @.U n f f e s.",
"  < @.n E T './+e i+V+&@&@R+V+F+v+i+i+*@i+i+u+v+i+i+.+=@..l.e e e e l.>.-@.+M.$+) J i z.;@>@,@;@v.'@9.<   ^.^.^.^.^.  3 -.u ( < @.e ",
"r.  G+)@n ).T F 2.L i+&@R+R+V+i+i+i+*@!@*@i+u+u+v+@@i+~@i+i+i+i+/ / A+{@P.O.J Z J & ]@g.d /.^@^@/.b.t @.|.  1.1.1.    1.|.G+  1.|./ ",
"> >+>+H 9+K $.$.w+w+i+V+V+i+i+R+!@!@!@!@*@i+i+u+i+V+i+@@i+i+i+i+i+| j w x.] B `+++d.%./@n #.(@x+'.,.T n u f f f f j.o.>+>+>+*.| 4 ^.",
"8 x x A.{+/ l / / / / i+i+!@i+&@*@!@!@!@!@i+i+i+@@i+@@@@@@@@@@i+i+i+i+i+i+i+_@-+:.o e L.)@K /+T T T ).E L s.s.L t :@y.{.{.{.8 M.1   ",
"6.<@6.v.s+n.} =.*.*.*.*.i+!@[@}@}@*@*@!@!@i+i+i+R+R+W+W+@@@@@@@@i+i+i+i+i+i+i+i+i+i+i+|@` 1@..f.e n n L T '.T E E+2@f+<@<@<@6.Y+F.f ",
"3@3@3@[.D (.L+, {.{.{.{.i+!@&@}@*@!@!@!@i+@@@@R+R+W+W+V+V+i+i+@@4@4@i+i+i+i+i+i+!@}@}@i+, A 5.0+/ l [ K E '.).5@f ;.6@3@3@3@3@[.D U ",
"n n n t t i.t++ 7 7 7 7 7 i+!@}@*@*@i+i+i+@@@@R+R+W+W+V+V+V+@@i+i+i+4@4@i+i+i+!@!@!@i+i+i+] B .+* ^.1.~.e t e !.|.[ K t n n n n n n ",
"[ [ [ [ [ / Q+; | ; ; ; ; ; i+i+i+i+i+/ i+@@i+R+W+W+V+W+@@@@@@@@@@@@i+i+i+i+i+!@!@!@*@}@i+3@c k+1.^.  |.l [ 3 ( 1.: l [ [ [ [ [ [ [ ",
"      * . h h h h ; _                   _ i+i+i+W+W+V+V+W+W+W+W+V+V+@@@@@@@@@@i+*@!@i+i+T '.F K ~.[ [ |.1.|.3 / 1.                  ",
"      = 4+, , , , i h                 * 7@+ i+i+i+i+V+V+V+V+W+W+W+W+V+V+V+W+i+i+i+i+i+t T '.T 2.t t n f |.~.K @.:                   ",
"  g < j.p 8@{ ~ A + Y.r.( 3 [ n.U.1 ; h w Z i+V+V+i+i+i+i+i+@@@@@@@@@@@@W+i+i+!@*@i+i+i+t c+U E T T F e f @.e V ~.3 3 3 3 [ [ < :   ",
"  / -.e 6@(+(+R 9@; = G+%.e t P+1@x., , z $ I.i+V+@@i+i+4@i+@@@@@@@@W+W+i+i+!@*@*@}@&@&@i+[ f n ).'.T E t -.f @.e n n n n n n -.<   ",
"  < m U /+/+L V.%.3 l a.m c+F e+-@0@{.8 A P P { i+V+4@4@4@4@!@i+i+i+i+W+i+i+!@*@}@!@!@i+i+  : %.t U U U t m ~.@.n 2.).T T a@c.g.A+. ",
"  : 3 G s.E K u V n n e G @.t 2.b@W *.o.1@R c@>.b@i+@@4@u+!@!@!@!@i+@@W+i+i+i+*@}@}@&@*@i+    / 9.~.~.~.f -.K m %.K E x+T [.B+5.n++ ",
"  v ( f e n @.9.i.d [.6@s+A+1+(.1+X.d@  ~.V.U t -.( i+R+V+!@u+!@V+V+V+@@i+i+i+@@*@*@!@i+|.:             : f e V ~.@.n U [.|+e@$ $ $ ",
"  < @.0.@.u V #@D+>@;@6.f@I y.B y.w *.5 < ~.u f 3 i+i+i+R+W+W+W+V+@@@@@@@@i+i+i+@@i+i+f.m [ 1.^.^.i+i+i+i+( f -.K V !.s+v.~ g@' ' # ",
"= j.m P+F.2 b@>.6.}+$ }+~+P.P P P.p.q.].|.1.i+i+i+4@4@i+i+@@@@@@@@i+i+i+i+!@!@!@!@i+i+i+i+i+i+i+i+!@u+u+!@i+_ T+M b@:.j J h@$ ) i@J ",
"i H._.F.g+`+B B j@$ d+}+6.k@l@C m@l@_@m i+i+4@4@u+u+u+u+4@i+i+i+i+!@!@!@!@!@!@!@!@!@4@i+i+u+v+v+v+u+u+v+i+i+i+i+i+i+i+{.@ I.# J M.> ",
"y , > h Y Z ) ) $ y H+{ l@e+n@/+/+/+).i+i+4@4@4@4@4@4@4@4@i+4@4@4@!@!@u+u+!@!@!@!@!@4@i+v+v+v+v+v+v+u+u+i+*@@@i+@@V+V+i+z z z i ; 5 ",
"' Z q q 9 I.d+d+d+H+6.l@/.T x+x+x+x+i+i+4@!@!@!@!@!@!@!@!@!@!@i+4@4@4@!@!@u+u+u+u+u+u+u+u+u+u+u+u+u+v+u+i+}@V+i+V+i+V+@@i+j B.h 4   ",
"i@N.O.! ~+~+~+~+~+O k@D /+).F E i+i+i+!@u+u+u+u+u+u+u+4@4@4@4@i+i+4@4@4@4@4@!@u+u+u+u+u+u+u+u+!@!@!@u+!@i+i+@@i+@@i+@@V+i+G+G+G+|.|.",
"j E.3.|+|+|+|+|+|+K.g.m s.E i+i+!@!@u+u+u+u+u+4@!@!@!@!@4@4@4@4@i+i+i+i+4@4@4@4@!@!@u+u+u+u+!@!@!@!@!@4@i+i+i+@@i+i+i+V+i+K K 0.0.0.",
"G+k+l.U p+a@a@a@E S !.3 i+i+!@u+u+u+u+u+u+u+4@4@4@4@i+i+i+i+i+i+i+i+i+i+i+4@4@u+u+u+u+u+u+!@!@!@i+i+i+i+i+i+i+i+i+@@@@i+V+i+E E L L ",
"K V t.e E i+i+x+x+E %.i+!@u+u+u+u+u+u+u+u+!@4@i+i+i+` &.G @.G G f |.|.f i+i+4@4@4@u+u+u+!@i+i+i+i+o@L.[   p@^.i+V+V+@@i+V+i+F E e G ",
"}.l.[ [ i+}@i+i+i+i+i+i+i+i+!@u+u+u+u+!@!@!@i+i+<+O.++Q+: : : : 1.r._ r.r.S+i+i+i+i+i+i+i+i+2 i.e+/+L m < : : 1.i+V+@@!@i+i+j+j+[ : ",
"q@Z+:.: i+i+*@V+@@W+i+V+i+*@i+!@!@u+!@!@!@i+i+X r+K+1@r.^.^.^.^.= >+r@r@M.M.i z # I.) , ]+_.m L T x+T U V -.@.[ i+i+i+*@i+i+N 1@:.  ",
"O.`+_+: ( i+i+V+V+@@W+@@V+@@*@i+!@!@!@i+i+i+w 1 9.c.l.3 : : g   1 A.<+J J $+z % Z Z {.]+2 G U E /+).T ).E /+2.0.i+*@i+V+i+i+A r 1   ",
"w E.T+G -.&.i+i+i+V+@@W+@@V+@@i+i+!@i+i+J w Y.r.u 2.2.K -.G f : :.3.v.{@M.w w r@r@w ]+C.@.V m -.0.U T x+x+x+T L m i+i+i+i+s@s@3.:.  ",
"_ ].m L 2.f.L+i+i+@@@@@@V+@@i+i+i+i+}+% A.1 r.1.f U E L L L K [ [ l.#@k._ _  @ @ @Q+].m t -.l : / -.e+E a@a@a@E L U }.D D }.D #@/   ",
"  ( %.K K +.&+r Q i+i+@@@@V+i+K+K+a t@& {+9.[ : < @.K K K K V -.-.V @.< |.~.@.G @.@.V s.F t @.< v C.-@|+|+u@|+R v@V V V V K K u (   ",
"  1.: |.( G+r.R.m+/.i+i+i+i+i+}.b./.+.j.;.n V / : |.|.G+G+G+9.j+K )@: 1.< V s.L L L L E /+E E+f  @]+A ~+~+j@~@w@j.< < < < / ( : 1.  ",
"    ^.^.^.^.^.: f K K i+i+i+2.T x+T t V n F s.-.[ g = *.j B.q.X+ .R.^.^.|.!.K K K K K K l._@k@^ ]+, $ d+$ =+;@'@;.%.!.%.!.[ g ^.^.  ",
"5     1.1.1.1.g ( < < / ( n.m E T ).E L E F E U -.G+*.7 z z J+A w.:+1.v : ( / / ( |.|.|.R.Q.A J+z 9 ) $ H+>@x@U e+L L L s.V l 1.1.1.",
"> W F.!.%.!.!.!.!.f f [ } o._.m e K e e e e $.K &.` !+Z %+I.y@z@7+1+!.%.!.f [ : * | >+B.4+{.5+d+$ $+I w.v.K.l.s.T ,.T E n V @.f f f ",
"J A@..U L s.s.U U s.L j+z+x.g+].< / / / / ( / ].` Y % ) $ ) 8@l@/.U U s.s.L n ~._ & 8 J J % ) h@% w 1 1+f.i.9.-.2.T ).n f f n L L L ",
"+ Q.<.e n e e e e n E p+B@N 8.[ <   . *.>+>+*.>+!+9 9 , 4.C@D@W.w+n e e t E E K &.3.;@E@;@;@;@;@7.0+1.~.K V %.@.K e e %.( ~.s.x+x+'.",
". _ G+< l < < < < ~.$.E F@c.D t u U.>+7 J x x {.% Z 7 =._.W.#@9.< < < < f t F E S G@[.[.[.[.[.[.f.H@G+: l @.n V [ < < : 1.9.t T T T ",
"                ^.: !.e n t E E V v *.X 4.] 8@I 7 + j _ 3 V -./         ( @.n n n n n n n n n n $.f g ^.1.~.V %.:     4 ; ^ I@b b b ",
"                  1.|.l l ~.e L -.G+h.= s+_@<.} ; . k r.: < / v         1.( l l l l l l l l l 3 l |.      : < ( 1.    | i S.P ~ ~ ~ ",
"                          : !.K f g ^.v ~.K @.|.                        * . h h h h h h h h h h | = r.                ; w , , 7 7 7 ",
"                            |.l |.1.    |.l / v                         = M., {.x x x x x x x {.7 > *                 _ . ; | | | | ",
"                                                                        . Y @ # $ $ $ $ $ $ $ # 9 6 _                               "};
