/* XPM */
static char * p_mov_down_right_1_xpm[] = {
"66 66 346 2",
"  	c #AA834B",
". 	c #A88148",
"+ 	c #A47C41",
"@ 	c #A2793B",
"# 	c #A37B3E",
"$ 	c #A77F45",
"% 	c #A9824A",
"& 	c #A67F45",
"* 	c #A37A3D",
"= 	c #A2783B",
"- 	c #A57F40",
"; 	c #AC8947",
"> 	c #AF8F4C",
", 	c #B0904C",
"' 	c #AE8D4B",
") 	c #AA8548",
"! 	c #A88247",
"~ 	c #AB854A",
"{ 	c #AE8B4E",
"] 	c #B29351",
"^ 	c #B59853",
"/ 	c #B59953",
"( 	c #B49552",
"_ 	c #B29251",
": 	c #AB864C",
"< 	c #AE8A4E",
"[ 	c #B19050",
"} 	c #AF8D4F",
"| 	c #AB854C",
"1 	c #AB844C",
"2 	c #AC874D",
"3 	c #AB864A",
"4 	c #A78243",
"5 	c #A57F3E",
"6 	c #A57F3D",
"7 	c #A47E3D",
"8 	c #A37B3B",
"9 	c #A67E45",
"0 	c #AA834A",
"a 	c #AC864C",
"b 	c #AD884D",
"c 	c #AD894D",
"d 	c #AC884C",
"e 	c #AA844A",
"f 	c #A88147",
"g 	c #A78046",
"h 	c #A47B3F",
"i 	c #A07636",
"j 	c #9F7433",
"k 	c #9F7534",
"l 	c #A17938",
"m 	c #A47D3C",
"n 	c #A47D3D",
"o 	c #A37A3B",
"p 	c #A27A3B",
"q 	c #A88443",
"r 	c #AF8E4C",
"s 	c #B39452",
"t 	c #AA844B",
"u 	c #B39351",
"v 	c #B39451",
"w 	c #B49652",
"x 	c #B49753",
"y 	c #B19150",
"z 	c #B08F50",
"A 	c #AC874C",
"B 	c #B08E4F",
"C 	c #B0904D",
"D 	c #AF8F4B",
"E 	c #AD8C4A",
"F 	c #AA8547",
"G 	c #AB854B",
"H 	c #AF8C4E",
"I 	c #B1904F",
"J 	c #AA8647",
"K 	c #A47C3E",
"L 	c #A17738",
"M 	c #9E7433",
"N 	c #9F7634",
"O 	c #AC8B48",
"P 	c #AC8A49",
"Q 	c #A98346",
"R 	c #A98347",
"S 	c #AD8B4A",
"T 	c #AE8C4D",
"U 	c #4A4A4A",
"V 	c #B59753",
"W 	c #B08F4F",
"X 	c #B49752",
"Y 	c #B39552",
"Z 	c #B19250",
"` 	c #AC884D",
" .	c #AD8A4E",
"..	c #B39551",
"+.	c #AC8948",
"@.	c #A47C3D",
"#.	c #A1783A",
"$.	c #A2793A",
"%.	c #AA8745",
"&.	c #B0904E",
"*.	c #AF8D4D",
"=.	c #AE8D4C",
"-.	c #AA8649",
";.	c #A88047",
">.	c #A88046",
",.	c #A98249",
"'.	c #B49651",
").	c #B1924F",
"!.	c #AE8C4C",
"~.	c #AA8448",
"{.	c #AF8E4F",
"].	c #AF8C4F",
"^.	c #A88146",
"/.	c #A67E44",
"(.	c #A78045",
"_.	c #AF8E4B",
":.	c #AE8E4B",
"<.	c #A68040",
"[.	c #292929",
"}.	c #A2793C",
"|.	c #AD8A4D",
"1.	c #B69954",
"2.	c #B1924E",
"3.	c #A57F3F",
"4.	c #A37C3D",
"5.	c #AB844B",
"6.	c #AF8E4E",
"7.	c #B1914E",
"8.	c #AC884A",
"9.	c #AD8A4B",
"0.	c #AF8F4D",
"a.	c #A98248",
"b.	c #A88048",
"c.	c #9F7635",
"d.	c #AC8A47",
"e.	c #A37D3B",
"f.	c #B09050",
"g.	c #B08F4E",
"h.	c #AB8947",
"i.	c #A88442",
"j.	c #A78341",
"k.	c #A78240",
"l.	c #A57D3E",
"m.	c #A37B3D",
"n.	c #A57E3F",
"o.	c #A68140",
"p.	c #AA824A",
"q.	c #AD8C49",
"r.	c #AE8D4A",
"s.	c #AD8D49",
"t.	c #AA824B",
"u.	c #AE8C4E",
"v.	c #A07836",
"w.	c #9F7533",
"x.	c #AC884B",
"y.	c #A07736",
"z.	c #A27A39",
"A.	c #A37C3B",
"B.	c #A78144",
"C.	c #AB864B",
"D.	c #A67D43",
"E.	c #A07635",
"F.	c #B59752",
"G.	c #AC894B",
"H.	c #B08F4D",
"I.	c #AA8449",
"J.	c #A57D42",
"K.	c #A17839",
"L.	c #A07738",
"M.	c #A67F43",
"N.	c #AB874A",
"O.	c #A78044",
"P.	c #A47D3F",
"Q.	c #A27B39",
"R.	c #9E7332",
"S.	c #AC8A48",
"T.	c #AD8B49",
"U.	c #AD8B48",
"V.	c #A98644",
"W.	c #080808",
"X.	c #B69953",
"Y.	c #A78241",
"Z.	c #A47B3E",
"`.	c #9F7535",
" +	c #A47C40",
".+	c #A67E43",
"++	c #A37A3C",
"@+	c #A17837",
"#+	c #A27939",
"$+	c #A37B3A",
"%+	c #A27A3A",
"&+	c #CE3900",
"*+	c #A88145",
"=+	c #A17939",
"-+	c #A17739",
";+	c #A07637",
">+	c #B2934F",
",+	c #A88244",
"'+	c #AA8746",
")+	c #EFEF00",
"!+	c #EF7B00",
"~+	c #AF8E4D",
"{+	c #AA8646",
"]+	c #A78043",
"^+	c #A57D43",
"/+	c #A98149",
"(+	c #A17838",
"_+	c #A27B3A",
":+	c #A57E3D",
"<+	c #B29350",
"[+	c #AE8B4D",
"}+	c #B08E50",
"|+	c #B49653",
"1+	c #AD894E",
"2+	c #AD894C",
"3+	c #B0904F",
"4+	c #B39651",
"5+	c #B29451",
"6+	c #A98349",
"7+	c #AD8A4C",
"8+	c #B1914F",
"9+	c #AB874B",
"0+	c #A77F46",
"a+	c #A57C41",
"b+	c #A78142",
"c+	c #A98544",
"d+	c #A78242",
"e+	c #A57D41",
"f+	c #AB8847",
"g+	c #AE8C4B",
"h+	c #AF8D4E",
"i+	c #A9824B",
"j+	c #B29450",
"k+	c #A57E41",
"l+	c #181818",
"m+	c #AC874B",
"n+	c #AA8845",
"o+	c #AA8747",
"p+	c #A67E42",
"q+	c #A78042",
"r+	c #AA8549",
"s+	c #A88343",
"t+	c #A67F41",
"u+	c #A98348",
"v+	c #A07737",
"w+	c #A47D3E",
"x+	c #A57E40",
"y+	c #A88246",
"z+	c #A47B40",
"A+	c #A47B41",
"B+	c #A1773A",
"C+	c #9F7434",
"D+	c #9E7432",
"E+	c #6B7B7B",
"F+	c #EFDEBD",
"G+	c #AD8B4B",
"H+	c #AB8846",
"I+	c #AA8744",
"J+	c #A47C3F",
"K+	c #8C1800",
"L+	c #A88345",
"M+	c #A98643",
"N+	c #A98543",
"O+	c #A68041",
"P+	c #BD6B39",
"Q+	c #AB8649",
"R+	c #AB8A47",
"S+	c #B08E4E",
"T+	c #AA854A",
"U+	c #AE8D4D",
"V+	c #B39450",
"W+	c #0018EF",
"X+	c #AA8349",
"Y+	c #A37C3C",
"Z+	c #A78143",
"`+	c #DEAD7B",
" @	c #A98446",
".@	c #AB8848",
"+@	c #A67F40",
"@@	c #A68042",
"#@	c #A88342",
"$@	c #A2783A",
"%@	c #AD8B4D",
"&@	c #A6803F",
"*@	c #6B0000",
"=@	c #AC8B49",
"-@	c #AE8E4A",
";@	c #A88149",
">@	c #AC894A",
",@	c #A98148",
"'@	c #AC8949",
")@	c #B19151",
"!@	c #AB8748",
"~@	c #AD894B",
"{@	c #AB8849",
"]@	c #AC894C",
"^@	c #A88144",
"/@	c #A67F42",
"(@	c #A88245",
"_@	c #A98447",
":@	c #AB8749",
"<@	c #A67E41",
"[@	c #A98545",
"}@	c #A57D3F",
"|@	c #A37A3E",
"1@	c #A27A3C",
"2@	c #B39652",
"3@	c #A57E3E",
"4@	c #A37B3F",
"5@	c #AA8645",
"6@	c #A68043",
"7@	c #A88543",
"8@	c #A57E42",
"9@	c #A67F44",
"0@	c #A27938",
"a@	c #A88344",
"b@	c #AA834C",
"c@	c #A98645",
"d@	c #AB8946",
"e@	c #B29250",
"f@	c #A37B3C",
"g@	c #AD8B4C",
"h@	c #B29151",
"i@	c #AB8747",
"j@	c #A98444",
"k@	c #A98546",
"l@	c #B0914E",
"m@	c #A77F44",
"n@	c #AB8948",
"o@	c #A88341",
"p@	c #AE8A4D",
"q@	c #A98448",
"r@	c #B1934F",
"s@	c #AE8B4C",
"t@	c #A78340",
"u@	c #B18F50",
"v@	c #B59854",
"w@	c #AD8A4A",
"x@	c #A68240",
"y@	c #A98547",
"z@	c #AD8C4B",
"A@	c #B0914D",
"B@	c #B19251",
"C@	c #A6803E",
"D@	c #A6813F",
"E@	c #A5803E",
"      . + @ @ @ @ # $                 % & * @ @ @ @ @ @ @ @ @ @ = @ - ; > , ' ) ! ~ { ] ^ / ^ ( ] ] _ { : < [ } |                   ",
"  1 2 3 4 5 6 7 8 * 9 0 a b c d e f g $ h i j k l m 6 6 6 6 n o p n q r ] s [ c t   : } ] u v w ^ ^ x y { } y z < b b b b c c 2 |   ",
"  A B y C D D E F g . G H y ] I J K @ @ L k M N 5 O > D D D P Q R S r T < < U :     t A c c { _ V / ^ w ] B { } y _ _ _ _ _ _ B 2   ",
"  2 W v X X Y Z H b `  .W u x ..+.@.#.$.8 m m 6 %.&.v v v ] W A A *.=.-.f U U ;.;.>.;.,.    | H ] v v v ] W < } _ ( V ^ ^ '.).!.~.;.",
"  | b {.s w [ ].z _ _ y {.} ] ( =.^./.(.J E _.:.=.{ { { { { c | U U <.@.[.U U }.}.}.h $ %     A |.< < < { B [ W H [ w 1.^ 2.%.3.4.* ",
"  5.a { y _ } |.6.7.2.C 8.~.9.0.9.a.b.  < Z v ] B a     t   0 [.U U c.k [.U m m m m 3.Q : |             | { y z < } _ v 2.d.e.k k k ",
"  2 } f.} ].z g.h.i.j.k.l.m.n.o.n.h /.p.2 < ].{ b 1         ;.[.U U M M [.U q.r.r.s.' &.W c t t.t.t.t.t.  a { B [ z u.8.q 7 v.j j w.",
". 3 W I x.~ =.:.k.y.k y.z.A.m m A.n B.C.: t 0 a.. . . . . f D.[.U U E.z.[.U X ^ X X F.^ w B ` A A A A |   ,.,.G.H.=.I.J.K.N k E.L.K.",
"# M.N.x.O.P.o.o.Q.k R.y.k.S.q.T.U.q.r W { t $ h * * * * * * = [.U U Q.V.[.U ^ 1.W.W.1.X.^ v W.W.y y f.< t 9 h n.Y.<.Z.#.`.M w.K. +.+",
"c.@ .+$ ++i E.E.k c.@+6 q...F.X X X V w [ d (.++#+$+A.A.A.8 %+K.[.U k.' [.U V W.&+W.Y W.W.w &+W.Y w w [ d *+n A.A.$+=+-+L L L # g p.",
"j i = = ;+M R.R.R.@+k.q.>+^ 1.1.1.1.1.^ ( [ 8.(.,+h.O O O O '+B.[.U S W.W.W.W.W.&+)+W.!+W.!+)+W.z ] x Y y ~+q.O S.{+]+J.J.J.^+$ /+  ",
"L.(+%+_+z.z.z.z.z.:+S.<+X V x w ( w w ( ( v B d [+Z ..w X w Z |.[.U W.!+W.!+!+W.!+)+!+)+W.!+)+W.W.W.v ( Y v v v ] 6.C.0 G G G G : : ",
"J.]+{+d.d.d.d.d.d.P !.W s w _ {.].} } } } } z [ z }+_ x 1.1.|+_ [.U W.)+&+!+)+)+!+!+!+)+!+)+)+!+)+W.[+} } } } {.} 1+| 2 } [ [ f.f.f.",
"G 2+3+v 4+'.'.'.w 5+u.b [ Y B a 5.5.t 0 6+e 7+8+*.9+|._ w w w Y [ W.!+)+!+&+&+&+!+!+!+!+)+)+!+)+W.B.C.a | 1 1 1 1 | : { _ w w w Y Y ",
"[ z }+y w 1.1.1.1.w H A z Y B | t.p.0+a+h  +b+c+d+e+*+7+{.} {.{.{ [.W.!+&+&+&+!+)+)+!+!+)+)+)+W.f+g+h+c   i+t.i+  ` } z z _ x w y {.",
"j+3+c c y w X w X v { A B ] H 0 ,.. a+-+i i L #+#+%+k+6+| | | | t l+&+!+&+!+!+)+!+!+&+!+)+!+!+!+W.X Y W 2 | | t t |.8+6.m+7+8+8+c | ",
"n+o+I.| < } B B }+} ` |  .u.) p++  +@ c.M k L Z.q+V.J 0 t.t.t.t.. l+!+U l+l+)+!+&+!+&+!+!+&+!+)+W.W.W.v z B } c 5.r+{+s+k+t+c+J I.  ",
"%+P.! | a a G e e e 0 % 0 u+e+L i i E.k k v+h f |.).3+b | | 1   f l+&+l+U l+)+!+l+l+l+l+l+l+l+!+W.)+W.V w X ( f.A ^.w+_+%+%+8 x+f   ",
"h ]+G.{.B 7+y+a+z+A++ + + h B+C+D+M M k K.h 9 0 ].( ( [ B {.{ | I.l+l+l+U l+!+l+U E+E+F+F+E+U l+!+W.^ 1.1.1.^ Y W G+H+I+I+I+I+{+I.  ",
",.C.W Y ( &.s+$.K.#+#+#+#+#+(+@+v.y.y.v+J+f 0 t { v w Y Y Y [ c c l+l+K+l+l+l+l+U E+E+F+F+E+U l+W.B ..w '.'.'.w Y v j+<+<+j+<+g.A   ",
"  a H [ [ T L+x+Y.M+V.M+M+M+V.V.V.N+O+e+R |.l+l+l+l+l+l+l+l+l+l+l+l+l+P+[.&+K+P+l+l+l+l+l+l+l+l+5.Q++.d.d.R+d.E S+z z z z [ [ ].a   ",
"  t | : a G 0 T+U+>+<+>+>+>+j+j+V+>+T l+l+l+[.[.U E+E+E+U l+[.[.l+[.l+K+[.!+P+P+E+W+P+P+E+W+W.{ X+p+8 z.z.Q.Y+Z+3 2 2 2 2 A a | t   ",
"    t.t.t.t.t.| { [ [ [ [ _ ( ^ l+l+[.E+U U [.[.[.U U U U [.[.U l+l+l+l+l+&+K+K+F+W+`+`+F+W+W. @p+@ k R.k $+j..@[+H u.H u.c 1 t.t.  ",
"p.    t t t t 1 a 2 2 A l+l+[.[.l+[.[.[.l+l+l+[.[.[.[.[.[.l+[.U [.l+[.W.l+K+K+P+`+`+`+`+`+P+W.=+L ;+E.k @+i., v ..Y Y Y s z ` t t t ",
".+^.x.u.H u.u.u.u.{ { l+E+E+U U l+l+l+l+[.[.l+l+l+l+l+[.l+[.U U U [.l+W.W.W.K+K+K+P+`+`+P+K+l+R.k -+m.- q P 3+s ^ X.^ w _ z } { { { ",
"K.+@' v Y s s v v s l+U U W.l+l+[.l+l+l+l+l+l+l+l+l+l+l+l+[.[.[.U U U [.W.l+W.K+P+P+P+P+K+W.E.N v+h f 9.&.6.|.B ( ^ V _ { { _ Y Y Y ",
"* @@G+y _ y y y y _ W.W.W.`+K+K+l+l+l+W.D.D./.D.l+l+l+l+l+l+l+[.[.[.[.l+W.l+[.W.W.W.W.W.l+W.j.j.#@Q t < [ z H } [ y y H a < s 1.1./ ",
";.,.G 2 ` 2 2 2 2 W.F+`+P+W.W.W.l+l+D.}.K.$@$@#.v+l+l+l+l+W.W.W.W.W.l+[.U U [.W.[.W.W.l+[.W.W.W.&.%@G | ` } _ z c 2 2 | t |.] ^ ^ ^ ",
"                W.`+P+K+W.P+`+`+l+5./.Z.w+&@5 m.}.* W.W.*@*@*@*@*@*@l+U [.[.W.[.W.W.W.[.U [.U l+W.W.W.W.t < z H |     /+g  @=@-@-@-@",
"                W.P+K+W.W.K+W.W.B G ;@. 8.r G+u+g ;.W.*@*@K+K+K+K+K+l+E+[.&+*@W.W.l+l+l+[.l+[.W.[.[.[.[.W.W.2 a t     0+# p m 7 7 7 ",
"                W.W.W.  W.W.u.[ { 1 t.5.< [ } :     W.*@*@K+&+K+K+l+U U [.&+K+*@W.W.W.W.W.l+l+l+l+U E+U [.W.          g h @ @ }.}.}.",
"                            : ` : t     : ` A 5.  l+K+&+K+K+&+!+!+l+E+[.!+&+*@W.$@$@$@$@W.W.l+l+[.[.[.W.W.W.          ,.;.g 0+0+0+0+",
"                                                  l+K+K+&+&+&+&+&+l+U [.&+*@W.w.k k k k k k W.W.l+W.W.K+K+W.W.W.                    ",
"          ;.* `.w.k k k w.v+e+%                 l+&+K+K+K+K+&+&+l+U U l+K+W.                    W.W.P+`+`+P+K+W.                    ",
"  % . >.g .+@ k j E._+7 6 &@ @A a           ,.W.[.*@&+&+K+*@*@K+l+E+l+K+W.u+g 0+f ~ b c b b b b b W.W.`+K+`+W.K+W.. p.              ",
"  . a+}.}.$.;+k j l N+-@> > 7.y { 1       p.$ W.W.[.[.*@*@*@*@l+U [.l+*@W.4 }.= x+>@y ] _ _ _ _ _ _ W.P+W.W.`+W.W.J./+              ",
";..+$@k k c.L $.8 o.T.<+w x w ] {.c ` b b A y+W.W.W.[.[.W.W.W.[.W.[.W.W.H.c+:+m Y.E 5+x ^ ^ ^ ^ ^ w v W.] z W.K+W.a+,@              ",
"++$@i w.j v+h *+'@' T } ] |+)@H {.y _ _ _ y 7+W.K+K+W.W.W.W.[.W.W.W.K+K+W.W.:.-@' T } ] ^ X./ / V _ u.< { B [ W.y+;.%               ",
"#.#.K.K.K.* $ C.B y } < W _ {.< [ w w Y w w W.K+K+K+K+K+K+K+&+K+K+&+&+K+K+W.W.W.0.N.I.G+7.2.2.j+] H | | b {._ } | t.  | A : t 5.a 2 ",
"/././././.$ /+1 b u.z [ } u.{.y ( V ] B _ w W.&+&+&+K+K+K+&+&+W.&+&+K+K+&+&+!+&+W.W.Z.3.k.k.#@!@c 2 | |.z W u.` 1     b B } a 2 B y ",
";.. ,.  | : 5.t : c f._ }  .B ] V+).G+r+~@&.W.K+K+&+&+K+&+K+&+W.&+K+K+&+&+&+&+!+&+K+W.L $.8 n B.0   1 u.y } :       t |.y [ < { y s ",
"# J.. a } B b a { z B } W [ }+u.{@q - K n.W.K+&+&+&+K+K+K+*@W.K+K+K+K+K+K+&+!+!+!+&+K+W.M.{+P N.  t.  2 < `   t.      a < {.[ [ } ].",
"`.@ $ A z [ d ~ h+y 7+~ h+y T u+ +(+c.E.W.K+&+!+!+&+K+K+K+*@W.W.K+K+&+&+&+&+&+!+!+&+K+W.e h+Z } 2 a a A 2 2 a t ,.,.    5.c &.~+3 a.",
"M #.9 | 1+]@^@/@Q+7+(@k+) 7+_@h -+k D+k W.K+&+!+!+&+&+K+K+W.i = W.W.K+K+&+&+&+!+!+!+K+W.5.b ].W [ [ [ [ [ [ W :@<@D./+    I.[@d+}@|@",
"z.w+R a 2 I.K $.p+>. +1@p+^. +v+k k c.-+W.&+!+!+!+!+&+K+W.W.l K.J+! W.W.K+K+&+&+&+&+K+W.  | b B v w X w Y w 2@E &@k+a.  /+.+@ y.E.E.",
"d.E ~+z z 9.3@i #.4@+ a+ +|@-+C+D+`.@ e+[.&+!+!+!+!+&+K+W.r.5@6@y+W.*@*@W.W.*@&+&+K+W.  | < z B B ] x u z _ X >+E {@e ;.a+= `.R.D+M ",
"v ..w x V 2.7@z.L 1@O.a.8@$.(+l @+K.a+l+*@&+!+!+!+!+&+K+W.w 8+2+c W.K+*@K+K+&+&+K+W.  % e T 8+u.A {.] B ` H v ..>+U+e 9@4.z.z.0@0@0@",
"{.[ w / / 4+D '+q+]+8.T ) /@a@'+a@.+g l+K+K+&+!+!+&+*@W./ 1.|+_ z W.W.&+K+K+K+W.W.b@% $ k+d+c@~.  ` { b 1 2 u.G+H+d+x+@@%.d@d@d@h.h.",
"A { _ w ^ ^ X <+[+A B e@u.m+h+8+T e % l+K+*@K+&+&+&+*@W.w w w Y W.W.[.W.&+K+K+W.,.,.;.h L @+f@O.t a a | t 1 t (.m.=+_+q 0.......v j+",
"B B B [ Y ^ 1.V ] z B B W z z B 1+| b@l+K+K+*@K+K+*@W.g@B B B B W.W.W.[.W.W.W.9 a+a+h K.E.#.e+-.h+B } c t t.% 0+J.@@5@S 6.] V |+h@z ",
"j+I |.c y w x w w ] { b B _ } a   % % l+&+&+K+*@K+*@W.6+| | | | W.W.W.W.[.W.>.# v+i i i K.J.T+B Y x Y B A 1 |   0 G.&.~+x.|.Z y c | ",
"d@i@I.| < B W W z } ` | < } 1+  0+J.e+l+K+&+K+*@*@*@W.X+t.t.t.t.. [.W.[.W.W.Z.L w.D+`.$@k+Q+B s ^ X.^ ] W } } c | r+f+j@p+@@[@o+e   ",
"%+P.! | a A a : : |   0 e t t ,@e+K.l+&+K+K+&+K+*@*@W.` 5.5.1   ;.W.[.W.[.[.W.;+i E.K.J.T+} v w x V ^ x w w Y z A ^.w+_+%+%+8 x+f   ",
"4@M.8.h+} < : t.t.% $ J.a+a+J. +@ k l+K+K+&+K+K+*@*@W.z } }  .| X+W.W.W.[.[.[.W. +h /@N.} z [ [ [ s ^ / / X.^ s W 9.%.N+M+M+M+k@X+  ",
",@9+I ( w _ { 1   ,.e+$.K.K.K.-+v+i W.W.&+K+K+K+W.W.x w w ( y c c 3+W.W.P+[.P+W.. ;.I.*.y H : G A W w V x V x w Y v <+<+j+j+>+g.d 5.",
"  c ] ^ / w y { a 0  @#@- Z.|@# h h h W.W.W.W.W.W.B u V 1./ Y f.[ w |+W.W.W.W.g .+^+]+{+f+L+J.a+.+Q+{.[ [ [ [ [ [ [ y s V |+_ z } ].",
"  b _ V ^ ^ w _ < A h+l@7+6+. . . f ;.W.[.U [.[.W.C.H v X V w Y Y X X Y y c f h K.L K.$+A.%+$.K.++O.C.2 a a a a a a A } v _ { { y s ",
"  2 } _ w ^ / X y B v x _ ].2 t . m@.+W.W.[.[.W.W.D.(@n@' 3+y y y y 3+:.+.(@ +-+E.K.# <.j.i.o@j.q .@|.2   t.t.t.t.t.  b B ].a 2 } y ",
"0   G p@_ V ^ x ( Y w x w ] { 0 J.@ W.[.W.W.W.[.W.$.%+Y+@@r+2 2 A A ~.t+A.%+K.i K.e+q@!.7.>+r@r@>+V+] } :   t t t     t : G   t : A ",
".+D.D.y+s@[ )@)@h@h@)@)@_ 3+x.9@}.E.W.W.[.[.W.[.W.j.t@Y.,+,.t.t./+0+J.h K &@o.P.k+r+H u@_ |+v@1./ X.^ _ ].{ { { { 3 (.D.D.D./.0+/+t.",
"$.$@$@J+R A ` A A A A A 2 C.M.$.i k W.W.W.W.W.[.W.2.2.2.*.A     ;.h * .+I.=.r :@I.*.y h+p@[ X ^ ^ ^ V w Y s s Y ] w@n.#.#.#.$. +f   ",
"k.x@k.q 8.d u+9@/././././.^+}.`.M c.W.[.W.W.[.[.W.u s V s {.{ < Q+<@ +;.2 }+B Q+y+.@T.y@*+J ' &.y _ _ Y ^ / ^ w e@z@7@x@x@x@k.j@x.{ ",
"A@A@A@2.<+0.s+@ #.#.#.#.$@K.v+`.j @+W.W.[.[.[.W.W.{ B Y x Y v u W 3 . % 5.A T+k+p A.m 8 @ 8 3.Q A ` c [ w / V B@{ [+C A@A@A@A@2.<+v ",
"_ _ _ ] ] 6.a@* }.}.}.}.}.}.}.}.@ Z.W.P+W.W.W.K+W.a b f.] ] ] _ z ` % ;.$ $ J.#.y.A.C@D@&@&@o.(@% t.t < y ] y u.: c [ ] _ _ _ _ _ _ ",
"c c c c c A 6+g 0+g g g g g g g g f W.W.P+`+W.P+W.t | 2 c c c c 2 | .  +@ $@K.i z.I+> A@C A@> 2+t t.  : ` c b a t | ` c c c c c c c ",
"      % ;.$ $ $ $ g ,.                W.W.W.W.W.0+$ $ $ $ $ $ $ 0+$ m@<.E@E@:+f@x+>@] |+^ / x [ < c c : t : b A t                   "};
