/* XPM */
static char * p_stand_left_xpm[] = {
"66 66 344 2",
"  	c #AA834B",
". 	c #A88047",
"+ 	c #A37A3D",
"@ 	c #9F7535",
"# 	c #9F7533",
"$ 	c #9F7534",
"% 	c #A07737",
"& 	c #A57D41",
"* 	c #A9824A",
"= 	c #A88148",
"- 	c #A88046",
"; 	c #A78046",
"> 	c #A67E43",
", 	c #A2793B",
"' 	c #9F7433",
") 	c #A07635",
"! 	c #A27B3A",
"~ 	c #A47E3D",
"{ 	c #A57F3D",
"] 	c #A6803F",
"^ 	c #A98446",
"/ 	c #AC874C",
"( 	c #AC864C",
"_ 	c #A98249",
": 	c #AB854C",
"< 	c #AC874D",
"[ 	c #AD894D",
"} 	c #A98348",
"| 	c #A77F46",
"1 	c #A88147",
"2 	c #AB854A",
"3 	c #AD884D",
"4 	c #A98149",
"5 	c #AA824A",
"6 	c #A57C41",
"7 	c #A2793C",
"8 	c #A2793A",
"9 	c #A07637",
"0 	c #A17938",
"a 	c #A98543",
"b 	c #AE8E4A",
"c 	c #AF8F4C",
"d 	c #B1914E",
"e 	c #B19150",
"f 	c #AE8B4E",
"g 	c #AB844C",
"h 	c #A77F45",
"i 	c #A37B3E",
"j 	c #A57D42",
"k 	c #A98148",
"l 	c #AC884D",
"m 	c #B08F4F",
"n 	c #B29251",
"o 	c #AF8D4D",
"p 	c #A78243",
"q 	c #A2783B",
"r 	c #A57E40",
"s 	c #AC894A",
"t 	c #B29351",
"u 	c #AF8C4F",
"v 	c #AB844B",
"w 	c #A47B3F",
"x 	c #A2783A",
"y 	c #9F7635",
"z 	c #A17738",
"A 	c #A37B3B",
"B 	c #A68140",
"C 	c #AD8B49",
"D 	c #B29350",
"E 	c #B49652",
"F 	c #B49753",
"G 	c #AF8E4F",
"H 	c #A88246",
"I 	c #A37B3D",
"J 	c #A17839",
"K 	c #B19050",
"L 	c #B39552",
"M 	c #B08F4D",
"N 	c #A98544",
"O 	c #A57E3D",
"P 	c #A47D3C",
"Q 	c #A78241",
"R 	c #AD8C4A",
"S 	c #B29451",
"T 	c #B59853",
"U 	c #B39451",
"V 	c #B08F50",
"W 	c #A88146",
"X 	c #A47B3E",
"Y 	c #A37A3C",
"Z 	c #A07636",
"` 	c #A88145",
" .	c #AC8949",
"..	c #AE8D4B",
"+.	c #AE8C4D",
"@.	c #AF8D4F",
"#.	c #B49653",
"$.	c #B19151",
"%.	c #AF8C4E",
"&.	c #AD8A4C",
"*.	c #A67E44",
"=.	c #A67F44",
"-.	c #080808",
";.	c #B08E4F",
">.	c #AE8B4D",
",.	c #AE8E4B",
"'.	c #B69953",
").	c #B59953",
"!.	c #B59753",
"~.	c #AE8C4E",
"{.	c #AE8A4E",
"].	c #A1783A",
"^.	c #AB864B",
"/.	c #CE3900",
"(.	c #B2934F",
"_.	c #AF8F4D",
":.	c #AB874A",
"<.	c #AA8449",
"[.	c #AD8B4B",
"}.	c #B1924E",
"|.	c #B29450",
"1.	c #AA824B",
"2.	c #AB864C",
"3.	c #AA844B",
"4.	c #B49552",
"5.	c #EFEF00",
"6.	c #EF7B00",
"7.	c #AA8646",
"8.	c #A47D3E",
"9.	c #A57F3F",
"0.	c #A78240",
"a.	c #A88342",
"b.	c #AB8748",
"c.	c #AD8A4D",
"d.	c #B09050",
"e.	c #AD8A4E",
"f.	c #B39450",
"g.	c #B1924F",
"h.	c #AA8549",
"i.	c #AD894B",
"j.	c #B0904E",
"k.	c #AE8C4C",
"l.	c #AC884C",
"m.	c #A78045",
"n.	c #A47D3D",
"o.	c #A78144",
"p.	c #AA834A",
"q.	c #B39452",
"r.	c #B08E50",
"s.	c #AB8849",
"t.	c #A88443",
"u.	c #A57F40",
"v.	c #A47C3E",
"w.	c #A57E3F",
"x.	c #A68040",
"y.	c #A47C3F",
"z.	c #9E7433",
"A.	c #A3793D",
"B.	c #A67F43",
"C.	c #AC8A49",
"D.	c #AF8D4E",
"E.	c #A47C40",
"F.	c #A17838",
"G.	c #A27A3A",
"H.	c #A37C3B",
"I.	c #AA844A",
"J.	c #B19250",
"K.	c #AF8E4D",
"L.	c #AB864A",
"M.	c #A98248",
"N.	c #A67E45",
"O.	c #AD894E",
"P.	c #AC894C",
"Q.	c #A88144",
"R.	c #A67F42",
"S.	c #AB8649",
"T.	c #A88245",
"U.	c #A57E41",
"V.	c #AA8548",
"W.	c #A98447",
"X.	c #A17739",
"Y.	c #9E7432",
"Z.	c #A88345",
"`.	c #AB8749",
" +	c #A67E41",
".+	c #A67D43",
"++	c #A98545",
"@+	c #A78242",
"#+	c #A57D3F",
"$+	c #A37A3E",
"%+	c #A27A39",
"&+	c #A98347",
"*+	c #A67E42",
"=+	c #A27A3C",
"-+	c #4A4A4A",
";+	c #A27939",
">+	c #B49752",
",+	c #B39652",
"'+	c #A07736",
")+	c #AC8A47",
"!+	c #AD8A4B",
"~+	c #A57E3E",
"{+	c #A37B3F",
"]+	c #A47C41",
"^+	c #9F7434",
"/+	c #6B7B7B",
"(+	c #292929",
"_+	c #B39351",
":+	c #9E7332",
"<+	c #B39551",
"[+	c #A88543",
"}+	c #A78044",
"|+	c #A57E42",
"1+	c #A17837",
"2+	c #EFDEBD",
"3+	c #B1914F",
"4+	c #AE8D4D",
"5+	c #A37C3D",
"6+	c #A27938",
"7+	c #B39651",
"8+	c #AF8F4B",
"9+	c #AA8746",
"0+	c #A78042",
"a+	c #A78043",
"b+	c #AC884A",
"c+	c #A88344",
"d+	c #ADADAD",
"e+	c #A98645",
"f+	c #AA8448",
"g+	c #AB8846",
"h+	c #A68042",
"i+	c #AA8745",
"j+	c #AB8946",
"k+	c #AB8947",
"l+	c #B29250",
"m+	c #AC874B",
"n+	c #AB854B",
"o+	c #A37B3C",
"p+	c #A17939",
"q+	c #B69954",
"r+	c #AA834C",
"s+	c #A78143",
"t+	c #A98644",
"u+	c #A88343",
"v+	c #0018EF",
"w+	c #8C1800",
"x+	c #BD6B39",
"y+	c #AA8649",
"z+	c #AA8645",
"A+	c #AD8B4A",
"B+	c #AF8E4E",
"C+	c #B29151",
"D+	c #B1904F",
"E+	c #DEAD7B",
"F+	c #AA854A",
"G+	c #AC894B",
"H+	c #AC884B",
"I+	c #AB8747",
"J+	c #A07738",
"K+	c #A68041",
"L+	c #AB8847",
"M+	c #A98444",
"N+	c #AA8747",
"O+	c #A47D3F",
"P+	c #A88247",
"Q+	c #A98643",
"R+	c #A98546",
"S+	c #AA8349",
"T+	c #AB874B",
"U+	c #181818",
"V+	c #B08F4E",
"W+	c #A57C40",
"X+	c #AE8A4D",
"Y+	c #B0914E",
"Z+	c #A98349",
"`+	c #A37B3A",
" @	c #A77F44",
".@	c #AC8948",
"+@	c #A78341",
"@@	c #A88442",
"#@	c #A88341",
"$@	c #AB8848",
"%@	c #B1934F",
"&@	c #AE8B4C",
"*@	c #B0904F",
"=@	c #A27B39",
"-@	c #A6813F",
";@	c #A78340",
">@	c #B59854",
",@	c #A07837",
"'@	c #AF8E4B",
")@	c #AD8A4A",
"!@	c #A68240",
"~@	c #A57D43",
"{@	c #AD8C4B",
"]@	c #B0914D",
"^@	c #6B0000",
"/@	c #B19251",
"(@	c #B0904D",
"_@	c #AA8647",
":@	c #A67F45",
"<@	c #A57F3E",
"[@	c #AA8547",
"}@	c #9F7634",
"|@	c #A47C3D",
"1@	c #B49651",
"2@	c #AE8D4C",
"3@	c #A88048",
"4@	c #A37D3B",
"5@	c #A57D3E",
"6@	c #A07836",
"7@	c #AC8A48",
"8@	c #AD8C49",
"9@	c #AD8B48",
"0@	c #AF8E4C",
"a@	c #B59752",
"b@	c #AC8B48",
"c@	c #A67F40",
"d@	c #A57D40",
"e@	c #AD894C",
"f@	c #AE8C4F",
"g@	c #AE8C4B",
"h@	c #A9824B",
"i@	c #A9834A",
"j@	c #AA8845",
"k@	c #A47B40",
"l@	c #A67F41",
"m@	c #A47B41",
"n@	c #A1773A",
"o@	c #AA8744",
"p@	c #AB8A47",
"q@	c #B08E4E",
"r@	c #A37C3C",
"s@	c #A98247",
"t@	c #A17937",
"u@	c #A5803E",
"v@	c #AE8D49",
"w@	c #A78140",
"x@	c #AA8846",
"y@	c #B39550",
"z@	c #B2924F",
"A@	c #AC8B49",
"B@	c #A88149",
"C@	c #A27A3B",
"          . + @ # $ $ $ # % & *                                                                                                     ",
"  * = - ; > , $ ' ) ! ~ { ] ^ / (           _ . ; ; = *     : < [ [ [ [ / } ; | 1 2 3 [ 3 3 3 3 3 [ [ [ 3 (   4 . = 5               ",
"  = 6 7 7 8 9 $ ' 0 a b c c d e f g       5 h i , 7 j k     l m n n n n o p 7 q r s e t n n n n n n n t e u v h w j 4               ",
". > x $ $ y z 8 A B C D E F E t G [ l 3 3 / H I J , 6 =     3 K L F F L M N O P Q R S F T T T T T E U U t V [ W X 6 k               ",
"Y x Z # ' % w `  ...+.@.t #.$.%.G e n n n e &.H *.=.. -.    : -.;.L L m >...,.b ..+.@.t T '.).).!.n ~.{.f ;.K &.H . *               ",
"].].J J J + h ^.;.e @.{.m n G {.K E E L E E K ( -.  v -.-.v -./.-.e -.~.f K D (._.:.<.[.d }.}.|.t %.: : 3 G n @.: 1.  : / 2.3.v ( < ",
"*.*.*.*.*.h 4 g 3 ~.V K @.~.G e 4.!.t ;.n E e < -.-.-.5.6.-.-.6.-.-.5.-.K G &.7.Q 8.X 9.0.0.a.b.[ < : c.V m ~.l g     3 ;.@.( < ;.e ",
". = _   : 2.v 3.2.[ d.n @.e.;.t f.g.[.h.i.j.k.<.-.5.-.5.5.-.5.5./.5.6.-.K l.m.Y Z $ ) z 8 A n.o.p.  g ~.e @.2.      3.c.e K {.f e q.",
"i j = ( @.;.3 ( f V ;.@.m K r.~.s.t.u.v.w.Q x.y.-.5./.5.5./.5.5.6.6./.-.-.-.7 9 ' z.Z A.B.7.C.:.  1.  < {.l   1.      ( {.G K K @.u ",
"@ , h / V K l.2 D.e &.2 D.e +.} E.F.y ) % J G.H.-.5.6.5.6.6.6.5.6././.6.6./.-.-.@ Z , > I.D.J.@.< ( ( / < < ( 3._ _     v [ j.K.L.M.",
"z.].N.: O.P.Q.R.S.&.T.U.V.&.W.w X.$ Y.$ ].& Z.-.5.6.5.6.6.6.6././././.6././.-.z.Z + *.= v 3 u m K K K K K K m `. +.+4     <.++@+#+$+",
"%+8.&+( < <.v.8 *+- E.=+*+W E.% $ $ y X.E.M.-.5.6.-+5.6.5.6.6././.6./././.-.;+F., *.*     : 3 ;.U E >+E L E ,+R ] U.M.  4 > , '+) ) ",
")+R K.V V !+~+Z ].{+]+6 E.$+X.^+Y.@ , & ; p.< -.-./+6.5.5.6./.(+(+/.-./.-.-.(+-+=.=     : {.V ;.;.t F _+V n >+(.R s.I.. 6 q @ :+Y.z.",
"U <+E F !.}.[+%+z =+}+M.|+8 F.0 1+J 6 =     g / -.2+6.5.(+/.(+(+(+-.-.-.-.-.(+-+-+5   * I.+.3+~./ G t ;.l %.U <+(.4+I.=.5+%+%+6+6+6+",
"G K E ).).7+8+9+0+a+b++.V.R.c+9+c+> ; p.  g 3 @.-.d+d+6.(+(+-+(+(+(+(+-.-.-.u -.(+-.* h U.@+e+f+  l f 3 g < ~.[.g+@+r h+i+j+j+j+k+k+",
"/ f n E T T >+D >./ ;.l+~.m+D.3++.I.*   * p.&.3+-.d+d+-.-.-.-.-.-.-.-.-.-.-.n+p.(+-.. w z 1+o+}+3.( ( : 3.g 3.m.I p+! t._.<+<+<+U |.",
";.;.;.K L T q+!.t V ;.;.m V V ;.O.: r+  . *+s+t+u+-.(+-.v+/+w+x+/./.6.(+-.-.-.N.-.-.w J ) ].& y+D.;.@.[ 3.1.* | j h+z+A+B+t !.#.C+V ",
"|.D+c.[ e E F E E t f 3 ;.n @.(   * * 4 j ].1+;+%+-.x+w+v+2+E+E+x+5.E+(+/.-.-+-.-.-.Z Z J j F+;.L F L ;./ g :   p.G+j.K.H+c.J.e [ : ",
"j+I+<.: {.;.m m V @.l : {.@.O.  | j & 6 , Z J+i K+-.w+x+v+2+E+w+w+6.E+w+6.-.X -.-.-.@ x U.S.;.q.T '.T t m @.@.[ : h.L+M+*+h+++N+I.  ",
"G.O+P+: ( / ( 2.2.:   p.I.3.3.k & J 9 % Z % $+1 &.3+w+2+2+E+w+E+x+w+-.-.-./.-.-.-.-.-.j F+-+-+E F !.T F E E L V / W 8.! G.G.A r 1   ",
"{+B.b+D.@.{.2.1.1.* h j 6 6 j E., $ Y.$ z i *.p.u 4.-.E+2+2+E+x+w+-.x+-.-.-.w -.-.w -.-.(+(+K K K q.T ).).'.T q.m !+i+a Q+Q+Q+R+S+  ",
"k T+D+4.E n f g   _ & 8 J J J X.% Z @ % y.1 p.3.f U F -.x+x+x+w+-.w+-.(+U+-.-.-.-.. <.-.-.%.2.n+/ m E !.F !.F E L U D D |.|.(.V+l.v ",
"  [ t T ).E e f ( p.^ a.u.X $+i w w w W+W.X+O.: 3 ;._+!.-.-.-.-.-.-.(+U+(+U+-+-+U+-.a+7.L+Z.j 6 > S.G K K K K K K K e q.!.#.n V @.u ",
"  3 n !.T T E n {./ D.Y+&.Z+= = = 1 . M.&.e D.n+  ^.%.U -.(+(+-.-.-.U+(+-+/+/+U+U+U+-.`+H.G.8 J Y }+^.< ( ( ( ( ( ( / @.U n f f e q.",
"  < @.n E T ).>+e ;.U F n u < 3.=  @>  @R+.@7.}+j .+T.-.(+/+(+/+U+(+(+-+/+(+(+U+U+-+U+-.+@@@#@+@t.$@c.<   1.1.1.1.1.  3 ;.u ( < @.e ",
"p.  n+X+n !.T F 4.L E F E t f p.j , z J G.H.A 8 ].8 G.-.-+-+-+d+U+/+-+(+-+(+(+U+(+-+(+U+-.(.%@%@(.f.t @.2.  3.3.3.    3.2.n+  3.2./ ",
"> .+.+H &@K $.$.C+C+$.$.n *@H+=.7 ) z.$ =@-@+@+@+@+@;@-.-.-+-+d+U+/+/+-+(+-.U+U+-+(+(+U+U+-.>@q+).'.T n u f f f f L.m..+.+.+*.| 4 1.",
"8 x x y.&+/ l / / / / / < ^.B.8 Z $ # ,@+@'@}.}.}.}.}.-.-.-+-+d+U+/+/+-+(+-.U+U+-+(+(+U+U+-.>+T T T !.E L q.q.L t )@w.].].].8 E.1   ",
"0.!@0.t.b+l.} =.*.*.*.*.*.~@7 @ z.y =@0..@D+4.!.E _+q.-.-.(+(+/+U+(+(+/+-+(+-.U+U+(+-+-+U+U+-.j.e n n L T ).T E l+{@[+!@!@!@0.M+H+f ",
"]@]@]@}.D _.u+, ].].].].x J % @ ' 1+a.,.D.X+V L n f ;.-.(+/.(+(+U+(+(+U+U+U+^@-.-.U+(+U+U+(+U+-./ l [ K E ).!./@f >.(@]@]@]@]@}.D U ",
"n n n t t B+c++ 7 7 7 7 7 7 7 7 , X _@m u ( e.K @.( 3 -.(+/.6.(+d+U+(+w+w+w+w+^@-.-.-.U+-+-+(+U+-.1.3.{.e t e ~.2.[ K t n n n n n n ",
"[ [ [ [ [ / Z+; | ; ; ; ; ; ; ; ; 1 I./ ( 3.: < ( 3.: -.(+/.6.(+/+U+6.6./.w+^@-.-.-.-.U+-+/+-+U+-.1.  2.l [ 3 ( 3.: l [ [ [ [ [ [ [ ",
"      * . h h h h ; _                   _ - | | | h -.-+(+-./.(+(+U+/././.w+w+-.-.-.-.U+/+-+(+U+-.[ [ 2.3.2.3 / 3.                  ",
"      = ]+, , , , i h                 * :@+ , , , , -./+(+-.w+w+U+w+w+/./././.w+^@-.-.U+(+/+/+U+-.t n f 2.{.K @.:                   ",
"  g < L.p <@{ ~ A + N.p.( 3 [ l.I.1 ; h w Z ' $ 0 -./+-+-./././.(+/.6.6./.w+w+w+w+^@-./+-+/+(+U+-.T F e f @.e V {.3 3 3 3 [ [ < :   ",
"  / ;.e (@8+8+R [@; = n+%.e t D+_@v., , z $ z.}@<@-.(+(+-.-./.(+d+(+w+w+^@^@(+(+U+-.-.U+U+/+(+U+-.).T E t ;.f @.e n n n n n n ;.<   ",
"  < m U >+>+L J.%.3 l e.m _+F <+.@|@].8 A P P { -.-+/+/+(+-.(+(+/+U+(+-+-+(+U+U+U+-.-.w+w+U+(+-.t U U U t m {.@.n 4.!.T T 1@g.k.f+. ",
"  : 3 G q.E K u V n n e G @.t 4.2@W *.m._@R '@-.w+(+(+(+-.-.U+U+U+-.U+U+U+U+-.-.-.E+x+E+E+x+U+-.c.{.{.{.f ;.K m %.K E q+T }.i+9.5++ ",
"  v ( f e n @.c.B+d }.(@b+f+!+_.!+M.3@  {.J.U -.E+x+(+(+-.w+-.-.-.-.-.-.-.-.w+w+-.x+U+2+E+E+U+-.        : f e V {.@.n U }.)+4@$ $ $ ",
"  < @.d.@.u V V+k+@@+@0.5@I w.B w.w *.5 < {.u -.E+x+E+(+-.w+w+w+w+/.-.w+w+w+w+w+-.w+w+2+E+x+-.1.1.1.1.1.  ( f ;.K V ~.b+t.~ 6@' ' # ",
"= L.m D+H+2 2@,.0.'+$ '+%+H.P P H.n.o.^.2.3.p.-.E+w+x+-.w+/.w+w+w+/.-./.w+/././.-.x+2+E+x+w+-./ / / / :   _ _ G+M 2@<.j J }@$ ) J+J ",
"i B.:.H+}+O+B B =@$ :+'+0.7@8@C 9@8@0@m f 3.h -.-.E+-.w+/./././.w+w+-.w+/.6.6./.w+-.w+x+-.-.e K e e d.{.3.N.w w.Q x.X ].@ z.# J E.> ",
"y , > h Y Z ) ) $ y 1+{ 8@<+a@>+>+>+!.E K l.m.Y ;+-.w+6.6.6./.w+/./.w+6.6.6.6.6.6.w+-.-.-.E F E L E E K l.` n.H.H.`+p+X.z z z i ; 5 ",
"' Z q q 9 z.:+:+:+1+0.8@(.T q+q+q+q+q+T 4.K b+m.U+/././././././.w+w+/.6.6.6.6././././.w+w+-.F t V t F L e K.8@b@7@7.a+j j j ~@h 4   ",
"J+F.G.! %+%+%+%+%+O 7@D >+!.F E 4.E E 4.4.U ;.U+/.6.6.6.6./.w+-.-.-././.6.6.6.6.6.6.6./.w+-.3+&@L.~.U 4.L U U U t B+^.p.n+n+n+n+2.2.",
"j a+7.)+)+)+)+)+)+C.k.m q.E n G u @.@.@.@.@.U+6.6.6.6.6./.w+w+w+w+-.-.-.w+w+6.6.6.6./././.w+-.c@d@&+>.@.@.@.@.G @.O.: < @.K K d.d.d.",
"n+e@*@U 7+1@1@1@E S ~.3 K L ;.( v v 3.p.Z+I.-.^@/.6././.w+w+w+-.-.[ [ K -.w+/././.6.6.6./.w+-.%+o+o.^.( : g g g g : 2.f n E E E L L ",
"K V r.e E q+q+q+q+E %./ V L ;.: 1.5 | 6 w -.^@w+/.w+^@^@^@-.-.G f 2.2.f f@-.w+/.6.6.6.6.6./.U+-.L+g@D.[   h@1.h@  l @.V V n F E e G ",
"|.*@[ [ e E >+E >+U f / ;.t %.p._ = 6 X.Z -.w+w+/./.w+^@-.: : : 3.p._ p.p.i@-.-./.6.6.6.6./.w+U+-.>+L m < : : 3.3.c.3+B+m+&.3+3+[ : ",
"j@N+<.: {.@.;.;.r.@.l : e.~.V.*+]+E., y z.-.w+w+w+w+^@^@-.1.1.1.= .+k@k@E.E.i -.w+/.6.6.6./.^@^@^@-.T U V ;.@.[ v h.7.u+U.l@N _@<.  ",
"G.O+P+: ( ( n+I.I.I.p.* p.} & z Z Z ) $ -.^@w+w+w+^@^@-.: : g   1 y.;+J J X.z % U+w+/././.^@^@^@^@w+-.!.E >+4.d./ W 8.! G.G.A r 1   ",
"w a+G+G ;.&.H 6 k@m@]+]+]+w n@^+Y.z.z.$ -.-.^@w+w+^@^@-.;.G f : <.7.t.l@E.w w k@k@U+/././.^@^@^@^@w+-.q+q+q+T L m [.g+o@o@o@o@7.<.  ",
"_ ^.m L 4.j.u+8 J ;+;+;+;+;+F.1+6@'+'+% -.x+^@^@^@^@^@-.L L K [ [ *@V+m+_ _ S+S+S+-.w+w+^@^@w+^@^@w+U+-.1@1@1@E L U |.D D |.D V+/   ",
"  ( %.K K +.Z.r Q Q+t+Q+Q+Q+t+t+t+a K+& -.-.(+(+(+(+-.K K K V ;.;.V @.< 2.{.@.G @.@.-.-.w+w+/./.w+U+x+-.)+p@)+R q@V V V V K K u (   ",
"  3.: 2.( n+p.F+4+(.D (.(.(.|.|.f.(.+.-.-.-+-.-.-.-.-.n+n+n+c.3+K X+: 3.< V q.L L L L E -.-.w+w+U+x+E+-.-.=@r@s+L.< < < < / ( : 3.  ",
"    1.1.1.1.1.: f K K K K n 4.T q+T t -.(+(+-+(+(+-+-.*.j ~@o.L+ .F+1.1.2.~.K K K K K K *@0@-.-.-.-.-.(+(+-.+@$@>.%.~.%.~.[ g 1.1.  ",
"5     3.3.3.3.g ( < < / ( l.m E T -.-.-.(+(+-.-.-.-.-.7 z z p+A u.s@3.v : ( / / ( 2.2.2.F+h+A -.-.-+/+(+-.-.-.U <+L L L q.V l 3.3.3.",
"> W H+~.%.~.~.~.~.f f [ } m.:.m -.(+(+(+-+-+(+(+(+(+-.Z Y.z.t@u@z+!+~.%.~.f [ : * | .+~@]+].^+-.-+-.-.-.(+(+(+-.T '.T E n V @.f f f ",
"J c@..U L q.q.U U q.L 3+e+v.}+-.x+(+E+x+-+-+(+-+-.-.-.) $ ) <@8@(.U U q.q.L n {._ & 8 J J % ) }@-.-.-+/+/+-+-.-.-.T !.n f f n L L L ",
"+ h+[.e n e e e e n E 7+v@N b.-.-.-.-.-.-.-.-.-.-.9 9 , 8.w@x@K.C+n e e t E E K &.7.+@;@+@+@+@+@-.x+E+(+E+E+x+w+-.-.e %.( {.q.q+q+).",
". _ n+< l < < < < {.$.E y@g.D t u I..+7 J x x ].% Z 7 =.:.K.V+c.< < < < f t F E S z@}.}.}.}.}.}.j.-.-+/+-+/+/+-+-+-.< : 3.c.t T T T ",
"                1.: ~.e n t E E V v *.X 8.] <@I 7 + j _ 3 V ;./         ( @.n n n n n n n n n n $.f -.-.-.-.-.-.-.-.  4 ; ^ A@b b b ",
"                  3.2.l l {.e L ;.n+B@= b+0@[.} ; . k p.: < / v         3.( l l l l l l l l l 3 l 2.      : < ( 3.    | i C@P ~ ~ ~ ",
"                          : ~.K f g 1.v {.K @.2.                        * . h h h h h h h h h h | = p.                ; w , , 7 7 7 ",
"                            2.l 2.3.    2.l / v                         = E., ].x x x x x x x ].7 > *                 _ . ; | | | | ",
"                                                                        . Y @ # $ $ $ $ $ $ $ # 9 6 _                               "};
