/* XPM */
static char * p_stand_right_xpm[] = {
"66 66 344 2",
"  	c #AA834B",
". 	c #A88047",
"+ 	c #A37A3D",
"@ 	c #9F7535",
"# 	c #9F7533",
"$ 	c #9F7534",
"% 	c #A07737",
"& 	c #A57D41",
"* 	c #A9824A",
"= 	c #A88148",
"- 	c #A88046",
"; 	c #A78046",
"> 	c #A67E43",
", 	c #A2793B",
"' 	c #9F7433",
") 	c #A07635",
"! 	c #A27B3A",
"~ 	c #A47E3D",
"{ 	c #A57F3D",
"] 	c #A6803F",
"^ 	c #A98446",
"/ 	c #AC874C",
"( 	c #AC864C",
"_ 	c #A98249",
": 	c #AB854C",
"< 	c #AC874D",
"[ 	c #AD894D",
"} 	c #A98348",
"| 	c #A77F46",
"1 	c #A88147",
"2 	c #AB854A",
"3 	c #AD884D",
"4 	c #A98149",
"5 	c #AA824A",
"6 	c #A57C41",
"7 	c #A2793C",
"8 	c #A2793A",
"9 	c #A07637",
"0 	c #A17938",
"a 	c #A98543",
"b 	c #AE8E4A",
"c 	c #AF8F4C",
"d 	c #B1914E",
"e 	c #B19150",
"f 	c #AE8B4E",
"g 	c #AB844C",
"h 	c #A77F45",
"i 	c #A37B3E",
"j 	c #A57D42",
"k 	c #A98148",
"l 	c #AC884D",
"m 	c #B08F4F",
"n 	c #B29251",
"o 	c #AF8D4D",
"p 	c #A78243",
"q 	c #A2783B",
"r 	c #A57E40",
"s 	c #AC894A",
"t 	c #B29351",
"u 	c #AF8C4F",
"v 	c #AB844B",
"w 	c #A47B3F",
"x 	c #A2783A",
"y 	c #9F7635",
"z 	c #A17738",
"A 	c #A37B3B",
"B 	c #A68140",
"C 	c #AD8B49",
"D 	c #B29350",
"E 	c #B49652",
"F 	c #B49753",
"G 	c #AF8E4F",
"H 	c #A88246",
"I 	c #A37B3D",
"J 	c #A17839",
"K 	c #B19050",
"L 	c #B39552",
"M 	c #B08F4D",
"N 	c #A98544",
"O 	c #A57E3D",
"P 	c #A47D3C",
"Q 	c #A78241",
"R 	c #AD8C4A",
"S 	c #B29451",
"T 	c #B59853",
"U 	c #B39451",
"V 	c #B08F50",
"W 	c #A88146",
"X 	c #A47B3E",
"Y 	c #A37A3C",
"Z 	c #A07636",
"` 	c #A88145",
" .	c #AC8949",
"..	c #AE8D4B",
"+.	c #AE8C4D",
"@.	c #AF8D4F",
"#.	c #B49653",
"$.	c #B19151",
"%.	c #AF8C4E",
"&.	c #AD8A4C",
"*.	c #A67E44",
"=.	c #A67F44",
"-.	c #B08E4F",
";.	c #080808",
">.	c #AE8B4D",
",.	c #B69953",
"'.	c #B59953",
").	c #B59753",
"!.	c #AE8C4E",
"~.	c #AE8A4E",
"{.	c #A1783A",
"].	c #AB864B",
"^.	c #AA824B",
"/.	c #CE3900",
"(.	c #B2934F",
"_.	c #AF8F4D",
":.	c #AA8449",
"<.	c #AD8B4B",
"[.	c #B1924E",
"}.	c #B29450",
"|.	c #AB864C",
"1.	c #AA844B",
"2.	c #B49552",
"3.	c #EFEF00",
"4.	c #EF7B00",
"5.	c #A57F3F",
"6.	c #A78240",
"7.	c #A88342",
"8.	c #AB8748",
"9.	c #AD8A4D",
"0.	c #B09050",
"a.	c #AD8A4E",
"b.	c #B39450",
"c.	c #B1924F",
"d.	c #AA8549",
"e.	c #AD894B",
"f.	c #B0904E",
"g.	c #AE8C4C",
"h.	c #A88149",
"i.	c #AF8E4E",
"j.	c #AB864A",
"k.	c #A47D3D",
"l.	c #A78144",
"m.	c #AA834A",
"n.	c #B39452",
"o.	c #B08E50",
"p.	c #AB8849",
"q.	c #A88443",
"r.	c #A57F40",
"s.	c #A47C3E",
"t.	c #A57E3F",
"u.	c #A68040",
"v.	c #A47C3F",
"w.	c #A57D43",
"x.	c #A3793D",
"y.	c #A67F43",
"z.	c #AA8646",
"A.	c #AC8A49",
"B.	c #AB874A",
"C.	c #AC884C",
"D.	c #AF8D4E",
"E.	c #A47C40",
"F.	c #A17838",
"G.	c #A27A3A",
"H.	c #A37C3B",
"I.	c #A68042",
"J.	c #AA854A",
"K.	c #AA844A",
"L.	c #B19250",
"M.	c #AF8E4D",
"N.	c #A98248",
"O.	c #9E7433",
"P.	c #A67E45",
"Q.	c #AD894E",
"R.	c #AC894C",
"S.	c #A88144",
"T.	c #A67F42",
"U.	c #AB8649",
"V.	c #A88245",
"W.	c #A57E41",
"X.	c #AA8548",
"Y.	c #A98447",
"Z.	c #A17739",
"`.	c #9E7432",
" +	c #A88345",
".+	c #AC8947",
"++	c #AB8749",
"@+	c #A67E41",
"#+	c #A67D43",
"$+	c #A98545",
"%+	c #A78242",
"&+	c #A57D3F",
"*+	c #A37A3E",
"=+	c #A27A39",
"-+	c #A47D3E",
";+	c #A98347",
">+	c #A67E42",
",+	c #A27A3C",
"'+	c #B49752",
")+	c #4A4A4A",
"!+	c #B39652",
"~+	c #A07736",
"{+	c #AC8A47",
"]+	c #AD8A4B",
"^+	c #A57E3E",
"/+	c #A37B3F",
"(+	c #A47C41",
"_+	c #9F7434",
":+	c #292929",
"<+	c #6B7B7B",
"[+	c #B39351",
"}+	c #9E7332",
"|+	c #B39551",
"1+	c #A88543",
"2+	c #A78044",
"3+	c #A57E42",
"4+	c #A17837",
"5+	c #EFDEBD",
"6+	c #B1914F",
"7+	c #AE8D4D",
"8+	c #A37C3D",
"9+	c #A27938",
"0+	c #B39651",
"a+	c #AF8F4B",
"b+	c #AA8746",
"c+	c #A78042",
"d+	c #A78043",
"e+	c #AC884A",
"f+	c #A88344",
"g+	c #ADADAD",
"h+	c #A98645",
"i+	c #AA8448",
"j+	c #AB8846",
"k+	c #AA8745",
"l+	c #AB8946",
"m+	c #AB8947",
"n+	c #B29250",
"o+	c #AC874B",
"p+	c #A37B3C",
"q+	c #A78045",
"r+	c #A17939",
"s+	c #B69954",
"t+	c #AA834C",
"u+	c #A78143",
"v+	c #A98644",
"w+	c #BD6B39",
"x+	c #8C1800",
"y+	c #0018EF",
"z+	c #AA8649",
"A+	c #AA8645",
"B+	c #AD8B4A",
"C+	c #B29151",
"D+	c #B1904F",
"E+	c #A27939",
"F+	c #DEAD7B",
"G+	c #AC894B",
"H+	c #AC884B",
"I+	c #AB8747",
"J+	c #A07738",
"K+	c #AA8349",
"L+	c #AB8847",
"M+	c #A98444",
"N+	c #AA8747",
"O+	c #A47D3F",
"P+	c #A88247",
"Q+	c #A98643",
"R+	c #A98546",
"S+	c #AB874B",
"T+	c #181818",
"U+	c #AB854B",
"V+	c #B08F4E",
"W+	c #A57C40",
"X+	c #AE8A4D",
"Y+	c #B0914E",
"Z+	c #A98349",
"`+	c #A37B3A",
" @	c #A77F44",
".@	c #AC8948",
"+@	c #A78341",
"@@	c #A88442",
"#@	c #A88341",
"$@	c #AB8848",
"%@	c #A98448",
"&@	c #B1934F",
"*@	c #AE8B4C",
"=@	c #B0904F",
"-@	c #B18F50",
";@	c #B59854",
">@	c #A07837",
",@	c #AD8A4A",
"'@	c #A68240",
")@	c #A27B39",
"!@	c #A98547",
"~@	c #AA8647",
"{@	c #AD8C4B",
"]@	c #B0914D",
"^@	c #A88343",
"/@	c #6B0000",
"(@	c #A27A3B",
"_@	c #A98346",
":@	c #B19251",
"<@	c #B0904D",
"[@	c #A6803E",
"}@	c #A6813F",
"|@	c #AA8744",
"1@	c #AD894C",
"2@	c #A57F3E",
"3@	c #AA8547",
"4@	c #A47C3D",
"5@	c #B49651",
"6@	c #AE8D4C",
"7@	c #A37D3B",
"8@	c #A57D3E",
"9@	c #A07836",
"0@	c #AE8E4B",
"a@	c #9F7634",
"b@	c #AC8A48",
"c@	c #AD8C49",
"d@	c #AD8B48",
"e@	c #AF8E4C",
"f@	c #B59752",
"g@	c #AC8B48",
"h@	c #A78142",
"i@	c #A67F40",
"j@	c #A57D40",
"k@	c #AE8C4B",
"l@	c #A9824B",
"m@	c #AA8845",
"n@	c #A47B40",
"o@	c #A67F41",
"p@	c #A47B41",
"q@	c #A1773A",
"r@	c #AB8A47",
"s@	c #B08E4E",
"t@	c #A37C3C",
"u@	c #A98247",
"v@	c #B0904C",
"w@	c #A17937",
"x@	c #A5803E",
"y@	c #A78140",
"z@	c #AA8846",
"A@	c #B2924F",
"B@	c #AD8B4D",
"C@	c #AC8B49",
"          . + @ # $ $ $ # % & *                                                                                                     ",
"  * = - ; > , $ ' ) ! ~ { ] ^ / (           _ . ; ; = *     : < [ [ [ [ / } ; | 1 2 3 [ 3 3 3 3 3 [ [ [ 3 (   4 . = 5               ",
"  = 6 7 7 8 9 $ ' 0 a b c c d e f g       5 h i , 7 j k     l m n n n n o p 7 q r s e t n n n n n n n t e u v h w j 4               ",
". > x $ $ y z 8 A B C D E F E t G [ l 3 3 / H I J , 6 =     3 K L F F L M N O P Q R S F T T T T T E U U t V [ W X 6 k               ",
"Y x Z # ' % w `  ...+.@.t #.$.%.G e n n n e &.H *.=.. *     : [ -.L ;.m >...;.b ..+.@.t T ,.'.'.).n !.~.f -.K &.H . *               ",
"{.{.J J J + h ].-.e @.~.m n G ~.K E E L E E K ( ^.  v ( ( v g ;.f ;./.;.f ;.;.(._.;.:.<.d [.[.}.t %.: : 3 G n @.: ^.  : / |.1.v ( < ",
"*.*.*.*.*.h 4 g 3 !.V K @.!.G e 2.).t -.n E e <   1.[ m @.< ;.3.;.;.4.;.;.4.3.;.;.;.X 5.6.6.7.8.[ < : 9.V m !.l g     3 -.@.( < -.e ",
". = _   : |.v 1.|.[ 0.n @.a.-.t b.c.<.d.e.f.g.:.h.  a.e i.j.;.4.3./.3.3.;.3.3.;.3.;.) z 8 A k.l.m.  g !.e @.|.      1.9.e K ~.f e n.",
"i j = ( @.-.3 ( f V -.@.m K o.!.p.q.r.s.t.Q u.v.w.4 ( 9.;.;.;./.4.4.3.3./.3.3./.3.;.Z x.y.z.A.B.  ^.  < ~.l   ^.      ( ~.G K K @.u ",
"@ , h / V K C.2 D.e &.2 D.e +.} E.F.y ) % J G.H.I.J.;.;./.4.4././.4.3.4.4.4.3.4.3.;., > K.D.L.@.< ( ( / < < ( 1._ _     v [ f.M.j.N.",
"O.{.P.: Q.R.S.T.U.&.V.W.X.&.Y.w Z.$ `.$ {.&  +.+..m K ;././.4././././.4.4.4.4.3.4.3.;.= v 3 u m K K K K K K m ++@+#+4     :.$+%+&+*+",
"=+-+;+( < :.s.8 >+- E.,+>+W E.% $ $ y Z.E.N.9.L.L '+T '+;./././.4././.4.4.3.4.3.)+4.3.;.  : 3 -.U E '+E L E !+R ] W.N.  4 > , ~+) ) ",
"{+R M.V V ]+^+Z {./+(+6 E.*+Z._+`.@ , & ; m.< u n F )+:+;.;./.;./.:+:+/.4.3.3.4.<+;.;.  : ~.V -.-.t F [+V n '+(.R p.K.. 6 q @ }+`.O.",
"U |+E F ).[.1+=+z ,+2+N.3+8 F.0 4+J 6 =     g / @.)+)+:+;.;.;.;.;.:+:+:+/.:+3.4.5+;.  * K.+.6+!./ G t -.l %.U |+(.7+K.=.8+=+=+9+9+9+",
"G K E '.'.0+a+b+c+d+e++.X.T.f+b+f+> ; m.  g 3 @.;.:+;.E ;.;.;.:+:+:+:+)+:+:+4.g+g+;.* h W.%+h+i+  l f 3 g < !.<.j+%+r I.k+l+l+l+m+m+",
"/ f n E T T '+D >./ -.n+!.o+D.6++.K.*   * m.&.6+;.:+9.t ;.;.;.;.;.;.;.;.;.;.;.g+g+;.. w z 4+p+2+1.( ( : 1.g 1.q+I r+! q._.|+|+|+U }.",
"-.-.-.K L T s+).t V -.-.m V V -.Q.: t+  . >+u+v+;.;.H ;.;.;.:+4././.w+x+<+y+;.:+;.6 w J ) {.& z+D.-.@.[ 1.^.* | j I.A+B+i.t ).#.C+V ",
"}.D+9.[ e E F E E t f 3 -.n @.(   * * 4 j {.4+E+;.;.;.)+;./.:+F+3.w+F+F+5+y+x+w+;.Z Z Z J j J.-.L F L -./ g :   m.G+f.M.H+9.L.e [ : ",
"l+I+:.: ~.-.m m V @.l : ~.@.Q.  | j & 6 , Z J+i ;.;.;.K+;.4.x+F+4.x+x+F+5+y+w+x+;.`.@ x W.U.-.n.T ,.T t m @.@.[ : d.L+M+>+I.$+N+K.  ",
"G.O+P+: ( / ( |.|.:   m.K.1.1.k & J 9 )+)+% *+;.;.;.;.;./.;.;.;.x+w+F+x+F+5+5+x+Z ) J j J.@.U E F ).T F E E L V / W -+! G.G.A r 1   ",
"/+y.e+D.@.~.|.^.^.* h j 6 6 j E., $ `.$ :+:+;.;.u ;.;.V ;.;.;.w+;.x+w+F+5+5+F+;.E.w T.B.@.V K K K n.T '.'.,.T n.m ]+k+a Q+Q+Q+R+K+  ",
"k S+D+2.E n f g   _ & 8 J J J Z.% Z @ % v.;.;.1.f ;.;.;.;.T+:+;.x+;.x+w+w+w+;.= = . :.o e %.|.U+/ m E ).F ).F E L U D D }.}.(.V+C.v ",
"  [ t T '.E e f ( m.^ 7.r.X *+i w w w W+Y.X+Q.: ;.T+)+)+T+:+T+:+;.;.;.;.;.;.m.; > w.d+z.L+ +j 6 > U.G K K K K K K K e n.).#.n V @.u ",
"  3 n ).T T E n ~./ D.Y+&.Z+= = = 1 . N.&.e D.;.T+T+T+<+<+)+:+T+;.;.;.:+:+;.1 w J z J `+H.G.8 J Y 2+].< ( ( ( ( ( ( / @.U n f f e n.",
"  < @.n E T '.'+e -.U F n u < 1.=  @>  @R+.@;.T+)+T+T+:+:+<+)+:+:+T+<+:+<+:+;.Z.) J i u.+@@@#@+@q.$@9.<   ^.^.^.^.^.  3 -.u ( < @.e ",
"m.  U+X+n ).T F 2.L E F E t f m.j , z J G.;.T+:+)+:+T+:+:+)+:+)+<+T+g+)+)+)+;.Z J & %@g.d (.&@&@(.b.t @.|.  1.1.1.    1.|.U+  1.|./ ",
"> #+#+H *@K $.$.C+C+$.$.n =@H+=.7 ) O.$ ;.T+T+:+:+)+T+T+;.:+)+<+<+T+g+)+)+;.;.O+W.d.%.-@n #.;@s+'.,.T n u f f f f j.q+#+#+#+*.| 4 ^.",
"8 x x v.;+/ l / / / / / < ].y.8 Z $ # >@;.T+T+:+:+)+T+T+;.:+)+<+<+T+g+)+)+;.;.++:.o e D.X+K '+T T T ).E L n.n.L t ,@t.{.{.{.8 E.1   ",
"6.'@6.q.e+C.} =.*.*.*.*.*.w.7 @ O.y )@;.T+T+)+)+:+T+T+;.:+)+<+:+:+T+<+:+:+;.;.U.H $@C !@` ~@..f.e n n L T '.T E n+{@1+'@'@'@6.M+H+f ",
"]@]@]@[.D _.^@, {.{.{.{.x J % @ ' 4+;.T+:+T+T+:+T+;.;./@T+T+T+:+:+T+:+:+/.:+;.W.(@H.P A , A 5._@/ l [ K E '.).:@f >.<@]@]@]@]@[.D U ",
"n n n t t i.f++ 7 7 7 7 7 7 7 7 , ;.T+:+)+)+T+;.;.;./@x+x+x+x+:+T+g+:+4./.:+;.{.~+H.[@}@] ] B V.* ^.1.~.e t e !.|.[ K t n n n n n n ",
"[ [ [ [ [ / Z+; | ; ; ; ; ; ; ; ; ;.T+)+<+)+T+;.;.;.;./@x+/.4.4.T+<+:+4./.:+;.Z =+|@c ]@<@]@c 1@1.^.  |.l [ 3 ( 1.: l [ [ [ [ [ [ [ ",
"      * . h h h h ; _             ;.T+:+)+<+T+;.;.;.;.x+x+/././.T+:+:+/.;.:+)+;.r s t #.T '.F K ~.[ [ |.1.|.3 / 1.                  ",
"      = (+, , , , i h             ;.T+<+<+:+T+;.;./@x+/./././.x+x+T+x+x+;.:+<+;.P+2 f t T '.T 2.t t n f |.~.K @.:                   ",
"  g < j.p 2@{ ~ A + P.m.( 3 [ C.K.;.T+:+<+)+<+;./@x+x+x+x+/.4.4./.:+/././.;.)+<+;.  |.@.t [+U E T T F e f @.e V ~.3 3 3 3 [ [ < :   ",
"  / -.e <@a+a+R 3@; = U+%.e t D+~@;.T+:+<+T+T+;.;.T+:+:+/@/@x+x+:+g+:+/.;.;.:+:+;.  1./ [ [ f n ).'.T E t -.f @.e n n n n n n -.<   ",
"  < m U '+'+L L.%.3 l a.m [+F |+.@4@;.:+T+x+x+;.;.T+T+T+:+)+)+:+T+<+:+:+;.:+<+<+)+;.. _     : %.t U U U t m ~.@.n 2.).T T 5@c.g.i+. ",
"  : 3 G n.E K u V n n e G @.t 2.6@W ;.T+w+F+F+w+F+;.;.;.T+T+T+T+;.T+T+T+;.;.:+:+:+x+;.h *     / 9.~.~.~.f -.K m %.K E s+T [.k+5.8++ ",
"  v ( f e n @.9.i.d [.<@e+i+]+_.]+N.;.T+F+F+5+T+w+;.x+x+;.;.;.;.;.;.;.;.x+;.:+:+w+F+;._@|.:             : f e V ~.@.n U [.{+7@$ $ $ ",
"  < @.0.@.u V V+m+@@+@6.8@I t.B t.w *.;.w+F+5+x+x+;.x+x+x+x+x+;./.x+x+x+x+;.:+F+w+F+;.f.m [ 1.^.^.^.^.^.  ( f -.K V !.e+q.~ 9@' ' # ",
"= j.m D+H+2 6@0@6.~+$ ~+=+H.P P H.k.l.;.x+w+F+5+w+;./././.x+/.;./.x+x+x+/.x+;.w+x+F+;.T E -.l / / / / :   _ _ G+M 6@:.j J a@$ ) J+J ",
"i y.B.H+2+O+B B )@$ }+~+6.b@c@C d@c@e@m ;.;.w+x+;.x+/.4.4./.x+;.x+x+/./././.x+;.F+;.;.,.T U e K e e 0.~.1.P.w t.Q u.X {.@ O.# J E.> ",
"y , > h Y Z ) ) $ y 4+{ c@|+f@'+'+'+).E K ;.;.;.x+4.4.4.4.4.4.x+/./.x+/.4.4.4.x+;.L L L 2.E F E L E E K C.` k.H.H.`+r+Z.z z z i ; 5 ",
"' Z q q 9 O.}+}+}+4+6.c@(.T s+s+s+s+s+T ;.x+x+/./././.4.4.4.4./.x+x+/././././././.T+u u -.n.F t V t F L e M.c@g@b@z.d+j j j w.h 4   ",
"J+F.G.! =+=+=+=+=+O b@D '+).F E 2.E E 2.;.x+/.4.4.4.4.4.4.4././.;.;.;.x+/.4.4.4.4./.T+_ J.o 6+*@j.!.U 2.L U U U t i.].m.U+U+U+U+|.|.",
"j d+z.{+{+{+{+{+{+A.g.m n.E n G u @.@.;.x+/././.4.4.4.4.x+x+;.;.;.x+x+x+x+/.4.4.4.4.4.T+E.h@@@i@j@;+>.@.@.@.@.G @.Q.: < @.K K 0.0.0.",
"U+1@=@U 0+5@5@5@E S !.3 K L -.( v v 1.;.x+/.4.4.4./././.x+;.E L K ;.;.x+x+x+/./.4././@;.Z F.E+=+p+l.].( : g g g g : |.f n E E E L L ",
"K V o.e E s+s+s+s+E %./ V L -.: ^.5 ;.T+/.4.4.4.4.4./.x+;.@.G G f |.|.;.;./@/@/@x+/.x+/@;.q W+^@L+k@D.[   l@^.l@  l @.V V n F E e G ",
"}.=@[ [ e E '+E '+U f / -.t %.m._ ;.T+x+/.4.4.4.4./.;.;.: : : : 1.m._ m.m.;./@x+/./.x+x+;.>+2 i.|+'+L m < : : 1.1.9.6+i.o+&.6+6+[ : ",
"m@N+:.: ~.@.-.-.o.@.l : a.!.X.>+;./@/@/@/.4.4.4./.x+;.m.^.^.^.^.= #+n@n@E.;./@/@x+x+x+x+;.B.m L T s+T U V -.@.[ v d.z.^@W.o@N ~@:.  ",
"G.O+P+: ( ( U+K.K.K.m.* m.} & ;.x+/@/@/@/@/././.x+T+=@3 : : g   1 v.E+J J Z.;./@/@x+x+x+/@;.U E '+).T ).E '+2.0./ W -+! G.G.A r 1   ",
"w d+G+G -.&.H 6 n@p@(+(+(+w q@;.x+/@/@/@/@/././.T+2.2.K -.G f : :.z.q.o@E.w ;./@/@x+x+/@;.;.m -.0.U T s+s+s+T L m <.j+|@|@|@|@z.:.  ",
"_ ].m L 2.f.^@8 J E+E+E+E+E+;.T+x+/@/@x+/@/@x+x+;.U E L L L K [ [ =@V+o+_ _ ;./@/@/@/@/@w+;.l : / -.|+E 5@5@5@E L U }.D D }.D V+/   ",
"  ( %.K K +. +r Q Q+v+Q+Q+Q+;.w+T+x+/./.x+x+;.;.< @.K K K K V -.-.V @.< |.~.@.;.:+:+:+:+;.;.@.< v U..@{+{+r@{+R s@V V V V K K u (   ",
"  1.: |.( U+m.J.7+(.D (.(.;.;.F+w+T+x+x+;.;.V / : |.|.U+U+U+9.6+K X+: 1.< V n.;.;.;.;.;.)+;.;.f K+>+A =+=+)@t@u+j.< < < < / ( : 1.  ",
"    ^.^.^.^.^.: f K K K ;.:+:+;.;.;.;.;.n F n.-.[ g = *.j w.l.L+ .J.^.^.|.!.K ;.)+:+:+)+:+:+;.^ >+, $ }+$ `++@$@>.%.!.%.!.[ g ^.^.  ",
"5     1.1.1.1.g ( < < ;.;.;.:+<+)+;.;.L E F E U -.U+*.7 z z r+A r.u@1.v : ( / ;.;.;.;.;.:+:+;.;.;.9 ) $ 4+@@v@U |+L L L n.V l 1.1.1.",
"> W H+!.%.!.!.!.!.f ;.:+:+:+;.;.;.)+;.e e e $.K &.` *+Z `.O.w@x@A+]+!.%.!.f [ ;.:+:+:+:+)+)+:+:+:+;.I r.q.A.=@n.T ,.T E n V @.f f f ",
"J i@..U L n.n.U U ;.;.;.)+<+<+)+;.;./ / / ( / ].` Y % ) $ ) 2@c@(.U U n.n.L n ;.;.;.)+:+)+)+w+F+:+w+;.]+f.i.9.-.2.T ).n f f n L L L ",
"+ I.<.e n e e e ;.;.x+w+F+F+:+F+w+;.. *.#+#+*.#+*+9 9 , -+y@z@M.C+n e e t E E K &.;.;.;.;.;.;.;.;.;.;.~.K V %.@.K e e %.( ~.n.s+s+'.",
". _ U+< l < < < ;.)+)+<+<+)+<+)+;.K.#+7 J x x {.% Z 7 =.B.M.V+9.< < < < f t F E S A@[.[.[.[.[.[.f.B@U+: l @.n V [ < < : 1.9.t T T T ",
"                ;.;.;.;.;.;.;.;.V v *.X -+] 2@I 7 + j _ 3 V -./         ( @.n n n n n n n n n n $.f g ^.1.~.V %.:     4 ; ^ C@b b b ",
"                  1.|.l l ~.e L -.U+h.= e+e@<.} ; . k m.: < / v         1.( l l l l l l l l l 3 l |.      : < ( 1.    | i (@P ~ ~ ~ ",
"                          : !.K f g ^.v ~.K @.|.                        * . h h h h h h h h h h | = m.                ; w , , 7 7 7 ",
"                            |.l |.1.    |.l / v                         = E., {.x x x x x x x {.7 > *                 _ . ; | | | | ",
"                                                                        . Y @ # $ $ $ $ $ $ $ # 9 6 _                               "};
