/* XPM */
static char * ngb_xpm[] = {
"32 32 611 2",
"  	c #A3A78D",
". 	c #B4B8A7",
"+ 	c #AEB2A2",
"@ 	c #6D893C",
"# 	c #779B31",
"$ 	c #799E32",
"% 	c #6B8F27",
"& 	c #799C32",
"* 	c #759930",
"= 	c #7BA034",
"- 	c #749730",
"; 	c #71942D",
"> 	c #72962D",
", 	c #769931",
"' 	c #789B32",
") 	c #70942C",
"! 	c #759A2E",
"~ 	c #72952D",
"{ 	c #779A31",
"] 	c #769B2F",
"^ 	c #72962E",
"/ 	c #74953B",
"( 	c #A0A697",
"_ 	c #B9BEBA",
": 	c #B4B7B3",
"< 	c #CBCCCB",
"[ 	c #8D8E7A",
"} 	c #A7A99B",
"| 	c #B5BAAA",
"1 	c #B0B4A7",
"2 	c #738D3F",
"3 	c #74972F",
"4 	c #73972D",
"5 	c #70942B",
"6 	c #759830",
"7 	c #7A9D35",
"8 	c #7A9E35",
"9 	c #7DA136",
"0 	c #789C32",
"a 	c #73962E",
"b 	c #75992E",
"c 	c #779C31",
"d 	c #6F932B",
"e 	c #7B9F34",
"f 	c #799B33",
"g 	c #98A38C",
"h 	c #BEC1C0",
"i 	c #B6B8AF",
"j 	c #A5A99A",
"k 	c #898A7A",
"l 	c #9C9E90",
"m 	c #AAAD9F",
"n 	c #95A083",
"o 	c #7CA035",
"p 	c #769831",
"q 	c #7EA236",
"r 	c #73972F",
"s 	c #7DA135",
"t 	c #7FA437",
"u 	c #70932C",
"v 	c #799D33",
"w 	c #6F922A",
"x 	c #395575",
"y 	c #C59E3B",
"z 	c #316291",
"A 	c #BD7B3F",
"B 	c #7F6B7A",
"C 	c #9A602C",
"D 	c #7B9E35",
"E 	c #7CA036",
"F 	c #71942C",
"G 	c #839E56",
"H 	c #ABAEA3",
"I 	c #A1A592",
"J 	c #B6BAAA",
"K 	c #A1A098",
"L 	c #75903F",
"M 	c #7CA037",
"N 	c #6F922B",
"O 	c #779B30",
"P 	c #799C34",
"Q 	c #789B33",
"R 	c #769932",
"S 	c #7DA036",
"T 	c #799D32",
"U 	c #72952E",
"V 	c #74992F",
"W 	c #C6B747",
"X 	c #7D5C27",
"Y 	c #DADB51",
"Z 	c #C59A45",
"` 	c #D6C24E",
" .	c #C6C547",
"..	c #6F9329",
"+.	c #7B9F36",
"@.	c #7EA237",
"#.	c #73982E",
"$.	c #72824B",
"%.	c #C3C5BE",
"&.	c #BABDB9",
"*.	c #9AA18B",
"=.	c #7DA234",
"-.	c #84AB39",
";.	c #759831",
">.	c #6B8E26",
",.	c #75982F",
"'.	c #82A738",
").	c #71952D",
"!.	c #343341",
"~.	c #D19E4A",
"{.	c #D7D34F",
"].	c #D8D850",
"^.	c #D8D750",
"/.	c #D6D64F",
"(.	c #CDC94B",
"_.	c #925D38",
":.	c #82A739",
"<.	c #7B9F33",
"[.	c #748E40",
"}.	c #9AA388",
"|.	c #94A47D",
"1.	c #7CA039",
"2.	c #74982D",
"3.	c #7FA438",
"4.	c #779A32",
"5.	c #769A30",
"6.	c #6D9029",
"7.	c #7FA337",
"8.	c #BA9C3A",
"9.	c #D6C44E",
"0.	c #D6D750",
"a.	c #B9B946",
"b.	c #D5C34D",
"c.	c #826B78",
"d.	c #73962F",
"e.	c #789C31",
"f.	c #7FA436",
"g.	c #789A32",
"h.	c #83AA35",
"i.	c #749830",
"j.	c #7A9F33",
"k.	c #7B9F35",
"l.	c #7DA235",
"m.	c #74982E",
"n.	c #789C33",
"o.	c #7EA235",
"p.	c #6C9026",
"q.	c #B06E31",
"r.	c #D5BA4B",
"s.	c #D4CA4E",
"t.	c #000E6B",
"u.	c #C1C146",
"v.	c #D7CB4F",
"w.	c #D8D650",
"x.	c #D29849",
"y.	c #63749C",
"z.	c #7BA035",
"A.	c #70942A",
"B.	c #73972E",
"C.	c #759B2E",
"D.	c #779C30",
"E.	c #7EA337",
"F.	c #523512",
"G.	c #7D4F9C",
"H.	c #D3C84D",
"I.	c #3444B6",
"J.	c #4058D2",
"K.	c #C08241",
"L.	c #D6D74F",
"M.	c #BF8B48",
"N.	c #573C31",
"O.	c #9D621F",
"P.	c #80A537",
"Q.	c #799E31",
"R.	c #6E912A",
"S.	c #75992F",
"T.	c #82A936",
"U.	c #427CB4",
"V.	c #2E43D1",
"W.	c #845960",
"X.	c #6B4700",
"Y.	c #1D079D",
"Z.	c #82562C",
"`.	c #69410F",
" +	c #2C49C6",
".+	c #0E1E6E",
"++	c #81A835",
"@+	c #789D31",
"#+	c #799D34",
"$+	c #7A9F32",
"%+	c #769A31",
"&+	c #7A9E33",
"*+	c #6A8E25",
"=+	c #7D563C",
"-+	c #231F53",
";+	c #1C07AD",
">+	c #2007B2",
",+	c #273077",
"'+	c #1F0BA8",
")+	c #1C1290",
"!+	c #916953",
"~+	c #6E9228",
"{+	c #749A2D",
"]+	c #7CA233",
"^+	c #70932B",
"/+	c #8D6855",
"(+	c #68462C",
"_+	c #8B5852",
":+	c #251F4F",
"<+	c #201F31",
"[+	c #201F3B",
"}+	c #5C3B42",
"|+	c #72482C",
"1+	c #A37A66",
"2+	c #74962F",
"3+	c #73962D",
"4+	c #81A737",
"5+	c #7A9E34",
"6+	c #6C9027",
"7+	c #7BA033",
"8+	c #769930",
"9+	c #789B34",
"0+	c #573510",
"a+	c #9B6538",
"b+	c #9E6438",
"c+	c #262C6F",
"d+	c #251FBA",
"e+	c #9A6531",
"f+	c #A06739",
"g+	c #000E19",
"h+	c #7A9E32",
"i+	c #759A30",
"j+	c #7A9D34",
"k+	c #7BA032",
"l+	c #72962C",
"m+	c #688B23",
"n+	c #35312E",
"o+	c #A36835",
"p+	c #6C4223",
"q+	c #384CC7",
"r+	c #89581D",
"s+	c #6C6867",
"t+	c #89695A",
"u+	c #0D0738",
"v+	c #779B33",
"w+	c #7EA336",
"x+	c #636465",
"y+	c #BCBCBB",
"z+	c #E6E4E4",
"A+	c #DDDCDC",
"B+	c #DDDCDB",
"C+	c #CFCFCF",
"D+	c #A3A2A2",
"E+	c #605756",
"F+	c #1F0AAC",
"G+	c #1E2543",
"H+	c #6D9128",
"I+	c #85AC39",
"J+	c #190B85",
"K+	c #88888F",
"L+	c #C4C4C3",
"M+	c #E1E1E1",
"N+	c #AFA7A4",
"O+	c #6F6E6A",
"P+	c #1C1376",
"Q+	c #2008B1",
"R+	c #1E07A6",
"S+	c #779B2F",
"T+	c #6D9229",
"U+	c #81A738",
"V+	c #6C8F27",
"W+	c #3C237B",
"X+	c #4D494D",
"Y+	c #281793",
"Z+	c #2B2C99",
"`+	c #323B7D",
" @	c #2E387B",
".@	c #200BAE",
"+@	c #2008B0",
"@@	c #442C37",
"#@	c #784025",
"$@	c #688B22",
"%@	c #769B30",
"&@	c #7EA334",
"*@	c #6F9429",
"=@	c #71952B",
"-@	c #6D9129",
";@	c #779B32",
">@	c #7CA134",
",@	c #6E9129",
"'@	c #344A6B",
")@	c #907C74",
"!@	c #B9B7B6",
"~@	c #4A4746",
"{@	c #282698",
"]@	c #3F5FF7",
"^@	c #302FA3",
"/@	c #241D6E",
"(@	c #1E1390",
"_@	c #894E2F",
":@	c #ED8838",
"<@	c #769B2E",
"[@	c #74982F",
"}@	c #906348",
"|@	c #442713",
"1@	c #726D6B",
"2@	c #7D5948",
"3@	c #755236",
"4@	c #241DB8",
"5@	c #2C2398",
"6@	c #BB0F00",
"7@	c #8D4A2A",
"8@	c #601475",
"9@	c #613E1E",
"0@	c #92532F",
"a@	c #F28F3B",
"b@	c #A94900",
"c@	c #7A9C35",
"d@	c #71952C",
"e@	c #7CA135",
"f@	c #36506F",
"g@	c #787878",
"h@	c #834B2A",
"i@	c #936B57",
"j@	c #2F241F",
"k@	c #3D2C2F",
"l@	c #633324",
"m@	c #B93420",
"n@	c #CF1812",
"o@	c #75492D",
"p@	c #623F29",
"q@	c #7F4F2F",
"r@	c #BF612C",
"s@	c #9F4800",
"t@	c #7DA236",
"u@	c #7B9E34",
"v@	c #7CA136",
"w@	c #345070",
"x@	c #7A7B7B",
"y@	c #D07E60",
"z@	c #545554",
"A@	c #5D3D29",
"B@	c #C8632A",
"C@	c #EA8838",
"D@	c #C05D26",
"E@	c #B85C29",
"F@	c #815030",
"G@	c #623E29",
"H@	c #804F30",
"I@	c #476C9B",
"J@	c #81A538",
"K@	c #6D9028",
"L@	c #83A939",
"M@	c #6A8E26",
"N@	c #74972E",
"O@	c #533826",
"P@	c #C28685",
"Q@	c #757677",
"R@	c #96563E",
"S@	c #5B3C29",
"T@	c #C2672E",
"U@	c #F8963F",
"V@	c #FB9A41",
"W@	c #E58236",
"X@	c #7C472A",
"Y@	c #151D1F",
"Z@	c #5B3922",
"`@	c #376B9D",
" #	c #82A839",
".#	c #82A737",
"+#	c #413237",
"@#	c #BF5F2A",
"##	c #959797",
"$#	c #403330",
"%#	c #7F4C2D",
"&#	c #525252",
"*#	c #6F6967",
"=#	c #4B362C",
"-#	c #3F2D22",
";#	c #352520",
">#	c #382922",
",#	c #4B2A1B",
"'#	c #34608E",
")#	c #799C33",
"!#	c #799A39",
"~#	c #83A741",
"{#	c #759734",
"]#	c #6E9229",
"^#	c #7B9E36",
"/#	c #6B3721",
"(#	c #DE853A",
"_#	c #A5704D",
":#	c #553425",
"<#	c #613C29",
"[#	c #CBA898",
"}#	c #E5C1B2",
"|#	c #5F493E",
"1#	c #1C1F20",
"2#	c #834B2B",
"3#	c #C56229",
"4#	c #784221",
"5#	c #315C88",
"6#	c #6FA9EB",
"7#	c #70893E",
"8#	c #949A77",
"9#	c #A6AD8A",
"0#	c #90957C",
"a#	c #929D76",
"b#	c #A0A686",
"c#	c #85985D",
"d#	c #799E30",
"e#	c #AD816A",
"f#	c #A55632",
"g#	c #B55A28",
"h#	c #5E3C28",
"i#	c #2F2927",
"j#	c #B78E7B",
"k#	c #9B7B6D",
"l#	c #DCAE99",
"m#	c #543520",
"n#	c #D76828",
"o#	c #B85E2C",
"p#	c #9E582F",
"q#	c #2A2151",
"r#	c #080058",
"s#	c #81A53B",
"t#	c #878E73",
"u#	c #B6BBB7",
"v#	c #B4B9A9",
"w#	c #A2A58C",
"x#	c #ACADA3",
"y#	c #B6BAAB",
"z#	c #A1A78E",
"A#	c #6F912C",
"B#	c #80A438",
"C#	c #769A2F",
"D#	c #83AA37",
"E#	c #838996",
"F#	c #D6B2A2",
"G#	c #765544",
"H#	c #6A3E26",
"I#	c #72492B",
"J#	c #C59883",
"K#	c #DAAD98",
"L#	c #B38771",
"M#	c #5E3C27",
"N#	c #CE6529",
"O#	c #96532D",
"P#	c #694129",
"Q#	c #362825",
"R#	c #1F1099",
"S#	c #83AB36",
"T#	c #7A9B38",
"U#	c #868B68",
"V#	c #B5B9B0",
"W#	c #C5C7C5",
"X#	c #A0A094",
"Y#	c #A4A59C",
"Z#	c #BBBFBC",
"`#	c #A2A894",
" $	c #72952F",
".$	c #6B6081",
"+$	c #BA581E",
"@$	c #D07733",
"#$	c #F2903C",
"$$	c #F89840",
"%$	c #C9702E",
"&$	c #6F4428",
"*$	c #6F452A",
"=$	c #6C442B",
"-$	c #483225",
";$	c #68422B",
">$	c #784B2E",
",$	c #402A5A",
"'$	c #749731",
")$	c #788356",
"!$	c #878977",
"~$	c #9CA08F",
"{$	c #7C7A64",
"]$	c #A4AB8B",
"^$	c #C8C9C6",
"/$	c #A7A99E",
"($	c #7D9846",
"_$	c #749632",
":$	c #623018",
"<$	c #E88437",
"[$	c #F99A41",
"}$	c #E88739",
"|$	c #D4823A",
"1$	c #D5833B",
"2$	c #A55226",
"3$	c #2C201A",
"4$	c #382316",
"5$	c #6C4227",
"6$	c #825030",
"7$	c #43291B",
"8$	c #84AA38",
"9$	c #798853",
"0$	c #B0B4A6",
"a$	c #B2B6A6",
"b$	c #868570",
"c$	c #969D7F",
"d$	c #BBBDB5",
"e$	c #9A9D8D",
"f$	c #ACB19E",
"g$	c #828D62",
"h$	c #759732",
"i$	c #444255",
"j$	c #95542E",
"k$	c #DC6D2A",
"l$	c #94552F",
"m$	c #8D522F",
"n$	c #312621",
"o$	c #663B1B",
"p$	c #804E2E",
"q$	c #7A4C2F",
"r$	c #1B130F",
"s$	c #6F462C",
"t$	c #7B4C2E",
"u$	c #73482C",
"v$	c #213954",
"w$	c #789D32",
"x$	c #708248",
"y$	c #BFC1BB",
"z$	c #B8BCBA",
"A$	c #9D9D95",
"B$	c #BEC0B0",
"C$	c #C5C8C0",
"D$	c #AAAE96",
"E$	c #B6BAB5",
"F$	c #97A874",
"G$	c #6F932A",
"H$	c #7E3D1A",
"I$	c #DA6928",
"J$	c #CF6529",
"K$	c #A2582D",
"L$	c #2D1F18",
"M$	c #92582B",
"N$	c #5B3625",
"O$	c #1A1E20",
"P$	c #1F1F1F",
"Q$	c #0D1012",
"R$	c #1C196A",
"S$	c #190B8B",
"T$	c #7FA536",
"U$	c #779C2F",
"V$	c #799D35",
"W$	c #6D8E2D",
"X$	c #98998B",
"Y$	c #D4D4D4",
"Z$	c #9A9991",
"`$	c #B7BAAF",
" %	c #B8BCB3",
".%	c #ACB090",
"+%	c #A3A68E",
"@%	c #899F5D",
"#%	c #203D5A",
"$%	c #0E1772",
"%%	c #10136F",
"&%	c #0D102D",
"*%	c #1D1D1D",
"=%	c #202020",
"-%	c #0C0C13",
";%	c #210FA3",
">%	c #1D00A4",
",%	c #789B31",
"'%	c #7CA033",
")%	c #779A36",
"!%	c #949883",
"~%	c #A4A799",
"{%	c #7C7A69",
"]%	c #A5A597",
"^%	c #C6C7BF",
"/%	c #B0B39A",
"(%	c #878D72",
"_%	c #799B37",
":%	c #86AD3A",
"<%	c #B68871",
"[%	c #6149A2",
"}%	c #2212B3",
"|%	c #3E5CF3",
"1%	c #2728B8",
"2%	c #151500",
"3%	c #202122",
"4%	c #2B415C",
"5%	c #2B415B",
"6%	c #2A405B",
"7%	c #1D395C",
"8%	c #2E5687",
"9%	c #74844E",
"0%	c #BBBEB6",
"a%	c #B5B9A9",
"b%	c #9B9B92",
"c%	c #818369",
"d%	c #9DA190",
"e%	c #868A7F",
"f%	c #779447",
"g%	c #543626",
"h%	c #2C201B",
"i%	c #1D2A87",
"j%	c #243898",
"k%	c #151672",
"l%	c #1B1300",
"m%	c #7DA137",
"n%	c #6C9028",
"o%	c #6A8D25",
"p%	c #7D9947",
"q%	c #99A17B",
"r%	c #BABBB7",
"s%	c #BDBFB9",
"t%	c #A6A59D",
"  . + @ # $ % & * = - ; > = , ' ) ! ~ , { ] ^ # , ] / ( _ : < [ ",
"} | 1 2 3 4 # 5 6 { 7 ) 8 9 0 a , 9 7 - 6 b c d 3 e f g h i j k ",
"l m n o p q r s t 6 u v w x y z A B C D 6 E * e 9 , F G H I J K ",
"L M N O P Q R 7 S T U V W X Y Z Z `  ...P Q 6 +.@.#., # $.%.&.*.",
"=.-.a ^ ;.>.,.'.$ ).P !.~.{.].^.^.]./.(._.% 3 :.<.5 P ) [.}.|.1.",
"2.3.4.5.-.{ 6., 7.0 P 8.9.0.a.].].].].b.c.~ d.6 q e.P E f.g.h.T ",
"i.j.k.l.m.a n.# D o.p.q.r.s.t.u.v.].w.x.y.d.Q # D z.A.l.B.i.;.B.",
"^ N l.C.D.3 s t 7 U E.F.G.H.I.J.K.L.M.N.O.* # E.P U @.P.Q.D $ ] ",
"a 0 6 R.<.q S.T.> @.D U.V.W.X.Y.Z.`. +.+T o 4.++F E 8 P @+v #+Q.",
"d $+~ %+4.&+*+d U 9 7 =+-+;+>+,+,+'+)+!+g.j.~+F 6 t 7 v 6 = S.w ",
"{+]+u &+U 9 ^+q <.R.^+/+(+_+:+<+[+}+|+1+2+z.> o c 5 3+4+6 5+6+<.",
"7+T 2+e 3 6 P 8+$ &+9+0 0+a+b+c+d+e+f+g+- i.7 { h+i+j+&+4.F 7 ]+",
"9 3 P { P u +.k+l+i.P 3 m+n+o+p+q+r+s+t+u+; P =.l+4.v+a >.; ;.w+",
"2.&+3 E t 3 6 * 7+5.4.&+x+y+z+A+B+C+D+E+F+G+~ - j.j.;.T = - R.H+",
"8 @.~+D.T 8+I+S 4.q m.T J+K+L+M+M+N+O+P+Q+R+f.E %+E S+j.b 6 a 0 ",
"T+* o U+O j+o v U V+b W+X+Y+Z+`+`+ @.@+@>+@@#@# ; $@%@&@*@~ =@&+",
"-@l+;@;.>@<.,@>@8+&+'@)@!@~@{@]@]@^@/@+@(@_@:@h+8+8+, w <@S.[@>@",
"d.9 8 ;@6 B.O F ;.# }@|@1@2@3@4@5@6@7@8@9@0@a@b@3 e c@d@j+E.c 4.",
"n.r 3 w+- 9 N e@@.i.f@g@h@i@j@k@l@m@n@o@p@q@r@s@9 a F t@U u@6 v@",
"l.E.N T P D , 8 3.l.w@x@y@z@A@B@C@D@E@F@G@q@H@I@J@v 4.= 4.K@7 3 ",
"$+L@3 B., M@N@'.T > O@P@Q@R@S@T@U@V@W@X@Y@Z@`@ #j.F P )., ^+) Q.",
"=@t %+%@.#' K@, @.+#@###$#%#&#*#=#-#;#>#,#'#d.;.9 >@)#E.w+!#~#{#",
"w ;@9 k.=.]#P e ^#/#(#_#:#<#[#}#|#1#2#3#4#5#6#j.+.D ! # 7#8#9#0#",
"a#b#c#d#2.5.= 7.P e#f#g#h#i#j#k#l#m#n#o#p#q#r#7.P ^+9 s#t#u#v#w#",
"x#y#z#A#&+B#C#D#) E#F#G#H#I#J#K#L#M#N#O#P#Q#R#S#F v@7 T#U#V#W#X#",
"Y#Z#`# $r 5.p.F ;..$+$@$#$$$%$&$*$=$-$;$>$q@,$^+, 9 7 '$)$!$~${$",
"]$^$/$($_$o ).e &+:$<$[$}$|$1$2$3$4$5$6$F@F@7$5+# r 4 8$9$0$a$b$",
"c$d$e$f$g$h$7 i.0 i$j$k$l$m$n$o$p$q$r$s$t$u$v$8+@+# 7 w$x$y$z$A$",
"B$C$D$E$F$G$D w+! a H$I$J$K$L$M$N$O$P$Q$R$S$P T$U$3 V$%+W$X$Y$Z$",
"`$ %.%+%@%S.v 4.# C##%$%%%&%*%=%=%=%=%-%;%>%%+R ,%'%F @+)%!%~%{%",
"]%^%/%(%_%* :%E 4.<%[%}%|%1%2%=%3%4%5%6%7%8%P.9 8+o C#$ 9%0%a%b%",
"c%d%e%f%l.D E.7+,@g%h%i%j%k%l%O M@r 7.t e@D m%c n%o%7+p%q%r%s%t%"};
