/* XPM */
static char * p_win_0_xpm[] = {
"66 66 334 2",
"  	c #AA834B",
". 	c #A88047",
"+ 	c #A37A3D",
"@ 	c #9F7535",
"# 	c #9F7533",
"$ 	c #9F7534",
"% 	c #A07737",
"& 	c #A57D41",
"* 	c #A9824A",
"= 	c #A88148",
"- 	c #A88046",
"; 	c #A78046",
"> 	c #A67E43",
", 	c #A2793B",
"' 	c #9F7433",
") 	c #A07635",
"! 	c #A27B3A",
"~ 	c #A47E3D",
"{ 	c #A57F3D",
"] 	c #A6803F",
"^ 	c #A98446",
"/ 	c #AC874C",
"( 	c #AC864C",
"_ 	c #A98249",
": 	c #AB854C",
"< 	c #AC874D",
"[ 	c #AD894D",
"} 	c #A98348",
"| 	c #A77F46",
"1 	c #A88147",
"2 	c #AB854A",
"3 	c #AD884D",
"4 	c #A98149",
"5 	c #AA824A",
"6 	c #A57C41",
"7 	c #A2793C",
"8 	c #A2793A",
"9 	c #A07637",
"0 	c #A17938",
"a 	c #A98543",
"b 	c #AE8E4A",
"c 	c #AF8F4C",
"d 	c #B1914E",
"e 	c #B19150",
"f 	c #AE8B4E",
"g 	c #AB844C",
"h 	c #A77F45",
"i 	c #A37B3E",
"j 	c #A57D42",
"k 	c #A98148",
"l 	c #AC884D",
"m 	c #B08F4F",
"n 	c #B29251",
"o 	c #AF8D4D",
"p 	c #A78243",
"q 	c #A2783B",
"r 	c #A57E40",
"s 	c #AC894A",
"t 	c #B29351",
"u 	c #AF8C4F",
"v 	c #AB844B",
"w 	c #A47B3F",
"x 	c #A2783A",
"y 	c #9F7635",
"z 	c #A17738",
"A 	c #A37B3B",
"B 	c #A68140",
"C 	c #AD8B49",
"D 	c #B29350",
"E 	c #B49652",
"F 	c #B49753",
"G 	c #AF8E4F",
"H 	c #A88246",
"I 	c #A37B3D",
"J 	c #A17839",
"K 	c #B19050",
"L 	c #B39552",
"M 	c #B08F4D",
"N 	c #A98544",
"O 	c #A57E3D",
"P 	c #A47D3C",
"Q 	c #A78241",
"R 	c #AD8C4A",
"S 	c #B29451",
"T 	c #B59853",
"U 	c #B39451",
"V 	c #B08F50",
"W 	c #A88146",
"X 	c #A47B3E",
"Y 	c #A37A3C",
"Z 	c #A07636",
"` 	c #A88145",
" .	c #AC8949",
"..	c #AE8D4B",
"+.	c #AE8C4D",
"@.	c #AF8D4F",
"#.	c #B49653",
"$.	c #B19151",
"%.	c #AF8C4E",
"&.	c #AD8A4C",
"*.	c #A67E44",
"=.	c #A67F44",
"-.	c #B08E4F",
";.	c #AE8B4D",
">.	c #AE8E4B",
",.	c #B69953",
"'.	c #B59953",
").	c #B59753",
"!.	c #AE8C4E",
"~.	c #AE8A4E",
"{.	c #A1783A",
"].	c #AB864B",
"^.	c #AA824B",
"/.	c #B2934F",
"(.	c #AF8F4D",
"_.	c #AB874A",
":.	c #AA8449",
"<.	c #AD8B4B",
"[.	c #B1924E",
"}.	c #B29450",
"|.	c #AB864C",
"1.	c #AA844B",
"2.	c #B49552",
"3.	c #292929",
"4.	c #4A4A4A",
"5.	c #AA8646",
"6.	c #A47D3E",
"7.	c #A57F3F",
"8.	c #A78240",
"9.	c #A88342",
"0.	c #AB8748",
"a.	c #AD8A4D",
"b.	c #B09050",
"c.	c #AD8A4E",
"d.	c #B39450",
"e.	c #B1924F",
"f.	c #AA8549",
"g.	c #AD894B",
"h.	c #B0904E",
"i.	c #AE8C4C",
"j.	c #A88149",
"k.	c #AF8E4E",
"l.	c #AB864A",
"m.	c #AC874B",
"n.	c #B0904F",
"o.	c #AB874B",
"p.	c #AC884C",
"q.	c #A78045",
"r.	c #A47D3D",
"s.	c #A78144",
"t.	c #AA834A",
"u.	c #B39452",
"v.	c #B08E50",
"w.	c #AB8849",
"x.	c #A88443",
"y.	c #A57F40",
"z.	c #A47C3E",
"A.	c #A57E3F",
"B.	c #A68040",
"C.	c #A47C3F",
"D.	c #A57D43",
"E.	c #AB8649",
"F.	c #A67F42",
"G.	c #A78043",
"H.	c #AC884B",
"I.	c #AC874A",
"J.	c #A67F43",
"K.	c #9E7433",
"L.	c #A3793D",
"M.	c #AC8A49",
"N.	c #AF8D4E",
"O.	c #A47C40",
"P.	c #A17838",
"Q.	c #A27A3A",
"R.	c #A37C3B",
"S.	c #A68042",
"T.	c #AA854A",
"U.	c #A27A3B",
"V.	c #AA844A",
"W.	c #B19250",
"X.	c #AF8E4D",
"Y.	c #A98248",
"Z.	c #A67E45",
"`.	c #AD894E",
" +	c #AC894C",
".+	c #A88144",
"++	c #A88245",
"@+	c #A57E41",
"#+	c #AA8548",
"$+	c #A98447",
"%+	c #A17739",
"&+	c #9E7432",
"*+	c #A88345",
"=+	c #AC8947",
"-+	c #A37B3A",
";+	c #080808",
">+	c #AB8749",
",+	c #A67E41",
"'+	c #A67D43",
")+	c #A98545",
"!+	c #A78242",
"~+	c #A57D3F",
"{+	c #A37A3E",
"]+	c #A27A39",
"^+	c #A98347",
"/+	c #A67E42",
"(+	c #A27A3C",
"_+	c #B49752",
":+	c #AF8F4B",
"<+	c #A88247",
"[+	c #A98247",
"}+	c #EF7B00",
"|+	c #CE3900",
"1+	c #B39652",
"2+	c #A07736",
"3+	c #AC8A47",
"4+	c #AD8A4B",
"5+	c #A57E3E",
"6+	c #A37B3F",
"7+	c #A47C41",
"8+	c #9F7434",
"9+	c #AE8D4A",
"0+	c #AE8B4C",
"a+	c #EFEF00",
"b+	c #9E7332",
"c+	c #B39551",
"d+	c #A88543",
"e+	c #A78044",
"f+	c #A57E42",
"g+	c #A17837",
"h+	c #B1914F",
"i+	c #AE8D4D",
"j+	c #A37C3D",
"k+	c #A27938",
"l+	c #B39651",
"m+	c #AA8746",
"n+	c #A78042",
"o+	c #AC884A",
"p+	c #A88344",
"q+	c #B29151",
"r+	c #B69954",
"s+	c #AB8846",
"t+	c #AA8745",
"u+	c #AB8946",
"v+	c #AB8947",
"w+	c #B29250",
"x+	c #A17939",
"y+	c #AA834C",
"z+	c #A78143",
"A+	c #A98644",
"B+	c #A88343",
"C+	c #AD8B4C",
"D+	c #AA8645",
"E+	c #AD8B4A",
"F+	c #B1904F",
"G+	c #A27939",
"H+	c #A98349",
"I+	c #AC894B",
"J+	c #AB8747",
"K+	c #A07738",
"L+	c #A68041",
"M+	c #AA8547",
"N+	c #AA8349",
"O+	c #AB8847",
"P+	c #A98444",
"Q+	c #AA8747",
"R+	c #A47D3F",
"S+	c #A98643",
"T+	c #A98546",
"U+	c #BD6B39",
"V+	c #6B7B7B",
"W+	c #EFDEBD",
"X+	c #B08F4E",
"Y+	c #A57C40",
"Z+	c #AE8A4D",
"`+	c #B39351",
" @	c #181818",
".@	c #B0914E",
"+@	c #8C1800",
"@@	c #A77F44",
"#@	c #DEAD7B",
"$@	c #0018EF",
"%@	c #AB854B",
"&@	c #AD8A4A",
"*@	c #A68240",
"=@	c #AD8C4B",
"-@	c #B0914D",
";@	c #A98346",
">@	c #B19251",
",@	c #B0904D",
"'@	c #6B0000",
")@	c #AD894C",
"!@	c #A67F45",
"~@	c #A57F3E",
"{@	c #AA8647",
"]@	c #9F7634",
"^@	c #AC8B48",
"/@	c #AC8948",
"(@	c #A47C3D",
"_@	c #B49651",
":@	c #AA8448",
"<@	c #AE8D4C",
"[@	c #AF8E4B",
"}@	c #A88048",
"|@	c #A37D3B",
"1@	c #A88442",
"2@	c #A78341",
"3@	c #A57D3E",
"4@	c #A07836",
"5@	c #A27B39",
"6@	c #AC8A48",
"7@	c #AD8C49",
"8@	c #AD8B48",
"9@	c #AF8E4C",
"0@	c #B59752",
"a@	c #A9824B",
"b@	c #A9834A",
"c@	c #AA8845",
"d@	c #A47B40",
"e@	c #A67F41",
"f@	c #A47B41",
"g@	c #AA8744",
"h@	c #AB8A47",
"i@	c #B08E4E",
"j@	c #A37C3C",
"k@	c #AB8848",
"l@	c #B0904C",
"m@	c #A17937",
"n@	c #A5803E",
"o@	c #A67F40",
"p@	c #A78140",
"q@	c #AA8846",
"r@	c #B2924F",
"s@	c #AC8B49",
"          . + @ # $ $ $ # % & *                                                                                                     ",
"  * = - ; > , $ ' ) ! ~ { ] ^ / (           _ . ; ; = *     : < [ [ [ [ / } ; | 1 2 3 [ 3 3 3 3 3 [ [ [ 3 (   4 . = 5               ",
"  = 6 7 7 8 9 $ ' 0 a b c c d e f g       5 h i , 7 j k     l m n n n n o p 7 q r s e t n n n n n n n t e u v h w j 4               ",
". > x $ $ y z 8 A B C D E F E t G [ l 3 3 / H I J , 6 =     3 K L F F L M N O P Q R S F T T T T T E U U t V [ W X 6 k               ",
"Y x Z # ' % w `  ...+.@.t #.$.%.G e n n n e &.H *.=.. *     : [ -.L L m ;...>.b ..+.@.t T ,.'.'.).n !.~.f -.K &.H . *               ",
"{.{.J J J + h ].-.e @.~.m n G ~.K E E L E E K ( ^.  v ( ( v g / f e e !.f K D /.(._.:.<.d [.[.}.t %.: : 3 G n @.: ^.  : / |.1.v ( < ",
"*.*.*.*.*.h 4 g 3 !.V K @.!.G e 2.).t -.n E e <   1.[ m @.< < G V @.3.4.K G &.5.Q 6.X 7.8.8.9.0.[ < : a.V m !.l g     3 -.@.( < -.e ",
". = _   : |.v 1.|.[ b.n @.c.-.t d.e.<.f.g.h.i.:.j.  c.e k.l.m.n.m o.3.4.K p.q.Y Z $ ) z 8 A r.s.t.  g !.e @.|.      1.a.e K ~.f e u.",
"i j = ( @.-.3 ( f V -.@.m K v.!.w.x.y.z.A.Q B.C.D.4 ( a.E.F.G.H.I.J.3.4.4.s.7 9 ' K.Z L.J.5.M._.  ^.  < ~.l   ^.      ( ~.G K K @.u ",
"@ , h / V K p.2 N.e &.2 N.e +.} O.P.y ) % J Q.R.S.T.< / H U.7 =.h i + 3.4.Y y $ @ Z , > V.N.W.@.< ( ( / < < ( 1._ _     v [ h.X.l.Y.",
"K.{.Z.: `. +.+F.E.&.++@+#+&.$+w %+$ &+$ {.& *+=+..m K m 0.-+Z 4.4.6 6 3.4.9 K.K.Z + ;+;+v ;+u m K K K K K K m >+,+'+4     :.)+!+~+{+",
"]+6.^+( < :.z.8 /+- O.(+/+W O.% $ $ y %+O.Y.a.W.L _+T _+:+B 3.4.4.<+[+3.3.;+;+;+, *.;+}+;+|+;+-.U E _+E L E 1+R ] @+Y.  4 > , 2+) ) ",
"3+R X.V V 4+5+Z {.6+7+6 O.{+%+8+&+@ , & ; t.< u n F ,.T }.9+3.4.4.0+;.3.;+|+}+|+;+;+|+a+;+}+a+;+;+;+F ;+;+n _+/.R w.V.. 6 q @ b+&+K.",
"U c+E F ).[.d+]+z (+e+Y.f+8 P.0 g+J 6 =     g / @.U F T T E h+3.4.K e a.;+;+|+}+|+|+}+a+|+a+}+;+a+;+;+a+;+%.U c+/.i+V.=.j+]+]+k+k+k+",
"G K E '.'.l+:+m+n+G.o++.#+F.p+m+p+> ; t.  g 3 @.v.-.q+E '.r+#.3.4.4.-.V 3.;+;+|+}+}+}+}+|+a+;+}+a+;+a+}+;+< !.<.s+!+r S.t+u+u+u+v+v+",
"/ f n E T T _+D ;./ -.w+!.m.N.h++.V.*   * t.&.h+k.m.a.t E E E L 3.4.3.K 3.3.;+;+|+}+}+|+}+a+}+a+}+|+a+;+1.g 1.q.I x+! x.(.c+c+c+U }.",
"-.-.-.K L T r+).t V -.-.m V V -.`.: y+  . /+z+A+B+@+H C+-.-.-.-.f 3.3.3.;+;+|+}+a+a+}+}+}+a+a+a+|+a+}+;+1.^.* | j S.D+E+k.t ).#.q+V ",
"}.F+a.[ e E F E E t f 3 -.n @.(   * * 4 j {.g+G+]+Q.@+H+: : : : v t.3.3.;+|+;+;+;+|+}+}+}+}+a+a+}+a+;+|+;+;+:   t.I+h.X.H.a.W.e [ : ",
"u+J+:.: ~.-.m m V @.l : ~.@.`.  | j & 6 , Z K+i L+N M+N+^.^.^.^.= *.6 7+3.;+3.3.3.;+|+}+}+}+}+a+}+}+|+;+a+;+@.[ : f.O+P+/+S.)+Q+V.  ",
"Q.R+<+: ( / ( |.|.:   t.V.1.1.k & J 9 % Z % {+1 &.h+n.l v v g   . C.G+J 3.;+;+3.3.;+;+;+}+a+}+a+a+}+|+a+|+;+L V / W 6.! Q.Q.A r 1   ",
"6+J.o+N.@.~.|.^.^.* h j 6 6 j O., $ &+$ z i *.t.u 2.L V @.@.c.: N+)+9.;+;+;+;+;+;+;+}+a+a+3.3.3.3.}+}+|+;+,.T u.m 4+t+a S+S+S+T+N+  ",
"k o.F+2.E n f g   _ & 8 J J J %+% Z @ % C.1 t.1.f U F E E 2.e [ [ n.h.;+;+;+;+U+;+;+;+}+3.3.V+W+W+3.|+;+F ).F E L U D D }.}./.X+p.v ",
"  [ t T '.E e f ( t.^ 9.y.X {+i w w w Y+$+Z+`.: 3 -.`+;+;+ @3.3. @ @;+;+3.;+U+U+;+}+}+;+;+;+V+V+W+V+;+K K K K K K K e u.).#.n V @.u ",
"  3 n ).T T E n ~./ N..@&.H+= = = 1 . Y.&.e N.;+;+;+;+;+3.3.4.4.3. @;+3.;+;+U+;+U+U+;++@V+;+;+3.V+V+;+< ( ( ( ( ( ( / @.U n f f e u.",
"  < @.n E T '._+e -.U F n u < 1.= @@;+;+;+;+3.3.3.3.3.4.4.4.3.3.3.3.;+;+;+;+;++@+@+@#@#@W+$@+@U+;+;+a.<   ^.^.^.^.^.  3 -.u ( < @.e ",
"t.  %@Z+n ).T F 2.L E F E t f t.;+;+3.3.3.3.;+;+;+3.4.V+V+V+4.3.3.3.;+;+;+;+;++@+@U++@U+W+$@U++@;+d.t @.|.  1.1.1.    1.|.%@  1.|./ ",
"> '+'+H 0+K $.$.q+q+$.$.n n.;+;+;+3.3.4.V+V+4.3.3.3.V+V+4.4.3.3.3.;+ @ @;+3.;+;++@+@+@+@#@W+W++@;+,.T n u f f f f l.q.'+'+'+*.| 4 ^.",
"8 x x C.^+/ l / / / / / < ;+;+4.4.3.3.3.3.3.;+;+3.3.3.3.3.3.3.3.3.;+3. @;+;+3.;+;+;+V+W++@#@#@;+T T ).E L u.u.L t &@A.{.{.{.8 O.1   ",
"8.*@8.x.o+p.} =.*.*.*.*.;+U+U+;+3.4.3.;+;+;+;+;+;+;+;+;+3.3.;+;+;+3.4.4. @;+;+;+;+;+;+ @ @ @;+h.e n n L T '.T E w+=@d+*@*@*@8.P+H.f ",
"-@-@-@[.D (.B+, {.{.{.;+#@W+W+#@;+4.;+;+;+Z+V L n f ;+;+;+;+3.3.3.3.4.4.4.3.3.;+;+3.;+;+;+A 7.;@/ l [ K E '.).>@f ;.,@-@-@-@-@[.D U ",
"n n n t t k.p++ 7 7 ;+#@W+W+#@U+U+;+;+;+u ( c.K @.( 3 b.t ;+;+3.3.4.4.4.4.4.3.;+3.;+;+;+;+] B ++* ^.1.~.e t e !.|.[ K t n n n n n n ",
"[ [ [ [ [ / H+; | ; ;+#@U+#@#@+@U+;+V./ ( 1.: < ( 1.: < [ ;+'@;+;+;+3.3.4.4.3.;+3.;+;+;+,@-@c )@1.^.  |.l [ 3 ( 1.: l [ [ [ [ [ [ [ ",
"      * . h h h h ; ;+#@U+#@U+;+;+;+    _ - | | | h h h h ;+'@'@+@+@;+;+;+;+;+;+;+;+;+;+T '.F K ~.[ [ |.1.|.3 / 1.                  ",
"      = 7+, , , , i h ;+;+;+;+        * !@+ , , , , , , , ;++@|+}+}+|++@+@'@;+3.;+3.;+t T '.T 2.t t n f |.~.K @.:                   ",
"  g < l.p ~@{ ~ A + Z.t.( 3 [ p.V.1 ; h w Z ' $ 0 P { { { ;+'@'@+@|+|+|++@+@;+4.3.+@;+@.t `+U E T T F e f @.e V ~.3 3 3 3 [ [ < :   ",
"  / -.e ,@:+:+R M+; = %@%.e t F+{@z., , z $ K.]@~@^@c :+;+'@+@|+|++@+@'@'@;+4.;++@;+1./ [ [ f n ).'.T E t -.f @.e n n n n n n -.<   ",
"  < m U _+_+L W.%.3 l c.m `+F c+/@(@{.8 A P P { t+h.U ;+'@'@'@'@'@+@'@'@;+3.4.;++@;+. _     : %.t U U U t m ~.@.n 2.).T T _@e.i.:@. ",
"  : 3 G u.E K u V n n e G @.t 2.<@W *.q.{@R [@>.<@f f ;+'@'@+@+@+@|+|++@;+4.3.;+;+;+w h *     / a.~.~.~.f -.K m %.K E r+T [.t+7.j++ ",
"  v ( f e n @.a.k.d [.,@o+:@4+(.4+Y.}@  ~.W.U t -.( ;+3.3.3.+@+@|+}+}++@;+4.3.;+3.;+;+;@|.:             : f e V ~.@.n U [.3+|@$ $ $ ",
"  < @.b.@.u V X+v+1@2@8.3@I A.B A.w *.5 < ~.u f 3 g ;+;+;+;+3.3.3.3.3.3.4.3.3.;+3.;+;+h.m [ 1.^.^.^.^.^.  ( f -.K V !.o+x.~ 4@' ' # ",
"= l.m F+H.2 <@>.8.2+$ 2+]+R.P P R.r.s.].|.1.t.Y.= = ;+'@'@'@;+ @ @;+;+;+;+;+;+;+3.3.;+T E -.l / / / / :   _ _ I+M <@:.j J ]@$ ) K+J ",
"i J._.H.e+R+B B 5@$ b+2+8.6@7@C 8@7@9@m f 1.h w + ;+'@|+|+'@'@'@'@'@;+'@'@+@+@;+;+;+;+,.T U e K e e b.~.1.Z.w A.Q B.X {.@ K.# J O.> ",
"y , > h Y Z ) ) $ y g+{ 7@c+0@_+_+_+).E K p.q.Y G+;++@+@+@|+|++@+@+@+@;+|++@+@+@+@'@;+;+;+E F E L E E K p.` r.R.R.-+x+%+z z z i ; 5 ",
"' Z q q 9 K.b+b+b+g+8.7@/.T r+r+r+r+r+T 2.K o+q.;++@|+|+|++@+@|+|+|++@;+|++@|++@'@'@|+|+|+;+;+t V t F L e X.7@^@6@5.G.j j j D.h 4   ",
"K+P.Q.! ]+]+]+]+]+O 6@D _+).F E 2.E E 2.2.U -.p.;++@|+|+|++@+@+@'@|+;++@|++@+@'@+@|+}+}+}+|+|+;+;+!.U 2.L U U U t k.].t.%@%@%@%@|.|.",
"j G.5.3+3+3+3+3+3+M.i.m u.E n G u @.@.@.@.@.V ;++@|+|+|+|+|+|++@|++@;+|++@'@'@+@+@|+|+|+}+}+}+|++@;+;.@.@.@.@.G @.`.: < @.K K b.b.b.",
"%@)@n.U l+_@_@_@E S !.3 K L -.( v v 1.t.H+V.&.;++@|+}+}+}+}+|+|++@+@;+'@'@'@+@+@+@+@+@+@|+|+}+}+|++@;+( : g g g g : |.f n E E E L L ",
"K V v.e E r+r+r+r+E %./ V L -.: ^.5 | 6 w O.;++@|+}+}+}+}+}+|++@;+;+;+;+;+;+'@'@'@+@+@+@+@+@|+}+}+|+;+[   a@^.a@  l @.V V n F E e G ",
"}.n.[ [ e E _+E _+U f / -.t %.t._ = 6 ;+;+;++@|+}+}+}+}+}+|++@;+;+t._ t.t.b@;+;+;+;+'@'@'@+@+@|+|++@;+m < : : 1.1.a.h+k.m.&.h+h+[ : ",
"c@Q+:.: ~.@.-.-.v.@.l : c.!.#+/+;+;+;+'@'@'@|+|+}+}+}+}+|++@;+;+= '+d@d@O.O.i z # K.;+;+'@'@+@+@+@'@;+U V -.@.[ v f.5.B+@+e@N {@:.  ",
"Q.R+<+: ( ( %@V.V.V.t.* t.}  @ @+@+@'@'@+@+@|+|+}+}+}+|++@;+g   1 C.G+J J %+z % Z Z ;+'@'@'@'@+@'@;+T ).E _+2.b./ W 6.! Q.Q.A r 1   ",
"w G.I+G -.&.H 6 d@f@7+7+;+;+;+'@+@+@'@'@+@+@|+|+}+}+|++@;+G f : :.5.x.e@O.w w d@d@w ;+'@'@'@+@'@'@;+T r+r+r+T L m <.s+g@g@g@g@5.:.  ",
"_ ].m L 2.h.B+8 J G+G+;+;+U+;+'@+@'@'@+@+@+@|+|+|+|++@;+L L K [ [ n.X+m._ _ N+N+N+H+;+'@+@+@+@'@'@;+c+E _@_@_@E L U }.D D }.D X+/   ",
"  ( %.K K +.*+r Q S+;+3.3.;+;+'@|++@'@+@+@+@+@|+|++@;+K K K V -.-.V @.< |.~.@.G @.@.;+'@|+|+'@'@'@;+/@3+3+h@3+R i@V V V V K K u (   ",
"  1.: |.( %@t.T.i+;+3.3.3.;+ @ @|++@+@|+|++@+@+@;+;+|.%@%@%@a.h+K Z+: 1.< V u.L L L ;+'@'@+@'@+@;+;+A ]+]+5@j@z+l.< < < < / ( : 1.  ",
"    ^.^.^.^.^.: f ;+3.3.;+;+;+;++@'@'@+@+@;+;+;+[ g = *.j D.s.O+ .T.^.^.|.!.K K K K K ;+;+;+;+;+;+, $ b+$ -+2@k@;.%.!.%.!.[ g ^.^.  ",
"5     1.1.1.1.g ;+;+3.;+;+;+;+;+;+;+;+;+;+F E U -.%@*.7 z z x+A y.[+1.v : ( / / ( |.;+3.;+;+;+;+;+9 ) $ g+1@l@U c+L L L u.V l 1.1.1.",
"> W H.!.%.!.!.!.;+;+3.;+;+;+;+;+e K e e e e $.K &.` {+Z &+K.m@n@D+4+!.%.!.f [ : * | ;+;+;+3.3.3.4.;+I y.x.M.n.u.T ,.T E n V @.f f f ",
"J o@..U L u.u.U ;+;+3.3.3.;+;+;+< / / / / ( / ].` Y % ) $ ) ~@7@/.U U u.u.L n ~._ & ;+;+;+;+;+;+;+;+;+4+h.k.a.-.2.T ).n f f n L L L ",
"+ S.<.e n e e e e ;+;+4.4.3.3.3.;+  . *.'+'+*.'+{+9 9 , 6.p@q@X.q+n e e t E E K &.5.;+3.3.3.4.4.3.3.3.;+K V %.@.K e e %.( ~.u.r+r+'.",
". _ %@< l < < < < ;+;+;+U+#@3.U+;+V.'+7 J x x {.% Z 7 =._.X.X+a.< < < < f t F E S r@[.;+4.3.4.4.U+#@3.U+;+@.n V [ < < : 1.a.t T T T ",
"                ^.: ;+;+;+;+;+;+V v *.X 6.] ~@I 7 + j _ 3 V -./         ( @.n n n n n n ;+;+;+;+;+;+;+;+;+~.V %.:     4 ; ^ s@b b b ",
"                  1.|.l l ~.e L -.%@j.= o+9@<.} ; . k t.: < / v         1.( l l l l l l l l l 3 l |.      : < ( 1.    | i U.P ~ ~ ~ ",
"                          : !.K f g ^.v ~.K @.|.                        * . h h h h h h h h h h | = t.                ; w , , 7 7 7 ",
"                            |.l |.1.    |.l / v                         = O., {.x x x x x x x {.7 > *                 _ . ; | | | | ",
"                                                                        . Y @ # $ $ $ $ $ $ $ # 9 6 _                               "};
