/* XPM */
static char * p_win_1_xpm[] = {
"66 66 344 2",
"  	c #AA834B",
". 	c #A88047",
"+ 	c #A37A3D",
"@ 	c #9F7535",
"# 	c #9F7533",
"$ 	c #9F7534",
"% 	c #A07737",
"& 	c #A57D41",
"* 	c #A9824A",
"= 	c #A88148",
"- 	c #A88046",
"; 	c #A78046",
"> 	c #A67E43",
", 	c #A2793B",
"' 	c #9F7433",
") 	c #A07635",
"! 	c #A27B3A",
"~ 	c #A47E3D",
"{ 	c #A57F3D",
"] 	c #A6803F",
"^ 	c #A98446",
"/ 	c #AC874C",
"( 	c #AC864C",
"_ 	c #A98249",
": 	c #AB854C",
"< 	c #AC874D",
"[ 	c #AD894D",
"} 	c #A98348",
"| 	c #A77F46",
"1 	c #A88147",
"2 	c #AB854A",
"3 	c #AD884D",
"4 	c #A98149",
"5 	c #AA824A",
"6 	c #A57C41",
"7 	c #A2793C",
"8 	c #A2793A",
"9 	c #A07637",
"0 	c #A17938",
"a 	c #A98543",
"b 	c #AE8E4A",
"c 	c #AF8F4C",
"d 	c #B1914E",
"e 	c #B19150",
"f 	c #AE8B4E",
"g 	c #AB844C",
"h 	c #A77F45",
"i 	c #A37B3E",
"j 	c #A57D42",
"k 	c #A98148",
"l 	c #AC884D",
"m 	c #B08F4F",
"n 	c #B29251",
"o 	c #AF8D4D",
"p 	c #A78243",
"q 	c #A2783B",
"r 	c #A57E40",
"s 	c #AC894A",
"t 	c #B29351",
"u 	c #AF8C4F",
"v 	c #AB844B",
"w 	c #A47B3F",
"x 	c #A2783A",
"y 	c #9F7635",
"z 	c #A17738",
"A 	c #A37B3B",
"B 	c #A68140",
"C 	c #AD8B49",
"D 	c #B29350",
"E 	c #B49652",
"F 	c #B49753",
"G 	c #AF8E4F",
"H 	c #A88246",
"I 	c #A37B3D",
"J 	c #A17839",
"K 	c #B19050",
"L 	c #B39552",
"M 	c #B08F4D",
"N 	c #A98544",
"O 	c #A57E3D",
"P 	c #A47D3C",
"Q 	c #A78241",
"R 	c #AD8C4A",
"S 	c #B29451",
"T 	c #B59853",
"U 	c #B39451",
"V 	c #B08F50",
"W 	c #A88146",
"X 	c #A47B3E",
"Y 	c #A37A3C",
"Z 	c #A07636",
"` 	c #A88145",
" .	c #AC8949",
"..	c #AE8D4B",
"+.	c #AE8C4D",
"@.	c #AF8D4F",
"#.	c #B49653",
"$.	c #B19151",
"%.	c #AF8C4E",
"&.	c #AD8A4C",
"*.	c #A67E44",
"=.	c #A67F44",
"-.	c #B08E4F",
";.	c #AE8B4D",
">.	c #AE8E4B",
",.	c #B69953",
"'.	c #B59953",
").	c #B59753",
"!.	c #AE8C4E",
"~.	c #AE8A4E",
"{.	c #A1783A",
"].	c #AB864B",
"^.	c #AA824B",
"/.	c #B2934F",
"(.	c #AF8F4D",
"_.	c #AB874A",
":.	c #AA8449",
"<.	c #AD8B4B",
"[.	c #B1924E",
"}.	c #B29450",
"|.	c #AB864C",
"1.	c #AA844B",
"2.	c #B49552",
"3.	c #AA8646",
"4.	c #A47D3E",
"5.	c #A57F3F",
"6.	c #A78240",
"7.	c #A88342",
"8.	c #AB8748",
"9.	c #AD8A4D",
"0.	c #B09050",
"a.	c #AD8A4E",
"b.	c #B39450",
"c.	c #B1924F",
"d.	c #AA8549",
"e.	c #AD894B",
"f.	c #B0904E",
"g.	c #AE8C4C",
"h.	c #A88149",
"i.	c #AF8E4E",
"j.	c #AB864A",
"k.	c #AC874B",
"l.	c #B0904F",
"m.	c #AB874B",
"n.	c #AC884C",
"o.	c #A78045",
"p.	c #A47D3D",
"q.	c #A78144",
"r.	c #AA834A",
"s.	c #B39452",
"t.	c #B08E50",
"u.	c #AB8849",
"v.	c #A88443",
"w.	c #A57F40",
"x.	c #A47C3E",
"y.	c #A57E3F",
"z.	c #A68040",
"A.	c #A47C3F",
"B.	c #A57D43",
"C.	c #AB8649",
"D.	c #A67F42",
"E.	c #A78043",
"F.	c #AC884B",
"G.	c #AC874A",
"H.	c #A67F43",
"I.	c #9E7433",
"J.	c #A3793D",
"K.	c #AC8A49",
"L.	c #AF8D4E",
"M.	c #A47C40",
"N.	c #A17838",
"O.	c #A27A3A",
"P.	c #A37C3B",
"Q.	c #A68042",
"R.	c #AA854A",
"S.	c #A27A3B",
"T.	c #A77F44",
"U.	c #AA844A",
"V.	c #B19250",
"W.	c #AF8E4D",
"X.	c #A98248",
"Y.	c #A67E45",
"Z.	c #AD894E",
"`.	c #AC894C",
" +	c #A88144",
".+	c #A88245",
"++	c #A57E41",
"@+	c #AA8548",
"#+	c #A98447",
"$+	c #A17739",
"%+	c #9E7432",
"&+	c #A88345",
"*+	c #AC8947",
"=+	c #A37B3A",
"-+	c #AB8749",
";+	c #A67E41",
">+	c #A67D43",
",+	c #A98545",
"'+	c #A78242",
")+	c #A57D3F",
"!+	c #A37A3E",
"~+	c #A27A39",
"{+	c #A98347",
"]+	c #A67E42",
"^+	c #A27A3C",
"/+	c #B49752",
"(+	c #AF8F4B",
"_+	c #A88247",
":+	c #A98247",
"<+	c #A27939",
"[+	c #B39652",
"}+	c #A07736",
"|+	c #AC8A47",
"1+	c #AD8A4B",
"2+	c #A57E3E",
"3+	c #A37B3F",
"4+	c #A47C41",
"5+	c #9F7434",
"6+	c #AE8D4A",
"7+	c #AA8645",
"8+	c #A68043",
"9+	c #AE8B4C",
"0+	c #A98346",
"a+	c #AB8846",
"b+	c #A88244",
"c+	c #B39351",
"d+	c #9E7332",
"e+	c #B39551",
"f+	c #A88543",
"g+	c #A78044",
"h+	c #A57E42",
"i+	c #A17837",
"j+	c #B1914F",
"k+	c #AD894C",
"l+	c #AD884C",
"m+	c #AE8D4D",
"n+	c #A37C3D",
"o+	c #A27938",
"p+	c #B39651",
"q+	c #AA8746",
"r+	c #A78042",
"s+	c #AC884A",
"t+	c #A88344",
"u+	c #B29151",
"v+	c #B69954",
"w+	c #AA834C",
"x+	c #A98645",
"y+	c #AA8448",
"z+	c #AA8745",
"A+	c #AB8946",
"B+	c #AB8947",
"C+	c #B29250",
"D+	c #AB854B",
"E+	c #A37B3C",
"F+	c #A17939",
"G+	c #A78143",
"H+	c #A98644",
"I+	c #A88343",
"J+	c #AD8B4C",
"K+	c #DEAD7B",
"L+	c #AA8649",
"M+	c #AD8B4A",
"N+	c #B1904F",
"O+	c #A98349",
"P+	c #A9834A",
"Q+	c #8C1800",
"R+	c #BD6B39",
"S+	c #AC894B",
"T+	c #AB8747",
"U+	c #A07738",
"V+	c #A68041",
"W+	c #AA8547",
"X+	c #AA8349",
"Y+	c #AB8847",
"Z+	c #A98444",
"`+	c #AA8747",
" @	c #A47D3F",
".@	c #A98643",
"+@	c #A98546",
"@@	c #B08F4E",
"#@	c #A57C40",
"$@	c #AE8A4D",
"%@	c #AE8B4F",
"&@	c #AC864D",
"*@	c #080808",
"=@	c #B0914E",
"-@	c #EFEF00",
";@	c #EFDEBD",
">@	c #AC8948",
",@	c #292929",
"'@	c #AB8948",
")@	c #EF7B00",
"!@	c #A78341",
"~@	c #AB8848",
"{@	c #A37C3C",
"]@	c #A67F41",
"^@	c #B1934F",
"/@	c #6B7B7B",
"(@	c #A78340",
"_@	c #4A4A4A",
":@	c #AD8A4A",
"<@	c #A68240",
"[@	c #181818",
"}@	c #AD8C4B",
"|@	c #B0914D",
"1@	c #B19251",
"2@	c #B0904D",
"3@	c #0018EF",
"4@	c #A67F45",
"5@	c #A57F3E",
"6@	c #AA8647",
"7@	c #AC8B48",
"8@	c #A47C3D",
"9@	c #B49651",
"0@	c #AE8D4C",
"a@	c #AF8E4B",
"b@	c #A88048",
"c@	c #CE3900",
"d@	c #A37D3B",
"e@	c #A88442",
"f@	c #A57D3E",
"g@	c #A07836",
"h@	c #9F7634",
"i@	c #A27B39",
"j@	c #AC8A48",
"k@	c #AD8C49",
"l@	c #AD8B48",
"m@	c #AF8E4C",
"n@	c #B59752",
"o@	c #6B0000",
"p@	c #AA8845",
"q@	c #A47B40",
"r@	c #A47B41",
"s@	c #AA8744",
"t@	c #AB8A47",
"u@	c #B08E4E",
"v@	c #B0904C",
"w@	c #A17937",
"x@	c #A5803E",
"y@	c #A67F40",
"z@	c #A78140",
"A@	c #AA8846",
"B@	c #B2924F",
"C@	c #AC8B49",
"          . + @ # $ $ $ # % & *                                                                                                     ",
"  * = - ; > , $ ' ) ! ~ { ] ^ / (           _ . ; ; = *     : < [ [ [ [ / } ; | 1 2 3 [ 3 3 3 3 3 [ [ [ 3 (   4 . = 5               ",
"  = 6 7 7 8 9 $ ' 0 a b c c d e f g       5 h i , 7 j k     l m n n n n o p 7 q r s e t n n n n n n n t e u v h w j 4               ",
". > x $ $ y z 8 A B C D E F E t G [ l 3 3 / H I J , 6 =     3 K L F F L M N O P Q R S F T T T T T E U U t V [ W X 6 k               ",
"Y x Z # ' % w `  ...+.@.t #.$.%.G e n n n e &.H *.=.. *     : [ -.L L m ;...>.b ..+.@.t T ,.'.'.).n !.~.f -.K &.H . *               ",
"{.{.J J J + h ].-.e @.~.m n G ~.K E E L E E K ( ^.  v ( ( v g / f e e !.f K D /.(._.:.<.d [.[.}.t %.: : 3 G n @.: ^.  : / |.1.v ( < ",
"*.*.*.*.*.h 4 g 3 !.V K @.!.G e 2.).t -.n E e <   1.[ m @.< < G V @.@.V K G &.3.Q 4.X 5.6.6.7.8.[ < : 9.V m !.l g     3 -.@.( < -.e ",
". = _   : |.v 1.|.[ 0.n @.a.-.t b.c.<.d.e.f.g.:.h.  a.e i.j.k.l.m m.j.m K n.o.Y Z $ ) z 8 A p.q.r.  g !.e @.|.      1.9.e K ~.f e s.",
"i j = ( @.-.3 ( f V -.@.m K t.!.u.v.w.x.y.Q z.A.B.4 ( 9.C.D.E.F.G.H.D._.F.q.7 9 ' I.Z J.H.3.K._.  ^.  < ~.l   ^.      ( ~.G K K @.u ",
"@ , h / V K n.2 L.e &.2 L.e +.} M.N.y ) % J O.P.Q.R.< / H S.7 =.h i + T.h Y y $ @ Z , > U.L.V.@.< ( ( / < < ( 1._ _     v [ f.W.j.X.",
"I.{.Y.: Z.`. +D.C.&..+++@+&.#+w $+$ %+$ {.& &+*+..m K m 8.=+Z q w 6 6 w 7 9 I.I.Z + *.= v 3 u m K K K K K K m -+;+>+4     :.,+'+)+!+",
"~+4.{+( < :.x.8 ]+- M.^+]+W M.% $ $ y $+M.X.9.V.L /+T /+(+B 0 J A._+:+A.J <+<+N., *.*     : 3 -.U E /+E L E [+R ] ++X.  4 > , }+) ) ",
"|+R W.V V 1+2+Z {.3+4+6 M.!+$+5+%+@ , & ; r.< u n F ,.T }.6+7+8+H 9+;.0+E.7+a+b+=.=     : ~.V -.-.t F c+V n /+/.R u.U.. 6 q @ d+%+I.",
"U e+E F ).[.f+~+z ^+g+X.h+8 N.0 i+J 6 =     g / @.U F T T E j+k+[ K e 9.l+m j+k+r.5   * U.+.j+!./ G t -.l %.U e+/.m+U.=.n+~+~+o+o+o+",
"G K E '.'.p+(+q+r+E.s++.@+D.t+q+t+> ; r.  g 3 @.t.-.u+E '.v+#.n V -.-.V V V u < g w+* h ++'+x+y+  l f 3 g < !.<.a+'+r Q.z+A+A+A+B+B+",
"/ f n E T T /+D ;./ -.C+!.k.L.j++.U.*   * r.&.j+i.k.9.t E E E L e [ [ K e ~.D+r._ _ . w z i+E+g+1.( ( : 1.g 1.o.I F+! v.(.e+e+e+U }.",
"-.-.-.K L T v+).t V -.-.m V V -.Z.: w+  . ]+G+H+I+++H J+-.-.-.-.f ( ( f u < _ Y.6 6 w J ) {.K+L+L.-.@.[ 1.^.* | j Q.7+M+i.t ).#.u+V ",
"}.N+9.[ e E F E E t f 3 -.n @.(   * * 4 j {.i+<+~+O.++O+: : : : v r.P+r.U.r.- i % Z Z Z J j K+-.Q+F L R+/ g :   r.S+f.W.F.9.V.e [ : ",
"A+T+:.: ~.-.m m V @.l : ~.@.Z.  | j & 6 , Z U+i V+N W+X+^.^.^.^.= *.6 4+6 6 X z # %+@ x ++C.K+s.Q+,.T R+m @.@.[ : d.Y+Z+]+Q.,+`+U.  ",
"O. @_+: ( / ( |.|.:   r.U.1.1.k & J 9 % Z % !+1 &.j+l.l v v g   . A.<+J J J z 9 Z ) J j R.@.K+E Q+).T R+E E L V / W 4.! O.O.A r 1   ",
"3+H.s+L.@.~.|.^.^.* h j 6 6 j M., $ %+$ z i *.r.u 2.L V @.@.a.: X+,+7.r w w w w M.w D._.@.V K+K Q+s.T R+'.,.T s.m 1+z+a .@.@.@+@X+  ",
"k m.N+2.E n f g   _ & 8 J J J $+% Z @ % A.1 r.1.f U F E E 2.e [ [ l.f.F._ 4 k = = . :.o e %.K+D+Q+m Q+K+F ).F E L U D D }.}./.@@n.v ",
"  [ t T '.E e f ( r.^ 7.w.X !+i w w w #@#+$@Z.: 3 -.c+).v+'.L 0.K E #.$.%@&@r.; > *@*@3.Y+&+K+6 Q+C.Q+K+K K K K K K e s.).#.n V @.u ",
"  3 n ).T T E n ~./ L.=@&.O+= = = 1 . X.&.e L.D+  ].%.U /+).E L L /+/+L e [ 1 w J *@-@*@*@R+;@J Q+g+Q+K+( ( ( ( ( ( / @.U n f f e s.",
"  < @.n E T './+e -.U F n u < 1.= K+> T.+@>@,@g+j >+.+'@..,@e e e e l.>.>@.+M.$+) *@-@)@*@R+;@!@Q+~@Q+K+  ^.^.^.^.^.  3 -.u ( < @.e ",
"r.  D+$@n ).T F 2.L E F E t f r.j K+z ,@O.P.,@8 {.8 O.{@Q.,@< < / / y+]@P.O.J Z *@*@-@-@)@R+;@^@Q+b.Q+K+|.  1.1.1.    1.|.D+  1.|./ ",
"> >+>+H 9+K $.$.u+u+$.$.n l.F.=.*@K+R+/@,@,@,@!@!@!@(@Q b+,@^.^.4 | j w x.*@*@*@)@)@-@)@)@R+;@R+Q+,.Q+K+u Q+f f f j.o.>+>+>+*.| 4 ^.",
"8 x x A.{+/ l / / / / / < ].*@*@R+K+R+*@*@/@/@/@/@_@*@*@o _@    . w + > :.*@)@)@)@)@)@)@)@R+;@R+Q+R+Q+K+L Q+s.L t :@y.{.{.{.8 M.1   ",
"6.<@6.v.s+n.} =.*.*.*.*.*.*@R+;@;@;@;@;@*@/@_@_@_@/@/@_@*@_@,@~.C.;+,@. < t.*@)@[@*@[@[@[@R+;@R+Q+R+Q+K+T Q+T E C+}@f+<@<@<@6.Z+F.f ",
"|@|@|@[.D (.I+, {.{.{.{.x *@K+K+R+;@;@K+*@,@*@,@_@_@_@_@,@_@_@*@*@j.,@* v *@*@*@*@*@*@_@_@R+;@K+Q+R+Q+K+E Q+).1@f ;.2@|@|@|@|@[.D U ",
"n n n t t i.t++ 7 7 7 7 7 *@R+*@K+;@;@R+*@*@*@*@*@*@*@*@/@_@/@*@*@l ,@. *@*@)@*@*@,@_@_@/@R+;@K+Q+R+Q+K+e Q+e !.|.[ K t n n n n n n ",
"[ [ [ [ [ / O+; | ; ; ; ; ; *@*@K+K+R+*@*@*@*@*@*@*@*@*@*@_@_@,@*@*@,@M.*@)@*@R+*@,@,@,@,@R+;@K+Q+R+Q+;@R+Q+3 ( 1.: l [ [ [ [ [ [ [ ",
"      * . h h h h ; _           *@*@*@  _ - | | *@*@*@*@*@*@_@,@*@*@,@*@*@*@*@K+*@Q+3@_@Q+R+;@K+Q+R+Q+;@R+Q+3 / 1.                  ",
"      = 4+, , , , i h                 * 4@+ , , , , , *@,@*@*@*@*@*@*@,@*@*@*@Q+Q+R+3@;@R+R+;@K+Q+R+Q+;@R+Q+K @.:                   ",
"  g < j.p 5@{ ~ A + Y.r.( 3 [ n.U.1 ; h w Z ' $ 0 P { *@,@*@*@*@*@[@*@,@*@*@*@Q+R+Q+K+;@K+R+;@K+Q+R+Q+;@R+Q+e Q+~.3 3 3 3 [ [ < :   ",
"  / -.e 2@(+(+R W+; = D+%.e t N+6@x., , z $ I.Q+5@7@c (+*@,@*@*@,@*@*@,@*@*@*@Q+Q+R+Q+K+K+R+;@K+Q+R+Q+;@R+Q+f Q+e n n n n n n -.<   ",
"  < m U /+/+L V.%.3 l a.m c+F e+>@8@{.8 A P P Q+z+f.U U *@,@*@*@,@[@*@,@*@,@*@*@Q+Q+K+K+K+R+;@K+R+R+Q+;@R+Q+~.@.n 2.).T T 9@c.g.y+. ",
"  : 3 G s.E K u V n n e G @.t 2.0@W *.o.6@R a@Q+0@f f *@*@*@*@*@,@,@*@*@*@,@,@*@*@Q+Q+R+R+R+;@K+R+R+Q+;@R+Q+K m %.K E v+T [.z+5.n++ ",
"  v ( f e n @.9.i.d [.2@s+y+1+(.1+X.b@  ~.V.U Q+c@(   *@Q+Q+Q+Q+*@,@,@,@*@*@,@*@*@*@Q+Q+Q+R+;@K+R+R+R+;@R+Q+e Q+~.@.n U [.|+d@$ $ $ ",
"  < @.0.@.u V @@B+e@!@6.f@I y.B y.w *.5 < ~.u Q+c@g *@*@c@c@c@c@c@*@_@,@*@*@*@*@,@*@*@*@*@R+;@K+R+R+R+;@R+Q+f Q+K V !.s+v.~ g@' ' # ",
"= j.m N+F.2 0@>.6.}+$ }+~+P.P P P.p.q.].|.1.r.Q+c@*@c@c@c@Q+Q+c@Q+*@*@,@_@,@,@,@,@*@*@*@*@R+;@K+K+R+R+;@R+Q+_ Q+M 0@:.j J h@$ ) U+J ",
"i H._.F.g+ @B B i@$ d+}+6.j@k@C l@k@m@m f 1.h Q+c@*@Q+Q+Q+c@Q+Q+Q+c@*@*@*@,@,@*@,@,@*@*@*@R+;@K+K+Q+K+;@K+Q+w Q+Q z.X {.@ I.# J M.> ",
"y , > h Y Z ) ) $ y i+{ k@e+n@/+/+/+).E K n.o.Q+c@c@Q+Q+Q+Q+Q+c@c@c@Q+Q+*@,@*@*@*@*@*@*@*@R+;@K+K+Q+K+;@K+R+p.Q+P.=+F+$+z z z i ; 5 ",
"' Z q q 9 I.d+d+d+i+6.k@/.T v+v+v+v+v+T 2.K s+Q+c@c@c@Q+Q+c@c@c@Q+Q+Q+*@,@*@Q+Q+c@*@*@*@*@R+;@K+K+Q+K+;@K+R+k@Q+j@3.E.j j j B.h 4   ",
"U+N.O.! ~+~+~+~+~+O j@D /+).F E 2.E E 2.Q+U -.Q+c@c@)@c@Q+c@Q+Q+Q+,@,@,@*@Q+Q+c@*@*@*@*@*@R+;@R+;@Q+K+;@K+R+U Q+t i.].r.D+D+D+D+|.|.",
"j E.3.|+|+|+|+|+|+K.g.m s.E n G u @.@.@.Q+@.Q+c@)@c@)@c@[@[@Q+Q+Q+,@,@[@[@*@*@*@*@*@*@*@*@R+;@R+;@Q+K+;@K+R+@.Q+@.Z.: < @.K K 0.0.0.",
"D+k+l.U p+9@9@9@E S !.3 K L -.( v v c@r.Q+U.Q+c@)@c@)@c@c@Q+[@[@[@Q+c@Q+Q+Q+Q+Q+c@c@Q+*@*@R+;@R+;@Q+R+;@K+R+g Q+g : |.f n E E E L L ",
"K V t.e E v+v+v+v+E %./ V L -.: ^.5 c@6 Q+M.Q+c@)@c@)@c@c@c@c@c@Q+c@Q+Q+c@c@c@c@c@)@)@Q+*@R+;@R+;@Q+R+;@  R+^.Q+  l @.V V n F E e G ",
"}.l.[ [ e E /+E /+U f / R+t %.r._ Q+c@$+Q+Q+Q+)@)@c@)@c@Q+Q+o@c@Q+Q+Q+Q+c@c@Q+Q+Q+Q+Q+c@*@R+;@R+;@Q+R+K+< R+: Q+1.9.j+i.k.&.j+j+[ : ",
"p@`+:.: ~.@.-.-.t.@.l : R+!.*@*@*@Q+Q+c@Q+Q+*@)@)@c@)@)@c@Q+c@Q+Q+Q+c@c@Q+Q+Q+Q+Q+Q+Q+c@c@R+K+R+;@Q+R+K+V R+@.Q+v d.3.I+++]@N 6@:.  ",
"O. @_+: ( ( D+U.U.U.r.* R+*@Q+Q+Q+Q+Q+c@)@Q+*@c@)@)@)@)@c@Q+Q+Q+Q+c@Q+Q+Q+Q+Q+Q+Q+Q+Q+Q+Q+R+K+R+;@Q+Q+K+E R+2.Q+/ W 4.! O.O.A r 1   ",
"w E.S+G -.&.H 6 q@r@4+*@R+*@o@o@o@Q+Q+c@c@Q+c@c@)@)@)@)@c@c@Q+Q+Q+Q+Q+Q+Q+Q+Q+Q+Q+Q+Q+Q+Q+R+K+R+;@Q+Q+R+v+R+T Q+m <.a+s@s@s@s@3.:.  ",
"_ ].m L 2.f.I+8 J <+*@*@R+[@o@o@o@Q+Q+c@c@Q+c@c@)@)@)@)@c@Q+Q+Q+*@*@*@*@*@*@*@*@o@o@o@Q+Q+Q+R+R+;@Q+Q+R+9@Q+9@E L U }.D D }.D @@/   ",
"  ( %.K K +.&+r Q .@*@*@R+[@o@Q+Q+Q+Q+c@)@c@c@)@)@)@)@Q+Q+Q+*@*@-.V @.*@*@*@o@Q+Q+Q+Q+Q+Q+Q+Q+R+K+Q+>@R+|+t@|+R u@V V V V K K u (   ",
"  1.: |.( D+r.R.m+*@*@,@,@*@Q+Q+Q+Q+Q+c@)@c@c@)@)@)@c@Q+Q+*@9.j+K $@: 1.< V *@*@*@o@o@o@Q+Q+Q+Q+o@]+A Q+~+i@{@G+j.< < < < / ( : 1.  ",
"    ^.^.^.^.^.: f *@*@,@*@*@Q+Q+Q+Q+Q+c@)@)@c@)@)@c@c@Q+*@B.q.Y+ .R.^.^.|.!.K K K *@o@o@o@Q+Q+Q+*@, $ d+$ =+!@~@;.%.!.%.!.[ g ^.^.  ",
"5     1.1.1.1.g *@*@,@*@*@*@*@*@*@Q+Q+Q+c@c@c@)@)@c@Q+*@*@z F+A w.:+1.v : ( / / ( *@o@o@o@o@o@o@*@9 ) $ i+e@v@U e+L L L s.V l 1.1.1.",
"> W F.!.%.!.!.!.*@*@,@*@*@*@*@*@*@Q+Q+Q+Q+c@c@c@Q+Q+Q+*@%+I.w@x@7+1+!.%.!.f [ : * | *@*@*@*@o@o@*@$+I w.v.K.l.s.T ,.T E n V @.f f f ",
"J y@..U L s.s.U *@*@,@*@*@*@*@*@< *@*@Q+Q+Q+Q+c@Q+Q+*@) $ ) 5@k@/.U U s.s.L n ~._ & *@R+R+*@*@*@*@*@1 1+f.i.9.-.2.T ).n f f n L L L ",
"+ Q.<.e n e e e *@*@,@,@,@*@*@*@<   . *@*@Q+Q+Q+Q+*@9 , 4.z@A@W.u+n e e t E E K &.3.*@*@*@*@*@_@,@,@*@*@K V %.@.K e e %.( ~.s.v+v+'.",
". _ D+< l < < < < *@*@_@_@,@,@,@*@U.>+7 J *@*@*@*@Z 7 =._.W.@@9.< < < < f t F E S B@*@*@,@*@*@*@,@,@*@*@*@@.n V [ < < : 1.9.t T T T ",
"                ^.*@*@*@R+K+,@R+*@v *.X 4.] 5@I 7 + j _ 3 V -./         ( @.n n n n *@*@*@,@,@,@_@_@,@,@,@*@V %.:     4 ; ^ C@b b b ",
"                  1.*@*@*@*@*@*@-.D+h.= s+m@<.} ; . k r.: < / v         1.( l l l l l l *@*@_@,@_@_@R+K+,@R+*@( 1.    | i S.P ~ ~ ~ ",
"                          : !.K f g ^.v ~.K @.|.                        * . h h h h h h h h *@*@*@*@*@*@*@*@*@        ; w , , 7 7 7 ",
"                            |.l |.1.    |.l / v                         = M., {.x x x x x x x {.7 > *                 _ . ; | | | | ",
"                                                                        . Y @ # $ $ $ $ $ $ $ # 9 6 _                               "};
