/* XPM */
static char * p_win_3_xpm[] = {
"66 66 348 2",
"  	c #AA834B",
". 	c #A88047",
"+ 	c #A37A3D",
"@ 	c #9F7535",
"# 	c #9F7533",
"$ 	c #9F7534",
"% 	c #A07737",
"& 	c #A57D41",
"* 	c #A9824A",
"= 	c #080808",
"- 	c #A88148",
"; 	c #A88046",
"> 	c #A78046",
", 	c #A67E43",
"' 	c #A2793B",
") 	c #9F7433",
"! 	c #A07635",
"~ 	c #A27B3A",
"{ 	c #A47E3D",
"] 	c #A57F3D",
"^ 	c #A6803F",
"/ 	c #A98446",
"( 	c #AC874C",
"_ 	c #AC864C",
": 	c #A98249",
"< 	c #BD6B39",
"[ 	c #EFDEBD",
"} 	c #AD894D",
"| 	c #A98348",
"1 	c #A77F46",
"2 	c #A88147",
"3 	c #AB854A",
"4 	c #AD884D",
"5 	c #A98149",
"6 	c #AA824A",
"7 	c #A57C41",
"8 	c #A2793C",
"9 	c #A2793A",
"0 	c #A07637",
"a 	c #A17938",
"b 	c #A98543",
"c 	c #AE8E4A",
"d 	c #AF8F4C",
"e 	c #B1914E",
"f 	c #B19150",
"g 	c #AE8B4E",
"h 	c #AB844C",
"i 	c #A77F45",
"j 	c #A37B3E",
"k 	c #A57D42",
"l 	c #B29251",
"m 	c #AF8D4D",
"n 	c #A78243",
"o 	c #A2783B",
"p 	c #A57E40",
"q 	c #AC894A",
"r 	c #B29351",
"s 	c #AF8C4F",
"t 	c #AB844B",
"u 	c #A47B3F",
"v 	c #A2783A",
"w 	c #9F7635",
"x 	c #A17738",
"y 	c #A37B3B",
"z 	c #A68140",
"A 	c #AD8B49",
"B 	c #B29350",
"C 	c #B49652",
"D 	c #B49753",
"E 	c #AF8E4F",
"F 	c #AC884D",
"G 	c #A88246",
"H 	c #A37B3D",
"I 	c #A17839",
"J 	c #8C1800",
"K 	c #B39552",
"L 	c #B08F4D",
"M 	c #A98544",
"N 	c #A57E3D",
"O 	c #A47D3C",
"P 	c #A78241",
"Q 	c #AD8C4A",
"R 	c #B29451",
"S 	c #B59853",
"T 	c #B39451",
"U 	c #B08F50",
"V 	c #A88146",
"W 	c #A47B3E",
"X 	c #A98148",
"Y 	c #A37A3C",
"Z 	c #A07636",
"` 	c #A88145",
" .	c #AC8949",
"..	c #AE8D4B",
"+.	c #AE8C4D",
"@.	c #AF8D4F",
"#.	c #B49653",
"$.	c #B19151",
"%.	c #AF8C4E",
"&.	c #AD8A4C",
"*.	c #A67E44",
"=.	c #A67F44",
"-.	c #B08F4F",
";.	c #AE8B4D",
">.	c #AE8E4B",
",.	c #B69953",
"'.	c #B59953",
").	c #B59753",
"!.	c #AE8C4E",
"~.	c #AE8A4E",
"{.	c #B08E4F",
"].	c #B19050",
"^.	c #A1783A",
"/.	c #AB864B",
"(.	c #AA824B",
"_.	c #B2934F",
":.	c #AF8F4D",
"<.	c #AB874A",
"[.	c #AA8449",
"}.	c #AD8B4B",
"|.	c #B1924E",
"1.	c #B29450",
"2.	c #AB854C",
"3.	c #AB864C",
"4.	c #AA844B",
"5.	c #AC874D",
"6.	c #B49552",
"7.	c #AA8646",
"8.	c #A47D3E",
"9.	c #A57F3F",
"0.	c #A78240",
"a.	c #A88342",
"b.	c #AB8748",
"c.	c #AD8A4D",
"d.	c #B09050",
"e.	c #AD8A4E",
"f.	c #B39450",
"g.	c #B1924F",
"h.	c #AA8549",
"i.	c #AD894B",
"j.	c #B0904E",
"k.	c #AE8C4C",
"l.	c #A88149",
"m.	c #AF8E4E",
"n.	c #AB864A",
"o.	c #AC884C",
"p.	c #A78045",
"q.	c #A47D3D",
"r.	c #A78144",
"s.	c #AA834A",
"t.	c #B39452",
"u.	c #B08E50",
"v.	c #AB8849",
"w.	c #A88443",
"x.	c #A57F40",
"y.	c #A47C3E",
"z.	c #A57E3F",
"A.	c #A68040",
"B.	c #A47C3F",
"C.	c #A57D43",
"D.	c #AB8649",
"E.	c #292929",
"F.	c #6B7B7B",
"G.	c #AC884B",
"H.	c #4A4A4A",
"I.	c #9E7433",
"J.	c #A3793D",
"K.	c #A67F43",
"L.	c #AC8A49",
"M.	c #AF8D4E",
"N.	c #A47C40",
"O.	c #A17838",
"P.	c #A27A3A",
"Q.	c #A37C3B",
"R.	c #A68042",
"S.	c #AA854A",
"T.	c #AA844A",
"U.	c #B19250",
"V.	c #AF8E4D",
"W.	c #A98248",
"X.	c #A67E45",
"Y.	c #AD894E",
"Z.	c #AC894C",
"`.	c #A88144",
" +	c #A67F42",
".+	c #A88245",
"++	c #A57E41",
"@+	c #AA8548",
"#+	c #A98447",
"$+	c #A17739",
"%+	c #9E7432",
"&+	c #A88345",
"*+	c #AC8947",
"=+	c #A37B3A",
"-+	c #181818",
";+	c #AB8749",
">+	c #A67E41",
",+	c #A67D43",
"'+	c #A98545",
")+	c #A78242",
"!+	c #A57D3F",
"~+	c #A37A3E",
"{+	c #A27A39",
"]+	c #A98347",
"^+	c #A67E42",
"/+	c #A27A3C",
"(+	c #B49752",
"_+	c #AF8F4B",
":+	c #A27939",
"<+	c #B39652",
"[+	c #A07736",
"}+	c #AC8A47",
"|+	c #AD8A4B",
"1+	c #A57E3E",
"2+	c #A37B3F",
"3+	c #A47C41",
"4+	c #9F7434",
"5+	c #AE8D4A",
"6+	c #A78043",
"7+	c #B39351",
"8+	c #9E7332",
"9+	c #B39551",
"0+	c #A88543",
"a+	c #A78044",
"b+	c #A57E42",
"c+	c #A17837",
"d+	c #AD894C",
"e+	c #B1914F",
"f+	c #AE8D4D",
"g+	c #A37C3D",
"h+	c #A27938",
"i+	c #B39651",
"j+	c #AA8746",
"k+	c #A78042",
"l+	c #AC884A",
"m+	c #A88344",
"n+	c #EF7B00",
"o+	c #CE3900",
"p+	c #B69954",
"q+	c #AA834C",
"r+	c #A98645",
"s+	c #AA8448",
"t+	c #AB8846",
"u+	c #AA8745",
"v+	c #AB8946",
"w+	c #AB8947",
"x+	c #B29250",
"y+	c #AC874B",
"z+	c #EFEF00",
"A+	c #AB854B",
"B+	c #A37B3C",
"C+	c #A17939",
"D+	c #AA8649",
"E+	c #AA8645",
"F+	c #AD8B4A",
"G+	c #B29151",
"H+	c #B1904F",
"I+	c #AC894B",
"J+	c #AB8747",
"K+	c #AB8847",
"L+	c #A98444",
"M+	c #AA8747",
"N+	c #A47D3F",
"O+	c #A88247",
"P+	c #A98643",
"Q+	c #A98546",
"R+	c #AA8349",
"S+	c #AB874B",
"T+	c #B08F4E",
"U+	c #0018EF",
"V+	c #B0914E",
"W+	c #A98349",
"X+	c #DEAD7B",
"Y+	c #A78341",
"Z+	c #A88442",
"`+	c #A88341",
" @	c #AB8848",
".@	c #AE8A4D",
"+@	c #A98448",
"@@	c #B1934F",
"#@	c #AE8B4C",
"$@	c #B0904F",
"%@	c #B18F50",
"&@	c #B59854",
"*@	c #A07837",
"=@	c #AD8A4A",
"-@	c #A68240",
";@	c #A27B39",
">@	c #AC8948",
",@	c #A98547",
"'@	c #AA8647",
")@	c #AD8C4B",
"!@	c #B0914D",
"~@	c #A88343",
"{@	c #A27A3B",
"]@	c #A98346",
"^@	c #B19251",
"/@	c #B0904D",
"(@	c #A6803E",
"_@	c #A6813F",
":@	c #AA8744",
"<@	c #A67F45",
"[@	c #6B0000",
"}@	c #A57F3E",
"|@	c #AA8547",
"1@	c #9F7634",
"2@	c #AC8B48",
"3@	c #A47C3D",
"4@	c #B49651",
"5@	c #AE8D4C",
"6@	c #AF8E4B",
"7@	c #A88048",
"8@	c #A37D3B",
"9@	c #A57D3E",
"0@	c #AD8D49",
"a@	c #A07836",
"b@	c #B59752",
"c@	c #A07738",
"d@	c #AC8A48",
"e@	c #AD8C49",
"f@	c #AD8B48",
"g@	c #AF8E4C",
"h@	c #A88244",
"i@	c #A78142",
"j@	c #A67F40",
"k@	c #A57D40",
"l@	c #A57C40",
"m@	c #AE8C4B",
"n@	c #A9824B",
"o@	c #AA8845",
"p@	c #A67F41",
"q@	c #A47B40",
"r@	c #A47B41",
"s@	c #A1773A",
"t@	c #A98644",
"u@	c #A68041",
"v@	c #AB8A47",
"w@	c #B08E4E",
"x@	c #A37C3C",
"y@	c #A78143",
"z@	c #A98247",
"A@	c #B0904C",
"B@	c #AE8D49",
"C@	c #AA8846",
"D@	c #A78340",
"E@	c #B39550",
"F@	c #B2924F",
"G@	c #AC8B49",
"          . + @ # $ $ $ # % & *                             = = =                                                                   ",
"  * - ; > , ' $ ) ! ~ { ] ^ / ( _           : . > > - * = = < [ [ = } } ( | > 1 2 3 4 } 4 4 4 4 4 } } } 4 _   5 . - 6               ",
"  - 7 8 8 9 0 $ ) a b c d d e f g h       6 i j ' 8 k = < = [ [ < = l l m n 8 o p q f r l l l l l l l r f s t i u k 5               ",
". , v $ $ w x 9 y z A B C D C r E } F 4 4 ( G H I ' 7 = J = [ [ [ = D K L M N O P Q R D S S S S S C T T r U } V W 7 X               ",
"Y v Z # ) % u `  ...+.@.r #.$.%.E f l l l f &.G *.=.. * = = < < < = K -.;...>.c ..+.@.r S ,.'.'.).l !.~.g {.].&.G . *               ",
"^.^.I I I + i /.{.f @.~.-.l E ~.].C C K C C ]._ (.  t _ _ t = J < = f !.g ].B _.:.<.[.}.e |.|.1.r %.2.2.4 E l @.2.(.  2.( 3.4.t _ 5.",
"*.*.*.*.*.i 5 h 4 !.U ].@.!.E f 6.).r {.l C f 5.  4.} -.@.5.= J < = @.U ].E &.7.P 8.W 9.0.0.a.b.} 5.2.c.U -.!.F h     4 {.@._ 5.{.f ",
". - :   2.3.t 4.3.} d.l @.e.{.r f.g.}.h.i.j.k.[.l.  e.f m.n.= J < = n.-.].o.p.Y Z $ ! x 9 y q.r.s.  h !.f @.3.      4.c.f ].~.g f t.",
"j k - _ @.{.4 _ g U {.@.-.].u.!.v.w.x.y.z.P A.B.C.5 _ c.D.= E.F.F.E.= = G.r.8 0 H.I.Z J.K.7.L.<.  (.  5.~.F   (.      _ ~.E ].].@.s ",
"@ ' i ( U ].o.3 M.f &.3 M.f +.| N.O.w ! % I P.Q.R.S.5.( G = E.H.E.E.= = i Y w $ H.Z ' , T.M.U.@.5._ _ ( 5.5._ 4.: :     t } j.V.n.W.",
"I.^.X.2.Y.Z.`. +D.&..+++@+&.#+u $+$ %+$ ^.& &+*+..-.].-.b.=+= H.H.E.-+= 8 0 I.H.E.+ *.- t 4 s -.].].].].].].-.;+>+,+5     [.'+)+!+~+",
"{+8.]+_ 5.[.y.9 ^+; N./+^+V N.% $ $ w $+N.W.c.U.K (+S (+_+z = H.H.E.E.= I :+H.H.E.*.*     2.4 {.T C (+C K C <+Q ^ ++W.  5 , ' [+! ! ",
"}+Q V.U U |+1+Z ^.2+3+7 N.~+$+4+%+@ ' & > s.5.s l D ,.S 1.5+= E.H.E.E.= 6+H.H.E.=.-     2.~.U {.{.r D 7+U l (+_.Q v.T.. 7 o @ 8+%+I.",
"T 9+C D ).|.0+{+x /+a+W.b+9 O.a c+I 7 -     h ( = T D = = C = E.H.E.E.= H.H.E.d+s.6   * T.+.e+!.( E r {.F %.T 9+_.f+T.=.g+{+{+h+h+h+",
"E ].C '.'.i+_+j+k+6+l++.@+ +m+j+m+, > s.  h 4 = n+= = o+= p+#.= -+H.H.E.= E.s 5.h q+* i ++)+r+s+  F g 4 h 5.!.}.t+)+p R.u+v+v+v+w+w+",
"( g l C S S (+B ;.( {.x+!.y+M.e++.T.*   = = = n+z+= n+z+= C C = -+H.H.E.= ~.A+s.: H.H.E.x c+B+a+4._ _ 2.4.h 4.p.H C+~ w.:.9+9+9+T 1.",
"{.{.{.].K S p+).r U {.{.-.U U {.Y.2.q+= n+= n+z+z+n+z+z+= = {.= -+H.H.E.= 5.: X.H.H.E.E.! ^.& D+M.{.@.} 4.(.* 1 k R.E+F+m.r ).#.G+U ",
"1.H+c.} f C D C C r g 4 {.l @._   * * = z+= n+z+z+n+n+z+n+n+= = -+E.H.E.= s.H.H.H.E.Z Z I k S.{.K D K {.( h 2.  s.I+j.V.G.c.U.f } 2.",
"v+J+[.2.~.{.-.-.U @.F 2.~.@.Y.  1 k = n+z+o+n+z+n+n+o+n+n+n+n+= -+-+H.E.= H.H.E.E.%+@ v ++D.{.t.S ,.S r -.@.@.} 2.h.K+L+^+R.'+M+T.  ",
"P.N+O+2._ ( _ 3.3.2.  s.T.4.4.X = = n+z+z+o+n+n+-+-+-+-+= -+o+= = -+H.E.= H.E.0 Z ! I k S.@.T C D ).S D C C K U ( V 8.~ P.P.y p 2   ",
"2+K.l+M.@.~.3.(.(.* i k 7 7 k N.= z+n+z+z+o+-+-+F.H.H.= = = = = = -+E.E.E.= u u N.u  +<.@.U ].].].t.S '.'.,.S t.-.|+u+b P+P+P+Q+R+  ",
"X S+H+6.C l g h   : & 9 I I I $+% = z+n+n+-+[ F.F.H.-+= = = = = = -+-+E.E.= X - - . [.m f %.3.A+( -.C ).D ).D C K T B B 1.1._.T+o.t ",
"  } r S '.C f g _ s./ a.x.W ~+j = = = n+E.F.[ [ F.E.F.U+E.= < = = = -+-+E.= s.> , C.6+7.K+&+k 7 , D.E ].].].].].].].f t.).#.l U @.s ",
"  4 l ).S S C l ~.( M.V+&.W+- = o+n+z+n+E.[ F.E.E.J [ U+J = X+= = = -+-+E.= 2 u I x I =+Q.P.9 I Y a+/.5._ _ _ _ _ _ ( @.T l g g f t.",
"  5.@.l C S '.(+f {.T D l s 5.4.= = n+o+E.F.E.J < < [ U+< J J = = = -+-+-+= N.$+! I j A.Y+Z+`+Y+w. @c.5.  (.(.(.(.(.  4 {.s _ 5.@.f ",
"s.  A+.@l ).S D 6.K C D C r g s.k ' = = = = J < X+X+X+[ X+J = = = = -+-+-+= I Z I & +@k.e _.@@@@_.f.r @.3.  4.4.4.    4.3.A+  4.3.( ",
", ,+,+G #@].$.$.G+G+$.$.l $@G.=.8 ! I.$ = = < [ X+< J J < = E.= = = = -+-+= z N+++h.%.%@l #.&@p+'.,.S l s g g g g n.p.,+,+,+*.1 5 (.",
"9 v v B.]+( F ( ( ( ( ( 5./.K.9 Z $ # *@Y+= J < X+J < < = = = = = = = = -+= = ;+[.m f M..@].(+S S S ).C K t.t.K r =@z.^.^.^.9 N.2   ",
"0.-@0.w.l+o.| =.*.*.*.*.*.C.8 @ I.w ;@0.>@H+= J < < < = = E.= -+= = = = -+= = D.G  @A ,@` '@..j.f l l K S '.S C x+)@0+-@-@-@0.L+G.g ",
"!@!@!@|.B :.~@' ^.^.^.^.v I % @ ) c+a.>.M..@U = = = = = E.= = E.= = = = = = = ++{@Q.O y ' y 9.]@( F } ].C '.).^@g ;./@!@!@!@!@|.B T ",
"l l l r r m.m++ 8 8 8 8 8 8 8 8 ' W '@-.s _ e.].= = E.E.= E.E.-+-+-+= = = = = ^.[+Q.(@_@^ ^ z .+* (.4.~.f r f !.3.} ].r l l l l l l ",
"} } } } } ( W+> 1 > > > > > > > > 2 T.( _ 4.2.5._ = = = E.H.-+E.E.-+= = = = = Z {+:@d !@/@!@d d+4.(.  3.F } 4 _ 4.2.F } } } } } } } ",
"      * . i i i i > :                   : ; 1 1 1 = E.= H.E.-+-+E.= = = = = = B+p q r #.S '.D ].~.} } 3.4.3.4 ( 4.                  ",
"      - 3+' ' ' ' j i                 * <@+ ' ' ' = H.E.-+E.-+E.= = [@[@[@[@= @+O+3 g r S '.S 6.r r l g 3.~.].@.2.                  ",
"  h 5.n.n }@] { y + X.s._ 4 } o.T.2 > i u Z ) $ a = = H.-+E.-+-+[@J J J J [@[@= 4.  3.@.r 7+T C S S D f g @.f U ~.4 4 4 4 } } 5.2.  ",
"  ( {.f /@_+_+Q |@> - A+%.f r H+'@y.' ' x $ I.1@}@2@= H.E.-+= J [@o+o+J J [@[@=     4.( } } g l ).'.S C r {.g @.f l l l l l l {.5.  ",
"  5.-.T (+(+K U.%.4 F e.-.7+D 9+>@3@^.9 y O O ] u+j.= = E.-+J J o+J J [@[@J [@= . ; . :     2.%.r T T T r -.~.@.l 6.).S S 4@g.k.s+. ",
"  2.4 E t.C ].s U l l f E @.r 6.5@V *.p.'@Q 6@>.= = = = E.-+o+J J o+n+n+n+o+J J = 8 u i *     ( c.~.~.~.g {.].-.%.].C p+S |.u+9.g++ ",
"  t _ g f l @.c.m.e |./@l+s+|+:.|+W.7@  ~.U.T = J < X+= E.-+J J o+o+o+o+o+o+o+J = O 9.]@3.2.            2.g f U ~.@.l T |.}+8@$ $ $ ",
"  5.@.d.@.s U T+w+Z+Y+0.9@H z.z z.u *.6 5.~.s = < X+= = -+E.E.E.E.E.E.E.J J J J = 0@..j.-.} 4.(.(.(.(.(.  _ g {.].U !.l+w.{ a@) ) # ",
"- n.-.H+G.3 5@>.0.[+$ [+{+Q.O O Q.q.r./.3.4.s.= < X+[ = E.E.-+-+-+-+-+-+E.E.J J = (+b@S C {.F ( ( ( ( 2.  : : I+L 5@[.k I 1@$ ! c@I ",
"j K.<.G.a+N+z z ;@$ 8+[+0.d@e@A f@e@g@-.g 4.i = J J < = -+-+[@J J J [@[@[@-+E.E.= p+p+,.S T f ].f f d.~.4.X.u z.P A.W ^.@ I.# I N., ",
"w ' , i Y Z ! ! $ w c+] e@9+b@(+(+(+).C ].o.p.Y = = = J -+J o+J o+o+o+o+[@J J -+-+= K K 6.C D C K C C ].o.` q.Q.Q.=+C+$+x x x j > 6 ",
") Z o o 0 I.8+8+8+c+0.e@_.S p+p+p+p+p+S 6.].l+p.h@w+2@= J o+o+J n+o+o+o+[@J o+J [@= s s {.t.D r U r D K f V.e@2@d@7.6+k k k C.i 5   ",
"c@O.P.~ {+{+{+{+{+N d@B (+).D C 6.C C 6.6.T {.o.;.U.= J o+o+n+o+n+o+o+o+J o+n+o+[@J = : S.m e+#@n.!.T 6.K T T T r m./.s.A+A+A+A+3.3.",
"k 6+7.}+}+}+}+}+}+L.k.-.t.C l E s @.@.@.@.@.U ].U = J o+n+o+n+J n+J o+o+o+n+n+o+J o+= 2+N.i@Z+j@k@]+;.@.@.@.@.E @.Y.2.5.@.].].d.d.d.",
"A+d+$@T i+4@4@4@C R !.4 ].K {._ t t 4.s.W+T.&.e+m = o+n+n+o+o+J o+o+o+o+o+n+n+o+J o+J = Z O.:+{+B+r./._ 2.h h h h 2.3.g l C C C K K ",
"].U u.f C p+p+p+p+C %.( U K {.2.(.6 1 7 u N.i@M = J o+n+n+o+J [@o+J o+J o+o+n+o+J o+J = @ o l@~@K+m@M.}   n@(.n@  F @.U U l D C f E ",
"1.$@} } f C (+C (+T g ( {.r %.s.: - 7 $+Z Z x :+= o+n+n+n+o+= [@J J J J o+o+n+o+J o+o+= = ^+3 m.9+(+K -.5.2.2.4.4.c.e+m.y+&.e+e+} 2.",
"o@M+[.2.~.@.{.{.u.@.F 2.e.!.@+^+3+N.' w I.$ x = o+n+n+n+o+o+J = -+[@J [@o+o+n+o+J o+o+J = <.-.K S p+S T U {.@.} t h.7.~@++p@M '@[.  ",
"P.N+O+2._ _ A+T.T.T.s.* s.| & x Z Z ! $ $ % u = o+n+n+n+o+J J [@[@-+[@[@o+J n+o+J o+n+o+= = = C (+).S ).C (+6.d.( V 8.~ P.P.y p 2   ",
"u 6+I+E {.&.G 7 q@r@3+3+3+u s@4+%+I.I.$ I u = o+n+n+n+n+o+J J [@[@-+= [@o+J n+o+J o+n+o+J = [@= d.T S p+p+p+S K -.}.t+:@:@:@:@7.[.  ",
": /.-.K 6.j.~@9 I :+:+:+:+:+O.c+a@[+[+% B.2 = o+n+n+n+o+J J [@= = $@T+= J J o+o+o+n+n+o+o+= [@= = {.9+C 4@4@4@C K T 1.B B 1.B T+(   ",
"  _ %.].].+.&+p P P+t@P+P+P+t@t@t@b u@& ]+= J n+n+n+o+o+J = = = = U @.5.= J o+n+n+n+n+o+o+= J = = = >@}+}+v@}+Q w@U U U U ].].s _   ",
"  4.2.3._ A+s.S.f+_.B _._._.1.1.f._.+.n.;.= o+n+n+n+o+J = [@[@= = .@2.4.5.= J o+n+n+o+o+J J J = -+= y {+{+;@x@y@n.5.5.5.5.( _ 2.4.  ",
"    (.(.(.(.(.2.g ].].].].l 6.S p+S r U l = o+n+n+n+o+J J [@-+-+= S.(.(.3.!.= J o+o+J J J J [@= -+-+= 8+$ =+Y+ @;.%.!.%.!.} h (.(.  ",
"6     4.4.4.4.h _ 5.5.( _ o.-.C S ).C K C = J o+o+o+J J [@-+-+= x.z@4.t 2._ ( = = = [@J [@= -+-+-+-+= $ c+Z+A@T 9+K K K t.U F 4.4.4.",
", V G.!.%.!.!.!.!.g g } | p.<.-.f ].f f f f = J J [@[@-+-+-+-+= E+|+!.%.!.g } 2.* 1 = = = = -+-+-+J = x.w.L.$@t.S ,.S C l U @.g g g ",
"I j@..T K t.t.T T t.K e+r+y.a+/.5.( ( ( ( _ ( = = = = -+J < = e@_.T T t.t.K l ~.: & 9 I I -+-+-+J < = |+j.m.c.{.6.S ).l g g l K K K ",
"+ R.}.f l f f f f l C i+B@M b.} 5.  . *.,+,+*.,+~+0 0 = = = C@V.G+l f f r C C ].&.7.Y+D@Y+Y+= < -+= = ~.].U %.@.].f f %._ ~.t.p+p+'.",
". : A+5.F 5.5.5.5.~.$.C E@g.B r s T.,+8 I v v ^.% Z 8 =.<.V.T+c.5.5.5.5.g r D C R F@|.|.|.|.|.= = = A+2.F @.l U } 5.5.2.4.c.r S S S ",
"                (.2.!.f l r C C U t *.W 8.^ }@H 8 + k : 4 U {.(         _ @.l l l l l l l l l l $.g h (.4.~.U %.2.    5 > / G@c c c ",
"                  4.3.F F ~.f K {.A+l.- l+g@}.| > . X s.2.5.( t         4._ F F F F F F F F F 4 F 3.      2.5._ 4.    1 j {@O { { { ",
"                          2.!.].g h (.t ~.].@.3.                        * . i i i i i i i i i i 1 - s.                > u ' ' 8 8 8 ",
"                            3.F 3.4.    3.F ( t                         - N.' ^.v v v v v v v ^.8 , *                 : . > 1 1 1 1 ",
"                                                                        . Y @ # $ $ $ $ $ $ $ # 0 7 :                               "};
