/* XPM */
static char * p_win_5_xpm[] = {
"66 66 345 2",
"  	c #AA834B",
". 	c #A88047",
"+ 	c #A37A3D",
"@ 	c #9F7535",
"# 	c #9F7533",
"$ 	c #9F7534",
"% 	c #A07737",
"& 	c #A57D41",
"* 	c #A9824A",
"= 	c #A88148",
"- 	c #A88046",
"; 	c #A78046",
"> 	c #A67E43",
", 	c #A2793B",
"' 	c #9F7433",
") 	c #A07635",
"! 	c #A27B3A",
"~ 	c #A47E3D",
"{ 	c #A57F3D",
"] 	c #A6803F",
"^ 	c #A98446",
"/ 	c #AC874C",
"( 	c #AC864C",
"_ 	c #A98249",
": 	c #AB854C",
"< 	c #AC874D",
"[ 	c #AD894D",
"} 	c #A98348",
"| 	c #A77F46",
"1 	c #A88147",
"2 	c #AB854A",
"3 	c #AD884D",
"4 	c #A98149",
"5 	c #AA824A",
"6 	c #A57C41",
"7 	c #A2793C",
"8 	c #A2793A",
"9 	c #A07637",
"0 	c #A17938",
"a 	c #A98543",
"b 	c #AE8E4A",
"c 	c #AF8F4C",
"d 	c #B1914E",
"e 	c #B19150",
"f 	c #AE8B4E",
"g 	c #AB844C",
"h 	c #A77F45",
"i 	c #A37B3E",
"j 	c #A57D42",
"k 	c #A98148",
"l 	c #AC884D",
"m 	c #B08F4F",
"n 	c #B29251",
"o 	c #AF8D4D",
"p 	c #A78243",
"q 	c #A2783B",
"r 	c #A57E40",
"s 	c #AC894A",
"t 	c #B29351",
"u 	c #AF8C4F",
"v 	c #AB844B",
"w 	c #A47B3F",
"x 	c #A2783A",
"y 	c #9F7635",
"z 	c #A17738",
"A 	c #A37B3B",
"B 	c #A68140",
"C 	c #AD8B49",
"D 	c #B29350",
"E 	c #B49652",
"F 	c #B49753",
"G 	c #AF8E4F",
"H 	c #A88246",
"I 	c #A37B3D",
"J 	c #A17839",
"K 	c #B19050",
"L 	c #B39552",
"M 	c #B08F4D",
"N 	c #A98544",
"O 	c #A57E3D",
"P 	c #A47D3C",
"Q 	c #A78241",
"R 	c #AD8C4A",
"S 	c #B29451",
"T 	c #B59853",
"U 	c #B39451",
"V 	c #B08F50",
"W 	c #A88146",
"X 	c #A47B3E",
"Y 	c #A37A3C",
"Z 	c #A07636",
"` 	c #A88145",
" .	c #AC8949",
"..	c #AE8D4B",
"+.	c #AE8C4D",
"@.	c #AF8D4F",
"#.	c #B49653",
"$.	c #B19151",
"%.	c #AF8C4E",
"&.	c #AD8A4C",
"*.	c #A67E44",
"=.	c #A67F44",
"-.	c #B08E4F",
";.	c #AE8B4D",
">.	c #AE8E4B",
",.	c #B69953",
"'.	c #B59953",
").	c #B59753",
"!.	c #AE8C4E",
"~.	c #AE8A4E",
"{.	c #A1783A",
"].	c #AB864B",
"^.	c #AA824B",
"/.	c #BD6B39",
"(.	c #B2934F",
"_.	c #AF8F4D",
":.	c #AB874A",
"<.	c #AA8449",
"[.	c #AD8B4B",
"}.	c #B1924E",
"|.	c #B29450",
"1.	c #AB864C",
"2.	c #AA844B",
"3.	c #B49552",
"4.	c #AA8646",
"5.	c #A47D3E",
"6.	c #A57F3F",
"7.	c #A78240",
"8.	c #A88342",
"9.	c #AB8748",
"0.	c #AD8A4D",
"a.	c #B09050",
"b.	c #AD8A4E",
"c.	c #B39450",
"d.	c #B1924F",
"e.	c #AA8549",
"f.	c #AD894B",
"g.	c #B0904E",
"h.	c #AE8C4C",
"i.	c #A88149",
"j.	c #AF8E4E",
"k.	c #AB864A",
"l.	c #AC874B",
"m.	c #B0904F",
"n.	c #AB874B",
"o.	c #EFDEBD",
"p.	c #AC884C",
"q.	c #A78045",
"r.	c #A47D3D",
"s.	c #A78144",
"t.	c #AA834A",
"u.	c #B39452",
"v.	c #B08E50",
"w.	c #AB8849",
"x.	c #A88443",
"y.	c #A57F40",
"z.	c #A47C3E",
"A.	c #A57E3F",
"B.	c #A68040",
"C.	c #A47C3F",
"D.	c #A57D43",
"E.	c #AB8649",
"F.	c #A67F42",
"G.	c #A78043",
"H.	c #AC884B",
"I.	c #AC874A",
"J.	c #A67F43",
"K.	c #DEAD7B",
"L.	c #9E7433",
"M.	c #A3793D",
"N.	c #AC8A49",
"O.	c #AF8D4E",
"P.	c #A47C40",
"Q.	c #A17838",
"R.	c #A27A3A",
"S.	c #A37C3B",
"T.	c #A68042",
"U.	c #AA854A",
"V.	c #A27A3B",
"W.	c #AA844A",
"X.	c #B19250",
"Y.	c #AF8E4D",
"Z.	c #A98248",
"`.	c #A67E45",
" +	c #AD894E",
".+	c #AC894C",
"++	c #A88144",
"@+	c #A88245",
"#+	c #A57E41",
"$+	c #AA8548",
"%+	c #A98447",
"&+	c #A17739",
"*+	c #9E7432",
"=+	c #A88345",
"-+	c #AC8947",
";+	c #A37B3A",
">+	c #AB8749",
",+	c #A67E41",
"'+	c #A67D43",
")+	c #A98545",
"!+	c #A78242",
"~+	c #A57D3F",
"{+	c #A37A3E",
"]+	c #A27A39",
"^+	c #A98347",
"/+	c #A67E42",
"(+	c #A27A3C",
"_+	c #B49752",
":+	c #AF8F4B",
"<+	c #A88247",
"[+	c #A98247",
"}+	c #B39652",
"|+	c #A07736",
"1+	c #AC8A47",
"2+	c #AD8A4B",
"3+	c #A57E3E",
"4+	c #A37B3F",
"5+	c #A47C41",
"6+	c #9F7434",
"7+	c #4A4A4A",
"8+	c #AE8D4A",
"9+	c #AA8645",
"0+	c #A68043",
"a+	c #AE8B4C",
"b+	c #B39351",
"c+	c #9E7332",
"d+	c #B39551",
"e+	c #A88543",
"f+	c #A78044",
"g+	c #A57E42",
"h+	c #A17837",
"i+	c #AD894C",
"j+	c #B1914F",
"k+	c #AE8D4D",
"l+	c #A37C3D",
"m+	c #A27938",
"n+	c #B39651",
"o+	c #AA8746",
"p+	c #A78042",
"q+	c #AC884A",
"r+	c #A88344",
"s+	c #292929",
"t+	c #A98645",
"u+	c #AA8448",
"v+	c #AB8846",
"w+	c #AA8745",
"x+	c #AB8946",
"y+	c #AB8947",
"z+	c #B29250",
"A+	c #080808",
"B+	c #A37B3C",
"C+	c #A17939",
"D+	c #B69954",
"E+	c #AA834C",
"F+	c #A78143",
"G+	c #A98644",
"H+	c #A88343",
"I+	c #EF7B00",
"J+	c #EFEF00",
"K+	c #AA8649",
"L+	c #AD8B4A",
"M+	c #B29151",
"N+	c #B1904F",
"O+	c #A27939",
"P+	c #CE3900",
"Q+	c #AC894B",
"R+	c #AB8747",
"S+	c #AB8847",
"T+	c #A98444",
"U+	c #AA8747",
"V+	c #A47D3F",
"W+	c #A98643",
"X+	c #A98546",
"Y+	c #AA8349",
"Z+	c #181818",
"`+	c #AB854B",
" @	c #B08F4E",
".@	c #6B7B7B",
"+@	c #B0914E",
"@@	c #A98349",
"#@	c #A77F44",
"$@	c #8C1800",
"%@	c #A78341",
"&@	c #A88442",
"*@	c #A88341",
"=@	c #AB8848",
"-@	c #AE8A4D",
";@	c #A98448",
">@	c #B1934F",
",@	c #B18F50",
"'@	c #B59854",
")@	c #A07837",
"!@	c #AD8A4A",
"~@	c #A68240",
"{@	c #A27B39",
"]@	c #AC8948",
"^@	c #A98547",
"/@	c #AA8647",
"(@	c #AD8C4B",
"_@	c #B0914D",
":@	c #A98346",
"<@	c #B19251",
"[@	c #B0904D",
"}@	c #A6813F",
"|@	c #A67F45",
"1@	c #A57F3E",
"2@	c #AA8547",
"3@	c #9F7634",
"4@	c #6B0000",
"5@	c #A47C3D",
"6@	c #B49651",
"7@	c #AE8D4C",
"8@	c #AF8E4B",
"9@	c #A88048",
"0@	c #A37D3B",
"a@	c #A57D3E",
"b@	c #A07836",
"c@	c #A07738",
"d@	c #AC8A48",
"e@	c #AD8C49",
"f@	c #AD8B48",
"g@	c #B59752",
"h@	c #AC8B48",
"i@	c #A67F40",
"j@	c #A57D40",
"k@	c #A78142",
"l@	c #A57C40",
"m@	c #AE8C4B",
"n@	c #A9824B",
"o@	c #AA8845",
"p@	c #A67F41",
"q@	c #A47B40",
"r@	c #A47B41",
"s@	c #A1773A",
"t@	c #AA8744",
"u@	c #A68041",
"v@	c #AB8A47",
"w@	c #B08E4E",
"x@	c #A37C3C",
"y@	c #B0904C",
"z@	c #AE8D49",
"A@	c #B39550",
"B@	c #AD8B4D",
"C@	c #AC8B49",
"D@	c #AF8E4C",
"          . + @ # $ $ $ # % & *                                                                                                     ",
"  * = - ; > , $ ' ) ! ~ { ] ^ / (           _ . ; ; = *     : < [ [ [ [ / } ; | 1 2 3 [ 3 3 3 3 3 [ [ [ 3 (   4 . = 5               ",
"  = 6 7 7 8 9 $ ' 0 a b c c d e f g       5 h i , 7 j k     l m n n n n o p 7 q r s e t n n n n n n n t e u v h w j 4               ",
". > x $ $ y z 8 A B C D E F E t G [ l 3 3 / H I J , 6 =     3 K L F F L M N O P Q R S F T T T T T E U U t V [ W X 6 k               ",
"Y x Z # ' % w `  ...+.@.t #.$.%.G e n n n e &.H *.=.. *     : [ -.L L m ;...>.b ..+.@.t T ,.'.'.).n !.~.f -.K &.H . *               ",
"{.{.J J J + h ].-.e @.~.m n G ~.K E E L E E K ( ^.  v ( ( v g / f e e /.f K D (._.:.<.[.d }.}.|.t %.: : 3 G n @.: ^.  : / 1.2.v ( < ",
"*.*.*.*.*.h 4 g 3 !.V K @.!.G e 3.).t -.n E e <   2.[ m @.< < G V @.@./.K G &.4.Q 5.X 6.7.7.8.9.[ < : 0.V m !.l g     3 -.@.( < -.e ",
". = _   : 1.v 2.1.[ a.n @.b.-.t c.d.[.e.f.g.h.<.i.  b.e j.k.l.m.m n.k./.o.p.q.Y Z $ ) z 8 A r.s.t.  g !.e @.1.      2.0.e K ~.f e u.",
"i j = ( @.-.3 ( f V -.@.m K v.!.w.x.y.z.A.Q B.C.D.4 ( 0.E.F.G.H.I.J.F.K.o.s.7 9 ' L.Z M.J.4.N.:.  ^.  < ~.l   ^.      ( ~.G K K @.u ",
"@ , h / V K p.2 O.e &.2 O.e +.} P.Q.y ) % J R.S.T.U.< / H V.7 =.h i + K.o.Y y K.@ Z , > W.O.X.@.< ( ( / < < ( 2._ _     v [ g.Y.k.Z.",
"L.{.`.:  +.+++F.E.&.@+#+$+&.%+w &+$ *+$ {.& =+-+..m K m 9.;+Z q w 6 6 K.o.K./.K.Z + *.= v 3 u m K K K K K K m >+,+'+4     <.)+!+~+{+",
"]+5.^+( < <.z.8 /+- P.(+/+W P.% $ $ y &+P.Z.0.X.L _+T _+:+B 0 J C.<+[+K.o.K./.K., *.*     : 3 -.U E _+E L E }+R ] #+Z.  4 > , |+) ) ",
"1+R Y.V V 2+3+Z {.4+5+6 P.{+&+6+*+@ , & ; t.< u n 7+7+7+7+8+9+0+H a+;.K.o.K./.K.=.=     : ~.V -.-.t F b+V n _+(.R w.W.. 6 q @ c+*+L.",
"U d+E F ).}.e+]+z (+f+Z.g+8 Q.0 h+J 6 =     g / 7+7+7+7+7+7+7+i+[ K e /.o.K./.K.t.5   * W.+.j+!./ G t -.l %.U d+(.k+W.=.l+]+]+m+m+m+",
"G K E '.'.n+:+o+p+G.q++.$+F.r+o+r+> ; t.  g 3 @.v.s+s+s+s+s+7+7+V -.-./.o.K./.K./.K.* h #+!+t+u+  l f 3 g < !.[.v+!+r T.w+x+x+x+y+y+",
"/ f n E T T _+D ;./ -.z+!.l.O.j++.W.*   * t.&.j+j.l.0.A+E E A+7+s+[ [ /.o.K./.K./.K.. w z h+B+f+2.( ( : 2.g 2.q.I C+! x._.d+d+d+U |.",
"-.-.-.K L T D+).t V -.-.m V V -. +: E+  . /+F+G+H+#+A+I+A+A+J+A+s+( ( /.K.o./.K./.K.7+7+) {.& K+O.-.@.[ 2.^.* | j T.9+L+j.t ).#.M+V ",
"|.N+0.[ e E F E E t f 3 -.n @.(   * * 4 j A+A+O+]+A+I+J+A+I+J+P+A+t.7+/.K.o.K././.K.7+Z J j U.-.L F L -./ g :   t.Q+g.Y.H.0.X.e [ : ",
"x+R+<.: ~.-.m m V @.l : ~.@. +  | j & 6 , A+I+A+A+P+J+J+P+J+J+I+A+7+7+/.K.o.K././.K.@ x #+E.-.u.T ,.T t m @.@.[ : e.S+T+/+T.)+U+W.  ",
"R.V+<+: ( / ( 1.1.:   t.W.2.2.k & J 9 % Z A+J+I+A+I+J+J+I+J+I+I+P+A+A+/.K.o.K././.K.J j U.@.U E F ).T F E E L V / W 5.! R.R.A r 1   ",
"4+J.q+O.@.~.1.^.^.* h j 6 6 j P., $ *+$ A+I+J+J+I+I+J+I+P+I+I+J+I+I+P+/.K.o.K././.K.F.:.@.V K K K u.T '.'.,.T u.m 2+w+a W+W+W+X+Y+  ",
"k n.N+3.E n f g   _ & 8 J J J &+% Z @ A+P+P+I+J+J+I+Z+Z+Z+Z+Z+I+J+I+A+A+K.o.o.K./.K.<.o e %.1.`+/ m E ).F ).F E L U D D |.|.(. @p.v ",
"  [ t T '.E e f ( t.^ 8.y.X {+i w w A+P+I+J+J+J+Z+Z+.@.@7+7+A+A+I+A+7+A+K./.o.K./.K.G.4.S+=+j 6 > E.G K K K K K K K e u.).#.n V @.u ",
"  3 n ).T T E n ~./ O.+@&.@@= = = 1 A+A+A+A+I+Z+.@o.o..@7+Z+A+A+I+A+7+A+K./.o.K./.K.J ;+S.R.8 J Y f+].< ( ( ( ( ( ( / @.U n f f e u.",
"  < @.n E T '._+e -.U F n u < 2.= #@> #@A+I+J+s+o.o..@s+s+$@/.s+A+/.A+$@K./.o.K./.K.i B.%@&@*@%@x.=@0.<   ^.^.^.^.^.  3 -.u ( < @.e ",
"t.  `+-@n ).T F 3.L E F E t f t.j , z J A+J+I+s+.@s+s+/.$@A+A+/.A+K.A+K.K./.K.K././.;@h.d (.>@>@(.c.t @.1.  2.2.2.    2.1.`+  2.1./ ",
"> '+'+H a+K $.$.M+M+$.$.n m.H.=.7 ) L.$ A+I+A+A+s+/.$@/.K.K.o.o./.$@A+/./././.K././.%.,@n #.'@D+'.,.T n u f f f f k.q.'+'+'+*.| 4 ^.",
"8 x x C.^+/ l / / / / / < ].J.8 Z $ # )@A+A+}.A+$@A+A+K.K.o.$@o./.A+A+7+/.7+/.K././.e O.-@K _+T T T ).E L u.u.L t !@A.{.{.{.8 P.1   ",
"7.~@7.x.q+p.} =.*.*.*.*.*.D.7 @ L.y {@7.]@N+3.).A+/.o.K.$@$@K./.$@s+A+A+7+7+7+K././.C ^@` /@..g.e n n L T '.T E z+(@e+~@~@~@7.T+H.f ",
"_@_@_@}.D _.H+, {.{.{.{.x J % @ ' h+8.>.O.-@V L A+$@K.$@K.K./.$@A+s+A+Z+s+7+7+K././.7+A , A 6.:@/ l [ K E '.).<@f ;.[@_@_@_@_@}.D U ",
"n n n t t j.r++ 7 7 7 7 7 7 7 7 , X /@m u ( b.K @.A+$@/././.$@A+s+A+Z+Z+s+7+7+K././.7+}@] ] B @+* ^.2.~.e t e !.1.[ K t n n n n n n ",
"[ [ [ [ [ / @@; | ; ; ; ; ; ; ; ; 1 W./ ( 2.: < ( 2.A+A+A+A+A+Z+Z+s+Z+Z+s+Z+7+7+/./.7+_@[@_@c i+2.^.  1.l [ 3 ( 2.: l [ [ [ [ [ [ [ ",
"      * . h h h h ; _                   _ - | | | h A+s+A+A+s+Z+Z+Z+s+s+s+Z+7+7+/./.7+#.T '.F K ~.[ [ 1.2.1.3 / 2.                  ",
"      = 5+, , , , i h                 * |@+ , , , , A+A+A+Z+Z+s+7+7+7+s+s+Z+7+7+7+/.7+t T '.T 3.t t n f 1.~.K @.:                   ",
"  g < k.p 1@{ ~ A + `.t.( 3 [ p.W.1 ; h w Z ' $ 0 Z+s+7+A+s+7+7+7+s+s+s+s+Z+7+Z+7+/.7+7+t b+U E T T F e f @.e V ~.3 3 3 3 [ [ < :   ",
"  / -.e [@:+:+R 2@; = `+%.e t N+/@z., , z $ L.3@1@Z+7+7+A+Z+s+s+s+Z+Z+Z+4@Z+7+Z+7+/.7+7+[ [ f n ).'.T E t -.f @.e n n n n n n -.<   ",
"  < m U _+_+L X.%.3 l b.m b+F d+]@5@{.8 A P P { Z+7+s+s+A+Z+Z+Z+Z+4@4@4@4@Z+7+Z+7+/.7+7+    : %.t U U U t m ~.@.n 3.).T T 6@d.h.u+. ",
"  : 3 G u.E K u V n n e G @.t 3.7@W *.q./@R 8@>.Z+A+Z+Z+s+A+Z+4@$@$@4@4@4@Z+7+Z+7+/.7+7+*     / 0.~.~.~.f -.K m %.K E D+T }.w+6.l++ ",
"  v ( f e n @.0.j.d }.[@q+u+2+_.2+Z.9@  ~.X.U t Z+s+Z+$@A+s+A+P+$@4@4@$@$@Z+7+Z+7+/.7+7+1.:             : f e V ~.@.n U }.1+0@$ $ $ ",
"  < @.a.@.u V  @y+&@%@7.a@I A.B A.w *.A+A+A+u f Z+s+A+P+A+s+A+$@$@$@P+$@4@Z+7+Z+7+/.7+7+m [ 2.^.^.^.^.^.  ( f -.K V !.q+x.~ b@' ' # ",
"= k.m N+H.2 7@>.7.|+$ |+]+S.P P S.r.A+K.o./.A+A+Z+A+A+$@$@A+s+A+$@$@$@P+$@7+7+Z+7+_+7+7+E -.l / / / / :   _ _ Q+M 7@<.j J 3@$ ) c@J ",
"i J.:.H.f+V+B B {@$ c+|+7.d@e@C f@e@A+/.o.o.A+K.A+A+Z+A+$@A+s+A+$@P+P+$@4@7+7+Z+7+A+7+7+T U e K e e a.~.2.`.w A.Q B.X {.@ L.# J P.> ",
"y , > h Y Z ) ) $ y h+{ e@d+g@_+_+_+A+K.o./.A+$@A+A+s+Z+$@A+7+A+4@P+P+4@4@s+s+A+A+A+A+L 3.E F E L E E K p.` r.S.S.;+C+&+z z z i ; 5 ",
"' Z q q 9 L.c+c+c+h+7.e@(.T D+D+D+D+A+/./.$@A+A+A+s+s+Z+7+A+s+7+A+4@4@4@7+s+A+4@P+P+P+A+-.u.F t V t F L e Y.e@h@d@4.G.j j j D.h 4   ",
"c@Q.R.! ]+]+]+]+]+O d@D _+).F E 3.E E A+A+A+s+s+s+s+Z+E Z+A+s+7+s+7+7+s+Z+Z+$@P+I+I+I+P+A+o j+a+k.!.U 3.L U U U t j.].t.`+`+`+`+1.1.",
"j G.4.1+1+1+1+1+1+N.h.m u.E n G u @.@.@.A+A+A+A+A+s+n F Z+Z+Z+Z+Z+Z+Z+Z+4@$@P+P+I+I+I+I+P+A+&@i@j@^+;.@.@.@.@.G @. +: < @.K K a.a.a.",
"`+i+m.U n+6@6@6@E S !.3 K L -.( v v 2.t.@@W.&.j+o n.0.n Z+4@4@$@$@P+$@4@A+$@P+P+I+I+I+I+P+A+O+]+B+s.].( : g g g g : 1.f n E E E L L ",
"K V v.e E D+D+D+D+E %./ V L -.: ^.5 | 6 w P.k@N !+& ` Z+4@$@P+P+$@$@P+$@A+$@$@P+P+I+I+I+P+A+l@H+S+m@O.[   n@^.n@  l @.V V n F E e G ",
"|.m.[ [ e E _+E _+U f / -.t %.t._ = 6 &+Z Z z O+O+R.Z+$@P+P+P+P+P+$@P+$@A+$@P+P+$@P+P+P+$@A+2 j.d+_+L m < : : 2.2.0.j+j.l.&.j+j+[ : ",
"o@U+<.: ~.@.-.-.v.@.l : b.!.$+/+5+P., y L.$ z X p+G+Z+$@P+P+P+P+P+$@$@$@A+$@P+$@$@$@$@$@4@A+m L T D+T U V -.@.[ v e.4.H+#+p@N /@<.  ",
"R.V+<+: ( ( `+W.W.W.t.* t.} & z Z Z ) $ $ % w 1 0.A+$@P+I+I+P+P+P+$@4@4@4@A+$@$@$@$@$@$@$@Z+U E _+).T ).E _+3.a./ W 5.! R.R.A r 1   ",
"w G.Q+G -.&.H 6 q@r@5+5+5+w s@6+*+L.L.$ J w `.t.u A+P+I+I+I+I+P+P+$@4@A+A+Z+4@$@4@$@$@P+$@Z+m -.a.U T D+D+D+T L m [.v+t@t@t@t@4.<.  ",
"_ ].m L 3.g.H+8 J O+O+O+O+O+Q.h+b@|+|+% C.1 t.2.f A+P+I+I+I+I+P+$@A+4@A+_ Z+4@4@4@$@P+$@P+Z+l : / -.d+E 6@6@6@E L U |.D D |.D  @/   ",
"  ( %.K K +.=+r Q W+G+W+W+W+G+G+G+a u@& ^+0.[ : A+P+I+I+I+I+I+P+$@A+A+A+1.Z+4@$@$@P+P+P+$@Z+@.< v E.]@1+1+v@1+R w@V V V V K K u (   ",
"  2.: 1.( `+t.U.k+(.D (.(.(.|.|.c.(.+.k.;.n V / A+P+I+I+I+I+P+P+$@A+Z+A+< Z+4@$@P+P+$@$@$@Z+z+f Y+/+A ]+]+{@x@F+k.< < < < / ( : 2.  ",
"    ^.^.^.^.^.: f K K K K n 3.T D+T t V n F u.-.A+P+I+I+I+P+P+$@A+4@s+A+1.Z+4@$@P+$@$@4@4@Z+d@^ /+, $ c+$ ;+%@=@;.%.!.%.!.[ g ^.^.  ",
"5     2.2.2.2.g ( < < / ( p.m E T ).E L E F E U A+$@P+P+P+P+$@$@A+4@s+A+: A+Z+Z+Z+Z+Z+Z+Z+Z+A C+z 9 ) $ h+&@y@U d+L L L u.V l 2.2.2.",
"> W H.!.%.!.!.!.!.f f [ } q.:.m e K e e e e $.K 4@$@$@$@$@$@$@A+4@A+s+A+!.f Z+Z+s+7+7+A+5+{.6+c+$ &+I y.x.N.m.u.T ,.T E n V @.f f f ",
"J i@..U L u.u.U U u.L j+t+z.f+].< / / / / ( / ].` A+4@4@4@4@A+A+A+s+s+A+u.L A+Z+Z+Z+Z+Z+J % ) 3@% w 1 2+g.j.0.-.3.T ).n f f n L L L ",
"+ T.[.e n e e e e n E n+z@N 9.[ <   . *.'+'+*.'+{+9 A+A+A+A+/.$@/.s+A+e t E A+Z+s+7+7+s+A+%@%@%@8.:@2.~.K V %.@.K e e %.( ~.u.D+D+'.",
". _ `+< l < < < < ~.$.E A@d.D t u W.'+7 J x x {.% Z 7 =.:.A+A+A+A+A+< < f A+Z+s+Z+Z+Z+Z+s+A+}.}.g.B@`+: l @.n V [ < < : 2.0.t T T T ",
"                ^.: !.e n t E E V v *.X 5.] 1@I 7 + j _ 3 V -./         ( A+A+s+s+s+s+s+s+s+A+n $.f g ^.2.~.V %.:     4 ; ^ C@b b b ",
"                  2.1.l l ~.e L -.`+i.= q+D@[.} ; . k t.: < / v         2.A+Z+Z+/./.K.o.Z+K./.A+l 1.      : < ( 2.    | i V.P ~ ~ ~ ",
"                          : !.K f g ^.v ~.K @.1.                        * . A+s+s+s+s+s+s+s+s+A+| = t.                ; w , , 7 7 7 ",
"                            1.l 1.2.    1.l / v                         = P., A+A+A+A+A+A+A+A+A+7 > *                 _ . ; | | | | ",
"                                                                        . Y @ # $ $ $ $ $ $ $ # 9 6 _                               "};
