/* XPM */
static char * p_win_4_xpm[] = {
"66 66 346 2",
"  	c #AA834B",
". 	c #A88047",
"+ 	c #A37A3D",
"@ 	c #9F7535",
"# 	c #9F7533",
"$ 	c #9F7534",
"% 	c #A07737",
"& 	c #A57D41",
"* 	c #A9824A",
"= 	c #A88148",
"- 	c #A88046",
"; 	c #A78046",
"> 	c #A67E43",
", 	c #A2793B",
"' 	c #9F7433",
") 	c #A07635",
"! 	c #A27B3A",
"~ 	c #A47E3D",
"{ 	c #A57F3D",
"] 	c #A6803F",
"^ 	c #A98446",
"/ 	c #AC874C",
"( 	c #AC864C",
"_ 	c #A98249",
": 	c #AB854C",
"< 	c #AC874D",
"[ 	c #AD894D",
"} 	c #A98348",
"| 	c #A77F46",
"1 	c #A88147",
"2 	c #AB854A",
"3 	c #AD884D",
"4 	c #A98149",
"5 	c #AA824A",
"6 	c #A57C41",
"7 	c #A2793C",
"8 	c #A2793A",
"9 	c #A07637",
"0 	c #A17938",
"a 	c #A98543",
"b 	c #AE8E4A",
"c 	c #AF8F4C",
"d 	c #B1914E",
"e 	c #B19150",
"f 	c #AE8B4E",
"g 	c #AB844C",
"h 	c #A77F45",
"i 	c #A37B3E",
"j 	c #A57D42",
"k 	c #A98148",
"l 	c #AC884D",
"m 	c #B08F4F",
"n 	c #B29251",
"o 	c #4A4A4A",
"p 	c #AF8D4D",
"q 	c #A78243",
"r 	c #A2783B",
"s 	c #A57E40",
"t 	c #AC894A",
"u 	c #B29351",
"v 	c #AF8C4F",
"w 	c #AB844B",
"x 	c #A47B3F",
"y 	c #A2783A",
"z 	c #9F7635",
"A 	c #A17738",
"B 	c #A37B3B",
"C 	c #A68140",
"D 	c #AD8B49",
"E 	c #B29350",
"F 	c #B49652",
"G 	c #B49753",
"H 	c #AF8E4F",
"I 	c #A88246",
"J 	c #A37B3D",
"K 	c #A17839",
"L 	c #BD6B39",
"M 	c #EFDEBD",
"N 	c #A98544",
"O 	c #A57E3D",
"P 	c #A47D3C",
"Q 	c #A78241",
"R 	c #AD8C4A",
"S 	c #B29451",
"T 	c #B59853",
"U 	c #B39451",
"V 	c #B08F50",
"W 	c #A88146",
"X 	c #A47B3E",
"Y 	c #A37A3C",
"Z 	c #A07636",
"` 	c #A88145",
" .	c #AC8949",
"..	c #AE8D4B",
"+.	c #AE8C4D",
"@.	c #AF8D4F",
"#.	c #B49653",
"$.	c #B19151",
"%.	c #AF8C4E",
"&.	c #AD8A4C",
"*.	c #A67E44",
"=.	c #A67F44",
"-.	c #AE8E4B",
";.	c #B69953",
">.	c #B59953",
",.	c #B59753",
"'.	c #AE8C4E",
").	c #AE8A4E",
"!.	c #B08E4F",
"~.	c #B19050",
"{.	c #A1783A",
"].	c #AB864B",
"^.	c #B39552",
"/.	c #AA824B",
"(.	c #6B7B7B",
"_.	c #B2934F",
":.	c #AF8F4D",
"<.	c #AB874A",
"[.	c #AA8449",
"}.	c #AD8B4B",
"|.	c #B1924E",
"1.	c #B29450",
"2.	c #AB864C",
"3.	c #AA844B",
"4.	c #B49552",
"5.	c #AA8646",
"6.	c #A47D3E",
"7.	c #A57F3F",
"8.	c #A78240",
"9.	c #A88342",
"0.	c #AB8748",
"a.	c #AD8A4D",
"b.	c #B09050",
"c.	c #AD8A4E",
"d.	c #B39450",
"e.	c #B1924F",
"f.	c #AA8549",
"g.	c #AD894B",
"h.	c #B0904E",
"i.	c #AE8C4C",
"j.	c #A88149",
"k.	c #AF8E4E",
"l.	c #AB864A",
"m.	c #8C1800",
"n.	c #AC884C",
"o.	c #A78045",
"p.	c #A47D3D",
"q.	c #A78144",
"r.	c #AA834A",
"s.	c #B39452",
"t.	c #B08E50",
"u.	c #AB8849",
"v.	c #A88443",
"w.	c #A57F40",
"x.	c #A47C3E",
"y.	c #A57E3F",
"z.	c #A68040",
"A.	c #A47C3F",
"B.	c #A57D43",
"C.	c #AB8649",
"D.	c #A67F42",
"E.	c #A78043",
"F.	c #9E7433",
"G.	c #A3793D",
"H.	c #A67F43",
"I.	c #AC8A49",
"J.	c #AF8D4E",
"K.	c #A47C40",
"L.	c #A17838",
"M.	c #A27A3A",
"N.	c #A37C3B",
"O.	c #A68042",
"P.	c #AA854A",
"Q.	c #A27A3B",
"R.	c #AA844A",
"S.	c #B19250",
"T.	c #AF8E4D",
"U.	c #A98248",
"V.	c #A67E45",
"W.	c #AD894E",
"X.	c #AC894C",
"Y.	c #A88144",
"Z.	c #A88245",
"`.	c #A57E41",
" +	c #AA8548",
".+	c #A98447",
"++	c #A17739",
"@+	c #9E7432",
"#+	c #A88345",
"$+	c #AC8947",
"%+	c #A37B3A",
"&+	c #AB8749",
"*+	c #A67E41",
"=+	c #A67D43",
"-+	c #A98545",
";+	c #A78242",
">+	c #A57D3F",
",+	c #A37A3E",
"'+	c #A27A39",
")+	c #A98347",
"!+	c #A67E42",
"~+	c #A27A3C",
"{+	c #B49752",
"]+	c #AF8F4B",
"^+	c #A27939",
"/+	c #B39652",
"(+	c #A07736",
"_+	c #AC8A47",
":+	c #AD8A4B",
"<+	c #A57E3E",
"[+	c #A37B3F",
"}+	c #A47C41",
"|+	c #9F7434",
"1+	c #AE8D4A",
"2+	c #AA8645",
"3+	c #AB8846",
"4+	c #A88244",
"5+	c #B39351",
"6+	c #9E7332",
"7+	c #B39551",
"8+	c #A88543",
"9+	c #A78044",
"0+	c #A57E42",
"a+	c #A17837",
"b+	c #B1914F",
"c+	c #AD894C",
"d+	c #AE8D4D",
"e+	c #A37C3D",
"f+	c #A27938",
"g+	c #B39651",
"h+	c #AA8746",
"i+	c #A78042",
"j+	c #AC884A",
"k+	c #A88344",
"l+	c #B29151",
"m+	c #B69954",
"n+	c #AA834C",
"o+	c #A98645",
"p+	c #AA8448",
"q+	c #AA8745",
"r+	c #AB8946",
"s+	c #AB8947",
"t+	c #AE8B4D",
"u+	c #B29250",
"v+	c #AC874B",
"w+	c #080808",
"x+	c #AB854B",
"y+	c #A37B3C",
"z+	c #A17939",
"A+	c #A78143",
"B+	c #A98644",
"C+	c #A88343",
"D+	c #EF7B00",
"E+	c #CE3900",
"F+	c #AA8649",
"G+	c #AD8B4A",
"H+	c #B1904F",
"I+	c #EFEF00",
"J+	c #AC894B",
"K+	c #AC884B",
"L+	c #AB8747",
"M+	c #AB8847",
"N+	c #A98444",
"O+	c #AA8747",
"P+	c #A47D3F",
"Q+	c #A88247",
"R+	c #292929",
"S+	c #A98643",
"T+	c #A98546",
"U+	c #AA8349",
"V+	c #AB874B",
"W+	c #181818",
"X+	c #B08F4E",
"Y+	c #B0914E",
"Z+	c #A98349",
"`+	c #A77F44",
" @	c #0018EF",
".@	c #A78341",
"+@	c #A88442",
"@@	c #A88341",
"#@	c #AB8848",
"$@	c #AE8A4D",
"%@	c #A98448",
"&@	c #B1934F",
"*@	c #AE8B4C",
"=@	c #B0904F",
"-@	c #DEAD7B",
";@	c #B18F50",
">@	c #B59854",
",@	c #A07837",
"'@	c #AD8A4A",
")@	c #A68240",
"!@	c #A27B39",
"~@	c #AC8948",
"{@	c #A98547",
"]@	c #AA8647",
"^@	c #AD8C4B",
"/@	c #B0914D",
"(@	c #A98346",
"_@	c #B19251",
":@	c #B0904D",
"<@	c #A6803E",
"[@	c #A6813F",
"}@	c #AA8744",
"|@	c #A67F45",
"1@	c #A57F3E",
"2@	c #AA8547",
"3@	c #9F7634",
"4@	c #6B0000",
"5@	c #A47C3D",
"6@	c #B49651",
"7@	c #AE8D4C",
"8@	c #AF8E4B",
"9@	c #A88048",
"0@	c #A37D3B",
"a@	c #A57D3E",
"b@	c #AD8D49",
"c@	c #A07836",
"d@	c #B59752",
"e@	c #B08F4D",
"f@	c #A07738",
"g@	c #AC8A48",
"h@	c #AD8C49",
"i@	c #AD8B48",
"j@	c #AF8E4C",
"k@	c #AC8B48",
"l@	c #A47B40",
"m@	c #A78142",
"n@	c #A67F40",
"o@	c #A57D40",
"p@	c #A57C40",
"q@	c #AE8C4B",
"r@	c #A9824B",
"s@	c #AA8845",
"t@	c #A67F41",
"u@	c #A47B41",
"v@	c #A1773A",
"w@	c #A68041",
"x@	c #AB8A47",
"y@	c #B08E4E",
"z@	c #A37C3C",
"A@	c #A98247",
"B@	c #B0904C",
"C@	c #AE8D49",
"D@	c #B39550",
"E@	c #AC8B49",
"          . + @ # $ $ $ # % & *                                                                                                     ",
"  * = - ; > , $ ' ) ! ~ { ] ^ / (           _ . ; ; = *     : < [ [ [ [ / } ; | 1 2 3 [ 3 3 3 3 3 [ [ [ 3 (   4 . = 5               ",
"  = 6 7 7 8 9 $ ' 0 a b c c d e f g       5 h i , 7 j k     l m n o o o p q 7 r s t e u n n n n n n n u e v w h x j 4               ",
". > y $ $ z A 8 B C D E F G F u H [ l 3 3 / I J K , 6 =     3 o o L M M o N O P Q R S G T T T T T F U U u V [ W X 6 k               ",
"Y y Z # ' % x `  ...+.@.u #.$.%.H e n n n e &.I *.=.. *     o L L M M M o ..-.b ..+.@.u T ;.>.>.,.n '.).f !.~.&.I . *               ",
"{.{.K K K + h ].!.e @.).m n H ).~.F F ^.F F ~.( /.  w ( ( w o L L M M M (.~.E _.:.<.[.}.d |.|.1.u %.: : 3 H n @.: /.  : / 2.3.w ( < ",
"*.*.*.*.*.h 4 g 3 '.V ~.@.'.H e 4.,.u !.n F e <   3.[ m @.< o L L M L M (.H &.5.Q 6.X 7.8.8.9.0.[ < : a.V m '.l g     3 !.@.( < !.e ",
". = _   : 2.w 3.2.[ b.n @.c.!.u d.e.}.f.g.h.i.[.j.  c.e k.l.o L m.M L M (.n.o.Y Z $ ) A 8 B p.q.r.  g '.e @.2.      3.a.e ~.).f e s.",
"i j = ( @.!.3 ( f V !.@.m ~.t.'.u.v.w.x.y.Q z.A.B.4 ( a.C.D.E.m.m.M L L (.q.7 9 ' F.Z G.H.5.I.<.  /.  < ).l   /.      ( ).H ~.~.@.v ",
"@ , h / V ~.n.2 J.e &.2 J.e +.} K.L.z ) % K M.N.O.P.< / I Q.7 m.m.M L L (.o z $ @ Z , > R.J.S.@.< ( ( / < < ( 3._ _     w [ h.T.l.U.",
"F.{.V.: W.X.Y.D.C.&.Z.`. +&..+x ++$ @+$ {.& #+$+..m ~.m 0.%+Z o m.L L L (.o F.F.Z + *.= w 3 v m ~.~.~.~.~.~.m &+*+=+4     [.-+;+>+,+",
"'+6.)+( < [.x.8 !+- K.~+!+W K.% $ $ z ++K.U.a.S.^.{+T {+]+C 0 o m.L L L (.o ^+L., *.*     : 3 !.U F {+F ^.F /+R ] `.U.  4 > , (+) ) ",
"_+R T.V V :+<+Z {.[+}+6 K.,+++|+@+@ , & ; r.< v n G ;.T 1.1+2+o o L L L (.o 3+4+=.=     : ).V !.!.u G 5+V n {+_.R u.R.. 6 r @ 6+@+F.",
"U 7+F G ,.|.8+'+A ~+9+U.0+8 L.0 a+K 6 =     g / @.U G T T F b+o o L L L o o b+c+r.5   * R.+.b+'./ H u !.l %.U 7+_.d+R.=.e+'+'+f+f+f+",
"H ~.F >.>.g+]+h+i+E.j++. +D.k+h+k+> ; r.  g 3 @.t.!.l+F >.m+#.o o L L L o o v < g n+* h `.;+o+p+  l f 3 g < '.}.3+;+s O.q+r+r+r+s+s+",
"/ f n F T T {+E t+/ !.u+'.v+J.b++.R.*   * r.&.b+k.v+w+w+F w+w+^.o L m.L o o x+r._ _ . x A a+y+9+3.( ( : 3.g 3.o.J z+! v.:.7+7+7+U 1.",
"!.!.!.~.^.T m+,.u V !.!.m V V !.W.: n+  . !+A+B+C+w+D+w+w+E+w+!.o o m.L o o _ V.6 6 x K ) {.& F+J.!.@.[ 3./.* | j O.2+G+k.u ,.#.l+V ",
"1.H+a.[ e F G F F u f 3 !.n @.(   * * 4 j {.w+w+w+D+I+w+D+I+w+: o o m.L o o - i % Z Z Z K j P.!.^.G ^.!./ g :   r.J+h.T.K+a.S.e [ : ",
"r+L+[.: ).!.m m V @.l : ).@.W.  | j & 6 , w+D+w+D+I+I+D+I+I+w+w+w+o m.L o o X A # @+@ y `.C.!.s.T ;.T u m @.@.[ : f.M+N+!+O.-+O+R.  ",
"M.P+Q+: ( / ( 2.2.:   r.R.3.3.k & K 9 % Z w+I+w+D+I+I+D+D+I+D+D+w+o m.L o o A 9 Z ) K j P.@.U F G ,.T G F F ^.V / W 6.! M.M.B s 1   ",
"[+H.j+J.@.).2././.* h j 6 6 j K., $ @+$ w+E+I+E+D+I+D+D+E+D+D+E+w+o m.L o R+x x K.x D.<.@.V ~.~.~.s.T >.>.;.T s.m :+q+a S+S+S+T+U+  ",
"k V+H+4.F n f g   _ & 8 K K K ++% Z w+w+D+I+I+E+D+D+W+W+W+W+w+W+w+R+m.L o R+k = = . [.p e %.2.x+/ m F ,.G ,.G F ^.U E E 1.1._.X+n.w ",
"  [ u T >.F e f ( r.^ 9.w.X ,+i x x w+I+D+I+I+E+W+W+(.o o w+w+w+w+R+o L o R+r.; > B.E.5.M+#+j 6 > C.H ~.~.~.~.~.~.~.e s.,.#.n V @.v ",
"  3 n ,.T T F n )./ J.Y+&.Z+= = = 1 . w+I+D+D+W+M (.(.o W+w+w+w+w+R+o L o R+1 x K A K %+N.M.8 K Y 9+].< ( ( ( ( ( ( / @.U n f f e s.",
"  < @.n F T >.{+e !.U G n v < 3.= `+w+w+w+E+R+(.M M (.R+(. @R+w+w+R+o o o R+K.++) K i z..@+@@@.@v.#@a.<   /././././.  3 !.v ( < @.e ",
"r.  x+$@n ,.T G 4.^.F G F u f r.j w+E+D+I+D+R+M (.R+R+m.M  @L w+w+R+R+o o R+K Z K & %@i.d _.&@&@_.d.u @.2.  3.3.3.    3.2.x+  3.2./ ",
"> =+=+I *@~.$.$.l+l+$.$.n =@K+=.7 ) w+w+D+E+R+(.R+m.L -@M  @-@L w+R+R+o o R+R+P+`.f.%.;@n #.>@m+>.;.T n v f f f f l.o.=+=+=+*.| 4 /.",
"8 y y A.)+/ l / / / / / < ].H.8 Z $ # ,@w+w+w+w+m.L -@-@-@m.M L w+R+R+o o R+R+&+[.p e J.$@~.{+T T T ,.F ^.s.s.^.u '@y.{.{.{.8 K.1   ",
"8.)@8.v.j+n.} =.*.*.*.*.*.B.7 @ F.z !@8.~@H+w+w+L M -@m.m.-@L w+w+R+R+R+o R+R+C.I #@D {@` ]@..h.e n n ^.T >.T F u+^@8+)@)@)@8.N+K+f ",
"/@/@/@|.E :.C+, {.{.{.{.y K % @ ' a+9.-.J.$@V w+m.L m.-@-@L w+w+w+R+R+R+o R+R+`.Q.N.P B , B 7.(@/ l [ ~.F >.,._@f t+:@/@/@/@/@|.E U ",
"n n n u u k.k++ 7 7 7 7 7 7 7 7 , X ]@m v ( c.~.w+m.L L m.w+w+R+W+R+R+R+o W+R+{.(+N.<@[@] ] C Z.* /.3.).e u e '.2.[ ~.u n n n n n n ",
"[ [ [ [ [ / Z+; | ; ; ; ; ; ; ; ; 1 R./ ( 3.: < ( w+w+w+w+w+R+w+R+w+R+R+o w+R+Z '+}@c /@:@/@c c+3./.  2.l [ 3 ( 3.: l [ [ [ [ [ [ [ ",
"      * . h h h h ; _                   _ - | | | w+R+R+w+R+R+W+W+W+w+R+o w+R+y+s t u #.T >.G ~.).[ [ 2.3.2.3 / 3.                  ",
"      = }+, , , , i h                 * |@+ , , , w+w+w+R+o W+R+R+W+w+R+o w+w+ +Q+2 f u T >.T 4.u u n f 2.).~.@.:                   ",
"  g < l.q 1@{ ~ B + V.r.( 3 [ n.R.1 ; h x Z ' $ 0 w+R+w+o R+W+W+R+w+w+w+o w+w+[ 3.  2.@.u 5+U F T T G e f @.e V ).3 3 3 3 [ [ < :   ",
"  / !.e :@]+]+R 2@; = x+%.e u H+]@x., , A $ F.3@1@w+o R+W+R+W+R+w+w+4@4@R+4@w+2.    3./ [ [ f n ,.>.T F u !.f @.e n n n n n n !.<   ",
"  < m U {+{+^.S.%.3 l c.m 5+G 7+~@5@{.8 B P P { q+w+w+o W+R+W+W+4@m.m.m.R+4@4@w+. - . _     : %.u U U U u m ).@.n 4.,.T T 6@e.i.p+. ",
"  : 3 H s.F ~.v V n n e H @.u 4.7@W *.o.]@R 8@-.7@f w+o R+W+w+4@4@E+E+m.m.4@4@w+7 7 x h *     / a.).).).f !.~.m %.~.F m+T |.q+7.e++ ",
"  w ( f e n @.a.k.d |.:@j+p+:+:.:+U.9@  ).S.U u !.( w+w+R+W+4@m.E+m.m.4@4@m.4@w+P P 7.(@2.:             : f e V ).@.n U |._+0@$ $ $ ",
"  < @.b.@.v V X+s++@.@8.a@J y.C y.x *.5 < ).v f w+w+w+w+R+W+E+m.m.E+D+D+D+E+m.4@w+b@..h.m [ 3./././././.  ( f !.~.V '.j+v.~ c@' ' # ",
"= l.m H+K+2 7@-.8.(+$ (+'+N.P P N.p.q.].2.3.r.w+m.L -@w+R+W+m.m.E+E+E+E+E+E+E+m.w+{+d@T F !.l / / / / :   _ _ J+e@7@[.j K 3@$ ) f@K ",
"i H.<.K+9+P+C C !@$ 6+(+8.g@h@D i@h@j@m f 3.h w+L -@w+w+W+R+R+R+R+R+R+R+m.m.4@4@w+m+m+;.T U e ~.e e b.).3.V.x y.Q z.X {.@ F.# K K.> ",
"z , > h Y Z ) ) $ z a+{ h@7+d@{+{+{+,.F ~.n.o.w+L -@M w+R+R+W+W+W+W+W+W+R+R+4@4@w+^.^.^.4.F G F ^.F F ~.n.` p.N.N.%+z+++A A A i ; 5 ",
"' Z r r 9 F.6+6+6+a+8.h@_.T m+m+m+m+m+T 4.~.j+w+m.L w+W+W+W+4@m.m.4@4@4@W+R+R+w+w+v v v !.s.G u V u G ^.e T.h@k@g@5.E.j j j B.h 4   ",
"f@L.M.! '+'+'+'+'+O g@E {+,.G F 4.F F 4.4.U !.n.w+w+m.W+m.E+m.E+E+E+E+4@m.m.W+W+w+r.Z+_ P.p b+*@l.'.U 4.^.U U U u k.].r.x+x+x+x+2.2.",
"j E.5._+_+_+_+_+_+I.i.m s.F n H v @.@.@.@.@.V ~.V t.w+m.E+E+m.D+E+E+E+m.m.E+m.4@w+*.l@[+K.m@+@n@o@)+t+@.@.@.@.H @.W.: < @.~.~.b.b.b.",
"x+c+=@U g+6@6@6@F S '.3 ~.^.!.( w w 3.r.Z+R.&.b+p w+m.E+E+D+E+D+E+E+E+m.E+D+E+4@m.w+9 z Z L.^+'+y+q.].( : g g g g : 2.f n F F F ^.^.",
"~.V t.e F m+m+m+m+F %./ V ^.!.: /.5 | 6 x K.m@N w+m.E+D+E+D+m.D+m.E+E+E+D+D+E+4@E+w+$ @+@ r p@C+M+q@J.[   r@/.r@  l @.V V n G F e H ",
"1.=@[ [ e F {+F {+U f / !.u %.r._ = 6 ++Z Z A ^+w+E+E+D+E+E+m.E+E+E+E+E+D+D+E+m.E+m.w+z K !+2 k.7+{+^.m < : : 3.3.a.b+k.v+&.b+b+[ : ",
"s@O+[.: ).@.!.!.t.@.l : c.'. +!+}+K., z F.$ A w+m.E+D+D+E+m.m.E+m.E+m.E+E+D+E+m.E+m.w+, !+<.m ^.T m+T U V !.@.[ w f.5.C+`.t@N ]@[.  ",
"M.P+Q+: ( ( x+R.R.R.r.* r.} & A Z Z ) $ $ % x w+E+D+D+D+E+w+4@m.m.m.4@E+E+D+E+m.E+E+w+w+2 H U F {+,.T ,.F {+4.b./ W 6.! M.M.B s 1   ",
"x E.J+H !.&.I 6 l@u@}+}+}+x v@|+@+F.F.$ K x w+E+D+D+D+D+E+m.w+W+4@m.4@E+E+D+E+m.E+E+m.w+@.V m !.b.U T m+m+m+T ^.m }.3+}@}@}@}@5.[.  ",
"_ ].m ^.4.h.C+8 K ^+^+^+^+^+L.a+c@(+(+% A.1 w+E+D+D+D+E+E+m.4@4@W+4@4@E+m.D+E+m.E+D+E+w+w+!.l : / !.7+F 6@6@6@F ^.U 1.E E 1.E X+/   ",
"  ( %.~.~.+.#+s Q S+B+S+S+S+B+B+B+a w@& )+w+E+D+D+D+D+E+m.m.4@W+W+w+4@E+m.D+E+m.E+D+E+m.w+w+@.< w C.~@_+_+x@_+R y@V V V V ~.~.v (   ",
"  3.: 2.( x+r.P.d+_.E _._._.1.1.d._.+.l.t+w+E+D+D+D+D+E+m.w+w+w+~.$@w+m.m.E+E+E+D+D+E+E+w+4@w+f U+!+B '+'+!@z@A+l.< < < < / ( : 3.  ",
"    /././././.: f ~.~.~.~.n 4.T m+T u V w+m.D+D+D+D+E+m.w+w+q.M+ .P./.w+4@E+D+D+D+D+E+E+w+4@w+w+!+, $ 6+$ %+.@#@t+%.'.%.'.[ g /./.  ",
"5     3.3.3.3.g ( < < / ( n.m F T ,.F ^.w+m.D+D+D+E+E+w+m.w+w+B w.A@3.w w+m.E+D+D+E+E+m.m.4@w+w+w+9 ) $ a++@B@U 7+^.^.^.s.V l 3.3.3.",
"> W K+'.%.'.'.'.'.f f [ } o.<.m e ~.e e w+E+D+D+D+E+m.m.4@W+w+w+2+:+'.%.'.w+m.E+E+m.m.m.m.4@w+W+w+++J w.v.I.=@s.T ;.T F n V @.f f f ",
"K n@..U ^.s.s.U U s.^.b+o+x.9+].< / / / w+E+D+D+E+E+m.m.4@W+W+w+_.U U s.s.^.w+4@m.m.m.m.4@4@w+W+W+w+1 :+h.k.a.!.4.T ,.n f f n ^.^.^.",
"+ O.}.e n e e e e n F g+C@N 0.[ <   . *.w+m.E+E+E+m.m.4@W+W+w+T.l+n e e u F F w+w+4@4@4@w+w+W+W+W+w+3.).~.V %.@.~.e e %.( ).s.m+m+>.",
". _ x+< l < < < < ).$.F D@e.E u v R.=+7 K w+m.m.m.m.4@W+W+W+w+a.< < < < f u G F S w+w+w+w+W+W+W+m.w+x+: l @.n V [ < < : 3.a.u T T T ",
"                /.: '.e n u F F V w *.X 6.] w+w+w+w+W+m.L w+!./         ( @.n n n n n n w+W+W+m.L w+g /.3.).V %.:     4 ; ^ E@b b b ",
"                  3.2.l l ).e ^.!.x+j.= j+j@}.} ; . w+w+w+< / w         3.( l l l l l l w+W+L W+w+w+      : < ( 3.    | i Q.P ~ ~ ~ ",
"                          : '.~.f g /.w ).~.@.2.                        * . h h h h h h h w+w+w+w+= r.                ; x , , 7 7 7 ",
"                            2.l 2.3.    2.l / w                         = K., {.y y y y y y y {.7 > *                 _ . ; | | | | ",
"                                                                        . Y @ # $ $ $ $ $ $ $ # 9 6 _                               "};
