/* XPM */
static char * p_win_6_xpm[] = {
"66 66 346 2",
"  	c #AA834B",
". 	c #A88047",
"+ 	c #A37A3D",
"@ 	c #9F7535",
"# 	c #9F7533",
"$ 	c #9F7534",
"% 	c #A07737",
"& 	c #A57D41",
"* 	c #A9824A",
"= 	c #A88148",
"- 	c #A88046",
"; 	c #A78046",
"> 	c #A67E43",
", 	c #A2793B",
"' 	c #9F7433",
") 	c #A07635",
"! 	c #A27B3A",
"~ 	c #A47E3D",
"{ 	c #A57F3D",
"] 	c #A6803F",
"^ 	c #A98446",
"/ 	c #AC874C",
"( 	c #AC864C",
"_ 	c #A98249",
": 	c #AB854C",
"< 	c #AC874D",
"[ 	c #AD894D",
"} 	c #A98348",
"| 	c #A77F46",
"1 	c #A88147",
"2 	c #AB854A",
"3 	c #AD884D",
"4 	c #A98149",
"5 	c #AA824A",
"6 	c #A57C41",
"7 	c #A2793C",
"8 	c #A2793A",
"9 	c #A07637",
"0 	c #A17938",
"a 	c #A98543",
"b 	c #AE8E4A",
"c 	c #AF8F4C",
"d 	c #B1914E",
"e 	c #B19150",
"f 	c #AE8B4E",
"g 	c #AB844C",
"h 	c #A77F45",
"i 	c #A37B3E",
"j 	c #A57D42",
"k 	c #A98148",
"l 	c #AC884D",
"m 	c #B08F4F",
"n 	c #B29251",
"o 	c #AF8D4D",
"p 	c #A78243",
"q 	c #A2783B",
"r 	c #A57E40",
"s 	c #AC894A",
"t 	c #B29351",
"u 	c #AF8C4F",
"v 	c #AB844B",
"w 	c #A47B3F",
"x 	c #A2783A",
"y 	c #9F7635",
"z 	c #A17738",
"A 	c #A37B3B",
"B 	c #A68140",
"C 	c #AD8B49",
"D 	c #B29350",
"E 	c #B49652",
"F 	c #B49753",
"G 	c #AF8E4F",
"H 	c #A88246",
"I 	c #A37B3D",
"J 	c #A17839",
"K 	c #B19050",
"L 	c #B39552",
"M 	c #B08F4D",
"N 	c #A98544",
"O 	c #A57E3D",
"P 	c #A47D3C",
"Q 	c #A78241",
"R 	c #AD8C4A",
"S 	c #B29451",
"T 	c #B59853",
"U 	c #B39451",
"V 	c #B08F50",
"W 	c #A88146",
"X 	c #A47B3E",
"Y 	c #A37A3C",
"Z 	c #A07636",
"` 	c #A88145",
" .	c #AC8949",
"..	c #AE8D4B",
"+.	c #AE8C4D",
"@.	c #AF8D4F",
"#.	c #B49653",
"$.	c #B19151",
"%.	c #AF8C4E",
"&.	c #AD8A4C",
"*.	c #A67E44",
"=.	c #A67F44",
"-.	c #B08E4F",
";.	c #AE8B4D",
">.	c #AE8E4B",
",.	c #B69953",
"'.	c #B59953",
").	c #B59753",
"!.	c #AE8C4E",
"~.	c #AE8A4E",
"{.	c #A1783A",
"].	c #AB864B",
"^.	c #AA824B",
"/.	c #B2934F",
"(.	c #AF8F4D",
"_.	c #AB874A",
":.	c #AA8449",
"<.	c #AD8B4B",
"[.	c #B1924E",
"}.	c #B29450",
"|.	c #AB864C",
"1.	c #AA844B",
"2.	c #B49552",
"3.	c #AA8646",
"4.	c #A47D3E",
"5.	c #A57F3F",
"6.	c #A78240",
"7.	c #A88342",
"8.	c #AB8748",
"9.	c #AD8A4D",
"0.	c #B09050",
"a.	c #AD8A4E",
"b.	c #B39450",
"c.	c #B1924F",
"d.	c #AA8549",
"e.	c #AD894B",
"f.	c #B0904E",
"g.	c #AE8C4C",
"h.	c #A88149",
"i.	c #AF8E4E",
"j.	c #AB864A",
"k.	c #AC874B",
"l.	c #B0904F",
"m.	c #AB874B",
"n.	c #AC884C",
"o.	c #A78045",
"p.	c #A47D3D",
"q.	c #A78144",
"r.	c #AA834A",
"s.	c #B39452",
"t.	c #B08E50",
"u.	c #AB8849",
"v.	c #A88443",
"w.	c #A57F40",
"x.	c #A47C3E",
"y.	c #A57E3F",
"z.	c #A68040",
"A.	c #A47C3F",
"B.	c #A57D43",
"C.	c #AB8649",
"D.	c #A67F42",
"E.	c #A78043",
"F.	c #AC884B",
"G.	c #AC874A",
"H.	c #A67F43",
"I.	c #9E7433",
"J.	c #A3793D",
"K.	c #AC8A49",
"L.	c #AF8D4E",
"M.	c #A47C40",
"N.	c #A17838",
"O.	c #A27A3A",
"P.	c #A37C3B",
"Q.	c #A68042",
"R.	c #AA854A",
"S.	c #A27A3B",
"T.	c #A77F44",
"U.	c #AA844A",
"V.	c #B19250",
"W.	c #AF8E4D",
"X.	c #A98248",
"Y.	c #A67E45",
"Z.	c #AD894E",
"`.	c #AC894C",
" +	c #A88144",
".+	c #A88245",
"++	c #A57E41",
"@+	c #AA8548",
"#+	c #A98447",
"$+	c #A17739",
"%+	c #9E7432",
"&+	c #A88345",
"*+	c #AC8947",
"=+	c #A37B3A",
"-+	c #AB8749",
";+	c #A67E41",
">+	c #A67D43",
",+	c #A98545",
"'+	c #A78242",
")+	c #A57D3F",
"!+	c #A37A3E",
"~+	c #A27A39",
"{+	c #A98347",
"]+	c #A67E42",
"^+	c #A27A3C",
"/+	c #B49752",
"(+	c #AF8F4B",
"_+	c #A88247",
":+	c #A98247",
"<+	c #A27939",
"[+	c #B39652",
"}+	c #A07736",
"|+	c #AC8A47",
"1+	c #AD8A4B",
"2+	c #A57E3E",
"3+	c #A37B3F",
"4+	c #A47C41",
"5+	c #9F7434",
"6+	c #AE8D4A",
"7+	c #AA8645",
"8+	c #A68043",
"9+	c #AE8B4C",
"0+	c #A98346",
"a+	c #AB8846",
"b+	c #A88244",
"c+	c #B39351",
"d+	c #9E7332",
"e+	c #B39551",
"f+	c #A88543",
"g+	c #A78044",
"h+	c #A57E42",
"i+	c #A17837",
"j+	c #B1914F",
"k+	c #AD894C",
"l+	c #AD884C",
"m+	c #AE8D4D",
"n+	c #A37C3D",
"o+	c #A27938",
"p+	c #B39651",
"q+	c #AA8746",
"r+	c #A78042",
"s+	c #AC884A",
"t+	c #A88344",
"u+	c #B29151",
"v+	c #B69954",
"w+	c #AA834C",
"x+	c #A98645",
"y+	c #AA8448",
"z+	c #AA8745",
"A+	c #AB8946",
"B+	c #AB8947",
"C+	c #B29250",
"D+	c #AB854B",
"E+	c #A37B3C",
"F+	c #A17939",
"G+	c #A78143",
"H+	c #A98644",
"I+	c #A88343",
"J+	c #080808",
"K+	c #AA8649",
"L+	c #AD8B4A",
"M+	c #B1904F",
"N+	c #EF7B00",
"O+	c #EFEF00",
"P+	c #A9834A",
"Q+	c #AC894B",
"R+	c #AB8747",
"S+	c #A68041",
"T+	c #CE3900",
"U+	c #4A4A4A",
"V+	c #292929",
"W+	c #AB8847",
"X+	c #A98444",
"Y+	c #AA8747",
"Z+	c #A47D3F",
"`+	c #A98643",
" @	c #A98546",
".@	c #AA8349",
"+@	c #B08F4E",
"@@	c #A57C40",
"#@	c #EFDEBD",
"$@	c #DEAD7B",
"%@	c #B0914E",
"&@	c #A98349",
"*@	c #181818",
"=@	c #BD6B39",
"-@	c #6B7B7B",
";@	c #8C1800",
">@	c #A78341",
",@	c #A88442",
"'@	c #A88341",
")@	c #AB8848",
"!@	c #AE8A4D",
"~@	c #B1934F",
"{@	c #A27B39",
"]@	c #B18F50",
"^@	c #B59854",
"/@	c #A07837",
"(@	c #AF8E4B",
"_@	c #AD8A4A",
":@	c #A68240",
"<@	c #AC8948",
"[@	c #A98547",
"}@	c #AA8647",
"|@	c #AD8C4B",
"1@	c #B0914D",
"2@	c #B19251",
"3@	c #B0904D",
"4@	c #A67F45",
"5@	c #A57F3E",
"6@	c #AA8547",
"7@	c #9F7634",
"8@	c #AC8B48",
"9@	c #A47C3D",
"0@	c #B49651",
"a@	c #AE8D4C",
"b@	c #6B0000",
"c@	c #A37D3B",
"d@	c #A57D3E",
"e@	c #AD8D49",
"f@	c #A07836",
"g@	c #B59752",
"h@	c #A07738",
"i@	c #AC8A48",
"j@	c #AD8C49",
"k@	c #A78142",
"l@	c #A67F40",
"m@	c #A57D40",
"n@	c #AE8C4B",
"o@	c #A9824B",
"p@	c #AA8845",
"q@	c #A67F41",
"r@	c #A47B40",
"s@	c #A47B41",
"t@	c #A1773A",
"u@	c #AA8744",
"v@	c #AB8A47",
"w@	c #B08E4E",
"x@	c #A37C3C",
"y@	c #AF8E4C",
"z@	c #B0904C",
"A@	c #AE8D49",
"B@	c #A78340",
"C@	c #B39550",
"D@	c #AD8B4D",
"E@	c #AC8B49",
"          . + @ # $ $ $ # % & *                                                                                                     ",
"  * = - ; > , $ ' ) ! ~ { ] ^ / (           _ . ; ; = *     : < [ [ [ [ / } ; | 1 2 3 [ 3 3 3 3 3 [ [ [ 3 (   4 . = 5               ",
"  = 6 7 7 8 9 $ ' 0 a b c c d e f g       5 h i , 7 j k     l m n n n n o p 7 q r s e t n n n n n n n t e u v h w j 4               ",
". > x $ $ y z 8 A B C D E F E t G [ l 3 3 / H I J , 6 =     3 K L F F L M N O P Q R S F T T T T T E U U t V [ W X 6 k               ",
"Y x Z # ' % w `  ...+.@.t #.$.%.G e n n n e &.H *.=.. *     : [ -.L L m ;...>.b ..+.@.t T ,.'.'.).n !.~.f -.K &.H . *               ",
"{.{.J J J + h ].-.e @.~.m n G ~.K E E L E E K ( ^.  v ( ( v g / f e e !.f K D /.(._.:.<.d [.[.}.t %.: : 3 G n @.: ^.  : / |.1.v ( < ",
"*.*.*.*.*.h 4 g 3 !.V K @.!.G e 2.).t -.n E e <   1.[ m @.< < G V @.@.V K G &.3.Q 4.X 5.6.6.7.8.[ < : 9.V m !.l g     3 -.@.( < -.e ",
". = _   : |.v 1.|.[ 0.n @.a.-.t b.c.<.d.e.f.g.:.h.  a.e i.j.k.l.m m.j.m K n.o.Y Z $ ) z 8 A p.q.r.  g !.e @.|.      1.9.e K ~.f e s.",
"i j = ( @.-.3 ( f V -.@.m K t.!.u.v.w.x.y.Q z.A.B.4 ( 9.C.D.E.F.G.H.D._.F.q.7 9 ' I.Z J.H.3.K._.  ^.  < ~.l   ^.      ( ~.G K K @.u ",
"@ , h / V K n.2 L.e &.2 L.e +.} M.N.y ) % J O.P.Q.R.< / H S.7 =.h i + T.h Y y $ @ Z , > U.L.V.@.< ( ( / < < ( 1._ _     v [ f.W.j.X.",
"I.{.Y.: Z.`. +D.C.&..+++@+&.#+w $+$ %+$ {.& &+*+..m K m 8.=+Z q w 6 6 w 7 9 I.I.Z + *.= v 3 u m K K K K K K m -+;+>+4     :.,+'+)+!+",
"~+4.{+( < :.x.8 ]+- M.^+]+W M.% $ $ y $+M.X.9.V.L /+T /+(+B 0 J A._+:+A.J <+<+N., *.*     : 3 -.U E /+E L E [+R ] ++X.  4 > , }+) ) ",
"|+R W.V V 1+2+Z {.3+4+6 M.!+$+5+%+@ , & ; r.< u n F ,.T }.6+7+8+H 9+;.0+E.7+a+b+=.=     : ~.V -.-.t F c+V n /+/.R u.U.. 6 q @ d+%+I.",
"U e+E F ).[.f+~+z ^+g+X.h+8 N.0 i+J 6 =     g / @.U F T T E j+k+[ K e 9.l+m j+k+r.5   * U.+.j+!./ G t -.l %.U e+/.m+U.=.n+~+~+o+o+o+",
"G K E '.'.p+(+q+r+E.s++.@+D.t+q+t+> ; r.  g 3 @.t.-.u+E '.v+#.n V -.-.V V V u < g w+* h ++'+x+y+  l f 3 g < !.<.a+'+r Q.z+A+A+A+B+B+",
"/ f n E T T /+D ;./ -.C+!.k.L.j++.U.*   * r.&.j+i.k.9.t E E E L e [ [ K e ~.D+r._ _ . w z i+E+g+1.( ( : 1.g 1.o.I F+! v.(.e+e+e+U }.",
"-.-.-.K L T v+).t V -.-.m V V -.Z.: w+  . ]+G+H+I+++H J+-.-.-.J+f ( ( f u < _ Y.6 6 w J ) {.& K+L.-.@.[ 1.^.* | j Q.7+L+i.t ).#.u+V ",
"}.M+9.[ e E F E E t f 3 -.n @.(   * * 4 j {.i+<+~+O.J+N+J+: J+O+J+r.P+r.U.r.- i % Z Z Z J j R.-.L F L -./ g :   r.Q+f.W.F.9.V.e [ : ",
"A+R+:.: ~.-.m m V @.l : ~.@.Z.  | j & 6 , Z J+J+S+N J+O+T+J+N+O+T+J+6 4+6 6 X z # U+U+U+V+C.-.s.T ,.T t m @.@.[ : d.W+X+]+Q.,+Y+U.  ",
"O.Z+_+: ( / ( |.|.:   r.U.1.1.k & J 9 % Z % J+T+J+J+N+O+N+T+N+O+N+J+<+J J J z U+U+U+U+V+V+@.U E F ).T F E E L V / W 4.! O.O.A r 1   ",
"3+H.s+L.@.~.|.^.^.* h j 6 6 j M., $ %+$ z i J+N+T+J+N+O+O+N+O+O+N+T+J+U+U+U+U+U+U+V+V+V+@.V K K K s.T '.'.,.T s.m 1+z+a `+`+`+ @.@  ",
"k m.M+2.E n f g   _ & 8 J J J $+% Z @ % A.1 J+O+N+J+N+O+O+N+O+N+N+N+T+J+J+J+J+J+J+. :.o e %.|.D+/ m E ).F ).F E L U D D }.}./.+@n.v ",
"  [ t T '.E e f ( r.^ 7.w.X !+i w w w @@#+J+N+O+O+N+N+O+N+T+N+N+O+N+N+N+T+J+#@$@#@J+E.3.W+&+j 6 > C.G K K K K K K K e s.).#.n V @.u ",
"  3 n ).T T E n ~./ L.%@&.&@= = = 1 . X.J+N+N+N+O+O+N+*@*@*@*@*@N+O+N+J+J+=@$@=@$@=@J+=+P.O.8 J Y g+].< ( ( ( ( ( ( / @.U n f f e s.",
"  < @.n E T './+e -.U F n u < 1.= T.> J+N+O+O+O+N+*@*@-@-@U+U+J+J+N+J+U+J+=@=@=@=@=@;@J+>@,@'@>@v.)@9.<   ^.^.^.^.^.  3 -.u ( < @.e ",
"r.  D+!@n ).T F 2.L E F E t f r.j , z J J+N+O+N+*@-@#@#@-@U+*@J+J+N+J+U+J+;@=@=@=@;@;@J+d /.~@~@/.b.t @.|.  1.1.1.    1.|.D+  1.|./ ",
"> >+>+H 9+K $.$.u+u+$.$.n l.F.=.7 ) I.$ {@J+N+J+V+#@#@-@V+V+;@=@V+J+=@J+;@J+;@;@;@;@J+]@n #.^@v+'.,.T n u f f f f j.o.>+>+>+*.| 4 ^.",
"8 x x A.{+/ l / / / / / < ].H.8 Z $ # /@>@(@J+N+V+-@V+=@=@;@J+J+=@J+$@J+$@J+J+J+J+J+J+L.!@K /+T T T ).E L s.s.L t _@y.{.{.{.8 M.1   ",
"6.:@6.v.s+n.} =.*.*.*.*.*.B.7 @ I.y {@6.<@J+N+J+J+V+=@;@=@$@$@#@#@=@;@J+=@J+J+V+V+V+J+[@` }@..f.e n n L T '.T E C+|@f+:@:@:@6.X+F.f ",
"1@1@1@[.D (.I+, {.{.{.{.x J % @ ' i+7.>.L.!@J+J+J+;@J+J+#@#@#@;@#@=@J+J+;@J+J+U+U+U+V+J+, A 5.0+/ l [ K E '.).2@f ;.3@1@1@1@1@[.D U ",
"n n n t t i.t++ 7 7 7 7 7 7 7 7 , X }@m u ( a.K @.J+=@#@#@;@;@$@=@;@V+J+J+J+J+V+U+V+V+J+] ] B .+* ^.1.~.e t e !.|.[ K t n n n n n n ",
"[ [ [ [ [ / &@; | ; ; ; ; ; ; ; ; 1 U./ ( 1.: < ( J+;@$@;@$@$@=@;@J+V+J+*@*@J+V+U+U+V+J+3@1@c k+1.^.  |.l [ 3 ( 1.: l [ [ [ [ [ [ [ ",
"      * . h h h h ; _                   _ - | | | h J+;@$@$@=@;@J+V+J+*@*@*@J+V+U+U+U+V+J+'.F K ~.[ [ |.1.|.3 / 1.                  ",
"      = 4+, , , , i h                 * 4@+ , , , , , J+J+J+J+J+*@*@V+*@*@*@*@J+V+U+U+V+J+'.T 2.t t n f |.~.K @.:                   ",
"  g < j.p 5@{ ~ A + Y.r.( 3 [ n.U.1 ; h w Z ' $ 0 P *@U+J+J+J+V+*@*@*@V+V+*@*@J+V+V+U+U+V+c+U E T T F e f @.e V ~.3 3 3 3 [ [ < :   ",
"  / -.e 3@(+(+R 6@; = D+%.e t M+}@x., , z $ I.7@5@8@*@U+J+J+*@*@V+U+U+U+V+*@*@J+V+V+V+U+V+[ f n ).'.T E t -.f @.e n n n n n n -.<   ",
"  < m U /+/+L V.%.3 l a.m c+F e+<@9@{.8 A P P { z+J+U+V+J+J+V+U+U+U+V+V+V+*@*@J+V+V+U+V+J+  : %.t U U U t m ~.@.n 2.).T T 0@c.g.y+. ",
"  : 3 G s.E K u V n n e G @.t 2.a@W *.o.}@R (@>.a@J+*@*@V+J+*@V+V+V+*@*@*@*@*@J+J+V+V+J+*     / 9.~.~.~.f -.K m %.K E v+T [.z+5.n++ ",
"  v ( f e n @.9.i.d [.3@s+y+1+(.1+J+J+J+~.V.U *@J+*@*@J+J+J+*@*@*@*@b@b@b@b@*@*@J+J+J+0+|.:             : f e V ~.@.n U [.|+c@$ $ $ ",
"  < @.0.@.u V +@B+,@>@6.d@I y.B J+$@#@=@J+J+J+V+V+J+*@J+J+V+J+*@b@;@;@b@b@b@J+6+6+e@..f.m [ 1.^.^.^.^.^.  ( f -.K V !.s+v.~ f@' ' # ",
"= j.m M+F.2 a@>.6.}+$ }+~+P.P P J+=@#@#@J+$@J+J+U+V+J+J+b@U+J+b@T+;@b@b@;@;@b@J+/+/+g@T E -.l / / / / :   _ _ Q+M a@:.j J 7@$ ) h@J ",
"i H._.F.g+Z+B B {@$ d+}+6.i@j@C J+$@#@=@J+;@J+J+V+J+J+J+b@V+J+;@;@;@;@T+;@;@b@J+v+v+v+,.T U e K e e 0.~.1.Y.w y.Q z.X {.@ I.# J M.> ",
"y , > h Y Z ) ) $ y i+{ j@e+g@/+J+=@=@;@J+J+J+V+V+J+J+*@b@;@V+b@;@T+T+;@b@b@V+J+L L L L 2.E F E L E E K n.` p.P.P.=+F+$+z z z i ; 5 ",
"' Z q q 9 I.d+d+d+i+6.j@/.T v+v+v+J+J+J+V+V+V+V+J+J+J+*@b@;@U+b@T+T+b@b@V+V+*@J+J+J+u u -.s.F t V t F L e W.j@8@i@3.E.j j j B.h 4   ",
"h@N.O.! ~+~+~+~+~+O i@D /+).F E 2.E E J+J+J+J+J+J+V.e+E *@U+V+J+b@b@b@U+V+*@;@b@T+T+J+J+R.o j+9+j.!.U 2.L U U U t i.].r.D+D+D+D+|.|.",
"j E.3.|+|+|+|+|+|+K.g.m s.E n G u @.@.@.@.@.V K V t.n F *@V+V+J+U+U+V+*@*@b@;@T+N+N+N+T+J+k@,@l@m@{+;.@.@.@.@.G @.Z.: < @.K K 0.0.0.",
"D+k+l.U p+0@0@0@E S !.3 K L -.( v v 1.r.&@U.&.j+o m.9.*@*@*@*@*@*@*@*@J+b@T+T+T+N+N+N+N+T+J+<+~+E+q.].( : g g g g : |.f n E E E L L ",
"K V t.e E v+v+v+v+E %./ V L -.: ^.5 | 6 w M.k@N '+& ` *@b@b@;@;@T+;@;@J+;@T+;@T+N+N+N+N+T+J+@@I+W+n@L.[   o@^.o@  l @.V V n F E e G ",
"}.l.[ [ e E /+E /+U f / -.t %.r._ = 6 $+Z Z z <+<+O.J+b@;@;@;@;@;@T+;@J+T+;@;@T+T+N+N+N+T+J+2 i.e+/+L m < : : 1.1.9.j+i.k.&.j+j+[ : ",
"p@Y+:.: ~.@.-.-.t.@.l : a.!.@+]+4+M., y I.$ z X r+J+;@T+T+T+T+;@;@T+J+;@T+;@T+T+;@T+T+T+;@J+m L T v+T U V -.@.[ v d.3.I+++q@N }@:.  ",
"O.Z+_+: ( ( D+U.U.U.r.* r.} & z Z Z ) $ $ % w 1 J+;@T+T+T+T+T+T+;@;@J+;@;@;@T+;@;@;@;@;@;@J+U E /+).T ).E /+2.0./ W 4.! O.O.A r 1   ",
"w E.Q+G -.&.H 6 r@s@4+4+4+w t@5+%+I.I.$ J w Y.r.J+T+N+N+T+T+T+;@;@b@J+b@b@J+;@;@;@;@;@T+;@*@m -.0.U T v+v+v+T L m <.a+u@u@u@u@3.:.  ",
"_ ].m L 2.f.I+8 J <+<+<+<+<+N.i+f@}+}+% A.1 r.J+;@N+N+N+N+T+T+;@b@b@J+J+*@b@b@b@;@;@T+;@*@-.l : / -.e+E 0@0@0@E L U }.D D }.D +@/   ",
"  ( %.K K +.&+r Q `+H+`+`+`+H+H+H+a S+& {+9.[ J+T+N+N+N+N+T+;@J+b@J+@.< *@b@;@;@;@T+;@T+*@t @.< v C.<@|+|+v@|+R w@V V V V K K u (   ",
"  1.: |.( D+r.R.m+/.D /././.}.}.b./.+.j.;.n J+;@N+N+N+N+N+T+;@J+J+J+: 1.*@b@;@;@T+T+T+;@*@E C+f .@]+A ~+~+{@x@G+j.< < < < / ( : 1.  ",
"    ^.^.^.^.^.: f K K K K n 2.T v+T t V n F J+T+N+N+N+N+T+T+;@J+*@J+^.^.*@b@;@T+T+;@;@;@*@y@i@^ ]+, $ d+$ =+>@)@;.%.!.%.!.[ g ^.^.  ",
"5     1.1.1.1.g ( < < / ( n.m E T ).E L E F J+T+N+N+N+N+T+;@J+b@V+J+1.v *@b@;@T+;@;@b@b@*@Q.A F+z 9 ) $ i+,@z@U e+L L L s.V l 1.1.1.",
"> W F.!.%.!.!.!.!.f f [ } o._.m e K e e e e J+;@T+T+T+T+b@;@J+b@V+J+!.%.J+*@*@*@*@*@*@*@*@{.5+d+$ $+I w.v.K.l.s.T ,.T E n V @.f f f ",
"J l@..U L s.s.U U s.L j+x+x.g+].< / / / / ( J+b@;@;@;@;@;@J+b@J+V+J+U s.s.*@*@V+U+U+J+J J % ) 7@% w 1 1+f.i.9.-.2.T ).n f f n L L L ",
"+ Q.<.e n e e e e n E p+A@N 8.[ <   . *.>+>+J+b@b@b@b@b@J+J+J+V+V+J+e e t J+*@*@*@*@*@B@>@>@>@>@7.0+1.~.K V %.@.K e e %.( ~.s.v+v+'.",
". _ D+< l < < < < ~.$.E C@c.D t u U.>+7 J x x J+J+J+J+J+=@;@=@V+J+< < < f J+*@V+U+U+V+J+[.[.[.[.f.D@D+: l @.n V [ < < : 1.9.t T T T ",
"                ^.: !.e n t E E V v *.X 4.] 5@I 7 + j J+J+J+J+J+        J+*@V+*@*@*@*@V+J+n n n $.f g ^.1.~.V %.:     4 ; ^ E@b b b ",
"                  1.|.l l ~.e L -.D+h.= s+y@<.} ; . k r.: < / v         J+J+V+V+V+V+V+V+V+J+l 3 l |.      : < ( 1.    | i S.P ~ ~ ~ ",
"                          : !.K f g ^.v ~.K @.|.                        J+*@*@=@=@$@#@*@$@=@J+h | = r.                ; w , , 7 7 7 ",
"                            |.l |.1.    |.l / v                         = J+V+V+V+V+V+V+V+V+J+{.7 > *                 _ . ; | | | | ",
"                                                                        . Y J+J+J+J+J+J+J+J+J+# 9 6 _                               "};
