/* XPM */
static char * naruto_run_front_7_xpm[] = {
"32 32 396 2",
"  	c #ACADA3",
". 	c #B6BAAB",
"+ 	c #A1A78E",
"@ 	c #6F912C",
"# 	c #7A9E33",
"$ 	c #80A438",
"% 	c #769A2F",
"& 	c #83AA37",
"* 	c #70942C",
"= 	c #7FA438",
"- 	c #7A9D35",
"; 	c #72962D",
"> 	c #7BA034",
", 	c #799C34",
"' 	c #70942A",
") 	c #779A32",
"! 	c #799D32",
"~ 	c #74972F",
"{ 	c #6F932B",
"] 	c #789D32",
"^ 	c #7DA136",
"/ 	c #83AB36",
"( 	c #71942C",
"_ 	c #7CA136",
": 	c #7A9B38",
"< 	c #868B68",
"[ 	c #B5B9B0",
"} 	c #C5C7C5",
"| 	c #A0A094",
"1 	c #A4A59C",
"2 	c #BBBFBC",
"3 	c #A2A894",
"4 	c #72952F",
"5 	c #73972F",
"6 	c #769A30",
"7 	c #6C9026",
"8 	c #759831",
"9 	c #7C9F36",
"0 	c #7B9E35",
"a 	c #74982F",
"b 	c #779B31",
"c 	c #7A9F34",
"d 	c #6E9229",
"e 	c #70932C",
"f 	c #789C32",
"g 	c #6D9129",
"h 	c #749830",
"i 	c #75992F",
"j 	c #74992D",
"k 	c #70932B",
"l 	c #769931",
"m 	c #749731",
"n 	c #788356",
"o 	c #878977",
"p 	c #9CA08F",
"q 	c #7C7A64",
"r 	c #A4AB8B",
"s 	c #C8C9C6",
"t 	c #A7A99E",
"u 	c #7D9846",
"v 	c #749632",
"w 	c #7CA035",
"x 	c #71952D",
"y 	c #7B9F34",
"z 	c #71942D",
"A 	c #82A737",
"B 	c #759830",
"C 	c #6B8F27",
"D 	c #769A31",
"E 	c #75992E",
"F 	c #7FA635",
"G 	c #71952C",
"H 	c #7A9E34",
"I 	c #73972D",
"J 	c #84AA38",
"K 	c #798853",
"L 	c #B0B4A6",
"M 	c #B2B6A6",
"N 	c #868570",
"O 	c #969D7F",
"P 	c #BBBDB5",
"Q 	c #9A9D8D",
"R 	c #ACB19E",
"S 	c #828D62",
"T 	c #759732",
"U 	c #789C31",
"V 	c #789B33",
"W 	c #7A9E35",
"X 	c #82A836",
"Y 	c #749730",
"Z 	c #769930",
"` 	c #789D31",
" .	c #708248",
"..	c #BFC1BB",
"+.	c #B8BCBA",
"@.	c #9D9D95",
"#.	c #BEC0B0",
"$.	c #C5C8C0",
"%.	c #AAAE96",
"&.	c #B6BAB5",
"*.	c #97A874",
"=.	c #6F932A",
"-.	c #7EA336",
";.	c #759A2E",
">.	c #73962E",
",.	c #6A8D25",
"'.	c #7DA333",
").	c #7FA337",
"!.	c #789B32",
"~.	c #759930",
"{.	c #6F922B",
"].	c #7FA536",
"^.	c #779C2F",
"/.	c #799D35",
"(.	c #6D8E2D",
"_.	c #98998B",
":.	c #D4D4D4",
"<.	c #9A9991",
"[.	c #B7BAAF",
"}.	c #B8BCB3",
"|.	c #ACB090",
"1.	c #A3A68E",
"2.	c #899F5D",
"3.	c #799D33",
"4.	c #7A9E32",
"5.	c #6E922A",
"6.	c #74982D",
"7.	c #799E32",
"8.	c #7CA036",
"9.	c #769932",
"0.	c #789B31",
"a.	c #7CA033",
"b.	c #779A36",
"c.	c #949883",
"d.	c #A4A799",
"e.	c #7C7A69",
"f.	c #A5A597",
"g.	c #C6C7BF",
"h.	c #B0B39A",
"i.	c #878D72",
"j.	c #799B37",
"k.	c #86AD3A",
"l.	c #7A9D34",
"m.	c #7EA237",
"n.	c #72972B",
"o.	c #779C31",
"p.	c #80A537",
"q.	c #74844E",
"r.	c #BBBEB6",
"s.	c #B5B9A9",
"t.	c #9B9B92",
"u.	c #818369",
"v.	c #9DA190",
"w.	c #868A7F",
"x.	c #779447",
"y.	c #7DA235",
"z.	c #7EA337",
"A.	c #7BA033",
"B.	c #6E9129",
"C.	c #6F922A",
"D.	c #7A9F32",
"E.	c #6F9429",
"F.	c #6D9128",
"G.	c #769B30",
"H.	c #779B30",
"I.	c #6A8E26",
"J.	c #7FA437",
"K.	c #7CA135",
"L.	c #7DA137",
"M.	c #6C9028",
"N.	c #7D9947",
"O.	c #99A17B",
"P.	c #BABBB7",
"Q.	c #BDBFB9",
"R.	c #A6A59D",
"S.	c #A3A78D",
"T.	c #B4B8A7",
"U.	c #AEB2A2",
"V.	c #6D893C",
"W.	c #799C32",
"X.	c #020202",
"Y.	c #201818",
"Z.	c #302017",
"`.	c #72952D",
" +	c #779A31",
".+	c #769B2F",
"++	c #72962E",
"@+	c #74953B",
"#+	c #A0A697",
"$+	c #B9BEBA",
"%+	c #B4B7B3",
"&+	c #CBCCCB",
"*+	c #8D8E7A",
"=+	c #A7A99B",
"-+	c #B5BAAA",
";+	c #B0B4A7",
">+	c #738D3F",
",+	c #70942B",
"'+	c #A06030",
")+	c #4B2E18",
"!+	c #C8B348",
"~+	c #799B33",
"{+	c #98A38C",
"]+	c #BEC1C0",
"^+	c #B6B8AF",
"/+	c #A5A99A",
"(+	c #898A7A",
"_+	c #9C9E90",
":+	c #AAAD9F",
"<+	c #95A083",
"[+	c #769831",
"}+	c #7EA236",
"|+	c #7DA135",
"1+	c #D0C648",
"2+	c #D8D850",
"3+	c #A88040",
"4+	c #D0B848",
"5+	c #785828",
"6+	c #839E56",
"7+	c #ABAEA3",
"8+	c #A1A592",
"9+	c #B6BAAA",
"0+	c #A1A098",
"a+	c #75903F",
"b+	c #7CA037",
"c+	c #7DA036",
"d+	c #B38340",
"e+	c #7B9F36",
"f+	c #73982E",
"g+	c #72824B",
"h+	c #C3C5BE",
"i+	c #BABDB9",
"j+	c #9AA18B",
"k+	c #7DA234",
"l+	c #84AB39",
"m+	c #6B8E26",
"n+	c #75982F",
"o+	c #82A738",
"p+	c #82A739",
"q+	c #7B9F33",
"r+	c #748E40",
"s+	c #9AA388",
"t+	c #94A47D",
"u+	c #7CA039",
"v+	c #6D9029",
"w+	c #673820",
"x+	c #704027",
"y+	c #704837",
"z+	c #935333",
"A+	c #82A837",
"B+	c #73962F",
"C+	c #7FA436",
"D+	c #789A32",
"E+	c #83AA35",
"F+	c #7A9F33",
"G+	c #7B9F35",
"H+	c #74982E",
"I+	c #789C33",
"J+	c #E08048",
"K+	c #503833",
"L+	c #D0A150",
"M+	c #D08848",
"N+	c #485890",
"O+	c #7BA035",
"P+	c #73972E",
"Q+	c #759B2E",
"R+	c #779C30",
"S+	c #D07446",
"T+	c #A85838",
"U+	c #905028",
"V+	c #384888",
"W+	c #5068A0",
"X+	c #878780",
"Y+	c #B0B0B0",
"Z+	c #888890",
"`+	c #7080A8",
" @	c #2008B0",
".@	c #72952E",
"+@	c #799E31",
"@@	c #6E912A",
"#@	c #815030",
"$@	c #473020",
"%@	c #B8C0C1",
"&@	c #C7C7C6",
"*@	c #608098",
"=@	c #302828",
"-@	c #81A835",
";@	c #799D34",
">@	c #B06038",
",@	c #202020",
"'@	c #363631",
")@	c #B08578",
"!@	c #646060",
"~@	c #8898C0",
"{@	c #535343",
"]@	c #575353",
"^@	c #6780B0",
"/@	c #908888",
"(@	c #946453",
"_@	c #736350",
":@	c #061830",
"<@	c #6E9228",
"[@	c #749A2D",
"}@	c #7CA233",
"|@	c #101820",
"1@	c #082040",
"2@	c #B79080",
"3@	c #E7C0B0",
"4@	c #F0D6C7",
"5@	c #B7B7A8",
"6@	c #CBB0A4",
"7@	c #384038",
"8@	c #283878",
"9@	c #73962D",
"0@	c #81A737",
"a@	c #6C9027",
"b@	c #74962F",
"c@	c #604737",
"d@	c #E7B7A1",
"e@	c #001018",
"f@	c #615850",
"g@	c #D4A084",
"h@	c #D7A797",
"i@	c #856357",
"j@	c #929193",
"k@	c #878778",
"l@	c #759A30",
"m@	c #A2A1A1",
"n@	c #604840",
"o@	c #685044",
"p@	c #745450",
"q@	c #473730",
"r@	c #9898A0",
"s@	c #72962C",
"t@	c #779B33",
"u@	c #083060",
"v@	c #D86828",
"w@	c #504040",
"x@	c #777768",
"y@	c #85AC39",
"z@	c #282830",
"A@	c #804828",
"B@	c #98A098",
"C@	c #779B2F",
"D@	c #6D9229",
"E@	c #81A738",
"F@	c #6C8F27",
"G@	c #F89840",
"H@	c #688B22",
"I@	c #7EA334",
"J@	c #71952B",
"K@	c #779B32",
"L@	c #7CA134",
"M@	c #A4A498",
"N@	c #887870",
"O@	c #769B2E",
"P@	c #B7A295",
"Q@	c #7A9C35",
"R@	c #7DA236",
"S@	c #7B9E34",
"T@	c #151008",
"U@	c #B08068",
"V@	c #81A538",
"W@	c #6D9028",
"X@	c #83A939",
"Y@	c #74972E",
"Z@	c #F0E7E3",
"`@	c #C29485",
" #	c #987858",
".#	c #181010",
"+#	c #82A839",
"@#	c #988077",
"##	c #4060F8",
"$#	c #E0B8B0",
"%#	c #799C33",
"&#	c #799A39",
"*#	c #83A741",
"=#	c #759734",
"-#	c #7B9E36",
";#	c #70952A",
">#	c #886048",
",#	c #80A538",
"'#	c #70893E",
")#	c #949A77",
"!#	c #A6AD8A",
"~#	c #90957C",
"{#	c #929D76",
"]#	c #A0A686",
"^#	c #85985D",
"/#	c #799E30",
"(#	c #7BA032",
"_#	c #81A53B",
":#	c #878E73",
"<#	c #B6BBB7",
"[#	c #B4B9A9",
"}#	c #A2A58C",
"  . + @ # $ % & * = - - ; > , ' ) ! ~ { ] ^ ) / ( _ - : < [ } | ",
"1 2 3 4 5 6 7 ( 8 9 0 ~ a b c d e f g h ~ i j k l ^ - m n o p q ",
"r s t u v w x y # z z A B w C D E F k 6 B 9 G H b 5 I J K L M N ",
"O P Q R S T - h f y , U V k W X f f ) 6 ~ Y - Z ` b - ]  ...+.@.",
"#.$.%.&.*.=.0 -.;.>.- ) ,.e ~ '.).!., ~., {., ].^.~ /.D (._.:.<.",
"[.}.|.1.2.i 3.) b % ~ 4.6 B 5.* 6.7.8 -.8.D D 9.0.a.( ` b.c.d.e.",
"f.g.h.i.j.~.k.8.) -.I U I ~ >.` l.m.n.' o.!.p.^ Z w % 7.q.r.s.t.",
"u.v.w.x.y.0 z.A.B.C.A.D.E.F.G.H.I.5 ).J.K.0 L.o.M.,.A.N.O.P.Q.R.",
"S.T.U.V.b 7.C W.~.> Y X.; > Y.!.Z.X.`.l  +.+++b l .+@+#+$+%+&+*+",
"=+-+;+>+~ I b ,+B  +- X.'+'+'+)+!+^ X.Y B E o.{ ~ y ~+{+]+^+/+(+",
"_+:+<+w [+}+5 |+J.B e X.1+2+3+4+2+5+!+0 B 8.~.y ^ l ( 6+7+8+9+0+",
"a+b+{.H., V 9.- c+! d+1+2+2+2+2+2+2+d+Z.X.V B e+m.f+l b g+h+i+j+",
"k+l+>.++8 m+n+o+7.x '+2+2+2+2+2+2+2+4+3+Y C ~ p+q+,+, * r+s+t+u+",
"6.= ) 6 l+ +v+l w+x+y+4+2+2+2+2+2+4+4+z+A+`.B+B }+U , 8.C+D+E+! ",
"h F+G+y.H+>.I+Z.J+J+d+K+L+2+M+2+L+4+N+w+a B+V b 0 O+' y.P+h 8 P+",
"++{.y.Q+R+~ |+x+S+T+U+V+W+X+Y+Z+Z+`+ @X..+~.b z., .@m.p.+@0 7..+",
">.f B @@q+}+Y.#@'+$@$@V+N+%@&@&@&@*@V+=@ @w ) -@( 8.W , ` 3.;@+@",
"{ D.`.D ) # )+J+>@,@'@)@!@~@{@]@^@/@(@_@ @:@<@( B J.- 3.B > i C.",
"[@}@e # .@^ Z.U+'+w+|@1@2@&@3@4@5@6@7@7@)+8@; w o.,+9@0@B H a@q+",
"A.! b@y ~ B c@d@5@X.e@8@f@g@d@d@h@i@j@j@k@y+-  +4.l@l.# ) ( - }@",
"^ ~ ,  +, e e+)@2@h , :@m@n@o@p@q@r@]@]@o@>@X+k+s@) t@>.m+z 8 -.",
"6.# ~ 8.J.~ B ~.X.6 ) u@o@T+v@]@m@]@ @w@X+x@)+(@F+F+8 ! > Y @@F.",
"W m.<@R+! Z y@c+) }+H+Z.w+x+w+x+z@A@z@>@x+B@Y+k@]@8.C@F+E B >.f ",
"D@~.w E@H.l.w 3..@F@ @'+G@J+S+x+T+v@)+v@J+J+v@w+i@H@G.I@E.`.J@# ",
"g s@K@8 L@q+B.L@Z #  @M@Y+Y+Y+N@v@J+)+#@=@U+J+'+X.Z l C.O@i a L@",
"B+^ W K@B P+H.( 8 b z@M@P@P@M@q@>@v@w+'+>@v@z+U+~ y Q@G l.z.o.) ",
"I+5 ~ -.Y ^ {.K.m.h Z.J+G@G@>@=@$@$@$@w+v@G@v@Z.^ >.( R@.@S@B _ ",
"y.z.{.! , 0 l W = y.T@v@J+J+'+Y.R+).$@U@c@x+U+X.V@3.) > ) W@- ~ ",
"D.X@~ P+l I.Y@o+! ; , w+#@#@w+X.f X@o@Z@`@ #.#+#F+( , x l k * +@",
"J@J.D G.A !.W@l m.y I+)+@###T@~ % J..@$#x+)+B+8 ^ L@%#z.-.&#*#=#",
"C.K@^ G+k+d , y -#^ ;#o@d@>#b L@g U ,#X.L@W@V F+e+0 ;.b '#)#!#~#",
"{#]#^#/#6.6 > )., ( ^ o+$@T@0.; l ( w (#P+K@~.)., k ^ _#:#<#[#}#"};
