/* XPM */
static char * tobi_xpm[] = {
"66 66 360 2",
"  	c #AA834B",
". 	c #A88047",
"+ 	c #A37A3D",
"@ 	c #9F7535",
"# 	c #9F7533",
"$ 	c #9F7534",
"% 	c #A07737",
"& 	c #A57D41",
"* 	c #A9824A",
"= 	c #A88148",
"- 	c #A88046",
"; 	c #A78046",
"> 	c #A67E43",
", 	c #A2793B",
"' 	c #9F7433",
") 	c #A07635",
"! 	c #A27B3A",
"~ 	c #A47E3D",
"{ 	c #A57F3D",
"] 	c #A6803F",
"^ 	c #A98446",
"/ 	c #AC874C",
"( 	c #AC864C",
"_ 	c #A98249",
": 	c #AB854C",
"< 	c #AC874D",
"[ 	c #AD894D",
"} 	c #A98348",
"| 	c #A77F46",
"1 	c #A88147",
"2 	c #AB854A",
"3 	c #AD884D",
"4 	c #A98149",
"5 	c #AA824A",
"6 	c #A57C41",
"7 	c #A2793C",
"8 	c #A2793A",
"9 	c #A07637",
"0 	c #A17938",
"a 	c #A98543",
"b 	c #AE8E4A",
"c 	c #AF8F4C",
"d 	c #B1914E",
"e 	c #B19150",
"f 	c #AE8B4E",
"g 	c #AB844C",
"h 	c #A77F45",
"i 	c #A37B3E",
"j 	c #A57D42",
"k 	c #A98148",
"l 	c #AC884D",
"m 	c #B08F4F",
"n 	c #B29251",
"o 	c #AF8D4D",
"p 	c #A78243",
"q 	c #A2783B",
"r 	c #A57E40",
"s 	c #AC894A",
"t 	c #B29351",
"u 	c #AF8C4F",
"v 	c #AB844B",
"w 	c #A47B3F",
"x 	c #A2783A",
"y 	c #9F7635",
"z 	c #A17738",
"A 	c #A37B3B",
"B 	c #A68140",
"C 	c #AD8B49",
"D 	c #B29350",
"E 	c #B49652",
"F 	c #B49753",
"G 	c #AF8E4F",
"H 	c #A88246",
"I 	c #A37B3D",
"J 	c #A17839",
"K 	c #101010",
"L 	c #B19050",
"M 	c #B39552",
"N 	c #B08F4D",
"O 	c #A98544",
"P 	c #A57E3D",
"Q 	c #A47D3C",
"R 	c #A78241",
"S 	c #AD8C4A",
"T 	c #B29451",
"U 	c #B59853",
"V 	c #B39451",
"W 	c #B08F50",
"X 	c #A88146",
"Y 	c #A47B3E",
"Z 	c #A37A3C",
"` 	c #A07636",
" .	c #A88145",
"..	c #AC8949",
"+.	c #AE8D4B",
"@.	c #AE8C4D",
"#.	c #AF8D4F",
"$.	c #B49653",
"%.	c #B19151",
"&.	c #AF8C4E",
"*.	c #AD8A4C",
"=.	c #A67E44",
"-.	c #A67F44",
";.	c #B08E4F",
">.	c #AE8B4D",
",.	c #AE8E4B",
"'.	c #B69953",
").	c #B59953",
"!.	c #B59753",
"~.	c #AE8C4E",
"{.	c #AE8A4E",
"].	c #A1783A",
"^.	c #AB864B",
"/.	c #AA824B",
"(.	c #2A2A2A",
"_.	c #B2934F",
":.	c #AF8F4D",
"<.	c #AB874A",
"[.	c #AA8449",
"}.	c #AD8B4B",
"|.	c #B1924E",
"1.	c #B29450",
"2.	c #AB864C",
"3.	c #AA844B",
"4.	c #B49552",
"5.	c #525252",
"6.	c #AA8646",
"7.	c #A47D3E",
"8.	c #A57F3F",
"9.	c #A78240",
"0.	c #A88342",
"a.	c #AB8748",
"b.	c #AD8A4D",
"c.	c #B09050",
"d.	c #AD8A4E",
"e.	c #B39450",
"f.	c #B1924F",
"g.	c #AA8549",
"h.	c #AD894B",
"i.	c #B0904E",
"j.	c #AE8C4C",
"k.	c #A78045",
"l.	c #A47D3D",
"m.	c #A78144",
"n.	c #AA834A",
"o.	c #B39452",
"p.	c #B08E50",
"q.	c #AB8849",
"r.	c #A88443",
"s.	c #A57F40",
"t.	c #A47C3E",
"u.	c #A57E3F",
"v.	c #804000",
"w.	c #9E7433",
"x.	c #A3793D",
"y.	c #A67F43",
"z.	c #AC8A49",
"A.	c #AC884C",
"B.	c #AF8D4E",
"C.	c #A47C40",
"D.	c #A17838",
"E.	c #A27A3A",
"F.	c #E17100",
"G.	c #E89028",
"H.	c #AA844A",
"I.	c #B19250",
"J.	c #AF8E4D",
"K.	c #AB864A",
"L.	c #A98248",
"M.	c #A67E45",
"N.	c #AD894E",
"O.	c #AC894C",
"P.	c #A88144",
"Q.	c #A67F42",
"R.	c #AB8649",
"S.	c #A88245",
"T.	c #A57E41",
"U.	c #AA8548",
"V.	c #A98447",
"W.	c #A17739",
"X.	c #9E7432",
"Y.	c #A88345",
"Z.	c #AC8947",
"`.	c #AB8749",
" +	c #A67E41",
".+	c #A67D43",
"++	c #A98545",
"@+	c #A78242",
"#+	c #A57D3F",
"$+	c #A37A3E",
"%+	c #A27A39",
"&+	c #A98347",
"*+	c #A67E42",
"=+	c #A27A3C",
"-+	c #A27939",
";+	c #B49752",
">+	c #B39652",
",+	c #A07736",
"'+	c #AC8A47",
")+	c #AD8A4B",
"!+	c #A57E3E",
"~+	c #A37B3F",
"{+	c #A47C41",
"]+	c #9F7434",
"^+	c #AA8645",
"/+	c #AB8846",
"(+	c #A88244",
"_+	c #B39351",
":+	c #9E7332",
"<+	c #B39551",
"[+	c #A88543",
"}+	c #A78044",
"|+	c #A57E42",
"1+	c #A17837",
"2+	c #000000",
"3+	c #B1914F",
"4+	c #AD894C",
"5+	c #AE8D4D",
"6+	c #A37C3D",
"7+	c #A27938",
"8+	c #B39651",
"9+	c #AF8F4B",
"0+	c #AA8746",
"a+	c #A78042",
"b+	c #A78043",
"c+	c #AC884A",
"d+	c #A88344",
"e+	c #800000",
"f+	c #AA834C",
"g+	c #A98645",
"h+	c #AA8448",
"i+	c #A68042",
"j+	c #AA8745",
"k+	c #AB8946",
"l+	c #AB8947",
"m+	c #B29250",
"n+	c #AC874B",
"o+	c #AF8E4E",
"p+	c #AB854B",
"q+	c #A37B3C",
"r+	c #A17939",
"s+	c #B69954",
"t+	c #A78143",
"u+	c #A98644",
"v+	c #A88343",
"w+	c #AA8649",
"x+	c #AD8B4A",
"y+	c #B29151",
"z+	c #B1904F",
"A+	c #080808",
"B+	c #82001A",
"C+	c #AA854A",
"D+	c #AC894B",
"E+	c #AC884B",
"F+	c #AB8747",
"G+	c #A07738",
"H+	c #393939",
"I+	c #AB8847",
"J+	c #A98444",
"K+	c #AA8747",
"L+	c #A47D3F",
"M+	c #A88247",
"N+	c #C9002F",
"O+	c #A98643",
"P+	c #A98546",
"Q+	c #AA8349",
"R+	c #AB874B",
"S+	c #A47C3F",
"T+	c #B08F4E",
"U+	c #A57C40",
"V+	c #AE8A4D",
"W+	c #AC864D",
"X+	c #A57D43",
"Y+	c #B0914E",
"Z+	c #A98349",
"`+	c #A37B3A",
" @	c #A37C3B",
".@	c #A77F44",
"+@	c #AC8948",
"@@	c #A68040",
"#@	c #A78341",
"$@	c #A88442",
"%@	c #A88341",
"&@	c #AB8848",
"*@	c #A98448",
"=@	c #B1934F",
"-@	c #AE8B4C",
";@	c #B0904F",
">@	c #A27B39",
",@	c #A6813F",
"'@	c #B18F50",
")@	c #B59854",
"!@	c #A07837",
"~@	c #AF8E4B",
"{@	c #FEFEFE",
"]@	c #9CA5A5",
"^@	c #AF8E4C",
"/@	c #AD8A4A",
"(@	c #A68240",
"_@	c #A98547",
":@	c #AA8647",
"<@	c #AD8C4B",
"[@	c #B0914D",
"}@	c #FF2147",
"|@	c #A27A3B",
"1@	c #A98346",
"2@	c #B19251",
"3@	c #B0904D",
"4@	c #A6803E",
"5@	c #AA8744",
"6@	c #A57F3E",
"7@	c #AA8547",
"8@	c #A47C3D",
"9@	c #B49651",
"0@	c #AE8D4C",
"a@	c #A88048",
"b@	c #A37D3B",
"c@	c #A57D3E",
"d@	c #AE8D4A",
"e@	c #AD8D49",
"f@	c #A07836",
"g@	c #B59752",
"h@	c #9F7634",
"i@	c #AC8A48",
"j@	c #AD8C49",
"k@	c #AD8B48",
"l@	c #AC8B48",
"m@	c #F7F7F7",
"n@	c #A47B40",
"o@	c #A78142",
"p@	c #A67F40",
"q@	c #A57D40",
"r@	c #AE8C4B",
"s@	c #A9824B",
"t@	c #FFEAF1",
"u@	c #AA8845",
"v@	c #A67F41",
"w@	c #A47B41",
"x@	c #A1773A",
"y@	c #A68041",
"z@	c #757575",
"A@	c #AB8A47",
"B@	c #B08E4E",
"C@	c #C1C1C1",
"D@	c #A37C3C",
"E@	c #B0904C",
"F@	c #A17937",
"G@	c #A5803E",
"H@	c #AE8D49",
"I@	c #A78140",
"J@	c #AA8846",
"K@	c #AA846F",
"L@	c #633E28",
"M@	c #A78340",
"N@	c #B39550",
"O@	c #B2988A",
"P@	c #F0C9B4",
"Q@	c #AD8B4D",
"R@	c #AC8B49",
"S@	c #A88149",
"          . + @ # $ $ $ # % & *                                                                                                     ",
"  * = - ; > , $ ' ) ! ~ { ] ^ / (           _ . ; ; = *     : < [ [ [ [ / } ; | 1 2 3 [ 3 3 3 3 3 [ [ [ 3 (   4 . = 5               ",
"  = 6 7 7 8 9 $ ' 0 a b c c d e f g       5 h i , 7 j k     l m n n n n o p 7 q r s e t n n n n n n n t e u v h w j 4               ",
". > x $ $ y z 8 A B C D E F E t G [ l 3 3 / H I J , 6 =     K L M F F M N O P Q R S T F U U U U U E V V t W [ X Y 6 k               ",
"Z x ` # ' % w  ...+.@.#.t $.%.&.G e n n n e *.H =.-.. K     K K ;.K M m >.+.,.b +.@.#.t U '.).).!.n ~.{.f ;.L *.H . *               ",
"].].J J J + h ^.;.e #.{.m n G {.L E E M E E L ( /.K v K K K (.(.K (.K ~.f L D _.:.<.[.}.d |.|.1.t &.: : 3 G n #.: /.  : / 2.3.v ( < ",
"=.=.=.=.=.h 4 g 3 ~.W L #.~.G e 4.!.t ;.n E e K K (.K (.(.5.5.5.(.5.(.K K G *.6.R 7.Y 8.9.9.0.a.[ < : b.W m ~.l g     3 ;.#.( < ;.e ",
". = _   : 2.v 3.2.[ c.n #.d.;.t e.f.}.g.h.i.j.[.K (.(.5.5.(.K K K K 5.(.(.K k.Z ` $ ) z 8 A l.m.n.  g ~.e #.2.      3.b.e L {.f e o.",
"i j = ( #.;.3 ( f W ;.#.m L p.~.q.r.s.t.u.R K K (.(.5.5.(.K v.v.v.v.K 5.K m.7 9 ' w.` x.y.6.z.<.  /.  < {.l   /.      ( {.G L L #.u ",
"@ , h / W L A.2 B.e *.2 B.e @.} C.D.y ) % J E.K (.5.K K K v.F.F.F.G.v.K (.K y $ @ ` , > H.B.I.#.< ( ( / < < ( 3._ _     v [ i.J.K.L.",
"w.].M.: N.O.P.Q.R.*.S.T.U.*.V.w W.$ X.$ ].& Y.Z.K K (.K v.F.v.v.v.F.G.v.K 9 w.w.` + =.= v 3 u m L L L L L L m `. +.+4     [.++@+#+$+",
"%+7.&+( < [.t.8 *+- C.=+*+X C.% $ $ y W.C.L.b.I.K 5.(.K F.v.F.G.G.v.F.G.K -+-+D., =.*     : 3 ;.V E ;+E M E >+S ] T.L.  4 > , ,+) ) ",
"'+S J.W W )+!+` ].~+{+6 C.$+W.]+X.@ , & ; n.< u K 5.(.K F.v.F.v.F.G.v.G.K ^+/+(+-.=     : {.W ;.;.t F _+W n ;+_.S q.H.. 6 q @ :+X.w.",
"V <+E F !.|.[+%+z =+}+L.|+8 D.0 1+J 6 =     g / K 5.5.K v.K 2+F.v.G.v.G.K m 3+4+n.5   * H.@.3+~./ G t ;.l &.V <+_.5+H.-.6+%+%+7+7+7+",
"G L E ).).8+9+0+a+b+c+@.U.Q.d+0+d+> ; n.  g 3 #.K (.5.K F.K e+F.v.G.v.G.K W u < g f+* h T.@+g+h+  l f 3 g < ~.}./+@+r i+j+k+k+k+l+l+",
"/ f n E U U ;+D >./ ;.m+~.n+B.3+@.H.*   * n.*.3+o+K 5.K F.F.F.v.G.F.v.F.K {.p+n._ _ . w z 1+q+}+3.( ( : 3.g 3.k.I r+! r.:.<+<+<+V 1.",
";.;.;.L M U s+!.t W ;.;.m W W ;.N.: f+  . *+t+u+v+T.K K v.v.v.G.F.v.F.v.K < _ M.6 6 w J ) ].& w+B.;.#.[ 3./.* | j i+^+x+o+t !.$.y+W ",
"1.z+b.[ e E F E E t f 3 ;.n #.(   * * 4 j ].1+-+A+A+A+B+K F.F.v.v.F.v.K A+n.- i % ` ` ` J j C+;.M F M ;./ g :   n.D+i.J.E+b.I.e [ : ",
"k+F+[.: {.;.m m W #.l : {.#.N.  | j & 6 , ` G+i A+H+H+A+A+K v.F.F.v.K A+A+6 Y z # X.@ x T.R.;.o.U '.U t m #.#.[ : g.I+J+*+i+++K+H.  ",
"E.L+M+: ( / ( 2.2.:   n.H.3.3.k & J 9 % ` % $+1 A+H+5.5.H+A+K K K K A+H+A+J z 9 ` ) J j C+#.V E F !.U F E E M W / X 7.! E.E.A r 1   ",
"~+y.c+B.#.{.2././.* h j 6 6 j C., $ X.$ z i =.n.A+H+5.5.5.5.5.H+N+H+5.5.A+w w w C.w Q.<.#.W L L L o.U ).).'.U o.m )+j+a O+O+O+P+Q+  ",
"k R+z+4.E n f g   _ & 8 J J J W.% ` @ % S+1 n.3.A+A+H+H+5.5.5.H+N+H+5.5.A+4 k = = . [.o e &.2.p+/ m E !.F !.F E M V D D 1.1._.T+A.v ",
"  [ t U ).E e f ( n.^ 0.s.Y $+i w w w U+V.V+N.A+A+H+H+5.5.5.5.H+N+H+5.H+A+W+n.; > X+b+6.I+Y.j 6 > R.G L L L L L L L e o.!.$.n W #.u ",
"  3 n !.U U E n {./ B.Y+*.Z+= = = 1 . L.*.e B.A+H+5.5.5.5.5.H+H+N+H+H+5.H+A+1 w J z J `+ @E.8 J Z }+^.< ( ( ( ( ( ( / #.V n f f e o.",
"  < #.n E U ).;+e ;.V F n u < 3.= .@> .@P++@A+H+H+5.5.5.5.5.5.H+N+5.5.H+A+A+C.W.) J i @@#@$@%@#@r.&@b.<   /././././.  3 ;.u ( < #.e ",
"n.  p+V+n !.U F 4.M E F E t f n.j , z J E. @A+H+5.5.5.H+5.5.5.5.N+5.5.H+A+A+J ` J & *@j.d _.=@=@_.e.t #.2.  3.3.3.    3.2.p+  3.2./ ",
"> .+.+H -@L %.%.y+y+%.%.n ;@E+-.7 ) w.$ >@,@A+H+5.5.H+H+H+5.5.5.N+5.5.H+A+A+B L+T.g.&.'@n $.)@s+).'.U n u f f f f K.k..+.+.+=.| 4 /.",
"8 x x S+&+/ l / / / / / < ^.y.8 ` $ # !@#@~@A+5.5.5.5.A+H+5.5.5.N+{@]@5.A+A+^@`.[.o e B.V+L ;+U U U !.E M o.o.M t /@u.].].].8 C.1   ",
"9.(@9.r.c+A.} -.=.=.=.=.=.X+7 @ w.y >@9.+@A+H+5.5.5.H+A+H+5.5.{@N+B+B+]@A+A+A+R.H &@C _@ .:@+.i.e n n M U ).U E m+<@[+(@(@(@9.J+E+f ",
"[@[@[@|.D :.v+, ].].].].x J % @ ' 1+0.,.B.A+H+5.5.5.H+A+H+5.{@B+N+}@B+{@H+A+A+T.|@ @Q A , A 8.1@/ l [ L E ).!.2@f >.3@[@[@[@[@|.D V ",
"n n n t t o+d++ 7 7 7 7 7 7 7 7 , Y :@m u A+H+5.5.H+5.A+]@{@B+}@N+}@{@B+]@A+A+].,+ @4@,@] ] B S.* /.3.{.e t e ~.2.[ L t n n n n n n ",
"[ [ [ [ [ / Z+; | ; ; ; ; ; ; ; ; 1 H./ ( A+H+5.5.5.5.A+H+]@B+{@N+}@}@B+]@A+A+` %+5@c [@3@[@c 4+3./.  2.l [ 3 ( 3.: l [ [ [ [ [ [ [ ",
"      * . h h h h ; _                   _ A+H+5.5.5.5.A+H+H+]@]@N+B+{@]@5.A+A+q+r s t $.U ).F L {.[ [ 2.3.2.3 / 3.                  ",
"      = {+, , , , i h                 * A+H+H+H+5.5.H+A+H+H+5.5.N+]@H+H+5.A+A+U.M+2 f t U ).U 4.t t n f 2.{.L #.:                   ",
"  g < K.p 6@{ ~ A + M.n.( 3 [ A.H.1 ; h A+H+H+H+5.H+H+A+H+H+5.H+N+H+H+H+5.A+A+[ 3.  2.#.t _+V E U U F e f #.e W {.3 3 3 3 [ [ < :   ",
"  / ;.e 3@9+9+S 7@; = p+&.e t z+:@t., , A+H+5.H+H+5.H+A+H+H+H+H+N+H+H+H+H+A+A+2.    3./ [ [ f n !.).U E t ;.f #.e n n n n n n ;.<   ",
"  < m V ;+;+M I.&.3 l d.m _+F <++@8@].A+H+H+5.5.5.5.A+H+H+H+H+H+N+H+H+H+H+A+A+. . - . _     : &.t V V V t m {.#.n 4.!.U U 9@f.j.h+. ",
"  : 3 G o.E L u W n n e G #.t 4.0@X =.A+H+H+5.5.5.H+A+H+5.H+H+H+N+H+5.H+H+A+A+7 7 7 w h *     / b.{.{.{.f ;.L m &.L E s+U |.j+8.6++ ",
"  v ( f e n #.b.o+d |.3@c+h+)+:.)+L.a@A+H+H+5.5.H+H+A+H+5.5.5.H+N+5.5.H+H+A+H+A+Q Q 8.1@2.:             : f e W {.#.n V |.'+b@$ $ $ ",
"  < #.c.#.u W T+l+$@#@9.c@I u.B u.w A+H+H+H+5.H+5.A+H+5.5.5.5.5.N+5.5.H+5.A+H+A+d@e@+.i.m [ 3./././././.  ( f ;.L W ~.c+r.~ f@' ' # ",
"= K.m z+E+2 0@,.9.,+$ ,+%+ @Q Q  @l.A+H+H+H+5.5.5.A+H+H+5.5.5.5.N+5.5.5.5.A+H+A+;+;+g@U E ;.l / / / / :   _ _ D+N 0@[.j J h@$ ) G+J ",
"i y.<.E+}+L+B B >@$ :+,+9.i@j@C k@j@A+A+H+H+H+5.5.A+H+H+H+H+5.5.N+5.5.5.H+A+H+A+s+s+s+'.U V e L e e c.{.3.M.w u.R @@Y ].@ w.# J C.> ",
"y , > h Z ` ) ) $ y 1+{ j@<+g@;+;+;+!.E A+H+H+H+5.A+H+H+H+5.5.5.N+5.H+H+]@A+A+A+M M M M 4.E F E M E E L A. .l. @ @`+r+W.z z z i ; 5 ",
"' ` q q 9 w.:+:+:+1+9.j@_.U s+s+s+s+s+U 4.A+A+A+A+A+H+H+5.5.5.5.N+{@{@]@B+A+E e u u u u ;.o.F t W t F M e J.j@l@i@6.b+j j j X+h 4   ",
"G+D.E.! %+%+%+%+%+P i@D ;+!.F E 4.E E 4.4.A+H+H+H+H+{@m@5.5.5.H+N+5.{@B+}@A+n f v n.Z+_ C+o 3+-@K.~.V 4.M V V V t o+^.n.p+p+p+p+2.2.",
"j b+6.'+'+'+'+'+'+z.j.m o.E n G u #.#.#.#.A+H+H+H+]@{@B+m@5.5.H+N+5.5.{@B+A+f W+_ =.n@~+C.o@$@p@q@&+>.#.#.#.#.G #.N.: < #.L L c.c.c.",
"p+4+;@V 8+9@9@9@E T ~.3 L M ;.( v v 3.n.A+H+H+H+]@B+B+}@B+{@5.H+N+5.5.H+]@A+v * ; $+9 y ` D.-+%+q+m.^.( : g g g g : 2.f n E E E M M ",
"L W p.e E s+s+s+s+E &./ W M ;.: /.5 | 6 A+H+]@]@B+}@{@}@B+{@5.N+H+5.H+H+H+A+_ =.Y z $ X.@ q U+v+I+r@B.[   s@/.s@  l #.W W n F E e G ",
"1.;@[ [ e E ;+E ;+V f / ;.t &.n._ = 6 W.A+H+H+]@B+t@B+}@{@B+{@N+H+5.H+H+H+A+; $+` $ $ y J *+2 o+<+;+M m < : : 3.3.b.3+o+n+*.3+3+[ : ",
"u@K+[.: {.#.;.;.p.#.l : d.~.U.*+{+C., A+H+H+H+H+]@]@B+B+}@B+{@N+H+H+5.H+H+A+i z # w.) , *+<.m M U s+U V W ;.#.[ v g.6.v+T.v@O :@[.  ",
"E.L+M+: ( ( p+H.H.H.n.* n.} & z ` ` ) $ A+H+H+H+H+5.{@{@{@{@5.N+H+5.5.H+H+A+z % ` ` ].*+2 G V E ;+!.U !.E ;+4.c./ X 7.! E.E.A r 1   ",
"w b+D+G ;.*.H 6 n@w@{+{+{+w x@]+X.w.w.$ J A+A+H+H+H+H+5.5.5.5.N+H+5.H+H+H+A+w n@n@w *+R.#.W m ;.c.V U s+s+s+U M m }./+5@5@5@5@6.[.  ",
"_ ^.m M 4.i.v+8 J -+-+-+-+-+D.1+f@,+,+% S+1 n.A+A+A+A+A+5.5.A+N+H+A+A+A+A+_ Q+Q+Q+Z+^.m t ;.l : / ;.<+E 9@9@9@E M V 1.D D 1.D T+/   ",
"  ( &.L L @.Y.r R O+u+O+O+O+u+u+u+a y@& &+b.[ : < A+z@z@A+A+A+N+A+A+z@z@A+{.#.G #.#.W o.F t #.< v R.+@'+'+A@'+S B@W W W W L L u (   ",
"  3.: 2.( p+n.C+5+_.D _._._.1.1.e._.@.K.>.n W / : A+C@C@z@A+b.3+L A+z@z@A+W o.M M M M E ;+E m+f Q+*+A %+%+>@D@t+K.< < < < / ( : 3.  ",
"    /././././.: f L L L L n 4.U s+U t W n F o.;.[ A+C@C@A+X+m.I+..A+z@z@A+~.L L L L L L ;@^@i@^ *+, $ :+$ `+#@&@>.&.~.&.~.[ g /./.  ",
"5     3.3.3.3.g ( < < / ( A.m E U !.E M E F E V ;.A+C@C@A+z r+A s.A+z@z@A+( / / ( 2.2.2.C+i+A r+z 9 ) $ 1+$@E@V <+M M M o.W l 3.3.3.",
"> X E+~.&.~.~.~.~.f f [ } k.<.m e L e e e e %.L *.A+C@z@A+w.F@G@^+A+A+z@z@A+A+: * | .+X+{+].]+:+$ W.I s.r.z.;@o.U '.U E n W #.f f f ",
"J p@+.V M o.o.V V o.M 3+g+t.}+^.< / / / / ( / A+A+H+A+z@A+) 6@j@_.A+H+A+A+H+H+A+A+& 8 J J % ) h@% w 1 )+i.o+b.;.4.U !.n f f n M M M ",
"+ i+}.e n e e e e n E 8+H@O a.[ <   . =..+.+A+A+A+A+A+A+A+I@J@J.y+A+A+A+A+H+A+K@L@A+#@M@#@#@#@#@0.1@3.{.L W &.#.L e e &.( {.o.s+s+).",
". _ p+< l < < < < {.%.E N@f.D t u H..+7 J x A+O@L@P@K@A+A+J.T+b.< < < < A+A+A+A+A+A+|.|.|.|.|.|.i.Q@p+: l #.n W [ < < : 3.b.t U U U ",
"                /.: ~.e n t E E W v =.Y 7.] A+A+A+A+A+A+3 W ;./         ( #.n n n n n n n n n n %.f g /.3.{.W &.:     4 ; ^ R@b b b ",
"                  3.2.l l {.e M ;.p+S@= c+^@}.} ; . k n.: < / v         3.( l l l l l l l l l 3 l 2.      : < ( 3.    | i |@Q ~ ~ ~ ",
"                          : ~.L f g /.v {.L #.2.                        * . h h h h h h h h h h | = n.                ; w , , 7 7 7 ",
"                            2.l 2.3.    2.l / v                         = C., ].x x x x x x x ].7 > *                 _ . ; | | | | ",
"                                                                        . Z @ # $ $ $ $ $ $ $ # 9 6 _                               "};
