/* XPM */
static char * tobi_1_xpm[] = {
"66 66 334 2",
"  	c #AA834B",
". 	c #A88047",
"+ 	c #A37A3D",
"@ 	c #9F7535",
"# 	c #9F7533",
"$ 	c #9F7534",
"% 	c #A07737",
"& 	c #A57D41",
"* 	c #A9824A",
"= 	c #A88148",
"- 	c #A88046",
"; 	c #A78046",
"> 	c #A67E43",
", 	c #A2793B",
"' 	c #9F7433",
") 	c #A07635",
"! 	c #A27B3A",
"~ 	c #A47E3D",
"{ 	c #A57F3D",
"] 	c #A6803F",
"^ 	c #A98446",
"/ 	c #AC874C",
"( 	c #AC864C",
"_ 	c #A98249",
": 	c #AB854C",
"< 	c #AC874D",
"[ 	c #AD894D",
"} 	c #A98348",
"| 	c #A77F46",
"1 	c #A88147",
"2 	c #AB854A",
"3 	c #AD884D",
"4 	c #A98149",
"5 	c #AA824A",
"6 	c #A57C41",
"7 	c #A2793C",
"8 	c #A2793A",
"9 	c #A07637",
"0 	c #A17938",
"a 	c #A98543",
"b 	c #AE8E4A",
"c 	c #AF8F4C",
"d 	c #B1914E",
"e 	c #B19150",
"f 	c #AE8B4E",
"g 	c #AB844C",
"h 	c #A77F45",
"i 	c #A37B3E",
"j 	c #A57D42",
"k 	c #A98148",
"l 	c #AC884D",
"m 	c #B08F4F",
"n 	c #B29251",
"o 	c #AF8D4D",
"p 	c #A78243",
"q 	c #A2783B",
"r 	c #A57E40",
"s 	c #AC894A",
"t 	c #B29351",
"u 	c #AF8C4F",
"v 	c #AB844B",
"w 	c #A47B3F",
"x 	c #A2783A",
"y 	c #9F7635",
"z 	c #A17738",
"A 	c #A37B3B",
"B 	c #A68140",
"C 	c #AD8B49",
"D 	c #B29350",
"E 	c #B49652",
"F 	c #B49753",
"G 	c #AF8E4F",
"H 	c #A88246",
"I 	c #A37B3D",
"J 	c #A17839",
"K 	c #B19050",
"L 	c #B39552",
"M 	c #B08F4D",
"N 	c #A98544",
"O 	c #A57E3D",
"P 	c #A47D3C",
"Q 	c #A78241",
"R 	c #AD8C4A",
"S 	c #B29451",
"T 	c #B59853",
"U 	c #B39451",
"V 	c #B08F50",
"W 	c #A88146",
"X 	c #A47B3E",
"Y 	c #A37A3C",
"Z 	c #A07636",
"` 	c #A88145",
" .	c #AC8949",
"..	c #AE8D4B",
"+.	c #AE8C4D",
"@.	c #AF8D4F",
"#.	c #B49653",
"$.	c #B19151",
"%.	c #AF8C4E",
"&.	c #AD8A4C",
"*.	c #A67E44",
"=.	c #A67F44",
"-.	c #B08E4F",
";.	c #AE8B4D",
">.	c #AE8E4B",
",.	c #B69953",
"'.	c #B59953",
").	c #B59753",
"!.	c #AE8C4E",
"~.	c #AE8A4E",
"{.	c #A1783A",
"].	c #AB864B",
"^.	c #AA824B",
"/.	c #B2934F",
"(.	c #AF8F4D",
"_.	c #AB874A",
":.	c #AA8449",
"<.	c #AD8B4B",
"[.	c #B1924E",
"}.	c #B29450",
"|.	c #AB864C",
"1.	c #AA844B",
"2.	c #B49552",
"3.	c #AA8646",
"4.	c #A47D3E",
"5.	c #A57F3F",
"6.	c #A78240",
"7.	c #A88342",
"8.	c #AB8748",
"9.	c #AD8A4D",
"0.	c #B09050",
"a.	c #AD8A4E",
"b.	c #B39450",
"c.	c #B1924F",
"d.	c #AA8549",
"e.	c #AD894B",
"f.	c #B0904E",
"g.	c #AE8C4C",
"h.	c #A88149",
"i.	c #AF8E4E",
"j.	c #AB864A",
"k.	c #AC874B",
"l.	c #B0904F",
"m.	c #AB874B",
"n.	c #AC884C",
"o.	c #A78045",
"p.	c #A47D3D",
"q.	c #A78144",
"r.	c #AA834A",
"s.	c #B39452",
"t.	c #B08E50",
"u.	c #AB8849",
"v.	c #A88443",
"w.	c #A57F40",
"x.	c #A47C3E",
"y.	c #A57E3F",
"z.	c #A68040",
"A.	c #A47C3F",
"B.	c #A57D43",
"C.	c #AB8649",
"D.	c #A67F42",
"E.	c #A78043",
"F.	c #AC884B",
"G.	c #AC874A",
"H.	c #A67F43",
"I.	c #9E7433",
"J.	c #A3793D",
"K.	c #AC8A49",
"L.	c #AF8D4E",
"M.	c #A47C40",
"N.	c #A17838",
"O.	c #A27A3A",
"P.	c #A37C3B",
"Q.	c #A68042",
"R.	c #AA854A",
"S.	c #A27A3B",
"T.	c #A77F44",
"U.	c #AA844A",
"V.	c #B19250",
"W.	c #AF8E4D",
"X.	c #A98248",
"Y.	c #A67E45",
"Z.	c #AD894E",
"`.	c #AC894C",
" +	c #A88144",
".+	c #A88245",
"++	c #A57E41",
"@+	c #AA8548",
"#+	c #A98447",
"$+	c #A17739",
"%+	c #9E7432",
"&+	c #A88345",
"*+	c #AC8947",
"=+	c #A37B3A",
"-+	c #AB8749",
";+	c #A67E41",
">+	c #A67D43",
",+	c #A98545",
"'+	c #A78242",
")+	c #A57D3F",
"!+	c #A37A3E",
"~+	c #A27A39",
"{+	c #A98347",
"]+	c #A67E42",
"^+	c #A27A3C",
"/+	c #B49752",
"(+	c #AF8F4B",
"_+	c #A88247",
":+	c #A98247",
"<+	c #A27939",
"[+	c #B39652",
"}+	c #A07736",
"|+	c #AC8A47",
"1+	c #AD8A4B",
"2+	c #A57E3E",
"3+	c #A37B3F",
"4+	c #A47C41",
"5+	c #9F7434",
"6+	c #AE8D4A",
"7+	c #AA8645",
"8+	c #A68043",
"9+	c #AE8B4C",
"0+	c #A98346",
"a+	c #AB8846",
"b+	c #A88244",
"c+	c #B39351",
"d+	c #9E7332",
"e+	c #B39551",
"f+	c #A88543",
"g+	c #A78044",
"h+	c #A57E42",
"i+	c #A17837",
"j+	c #B1914F",
"k+	c #AD894C",
"l+	c #AD884C",
"m+	c #AE8D4D",
"n+	c #A37C3D",
"o+	c #A27938",
"p+	c #B39651",
"q+	c #AA8746",
"r+	c #A78042",
"s+	c #AC884A",
"t+	c #A88344",
"u+	c #B29151",
"v+	c #B69954",
"w+	c #000000",
"x+	c #AA834C",
"y+	c #A98645",
"z+	c #AA8448",
"A+	c #AA8745",
"B+	c #AB8946",
"C+	c #AB8947",
"D+	c #B29250",
"E+	c #933800",
"F+	c #A37B3C",
"G+	c #A17939",
"H+	c #A78143",
"I+	c #A98644",
"J+	c #A88343",
"K+	c #AD8B4C",
"L+	c #AA8649",
"M+	c #AD8B4A",
"N+	c #B1904F",
"O+	c #A9834A",
"P+	c #AC894B",
"Q+	c #AB8747",
"R+	c #A07738",
"S+	c #AB8847",
"T+	c #A98444",
"U+	c #AA8747",
"V+	c #A47D3F",
"W+	c #A98643",
"X+	c #A98546",
"Y+	c #AA8349",
"Z+	c #AB854B",
"`+	c #B08F4E",
" @	c #AE8A4D",
".@	c #B0914E",
"+@	c #A98349",
"@@	c #AC8948",
"#@	c #A78341",
"$@	c #AB8848",
"%@	c #B1934F",
"&@	c #A6813F",
"*@	c #AD8A4A",
"=@	c #A68240",
"-@	c #AD8C4B",
";@	c #B0914D",
">@	c #B19251",
",@	c #B0904D",
"'@	c #A57F3E",
")@	c #AA8547",
"!@	c #B49651",
"~@	c #AE8D4C",
"{@	c #A37D3B",
"]@	c #A88442",
"^@	c #A57D3E",
"/@	c #A07836",
"(@	c #9F7634",
"_@	c #A27B39",
":@	c #AC8A48",
"<@	c #AD8C49",
"[@	c #AD8B48",
"}@	c #B59752",
"|@	c #AC8B48",
"1@	c #A78142",
"2@	c #A67F40",
"3@	c #A57D40",
"4@	c #A57C40",
"5@	c #AE8C4B",
"6@	c #A9824B",
"7@	c #AA8845",
"8@	c #A67F41",
"9@	c #AA8647",
"0@	c #A47B40",
"a@	c #A47B41",
"b@	c #A1773A",
"c@	c #AA8744",
"d@	c #A68041",
"e@	c #AB8A47",
"f@	c #B08E4E",
"g@	c #A37C3C",
"h@	c #AF8E4C",
"i@	c #B0904C",
"j@	c #A17937",
"k@	c #A5803E",
"l@	c #AE8D49",
"m@	c #A78140",
"n@	c #AA8846",
"o@	c #A78340",
"p@	c #B39550",
"q@	c #B2924F",
"r@	c #AD8B4D",
"s@	c #AC8B49",
"          . + @ # $ $ $ # % & *                                                                                                     ",
"  * = - ; > , $ ' ) ! ~ { ] ^ / (           _ . ; ; = *     : < [ [ [ [ / } ; | 1 2 3 [ 3 3 3 3 3 [ [ [ 3 (   4 . = 5               ",
"  = 6 7 7 8 9 $ ' 0 a b c c d e f g       5 h i , 7 j k     l m n n n n o p 7 q r s e t n n n n n n n t e u v h w j 4               ",
". > x $ $ y z 8 A B C D E F E t G [ l 3 3 / H I J , 6 =     3 K L F F L M N O P Q R S F T T T T T E U U t V [ W X 6 k               ",
"Y x Z # ' % w `  ...+.@.t #.$.%.G e n n n e &.H *.=.. *     : [ -.L L m ;...>.b ..+.@.t T ,.'.'.).n !.~.f -.K &.H . *               ",
"{.{.J J J + h ].-.e @.~.m n G ~.K E E L E E K ( ^.  v ( ( v g / f e e !.f K D /.(._.:.<.d [.[.}.t %.: : 3 G n @.: ^.  : / |.1.v ( < ",
"*.*.*.*.*.h 4 g 3 !.V K @.!.G e 2.).t -.n E e <   1.[ m @.< < G V @.@.V K G &.3.Q 4.X 5.6.6.7.8.[ < : 9.V m !.l g     3 -.@.( < -.e ",
". = _   : |.v 1.|.[ 0.n @.a.-.t b.c.<.d.e.f.g.:.h.  a.e i.j.k.l.m m.j.m K n.o.Y Z $ ) z 8 A p.q.r.  g !.e @.|.      1.9.e K ~.f e s.",
"i j = ( @.-.3 ( f V -.@.m K t.!.u.v.w.x.y.Q z.A.B.4 ( 9.C.D.E.F.G.H.D._.F.q.7 9 ' I.Z J.H.3.K._.  ^.  < ~.l   ^.      ( ~.G K K @.u ",
"@ , h / V K n.2 L.e &.2 L.e +.} M.N.y ) % J O.P.Q.R.< / H S.7 =.h i + T.h Y y $ @ Z , > U.L.V.@.< ( ( / < < ( 1._ _     v [ f.W.j.X.",
"I.{.Y.: Z.`. +D.C.&..+++@+&.#+w $+$ %+$ {.& &+*+..m K m 8.=+Z q w 6 6 w 7 9 I.I.Z + *.= v 3 u m K K K K K K m -+;+>+4     :.,+'+)+!+",
"~+4.{+( < :.x.8 ]+- M.^+]+W M.% $ $ y $+M.X.9.V.L /+T /+(+B 0 J A._+:+A.J <+<+N., *.*     : 3 -.U E /+E L E [+R ] ++X.  4 > , }+) ) ",
"|+R W.V V 1+2+Z {.3+4+6 M.!+$+5+%+@ , & ; r.< u n F ,.T }.6+7+8+H 9+;.0+E.7+a+b+=.=     : ~.V -.-.t F c+V n /+/.R u.U.. 6 q @ d+%+I.",
"U e+E F ).[.f+~+z ^+g+X.h+8 N.0 i+J 6 =     g / @.U F T T E j+k+[ K e 9.l+m j+k+r.5   * U.+.j+!./ G t -.l %.U e+/.m+U.=.n+~+~+o+o+o+",
"G K E '.'.p+(+q+r+E.s++.@+D.t+q+t+> ; r.  g 3 @.t.-.u+E '.v+#.w+V -.w+V w+V w+< g x+* h ++'+y+z+  l f 3 g < !.<.a+'+r Q.A+B+B+B+C+C+",
"/ f n E T T /+D ;./ -.D+!.k.L.j++.U.*   * r.&.j+i.k.9.t E E E L e E+[ E+E+w+w+w+_ w+. w z i+F+g+1.( ( : 1.g 1.o.I G+! v.(.e+e+e+U }.",
"-.-.-.K L T v+).t V -.-.m V V -.Z.: x+  . ]+H+I+J+++H K+-.-.-.-.f ( E+f E+E+w+w+w+6 w+J ) {.& L+L.-.@.[ 1.^.* | j Q.7+M+i.t ).#.u+V ",
"}.N+9.[ e E F E E t f 3 -.n @.(   * * 4 j {.E+<+w+w+w+w+w+w+w+: v r.O+E+U.E+E+E+w+w+Z w+J j R.-.L F L -./ g :   r.P+f.W.F.9.V.e [ : ",
"B+Q+:.: ~.-.m m V @.l : ~.@.Z.  | j & 6 E+Z R+i E+E+E+E+E+w+w+w+w+*.6 4+E+6 E+w+E+w+w+x w+C.-.s.T ,.T t m @.@.[ : d.S+T+]+Q.,+U+U.  ",
"O.V+_+: ( / ( |.|.:   r.U.1.1.k & J E+% Z E+E+E+E+E+E+E+E+E+E+w+w+w+w+J J E+E+E+E+E+w+w+R.w+U E F ).T F E E L V / W 4.! O.O.A r 1   ",
"3+H.s+L.@.~.|.^.^.* h j 6 6 j M., $ %+$ E+E+E+E+E+E+E+E+E+E+E+E+E+w+w+w+w+w+E+E+E+E+w+w+w+V K K K s.T '.'.,.T s.m 1+A+a W+W+W+X+Y+  ",
"k m.N+2.E n f g   _ & 8 J J J $+% Z E+E+A.E+r.E+w+E+E+E+E+E+E+E+E+E+w+w+w+w+w+E+E+E+E+w+w+%.w+Z+/ m E ).F ).F E L U D D }.}./.`+n.v ",
"  [ t T '.E e f ( r.^ 7.w.X !+i w E+w E+#+ @Z.: w+w+E+w+E+w+E+E+E+E+E+w+w+w+w+w+E+E+E+w+w+w+j 6 > C.G K K K K K K K e s.).#.n V @.u ",
"  3 n ).T T E n ~./ L..@&.+@= = = 1 E+X.&.w+L.w+w+w+w+w+w+E+w+E+w+E+w+E+w+w+w+w+E+E+E+E+w+w+8 w+Y g+].< ( ( ( ( ( ( / @.U n f f e s.",
"  < @.n E T './+e -.U F n u < 1.= E+> T.w+@@w+w+j w+w+w+w+w+w+w+E+w+E+w+E+w+w+w+w+w+E+E+E+w+w+#@w+$@9.<   ^.^.^.^.^.  3 -.u ( < @.e ",
"r.  Z+ @n ).T F 2.L E F E t f r.j E+z w+O.w+A w+w+w+w+w+w+w+w+w+w+w+w+E+w+E+w+w+w+w+E+E+w+w+%@w+/.b.t @.|.  1.1.1.    1.|.Z+  1.|./ ",
"> >+>+H 9+K $.$.u+u+$.$.n l.F.=.7 ) I.$ w+&@w+w+E+w+E+w+w+E+w+w+w+w+w+w+E+w+E+w+w+w+E+E+E+w+w+v+w+,.T n u f f f f j.o.>+>+>+*.| 4 ^.",
"8 x x A.{+/ l / / / / / < ].H.8 E+$ # w+w+w+w+E+w+E+w+E+w+w+w+w+w+w+w+w+w+E+w+w+w+w+E+E+w+w+w+w+T T ).E L s.s.L t *@y.{.{.{.8 M.1   ",
"6.=@6.v.s+n.} =.*.*.*.*.*.B.7 @ I.y w+w+@@w+E+w+E+w+w+w+w+w+w+w+w+w+w+w+w+w+w+w+w+w+E+E+E+w+w+f.w+n n L T '.T E D+-@f+=@=@=@6.T+F.f ",
";@;@;@[.D (.J+, {.{.{.{.x J % @ ' i+7.w+w+E+E+w+w+w+w+w+w+w+w+w+w+w+w+w+w+w+w+w+w+E+E+E+w+w+w+w+/ l [ K E '.).>@f ;.,@;@;@;@;@[.D U ",
"n n n t t i.t++ 7 7 7 7 7 7 7 7 , X w+w+E+E+w+E+w+w+w+w+w+w+w+w+w+w+w+w+w+w+w+w+w+w+E+w+w+w+w+.+* ^.1.~.e t e !.|.[ K t n n n n n n ",
"[ [ [ [ [ / +@; | ; ; ; ; ; ; ; ; 1 U.E+E+E+w+w+w+w+w+w+w+w+w+w+w+w+w+w+w+w+w+w+w+E+w+E+w+w+w+w+1.^.  |.l [ 3 ( 1.: l [ [ [ [ [ [ [ ",
"      * . h h h h ; _             w+w+E+E+w+E+w+w+w+w+w+w+w+w+w+w+w+w+w+w+w+w+w+E+w+E+w+w+w+F K ~.[ [ |.1.|.3 / 1.                  ",
"      = 4+, , , , i h           w+  w+w+w+E+w+E+w+w+w+w+w+w+w+w+w+w+w+w+w+w+w+w+w+E+w+E+E+w+w+2.t t n f |.~.K @.:                   ",
"  g < j.p '@{ ~ A + Y.r.( 3 [ n.U.w+w+w+E+w+E+w+w+w+w+w+w+w+w+w+w+w+w+w+w+w+w+w+w+w+E+E+E+w+U E T T F e f @.e V ~.3 3 3 3 [ [ < :   ",
"  / -.e ,@(+(+R )@; = Z+%.e t N+w+w+w+w+w+E+w+w+w+w+w+w+w+w+w+w+w+w+w+w+w+w+w+w+E+w+E+E+w+w+f n ).'.T E t -.f @.e n n n n n n -.<   ",
"  < m U /+/+L V.%.3 l a.m c+F e+@@w+w+w+E+E+E+w+w+w+w+w+w+w+w+w+w+w+w+w+w+w+w+w+w+E+E+w+w+  : %.t U U U t m ~.@.n 2.).T T !@c.g.z+. ",
"  : 3 G s.E K u V n n e G @.t w+~@w+w+E+E+E+E+w+w+w+w+w+w+w+w+w+w+w+w+w+w+w+w+E+w+E+w+w+*     / 9.~.~.~.f -.K m %.K E v+T [.A+5.n++ ",
"  v ( f e n @.9.i.d [.,@s+z+1+(.w+w+w+w+E+E+E+w+w+w+w+w+w+w+w+w+w+w+w+w+E+w+E+w+E+w+w+0+|.:             : f e V ~.@.n U [.|+{@$ $ $ ",
"  < @.0.@.u V `+C+]@#@6.^@I y.w+y.w+w+E+E+E+E+w+w+w+E+w+w+w+w+w+w+w+E+w+w+E+w+E+w+w+..f.m w+1.^.^.^.^.^.  ( f -.K V !.s+v.~ /@' ' # ",
"= j.m N+F.2 ~@>.6.}+$ }+~+P.P P w+p.w+w+E+E+E+w+w+w+w+w+E+w+w+w+w+w+w+w+w+w+w+w+w+w+w+w+w+-.E+/ / / / :   _ _ P+M ~@:.j J (@$ ) R+J ",
"i H._.F.g+V+B B _@$ d+}+6.:@<@w+[@w+w+E+E+E+E+E+w+w+w+E+w+E+w+E+w+w+w+w+w+w+w+w+w+w+w+w+T U E+K e e 0.~.1.Y.w y.Q z.X {.@ I.# J M.> ",
"y , > h Y Z ) ) $ y i+{ <@e+}@/+w+/+w+w+E+E+E+E+w+w+w+E+E+E+E+w+E+E+E+w+w+w+w+w+E+E+E+L 2.E+F E L E E K n.` p.P.P.=+G+$+z z z i ; 5 ",
"' Z q q 9 I.d+d+d+i+6.<@/.T v+v+v+v+w+w+w+E+E+E+w+w+w+w+E+E+E+E+E+E+E+E+E+E+E+E+u E+u u E+s.E+t V t F L e W.<@|@:@3.E.j j j B.h 4   ",
"R+N.O.! ~+~+~+~+~+O :@D /+).F E 2.w+E w+w+E+E+E+E+w+w+w+w+E+E+E+E+E+E+E+E+E+E+f E+r.E+_ E+E+j+9+j.!.U 2.L U U U t i.].r.Z+Z+Z+Z+|.|.",
"j E.3.|+|+|+|+|+|+K.g.m s.E n G u @.@.w+w+w+E+E+E+E+w+w+w+w+E+E+E+E+E+E+E+E+E+E+E+E+E+E+M.1@]@2@3@{+;.@.@.@.@.G @.Z.: < @.K K 0.0.0.",
"Z+k+l.U p+!@!@!@E S !.3 K L -.( v v w+r.w+w+E+E+E+E+E+E+w+w+w+w+E+w+E+E+E+E+E+E+E+E+E+y Z E+<+~+F+q.].( : g g g g : |.f n E E E L L ",
"K V t.e E v+v+v+v+E %./ V L -.: ^.5 | w+w w+w+E+E+E+E+E+E+E+w+w+w+w+w+E+w+E+E+E+X z $ E+@ q 4@J+S+5@L.[   6@^.6@  l @.V V n F E e G ",
"}.l.[ [ e E /+E /+U f / -.t %.r._ = 6 $+w+Z w+w+E+E+E+E+E+E+E+E+E+E+w+w+w+w+w+w+Z E+$ y J ]+2 i.e+/+L m < : : 1.1.9.j+i.k.&.j+j+[ : ",
"7@U+:.: ~.@.-.-.t.@.l : a.!.@+]+4+M., y I.w+z w+w+w+E+E+E+E+E+E+E+E+E+E+M.M.i z # I.) , ]+_.m L T v+T U V -.@.[ v d.3.J+++8@N 9@:.  ",
"O.V+_+: ( ( Z+U.U.U.r.* r.} & z Z Z ) $ $ % w+1 w+w+w+E+E+: E+  1 A.<+J J $+z % Z Z {.]+2 G U E /+).T ).E /+2.0./ W 4.! O.O.A r 1   ",
"w E.P+G -.&.H 6 0@a@4+4+4+w b@5+%+I.I.$ J w Y.r.u w+2.E+-.w+f : w+3.v.8@M.w w 0@0@w ]+C.@.V m -.0.U T v+v+v+T L m <.a+c@c@c@c@3.:.  ",
"_ ].m L 2.f.J+8 J <+<+<+<+<+N.i+/@}+}+% A.1 r.1.f U E L L L K [ [ l.`+k._ _ Y+Y+Y++@].m t -.l : / -.e+E !@!@!@E L U }.D D }.D `+/   ",
"  ( %.K K +.&+r Q W+I+W+W+W+I+I+I+a d@& {+9.[ : < @.K K K K V -.-.V @.< |.~.@.G @.@.V s.F t @.< v C.@@|+|+e@|+R f@V V V V K K u (   ",
"  1.: |.( Z+r.R.m+/.D /././.}.}.b./.+.j.;.n V / : |.|.Z+Z+Z+9.j+K  @: 1.< V s.L L L L E /+E D+f Y+]+A ~+~+_@g@H+j.< < < < / ( : 1.  ",
"    ^.^.^.^.^.: f K K K K n 2.T v+T t V n F s.-.[ g = *.j B.q.S+ .R.^.^.|.!.K K K K K K l.h@:@^ ]+, $ d+$ =+#@$@;.%.!.%.!.[ g ^.^.  ",
"5     1.1.1.1.g ( < < / ( n.m E T ).E L E F E U -.Z+*.7 z z G+A w.:+1.v : ( / / ( |.|.|.R.Q.A G+z 9 ) $ i+]@i@U e+L L L s.V l 1.1.1.",
"> W F.!.%.!.!.!.!.f f [ } o._.m e K e e e e $.K &.` !+Z %+I.j@k@7+1+!.%.!.f [ : * | >+B.4+{.5+d+$ $+I w.v.K.l.s.T ,.T E n V @.f f f ",
"J 2@..U L s.s.U U s.L j+y+x.g+].< / / / / ( / ].` Y % ) $ ) '@<@/.U U s.s.L n ~._ & 8 J J % ) (@% w 1 1+f.i.9.-.2.T ).n f f n L L L ",
"+ Q.<.e n e e e e n E p+l@N 8.[ <   . *.>+>+*.>+!+9 9 , 4.m@n@W.u+n e e t E E K &.3.#@o@#@#@#@#@7.0+1.~.K V %.@.K e e %.( ~.s.v+v+'.",
". _ Z+< l < < < < ~.$.E p@c.D t u U.>+7 J x x {.% Z 7 =._.W.`+9.< < < < f t F E S q@[.[.[.[.[.[.f.r@Z+: l @.n V [ < < : 1.9.t T T T ",
"                ^.: !.e n t E E V v *.X 4.] '@I 7 + j _ 3 V -./         ( @.n n n n n n n n n n $.f g ^.1.~.V %.:     4 ; ^ s@b b b ",
"                  1.|.l l ~.e L -.Z+h.= s+h@<.} ; . k r.: < / v         1.( l l l l l l l l l 3 l |.      : < ( 1.    | i S.P ~ ~ ~ ",
"                          : !.K f g ^.v ~.K @.|.                        * . h h h h h h h h h h | = r.                ; w , , 7 7 7 ",
"                            |.l |.1.    |.l / v                         = M., {.x x x x x x x {.7 > *                 _ . ; | | | | ",
"                                                                        . Y @ # $ $ $ $ $ $ $ # 9 6 _                               "};
