/* XPM */
static char * coinGold_xpm[] = {
"70 70 59 1",
" 	c None",
".	c #FDE480",
"+	c #FEE380",
"@	c #FEE481",
"#	c #FEE480",
"$	c #FEE278",
"%	c #FEDE60",
"&	c #FEDC58",
"*	c #FED530",
"=	c #FECD08",
"-	c #FFCC00",
";	c #FECF10",
">	c #FEDB50",
",	c #FED018",
"'	c #FED220",
")	c #FEDF68",
"!	c #FED328",
"~	c #F5C400",
"{	c #F1C100",
"]	c #FEE170",
"^	c #DDB101",
"/	c #CDA401",
"(	c #CAA202",
"_	c #E1B401",
":	c #F8C600",
"<	c #E4B701",
"[	c #CEA502",
"}	c #D0A702",
"|	c #D9AE02",
"1	c #E1B402",
"2	c #E3B602",
"3	c #D8AD02",
"4	c #CDA402",
"5	c #FED638",
"6	c #EEBE00",
"7	c #D6AC02",
"8	c #FBC900",
"9	c #EABB01",
"0	c #F6C500",
"a	c #F1C101",
"b	c #F9C700",
"c	c #E8BA01",
"d	c #D3A902",
"e	c #FEDC55",
"f	c #CEA501",
"g	c #FFE170",
"h	c #FFD940",
"i	c #E6B801",
"j	c #FFCD00",
"k	c #EABC01",
"l	c #ECBD01",
"m	c #FFCF10",
"n	c #F2C200",
"o	c #FDCA00",
"p	c #EDBE01",
"q	c #FFCB00",
"r	c #EFBF01",
"s	c #F4C300",
"t	c #EBBC01",
"                                                                      ",
"                                                                      ",
"                                                                      ",
"                                                                      ",
"                                                                      ",
"                                                                      ",
"                                                                      ",
"                                                                      ",
"                                                                      ",
"                                                                      ",
"                                                                      ",
"                                                                      ",
"                                                                      ",
"                                                                      ",
"                                                                      ",
"                                                                      ",
"                                                                      ",
"                                                                      ",
"                                                                      ",
"                             .+@@@@@@@@#.                             ",
"                           #@@@$%%%%%%$@@@#                           ",
"                         #@@&*=--------;*%@@+                         ",
"                        +@>,--------------'>@#                        ",
"                       @)'------------------!$+                       ",
"                      +>=--------------------;)#                      ",
"                     +&---------~{{{{~--------=]#                     ",
"                    +)=------~^/((((((/_:------,$.                    ",
"                    $=------<((([}}}}[((/<------,$                    ",
"                   #!------<([|1222222134(<------5#                   ",
"                   >------6(72222222222217(6------%                   ",
"                  +;-----8/72222290:a222227/8-----;.                  ",
"                  >------<}222222b---c22222d<------e                  ",
"                  !------f1222222----9222221f------!                  ",
"                 g------{72222222----9222222|{------                  ",
"                 h------<12222222----92222222i------h                 ",
"                 j------k22222222----92222222l------m                 ",
"                 j------a22222222----92222222a------j                 ",
"                 j------a22222222----92222222n------j                 ",
"                 j------:22222222----92222222:------                  ",
"                  ------o22222222----9222222<-------                  ",
"                  -------p22222228---c222222p-------                  ",
"                  q------82222222ro-n222222<o-------                  ",
"                   -------a2222222222222222n-------                   ",
"                   --------r22222222222222r--------                   ",
"                   j--------s22222222222<0--------                    ",
"                    ---------b922222222t8--------q                    ",
"                     ----------8saaaas8----------                     ",
"                     j--------------------------                      ",
"                      q------------------------                       ",
"                        ----------------------                        ",
"                         -------------------q                         ",
"                          q----------------j                          ",
"                            j------------                             ",
"                                jjjjjj                                ",
"                                                                      ",
"                                                                      ",
"                                                                      ",
"                                                                      ",
"                                                                      ",
"                                                                      ",
"                                                                      ",
"                                                                      ",
"                                                                      ",
"                                                                      ",
"                                                                      ",
"                                                                      ",
"                                                                      ",
"                                                                      ",
"                                                                      ",
"                                                                      "};
