/* XPM */
static char * doorLock_xpm[] = {
"70 70 27 1",
" 	c #B4A78C",
".	c #A06D3D",
"+	c #7D5A39",
"@	c #554536",
"#	c #4E4135",
"$	c #8B623B",
"%	c #393633",
"&	c #333333",
"*	c #423B35",
"=	c #624F3D",
"-	c #64513F",
";	c #AC7C4F",
">	c #53473B",
",	c #4B4239",
"'	c #AD7E51",
")	c #AC7949",
"!	c #A5794F",
"~	c #B07D4D",
"{	c #A16E3E",
"]	c #806042",
"^	c #614E3C",
"/	c #99693C",
"(	c #92653B",
"_	c #775739",
":	c #5B4836",
"<	c #403A34",
"[	c #B68353",
"          ..................................................          ",
"          ..................................................          ",
"          ..................................................          ",
"          ..................................................          ",
"          ..................................................          ",
"          ..................................................          ",
"          ..................................................          ",
"          ..................................................          ",
"          ..................................................          ",
"          ..................................................          ",
"          ..................................................          ",
"          ..................................................          ",
"          ..................................................          ",
"          ..................................................          ",
"          ..................................................          ",
"          ..................................................          ",
"          ..................................................          ",
"          ..................................................          ",
"          ..................................................          ",
"          ..................................................          ",
"          ..................................................          ",
"          ..................................................          ",
"          ..................................................          ",
"          ..................................................          ",
"          ..................................................          ",
"          ..................................................          ",
"          ..................................................          ",
"          ...................................+@###+.........          ",
"          ..................................$%&&&&%$........          ",
"          ..................................#&&&&&&#........          ",
"          ..................................&&&&&&&&........          ",
"          ..................................*&&&&&&&........          ",
"          ..................................=&&&&&&-........          ",
"          ..................................;>&&&&,'........          ",
"          ..................................)!&&&&!~........          ",
"          ..................................{]&&&&^{........          ",
"          ...................................#&&&&%/........          ",
"          ..................................(&&&&&&_........          ",
"          ..................................:&&&&&&<........          ",
"          ..................................#&&&&&&&........          ",
"          ..................................~[[[[[[[........          ",
"          ..................................~[[[[[[[........          ",
"          ..................................................          ",
"          ..................................................          ",
"          ..................................................          ",
"          ..................................................          ",
"          ..................................................          ",
"          ..................................................          ",
"          ..................................................          ",
"          ..................................................          ",
"          ..................................................          ",
"          ..................................................          ",
"          ..................................................          ",
"          ..................................................          ",
"          ..................................................          ",
"          ..................................................          ",
"          ..................................................          ",
"          ..................................................          ",
"          ..................................................          ",
"          ..................................................          ",
"          ..................................................          ",
"          ..................................................          ",
"          ..................................................          ",
"          ..................................................          ",
"          ..................................................          ",
"          ..................................................          ",
"          ..................................................          ",
"          ..................................................          ",
"          ..................................................          ",
"          ..................................................          "};
