/* XPM */
static char * houseDarkAlt_xpm[] = {
"70 70 10 1",
" 	c #838796",
".	c #828695",
"+	c #808493",
"@	c #808393",
"#	c #7D8090",
"$	c #787B8A",
"%	c #777A8A",
"&	c #757887",
"*	c #777A89",
"=	c #7C7F8F",
"                                                                      ",
"                                                                      ",
"                                                                      ",
"                                                                      ",
"                                                                      ",
"                                                                      ",
"                                                                      ",
"                                                                      ",
"                                                                      ",
"                                                                      ",
"                                                                      ",
"                                                                      ",
"                                                                      ",
"                                                                      ",
"                                                                      ",
"          .++@@@@@@@@@@@@@@@@@@@++.                                   ",
"          @@@@@@@@@@@@@@@@@@@@@@@@@                                   ",
"         .#$%&&&&&&&&&&&&&&&&&&&%$#                                   ",
"          &&&&&&&&&&&&&&&&&&&&&&&&&                                   ",
"         .&&&&&&&&&&&&&&&&&&&&&&&&&.                                  ",
"          &&&&&&&&&&&&&&&&&&&&&&&&&                                   ",
"          &&&&&&&&&&&&&&&&&&&&&&&&&                                   ",
"          &&&&&&&&&&&&&&&&&&&&&&&&&                                   ",
"          &&&&&&&&&&&&&&&&&&&&&&&&&                                   ",
"          &&&&&&&&&&&&&&&&&&&&&&&&&                                   ",
"          &&&&&&&&&&&&&&&&&&&&&&&&&                                   ",
"          &&&&&&&&&&&&&&&&&&&&&&&&&                                   ",
"          &&&&&&&&&&&&&&&&&&&&&&&&&                                   ",
"          &&&&&&&&&&&&&&&&&&&&&&&&&                                   ",
"          &&&&&&&&&&&&&&&&&&&&&&&&&                                   ",
"          &&&&&&&&&&&&&&&&&&&&&&&&&                                   ",
"          &&&&&&&&&&&&&&&&&&&&&&&&&                                   ",
"          &&&&&&&&&&&&&&&&&&&&&&&&&                                   ",
"          *&&&&&&&&&&&&&&&&&&&&&&&*                                   ",
"          +*&&&&&&&&&&&&&&&&&&&&&*+                                   ",
"                                                                      ",
"                                                                      ",
"                         .++@@@@@@@@@@@@++.                           ",
"                         @@@@@@@@@@@@@@@@@@                           ",
"                        .#$%&&&&&&&&&&&&%%=                           ",
"                         &&&&&&&&&&&&&&&&&&                           ",
"                         &&&&&&&&&&&&&&&&&&                           ",
"                         &&&&&&&&&&&&&&&&&&                           ",
"                         &&&&&&&&&&&&&&&&&&                           ",
"                         &&&&&&&&&&&&&&&&&&                           ",
"                         &&&&&&&&&&&&&&&&&&                           ",
"                         &&&&&&&&&&&&&&&&&&                           ",
"                         *&&&&&&&&&&&&&&&&*                           ",
"                         +*&&&&&&&&&&&&&&*+                           ",
"                                                                      ",
"                                                                      ",
"                                                                      ",
"                                                                      ",
"                                                                      ",
"                                                                      ",
"                                                                      ",
"                                                                      ",
"                                                                      ",
"                                                                      ",
"                                                                      ",
"                                                                      ",
"                                                                      ",
"                                                                      ",
"                                                                      ",
"                                                                      ",
"                                                                      ",
"                                                                      ",
"                                                                      ",
"                                                                      ",
"                                                                      "};
