/* XPM */
static char * player_xpm[] = {
"70 70 318 2",
"  	c None",
". 	c #FFFFFF",
"+ 	c #ACC9ED",
"@ 	c #A9C7EC",
"# 	c #A5C4EB",
"$ 	c #A3C3EB",
"% 	c #A7C6EC",
"& 	c #AAC7EC",
"* 	c #AECAEE",
"= 	c #B1CDEF",
"- 	c #B0CBEE",
"; 	c #A8C6EC",
"> 	c #A4C3EB",
", 	c #A4C4EB",
"' 	c #ADC9ED",
") 	c #A7C5EC",
"! 	c #A6C5EC",
"~ 	c #A5C5EB",
"{ 	c #ABC8EC",
"] 	c #AECBED",
"^ 	c #ABC9ED",
"/ 	c #ADCAEE",
"( 	c #AECBEE",
"_ 	c #AFCBEE",
": 	c #B2CDEF",
"< 	c #BAD3F1",
"[ 	c #BFD5F2",
"} 	c #A9C7ED",
"| 	c #A5C5EC",
"1 	c #B1CCEF",
"2 	c #B6CFEF",
"3 	c #BBD3F0",
"4 	c #A4C4EC",
"5 	c #B1CCEE",
"6 	c #B7D0EF",
"7 	c #BFD5F1",
"8 	c #A9C6EC",
"9 	c #A8C7EC",
"0 	c #B7D1F0",
"a 	c #B0CCEE",
"b 	c #B1CDEE",
"c 	c #A6C5EB",
"d 	c #B2CDEE",
"e 	c #BCD3F1",
"f 	c #A6C4EC",
"g 	c #ABC8ED",
"h 	c #B7D0F0",
"i 	c #BCD4F1",
"j 	c #ADCAED",
"k 	c #B6D0F0",
"l 	c #A5C4EC",
"m 	c #AAC8ED",
"n 	c #A8C7ED",
"o 	c #ACCAED",
"p 	c #AECAED",
"q 	c #A7C6EB",
"r 	c #A2C2EA",
"s 	c #A1C1E9",
"t 	c #9DBCE3",
"u 	c #99B7DE",
"v 	c #94B2D8",
"w 	c #98B6DD",
"x 	c #A0C0E7",
"y 	c #A3C2EA",
"z 	c #97B6DD",
"A 	c #829EC3",
"B 	c #7894B7",
"C 	c #7893B7",
"D 	c #809DC0",
"E 	c #95B4DA",
"F 	c #A2C2E9",
"G 	c #9EBDE4",
"H 	c #9BBAE1",
"I 	c #9AB9E0",
"J 	c #9FBFE7",
"K 	c #91AFD5",
"L 	c #7590B4",
"M 	c #728DB0",
"N 	c #738EB1",
"O 	c #8CA9CE",
"P 	c #A1C0E8",
"Q 	c #FCFDFF",
"R 	c #87A4C9",
"S 	c #7B96BA",
"T 	c #7C98BC",
"U 	c #9FBEE6",
"V 	c #92B0D6",
"W 	c #7792B5",
"X 	c #8BA8CD",
"Y 	c #FEFFFF",
"Z 	c #F2F6FC",
"` 	c #CDDDF3",
" .	c #A1C1E8",
"..	c #91B0D6",
"+.	c #7C97BB",
"@.	c #738FB2",
"#.	c #85A2C7",
"$.	c #98B7DD",
"%.	c #84A1C5",
"&.	c #7B96BB",
"*.	c #839FC4",
"=.	c #94B3D9",
"-.	c #A2C1E9",
";.	c #F7FAFD",
">.	c #D9E5F5",
",.	c #ACC8ED",
"'.	c #95B3D9",
").	c #7C99BC",
"!.	c #99B9E0",
"~.	c #92B1D7",
"{.	c #99B8DF",
"].	c #A3C3EA",
"^.	c #F8FBFD",
"/.	c #FCFDFE",
"(.	c #EBF1FA",
"_.	c #C4D8F2",
":.	c #85A1C6",
"<.	c #7894B8",
"[.	c #7D99BD",
"}.	c #90AED4",
"|.	c #9EBEE5",
"1.	c #9CBCE3",
"2.	c #96B5DC",
"3.	c #9CBBE2",
"4.	c #D7E4F6",
"5.	c #F1F5FC",
"6.	c #F8FAFD",
"7.	c #DDE8F6",
"8.	c #B2CCEE",
"9.	c #A3C4EB",
"0.	c #96B4DB",
"a.	c #8DAAD0",
"b.	c #8BA8CE",
"c.	c #94B2D9",
"d.	c #88A5CA",
"e.	c #7A95B9",
"f.	c #7591B4",
"g.	c #8EB6E7",
"h.	c #DBE6F6",
"i.	c #FAFCFE",
"j.	c #FDFEFF",
"k.	c #D0DFF4",
"l.	c #AAC7ED",
"m.	c #98B7DE",
"n.	c #7A96BA",
"o.	c #728DAF",
"p.	c #809CC0",
"q.	c #8DB5E7",
"r.	c #94B9E8",
"s.	c #BCD2F0",
"t.	c #E9F0FA",
"u.	c #C1D6F1",
"v.	c #738DB0",
"w.	c #819DC2",
"x.	c #99B8DE",
"y.	c #A0C0EA",
"z.	c #D4E1F5",
"A.	c #E3ECF8",
"B.	c #BBD2F0",
"C.	c #9EBDE5",
"D.	c #8DABD1",
"E.	c #809CC1",
"F.	c #8FACD2",
"G.	c #91B7E8",
"H.	c #B0CAED",
"I.	c #E2EBF8",
"J.	c #DEE9F7",
"K.	c #B7CFEF",
"L.	c #A6C4EB",
"M.	c #9FBFE6",
"N.	c #8DB4E6",
"O.	c #8CB4E7",
"P.	c #9CBDE9",
"Q.	c #C9D9F2",
"R.	c #EDF3FB",
"S.	c #FEFEFF",
"T.	c #F5F8FD",
"U.	c #B9D0EF",
"V.	c #9EBEE6",
"W.	c #9EBCE4",
"X.	c #C8D9F2",
"Y.	c #EFF4FB",
"Z.	c #F6F9FD",
"`.	c #DFEAF7",
" +	c #BFD5F0",
".+	c #9DBDE4",
"++	c #8AA8CD",
"@+	c #95B4DB",
"#+	c #8DB5E6",
"$+	c #A2C2EB",
"%+	c #CCDDF3",
"&+	c #F9FBFE",
"*+	c #E6EEF9",
"=+	c #C5D8F2",
"-+	c #93B1D7",
";+	c #7E9ABE",
">+	c #748FB2",
",+	c #7691B4",
"'+	c #87A4C8",
")+	c #C8DAF3",
"!+	c #EEF4FB",
"~+	c #90B6E7",
"{+	c #D0DEF4",
"]+	c #F3F7FC",
"^+	c #FBFCFE",
"/+	c #CBDCF3",
"(+	c #8FACD1",
"_+	c #7995B8",
":+	c #738EB2",
"<+	c #9ABAE1",
"[+	c #B3CCEE",
"}+	c #CEDEF4",
"|+	c #EAF1FA",
"1+	c #8CB5E6",
"2+	c #90B7E7",
"3+	c #CDDDF4",
"4+	c #EEF3FB",
"5+	c #FDFDFE",
"6+	c #F0F5FC",
"7+	c #DAE6F7",
"8+	c #BED4F1",
"9+	c #95B3DA",
"0+	c #7793B6",
"a+	c #89A6CB",
"b+	c #90B6E8",
"c+	c #C4D7F1",
"d+	c #E9EFF9",
"e+	c #E7EEF9",
"f+	c #B5CEEF",
"g+	c #93B2D8",
"h+	c #8EABD1",
"i+	c #E8EFF9",
"j+	c #9ABDEA",
"k+	c #BDD3F0",
"l+	c #E2ECF8",
"m+	c #E4ECF8",
"n+	c #F4F7FD",
"o+	c #FDFDFF",
"p+	c #98BCE9",
"q+	c #B5CDEE",
"r+	c #DAE5F6",
"s+	c #D8E4F6",
"t+	c #B5CEEE",
"u+	c #C8DAF2",
"v+	c #FBFDFE",
"w+	c #D1DFF4",
"x+	c #AEC9ED",
"y+	c #8EB5E7",
"z+	c #93B8E8",
"A+	c #A7C4EB",
"B+	c #C9DBF2",
"C+	c #F8FBFE",
"D+	c #EEF3FA",
"E+	c #E5EDF8",
"F+	c #DCE7F7",
"G+	c #CFDFF4",
"H+	c #C4D8F1",
"I+	c #BAD1EF",
"J+	c #C6D9F2",
"K+	c #D2E1F4",
"L+	c #DEE8F6",
"M+	c #BFD4F0",
"N+	c #90B7E8",
"O+	c #8FB6E7",
"P+	c #9CBEE9",
"Q+	c #B6CEEF",
"R+	c #D7E3F6",
"S+	c #FDFEFE",
"T+	c #F4F8FC",
"U+	c #E9F0F9",
"V+	c #EBF2FA",
"W+	c #F0F5FB",
"X+	c #F6F9FC",
"Y+	c #F5F7FC",
"Z+	c #D5E1F4",
"`+	c #96BBE9",
" @	c #8DB6E7",
".@	c #92B8E8",
"+@	c #A4C2EB",
"@@	c #BED3F0",
"#@	c #DBE7F7",
"$@	c #F2F7FC",
"%@	c #F3F6FC",
"&@	c #F1F5FB",
"*@	c #AAC5EC",
"=@	c #95BAE8",
"-@	c #BCD1EF",
";@	c #D3E1F5",
">@	c #E4ECF9",
",@	c #B2CBED",
"'@	c #9FC0EA",
")@	c #C2D6F1",
"!@	c #D5E3F5",
"~@	c #E8F0FA",
"{@	c #F2F6FB",
"]@	c #E1EBF8",
"^@	c #BBD0EF",
"/@	c #AAC6EC",
"(@	c #9BBEE9",
"_@	c #96BBE8",
":@	c #8CB5E7",
"<@	c #96BAE8",
"[@	c #ACC7EC",
"}@	c #B7CEEE",
"|@	c #D1E0F4",
"1@	c #DDE8F7",
"2@	c #E4EDF9",
"3@	c #E2EBF9",
"4@	c #D6E3F6",
"5@	c #CADBF3",
"6@	c #BFD3F0",
"7@	c #9BBDE9",
"8@	c #96BAE9",
"9@	c #9DBEEA",
"0@	c #A8C5EC",
"a@	c #A9C5EC",
"b@	c #A0C0EB",
"c@	c #8DB4E7",
"                                                        . . . . . . . . . . . . . . .                                                       ",
"                                                . . . . . . . . . . . . . . . . . . . . . . .                                               ",
"                                            . . . . . . . . . . . . . . . . . . . . . . . . . . . . .                                       ",
"                                      . . . . . . . . . . . . . . . . . . . . . . . . . . . . . . . . . .                                   ",
"                                  . . . . . . . . . . . . . . . . . . . . . . . . . . . . . . . . . . . . . .                               ",
"                                . . . . . . . . . . . . . .                         . . . . . . . . . . . . . .                             ",
"                            . . . . . . . . . . . .                                         . . . . . . . . . . .                           ",
"                          . . . . . . . . . .                                                   . . . . . . . . . .                         ",
"                        . . . . . . . .                                                               . . . . . . . .                       ",
"                      . . . . . . . .                       + @ # $ $ $ $ $ # % & * =                     . . . . . . .                     ",
"                    . . . . . . . .                   - ; > > > $ $ $ $ $ $ $ $ > , , , @ -                 . . . . . . .                   ",
"                  . . . . . . .                   ' ) , $ $ $ $ $ $ $ $ $ $ $ $ $ $ $ $ , # @ -                 . . . . . .                 ",
"                  . . . . . . .                 ! # $ $ $ $ $ $ $ $ $ $ $ $ $ $ $ $ > ~ % @ @ { ' ]             . . . . . . .               ",
"                . . . . . . .               * ) $ $ $ $ $ $ $ $ $ $ $ $ $ $ $ $ $ # ; ^ / ( _ _ _ : < [           . . . . . . . .           ",
"              . . . . . . .             + } | $ $ $ $ $ $ $ $ $ $ $ $ $ $ $ $ $ # @ / _ _ _ _ _ _ _ 1 2 3           . . . . . . .           ",
"            . . . . . . .             ^ ; 4 $ $ $ $ $ $ $ $ $ $ $ $ $ $ $ $ $ # @ / _ _ _ _ _ _ _ _ _ 5 6 7           . . . . . . .         ",
"          . . . . . . .             ^ 8 # $ $ $ $ $ $ $ $ $ $ $ $ $ $ $ $ $ , 9 * _ _ _ _ _ _ _ _ _ _ _ = 0             . . . . . . .       ",
"          . . . . . . .             , > $ $ $ $ $ $ $ $ $ $ $ $ $ $ $ $ $ > ) + _ _ _ _ _ _ _ _ _ _ _ _ _ a b           . . . . . . .       ",
"        . . . . . . .             c , $ $ $ $ $ $ $ $ $ $ $ $ $ $ $ $ $ $ , } _ _ _ _ _ _ _ _ _ _ _ _ _ _ _ d e           . . . . . . .     ",
"        . . . . . .               # > $ $ $ $ $ $ $ $ $ $ $ $ $ $ $ $ $ $ f g _ _ _ _ _ _ _ _ _ _ _ _ _ _ _ a h           . . . . . . .     ",
"      . . . . . . .             % , $ $ $ $ $ $ $ $ $ $ $ $ $ $ $ $ $ $ $ % ' _ _ _ _ _ _ _ _ _ _ _ _ _ _ _ _ 5 i           . . . . . .     ",
"      . . . . . . .             | , $ $ $ $ $ $ $ $ $ $ $ $ $ $ $ $ $ $ $ % j _ _ _ _ _ _ _ _ _ _ _ _ _ _ _ _ a k             . . . . . .   ",
"      . . . . . .             / l $ $ $ $ $ $ $ $ $ $ $ $ $ $ $ $ $ $ $ $ % ' _ _ _ _ _ _ _ _ _ _ _ _ _ _ _ _ _ a             . . . . . .   ",
"      . . . . . .             m # $ $ $ $ $ $ $ $ $ $ $ $ $ $ $ $ $ $ $ $ f g _ _ _ _ _ _ _ _ _ _ _ _ _ _ _ _ _ _ *             . . . . .   ",
"    . . . . . . .             # $ $ $ $ $ $ $ $ $ $ $ $ $ $ $ $ $ $ $ $ $ , n _ _ _ _ _ _ _ _ _ _ _ _ _ _ _ _ _ j @             . . . . .   ",
"    . . . . . .               $ $ $ $ $ $ $ $ $ $ $ $ $ $ $ $ $ $ $ $ $ $ $ ! + _ _ _ _ _ _ _ _ _ _ _ _ _ _ _ * @ ~             . . . . . . ",
"    . . . . . .             + , $ $ $ $ $ $ $ $ $ $ $ $ $ $ $ $ $ $ $ $ $ $ , % j _ _ _ _ _ _ _ _ _ _ _ _ _ _ + ) >               . . . . . ",
"    . . . . . .             @ , $ $ $ $ $ $ $ $ $ $ $ $ $ $ $ $ $ $ $ $ $ $ $ , % o _ _ _ _ _ _ _ _ _ _ _ * + % > $ m             . . . . . ",
"    . . . . . .             > $ $ $ $ $ $ $ $ $ $ $ $ $ $ $ $ $ $ $ $ $ $ $ $ $ > ) ^ * _ _ _ _ _ _ _ _ * g ! > $ $ ^             . . . . . ",
"    . . . . . .             $ $ $ $ $ $ $ $ $ $ $ $ $ $ $ $ $ $ $ $ $ $ $ $ $ $ $ $ # @ + * ( ( ( ( p g ; # $ $ $ $ ^             . . . . . ",
"    . . . . . .           } > $ $ $ $ $ $ $ $ $ $ $ $ $ $ $ $ $ $ $ $ $ $ $ $ $ $ $ $ > # c q q q q c # > $ $ $ $ $ ^             . . . . . ",
"    . . . . . .           ! $ $ $ $ $ $ $ $ $ $ $ $ $ $ $ $ $ $ $ $ $ $ $ $ $ $ $ $ $ $ $ $ $ $ $ $ $ $ $ $ $ $ $ $ g             . . . . . ",
"    . . . . . .           $ $ $ $ $ $ $ $ $ $ $ $ $ $ $ $ $ $ $ $ $ $ $ $ $ $ $ $ $ $ $ $ $ $ $ $ $ $ $ $ $ $ $ $ $               . . . . . ",
"    . . . . . .         _ , $ $ $ $ $ $ $ $ $ $ $ $ $ $ $ $ $ $ $ $ $ $ $ $ $ $ $ $ $ $ $ $ $ $ $ $ $ $ $ $ $ $ $ $               . . . . . ",
"    . . . . . .         9 $ $ $ $ $ $ $ $ $ $ $ $ $ $ $ $ $ $ $ $ $ $ $ $ $ $ $ $ $ $ $ $ $ $ $ $ $ $ $ $ $ $ $ $ ,               . . . . . ",
"    . . . . . .         , $ $ $ $ $ $ $ $ $ $ $ $ $ $ $ $ $ $ $ $ $ $ $ $ $ $ $ $ $ $ $ $ $ $ $ $ $ $ $ $ $ $ $ $ }               . . . . . ",
"    . . . . . .         $ $ $ $ $ $ $ $ $ $ $ $ $ $ $ $ $ $ $ $ $ $ $ $ $ $ r s s $ $ $ $ $ $ $ $ $ $ $ $ $ $ $ , _             . . . . . . ",
"    . . . . . . .     & $ $ $ $ $ $ $ $ $ $ $ $ $ $ $ $ $ $ $ $ $ $ $ $ s t u v w x $ $ $ $ $ $ $ $ $ $ $ $ $ $ $               . . . . . . ",
"    . . . . . . .     ! $ $ $ $ $ $ $ $ $ $ $ $ $ $ $ $ $ y r r $ $ $ r z A B C D E F $ $ $ $ $ $ $ $ $ $ $ $ $ !               . . . . .   ",
"      . . . . . .     $ $ $ $ $ $ $ $ $ $ $ $ $ $ $ $ r G H I H J r $ r K L M N B O P $ $ $ $ $ $ $ $ $ $ $ $ > }             . . . . . .   ",
"      . . . . . Q     $ $ $ $ $ $ $ $ $ $ $ $ $ $ $ r H R S C T K U $ r V W N N B X P $ $ $ $ $ $ $ $ $ $ $ $ $               . . . . . .   ",
"      . . . . Y Z ` > $ $ $ $ $ $ $ $ $ $ $ $ $ $ $  ...+.N M @.#.I $ y $.%.S &.*.=.-.$ $ $ $ $ $ $ $ $ $ $ $ >             . . . . . .     ",
"        . . . . ;.>.,.$ $ $ $ $ $ $ $ $ $ $ $ $ $ $ s '.).N M @.#.I $ $  .!.V ~.{.s $ ].r r r y $ $ $ $ $ $ > %             . . . . . .     ",
"        ^./.. . /.(._.# $ $ $ $ $ $ $ $ $ $ $ $ $ $ r H :.<.W [.}.|.$ $ $ r F F r $ s 1.$.2.w 3. .$ $ $ $ $ , }           . . . . . . .     ",
"        4.5.. . . 6.7.8.9.$ $ $ $ $ $ $ $ $ $ $ $ $ $ s 0.a.b.c.|.r $ $ $ $ $ $ $ r 1.d.e.f.C d.3.4 $ $ $ $ $             . . . . . .       ",
"      g.> h.i.. . j.Z k.l.$ $ $ $ $ $ $ $ $ $ $ $ $ $ $ r s s r $ $ $ $ $ $ $ $ $ r m.n.M M o.p.u 4 $ $ $ $ ,           . . . . . . .       ",
"      q.r.s.(.. . . /.t.u.! $ $ $ $ $ $ $ $ $ $ $ $ $ $ $ $ $ $ $ $ $ $ $ $ $ $ $ r {.[.N v.N w.x.4 $ $ $ , @         . . . . . . .         ",
"    q.q.g.y.z.6.. . . i.A.B.f $ $ $ $ $ $ $ $ $ $ $ $ $ $ $ $ $ $ $ $ $ $ $ $ $ $ ].C.D.E.[.w.F.G $ $ $ $ # ^         . . . . . . .         ",
"  q.q.q.q.G.H.I.j.. . Y ;.J.K.L.$ $ $ $ $ $ $ $ $ $ $ $ $ $ $ $ $ $ $ $ $ $ $ $ $ $ r M.z =.m.J $ $ $ $ $ $         . . . . . . .           ",
"  N.q.q.q.O.P.Q.R.j.. . S.T.h.U.! $ $ $ $ $ $ $ $ $ $ $ $ $ $ $ $  .V.W.|.s $ $ $ $ $ $ r r r $ $ $ $ $ $ #       . . . . . . . .           ",
"  q.q.q.q.q.    X.Y.S.. . S.Z.`. +@ $ $ $ $ $ $ $ $ $ $ $ $ $ $ .+~.++d.X @+r $ $ $ $ $ $ $ $ $ $ $ $ $ $ c j   . . . . . . . .             ",
"#+q.q.q.q.      $+%+Z S.. . S.&+*+=+g $ $ $ $ $ $ $ $ $ $ $ $ r -+;+>+N ,+'+|.$ $ $ $ $ $ $ $ $ $ $ $ $ > ,.)+!+S.. . . . .                 ",
"q.q.q.q.q.      ~+L.{+]+j.. . . ^+t./+8.! $ $ $ $ $ $ $ $ $ $ r (+_+M M :+*.<+$ $ $ $ $ $ $ $ $ $ $ $ f [+}+|+i.. . . . .                   ",
"q.q.q.q.1+        2+f 3+4+5+. . . /.6+7+8+@ $ $ $ $ $ $ $ $ $ r 9+p.>+@.0+a+|.$ $ $ $ $ $ $ $ $ $ , m 8+7+Z j.. . . . .                     ",
"  q.q.N.          N.b+y.c+d+/.. . . S.6.e+` f+% > $ $ $ $ $ $ $ M.g+++d.h+{.].$ $ $ $ $ $ $ $ , ; K.k.i+6.S.. . . j.Y                       ",
"                  #+q.g.j+k+*+i.Y . . . /.]+l+%+K.& # > $ $ $ $ $ s V..+M.r $ $ $ $ $ $ , l { B.k.m+n+o+. . . j.;.I.                        ",
"                  q.q.q.g.p+q+r+]+5+. . . Y ^+]+e+s+u.5 @ ! # , , , > > , , , , , l ! & t+u+h.t.T./.Y . . . v+R.w+x+                        ",
"                  q.q.q.q.y+z+A+B+t.&+S.. . . S.j.C+D+E+F+G+H+I+2 2 2 2 2 2 2 K.s.J+K+L+e+5.i.S.Y . . . S.6.I.M+y.N+1+                      ",
"                  q.q.q.q.q.q.O+P+Q+R+6+/.Y . . . . S.S+^+T+Y.(.U+d+d+d+d+d+U+t.V+W+X+/.j.S.. . . . Y S.Y+Z+,.`+y+q.#+                      ",
"                q.q.q.q.q.q.q.q. @.@+@@@#@$@v+S.. . . . . Y S.S.j.j.j.j.j.j.j.j.S.S.Y . . . . . j.&+%@&@  *@b+q.q.q.q.                      ",
"                q.q.q.q.q.q.q.q.q.q.O+=@L.-@;@|+6./.j.. . . . . . . . . . . . . . . . . Y S+^+T.>@/+U.,@    q.q.q.q.q.                      ",
"                1+q.q.q.q.q.q.q.q.q.q.q.O+r.'@H.)@!@~@Z.i././.j.j.j.j.j.j.j.j.j.j./.^+&+{@]@%+^@/@(@_@      N.q.q.q.q.                      ",
"                q.q.q.q.q.q.q.q.q.:@q.q.q.q.y+~+<@y.[@}@)@|@1@2@*+*+*+*+*+*+*+*+3@4@5@6@,@A+7@z+O+g.        O.q.q.q.q.                      ",
"                q.q.q.q.q.q.q.q.q.    q.q.q.q.q.q.g.O+G.8@9@+@0@a@a@a@a@a@a@a@0@f b@j+r.~+g.y+q.q.q.        N.q.q.q.q.                      ",
"              q.q.q.q.q.q.q.q.q.N.          q.q.q.q.q.q.q.g.O+g.g.g.g.g.g.g.g.g.g.g.y+q.q.q.q.q.q.q.        q.q.q.q.q.                      ",
"              q.q.q.q.q.q.q.q.q.N.                q.O.1+q.q.q.q.q.q.q.q.q.q.q.q.q.q.q.q.q.q.q.q.q.q.        q.q.q.q.1+                      ",
"            O.q.q.q.q.q.q.q.q.q.                            q.1+O.O.O.O.O.O.O.N.q.q.q.q.q.q.q.q.q.q.        q.q.q.q.q.                      ",
"            q.q.q.q.q.q.q.q.q.1+                                                N.q.q.q.q.q.q.q.c@O.        q.q.q.q.                        ",
"              O.O.O.O.O.O.O.O.                                                  N.O.O.O.O.O.O.O.c@          N.q.q.1+                        ",
"                                                                                                                                            "};
