/* XPM */
static char * p2_duck_xpm[] = {
"67 72 81 1",
" 	c None",
".	c #FFFFFF",
"+	c #B2CDEE",
"@	c #A9C7EC",
"#	c #A4C4EB",
"$	c #A3C3EB",
"%	c #ABC8EC",
"&	c #BBD3F1",
"*	c #B6D0EF",
"=	c #A6C5EC",
"-	c #A5C4EB",
";	c #A6C5EB",
">	c #ACC9EC",
",	c #ADCAED",
"'	c #AFCBEE",
")	c #B0CDEE",
"!	c #CADDF4",
"~	c #B0CCEE",
"{	c #BED4F1",
"]	c #ADCAEE",
"^	c #C2D7F1",
"/	c #ACC9ED",
"(	c #B4CFEF",
"_	c #A8C6EC",
":	c #ABC8ED",
"<	c #B2CEEF",
"[	c #A7C6EC",
"}	c #AECAED",
"|	c #AAC8EC",
"1	c #96B5DC",
"2	c #99B8DF",
"3	c #87A4C9",
"4	c #728DB0",
"5	c #93B2D8",
"6	c #819DC2",
"7	c #9FBFE7",
"8	c #7E9ABE",
"9	c #7B97BB",
"0	c #EBF2FB",
"a	c #8AA8CD",
"b	c #8DABD1",
"c	c #F9FBFD",
"d	c #90AED4",
"e	c #D1E1F5",
"f	c #E4EEF9",
"g	c #7590B3",
"h	c #8DB5E7",
"i	c #9BBEEA",
"j	c #E2ECF8",
"k	c #D4E3F6",
"l	c #BAD2F0",
"m	c #C6DAF3",
"n	c #EDF3FB",
"o	c #8DB4E6",
"p	c #8CB5E6",
"q	c #F7F9FD",
"r	c #DCE8F7",
"s	c #AAC7EC",
"t	c #F7FAFD",
"u	c #9CBCE3",
"v	c #8CB4E7",
"w	c #B7D0F0",
"x	c #E8F0FA",
"y	c #B8D1F0",
"z	c #BFD5F1",
"A	c #D6E4F6",
"B	c #F3F7FC",
"C	c #C5D9F2",
"D	c #F0F5FC",
"E	c #A3C3EC",
"F	c #A2C2EB",
"G	c #E9F1FA",
"H	c #B4CEEE",
"I	c #94B9E8",
"J	c #CBDDF3",
"K	c #A9C7ED",
"L	c #F6F8FC",
"M	c #BED5F1",
"N	c #DBE7F7",
"O	c #E2ECF9",
"P	c #CDDEF4",
"                           ..............                          ",
"                       ......................                      ",
"                     ...........................                   ",
"                   ...............................                 ",
"                 ...................................               ",
"                .............           .............              ",
"              ...........                   ...........            ",
"             .........                        ..........           ",
"            ........                            .........          ",
"           ........          +@#$$$$#@%+&         ........         ",
"          ........        &#$$$$$$$$$$$$$$@&       ........        ",
"         .......        *$$$$$$$$$$$$$$$$$$$=&       .......       ",
"        .......        @$$$$$$$$$$$$$$$$$$$-;;>       ......       ",
"        .......      &#$$$$$$$$$$$$$$$$$$@,'''')!     .......      ",
"       .......      ~$$$$$$$$$$$$$$$$$$-,''''''''{     .......     ",
"      .......      ]$$$$$$$$$$$$$$$$$$$,''''''''''^     ......     ",
"      ......      +$$$$$$$$$$$$$$$$$$$/''''''''''''!     ......    ",
"     ......       $$$$$$$$$$$$$$$$$$$@''''''''''''')      ......   ",
"     ......      #$$$$$$$$$$$$$$$$$$#'''''''''''''''(     ......   ",
"    ......      %$$$$$$$$$$$$$$$$$$$_''''''''''''''''!     ......  ",
"    .....       $$$$$$$$$$$$$$$$$$$$:''''''''''''''''<     ......  ",
"   ......      ]$$$$$$$$$$$$$$$$$$$$/'''''''''''''''''!     .....  ",
"   ......      $$$$$$$$$$$$$$$$$$$$$/'''''''''''''''''<     ...... ",
"   .....      &$$$$$$$$$$$$$$$$$$$$$:''''''''''''''''''      ..... ",
"   .....      %$$$$$$$$$$$$$$$$$$$$$['''''''''''''''''}]     ..... ",
"  ......      #$$$$$$$$$$$$$$$$$$$$$#'''''''''''''''''|#     ..... ",
"  .....       $$$$$$$$$$$$$$$$$$$$$$$@''''''''''''''''#$     ......",
"  .....      *$$$$$$$$$$$$$$$$$$$$$$$$/''''''''''''''@$$      .....",
"  .....      @$$$$$$$$$$$$$$$$$$$$$$$$$/''''''''''''@$$$+     .....",
"  .....      $$$$$$$$$$$$$$$$$$$$$$$$$$$|''''''''''[$$$$+     .....",
"  .....      $$$$$$$$$$$$$$$$$$$$$$$$$$$$;/'''''}|-$$$$$+     .....",
"  .....     ~$$$$$$$$$$$$$$$$$$$$$$$$$$$$$$#;;;;$$$$$$$$+     .....",
"  .....     =$$$$$$$$$$$$$$$$$$$$$$$$$$$$$$$$$$$$$$$$$$$+     .....",
"  .....     $$$$$$$$$$$$$$$$$$$$$$$$$$$$$$$$$$$$$$$$$$$$      .....",
"  .....    &$$$$$$$$$$$$$$$$$$$$$$$$$$$$$$$$$$$$$$$$$$$$      .....",
"  .....    %$$$$$$$$$$$$$$$$$$$$$$$$$$$$$$$$$$$$$$$$$$$#      .....",
"  .....    #$$$$$$$$$$$$$$$$$$$$$$$$$$$$$$$$$$$$$$$$$$$]      .....",
"  .....    $$$$$$$$$$$$$$$$$$$$$$$$$$$$$$$$$$$$$$$$$$$$&     ......",
"  ......  +$$$$$$$$$$$$$$$$$$$$$$$$$$12$$$$$$$$$$$$$$$$      ......",
"  ......  _$$$$$$$$$$$$$$$$$$$$$$$$34445$$$$$$$$$$$$$$=      ..... ",
"   .....  $$$$$$$$$$$$$$$$$$$$$$$$$44446$$$$$$$$$$$$$$~      ..... ",
"   .....  $$$$$$$$$$$$$$$$784497$$$44448$$$$$$$$$$$$$$      ...... ",
"   .....0#$$$$$$$$$$$$$$$$a4444b$$$6444a$$$$$$$$$$$$$$      .....  ",
"    ....c_$$$$$$$$$$$$$$$$d4444a$$$7ba5$$$$$$$$$$$$$$_      .....  ",
"    .....e$$$$$$$$$$$$$$$$244441$$$$$$$$$$$$$$$$$$$$$~     ......  ",
"    f....c_$$$$$$$$$$$$$$$$a881$$$$$$$$$$dg443$$$$$$$      .....   ",
"   hi.....j$$$$$$$$$$$$$$$$$$$$$$$$$$$$$$4444g$$$$$$$     ......   ",
"   hhk.....l$$$$$$$$$$$$$$$$$$$$$$$$$$$$$44444$$$$$$@    ......    ",
"  hhhi.....c_$$$$$$$$$$$$$$$$$$$$$$$$$$$$64448$$$$$$*    ......    ",
" hhhhhm.....n$$$$$$$$$$$$$$$$$$$$$$$$$$$$$bab$$$$$$$    ......     ",
" ohhhhpq.....r$$$$$$$$$$$$$$$$$$$$$$$$$$$$$$$$$$$$$#   .......     ",
" hhhhh st.....r$$$$$$$$$$$$$$$$$u11u$$$$$$$$$$$$$$$_  .......      ",
"phhhhh vw......x_$$$$$$$$$$$$$$d444g$$$$$$$$$$$$$$$$y.......       ",
"ohhhh  ohm......n_$$$$$$$$$$$$$844441$$$$$$$$$$$$$$}n......        ",
"hhhhh   hhk......nl$$$$$$$$$$$$844441$$$$$$$$$$$$$zc......         ",
"vhhhp   ohhm.......e$$$$$$$$$$$14448$$$$$$$$$$$$_A.......          ",
" hho    ohhhw.......xl$$$$$$$$$$u11$$$$$$$$$$$$zB.......           ",
"        phhhhw........jl$$$$$$$$$$$$$$$$$$$$$Cn.......DE           ",
"        hhhhhhFG........BC}$$$$$$$$$$$$$$$HAc........kIh           ",
"        hhhhhhhIk..........BrJllllllllzejc.........twhhhp          ",
"        hhhhhhhhhKD...............................LIhhhho          ",
"       hhhhhhhhhhhIMt...........................x  hhhhhh          ",
"       hhhhhhhhhhhhhIwG.......................kKh   hhhhh          ",
"       phhhhhhhhhhhhhhhFmG................tN~Ihp    ohhhh          ",
"       hhhhhhhhhpvhhhhhhhhIKmNOOOOOOOOOPwFhhhhh     vhhhh          ",
"       hhhhhhhhh   hhhhhhhhhhhhhhhhhhhhhhhhhhhh     ohhhh          ",
"       hhhhhhhho     hhhhhhhhhhhhhhhhhhhhhhhhhh     hhhhh          ",
"      hhhhhhhhho        hvphhhhhhhhhhhhhhhhhhhh     hhhhp          ",
"      vhhhhhhhh              hpvvvvvvohhhhhhhhh    hhhhhh          ",
"      hhhhhhhhp                       ohhhhhhhv     hhhh           ",
"      vvvvvvvv                        ovvvvvvvo     ohhp           ",
"                                                                   "};
