/* XPM */
static char * boxAlt_xpm[] = {
"70 70 71 1",
" 	c None",
".	c #BB844D",
"+	c #BB844C",
"@	c #BA844C",
"#	c #BB854C",
"$	c #BB834D",
"%	c #B67F48",
"&	c #B37C45",
"*	c #B17943",
"=	c #B07842",
"-	c #AE7640",
";	c #B67E48",
">	c #BA834C",
",	c #BA844D",
"'	c #B47D46",
")	c #B27B44",
"!	c #B77F48",
"~	c #B17A44",
"{	c #B78049",
"]	c #B8824B",
"^	c #9B6A3B",
"/	c #946538",
"(	c #AF7741",
"_	c #B8814A",
":	c #A2703F",
"<	c #AA7543",
"[	c #A06D3D",
"}	c #AC7641",
"|	c #AF7946",
"1	c #B67F49",
"2	c #B07B47",
"3	c #A16E3E",
"4	c #B47E49",
"5	c #B57F4A",
"6	c #A57140",
"7	c #B7814B",
"8	c #B9824C",
"9	c #A87442",
"0	c #B37E49",
"a	c #966639",
"b	c #AE7A46",
"c	c #AC7845",
"d	c #A77442",
"e	c #9D6B3C",
"f	c #B27C48",
"g	c #9E6C3C",
"h	c #966638",
"i	c #9F6C3C",
"j	c #B6804A",
"k	c #976739",
"l	c #986839",
"m	c #B17C47",
"n	c #99683A",
"o	c #98683A",
"p	c #AD7946",
"q	c #97683A",
"r	c #A4703F",
"s	c #B27D49",
"t	c #B17D49",
"u	c #B17C48",
"v	c #A67241",
"w	c #B47F4A",
"x	c #B8824C",
"y	c #AD7845",
"z	c #9A693A",
"A	c #A97643",
"B	c #9D6C3D",
"C	c #AE7540",
"D	c #AF7640",
"E	c #AD7640",
"F	c #AD7540",
"      .++@..................................................@++.      ",
"   #$............................................................$#   ",
"  +..%&**=--------------------------------------------------=**&;>.,  ",
" ..'--------------------------------------------------------------'.. ",
" .*----------------------------------------------------------------)> ",
",)------------------------------------------------------------------).",
"!--------------------------------------------------------------------!",
")--------------------------------------------------------------------)",
"~---------------------------------------------------------------------",
"*---------------------------------------------------------------------",
"----------&{{{..]^//////////////////////////////////^]..>{{(----------",
"---------_........:////////////////////////////////:].......'---------",
"--------)..........<[[[[[[[[[[[[[[[[[[[[[[[[[[[[[[<..........}--------",
"--------{...........<[[[[[[[[[[[[[[[[[[[[[[[[[[[[|...........1--------",
"--------.............2[[[[[[[[[[[[[[[[[[[[[[[[[[2.............--------",
"--------..............2[[[[[[[[[[[[[[[[[[[[[[[32..............--------",
"--------...............43[[[[[[[[[[[[[[[[[[[[35...............--------",
"--------................53[[[[[[[[[[[[[[[[[[35................--------",
"--------.................56[[[[[[[[[[[[[[[[67.................--------",
"--------..................86[[[[[[[[[[[[[[68..................--------",
"--------...................86[[[[[[[[[[[[98...................--------",
"--------0....................<[[[[[[[[[[<....................0--------",
"--------ab....................<[[[[[[[[<....................ba--------",
"--------//c....................|[[[[[[2....................c//--------",
"--------^//d....................2[[[[2....................d//^--------",
"--------[e//:....................f33f....................://e[--------",
"--------[[e//:]...................55...................]://e[[--------",
"--------[[[gh/^]......................................]^/hg[[[--------",
"--------[[[[ih/^j....................................j^/hi[[[[--------",
"--------[[[[[ik/a0..................................0a/ki[[[[[--------",
"--------[[[[[[[l/am................................ma/l[[[[[[[--------",
"--------[[[[[[[[n//c..............................c//n[[[[[[[[--------",
"--------[[[[[[[[[^//c............................c//^[[[[[[[[[--------",
"--------[[[[[[[[[[^//:..........................://^[[[[[[[[[[--------",
"--------[[[[[[[[[[[e//:........................://e[[[[[[[[[[[--------",
"--------[[[[[[[[[[[[e//^]....................]^//e[[[[[[[[[[[[--------",
"--------[[[[[[[[[[[[[gho0...................>pqhg[[[[[[[[[[[[[--------",
"--------[[[[[[[[[[[[[[r]...................8stur[[[[[[[[[[[[[[--------",
"--------[[[[[[[[[[[[[v8...................8ttw>8v[[[[[[[[[[[[[--------",
"--------[[[[[[[[[[[[<....................xttw....<[[[[[[[[[[[[--------",
"--------[[[[[[[[[[[<....................7ttw......<[[[[[[[[[[[--------",
"--------[[[[[[[[[[y....................7tt7........y[[[[[[[[[[--------",
"--------[[[[[[[[[2....................wtt7..........2[[[[[[[[[--------",
"--------[[[[[[[[2....................wttx............2[[[[[[[[--------",
"--------[[[[[[34...................>wtt8..............43[[[[[[--------",
"--------[[[[[35...................]uts8................53[[[[[--------",
"--------[[[[35...................j^qp>..................53[[[[--------",
"--------[[[68...................0a//a0...................86[[[--------",
"--------[[68...................0a/ll/ac...................86[[--------",
"--------[v8...................ca/z[[z//c...................8v[--------",
"--------<....................c//^[[[[^//A....................<--------",
"--------....................d//^[[[[[[^//:....................--------",
"--------...................://e[[[[[[[[e//:...................--------",
"--------..................://e[[[[[[[[[[e//B].................--------",
"--------................]^/hi[[[[[[[[[[[[ih/^]................--------",
"--------...............]^/hi[[[[[[[[[[[[[[ih/^j...............--------",
"--------..............0o/li[[[[[[[[[[[[[[[[il/a0..............--------",
"--------.............0a/l[[[[[[[[[[[[[[[[[[[[l/a0.............--------",
"--------_...........ba/n[[[[[[[[[[[[[[[[[[[[[[n/ac..........._--------",
"--------&..........c//^[[[[[[[[[[[[[[[[[[[[[[[[^//c..........&--------",
"---------_........c//^[[[[[[[[[[[[[[[[[[[[[[[[[[^//A........_---------",
"----------'{>....://e[[[[[[[[[[[[[[[[[[[[[[[[[[[[e//:.....>'----------",
"C---------------------------------------------------------------------",
"C--------------------------------------------------------------------C",
"D-------------------------------------------------------------------- ",
" -------------------------------------------------------------------- ",
" E------------------------------------------------------------------D ",
"  F----------------------------------------------------------------F  ",
"    C------------------------------------------------------------CD   ",
"     E----------------------------------------------------------D     "};
